G04 #@! TF.FileFunction,Copper,L1,Top,Signal*
%FSLAX46Y46*%
G04 Gerber Fmt 4.6, Leading zero omitted, Abs format (unit mm)*
G04 Created by KiCad (PCBNEW 4.0.7) date 05/03/18 17:21:10*
%MOMM*%
%LPD*%
G01*
G04 APERTURE LIST*
%ADD10C,0.100000*%
%ADD11R,1.700000X1.700000*%
%ADD12O,1.700000X1.700000*%
%ADD13R,1.000000X1.250000*%
%ADD14C,1.700000*%
%ADD15R,1.850000X1.850000*%
%ADD16C,1.850000*%
%ADD17R,1.950000X0.600000*%
%ADD18C,0.500000*%
%ADD19R,2.650000X2.030000*%
%ADD20C,0.600000*%
%ADD21C,0.500000*%
%ADD22C,0.250000*%
%ADD23C,0.254000*%
G04 APERTURE END LIST*
D10*
D11*
X124460000Y-79375000D03*
D12*
X124460000Y-81915000D03*
X124460000Y-84455000D03*
X124460000Y-86995000D03*
X124460000Y-89535000D03*
X124460000Y-92075000D03*
X124460000Y-94615000D03*
X124460000Y-97155000D03*
X124460000Y-99695000D03*
X124460000Y-102235000D03*
X124460000Y-104775000D03*
X124460000Y-107315000D03*
X124460000Y-109855000D03*
X124460000Y-112395000D03*
X124460000Y-114935000D03*
X124460000Y-117475000D03*
X124460000Y-120015000D03*
X124460000Y-122555000D03*
X124460000Y-125095000D03*
X124460000Y-127635000D03*
D13*
X114665000Y-121285000D03*
X112665000Y-121285000D03*
D11*
X102870000Y-83185000D03*
D14*
X105410000Y-83185000D03*
X102870000Y-85725000D03*
X105410000Y-85725000D03*
X102870000Y-88265000D03*
X105410000Y-88265000D03*
X102870000Y-90805000D03*
X105410000Y-90805000D03*
X102870000Y-93345000D03*
X105410000Y-93345000D03*
X102870000Y-95885000D03*
X105410000Y-95885000D03*
X102870000Y-98425000D03*
X105410000Y-98425000D03*
X102870000Y-100965000D03*
X105410000Y-100965000D03*
X102870000Y-103505000D03*
X105410000Y-103505000D03*
X102870000Y-106045000D03*
X105410000Y-106045000D03*
X102870000Y-108585000D03*
X105410000Y-108585000D03*
X102870000Y-111125000D03*
X105410000Y-111125000D03*
X102870000Y-113665000D03*
X105410000Y-113665000D03*
X102870000Y-116205000D03*
X105410000Y-116205000D03*
X102870000Y-118745000D03*
X105410000Y-118745000D03*
X102870000Y-121285000D03*
X105410000Y-121285000D03*
X102870000Y-123825000D03*
X105410000Y-123825000D03*
D15*
X116840000Y-83820000D03*
D16*
X114340000Y-83820000D03*
D17*
X110870000Y-107315000D03*
X110870000Y-108585000D03*
X110870000Y-109855000D03*
X110870000Y-111125000D03*
X110870000Y-112395000D03*
X110870000Y-113665000D03*
X110870000Y-114935000D03*
X110870000Y-116205000D03*
X110870000Y-117475000D03*
X110870000Y-118745000D03*
X120270000Y-118745000D03*
X120270000Y-117475000D03*
X120270000Y-116205000D03*
X120270000Y-114935000D03*
X120270000Y-113665000D03*
X120270000Y-112395000D03*
X120270000Y-111125000D03*
X120270000Y-109855000D03*
X120270000Y-108585000D03*
X120270000Y-107315000D03*
D18*
X105410000Y-80645000D03*
X121920000Y-80010000D03*
D19*
X116020000Y-124460000D03*
X120200000Y-124460000D03*
D18*
X104140000Y-126365000D03*
D20*
X118110000Y-121285000D03*
X121285000Y-121285000D03*
X114300000Y-104140000D03*
X104140000Y-114300000D03*
X112395000Y-116205000D03*
X113030000Y-107950000D03*
X108585000Y-107950000D03*
X112395000Y-117475000D03*
D21*
X114665000Y-121285000D02*
X116020000Y-122640000D01*
X116020000Y-122640000D02*
X116020000Y-124460000D01*
X120270000Y-107315000D02*
X116840000Y-107315000D01*
X116840000Y-83820000D02*
X116840000Y-107315000D01*
X116840000Y-107315000D02*
X116840000Y-116840000D01*
X114665000Y-119015000D02*
X114665000Y-121285000D01*
X116840000Y-116840000D02*
X114665000Y-119015000D01*
X114340000Y-83820000D02*
X109220000Y-83820000D01*
X109220000Y-83820000D02*
X107950000Y-85090000D01*
X114300000Y-106680000D02*
X114300000Y-104140000D01*
X110870000Y-107315000D02*
X109220000Y-107315000D01*
X109220000Y-107315000D02*
X107950000Y-106045000D01*
X107950000Y-106045000D02*
X107950000Y-85090000D01*
X114300000Y-83780000D02*
X114340000Y-83820000D01*
X110870000Y-107315000D02*
X112395000Y-107315000D01*
X113030000Y-106680000D02*
X114300000Y-106680000D01*
X114300000Y-106680000D02*
X114340000Y-106680000D01*
X112395000Y-107315000D02*
X113030000Y-106680000D01*
X120270000Y-108585000D02*
X118745000Y-108585000D01*
X118110000Y-109220000D02*
X118110000Y-121285000D01*
X118110000Y-121285000D02*
X118110000Y-127635000D01*
X118745000Y-108585000D02*
X118110000Y-109220000D01*
X114340000Y-106680000D02*
X114340000Y-116800000D01*
X114340000Y-116800000D02*
X112395000Y-118745000D01*
X124460000Y-127635000D02*
X118110000Y-127635000D01*
X118110000Y-127635000D02*
X101600000Y-127635000D01*
X100965000Y-127000000D02*
X100965000Y-123190000D01*
X101600000Y-127635000D02*
X100965000Y-127000000D01*
X112665000Y-121285000D02*
X112665000Y-119015000D01*
X112395000Y-118745000D02*
X110870000Y-118745000D01*
X112665000Y-119015000D02*
X112395000Y-118745000D01*
X105410000Y-121285000D02*
X112665000Y-121285000D01*
X102870000Y-103505000D02*
X100965000Y-103505000D01*
X102870000Y-100965000D02*
X100965000Y-100965000D01*
X102870000Y-98425000D02*
X100965000Y-98425000D01*
X102870000Y-95885000D02*
X100965000Y-95885000D01*
X102870000Y-93345000D02*
X100965000Y-93345000D01*
X102870000Y-90805000D02*
X100965000Y-90805000D01*
X102870000Y-88265000D02*
X100965000Y-88265000D01*
X102870000Y-85725000D02*
X100965000Y-85725000D01*
X105410000Y-121285000D02*
X105410000Y-123825000D01*
X102870000Y-121285000D02*
X105410000Y-121285000D01*
X102870000Y-121285000D02*
X102870000Y-123825000D01*
X105410000Y-123825000D02*
X102870000Y-123825000D01*
X102870000Y-123825000D02*
X101600000Y-123825000D01*
X101600000Y-123825000D02*
X100965000Y-123190000D01*
X100965000Y-123190000D02*
X100965000Y-103505000D01*
X100965000Y-103505000D02*
X100965000Y-100965000D01*
X100965000Y-100965000D02*
X100965000Y-98425000D01*
X100965000Y-98425000D02*
X100965000Y-95885000D01*
X100965000Y-95885000D02*
X100965000Y-93345000D01*
X100965000Y-93345000D02*
X100965000Y-90805000D01*
X100965000Y-90805000D02*
X100965000Y-88265000D01*
X100965000Y-88265000D02*
X100965000Y-85725000D01*
X100965000Y-85725000D02*
X100965000Y-85090000D01*
X100965000Y-85090000D02*
X102870000Y-83185000D01*
D22*
X120270000Y-109855000D02*
X121920000Y-109855000D01*
X123190000Y-104775000D02*
X124460000Y-104775000D01*
X122555000Y-105410000D02*
X123190000Y-104775000D01*
X122555000Y-109220000D02*
X122555000Y-105410000D01*
X121920000Y-109855000D02*
X122555000Y-109220000D01*
X120270000Y-111125000D02*
X121920000Y-111125000D01*
X123190000Y-108585000D02*
X124460000Y-107315000D01*
X123190000Y-109855000D02*
X123190000Y-108585000D01*
X121920000Y-111125000D02*
X123190000Y-109855000D01*
X120270000Y-112395000D02*
X121920000Y-112395000D01*
X121920000Y-112395000D02*
X124460000Y-109855000D01*
X120270000Y-113665000D02*
X123190000Y-113665000D01*
X123190000Y-113665000D02*
X124460000Y-112395000D01*
X120270000Y-114935000D02*
X124460000Y-114935000D01*
X120270000Y-116205000D02*
X123190000Y-116205000D01*
X123190000Y-116205000D02*
X124460000Y-117475000D01*
X120270000Y-117475000D02*
X122555000Y-117475000D01*
X123190000Y-118745000D02*
X124460000Y-120015000D01*
X123190000Y-118110000D02*
X123190000Y-118745000D01*
X122555000Y-117475000D02*
X123190000Y-118110000D01*
X110870000Y-116205000D02*
X112395000Y-116205000D01*
X104140000Y-84455000D02*
X105410000Y-83185000D01*
X104140000Y-114300000D02*
X104140000Y-84455000D01*
X105410000Y-85725000D02*
X106045000Y-85725000D01*
X106045000Y-85725000D02*
X107130002Y-86810002D01*
X112395000Y-114935000D02*
X110870000Y-114935000D01*
X113030000Y-114300000D02*
X112395000Y-114935000D01*
X113030000Y-107950000D02*
X113030000Y-114300000D01*
X107130002Y-106495002D02*
X108585000Y-107950000D01*
X107130002Y-86810002D02*
X107130002Y-106495002D01*
X105410000Y-93345000D02*
X106680000Y-94615000D01*
X107950000Y-108585000D02*
X110870000Y-108585000D01*
X106680000Y-107315000D02*
X107950000Y-108585000D01*
X106680000Y-94615000D02*
X106680000Y-107315000D01*
X112395000Y-117475000D02*
X110870000Y-117475000D01*
X102870000Y-116205000D02*
X104140000Y-114935000D01*
X109220000Y-109855000D02*
X110870000Y-109855000D01*
X107315000Y-111760000D02*
X109220000Y-109855000D01*
X107315000Y-114300000D02*
X107315000Y-111760000D01*
X106680000Y-114935000D02*
X107315000Y-114300000D01*
X104140000Y-114935000D02*
X106680000Y-114935000D01*
X105410000Y-116205000D02*
X107315000Y-116205000D01*
X109220000Y-111125000D02*
X110870000Y-111125000D01*
X107950000Y-112395000D02*
X109220000Y-111125000D01*
X107950000Y-115570000D02*
X107950000Y-112395000D01*
X107315000Y-116205000D02*
X107950000Y-115570000D01*
X102870000Y-118745000D02*
X104140000Y-117475000D01*
X109220000Y-112395000D02*
X110870000Y-112395000D01*
X108585000Y-113030000D02*
X109220000Y-112395000D01*
X108585000Y-113665000D02*
X108585000Y-113030000D01*
X108585000Y-116840000D02*
X108585000Y-113665000D01*
X107950000Y-117475000D02*
X108585000Y-116840000D01*
X104140000Y-117475000D02*
X107950000Y-117475000D01*
X105410000Y-118745000D02*
X108585000Y-118745000D01*
X109855000Y-113665000D02*
X110870000Y-113665000D01*
X109220000Y-114300000D02*
X109855000Y-113665000D01*
X109220000Y-118110000D02*
X109220000Y-114300000D01*
X108585000Y-118745000D02*
X109220000Y-118110000D01*
D21*
X124460000Y-122555000D02*
X122105000Y-122555000D01*
X122105000Y-122555000D02*
X120200000Y-124460000D01*
X120270000Y-118745000D02*
X120200000Y-118815000D01*
X120200000Y-118815000D02*
X120200000Y-124460000D01*
X120270000Y-124390000D02*
X120200000Y-124460000D01*
D23*
G36*
X122868758Y-79747753D02*
X122748744Y-79457297D01*
X122474149Y-79182222D01*
X122115190Y-79033170D01*
X121726515Y-79032830D01*
X121367297Y-79181256D01*
X121092222Y-79455851D01*
X120943170Y-79814810D01*
X120942830Y-80203485D01*
X121091256Y-80562703D01*
X121365851Y-80837778D01*
X121724810Y-80986830D01*
X122113485Y-80987170D01*
X122472703Y-80838744D01*
X122747778Y-80564149D01*
X122874947Y-80257891D01*
X122919451Y-80494410D01*
X123078672Y-80741846D01*
X123266864Y-80870433D01*
X122972147Y-81311508D01*
X122852105Y-81915000D01*
X122972147Y-82518492D01*
X123313998Y-83030107D01*
X123545811Y-83185000D01*
X123313998Y-83339893D01*
X122972147Y-83851508D01*
X122852105Y-84455000D01*
X122972147Y-85058492D01*
X123313998Y-85570107D01*
X123545811Y-85725000D01*
X123313998Y-85879893D01*
X122972147Y-86391508D01*
X122852105Y-86995000D01*
X122972147Y-87598492D01*
X123313998Y-88110107D01*
X123545811Y-88265000D01*
X123313998Y-88419893D01*
X122972147Y-88931508D01*
X122852105Y-89535000D01*
X122972147Y-90138492D01*
X123313998Y-90650107D01*
X123545811Y-90805000D01*
X123313998Y-90959893D01*
X122972147Y-91471508D01*
X122852105Y-92075000D01*
X122972147Y-92678492D01*
X123313998Y-93190107D01*
X123545811Y-93345000D01*
X123313998Y-93499893D01*
X122972147Y-94011508D01*
X122852105Y-94615000D01*
X122972147Y-95218492D01*
X123313998Y-95730107D01*
X123545811Y-95885000D01*
X123313998Y-96039893D01*
X122972147Y-96551508D01*
X122852105Y-97155000D01*
X122972147Y-97758492D01*
X123313998Y-98270107D01*
X123545811Y-98425000D01*
X123313998Y-98579893D01*
X122972147Y-99091508D01*
X122852105Y-99695000D01*
X122972147Y-100298492D01*
X123313998Y-100810107D01*
X123545811Y-100965000D01*
X123313998Y-101119893D01*
X122972147Y-101631508D01*
X122852105Y-102235000D01*
X122972147Y-102838492D01*
X123313998Y-103350107D01*
X123545811Y-103505000D01*
X123313998Y-103659893D01*
X123130254Y-103934884D01*
X122863954Y-103987855D01*
X122587545Y-104172545D01*
X121952545Y-104807545D01*
X121767855Y-105083954D01*
X121703000Y-105410000D01*
X121703000Y-106448051D01*
X121533385Y-106332157D01*
X121245000Y-106273758D01*
X119295000Y-106273758D01*
X119025590Y-106324451D01*
X119004534Y-106338000D01*
X117817000Y-106338000D01*
X117817000Y-85476458D01*
X118034410Y-85435549D01*
X118281846Y-85276328D01*
X118447843Y-85033385D01*
X118506242Y-84745000D01*
X118506242Y-82895000D01*
X118455549Y-82625590D01*
X118296328Y-82378154D01*
X118053385Y-82212157D01*
X117765000Y-82153758D01*
X115915000Y-82153758D01*
X115645590Y-82204451D01*
X115398154Y-82363672D01*
X115232157Y-82606615D01*
X115227254Y-82630829D01*
X115169179Y-82462668D01*
X114586632Y-82248675D01*
X113966539Y-82273903D01*
X113510821Y-82462668D01*
X113421349Y-82721744D01*
X114340000Y-83640395D01*
X114354143Y-83626253D01*
X114533748Y-83805858D01*
X114519605Y-83820000D01*
X114533748Y-83834143D01*
X114354143Y-84013748D01*
X114340000Y-83999605D01*
X113421349Y-84918256D01*
X113510821Y-85177332D01*
X114093368Y-85391325D01*
X114713461Y-85366097D01*
X115169179Y-85177332D01*
X115225097Y-85015414D01*
X115383672Y-85261846D01*
X115626615Y-85427843D01*
X115863000Y-85475712D01*
X115863000Y-116435313D01*
X113974157Y-118324157D01*
X113762370Y-118641118D01*
X113688000Y-119015000D01*
X113688000Y-120103032D01*
X113648154Y-120128672D01*
X113600882Y-120197856D01*
X113524698Y-120121673D01*
X113291309Y-120025000D01*
X112950750Y-120025000D01*
X112792000Y-120183750D01*
X112792000Y-121158000D01*
X112812000Y-121158000D01*
X112812000Y-121412000D01*
X112792000Y-121412000D01*
X112792000Y-122386250D01*
X112950750Y-122545000D01*
X113291309Y-122545000D01*
X113524698Y-122448327D01*
X113599415Y-122373610D01*
X113633672Y-122426846D01*
X113876615Y-122592843D01*
X114165000Y-122651242D01*
X114649556Y-122651242D01*
X114702071Y-122703758D01*
X114695000Y-122703758D01*
X114425590Y-122754451D01*
X114178154Y-122913672D01*
X114012157Y-123156615D01*
X113953758Y-123445000D01*
X113953758Y-125475000D01*
X114004451Y-125744410D01*
X114163672Y-125991846D01*
X114406615Y-126157843D01*
X114695000Y-126216242D01*
X117345000Y-126216242D01*
X117614410Y-126165549D01*
X117861846Y-126006328D01*
X118027843Y-125763385D01*
X118086242Y-125475000D01*
X118086242Y-123445000D01*
X118035549Y-123175590D01*
X117876328Y-122928154D01*
X117633385Y-122762157D01*
X117345000Y-122703758D01*
X116997000Y-122703758D01*
X116997000Y-122640000D01*
X116922630Y-122266118D01*
X116870186Y-122187630D01*
X116710843Y-121949156D01*
X115906242Y-121144556D01*
X115906242Y-120660000D01*
X115855549Y-120390590D01*
X115696328Y-120143154D01*
X115642000Y-120106033D01*
X115642000Y-119419686D01*
X117530843Y-117530844D01*
X117742630Y-117213882D01*
X117770025Y-117076156D01*
X117817000Y-116840000D01*
X117817000Y-108292000D01*
X118660000Y-108292000D01*
X118660000Y-108299250D01*
X118818750Y-108458000D01*
X120143000Y-108458000D01*
X120143000Y-108438000D01*
X120397000Y-108438000D01*
X120397000Y-108458000D01*
X120417000Y-108458000D01*
X120417000Y-108712000D01*
X120397000Y-108712000D01*
X120397000Y-108732000D01*
X120143000Y-108732000D01*
X120143000Y-108712000D01*
X118818750Y-108712000D01*
X118660000Y-108870750D01*
X118660000Y-109011310D01*
X118707782Y-109126665D01*
X118612157Y-109266615D01*
X118553758Y-109555000D01*
X118553758Y-110155000D01*
X118604451Y-110424410D01*
X118645372Y-110488003D01*
X118612157Y-110536615D01*
X118553758Y-110825000D01*
X118553758Y-111425000D01*
X118604451Y-111694410D01*
X118645372Y-111758003D01*
X118612157Y-111806615D01*
X118553758Y-112095000D01*
X118553758Y-112695000D01*
X118604451Y-112964410D01*
X118645372Y-113028003D01*
X118612157Y-113076615D01*
X118553758Y-113365000D01*
X118553758Y-113965000D01*
X118604451Y-114234410D01*
X118645372Y-114298003D01*
X118612157Y-114346615D01*
X118553758Y-114635000D01*
X118553758Y-115235000D01*
X118604451Y-115504410D01*
X118645372Y-115568003D01*
X118612157Y-115616615D01*
X118553758Y-115905000D01*
X118553758Y-116505000D01*
X118604451Y-116774410D01*
X118645372Y-116838003D01*
X118612157Y-116886615D01*
X118553758Y-117175000D01*
X118553758Y-117775000D01*
X118604451Y-118044410D01*
X118645372Y-118108003D01*
X118612157Y-118156615D01*
X118553758Y-118445000D01*
X118553758Y-119045000D01*
X118604451Y-119314410D01*
X118763672Y-119561846D01*
X119006615Y-119727843D01*
X119223000Y-119771662D01*
X119223000Y-122703758D01*
X118875000Y-122703758D01*
X118605590Y-122754451D01*
X118358154Y-122913672D01*
X118192157Y-123156615D01*
X118133758Y-123445000D01*
X118133758Y-125475000D01*
X118184451Y-125744410D01*
X118343672Y-125991846D01*
X118586615Y-126157843D01*
X118875000Y-126216242D01*
X121525000Y-126216242D01*
X121794410Y-126165549D01*
X122041846Y-126006328D01*
X122207843Y-125763385D01*
X122266242Y-125475000D01*
X122266242Y-123775444D01*
X122509686Y-123532000D01*
X123221718Y-123532000D01*
X123313998Y-123670107D01*
X123545811Y-123825000D01*
X123313998Y-123979893D01*
X122972147Y-124491508D01*
X122852105Y-125095000D01*
X122972147Y-125698492D01*
X123313998Y-126210107D01*
X123625118Y-126417991D01*
X123578642Y-126439817D01*
X123188355Y-126868076D01*
X123018524Y-127278110D01*
X123139845Y-127508000D01*
X124333000Y-127508000D01*
X124333000Y-127488000D01*
X124587000Y-127488000D01*
X124587000Y-127508000D01*
X125780155Y-127508000D01*
X125901476Y-127278110D01*
X125731645Y-126868076D01*
X125341358Y-126439817D01*
X125294882Y-126417991D01*
X125606002Y-126210107D01*
X125947853Y-125698492D01*
X126067895Y-125095000D01*
X125947853Y-124491508D01*
X125606002Y-123979893D01*
X125374189Y-123825000D01*
X125606002Y-123670107D01*
X125947853Y-123158492D01*
X126067895Y-122555000D01*
X125947853Y-121951508D01*
X125606002Y-121439893D01*
X125374189Y-121285000D01*
X125606002Y-121130107D01*
X125947853Y-120618492D01*
X126067895Y-120015000D01*
X125947853Y-119411508D01*
X125606002Y-118899893D01*
X125374189Y-118745000D01*
X125606002Y-118590107D01*
X125947853Y-118078492D01*
X126067895Y-117475000D01*
X125947853Y-116871508D01*
X125606002Y-116359893D01*
X125374189Y-116205000D01*
X125606002Y-116050107D01*
X125947853Y-115538492D01*
X126067895Y-114935000D01*
X125947853Y-114331508D01*
X125606002Y-113819893D01*
X125374189Y-113665000D01*
X125606002Y-113510107D01*
X125947853Y-112998492D01*
X126067895Y-112395000D01*
X125947853Y-111791508D01*
X125606002Y-111279893D01*
X125374189Y-111125000D01*
X125606002Y-110970107D01*
X125947853Y-110458492D01*
X126067895Y-109855000D01*
X125947853Y-109251508D01*
X125606002Y-108739893D01*
X125374189Y-108585000D01*
X125606002Y-108430107D01*
X125947853Y-107918492D01*
X126067895Y-107315000D01*
X125947853Y-106711508D01*
X125606002Y-106199893D01*
X125374189Y-106045000D01*
X125606002Y-105890107D01*
X125947853Y-105378492D01*
X126067895Y-104775000D01*
X125947853Y-104171508D01*
X125606002Y-103659893D01*
X125374189Y-103505000D01*
X125606002Y-103350107D01*
X125947853Y-102838492D01*
X126067895Y-102235000D01*
X125947853Y-101631508D01*
X125606002Y-101119893D01*
X125374189Y-100965000D01*
X125606002Y-100810107D01*
X125947853Y-100298492D01*
X126067895Y-99695000D01*
X125947853Y-99091508D01*
X125606002Y-98579893D01*
X125374189Y-98425000D01*
X125606002Y-98270107D01*
X125947853Y-97758492D01*
X126067895Y-97155000D01*
X125947853Y-96551508D01*
X125606002Y-96039893D01*
X125374189Y-95885000D01*
X125606002Y-95730107D01*
X125947853Y-95218492D01*
X126067895Y-94615000D01*
X125947853Y-94011508D01*
X125606002Y-93499893D01*
X125374189Y-93345000D01*
X125606002Y-93190107D01*
X125947853Y-92678492D01*
X126067895Y-92075000D01*
X125947853Y-91471508D01*
X125606002Y-90959893D01*
X125374189Y-90805000D01*
X125606002Y-90650107D01*
X125947853Y-90138492D01*
X126067895Y-89535000D01*
X125947853Y-88931508D01*
X125606002Y-88419893D01*
X125374189Y-88265000D01*
X125606002Y-88110107D01*
X125947853Y-87598492D01*
X126067895Y-86995000D01*
X125947853Y-86391508D01*
X125606002Y-85879893D01*
X125374189Y-85725000D01*
X125606002Y-85570107D01*
X125947853Y-85058492D01*
X126067895Y-84455000D01*
X125947853Y-83851508D01*
X125606002Y-83339893D01*
X125374189Y-83185000D01*
X125606002Y-83030107D01*
X125947853Y-82518492D01*
X126067895Y-81915000D01*
X125947853Y-81311508D01*
X125652049Y-80868807D01*
X125826846Y-80756328D01*
X125992843Y-80513385D01*
X126051242Y-80225000D01*
X126051242Y-78907000D01*
X128103000Y-78907000D01*
X128103000Y-128103000D01*
X125855456Y-128103000D01*
X125901476Y-127991890D01*
X125780155Y-127762000D01*
X124587000Y-127762000D01*
X124587000Y-127782000D01*
X124333000Y-127782000D01*
X124333000Y-127762000D01*
X123139845Y-127762000D01*
X123018524Y-127991890D01*
X123064544Y-128103000D01*
X100497000Y-128103000D01*
X100497000Y-126558485D01*
X103162830Y-126558485D01*
X103311256Y-126917703D01*
X103585851Y-127192778D01*
X103944810Y-127341830D01*
X104333485Y-127342170D01*
X104692703Y-127193744D01*
X104967778Y-126919149D01*
X105116830Y-126560190D01*
X105117170Y-126171515D01*
X104968744Y-125812297D01*
X104694149Y-125537222D01*
X104335190Y-125388170D01*
X103946515Y-125387830D01*
X103587297Y-125536256D01*
X103312222Y-125810851D01*
X103163170Y-126169810D01*
X103162830Y-126558485D01*
X100497000Y-126558485D01*
X100497000Y-124868958D01*
X102005647Y-124868958D01*
X102085920Y-125120259D01*
X102641279Y-125321718D01*
X103231458Y-125295315D01*
X103654080Y-125120259D01*
X103734353Y-124868958D01*
X104545647Y-124868958D01*
X104625920Y-125120259D01*
X105181279Y-125321718D01*
X105771458Y-125295315D01*
X106194080Y-125120259D01*
X106274353Y-124868958D01*
X105410000Y-124004605D01*
X104545647Y-124868958D01*
X103734353Y-124868958D01*
X102870000Y-124004605D01*
X102005647Y-124868958D01*
X100497000Y-124868958D01*
X100497000Y-123596279D01*
X101373282Y-123596279D01*
X101399685Y-124186458D01*
X101574741Y-124609080D01*
X101826042Y-124689353D01*
X102690395Y-123825000D01*
X103049605Y-123825000D01*
X103913958Y-124689353D01*
X104140000Y-124617148D01*
X104366042Y-124689353D01*
X105230395Y-123825000D01*
X105589605Y-123825000D01*
X106453958Y-124689353D01*
X106705259Y-124609080D01*
X106906718Y-124053721D01*
X106880315Y-123463542D01*
X106705259Y-123040920D01*
X106453958Y-122960647D01*
X105589605Y-123825000D01*
X105230395Y-123825000D01*
X104366042Y-122960647D01*
X104140000Y-123032852D01*
X103913958Y-122960647D01*
X103049605Y-123825000D01*
X102690395Y-123825000D01*
X101826042Y-122960647D01*
X101574741Y-123040920D01*
X101373282Y-123596279D01*
X100497000Y-123596279D01*
X100497000Y-122328958D01*
X102005647Y-122328958D01*
X102077852Y-122555000D01*
X102005647Y-122781042D01*
X102870000Y-123645395D01*
X103734353Y-122781042D01*
X103662148Y-122555000D01*
X103734353Y-122328958D01*
X104545647Y-122328958D01*
X104617852Y-122555000D01*
X104545647Y-122781042D01*
X105410000Y-123645395D01*
X106274353Y-122781042D01*
X106202148Y-122555000D01*
X106274353Y-122328958D01*
X105410000Y-121464605D01*
X104545647Y-122328958D01*
X103734353Y-122328958D01*
X102870000Y-121464605D01*
X102005647Y-122328958D01*
X100497000Y-122328958D01*
X100497000Y-121056279D01*
X101373282Y-121056279D01*
X101399685Y-121646458D01*
X101574741Y-122069080D01*
X101826042Y-122149353D01*
X102690395Y-121285000D01*
X103049605Y-121285000D01*
X103913958Y-122149353D01*
X104140000Y-122077148D01*
X104366042Y-122149353D01*
X105230395Y-121285000D01*
X105589605Y-121285000D01*
X106453958Y-122149353D01*
X106705259Y-122069080D01*
X106886030Y-121570750D01*
X111530000Y-121570750D01*
X111530000Y-122036310D01*
X111626673Y-122269699D01*
X111805302Y-122448327D01*
X112038691Y-122545000D01*
X112379250Y-122545000D01*
X112538000Y-122386250D01*
X112538000Y-121412000D01*
X111688750Y-121412000D01*
X111530000Y-121570750D01*
X106886030Y-121570750D01*
X106906718Y-121513721D01*
X106880315Y-120923542D01*
X106718833Y-120533690D01*
X111530000Y-120533690D01*
X111530000Y-120999250D01*
X111688750Y-121158000D01*
X112538000Y-121158000D01*
X112538000Y-120183750D01*
X112379250Y-120025000D01*
X112038691Y-120025000D01*
X111805302Y-120121673D01*
X111626673Y-120300301D01*
X111530000Y-120533690D01*
X106718833Y-120533690D01*
X106705259Y-120500920D01*
X106453958Y-120420647D01*
X105589605Y-121285000D01*
X105230395Y-121285000D01*
X104366042Y-120420647D01*
X104140000Y-120492852D01*
X103913958Y-120420647D01*
X103049605Y-121285000D01*
X102690395Y-121285000D01*
X101826042Y-120420647D01*
X101574741Y-120500920D01*
X101373282Y-121056279D01*
X100497000Y-121056279D01*
X100497000Y-106357308D01*
X101292727Y-106357308D01*
X101532305Y-106937132D01*
X101909784Y-107315270D01*
X101533864Y-107690535D01*
X101293275Y-108269939D01*
X101292727Y-108897308D01*
X101532305Y-109477132D01*
X101909784Y-109855270D01*
X101533864Y-110230535D01*
X101293275Y-110809939D01*
X101292727Y-111437308D01*
X101532305Y-112017132D01*
X101909784Y-112395270D01*
X101533864Y-112770535D01*
X101293275Y-113349939D01*
X101292727Y-113977308D01*
X101532305Y-114557132D01*
X101909784Y-114935270D01*
X101533864Y-115310535D01*
X101293275Y-115889939D01*
X101292727Y-116517308D01*
X101532305Y-117097132D01*
X101909784Y-117475270D01*
X101533864Y-117850535D01*
X101293275Y-118429939D01*
X101292727Y-119057308D01*
X101532305Y-119637132D01*
X101975535Y-120081136D01*
X102047218Y-120110901D01*
X102005647Y-120241042D01*
X102870000Y-121105395D01*
X103734353Y-120241042D01*
X103692909Y-120111297D01*
X103762132Y-120082695D01*
X104140270Y-119705216D01*
X104515535Y-120081136D01*
X104587218Y-120110901D01*
X104545647Y-120241042D01*
X105410000Y-121105395D01*
X106274353Y-120241042D01*
X106232909Y-120111297D01*
X106302132Y-120082695D01*
X106746136Y-119639465D01*
X106763769Y-119597000D01*
X108585000Y-119597000D01*
X108911046Y-119532145D01*
X109187455Y-119347455D01*
X109290344Y-119244566D01*
X109356673Y-119404699D01*
X109535302Y-119583327D01*
X109768691Y-119680000D01*
X110584250Y-119680000D01*
X110743000Y-119521250D01*
X110743000Y-118872000D01*
X110997000Y-118872000D01*
X110997000Y-119521250D01*
X111155750Y-119680000D01*
X111971309Y-119680000D01*
X112204698Y-119583327D01*
X112383327Y-119404699D01*
X112480000Y-119171310D01*
X112480000Y-119030750D01*
X112321250Y-118872000D01*
X110997000Y-118872000D01*
X110743000Y-118872000D01*
X110723000Y-118872000D01*
X110723000Y-118618000D01*
X110743000Y-118618000D01*
X110743000Y-118598000D01*
X110997000Y-118598000D01*
X110997000Y-118618000D01*
X112321250Y-118618000D01*
X112437213Y-118502037D01*
X112598387Y-118502178D01*
X112975989Y-118346156D01*
X113265140Y-118057508D01*
X113421821Y-117680179D01*
X113422178Y-117271613D01*
X113266156Y-116894011D01*
X113212397Y-116840159D01*
X113265140Y-116787508D01*
X113421821Y-116410179D01*
X113422178Y-116001613D01*
X113266156Y-115624011D01*
X113088682Y-115446228D01*
X113632455Y-114902455D01*
X113817145Y-114626046D01*
X113882000Y-114300000D01*
X113882000Y-108550616D01*
X113900140Y-108532508D01*
X114056821Y-108155179D01*
X114057178Y-107746613D01*
X113901156Y-107369011D01*
X113612508Y-107079860D01*
X113235179Y-106923179D01*
X112826613Y-106922822D01*
X112449011Y-107078844D01*
X112339667Y-107187998D01*
X112321252Y-107187998D01*
X112480000Y-107029250D01*
X112480000Y-106888690D01*
X112383327Y-106655301D01*
X112204698Y-106476673D01*
X111971309Y-106380000D01*
X111155750Y-106380000D01*
X110997000Y-106538750D01*
X110997000Y-107188000D01*
X111017000Y-107188000D01*
X111017000Y-107442000D01*
X110997000Y-107442000D01*
X110997000Y-107462000D01*
X110743000Y-107462000D01*
X110743000Y-107442000D01*
X110723000Y-107442000D01*
X110723000Y-107188000D01*
X110743000Y-107188000D01*
X110743000Y-106538750D01*
X110584250Y-106380000D01*
X109768691Y-106380000D01*
X109535302Y-106476673D01*
X109356673Y-106655301D01*
X109260000Y-106888690D01*
X109260000Y-107029250D01*
X109418748Y-107187998D01*
X109275458Y-107187998D01*
X109167508Y-107079860D01*
X108790179Y-106923179D01*
X108763065Y-106923155D01*
X107982002Y-106142092D01*
X107982002Y-86810002D01*
X107917147Y-86483956D01*
X107732457Y-86207547D01*
X106987230Y-85462320D01*
X106987273Y-85412692D01*
X106747695Y-84832868D01*
X106370216Y-84454730D01*
X106746136Y-84079465D01*
X106956285Y-83573368D01*
X112768675Y-83573368D01*
X112793903Y-84193461D01*
X112982668Y-84649179D01*
X113241744Y-84738651D01*
X114160395Y-83820000D01*
X113241744Y-82901349D01*
X112982668Y-82990821D01*
X112768675Y-83573368D01*
X106956285Y-83573368D01*
X106986725Y-83500061D01*
X106987273Y-82872692D01*
X106747695Y-82292868D01*
X106304465Y-81848864D01*
X105725061Y-81608275D01*
X105637299Y-81608198D01*
X105962703Y-81473744D01*
X106237778Y-81199149D01*
X106386830Y-80840190D01*
X106387170Y-80451515D01*
X106238744Y-80092297D01*
X105964149Y-79817222D01*
X105605190Y-79668170D01*
X105216515Y-79667830D01*
X104857297Y-79816256D01*
X104582222Y-80090851D01*
X104433170Y-80449810D01*
X104432830Y-80838485D01*
X104581256Y-81197703D01*
X104855851Y-81472778D01*
X105181021Y-81607800D01*
X105097692Y-81607727D01*
X104517868Y-81847305D01*
X104296742Y-82068045D01*
X104258327Y-81975302D01*
X104079699Y-81796673D01*
X103846310Y-81700000D01*
X103155750Y-81700000D01*
X102997000Y-81858750D01*
X102997000Y-83058000D01*
X103017000Y-83058000D01*
X103017000Y-83312000D01*
X102997000Y-83312000D01*
X102997000Y-83332000D01*
X102743000Y-83332000D01*
X102743000Y-83312000D01*
X101543750Y-83312000D01*
X101385000Y-83470750D01*
X101385000Y-84161309D01*
X101481673Y-84394698D01*
X101660301Y-84573327D01*
X101893690Y-84670000D01*
X102009174Y-84670000D01*
X102005647Y-84681042D01*
X102870000Y-85545395D01*
X102884143Y-85531253D01*
X103063748Y-85710858D01*
X103049605Y-85725000D01*
X103063748Y-85739143D01*
X102884143Y-85918748D01*
X102870000Y-85904605D01*
X102005647Y-86768958D01*
X102077852Y-86995000D01*
X102005647Y-87221042D01*
X102870000Y-88085395D01*
X102884143Y-88071253D01*
X103063748Y-88250858D01*
X103049605Y-88265000D01*
X103063748Y-88279143D01*
X102884143Y-88458748D01*
X102870000Y-88444605D01*
X102005647Y-89308958D01*
X102077852Y-89535000D01*
X102005647Y-89761042D01*
X102870000Y-90625395D01*
X102884143Y-90611253D01*
X103063748Y-90790858D01*
X103049605Y-90805000D01*
X103063748Y-90819143D01*
X102884143Y-90998748D01*
X102870000Y-90984605D01*
X102005647Y-91848958D01*
X102077852Y-92075000D01*
X102005647Y-92301042D01*
X102870000Y-93165395D01*
X102884143Y-93151253D01*
X103063748Y-93330858D01*
X103049605Y-93345000D01*
X103063748Y-93359143D01*
X102884143Y-93538748D01*
X102870000Y-93524605D01*
X102005647Y-94388958D01*
X102077852Y-94615000D01*
X102005647Y-94841042D01*
X102870000Y-95705395D01*
X102884143Y-95691253D01*
X103063748Y-95870858D01*
X103049605Y-95885000D01*
X103063748Y-95899143D01*
X102884143Y-96078748D01*
X102870000Y-96064605D01*
X102005647Y-96928958D01*
X102077852Y-97155000D01*
X102005647Y-97381042D01*
X102870000Y-98245395D01*
X102884143Y-98231253D01*
X103063748Y-98410858D01*
X103049605Y-98425000D01*
X103063748Y-98439143D01*
X102884143Y-98618748D01*
X102870000Y-98604605D01*
X102005647Y-99468958D01*
X102077852Y-99695000D01*
X102005647Y-99921042D01*
X102870000Y-100785395D01*
X102884143Y-100771253D01*
X103063748Y-100950858D01*
X103049605Y-100965000D01*
X103063748Y-100979143D01*
X102884143Y-101158748D01*
X102870000Y-101144605D01*
X102005647Y-102008958D01*
X102077852Y-102235000D01*
X102005647Y-102461042D01*
X102870000Y-103325395D01*
X102884143Y-103311253D01*
X103063748Y-103490858D01*
X103049605Y-103505000D01*
X103063748Y-103519143D01*
X102884143Y-103698748D01*
X102870000Y-103684605D01*
X102005647Y-104548958D01*
X102047091Y-104678703D01*
X101977868Y-104707305D01*
X101533864Y-105150535D01*
X101293275Y-105729939D01*
X101292727Y-106357308D01*
X100497000Y-106357308D01*
X100497000Y-103276279D01*
X101373282Y-103276279D01*
X101399685Y-103866458D01*
X101574741Y-104289080D01*
X101826042Y-104369353D01*
X102690395Y-103505000D01*
X101826042Y-102640647D01*
X101574741Y-102720920D01*
X101373282Y-103276279D01*
X100497000Y-103276279D01*
X100497000Y-100736279D01*
X101373282Y-100736279D01*
X101399685Y-101326458D01*
X101574741Y-101749080D01*
X101826042Y-101829353D01*
X102690395Y-100965000D01*
X101826042Y-100100647D01*
X101574741Y-100180920D01*
X101373282Y-100736279D01*
X100497000Y-100736279D01*
X100497000Y-98196279D01*
X101373282Y-98196279D01*
X101399685Y-98786458D01*
X101574741Y-99209080D01*
X101826042Y-99289353D01*
X102690395Y-98425000D01*
X101826042Y-97560647D01*
X101574741Y-97640920D01*
X101373282Y-98196279D01*
X100497000Y-98196279D01*
X100497000Y-95656279D01*
X101373282Y-95656279D01*
X101399685Y-96246458D01*
X101574741Y-96669080D01*
X101826042Y-96749353D01*
X102690395Y-95885000D01*
X101826042Y-95020647D01*
X101574741Y-95100920D01*
X101373282Y-95656279D01*
X100497000Y-95656279D01*
X100497000Y-93116279D01*
X101373282Y-93116279D01*
X101399685Y-93706458D01*
X101574741Y-94129080D01*
X101826042Y-94209353D01*
X102690395Y-93345000D01*
X101826042Y-92480647D01*
X101574741Y-92560920D01*
X101373282Y-93116279D01*
X100497000Y-93116279D01*
X100497000Y-90576279D01*
X101373282Y-90576279D01*
X101399685Y-91166458D01*
X101574741Y-91589080D01*
X101826042Y-91669353D01*
X102690395Y-90805000D01*
X101826042Y-89940647D01*
X101574741Y-90020920D01*
X101373282Y-90576279D01*
X100497000Y-90576279D01*
X100497000Y-88036279D01*
X101373282Y-88036279D01*
X101399685Y-88626458D01*
X101574741Y-89049080D01*
X101826042Y-89129353D01*
X102690395Y-88265000D01*
X101826042Y-87400647D01*
X101574741Y-87480920D01*
X101373282Y-88036279D01*
X100497000Y-88036279D01*
X100497000Y-85496279D01*
X101373282Y-85496279D01*
X101399685Y-86086458D01*
X101574741Y-86509080D01*
X101826042Y-86589353D01*
X102690395Y-85725000D01*
X101826042Y-84860647D01*
X101574741Y-84940920D01*
X101373282Y-85496279D01*
X100497000Y-85496279D01*
X100497000Y-82208691D01*
X101385000Y-82208691D01*
X101385000Y-82899250D01*
X101543750Y-83058000D01*
X102743000Y-83058000D01*
X102743000Y-81858750D01*
X102584250Y-81700000D01*
X101893690Y-81700000D01*
X101660301Y-81796673D01*
X101481673Y-81975302D01*
X101385000Y-82208691D01*
X100497000Y-82208691D01*
X100497000Y-78907000D01*
X122868758Y-78907000D01*
X122868758Y-79747753D01*
X122868758Y-79747753D01*
G37*
X122868758Y-79747753D02*
X122748744Y-79457297D01*
X122474149Y-79182222D01*
X122115190Y-79033170D01*
X121726515Y-79032830D01*
X121367297Y-79181256D01*
X121092222Y-79455851D01*
X120943170Y-79814810D01*
X120942830Y-80203485D01*
X121091256Y-80562703D01*
X121365851Y-80837778D01*
X121724810Y-80986830D01*
X122113485Y-80987170D01*
X122472703Y-80838744D01*
X122747778Y-80564149D01*
X122874947Y-80257891D01*
X122919451Y-80494410D01*
X123078672Y-80741846D01*
X123266864Y-80870433D01*
X122972147Y-81311508D01*
X122852105Y-81915000D01*
X122972147Y-82518492D01*
X123313998Y-83030107D01*
X123545811Y-83185000D01*
X123313998Y-83339893D01*
X122972147Y-83851508D01*
X122852105Y-84455000D01*
X122972147Y-85058492D01*
X123313998Y-85570107D01*
X123545811Y-85725000D01*
X123313998Y-85879893D01*
X122972147Y-86391508D01*
X122852105Y-86995000D01*
X122972147Y-87598492D01*
X123313998Y-88110107D01*
X123545811Y-88265000D01*
X123313998Y-88419893D01*
X122972147Y-88931508D01*
X122852105Y-89535000D01*
X122972147Y-90138492D01*
X123313998Y-90650107D01*
X123545811Y-90805000D01*
X123313998Y-90959893D01*
X122972147Y-91471508D01*
X122852105Y-92075000D01*
X122972147Y-92678492D01*
X123313998Y-93190107D01*
X123545811Y-93345000D01*
X123313998Y-93499893D01*
X122972147Y-94011508D01*
X122852105Y-94615000D01*
X122972147Y-95218492D01*
X123313998Y-95730107D01*
X123545811Y-95885000D01*
X123313998Y-96039893D01*
X122972147Y-96551508D01*
X122852105Y-97155000D01*
X122972147Y-97758492D01*
X123313998Y-98270107D01*
X123545811Y-98425000D01*
X123313998Y-98579893D01*
X122972147Y-99091508D01*
X122852105Y-99695000D01*
X122972147Y-100298492D01*
X123313998Y-100810107D01*
X123545811Y-100965000D01*
X123313998Y-101119893D01*
X122972147Y-101631508D01*
X122852105Y-102235000D01*
X122972147Y-102838492D01*
X123313998Y-103350107D01*
X123545811Y-103505000D01*
X123313998Y-103659893D01*
X123130254Y-103934884D01*
X122863954Y-103987855D01*
X122587545Y-104172545D01*
X121952545Y-104807545D01*
X121767855Y-105083954D01*
X121703000Y-105410000D01*
X121703000Y-106448051D01*
X121533385Y-106332157D01*
X121245000Y-106273758D01*
X119295000Y-106273758D01*
X119025590Y-106324451D01*
X119004534Y-106338000D01*
X117817000Y-106338000D01*
X117817000Y-85476458D01*
X118034410Y-85435549D01*
X118281846Y-85276328D01*
X118447843Y-85033385D01*
X118506242Y-84745000D01*
X118506242Y-82895000D01*
X118455549Y-82625590D01*
X118296328Y-82378154D01*
X118053385Y-82212157D01*
X117765000Y-82153758D01*
X115915000Y-82153758D01*
X115645590Y-82204451D01*
X115398154Y-82363672D01*
X115232157Y-82606615D01*
X115227254Y-82630829D01*
X115169179Y-82462668D01*
X114586632Y-82248675D01*
X113966539Y-82273903D01*
X113510821Y-82462668D01*
X113421349Y-82721744D01*
X114340000Y-83640395D01*
X114354143Y-83626253D01*
X114533748Y-83805858D01*
X114519605Y-83820000D01*
X114533748Y-83834143D01*
X114354143Y-84013748D01*
X114340000Y-83999605D01*
X113421349Y-84918256D01*
X113510821Y-85177332D01*
X114093368Y-85391325D01*
X114713461Y-85366097D01*
X115169179Y-85177332D01*
X115225097Y-85015414D01*
X115383672Y-85261846D01*
X115626615Y-85427843D01*
X115863000Y-85475712D01*
X115863000Y-116435313D01*
X113974157Y-118324157D01*
X113762370Y-118641118D01*
X113688000Y-119015000D01*
X113688000Y-120103032D01*
X113648154Y-120128672D01*
X113600882Y-120197856D01*
X113524698Y-120121673D01*
X113291309Y-120025000D01*
X112950750Y-120025000D01*
X112792000Y-120183750D01*
X112792000Y-121158000D01*
X112812000Y-121158000D01*
X112812000Y-121412000D01*
X112792000Y-121412000D01*
X112792000Y-122386250D01*
X112950750Y-122545000D01*
X113291309Y-122545000D01*
X113524698Y-122448327D01*
X113599415Y-122373610D01*
X113633672Y-122426846D01*
X113876615Y-122592843D01*
X114165000Y-122651242D01*
X114649556Y-122651242D01*
X114702071Y-122703758D01*
X114695000Y-122703758D01*
X114425590Y-122754451D01*
X114178154Y-122913672D01*
X114012157Y-123156615D01*
X113953758Y-123445000D01*
X113953758Y-125475000D01*
X114004451Y-125744410D01*
X114163672Y-125991846D01*
X114406615Y-126157843D01*
X114695000Y-126216242D01*
X117345000Y-126216242D01*
X117614410Y-126165549D01*
X117861846Y-126006328D01*
X118027843Y-125763385D01*
X118086242Y-125475000D01*
X118086242Y-123445000D01*
X118035549Y-123175590D01*
X117876328Y-122928154D01*
X117633385Y-122762157D01*
X117345000Y-122703758D01*
X116997000Y-122703758D01*
X116997000Y-122640000D01*
X116922630Y-122266118D01*
X116870186Y-122187630D01*
X116710843Y-121949156D01*
X115906242Y-121144556D01*
X115906242Y-120660000D01*
X115855549Y-120390590D01*
X115696328Y-120143154D01*
X115642000Y-120106033D01*
X115642000Y-119419686D01*
X117530843Y-117530844D01*
X117742630Y-117213882D01*
X117770025Y-117076156D01*
X117817000Y-116840000D01*
X117817000Y-108292000D01*
X118660000Y-108292000D01*
X118660000Y-108299250D01*
X118818750Y-108458000D01*
X120143000Y-108458000D01*
X120143000Y-108438000D01*
X120397000Y-108438000D01*
X120397000Y-108458000D01*
X120417000Y-108458000D01*
X120417000Y-108712000D01*
X120397000Y-108712000D01*
X120397000Y-108732000D01*
X120143000Y-108732000D01*
X120143000Y-108712000D01*
X118818750Y-108712000D01*
X118660000Y-108870750D01*
X118660000Y-109011310D01*
X118707782Y-109126665D01*
X118612157Y-109266615D01*
X118553758Y-109555000D01*
X118553758Y-110155000D01*
X118604451Y-110424410D01*
X118645372Y-110488003D01*
X118612157Y-110536615D01*
X118553758Y-110825000D01*
X118553758Y-111425000D01*
X118604451Y-111694410D01*
X118645372Y-111758003D01*
X118612157Y-111806615D01*
X118553758Y-112095000D01*
X118553758Y-112695000D01*
X118604451Y-112964410D01*
X118645372Y-113028003D01*
X118612157Y-113076615D01*
X118553758Y-113365000D01*
X118553758Y-113965000D01*
X118604451Y-114234410D01*
X118645372Y-114298003D01*
X118612157Y-114346615D01*
X118553758Y-114635000D01*
X118553758Y-115235000D01*
X118604451Y-115504410D01*
X118645372Y-115568003D01*
X118612157Y-115616615D01*
X118553758Y-115905000D01*
X118553758Y-116505000D01*
X118604451Y-116774410D01*
X118645372Y-116838003D01*
X118612157Y-116886615D01*
X118553758Y-117175000D01*
X118553758Y-117775000D01*
X118604451Y-118044410D01*
X118645372Y-118108003D01*
X118612157Y-118156615D01*
X118553758Y-118445000D01*
X118553758Y-119045000D01*
X118604451Y-119314410D01*
X118763672Y-119561846D01*
X119006615Y-119727843D01*
X119223000Y-119771662D01*
X119223000Y-122703758D01*
X118875000Y-122703758D01*
X118605590Y-122754451D01*
X118358154Y-122913672D01*
X118192157Y-123156615D01*
X118133758Y-123445000D01*
X118133758Y-125475000D01*
X118184451Y-125744410D01*
X118343672Y-125991846D01*
X118586615Y-126157843D01*
X118875000Y-126216242D01*
X121525000Y-126216242D01*
X121794410Y-126165549D01*
X122041846Y-126006328D01*
X122207843Y-125763385D01*
X122266242Y-125475000D01*
X122266242Y-123775444D01*
X122509686Y-123532000D01*
X123221718Y-123532000D01*
X123313998Y-123670107D01*
X123545811Y-123825000D01*
X123313998Y-123979893D01*
X122972147Y-124491508D01*
X122852105Y-125095000D01*
X122972147Y-125698492D01*
X123313998Y-126210107D01*
X123625118Y-126417991D01*
X123578642Y-126439817D01*
X123188355Y-126868076D01*
X123018524Y-127278110D01*
X123139845Y-127508000D01*
X124333000Y-127508000D01*
X124333000Y-127488000D01*
X124587000Y-127488000D01*
X124587000Y-127508000D01*
X125780155Y-127508000D01*
X125901476Y-127278110D01*
X125731645Y-126868076D01*
X125341358Y-126439817D01*
X125294882Y-126417991D01*
X125606002Y-126210107D01*
X125947853Y-125698492D01*
X126067895Y-125095000D01*
X125947853Y-124491508D01*
X125606002Y-123979893D01*
X125374189Y-123825000D01*
X125606002Y-123670107D01*
X125947853Y-123158492D01*
X126067895Y-122555000D01*
X125947853Y-121951508D01*
X125606002Y-121439893D01*
X125374189Y-121285000D01*
X125606002Y-121130107D01*
X125947853Y-120618492D01*
X126067895Y-120015000D01*
X125947853Y-119411508D01*
X125606002Y-118899893D01*
X125374189Y-118745000D01*
X125606002Y-118590107D01*
X125947853Y-118078492D01*
X126067895Y-117475000D01*
X125947853Y-116871508D01*
X125606002Y-116359893D01*
X125374189Y-116205000D01*
X125606002Y-116050107D01*
X125947853Y-115538492D01*
X126067895Y-114935000D01*
X125947853Y-114331508D01*
X125606002Y-113819893D01*
X125374189Y-113665000D01*
X125606002Y-113510107D01*
X125947853Y-112998492D01*
X126067895Y-112395000D01*
X125947853Y-111791508D01*
X125606002Y-111279893D01*
X125374189Y-111125000D01*
X125606002Y-110970107D01*
X125947853Y-110458492D01*
X126067895Y-109855000D01*
X125947853Y-109251508D01*
X125606002Y-108739893D01*
X125374189Y-108585000D01*
X125606002Y-108430107D01*
X125947853Y-107918492D01*
X126067895Y-107315000D01*
X125947853Y-106711508D01*
X125606002Y-106199893D01*
X125374189Y-106045000D01*
X125606002Y-105890107D01*
X125947853Y-105378492D01*
X126067895Y-104775000D01*
X125947853Y-104171508D01*
X125606002Y-103659893D01*
X125374189Y-103505000D01*
X125606002Y-103350107D01*
X125947853Y-102838492D01*
X126067895Y-102235000D01*
X125947853Y-101631508D01*
X125606002Y-101119893D01*
X125374189Y-100965000D01*
X125606002Y-100810107D01*
X125947853Y-100298492D01*
X126067895Y-99695000D01*
X125947853Y-99091508D01*
X125606002Y-98579893D01*
X125374189Y-98425000D01*
X125606002Y-98270107D01*
X125947853Y-97758492D01*
X126067895Y-97155000D01*
X125947853Y-96551508D01*
X125606002Y-96039893D01*
X125374189Y-95885000D01*
X125606002Y-95730107D01*
X125947853Y-95218492D01*
X126067895Y-94615000D01*
X125947853Y-94011508D01*
X125606002Y-93499893D01*
X125374189Y-93345000D01*
X125606002Y-93190107D01*
X125947853Y-92678492D01*
X126067895Y-92075000D01*
X125947853Y-91471508D01*
X125606002Y-90959893D01*
X125374189Y-90805000D01*
X125606002Y-90650107D01*
X125947853Y-90138492D01*
X126067895Y-89535000D01*
X125947853Y-88931508D01*
X125606002Y-88419893D01*
X125374189Y-88265000D01*
X125606002Y-88110107D01*
X125947853Y-87598492D01*
X126067895Y-86995000D01*
X125947853Y-86391508D01*
X125606002Y-85879893D01*
X125374189Y-85725000D01*
X125606002Y-85570107D01*
X125947853Y-85058492D01*
X126067895Y-84455000D01*
X125947853Y-83851508D01*
X125606002Y-83339893D01*
X125374189Y-83185000D01*
X125606002Y-83030107D01*
X125947853Y-82518492D01*
X126067895Y-81915000D01*
X125947853Y-81311508D01*
X125652049Y-80868807D01*
X125826846Y-80756328D01*
X125992843Y-80513385D01*
X126051242Y-80225000D01*
X126051242Y-78907000D01*
X128103000Y-78907000D01*
X128103000Y-128103000D01*
X125855456Y-128103000D01*
X125901476Y-127991890D01*
X125780155Y-127762000D01*
X124587000Y-127762000D01*
X124587000Y-127782000D01*
X124333000Y-127782000D01*
X124333000Y-127762000D01*
X123139845Y-127762000D01*
X123018524Y-127991890D01*
X123064544Y-128103000D01*
X100497000Y-128103000D01*
X100497000Y-126558485D01*
X103162830Y-126558485D01*
X103311256Y-126917703D01*
X103585851Y-127192778D01*
X103944810Y-127341830D01*
X104333485Y-127342170D01*
X104692703Y-127193744D01*
X104967778Y-126919149D01*
X105116830Y-126560190D01*
X105117170Y-126171515D01*
X104968744Y-125812297D01*
X104694149Y-125537222D01*
X104335190Y-125388170D01*
X103946515Y-125387830D01*
X103587297Y-125536256D01*
X103312222Y-125810851D01*
X103163170Y-126169810D01*
X103162830Y-126558485D01*
X100497000Y-126558485D01*
X100497000Y-124868958D01*
X102005647Y-124868958D01*
X102085920Y-125120259D01*
X102641279Y-125321718D01*
X103231458Y-125295315D01*
X103654080Y-125120259D01*
X103734353Y-124868958D01*
X104545647Y-124868958D01*
X104625920Y-125120259D01*
X105181279Y-125321718D01*
X105771458Y-125295315D01*
X106194080Y-125120259D01*
X106274353Y-124868958D01*
X105410000Y-124004605D01*
X104545647Y-124868958D01*
X103734353Y-124868958D01*
X102870000Y-124004605D01*
X102005647Y-124868958D01*
X100497000Y-124868958D01*
X100497000Y-123596279D01*
X101373282Y-123596279D01*
X101399685Y-124186458D01*
X101574741Y-124609080D01*
X101826042Y-124689353D01*
X102690395Y-123825000D01*
X103049605Y-123825000D01*
X103913958Y-124689353D01*
X104140000Y-124617148D01*
X104366042Y-124689353D01*
X105230395Y-123825000D01*
X105589605Y-123825000D01*
X106453958Y-124689353D01*
X106705259Y-124609080D01*
X106906718Y-124053721D01*
X106880315Y-123463542D01*
X106705259Y-123040920D01*
X106453958Y-122960647D01*
X105589605Y-123825000D01*
X105230395Y-123825000D01*
X104366042Y-122960647D01*
X104140000Y-123032852D01*
X103913958Y-122960647D01*
X103049605Y-123825000D01*
X102690395Y-123825000D01*
X101826042Y-122960647D01*
X101574741Y-123040920D01*
X101373282Y-123596279D01*
X100497000Y-123596279D01*
X100497000Y-122328958D01*
X102005647Y-122328958D01*
X102077852Y-122555000D01*
X102005647Y-122781042D01*
X102870000Y-123645395D01*
X103734353Y-122781042D01*
X103662148Y-122555000D01*
X103734353Y-122328958D01*
X104545647Y-122328958D01*
X104617852Y-122555000D01*
X104545647Y-122781042D01*
X105410000Y-123645395D01*
X106274353Y-122781042D01*
X106202148Y-122555000D01*
X106274353Y-122328958D01*
X105410000Y-121464605D01*
X104545647Y-122328958D01*
X103734353Y-122328958D01*
X102870000Y-121464605D01*
X102005647Y-122328958D01*
X100497000Y-122328958D01*
X100497000Y-121056279D01*
X101373282Y-121056279D01*
X101399685Y-121646458D01*
X101574741Y-122069080D01*
X101826042Y-122149353D01*
X102690395Y-121285000D01*
X103049605Y-121285000D01*
X103913958Y-122149353D01*
X104140000Y-122077148D01*
X104366042Y-122149353D01*
X105230395Y-121285000D01*
X105589605Y-121285000D01*
X106453958Y-122149353D01*
X106705259Y-122069080D01*
X106886030Y-121570750D01*
X111530000Y-121570750D01*
X111530000Y-122036310D01*
X111626673Y-122269699D01*
X111805302Y-122448327D01*
X112038691Y-122545000D01*
X112379250Y-122545000D01*
X112538000Y-122386250D01*
X112538000Y-121412000D01*
X111688750Y-121412000D01*
X111530000Y-121570750D01*
X106886030Y-121570750D01*
X106906718Y-121513721D01*
X106880315Y-120923542D01*
X106718833Y-120533690D01*
X111530000Y-120533690D01*
X111530000Y-120999250D01*
X111688750Y-121158000D01*
X112538000Y-121158000D01*
X112538000Y-120183750D01*
X112379250Y-120025000D01*
X112038691Y-120025000D01*
X111805302Y-120121673D01*
X111626673Y-120300301D01*
X111530000Y-120533690D01*
X106718833Y-120533690D01*
X106705259Y-120500920D01*
X106453958Y-120420647D01*
X105589605Y-121285000D01*
X105230395Y-121285000D01*
X104366042Y-120420647D01*
X104140000Y-120492852D01*
X103913958Y-120420647D01*
X103049605Y-121285000D01*
X102690395Y-121285000D01*
X101826042Y-120420647D01*
X101574741Y-120500920D01*
X101373282Y-121056279D01*
X100497000Y-121056279D01*
X100497000Y-106357308D01*
X101292727Y-106357308D01*
X101532305Y-106937132D01*
X101909784Y-107315270D01*
X101533864Y-107690535D01*
X101293275Y-108269939D01*
X101292727Y-108897308D01*
X101532305Y-109477132D01*
X101909784Y-109855270D01*
X101533864Y-110230535D01*
X101293275Y-110809939D01*
X101292727Y-111437308D01*
X101532305Y-112017132D01*
X101909784Y-112395270D01*
X101533864Y-112770535D01*
X101293275Y-113349939D01*
X101292727Y-113977308D01*
X101532305Y-114557132D01*
X101909784Y-114935270D01*
X101533864Y-115310535D01*
X101293275Y-115889939D01*
X101292727Y-116517308D01*
X101532305Y-117097132D01*
X101909784Y-117475270D01*
X101533864Y-117850535D01*
X101293275Y-118429939D01*
X101292727Y-119057308D01*
X101532305Y-119637132D01*
X101975535Y-120081136D01*
X102047218Y-120110901D01*
X102005647Y-120241042D01*
X102870000Y-121105395D01*
X103734353Y-120241042D01*
X103692909Y-120111297D01*
X103762132Y-120082695D01*
X104140270Y-119705216D01*
X104515535Y-120081136D01*
X104587218Y-120110901D01*
X104545647Y-120241042D01*
X105410000Y-121105395D01*
X106274353Y-120241042D01*
X106232909Y-120111297D01*
X106302132Y-120082695D01*
X106746136Y-119639465D01*
X106763769Y-119597000D01*
X108585000Y-119597000D01*
X108911046Y-119532145D01*
X109187455Y-119347455D01*
X109290344Y-119244566D01*
X109356673Y-119404699D01*
X109535302Y-119583327D01*
X109768691Y-119680000D01*
X110584250Y-119680000D01*
X110743000Y-119521250D01*
X110743000Y-118872000D01*
X110997000Y-118872000D01*
X110997000Y-119521250D01*
X111155750Y-119680000D01*
X111971309Y-119680000D01*
X112204698Y-119583327D01*
X112383327Y-119404699D01*
X112480000Y-119171310D01*
X112480000Y-119030750D01*
X112321250Y-118872000D01*
X110997000Y-118872000D01*
X110743000Y-118872000D01*
X110723000Y-118872000D01*
X110723000Y-118618000D01*
X110743000Y-118618000D01*
X110743000Y-118598000D01*
X110997000Y-118598000D01*
X110997000Y-118618000D01*
X112321250Y-118618000D01*
X112437213Y-118502037D01*
X112598387Y-118502178D01*
X112975989Y-118346156D01*
X113265140Y-118057508D01*
X113421821Y-117680179D01*
X113422178Y-117271613D01*
X113266156Y-116894011D01*
X113212397Y-116840159D01*
X113265140Y-116787508D01*
X113421821Y-116410179D01*
X113422178Y-116001613D01*
X113266156Y-115624011D01*
X113088682Y-115446228D01*
X113632455Y-114902455D01*
X113817145Y-114626046D01*
X113882000Y-114300000D01*
X113882000Y-108550616D01*
X113900140Y-108532508D01*
X114056821Y-108155179D01*
X114057178Y-107746613D01*
X113901156Y-107369011D01*
X113612508Y-107079860D01*
X113235179Y-106923179D01*
X112826613Y-106922822D01*
X112449011Y-107078844D01*
X112339667Y-107187998D01*
X112321252Y-107187998D01*
X112480000Y-107029250D01*
X112480000Y-106888690D01*
X112383327Y-106655301D01*
X112204698Y-106476673D01*
X111971309Y-106380000D01*
X111155750Y-106380000D01*
X110997000Y-106538750D01*
X110997000Y-107188000D01*
X111017000Y-107188000D01*
X111017000Y-107442000D01*
X110997000Y-107442000D01*
X110997000Y-107462000D01*
X110743000Y-107462000D01*
X110743000Y-107442000D01*
X110723000Y-107442000D01*
X110723000Y-107188000D01*
X110743000Y-107188000D01*
X110743000Y-106538750D01*
X110584250Y-106380000D01*
X109768691Y-106380000D01*
X109535302Y-106476673D01*
X109356673Y-106655301D01*
X109260000Y-106888690D01*
X109260000Y-107029250D01*
X109418748Y-107187998D01*
X109275458Y-107187998D01*
X109167508Y-107079860D01*
X108790179Y-106923179D01*
X108763065Y-106923155D01*
X107982002Y-106142092D01*
X107982002Y-86810002D01*
X107917147Y-86483956D01*
X107732457Y-86207547D01*
X106987230Y-85462320D01*
X106987273Y-85412692D01*
X106747695Y-84832868D01*
X106370216Y-84454730D01*
X106746136Y-84079465D01*
X106956285Y-83573368D01*
X112768675Y-83573368D01*
X112793903Y-84193461D01*
X112982668Y-84649179D01*
X113241744Y-84738651D01*
X114160395Y-83820000D01*
X113241744Y-82901349D01*
X112982668Y-82990821D01*
X112768675Y-83573368D01*
X106956285Y-83573368D01*
X106986725Y-83500061D01*
X106987273Y-82872692D01*
X106747695Y-82292868D01*
X106304465Y-81848864D01*
X105725061Y-81608275D01*
X105637299Y-81608198D01*
X105962703Y-81473744D01*
X106237778Y-81199149D01*
X106386830Y-80840190D01*
X106387170Y-80451515D01*
X106238744Y-80092297D01*
X105964149Y-79817222D01*
X105605190Y-79668170D01*
X105216515Y-79667830D01*
X104857297Y-79816256D01*
X104582222Y-80090851D01*
X104433170Y-80449810D01*
X104432830Y-80838485D01*
X104581256Y-81197703D01*
X104855851Y-81472778D01*
X105181021Y-81607800D01*
X105097692Y-81607727D01*
X104517868Y-81847305D01*
X104296742Y-82068045D01*
X104258327Y-81975302D01*
X104079699Y-81796673D01*
X103846310Y-81700000D01*
X103155750Y-81700000D01*
X102997000Y-81858750D01*
X102997000Y-83058000D01*
X103017000Y-83058000D01*
X103017000Y-83312000D01*
X102997000Y-83312000D01*
X102997000Y-83332000D01*
X102743000Y-83332000D01*
X102743000Y-83312000D01*
X101543750Y-83312000D01*
X101385000Y-83470750D01*
X101385000Y-84161309D01*
X101481673Y-84394698D01*
X101660301Y-84573327D01*
X101893690Y-84670000D01*
X102009174Y-84670000D01*
X102005647Y-84681042D01*
X102870000Y-85545395D01*
X102884143Y-85531253D01*
X103063748Y-85710858D01*
X103049605Y-85725000D01*
X103063748Y-85739143D01*
X102884143Y-85918748D01*
X102870000Y-85904605D01*
X102005647Y-86768958D01*
X102077852Y-86995000D01*
X102005647Y-87221042D01*
X102870000Y-88085395D01*
X102884143Y-88071253D01*
X103063748Y-88250858D01*
X103049605Y-88265000D01*
X103063748Y-88279143D01*
X102884143Y-88458748D01*
X102870000Y-88444605D01*
X102005647Y-89308958D01*
X102077852Y-89535000D01*
X102005647Y-89761042D01*
X102870000Y-90625395D01*
X102884143Y-90611253D01*
X103063748Y-90790858D01*
X103049605Y-90805000D01*
X103063748Y-90819143D01*
X102884143Y-90998748D01*
X102870000Y-90984605D01*
X102005647Y-91848958D01*
X102077852Y-92075000D01*
X102005647Y-92301042D01*
X102870000Y-93165395D01*
X102884143Y-93151253D01*
X103063748Y-93330858D01*
X103049605Y-93345000D01*
X103063748Y-93359143D01*
X102884143Y-93538748D01*
X102870000Y-93524605D01*
X102005647Y-94388958D01*
X102077852Y-94615000D01*
X102005647Y-94841042D01*
X102870000Y-95705395D01*
X102884143Y-95691253D01*
X103063748Y-95870858D01*
X103049605Y-95885000D01*
X103063748Y-95899143D01*
X102884143Y-96078748D01*
X102870000Y-96064605D01*
X102005647Y-96928958D01*
X102077852Y-97155000D01*
X102005647Y-97381042D01*
X102870000Y-98245395D01*
X102884143Y-98231253D01*
X103063748Y-98410858D01*
X103049605Y-98425000D01*
X103063748Y-98439143D01*
X102884143Y-98618748D01*
X102870000Y-98604605D01*
X102005647Y-99468958D01*
X102077852Y-99695000D01*
X102005647Y-99921042D01*
X102870000Y-100785395D01*
X102884143Y-100771253D01*
X103063748Y-100950858D01*
X103049605Y-100965000D01*
X103063748Y-100979143D01*
X102884143Y-101158748D01*
X102870000Y-101144605D01*
X102005647Y-102008958D01*
X102077852Y-102235000D01*
X102005647Y-102461042D01*
X102870000Y-103325395D01*
X102884143Y-103311253D01*
X103063748Y-103490858D01*
X103049605Y-103505000D01*
X103063748Y-103519143D01*
X102884143Y-103698748D01*
X102870000Y-103684605D01*
X102005647Y-104548958D01*
X102047091Y-104678703D01*
X101977868Y-104707305D01*
X101533864Y-105150535D01*
X101293275Y-105729939D01*
X101292727Y-106357308D01*
X100497000Y-106357308D01*
X100497000Y-103276279D01*
X101373282Y-103276279D01*
X101399685Y-103866458D01*
X101574741Y-104289080D01*
X101826042Y-104369353D01*
X102690395Y-103505000D01*
X101826042Y-102640647D01*
X101574741Y-102720920D01*
X101373282Y-103276279D01*
X100497000Y-103276279D01*
X100497000Y-100736279D01*
X101373282Y-100736279D01*
X101399685Y-101326458D01*
X101574741Y-101749080D01*
X101826042Y-101829353D01*
X102690395Y-100965000D01*
X101826042Y-100100647D01*
X101574741Y-100180920D01*
X101373282Y-100736279D01*
X100497000Y-100736279D01*
X100497000Y-98196279D01*
X101373282Y-98196279D01*
X101399685Y-98786458D01*
X101574741Y-99209080D01*
X101826042Y-99289353D01*
X102690395Y-98425000D01*
X101826042Y-97560647D01*
X101574741Y-97640920D01*
X101373282Y-98196279D01*
X100497000Y-98196279D01*
X100497000Y-95656279D01*
X101373282Y-95656279D01*
X101399685Y-96246458D01*
X101574741Y-96669080D01*
X101826042Y-96749353D01*
X102690395Y-95885000D01*
X101826042Y-95020647D01*
X101574741Y-95100920D01*
X101373282Y-95656279D01*
X100497000Y-95656279D01*
X100497000Y-93116279D01*
X101373282Y-93116279D01*
X101399685Y-93706458D01*
X101574741Y-94129080D01*
X101826042Y-94209353D01*
X102690395Y-93345000D01*
X101826042Y-92480647D01*
X101574741Y-92560920D01*
X101373282Y-93116279D01*
X100497000Y-93116279D01*
X100497000Y-90576279D01*
X101373282Y-90576279D01*
X101399685Y-91166458D01*
X101574741Y-91589080D01*
X101826042Y-91669353D01*
X102690395Y-90805000D01*
X101826042Y-89940647D01*
X101574741Y-90020920D01*
X101373282Y-90576279D01*
X100497000Y-90576279D01*
X100497000Y-88036279D01*
X101373282Y-88036279D01*
X101399685Y-88626458D01*
X101574741Y-89049080D01*
X101826042Y-89129353D01*
X102690395Y-88265000D01*
X101826042Y-87400647D01*
X101574741Y-87480920D01*
X101373282Y-88036279D01*
X100497000Y-88036279D01*
X100497000Y-85496279D01*
X101373282Y-85496279D01*
X101399685Y-86086458D01*
X101574741Y-86509080D01*
X101826042Y-86589353D01*
X102690395Y-85725000D01*
X101826042Y-84860647D01*
X101574741Y-84940920D01*
X101373282Y-85496279D01*
X100497000Y-85496279D01*
X100497000Y-82208691D01*
X101385000Y-82208691D01*
X101385000Y-82899250D01*
X101543750Y-83058000D01*
X102743000Y-83058000D01*
X102743000Y-81858750D01*
X102584250Y-81700000D01*
X101893690Y-81700000D01*
X101660301Y-81796673D01*
X101481673Y-81975302D01*
X101385000Y-82208691D01*
X100497000Y-82208691D01*
X100497000Y-78907000D01*
X122868758Y-78907000D01*
X122868758Y-79747753D01*
G36*
X122338000Y-118462910D02*
X122338000Y-118745000D01*
X122402855Y-119071046D01*
X122587545Y-119347455D01*
X122918965Y-119678875D01*
X122852105Y-120015000D01*
X122972147Y-120618492D01*
X123313998Y-121130107D01*
X123545811Y-121285000D01*
X123313998Y-121439893D01*
X123221718Y-121578000D01*
X122105000Y-121578000D01*
X121731118Y-121652370D01*
X121603907Y-121737370D01*
X121414157Y-121864157D01*
X121177000Y-122101314D01*
X121177000Y-119786242D01*
X121245000Y-119786242D01*
X121514410Y-119735549D01*
X121761846Y-119576328D01*
X121927843Y-119333385D01*
X121986242Y-119045000D01*
X121986242Y-118445000D01*
X121964039Y-118327000D01*
X122202090Y-118327000D01*
X122338000Y-118462910D01*
X122338000Y-118462910D01*
G37*
X122338000Y-118462910D02*
X122338000Y-118745000D01*
X122402855Y-119071046D01*
X122587545Y-119347455D01*
X122918965Y-119678875D01*
X122852105Y-120015000D01*
X122972147Y-120618492D01*
X123313998Y-121130107D01*
X123545811Y-121285000D01*
X123313998Y-121439893D01*
X123221718Y-121578000D01*
X122105000Y-121578000D01*
X121731118Y-121652370D01*
X121603907Y-121737370D01*
X121414157Y-121864157D01*
X121177000Y-122101314D01*
X121177000Y-119786242D01*
X121245000Y-119786242D01*
X121514410Y-119735549D01*
X121761846Y-119576328D01*
X121927843Y-119333385D01*
X121986242Y-119045000D01*
X121986242Y-118445000D01*
X121964039Y-118327000D01*
X122202090Y-118327000D01*
X122338000Y-118462910D01*
M02*
