M48
;DRILL file {KiCad 4.0.7} date 05/03/18 17:21:14
;FORMAT={-:-/ absolute / inch / decimal}
FMAT,2
INCH,TZ
T1C0.016
T2C0.035
T3C0.039
%
G90
G05
M72
T1
X4.1Y-4.5
X4.275Y-4.25
X4.425Y-4.575
X4.425Y-4.625
X4.45Y-4.25
X4.5Y-4.1
X4.65Y-4.775
X4.775Y-4.775
T2
X4.5016Y-3.3
X4.6Y-3.3
T3
X4.05Y-3.275
X4.05Y-3.375
X4.05Y-3.475
X4.05Y-3.575
X4.05Y-3.675
X4.05Y-3.775
X4.05Y-3.875
X4.05Y-3.975
X4.05Y-4.075
X4.05Y-4.175
X4.05Y-4.275
X4.05Y-4.375
X4.05Y-4.475
X4.05Y-4.575
X4.05Y-4.675
X4.05Y-4.775
X4.05Y-4.875
X4.15Y-3.275
X4.15Y-3.375
X4.15Y-3.475
X4.15Y-3.575
X4.15Y-3.675
X4.15Y-3.775
X4.15Y-3.875
X4.15Y-3.975
X4.15Y-4.075
X4.15Y-4.175
X4.15Y-4.275
X4.15Y-4.375
X4.15Y-4.475
X4.15Y-4.575
X4.15Y-4.675
X4.15Y-4.775
X4.15Y-4.875
X4.9Y-3.125
X4.9Y-3.225
X4.9Y-3.325
X4.9Y-3.425
X4.9Y-3.525
X4.9Y-3.625
X4.9Y-3.725
X4.9Y-3.825
X4.9Y-3.925
X4.9Y-4.025
X4.9Y-4.125
X4.9Y-4.225
X4.9Y-4.325
X4.9Y-4.425
X4.9Y-4.525
X4.9Y-4.625
X4.9Y-4.725
X4.9Y-4.825
X4.9Y-4.925
X4.9Y-5.025
T0
M30
