G04 #@! TF.FileFunction,Copper,L2,Bot,Signal*
%FSLAX46Y46*%
G04 Gerber Fmt 4.6, Leading zero omitted, Abs format (unit mm)*
G04 Created by KiCad (PCBNEW 4.0.7) date 05/03/18 17:21:10*
%MOMM*%
%LPD*%
G01*
G04 APERTURE LIST*
%ADD10C,0.100000*%
%ADD11R,1.700000X1.700000*%
%ADD12O,1.700000X1.700000*%
%ADD13C,1.700000*%
%ADD14R,1.850000X1.850000*%
%ADD15C,1.850000*%
%ADD16C,0.600000*%
%ADD17C,0.500000*%
%ADD18C,0.250000*%
%ADD19C,0.254000*%
G04 APERTURE END LIST*
D10*
D11*
X124460000Y-79375000D03*
D12*
X124460000Y-81915000D03*
X124460000Y-84455000D03*
X124460000Y-86995000D03*
X124460000Y-89535000D03*
X124460000Y-92075000D03*
X124460000Y-94615000D03*
X124460000Y-97155000D03*
X124460000Y-99695000D03*
X124460000Y-102235000D03*
X124460000Y-104775000D03*
X124460000Y-107315000D03*
X124460000Y-109855000D03*
X124460000Y-112395000D03*
X124460000Y-114935000D03*
X124460000Y-117475000D03*
X124460000Y-120015000D03*
X124460000Y-122555000D03*
X124460000Y-125095000D03*
X124460000Y-127635000D03*
D11*
X102870000Y-83185000D03*
D13*
X105410000Y-83185000D03*
X102870000Y-85725000D03*
X105410000Y-85725000D03*
X102870000Y-88265000D03*
X105410000Y-88265000D03*
X102870000Y-90805000D03*
X105410000Y-90805000D03*
X102870000Y-93345000D03*
X105410000Y-93345000D03*
X102870000Y-95885000D03*
X105410000Y-95885000D03*
X102870000Y-98425000D03*
X105410000Y-98425000D03*
X102870000Y-100965000D03*
X105410000Y-100965000D03*
X102870000Y-103505000D03*
X105410000Y-103505000D03*
X102870000Y-106045000D03*
X105410000Y-106045000D03*
X102870000Y-108585000D03*
X105410000Y-108585000D03*
X102870000Y-111125000D03*
X105410000Y-111125000D03*
X102870000Y-113665000D03*
X105410000Y-113665000D03*
X102870000Y-116205000D03*
X105410000Y-116205000D03*
X102870000Y-118745000D03*
X105410000Y-118745000D03*
X102870000Y-121285000D03*
X105410000Y-121285000D03*
X102870000Y-123825000D03*
X105410000Y-123825000D03*
D14*
X116840000Y-83820000D03*
D15*
X114340000Y-83820000D03*
D16*
X118110000Y-121285000D03*
X121285000Y-121285000D03*
X114300000Y-104140000D03*
X104140000Y-114300000D03*
X112395000Y-116205000D03*
X113030000Y-107950000D03*
X108585000Y-107950000D03*
X112395000Y-117475000D03*
D17*
X118110000Y-121285000D02*
X121285000Y-121285000D01*
D18*
X121285000Y-86360000D02*
X121920000Y-85725000D01*
X123190000Y-81915000D02*
X123190000Y-80645000D01*
X122555000Y-82550000D02*
X123190000Y-81915000D01*
X122555000Y-83820000D02*
X122555000Y-82550000D01*
X121920000Y-84455000D02*
X122555000Y-83820000D01*
X121920000Y-85725000D02*
X121920000Y-84455000D01*
X118110000Y-90805000D02*
X119380000Y-90805000D01*
X121285000Y-87630000D02*
X121285000Y-86360000D01*
X120650000Y-88265000D02*
X121285000Y-87630000D01*
X120650000Y-89535000D02*
X120650000Y-88265000D01*
X119380000Y-90805000D02*
X120650000Y-89535000D01*
X105410000Y-90805000D02*
X118110000Y-90805000D01*
X123190000Y-80645000D02*
X124460000Y-79375000D01*
X124460000Y-81915000D02*
X124460000Y-82042000D01*
X124460000Y-82042000D02*
X123190000Y-83312000D01*
X123190000Y-83312000D02*
X123190000Y-84074000D01*
X123190000Y-84074000D02*
X122428000Y-84836000D01*
X122428000Y-84836000D02*
X122428000Y-86106000D01*
X122428000Y-86106000D02*
X121920000Y-86614000D01*
X121920000Y-86614000D02*
X121920000Y-87826002D01*
X121920000Y-87826002D02*
X121158000Y-88588002D01*
X121158000Y-88588002D02*
X121158000Y-89916000D01*
X121158000Y-89916000D02*
X119634000Y-91440000D01*
X119634000Y-91440000D02*
X106934000Y-91440000D01*
X106934000Y-91440000D02*
X106680000Y-91694000D01*
X106680000Y-91694000D02*
X106680000Y-97155000D01*
X106680000Y-97155000D02*
X105410000Y-98425000D01*
X115570000Y-105410000D02*
X116205000Y-106045000D01*
X118745000Y-105410000D02*
X118745000Y-104775000D01*
X118110000Y-106045000D02*
X118745000Y-105410000D01*
X116205000Y-106045000D02*
X118110000Y-106045000D01*
X120650000Y-93345000D02*
X121285000Y-92710000D01*
X118745000Y-99060000D02*
X118745000Y-97790000D01*
X123190000Y-85725000D02*
X124460000Y-84455000D01*
X118745000Y-102870000D02*
X118745000Y-99060000D01*
X118745000Y-104140000D02*
X118745000Y-102870000D01*
X118745000Y-104775000D02*
X118745000Y-104140000D01*
X121920000Y-90805000D02*
X121920000Y-89535000D01*
X121920000Y-89535000D02*
X122555000Y-88900000D01*
X122555000Y-88900000D02*
X122555000Y-87630000D01*
X121285000Y-91440000D02*
X121920000Y-90805000D01*
X123190000Y-86995000D02*
X123190000Y-85725000D01*
X122555000Y-87630000D02*
X123190000Y-86995000D01*
X120015000Y-96520000D02*
X120015000Y-95250000D01*
X120015000Y-95250000D02*
X120650000Y-94615000D01*
X120650000Y-94615000D02*
X120650000Y-93345000D01*
X118745000Y-97790000D02*
X120015000Y-96520000D01*
X121285000Y-92710000D02*
X121285000Y-91440000D01*
X105410000Y-103505000D02*
X106045000Y-103505000D01*
X106045000Y-103505000D02*
X107950000Y-105410000D01*
X107950000Y-105410000D02*
X115570000Y-105410000D01*
X114935000Y-106045000D02*
X115570000Y-106680000D01*
X119380000Y-106045000D02*
X119380000Y-105410000D01*
X118745000Y-106680000D02*
X119380000Y-106045000D01*
X115570000Y-106680000D02*
X118745000Y-106680000D01*
X121285000Y-93980000D02*
X121920000Y-93345000D01*
X119380000Y-104140000D02*
X119380000Y-100965000D01*
X119380000Y-100965000D02*
X119380000Y-98425000D01*
X123190000Y-88265000D02*
X124460000Y-86995000D01*
X119380000Y-104775000D02*
X119380000Y-104140000D01*
X119380000Y-105410000D02*
X119380000Y-104775000D01*
X122555000Y-91440000D02*
X122555000Y-90170000D01*
X122555000Y-90170000D02*
X123190000Y-89535000D01*
X123190000Y-89535000D02*
X123190000Y-88265000D01*
X121920000Y-92075000D02*
X122555000Y-91440000D01*
X120650000Y-97155000D02*
X120650000Y-95885000D01*
X120650000Y-95885000D02*
X121285000Y-95250000D01*
X121285000Y-95250000D02*
X121285000Y-93980000D01*
X119380000Y-98425000D02*
X120650000Y-97155000D01*
X121920000Y-93345000D02*
X121920000Y-92075000D01*
X106045000Y-104775000D02*
X107315000Y-106045000D01*
X107315000Y-106045000D02*
X114935000Y-106045000D01*
X102870000Y-106045000D02*
X104140000Y-104775000D01*
X104140000Y-104775000D02*
X106045000Y-104775000D01*
X114300000Y-106680000D02*
X114935000Y-107315000D01*
X120015000Y-106680000D02*
X120015000Y-106045000D01*
X119380000Y-107315000D02*
X120015000Y-106680000D01*
X114935000Y-107315000D02*
X119380000Y-107315000D01*
X121920000Y-94615000D02*
X122555000Y-93980000D01*
X122555000Y-93980000D02*
X122555000Y-92710000D01*
X120015000Y-99060000D02*
X121285000Y-97790000D01*
X121920000Y-95885000D02*
X121920000Y-94615000D01*
X121285000Y-96520000D02*
X121920000Y-95885000D01*
X121285000Y-97790000D02*
X121285000Y-96520000D01*
X122555000Y-92710000D02*
X123190000Y-92075000D01*
X123190000Y-92075000D02*
X123190000Y-90805000D01*
X120015000Y-106045000D02*
X120015000Y-105410000D01*
X123190000Y-90805000D02*
X124460000Y-89535000D01*
X120015000Y-105410000D02*
X120015000Y-99060000D01*
X105410000Y-106045000D02*
X106045000Y-106045000D01*
X106045000Y-106045000D02*
X106680000Y-106680000D01*
X106680000Y-106680000D02*
X114300000Y-106680000D01*
X113665000Y-107315000D02*
X114300000Y-107950000D01*
X120650000Y-107315000D02*
X120650000Y-106680000D01*
X120015000Y-107950000D02*
X120650000Y-107315000D01*
X114300000Y-107950000D02*
X120015000Y-107950000D01*
X122555000Y-95250000D02*
X123190000Y-94615000D01*
X123190000Y-94615000D02*
X123190000Y-93345000D01*
X120650000Y-99695000D02*
X121920000Y-98425000D01*
X122555000Y-96520000D02*
X122555000Y-95250000D01*
X121920000Y-97155000D02*
X122555000Y-96520000D01*
X121920000Y-98425000D02*
X121920000Y-97155000D01*
X102870000Y-108585000D02*
X104140000Y-107315000D01*
X123190000Y-93345000D02*
X124460000Y-92075000D01*
X120650000Y-106680000D02*
X120650000Y-99695000D01*
X104140000Y-107315000D02*
X113665000Y-107315000D01*
X121285000Y-100330000D02*
X122555000Y-99060000D01*
X123190000Y-97155000D02*
X123190000Y-95885000D01*
X122555000Y-97790000D02*
X123190000Y-97155000D01*
X122555000Y-99060000D02*
X122555000Y-97790000D01*
X120015000Y-108585000D02*
X120650000Y-108585000D01*
X121285000Y-107950000D02*
X121285000Y-107315000D01*
X120650000Y-108585000D02*
X121285000Y-107950000D01*
X105410000Y-108585000D02*
X120015000Y-108585000D01*
X123190000Y-95885000D02*
X124460000Y-94615000D01*
X121285000Y-107315000D02*
X121285000Y-100330000D01*
X121920000Y-100965000D02*
X123190000Y-99695000D01*
X123190000Y-99695000D02*
X123190000Y-98425000D01*
X106045000Y-109855000D02*
X106680000Y-109220000D01*
X106680000Y-109220000D02*
X121285000Y-109220000D01*
X102870000Y-111125000D02*
X104140000Y-109855000D01*
X123190000Y-98425000D02*
X124460000Y-97155000D01*
X121920000Y-108585000D02*
X121920000Y-100965000D01*
X121285000Y-109220000D02*
X121920000Y-108585000D01*
X104140000Y-109855000D02*
X106045000Y-109855000D01*
X105410000Y-111125000D02*
X106045000Y-110490000D01*
X107315000Y-109855000D02*
X121920000Y-109855000D01*
X106680000Y-110490000D02*
X107315000Y-109855000D01*
X106045000Y-110490000D02*
X106680000Y-110490000D01*
X122555000Y-101600000D02*
X124460000Y-99695000D01*
X122555000Y-109220000D02*
X122555000Y-101600000D01*
X121920000Y-109855000D02*
X122555000Y-109220000D01*
X106045000Y-112395000D02*
X107950000Y-110490000D01*
X122555000Y-110490000D02*
X123190000Y-109855000D01*
X107950000Y-110490000D02*
X122555000Y-110490000D01*
X102870000Y-113665000D02*
X104140000Y-112395000D01*
X123190000Y-103505000D02*
X124460000Y-102235000D01*
X123190000Y-109855000D02*
X123190000Y-103505000D01*
X104140000Y-112395000D02*
X106045000Y-112395000D01*
X104140000Y-119380000D02*
X104140000Y-114300000D01*
X104775000Y-120015000D02*
X104140000Y-119380000D01*
X111760000Y-120015000D02*
X104775000Y-120015000D01*
X113030000Y-118745000D02*
X111760000Y-120015000D01*
X113030000Y-116840000D02*
X113030000Y-118745000D01*
X112395000Y-116205000D02*
X113030000Y-116840000D01*
X108585000Y-107950000D02*
X113030000Y-107950000D01*
X105410000Y-113665000D02*
X106680000Y-114935000D01*
X112395000Y-118110000D02*
X112395000Y-117475000D01*
X111125000Y-119380000D02*
X112395000Y-118110000D01*
X107315000Y-119380000D02*
X111125000Y-119380000D01*
X106680000Y-118745000D02*
X107315000Y-119380000D01*
X106680000Y-114935000D02*
X106680000Y-118745000D01*
D19*
G36*
X122868758Y-79761332D02*
X122587545Y-80042545D01*
X122402855Y-80318954D01*
X122338000Y-80645000D01*
X122338000Y-81562090D01*
X121952545Y-81947545D01*
X121767855Y-82223954D01*
X121703000Y-82550000D01*
X121703000Y-83467090D01*
X121317545Y-83852545D01*
X121132855Y-84128954D01*
X121068000Y-84455000D01*
X121068000Y-85372090D01*
X120682545Y-85757545D01*
X120497855Y-86033954D01*
X120433000Y-86360000D01*
X120433000Y-87277090D01*
X120047545Y-87662545D01*
X119862855Y-87938954D01*
X119798000Y-88265000D01*
X119798000Y-89182090D01*
X119027090Y-89953000D01*
X106764277Y-89953000D01*
X106747695Y-89912868D01*
X106370216Y-89534730D01*
X106746136Y-89159465D01*
X106986725Y-88580061D01*
X106987273Y-87952692D01*
X106747695Y-87372868D01*
X106370216Y-86994730D01*
X106746136Y-86619465D01*
X106986725Y-86040061D01*
X106987273Y-85412692D01*
X106747695Y-84832868D01*
X106370216Y-84454730D01*
X106746136Y-84079465D01*
X106956285Y-83573368D01*
X112768675Y-83573368D01*
X112793903Y-84193461D01*
X112982668Y-84649179D01*
X113241744Y-84738651D01*
X114160395Y-83820000D01*
X113241744Y-82901349D01*
X112982668Y-82990821D01*
X112768675Y-83573368D01*
X106956285Y-83573368D01*
X106986725Y-83500061D01*
X106987273Y-82872692D01*
X106924903Y-82721744D01*
X113421349Y-82721744D01*
X114340000Y-83640395D01*
X114354143Y-83626253D01*
X114533748Y-83805858D01*
X114519605Y-83820000D01*
X114533748Y-83834143D01*
X114354143Y-84013748D01*
X114340000Y-83999605D01*
X113421349Y-84918256D01*
X113510821Y-85177332D01*
X114093368Y-85391325D01*
X114713461Y-85366097D01*
X115169179Y-85177332D01*
X115225097Y-85015414D01*
X115383672Y-85261846D01*
X115626615Y-85427843D01*
X115915000Y-85486242D01*
X117765000Y-85486242D01*
X118034410Y-85435549D01*
X118281846Y-85276328D01*
X118447843Y-85033385D01*
X118506242Y-84745000D01*
X118506242Y-82895000D01*
X118455549Y-82625590D01*
X118296328Y-82378154D01*
X118053385Y-82212157D01*
X117765000Y-82153758D01*
X115915000Y-82153758D01*
X115645590Y-82204451D01*
X115398154Y-82363672D01*
X115232157Y-82606615D01*
X115227254Y-82630829D01*
X115169179Y-82462668D01*
X114586632Y-82248675D01*
X113966539Y-82273903D01*
X113510821Y-82462668D01*
X113421349Y-82721744D01*
X106924903Y-82721744D01*
X106747695Y-82292868D01*
X106304465Y-81848864D01*
X105725061Y-81608275D01*
X105097692Y-81607727D01*
X104517868Y-81847305D01*
X104296742Y-82068045D01*
X104258327Y-81975302D01*
X104079699Y-81796673D01*
X103846310Y-81700000D01*
X103155750Y-81700000D01*
X102997000Y-81858750D01*
X102997000Y-83058000D01*
X103017000Y-83058000D01*
X103017000Y-83312000D01*
X102997000Y-83312000D01*
X102997000Y-83332000D01*
X102743000Y-83332000D01*
X102743000Y-83312000D01*
X101543750Y-83312000D01*
X101385000Y-83470750D01*
X101385000Y-84161309D01*
X101481673Y-84394698D01*
X101660301Y-84573327D01*
X101893690Y-84670000D01*
X102009174Y-84670000D01*
X102005647Y-84681042D01*
X102870000Y-85545395D01*
X103734353Y-84681042D01*
X103730826Y-84670000D01*
X103846310Y-84670000D01*
X104079699Y-84573327D01*
X104258327Y-84394698D01*
X104296741Y-84301960D01*
X104449784Y-84455270D01*
X104073864Y-84830535D01*
X104044099Y-84902218D01*
X103913958Y-84860647D01*
X103049605Y-85725000D01*
X103913958Y-86589353D01*
X104043703Y-86547909D01*
X104072305Y-86617132D01*
X104449784Y-86995270D01*
X104073864Y-87370535D01*
X104044099Y-87442218D01*
X103913958Y-87400647D01*
X103049605Y-88265000D01*
X103913958Y-89129353D01*
X104043703Y-89087909D01*
X104072305Y-89157132D01*
X104449784Y-89535270D01*
X104073864Y-89910535D01*
X104044099Y-89982218D01*
X103913958Y-89940647D01*
X103049605Y-90805000D01*
X103913958Y-91669353D01*
X104043703Y-91627909D01*
X104072305Y-91697132D01*
X104449784Y-92075270D01*
X104073864Y-92450535D01*
X104044099Y-92522218D01*
X103913958Y-92480647D01*
X103049605Y-93345000D01*
X103913958Y-94209353D01*
X104043703Y-94167909D01*
X104072305Y-94237132D01*
X104449784Y-94615270D01*
X104073864Y-94990535D01*
X104044099Y-95062218D01*
X103913958Y-95020647D01*
X103049605Y-95885000D01*
X103913958Y-96749353D01*
X104043703Y-96707909D01*
X104072305Y-96777132D01*
X104449784Y-97155270D01*
X104073864Y-97530535D01*
X104044099Y-97602218D01*
X103913958Y-97560647D01*
X103049605Y-98425000D01*
X103913958Y-99289353D01*
X104043703Y-99247909D01*
X104072305Y-99317132D01*
X104449784Y-99695270D01*
X104073864Y-100070535D01*
X104044099Y-100142218D01*
X103913958Y-100100647D01*
X103049605Y-100965000D01*
X103913958Y-101829353D01*
X104043703Y-101787909D01*
X104072305Y-101857132D01*
X104449784Y-102235270D01*
X104073864Y-102610535D01*
X104044099Y-102682218D01*
X103913958Y-102640647D01*
X103049605Y-103505000D01*
X103063748Y-103519143D01*
X102884143Y-103698748D01*
X102870000Y-103684605D01*
X102005647Y-104548958D01*
X102047091Y-104678703D01*
X101977868Y-104707305D01*
X101533864Y-105150535D01*
X101293275Y-105729939D01*
X101292727Y-106357308D01*
X101532305Y-106937132D01*
X101909784Y-107315270D01*
X101533864Y-107690535D01*
X101293275Y-108269939D01*
X101292727Y-108897308D01*
X101532305Y-109477132D01*
X101909784Y-109855270D01*
X101533864Y-110230535D01*
X101293275Y-110809939D01*
X101292727Y-111437308D01*
X101532305Y-112017132D01*
X101909784Y-112395270D01*
X101533864Y-112770535D01*
X101293275Y-113349939D01*
X101292727Y-113977308D01*
X101532305Y-114557132D01*
X101909784Y-114935270D01*
X101533864Y-115310535D01*
X101293275Y-115889939D01*
X101292727Y-116517308D01*
X101532305Y-117097132D01*
X101909784Y-117475270D01*
X101533864Y-117850535D01*
X101293275Y-118429939D01*
X101292727Y-119057308D01*
X101532305Y-119637132D01*
X101975535Y-120081136D01*
X102047218Y-120110901D01*
X102005647Y-120241042D01*
X102870000Y-121105395D01*
X102884143Y-121091253D01*
X103063748Y-121270858D01*
X103049605Y-121285000D01*
X103913958Y-122149353D01*
X104140000Y-122077148D01*
X104366042Y-122149353D01*
X105230395Y-121285000D01*
X105216253Y-121270858D01*
X105395858Y-121091253D01*
X105410000Y-121105395D01*
X105424143Y-121091253D01*
X105603748Y-121270858D01*
X105589605Y-121285000D01*
X106453958Y-122149353D01*
X106705259Y-122069080D01*
X106906718Y-121513721D01*
X106880315Y-120923542D01*
X106856895Y-120867000D01*
X111760000Y-120867000D01*
X112086046Y-120802145D01*
X112362455Y-120617455D01*
X113632455Y-119347455D01*
X113817145Y-119071046D01*
X113882000Y-118745000D01*
X113882000Y-116840000D01*
X113817145Y-116513954D01*
X113632455Y-116237545D01*
X113422156Y-116027246D01*
X113422178Y-116001613D01*
X113266156Y-115624011D01*
X112977508Y-115334860D01*
X112600179Y-115178179D01*
X112191613Y-115177822D01*
X111814011Y-115333844D01*
X111524860Y-115622492D01*
X111368179Y-115999821D01*
X111367822Y-116408387D01*
X111523844Y-116785989D01*
X111577603Y-116839841D01*
X111524860Y-116892492D01*
X111368179Y-117269821D01*
X111367822Y-117678387D01*
X111442052Y-117858038D01*
X110772090Y-118528000D01*
X107667910Y-118528000D01*
X107532000Y-118392090D01*
X107532000Y-114935000D01*
X107467145Y-114608954D01*
X107282455Y-114332545D01*
X106970073Y-114020163D01*
X106986725Y-113980061D01*
X106987273Y-113352692D01*
X106784052Y-112860858D01*
X108302910Y-111342000D01*
X122555000Y-111342000D01*
X122881046Y-111277145D01*
X123157455Y-111092455D01*
X123300301Y-110949609D01*
X123313998Y-110970107D01*
X123545811Y-111125000D01*
X123313998Y-111279893D01*
X122972147Y-111791508D01*
X122852105Y-112395000D01*
X122972147Y-112998492D01*
X123313998Y-113510107D01*
X123545811Y-113665000D01*
X123313998Y-113819893D01*
X122972147Y-114331508D01*
X122852105Y-114935000D01*
X122972147Y-115538492D01*
X123313998Y-116050107D01*
X123545811Y-116205000D01*
X123313998Y-116359893D01*
X122972147Y-116871508D01*
X122852105Y-117475000D01*
X122972147Y-118078492D01*
X123313998Y-118590107D01*
X123545811Y-118745000D01*
X123313998Y-118899893D01*
X122972147Y-119411508D01*
X122852105Y-120015000D01*
X122972147Y-120618492D01*
X123313998Y-121130107D01*
X123545811Y-121285000D01*
X123313998Y-121439893D01*
X122972147Y-121951508D01*
X122852105Y-122555000D01*
X122972147Y-123158492D01*
X123313998Y-123670107D01*
X123545811Y-123825000D01*
X123313998Y-123979893D01*
X122972147Y-124491508D01*
X122852105Y-125095000D01*
X122972147Y-125698492D01*
X123313998Y-126210107D01*
X123625118Y-126417991D01*
X123578642Y-126439817D01*
X123188355Y-126868076D01*
X123018524Y-127278110D01*
X123139845Y-127508000D01*
X124333000Y-127508000D01*
X124333000Y-127488000D01*
X124587000Y-127488000D01*
X124587000Y-127508000D01*
X125780155Y-127508000D01*
X125901476Y-127278110D01*
X125731645Y-126868076D01*
X125341358Y-126439817D01*
X125294882Y-126417991D01*
X125606002Y-126210107D01*
X125947853Y-125698492D01*
X126067895Y-125095000D01*
X125947853Y-124491508D01*
X125606002Y-123979893D01*
X125374189Y-123825000D01*
X125606002Y-123670107D01*
X125947853Y-123158492D01*
X126067895Y-122555000D01*
X125947853Y-121951508D01*
X125606002Y-121439893D01*
X125374189Y-121285000D01*
X125606002Y-121130107D01*
X125947853Y-120618492D01*
X126067895Y-120015000D01*
X125947853Y-119411508D01*
X125606002Y-118899893D01*
X125374189Y-118745000D01*
X125606002Y-118590107D01*
X125947853Y-118078492D01*
X126067895Y-117475000D01*
X125947853Y-116871508D01*
X125606002Y-116359893D01*
X125374189Y-116205000D01*
X125606002Y-116050107D01*
X125947853Y-115538492D01*
X126067895Y-114935000D01*
X125947853Y-114331508D01*
X125606002Y-113819893D01*
X125374189Y-113665000D01*
X125606002Y-113510107D01*
X125947853Y-112998492D01*
X126067895Y-112395000D01*
X125947853Y-111791508D01*
X125606002Y-111279893D01*
X125374189Y-111125000D01*
X125606002Y-110970107D01*
X125947853Y-110458492D01*
X126067895Y-109855000D01*
X125947853Y-109251508D01*
X125606002Y-108739893D01*
X125374189Y-108585000D01*
X125606002Y-108430107D01*
X125947853Y-107918492D01*
X126067895Y-107315000D01*
X125947853Y-106711508D01*
X125606002Y-106199893D01*
X125374189Y-106045000D01*
X125606002Y-105890107D01*
X125947853Y-105378492D01*
X126067895Y-104775000D01*
X125947853Y-104171508D01*
X125606002Y-103659893D01*
X125374189Y-103505000D01*
X125606002Y-103350107D01*
X125947853Y-102838492D01*
X126067895Y-102235000D01*
X125947853Y-101631508D01*
X125606002Y-101119893D01*
X125374189Y-100965000D01*
X125606002Y-100810107D01*
X125947853Y-100298492D01*
X126067895Y-99695000D01*
X125947853Y-99091508D01*
X125606002Y-98579893D01*
X125374189Y-98425000D01*
X125606002Y-98270107D01*
X125947853Y-97758492D01*
X126067895Y-97155000D01*
X125947853Y-96551508D01*
X125606002Y-96039893D01*
X125374189Y-95885000D01*
X125606002Y-95730107D01*
X125947853Y-95218492D01*
X126067895Y-94615000D01*
X125947853Y-94011508D01*
X125606002Y-93499893D01*
X125374189Y-93345000D01*
X125606002Y-93190107D01*
X125947853Y-92678492D01*
X126067895Y-92075000D01*
X125947853Y-91471508D01*
X125606002Y-90959893D01*
X125374189Y-90805000D01*
X125606002Y-90650107D01*
X125947853Y-90138492D01*
X126067895Y-89535000D01*
X125947853Y-88931508D01*
X125606002Y-88419893D01*
X125374189Y-88265000D01*
X125606002Y-88110107D01*
X125947853Y-87598492D01*
X126067895Y-86995000D01*
X125947853Y-86391508D01*
X125606002Y-85879893D01*
X125374189Y-85725000D01*
X125606002Y-85570107D01*
X125947853Y-85058492D01*
X126067895Y-84455000D01*
X125947853Y-83851508D01*
X125606002Y-83339893D01*
X125374189Y-83185000D01*
X125606002Y-83030107D01*
X125947853Y-82518492D01*
X126067895Y-81915000D01*
X125947853Y-81311508D01*
X125652049Y-80868807D01*
X125826846Y-80756328D01*
X125992843Y-80513385D01*
X126051242Y-80225000D01*
X126051242Y-78907000D01*
X128103000Y-78907000D01*
X128103000Y-128103000D01*
X125855456Y-128103000D01*
X125901476Y-127991890D01*
X125780155Y-127762000D01*
X124587000Y-127762000D01*
X124587000Y-127782000D01*
X124333000Y-127782000D01*
X124333000Y-127762000D01*
X123139845Y-127762000D01*
X123018524Y-127991890D01*
X123064544Y-128103000D01*
X100497000Y-128103000D01*
X100497000Y-124868958D01*
X102005647Y-124868958D01*
X102085920Y-125120259D01*
X102641279Y-125321718D01*
X103231458Y-125295315D01*
X103654080Y-125120259D01*
X103734353Y-124868958D01*
X104545647Y-124868958D01*
X104625920Y-125120259D01*
X105181279Y-125321718D01*
X105771458Y-125295315D01*
X106194080Y-125120259D01*
X106274353Y-124868958D01*
X105410000Y-124004605D01*
X104545647Y-124868958D01*
X103734353Y-124868958D01*
X102870000Y-124004605D01*
X102005647Y-124868958D01*
X100497000Y-124868958D01*
X100497000Y-123596279D01*
X101373282Y-123596279D01*
X101399685Y-124186458D01*
X101574741Y-124609080D01*
X101826042Y-124689353D01*
X102690395Y-123825000D01*
X103049605Y-123825000D01*
X103913958Y-124689353D01*
X104140000Y-124617148D01*
X104366042Y-124689353D01*
X105230395Y-123825000D01*
X105589605Y-123825000D01*
X106453958Y-124689353D01*
X106705259Y-124609080D01*
X106906718Y-124053721D01*
X106880315Y-123463542D01*
X106705259Y-123040920D01*
X106453958Y-122960647D01*
X105589605Y-123825000D01*
X105230395Y-123825000D01*
X104366042Y-122960647D01*
X104140000Y-123032852D01*
X103913958Y-122960647D01*
X103049605Y-123825000D01*
X102690395Y-123825000D01*
X101826042Y-122960647D01*
X101574741Y-123040920D01*
X101373282Y-123596279D01*
X100497000Y-123596279D01*
X100497000Y-122328958D01*
X102005647Y-122328958D01*
X102077852Y-122555000D01*
X102005647Y-122781042D01*
X102870000Y-123645395D01*
X103734353Y-122781042D01*
X103662148Y-122555000D01*
X103734353Y-122328958D01*
X104545647Y-122328958D01*
X104617852Y-122555000D01*
X104545647Y-122781042D01*
X105410000Y-123645395D01*
X106274353Y-122781042D01*
X106202148Y-122555000D01*
X106274353Y-122328958D01*
X105410000Y-121464605D01*
X104545647Y-122328958D01*
X103734353Y-122328958D01*
X102870000Y-121464605D01*
X102005647Y-122328958D01*
X100497000Y-122328958D01*
X100497000Y-121056279D01*
X101373282Y-121056279D01*
X101399685Y-121646458D01*
X101574741Y-122069080D01*
X101826042Y-122149353D01*
X102690395Y-121285000D01*
X101826042Y-120420647D01*
X101574741Y-120500920D01*
X101373282Y-121056279D01*
X100497000Y-121056279D01*
X100497000Y-103276279D01*
X101373282Y-103276279D01*
X101399685Y-103866458D01*
X101574741Y-104289080D01*
X101826042Y-104369353D01*
X102690395Y-103505000D01*
X101826042Y-102640647D01*
X101574741Y-102720920D01*
X101373282Y-103276279D01*
X100497000Y-103276279D01*
X100497000Y-102008958D01*
X102005647Y-102008958D01*
X102077852Y-102235000D01*
X102005647Y-102461042D01*
X102870000Y-103325395D01*
X103734353Y-102461042D01*
X103662148Y-102235000D01*
X103734353Y-102008958D01*
X102870000Y-101144605D01*
X102005647Y-102008958D01*
X100497000Y-102008958D01*
X100497000Y-100736279D01*
X101373282Y-100736279D01*
X101399685Y-101326458D01*
X101574741Y-101749080D01*
X101826042Y-101829353D01*
X102690395Y-100965000D01*
X101826042Y-100100647D01*
X101574741Y-100180920D01*
X101373282Y-100736279D01*
X100497000Y-100736279D01*
X100497000Y-99468958D01*
X102005647Y-99468958D01*
X102077852Y-99695000D01*
X102005647Y-99921042D01*
X102870000Y-100785395D01*
X103734353Y-99921042D01*
X103662148Y-99695000D01*
X103734353Y-99468958D01*
X102870000Y-98604605D01*
X102005647Y-99468958D01*
X100497000Y-99468958D01*
X100497000Y-98196279D01*
X101373282Y-98196279D01*
X101399685Y-98786458D01*
X101574741Y-99209080D01*
X101826042Y-99289353D01*
X102690395Y-98425000D01*
X101826042Y-97560647D01*
X101574741Y-97640920D01*
X101373282Y-98196279D01*
X100497000Y-98196279D01*
X100497000Y-96928958D01*
X102005647Y-96928958D01*
X102077852Y-97155000D01*
X102005647Y-97381042D01*
X102870000Y-98245395D01*
X103734353Y-97381042D01*
X103662148Y-97155000D01*
X103734353Y-96928958D01*
X102870000Y-96064605D01*
X102005647Y-96928958D01*
X100497000Y-96928958D01*
X100497000Y-95656279D01*
X101373282Y-95656279D01*
X101399685Y-96246458D01*
X101574741Y-96669080D01*
X101826042Y-96749353D01*
X102690395Y-95885000D01*
X101826042Y-95020647D01*
X101574741Y-95100920D01*
X101373282Y-95656279D01*
X100497000Y-95656279D01*
X100497000Y-94388958D01*
X102005647Y-94388958D01*
X102077852Y-94615000D01*
X102005647Y-94841042D01*
X102870000Y-95705395D01*
X103734353Y-94841042D01*
X103662148Y-94615000D01*
X103734353Y-94388958D01*
X102870000Y-93524605D01*
X102005647Y-94388958D01*
X100497000Y-94388958D01*
X100497000Y-93116279D01*
X101373282Y-93116279D01*
X101399685Y-93706458D01*
X101574741Y-94129080D01*
X101826042Y-94209353D01*
X102690395Y-93345000D01*
X101826042Y-92480647D01*
X101574741Y-92560920D01*
X101373282Y-93116279D01*
X100497000Y-93116279D01*
X100497000Y-91848958D01*
X102005647Y-91848958D01*
X102077852Y-92075000D01*
X102005647Y-92301042D01*
X102870000Y-93165395D01*
X103734353Y-92301042D01*
X103662148Y-92075000D01*
X103734353Y-91848958D01*
X102870000Y-90984605D01*
X102005647Y-91848958D01*
X100497000Y-91848958D01*
X100497000Y-90576279D01*
X101373282Y-90576279D01*
X101399685Y-91166458D01*
X101574741Y-91589080D01*
X101826042Y-91669353D01*
X102690395Y-90805000D01*
X101826042Y-89940647D01*
X101574741Y-90020920D01*
X101373282Y-90576279D01*
X100497000Y-90576279D01*
X100497000Y-89308958D01*
X102005647Y-89308958D01*
X102077852Y-89535000D01*
X102005647Y-89761042D01*
X102870000Y-90625395D01*
X103734353Y-89761042D01*
X103662148Y-89535000D01*
X103734353Y-89308958D01*
X102870000Y-88444605D01*
X102005647Y-89308958D01*
X100497000Y-89308958D01*
X100497000Y-88036279D01*
X101373282Y-88036279D01*
X101399685Y-88626458D01*
X101574741Y-89049080D01*
X101826042Y-89129353D01*
X102690395Y-88265000D01*
X101826042Y-87400647D01*
X101574741Y-87480920D01*
X101373282Y-88036279D01*
X100497000Y-88036279D01*
X100497000Y-86768958D01*
X102005647Y-86768958D01*
X102077852Y-86995000D01*
X102005647Y-87221042D01*
X102870000Y-88085395D01*
X103734353Y-87221042D01*
X103662148Y-86995000D01*
X103734353Y-86768958D01*
X102870000Y-85904605D01*
X102005647Y-86768958D01*
X100497000Y-86768958D01*
X100497000Y-85496279D01*
X101373282Y-85496279D01*
X101399685Y-86086458D01*
X101574741Y-86509080D01*
X101826042Y-86589353D01*
X102690395Y-85725000D01*
X101826042Y-84860647D01*
X101574741Y-84940920D01*
X101373282Y-85496279D01*
X100497000Y-85496279D01*
X100497000Y-82208691D01*
X101385000Y-82208691D01*
X101385000Y-82899250D01*
X101543750Y-83058000D01*
X102743000Y-83058000D01*
X102743000Y-81858750D01*
X102584250Y-81700000D01*
X101893690Y-81700000D01*
X101660301Y-81796673D01*
X101481673Y-81975302D01*
X101385000Y-82208691D01*
X100497000Y-82208691D01*
X100497000Y-78907000D01*
X122868758Y-78907000D01*
X122868758Y-79761332D01*
X122868758Y-79761332D01*
G37*
X122868758Y-79761332D02*
X122587545Y-80042545D01*
X122402855Y-80318954D01*
X122338000Y-80645000D01*
X122338000Y-81562090D01*
X121952545Y-81947545D01*
X121767855Y-82223954D01*
X121703000Y-82550000D01*
X121703000Y-83467090D01*
X121317545Y-83852545D01*
X121132855Y-84128954D01*
X121068000Y-84455000D01*
X121068000Y-85372090D01*
X120682545Y-85757545D01*
X120497855Y-86033954D01*
X120433000Y-86360000D01*
X120433000Y-87277090D01*
X120047545Y-87662545D01*
X119862855Y-87938954D01*
X119798000Y-88265000D01*
X119798000Y-89182090D01*
X119027090Y-89953000D01*
X106764277Y-89953000D01*
X106747695Y-89912868D01*
X106370216Y-89534730D01*
X106746136Y-89159465D01*
X106986725Y-88580061D01*
X106987273Y-87952692D01*
X106747695Y-87372868D01*
X106370216Y-86994730D01*
X106746136Y-86619465D01*
X106986725Y-86040061D01*
X106987273Y-85412692D01*
X106747695Y-84832868D01*
X106370216Y-84454730D01*
X106746136Y-84079465D01*
X106956285Y-83573368D01*
X112768675Y-83573368D01*
X112793903Y-84193461D01*
X112982668Y-84649179D01*
X113241744Y-84738651D01*
X114160395Y-83820000D01*
X113241744Y-82901349D01*
X112982668Y-82990821D01*
X112768675Y-83573368D01*
X106956285Y-83573368D01*
X106986725Y-83500061D01*
X106987273Y-82872692D01*
X106924903Y-82721744D01*
X113421349Y-82721744D01*
X114340000Y-83640395D01*
X114354143Y-83626253D01*
X114533748Y-83805858D01*
X114519605Y-83820000D01*
X114533748Y-83834143D01*
X114354143Y-84013748D01*
X114340000Y-83999605D01*
X113421349Y-84918256D01*
X113510821Y-85177332D01*
X114093368Y-85391325D01*
X114713461Y-85366097D01*
X115169179Y-85177332D01*
X115225097Y-85015414D01*
X115383672Y-85261846D01*
X115626615Y-85427843D01*
X115915000Y-85486242D01*
X117765000Y-85486242D01*
X118034410Y-85435549D01*
X118281846Y-85276328D01*
X118447843Y-85033385D01*
X118506242Y-84745000D01*
X118506242Y-82895000D01*
X118455549Y-82625590D01*
X118296328Y-82378154D01*
X118053385Y-82212157D01*
X117765000Y-82153758D01*
X115915000Y-82153758D01*
X115645590Y-82204451D01*
X115398154Y-82363672D01*
X115232157Y-82606615D01*
X115227254Y-82630829D01*
X115169179Y-82462668D01*
X114586632Y-82248675D01*
X113966539Y-82273903D01*
X113510821Y-82462668D01*
X113421349Y-82721744D01*
X106924903Y-82721744D01*
X106747695Y-82292868D01*
X106304465Y-81848864D01*
X105725061Y-81608275D01*
X105097692Y-81607727D01*
X104517868Y-81847305D01*
X104296742Y-82068045D01*
X104258327Y-81975302D01*
X104079699Y-81796673D01*
X103846310Y-81700000D01*
X103155750Y-81700000D01*
X102997000Y-81858750D01*
X102997000Y-83058000D01*
X103017000Y-83058000D01*
X103017000Y-83312000D01*
X102997000Y-83312000D01*
X102997000Y-83332000D01*
X102743000Y-83332000D01*
X102743000Y-83312000D01*
X101543750Y-83312000D01*
X101385000Y-83470750D01*
X101385000Y-84161309D01*
X101481673Y-84394698D01*
X101660301Y-84573327D01*
X101893690Y-84670000D01*
X102009174Y-84670000D01*
X102005647Y-84681042D01*
X102870000Y-85545395D01*
X103734353Y-84681042D01*
X103730826Y-84670000D01*
X103846310Y-84670000D01*
X104079699Y-84573327D01*
X104258327Y-84394698D01*
X104296741Y-84301960D01*
X104449784Y-84455270D01*
X104073864Y-84830535D01*
X104044099Y-84902218D01*
X103913958Y-84860647D01*
X103049605Y-85725000D01*
X103913958Y-86589353D01*
X104043703Y-86547909D01*
X104072305Y-86617132D01*
X104449784Y-86995270D01*
X104073864Y-87370535D01*
X104044099Y-87442218D01*
X103913958Y-87400647D01*
X103049605Y-88265000D01*
X103913958Y-89129353D01*
X104043703Y-89087909D01*
X104072305Y-89157132D01*
X104449784Y-89535270D01*
X104073864Y-89910535D01*
X104044099Y-89982218D01*
X103913958Y-89940647D01*
X103049605Y-90805000D01*
X103913958Y-91669353D01*
X104043703Y-91627909D01*
X104072305Y-91697132D01*
X104449784Y-92075270D01*
X104073864Y-92450535D01*
X104044099Y-92522218D01*
X103913958Y-92480647D01*
X103049605Y-93345000D01*
X103913958Y-94209353D01*
X104043703Y-94167909D01*
X104072305Y-94237132D01*
X104449784Y-94615270D01*
X104073864Y-94990535D01*
X104044099Y-95062218D01*
X103913958Y-95020647D01*
X103049605Y-95885000D01*
X103913958Y-96749353D01*
X104043703Y-96707909D01*
X104072305Y-96777132D01*
X104449784Y-97155270D01*
X104073864Y-97530535D01*
X104044099Y-97602218D01*
X103913958Y-97560647D01*
X103049605Y-98425000D01*
X103913958Y-99289353D01*
X104043703Y-99247909D01*
X104072305Y-99317132D01*
X104449784Y-99695270D01*
X104073864Y-100070535D01*
X104044099Y-100142218D01*
X103913958Y-100100647D01*
X103049605Y-100965000D01*
X103913958Y-101829353D01*
X104043703Y-101787909D01*
X104072305Y-101857132D01*
X104449784Y-102235270D01*
X104073864Y-102610535D01*
X104044099Y-102682218D01*
X103913958Y-102640647D01*
X103049605Y-103505000D01*
X103063748Y-103519143D01*
X102884143Y-103698748D01*
X102870000Y-103684605D01*
X102005647Y-104548958D01*
X102047091Y-104678703D01*
X101977868Y-104707305D01*
X101533864Y-105150535D01*
X101293275Y-105729939D01*
X101292727Y-106357308D01*
X101532305Y-106937132D01*
X101909784Y-107315270D01*
X101533864Y-107690535D01*
X101293275Y-108269939D01*
X101292727Y-108897308D01*
X101532305Y-109477132D01*
X101909784Y-109855270D01*
X101533864Y-110230535D01*
X101293275Y-110809939D01*
X101292727Y-111437308D01*
X101532305Y-112017132D01*
X101909784Y-112395270D01*
X101533864Y-112770535D01*
X101293275Y-113349939D01*
X101292727Y-113977308D01*
X101532305Y-114557132D01*
X101909784Y-114935270D01*
X101533864Y-115310535D01*
X101293275Y-115889939D01*
X101292727Y-116517308D01*
X101532305Y-117097132D01*
X101909784Y-117475270D01*
X101533864Y-117850535D01*
X101293275Y-118429939D01*
X101292727Y-119057308D01*
X101532305Y-119637132D01*
X101975535Y-120081136D01*
X102047218Y-120110901D01*
X102005647Y-120241042D01*
X102870000Y-121105395D01*
X102884143Y-121091253D01*
X103063748Y-121270858D01*
X103049605Y-121285000D01*
X103913958Y-122149353D01*
X104140000Y-122077148D01*
X104366042Y-122149353D01*
X105230395Y-121285000D01*
X105216253Y-121270858D01*
X105395858Y-121091253D01*
X105410000Y-121105395D01*
X105424143Y-121091253D01*
X105603748Y-121270858D01*
X105589605Y-121285000D01*
X106453958Y-122149353D01*
X106705259Y-122069080D01*
X106906718Y-121513721D01*
X106880315Y-120923542D01*
X106856895Y-120867000D01*
X111760000Y-120867000D01*
X112086046Y-120802145D01*
X112362455Y-120617455D01*
X113632455Y-119347455D01*
X113817145Y-119071046D01*
X113882000Y-118745000D01*
X113882000Y-116840000D01*
X113817145Y-116513954D01*
X113632455Y-116237545D01*
X113422156Y-116027246D01*
X113422178Y-116001613D01*
X113266156Y-115624011D01*
X112977508Y-115334860D01*
X112600179Y-115178179D01*
X112191613Y-115177822D01*
X111814011Y-115333844D01*
X111524860Y-115622492D01*
X111368179Y-115999821D01*
X111367822Y-116408387D01*
X111523844Y-116785989D01*
X111577603Y-116839841D01*
X111524860Y-116892492D01*
X111368179Y-117269821D01*
X111367822Y-117678387D01*
X111442052Y-117858038D01*
X110772090Y-118528000D01*
X107667910Y-118528000D01*
X107532000Y-118392090D01*
X107532000Y-114935000D01*
X107467145Y-114608954D01*
X107282455Y-114332545D01*
X106970073Y-114020163D01*
X106986725Y-113980061D01*
X106987273Y-113352692D01*
X106784052Y-112860858D01*
X108302910Y-111342000D01*
X122555000Y-111342000D01*
X122881046Y-111277145D01*
X123157455Y-111092455D01*
X123300301Y-110949609D01*
X123313998Y-110970107D01*
X123545811Y-111125000D01*
X123313998Y-111279893D01*
X122972147Y-111791508D01*
X122852105Y-112395000D01*
X122972147Y-112998492D01*
X123313998Y-113510107D01*
X123545811Y-113665000D01*
X123313998Y-113819893D01*
X122972147Y-114331508D01*
X122852105Y-114935000D01*
X122972147Y-115538492D01*
X123313998Y-116050107D01*
X123545811Y-116205000D01*
X123313998Y-116359893D01*
X122972147Y-116871508D01*
X122852105Y-117475000D01*
X122972147Y-118078492D01*
X123313998Y-118590107D01*
X123545811Y-118745000D01*
X123313998Y-118899893D01*
X122972147Y-119411508D01*
X122852105Y-120015000D01*
X122972147Y-120618492D01*
X123313998Y-121130107D01*
X123545811Y-121285000D01*
X123313998Y-121439893D01*
X122972147Y-121951508D01*
X122852105Y-122555000D01*
X122972147Y-123158492D01*
X123313998Y-123670107D01*
X123545811Y-123825000D01*
X123313998Y-123979893D01*
X122972147Y-124491508D01*
X122852105Y-125095000D01*
X122972147Y-125698492D01*
X123313998Y-126210107D01*
X123625118Y-126417991D01*
X123578642Y-126439817D01*
X123188355Y-126868076D01*
X123018524Y-127278110D01*
X123139845Y-127508000D01*
X124333000Y-127508000D01*
X124333000Y-127488000D01*
X124587000Y-127488000D01*
X124587000Y-127508000D01*
X125780155Y-127508000D01*
X125901476Y-127278110D01*
X125731645Y-126868076D01*
X125341358Y-126439817D01*
X125294882Y-126417991D01*
X125606002Y-126210107D01*
X125947853Y-125698492D01*
X126067895Y-125095000D01*
X125947853Y-124491508D01*
X125606002Y-123979893D01*
X125374189Y-123825000D01*
X125606002Y-123670107D01*
X125947853Y-123158492D01*
X126067895Y-122555000D01*
X125947853Y-121951508D01*
X125606002Y-121439893D01*
X125374189Y-121285000D01*
X125606002Y-121130107D01*
X125947853Y-120618492D01*
X126067895Y-120015000D01*
X125947853Y-119411508D01*
X125606002Y-118899893D01*
X125374189Y-118745000D01*
X125606002Y-118590107D01*
X125947853Y-118078492D01*
X126067895Y-117475000D01*
X125947853Y-116871508D01*
X125606002Y-116359893D01*
X125374189Y-116205000D01*
X125606002Y-116050107D01*
X125947853Y-115538492D01*
X126067895Y-114935000D01*
X125947853Y-114331508D01*
X125606002Y-113819893D01*
X125374189Y-113665000D01*
X125606002Y-113510107D01*
X125947853Y-112998492D01*
X126067895Y-112395000D01*
X125947853Y-111791508D01*
X125606002Y-111279893D01*
X125374189Y-111125000D01*
X125606002Y-110970107D01*
X125947853Y-110458492D01*
X126067895Y-109855000D01*
X125947853Y-109251508D01*
X125606002Y-108739893D01*
X125374189Y-108585000D01*
X125606002Y-108430107D01*
X125947853Y-107918492D01*
X126067895Y-107315000D01*
X125947853Y-106711508D01*
X125606002Y-106199893D01*
X125374189Y-106045000D01*
X125606002Y-105890107D01*
X125947853Y-105378492D01*
X126067895Y-104775000D01*
X125947853Y-104171508D01*
X125606002Y-103659893D01*
X125374189Y-103505000D01*
X125606002Y-103350107D01*
X125947853Y-102838492D01*
X126067895Y-102235000D01*
X125947853Y-101631508D01*
X125606002Y-101119893D01*
X125374189Y-100965000D01*
X125606002Y-100810107D01*
X125947853Y-100298492D01*
X126067895Y-99695000D01*
X125947853Y-99091508D01*
X125606002Y-98579893D01*
X125374189Y-98425000D01*
X125606002Y-98270107D01*
X125947853Y-97758492D01*
X126067895Y-97155000D01*
X125947853Y-96551508D01*
X125606002Y-96039893D01*
X125374189Y-95885000D01*
X125606002Y-95730107D01*
X125947853Y-95218492D01*
X126067895Y-94615000D01*
X125947853Y-94011508D01*
X125606002Y-93499893D01*
X125374189Y-93345000D01*
X125606002Y-93190107D01*
X125947853Y-92678492D01*
X126067895Y-92075000D01*
X125947853Y-91471508D01*
X125606002Y-90959893D01*
X125374189Y-90805000D01*
X125606002Y-90650107D01*
X125947853Y-90138492D01*
X126067895Y-89535000D01*
X125947853Y-88931508D01*
X125606002Y-88419893D01*
X125374189Y-88265000D01*
X125606002Y-88110107D01*
X125947853Y-87598492D01*
X126067895Y-86995000D01*
X125947853Y-86391508D01*
X125606002Y-85879893D01*
X125374189Y-85725000D01*
X125606002Y-85570107D01*
X125947853Y-85058492D01*
X126067895Y-84455000D01*
X125947853Y-83851508D01*
X125606002Y-83339893D01*
X125374189Y-83185000D01*
X125606002Y-83030107D01*
X125947853Y-82518492D01*
X126067895Y-81915000D01*
X125947853Y-81311508D01*
X125652049Y-80868807D01*
X125826846Y-80756328D01*
X125992843Y-80513385D01*
X126051242Y-80225000D01*
X126051242Y-78907000D01*
X128103000Y-78907000D01*
X128103000Y-128103000D01*
X125855456Y-128103000D01*
X125901476Y-127991890D01*
X125780155Y-127762000D01*
X124587000Y-127762000D01*
X124587000Y-127782000D01*
X124333000Y-127782000D01*
X124333000Y-127762000D01*
X123139845Y-127762000D01*
X123018524Y-127991890D01*
X123064544Y-128103000D01*
X100497000Y-128103000D01*
X100497000Y-124868958D01*
X102005647Y-124868958D01*
X102085920Y-125120259D01*
X102641279Y-125321718D01*
X103231458Y-125295315D01*
X103654080Y-125120259D01*
X103734353Y-124868958D01*
X104545647Y-124868958D01*
X104625920Y-125120259D01*
X105181279Y-125321718D01*
X105771458Y-125295315D01*
X106194080Y-125120259D01*
X106274353Y-124868958D01*
X105410000Y-124004605D01*
X104545647Y-124868958D01*
X103734353Y-124868958D01*
X102870000Y-124004605D01*
X102005647Y-124868958D01*
X100497000Y-124868958D01*
X100497000Y-123596279D01*
X101373282Y-123596279D01*
X101399685Y-124186458D01*
X101574741Y-124609080D01*
X101826042Y-124689353D01*
X102690395Y-123825000D01*
X103049605Y-123825000D01*
X103913958Y-124689353D01*
X104140000Y-124617148D01*
X104366042Y-124689353D01*
X105230395Y-123825000D01*
X105589605Y-123825000D01*
X106453958Y-124689353D01*
X106705259Y-124609080D01*
X106906718Y-124053721D01*
X106880315Y-123463542D01*
X106705259Y-123040920D01*
X106453958Y-122960647D01*
X105589605Y-123825000D01*
X105230395Y-123825000D01*
X104366042Y-122960647D01*
X104140000Y-123032852D01*
X103913958Y-122960647D01*
X103049605Y-123825000D01*
X102690395Y-123825000D01*
X101826042Y-122960647D01*
X101574741Y-123040920D01*
X101373282Y-123596279D01*
X100497000Y-123596279D01*
X100497000Y-122328958D01*
X102005647Y-122328958D01*
X102077852Y-122555000D01*
X102005647Y-122781042D01*
X102870000Y-123645395D01*
X103734353Y-122781042D01*
X103662148Y-122555000D01*
X103734353Y-122328958D01*
X104545647Y-122328958D01*
X104617852Y-122555000D01*
X104545647Y-122781042D01*
X105410000Y-123645395D01*
X106274353Y-122781042D01*
X106202148Y-122555000D01*
X106274353Y-122328958D01*
X105410000Y-121464605D01*
X104545647Y-122328958D01*
X103734353Y-122328958D01*
X102870000Y-121464605D01*
X102005647Y-122328958D01*
X100497000Y-122328958D01*
X100497000Y-121056279D01*
X101373282Y-121056279D01*
X101399685Y-121646458D01*
X101574741Y-122069080D01*
X101826042Y-122149353D01*
X102690395Y-121285000D01*
X101826042Y-120420647D01*
X101574741Y-120500920D01*
X101373282Y-121056279D01*
X100497000Y-121056279D01*
X100497000Y-103276279D01*
X101373282Y-103276279D01*
X101399685Y-103866458D01*
X101574741Y-104289080D01*
X101826042Y-104369353D01*
X102690395Y-103505000D01*
X101826042Y-102640647D01*
X101574741Y-102720920D01*
X101373282Y-103276279D01*
X100497000Y-103276279D01*
X100497000Y-102008958D01*
X102005647Y-102008958D01*
X102077852Y-102235000D01*
X102005647Y-102461042D01*
X102870000Y-103325395D01*
X103734353Y-102461042D01*
X103662148Y-102235000D01*
X103734353Y-102008958D01*
X102870000Y-101144605D01*
X102005647Y-102008958D01*
X100497000Y-102008958D01*
X100497000Y-100736279D01*
X101373282Y-100736279D01*
X101399685Y-101326458D01*
X101574741Y-101749080D01*
X101826042Y-101829353D01*
X102690395Y-100965000D01*
X101826042Y-100100647D01*
X101574741Y-100180920D01*
X101373282Y-100736279D01*
X100497000Y-100736279D01*
X100497000Y-99468958D01*
X102005647Y-99468958D01*
X102077852Y-99695000D01*
X102005647Y-99921042D01*
X102870000Y-100785395D01*
X103734353Y-99921042D01*
X103662148Y-99695000D01*
X103734353Y-99468958D01*
X102870000Y-98604605D01*
X102005647Y-99468958D01*
X100497000Y-99468958D01*
X100497000Y-98196279D01*
X101373282Y-98196279D01*
X101399685Y-98786458D01*
X101574741Y-99209080D01*
X101826042Y-99289353D01*
X102690395Y-98425000D01*
X101826042Y-97560647D01*
X101574741Y-97640920D01*
X101373282Y-98196279D01*
X100497000Y-98196279D01*
X100497000Y-96928958D01*
X102005647Y-96928958D01*
X102077852Y-97155000D01*
X102005647Y-97381042D01*
X102870000Y-98245395D01*
X103734353Y-97381042D01*
X103662148Y-97155000D01*
X103734353Y-96928958D01*
X102870000Y-96064605D01*
X102005647Y-96928958D01*
X100497000Y-96928958D01*
X100497000Y-95656279D01*
X101373282Y-95656279D01*
X101399685Y-96246458D01*
X101574741Y-96669080D01*
X101826042Y-96749353D01*
X102690395Y-95885000D01*
X101826042Y-95020647D01*
X101574741Y-95100920D01*
X101373282Y-95656279D01*
X100497000Y-95656279D01*
X100497000Y-94388958D01*
X102005647Y-94388958D01*
X102077852Y-94615000D01*
X102005647Y-94841042D01*
X102870000Y-95705395D01*
X103734353Y-94841042D01*
X103662148Y-94615000D01*
X103734353Y-94388958D01*
X102870000Y-93524605D01*
X102005647Y-94388958D01*
X100497000Y-94388958D01*
X100497000Y-93116279D01*
X101373282Y-93116279D01*
X101399685Y-93706458D01*
X101574741Y-94129080D01*
X101826042Y-94209353D01*
X102690395Y-93345000D01*
X101826042Y-92480647D01*
X101574741Y-92560920D01*
X101373282Y-93116279D01*
X100497000Y-93116279D01*
X100497000Y-91848958D01*
X102005647Y-91848958D01*
X102077852Y-92075000D01*
X102005647Y-92301042D01*
X102870000Y-93165395D01*
X103734353Y-92301042D01*
X103662148Y-92075000D01*
X103734353Y-91848958D01*
X102870000Y-90984605D01*
X102005647Y-91848958D01*
X100497000Y-91848958D01*
X100497000Y-90576279D01*
X101373282Y-90576279D01*
X101399685Y-91166458D01*
X101574741Y-91589080D01*
X101826042Y-91669353D01*
X102690395Y-90805000D01*
X101826042Y-89940647D01*
X101574741Y-90020920D01*
X101373282Y-90576279D01*
X100497000Y-90576279D01*
X100497000Y-89308958D01*
X102005647Y-89308958D01*
X102077852Y-89535000D01*
X102005647Y-89761042D01*
X102870000Y-90625395D01*
X103734353Y-89761042D01*
X103662148Y-89535000D01*
X103734353Y-89308958D01*
X102870000Y-88444605D01*
X102005647Y-89308958D01*
X100497000Y-89308958D01*
X100497000Y-88036279D01*
X101373282Y-88036279D01*
X101399685Y-88626458D01*
X101574741Y-89049080D01*
X101826042Y-89129353D01*
X102690395Y-88265000D01*
X101826042Y-87400647D01*
X101574741Y-87480920D01*
X101373282Y-88036279D01*
X100497000Y-88036279D01*
X100497000Y-86768958D01*
X102005647Y-86768958D01*
X102077852Y-86995000D01*
X102005647Y-87221042D01*
X102870000Y-88085395D01*
X103734353Y-87221042D01*
X103662148Y-86995000D01*
X103734353Y-86768958D01*
X102870000Y-85904605D01*
X102005647Y-86768958D01*
X100497000Y-86768958D01*
X100497000Y-85496279D01*
X101373282Y-85496279D01*
X101399685Y-86086458D01*
X101574741Y-86509080D01*
X101826042Y-86589353D01*
X102690395Y-85725000D01*
X101826042Y-84860647D01*
X101574741Y-84940920D01*
X101373282Y-85496279D01*
X100497000Y-85496279D01*
X100497000Y-82208691D01*
X101385000Y-82208691D01*
X101385000Y-82899250D01*
X101543750Y-83058000D01*
X102743000Y-83058000D01*
X102743000Y-81858750D01*
X102584250Y-81700000D01*
X101893690Y-81700000D01*
X101660301Y-81796673D01*
X101481673Y-81975302D01*
X101385000Y-82208691D01*
X100497000Y-82208691D01*
X100497000Y-78907000D01*
X122868758Y-78907000D01*
X122868758Y-79761332D01*
G36*
X120433000Y-92357090D02*
X120047545Y-92742545D01*
X119862855Y-93018954D01*
X119798000Y-93345000D01*
X119798000Y-94262090D01*
X119412545Y-94647545D01*
X119227855Y-94923954D01*
X119163000Y-95250000D01*
X119163000Y-96167090D01*
X118142545Y-97187545D01*
X117957855Y-97463954D01*
X117893000Y-97790000D01*
X117893000Y-105057090D01*
X117757090Y-105193000D01*
X116557910Y-105193000D01*
X116172455Y-104807545D01*
X115896046Y-104622855D01*
X115570000Y-104558000D01*
X108302910Y-104558000D01*
X106987230Y-103242320D01*
X106987273Y-103192692D01*
X106747695Y-102612868D01*
X106370216Y-102234730D01*
X106746136Y-101859465D01*
X106986725Y-101280061D01*
X106987273Y-100652692D01*
X106747695Y-100072868D01*
X106370216Y-99694730D01*
X106746136Y-99319465D01*
X106986725Y-98740061D01*
X106987273Y-98112692D01*
X106969714Y-98070196D01*
X107282455Y-97757455D01*
X107467145Y-97481046D01*
X107532000Y-97155000D01*
X107532000Y-92292000D01*
X119634000Y-92292000D01*
X119960046Y-92227145D01*
X120236455Y-92042455D01*
X120433000Y-91845910D01*
X120433000Y-92357090D01*
X120433000Y-92357090D01*
G37*
X120433000Y-92357090D02*
X120047545Y-92742545D01*
X119862855Y-93018954D01*
X119798000Y-93345000D01*
X119798000Y-94262090D01*
X119412545Y-94647545D01*
X119227855Y-94923954D01*
X119163000Y-95250000D01*
X119163000Y-96167090D01*
X118142545Y-97187545D01*
X117957855Y-97463954D01*
X117893000Y-97790000D01*
X117893000Y-105057090D01*
X117757090Y-105193000D01*
X116557910Y-105193000D01*
X116172455Y-104807545D01*
X115896046Y-104622855D01*
X115570000Y-104558000D01*
X108302910Y-104558000D01*
X106987230Y-103242320D01*
X106987273Y-103192692D01*
X106747695Y-102612868D01*
X106370216Y-102234730D01*
X106746136Y-101859465D01*
X106986725Y-101280061D01*
X106987273Y-100652692D01*
X106747695Y-100072868D01*
X106370216Y-99694730D01*
X106746136Y-99319465D01*
X106986725Y-98740061D01*
X106987273Y-98112692D01*
X106969714Y-98070196D01*
X107282455Y-97757455D01*
X107467145Y-97481046D01*
X107532000Y-97155000D01*
X107532000Y-92292000D01*
X119634000Y-92292000D01*
X119960046Y-92227145D01*
X120236455Y-92042455D01*
X120433000Y-91845910D01*
X120433000Y-92357090D01*
M02*
