  0
SECTION
  2
HEADER
  9
$ACADVER
  1
AC1014
  9
$HANDSEED
  5
FFFF
  9
$MEASUREMENT
 70
     1
  0
ENDSEC
  0
SECTION
  2
TABLES
  0
TABLE
  2
VPORT
  5
8
330
0
100
AcDbSymbolTable
 70
     4
  0
VPORT
  5
2E
330
8
100
AcDbSymbolTableRecord
100
AcDbViewportTableRecord
  2
*ACTIVE
 70
     0
 10
0.0
 20
0.0
 11
1.0
 21
1.0
 12
210.0
 22
148.5
 13
0.0
 23
0.0
 14
10.0
 24
10.0
 15
10.0
 25
10.0
 16
0.0
 26
0.0
 36
1.0
 17
0.0
 27
0.0
 37
0.0
 40
341.0
 41
1.24
 42
50.0
 43
0.0
 44
0.0
 50
0.0
 51
0.0
 71
     0
 72
   100
 73
     1
 74
     3
 75
     0
 76
     0
 77
     0
 78
     0
  0
ENDTAB
  0
TABLE
  2
LTYPE
  5
5
330
0
100
AcDbSymbolTable
 70
     1
  0
LTYPE
  5
14
330
5
100
AcDbSymbolTableRecord
100
AcDbLinetypeTableRecord
  2
BYBLOCK
 70
     0
  3

 72
    65
 73
     0
 40
0.0
  0
LTYPE
  5
15
330
5
100
AcDbSymbolTableRecord
100
AcDbLinetypeTableRecord
  2
BYLAYER
 70
     0
  3

 72
    65
 73
     0
 40
0.0
  0
LTYPE
  5
16
330
5
100
AcDbSymbolTableRecord
100
AcDbLinetypeTableRecord
  2
CONTINUOUS
 70
     0
  3
Solid line
 72
    65
 73
     0
 40
0.0
  0
ENDTAB
  0
TABLE
  2
LAYER
  5
2
100
AcDbSymbolTable
 70
2
  0
LAYER
  5
50
100
AcDbSymbolTableRecord
100
AcDbLayerTableRecord
  2
0
 70
0
  6
CONTINUOUS
  0
LAYER
  5
51
100
AcDbSymbolTableRecord
100
AcDbLayerTableRecord
  2
Layer_1
 70
0
  6
CONTINUOUS
  0
ENDTAB
  0
TABLE
  2
STYLE
  5
3
330
0
100
AcDbSymbolTable
 70
     1
  0
STYLE
  5
11
330
3
100
AcDbSymbolTableRecord
100
AcDbTextStyleTableRecord
  2
STANDARD
 70
     0
 40
0.0
 41
1.0
 50
0.0
 71
     0
 42
2.5
  3
txt
  4

  0
ENDTAB
  0
TABLE
  2
VIEW
  5
6
330
0
100
AcDbSymbolTable
 70
     0
  0
ENDTAB
  0
TABLE
  2
UCS
  5
7
330
0
100
AcDbSymbolTable
 70
     0
  0
ENDTAB
  0
TABLE
  2
APPID
  5
9
330
0
100
AcDbSymbolTable
 70
     2
  0
APPID
  5
12
330
9
100
AcDbSymbolTableRecord
100
AcDbRegAppTableRecord
  2
ACAD
 70
     0
  0
ENDTAB
  0
TABLE
  2
DIMSTYLE
  5
A
330
0
100
AcDbSymbolTable
 70
     1
  0
DIMSTYLE
105
27
330
A
100
AcDbSymbolTableRecord
100
AcDbDimStyleTableRecord
  2
ISO-25
 70
     0
  3

  4

  5

  6

  7

 40
1.0
 41
2.5
 42
0.625
 43
3.75
 44
1.25
 45
0.0
 46
0.0
 47
0.0
 48
0.0
140
2.5
141
2.5
142
0.0
143
0.03937007874016
144
1.0
145
0.0
146
1.0
147
0.625
 71
     0
 72
     0
 73
     0
 74
     0
 75
     0
 76
     0
 77
     1
 78
     8
170
     0
171
     3
172
     1
173
     0
174
     0
175
     0
176
     0
177
     0
178
     0
270
     2
271
     2
272
     2
273
     2
274
     3
340
11
275
     0
280
     0
281
     0
282
     0
283
     0
284
     8
285
     0
286
     0
287
     3
288
     0
  0
ENDTAB
  0
TABLE
  2
BLOCK_RECORD
  5
1
330
0
100
AcDbSymbolTable
 70
     1
  0
BLOCK_RECORD
  5
1F
330
1
100
AcDbSymbolTableRecord
100
AcDbBlockTableRecord
  2
*MODEL_SPACE
  0
BLOCK_RECORD
  5
1B
330
1
100
AcDbSymbolTableRecord
100
AcDbBlockTableRecord
  2
*PAPER_SPACE
  0
ENDTAB
  0
ENDSEC
  0
SECTION
  2
BLOCKS
  0
BLOCK
  5
20
330
1F
100
AcDbEntity
  8
0
100
AcDbBlockBegin
  2
*MODEL_SPACE
 70
     0
 10
0.0
 20
0.0
 30
0.0
  3
*MODEL_SPACE
  1

  0
ENDBLK
  5
21
330
1F
100
AcDbEntity
  8
0
100
AcDbBlockEnd
  0
BLOCK
  5
1C
330
1B
100
AcDbEntity
 67
     1
  8
0
100
AcDbBlockBegin
  2
*PAPER_SPACE
  1

  0
ENDBLK
  5
1D
330
1B
100
AcDbEntity
 67
     1
  8
0
100
AcDbBlockEnd
  0
ENDSEC
  0
SECTION
  2
ENTITIES
  0
LWPOLYLINE
  5
100
100
AcDbEntity
  8
Layer_1
 62
7
100
AcDbPolyline
 90
34
 70
1
 10
-0.000000
 20
28.211748
 30
0.0
 10
6.190726
 20
28.211748
 30
0.0
 10
7.795729
 20
28.011123
 30
0.0
 10
8.980374
 20
27.409247
 30
0.0
 10
9.706447
 20
26.501656
 30
0.0
 10
9.945286
 20
25.393439
 30
0.0
 10
9.773322
 20
24.457188
 30
0.0
 10
9.266982
 20
23.673793
 30
0.0
 10
8.426266
 20
23.043256
 30
0.0
 10
7.241621
 20
22.556023
 30
0.0
 10
8.712873
 20
22.097451
 30
0.0
 10
9.763768
 20
21.438253
 30
0.0
 10
10.394305
 20
20.578430
 30
0.0
 10
10.604484
 20
19.517982
 30
0.0
 10
10.489841
 20
18.686820
 30
0.0
 10
10.136358
 20
17.951193
 30
0.0
 10
9.496268
 20
17.320656
 30
0.0
 10
8.540909
 20
16.795209
 30
0.0
 10
7.356264
 20
16.441726
 30
0.0
 10
6.018761
 20
16.327083
 30
0.0
 10
0.019107
 20
16.327083
 30
0.0
 10
0.019107
 20
16.928959
 30
0.0
 10
0.993573
 20
16.928959
 30
0.0
 10
1.375717
 20
16.967174
 30
0.0
 10
1.643217
 20
17.072263
 30
0.0
 10
1.796075
 20
17.225120
 30
0.0
 10
1.843843
 20
17.397085
 30
0.0
 10
1.843843
 20
26.902906
 30
0.0
 10
1.796075
 20
27.199068
 30
0.0
 10
1.643217
 20
27.409247
 30
0.0
 10
1.394824
 20
27.542997
 30
0.0
 10
1.060448
 20
27.590765
 30
0.0
 10
0.019107
 20
27.590765
 30
0.0
 10
0.019107
 20
28.211748
 30
0.0
  0
LWPOLYLINE
  5
101
100
AcDbEntity
  8
Layer_1
 62
7
100
AcDbPolyline
 90
17
 70
1
 10
3.553935
 20
22.766202
 30
0.0
 10
5.799029
 20
22.766202
 30
0.0
 10
6.725727
 20
22.919060
 30
0.0
 10
7.442246
 20
23.377632
 30
0.0
 10
7.900818
 20
24.180133
 30
0.0
 10
8.053676
 20
25.374332
 30
0.0
 10
7.977247
 20
26.138619
 30
0.0
 10
7.757514
 20
26.711835
 30
0.0
 10
7.394478
 20
27.122639
 30
0.0
 10
6.907245
 20
27.409247
 30
0.0
 10
6.142958
 20
27.571658
 30
0.0
 10
4.977420
 20
27.628979
 30
0.0
 10
4.194026
 20
27.590765
 30
0.0
 10
3.773668
 20
27.485675
 30
0.0
 10
3.601703
 20
27.294604
 30
0.0
 10
3.544382
 20
26.998442
 30
0.0
 10
3.544382
 20
22.766202
 30
0.0
  0
LWPOLYLINE
  5
102
100
AcDbEntity
  8
Layer_1
 62
7
100
AcDbPolyline
 90
16
 70
1
 10
3.553935
 20
22.164326
 30
0.0
 10
3.553935
 20
17.588157
 30
0.0
 10
3.601703
 20
17.311103
 30
0.0
 10
3.745007
 20
17.110477
 30
0.0
 10
4.012507
 20
16.986281
 30
0.0
 10
4.423312
 20
16.948066
 30
0.0
 10
5.856350
 20
16.948066
 30
0.0
 10
7.098317
 20
17.100924
 30
0.0
 10
7.967693
 20
17.569050
 30
0.0
 10
8.483587
 20
18.371551
 30
0.0
 10
8.655552
 20
19.527535
 30
0.0
 10
8.483587
 20
20.616645
 30
0.0
 10
7.958140
 20
21.447807
 30
0.0
 10
7.117424
 20
21.973254
 30
0.0
 10
6.009208
 20
22.145219
 30
0.0
 10
3.553935
 20
22.145219
 30
0.0
  0
LWPOLYLINE
  5
103
100
AcDbEntity
  8
Layer_1
 62
7
100
AcDbPolyline
 90
24
 70
1
 10
19.011643
 20
20.052983
 30
0.0
 10
13.623418
 20
20.052983
 30
0.0
 10
13.804937
 20
18.591284
 30
0.0
 10
14.263509
 20
17.635925
 30
0.0
 10
15.046903
 20
17.043602
 30
0.0
 10
16.021369
 20
16.842977
 30
0.0
 10
17.435300
 20
17.291996
 30
0.0
 10
18.543517
 20
18.629498
 30
0.0
 10
19.068964
 20
18.400212
 30
0.0
 10
17.635926
 20
16.690119
 30
0.0
 10
15.686994
 20
16.116904
 30
0.0
 10
14.301723
 20
16.393958
 30
0.0
 10
13.155292
 20
17.215567
 30
0.0
 10
12.381452
 20
18.457533
 30
0.0
 10
12.123505
 20
20.005215
 30
0.0
 10
12.381452
 20
21.657986
 30
0.0
 10
13.145739
 20
22.957274
 30
0.0
 10
14.282616
 20
23.797990
 30
0.0
 10
15.648779
 20
24.084598
 30
0.0
 10
16.661460
 20
23.941294
 30
0.0
 10
17.530836
 20
23.520936
 30
0.0
 10
18.228248
 20
22.833077
 30
0.0
 10
18.725035
 20
21.906379
 30
0.0
 10
18.935214
 20
21.075217
 30
0.0
  0
LWPOLYLINE
  5
104
100
AcDbEntity
  8
Layer_1
 62
7
100
AcDbPolyline
 90
13
 70
1
 10
13.623418
 20
20.626198
 30
0.0
 10
16.881192
 20
20.626198
 30
0.0
 10
17.139139
 20
20.673966
 30
0.0
 10
17.330211
 20
20.817270
 30
0.0
 10
17.454408
 20
21.084771
 30
0.0
 10
17.492622
 20
21.486021
 30
0.0
 10
17.358872
 20
22.298076
 30
0.0
 10
16.948067
 20
22.985935
 30
0.0
 10
16.346191
 20
23.444507
 30
0.0
 10
15.648779
 20
23.597364
 30
0.0
 10
14.874939
 20
23.406293
 30
0.0
 10
14.234848
 20
22.842631
 30
0.0
 10
13.795383
 20
21.906379
 30
0.0
  0
LWPOLYLINE
  5
105
100
AcDbEntity
  8
Layer_1
 62
7
100
AcDbPolyline
 90
24
 70
1
 10
27.552551
 20
20.052983
 30
0.0
 10
22.164327
 20
20.052983
 30
0.0
 10
22.345845
 20
18.591284
 30
0.0
 10
22.804418
 20
17.635925
 30
0.0
 10
23.587812
 20
17.043602
 30
0.0
 10
24.562278
 20
16.842977
 30
0.0
 10
25.976209
 20
17.291996
 30
0.0
 10
27.084426
 20
18.629498
 30
0.0
 10
27.609873
 20
18.400212
 30
0.0
 10
26.176835
 20
16.690119
 30
0.0
 10
24.227902
 20
16.116904
 30
0.0
 10
22.842632
 20
16.393958
 30
0.0
 10
21.696201
 20
17.215567
 30
0.0
 10
20.922361
 20
18.457533
 30
0.0
 10
20.664414
 20
20.005215
 30
0.0
 10
20.922361
 20
21.657986
 30
0.0
 10
21.686648
 20
22.957274
 30
0.0
 10
22.823525
 20
23.797990
 30
0.0
 10
24.189688
 20
24.084598
 30
0.0
 10
25.202369
 20
23.941294
 30
0.0
 10
26.071745
 20
23.520936
 30
0.0
 10
26.769157
 20
22.833077
 30
0.0
 10
27.265944
 20
21.906379
 30
0.0
 10
27.476123
 20
21.075217
 30
0.0
  0
LWPOLYLINE
  5
106
100
AcDbEntity
  8
Layer_1
 62
7
100
AcDbPolyline
 90
13
 70
1
 10
22.173881
 20
20.626198
 30
0.0
 10
25.431655
 20
20.626198
 30
0.0
 10
25.689602
 20
20.673966
 30
0.0
 10
25.880673
 20
20.817270
 30
0.0
 10
26.004870
 20
21.084771
 30
0.0
 10
26.043084
 20
21.486021
 30
0.0
 10
25.909334
 20
22.298076
 30
0.0
 10
25.498530
 20
22.985935
 30
0.0
 10
24.896654
 20
23.444507
 30
0.0
 10
24.199242
 20
23.597364
 30
0.0
 10
23.425401
 20
23.406293
 30
0.0
 10
22.785310
 20
22.842631
 30
0.0
 10
22.345845
 20
21.906379
 30
0.0
  0
LWPOLYLINE
  5
107
100
AcDbEntity
  8
Layer_1
 62
7
100
AcDbPolyline
 90
30
 70
1
 10
31.373987
 20
28.345498
 30
0.0
 10
31.373987
 20
22.756649
 30
0.0
 10
31.870774
 20
23.339418
 30
0.0
 10
32.424882
 20
23.750222
 30
0.0
 10
33.026758
 20
23.998615
 30
0.0
 10
33.685956
 20
24.084598
 30
0.0
 10
34.908815
 20
23.826651
 30
0.0
 10
35.921496
 20
23.052810
 30
0.0
 10
36.609354
 20
21.849058
 30
0.0
 10
36.838640
 20
20.320483
 30
0.0
 10
36.590247
 20
18.658159
 30
0.0
 10
35.854621
 20
17.349317
 30
0.0
 10
34.755958
 20
16.499048
 30
0.0
 10
33.418455
 20
16.221994
 30
0.0
 10
32.759258
 20
16.288869
 30
0.0
 10
32.166935
 20
16.489494
 30
0.0
 10
31.593720
 20
16.852530
 30
0.0
 10
31.010951
 20
17.406639
 30
0.0
 10
30.561932
 20
16.747441
 30
0.0
 10
30.132021
 20
16.212440
 30
0.0
 10
29.807199
 20
16.327083
 30
0.0
 10
29.979163
 20
17.272888
 30
0.0
 10
30.036485
 20
18.256908
 30
0.0
 10
30.036485
 20
26.750049
 30
0.0
 10
29.969610
 20
27.103532
 30
0.0
 10
29.759431
 20
27.371032
 30
0.0
 10
29.425055
 20
27.542997
 30
0.0
 10
28.976036
 20
27.600318
 30
0.0
 10
28.641661
 20
27.600318
 30
0.0
 10
28.641661
 20
28.202195
 30
0.0
  0
LWPOLYLINE
  5
108
100
AcDbEntity
  8
Layer_1
 62
7
100
AcDbPolyline
 90
16
 70
1
 10
33.399348
 20
23.377632
 30
0.0
 10
32.577739
 20
23.177007
 30
0.0
 10
31.928095
 20
22.584684
 30
0.0
 10
31.498184
 20
21.533789
 30
0.0
 10
31.354880
 20
19.976554
 30
0.0
 10
31.498184
 20
18.495748
 30
0.0
 10
31.918542
 20
17.502175
 30
0.0
 10
32.568186
 20
16.938513
 30
0.0
 10
33.389795
 20
16.747441
 30
0.0
 10
34.125421
 20
16.928959
 30
0.0
 10
34.698636
 20
17.483067
 30
0.0
 10
35.166762
 20
18.610391
 30
0.0
 10
35.319620
 20
20.138965
 30
0.0
 10
35.185869
 20
21.600664
 30
0.0
 10
34.775065
 20
22.603791
 30
0.0
 10
34.154082
 20
23.177007
 30
0.0
  0
LWPOLYLINE
  5
109
100
AcDbEntity
  8
Layer_1
 62
7
100
AcDbPolyline
 90
53
 70
1
 10
3.085809
 20
12.964220
 30
0.0
 10
7.346710
 20
12.964220
 30
0.0
 10
8.110997
 20
12.801809
 30
0.0
 10
8.827516
 20
12.305022
 30
0.0
 10
9.352964
 20
11.578949
 30
0.0
 10
9.524929
 20
10.709573
 30
0.0
 10
9.458053
 20
10.384750
 30
0.0
 10
9.266982
 20
10.117250
 30
0.0
 10
9.009035
 20
9.935732
 30
0.0
 10
8.722427
 20
9.878410
 30
0.0
 10
8.368944
 20
9.926178
 30
0.0
 10
8.149212
 20
10.069482
 30
0.0
 10
7.996354
 20
10.336983
 30
0.0
 10
7.853050
 20
10.776448
 30
0.0
 10
7.623764
 20
11.168145
 30
0.0
 10
7.222513
 20
11.301895
 30
0.0
 10
3.171792
 20
11.301895
 30
0.0
 10
2.952059
 20
11.254127
 30
0.0
 10
2.875630
 20
11.110823
 30
0.0
 10
2.904291
 20
10.986627
 30
0.0
 10
2.999827
 20
10.843323
 30
0.0
 10
9.085463
 20
3.076255
 30
0.0
 10
9.419839
 20
2.493486
 30
0.0
 10
9.534482
 20
1.872502
 30
0.0
 10
9.400732
 20
1.184644
 30
0.0
 10
8.999481
 20
0.582768
 30
0.0
 10
8.435819
 20
0.162410
 30
0.0
 10
7.814836
 20
0.019106
 30
0.0
 10
3.401078
 20
0.019106
 30
0.0
 10
2.579469
 20
0.181517
 30
0.0
 10
1.872503
 20
0.678304
 30
0.0
 10
1.385270
 20
1.375716
 30
0.0
 10
1.222859
 20
2.140003
 30
0.0
 10
1.433038
 20
2.827861
 30
0.0
 10
2.073129
 20
3.057148
 30
0.0
 10
2.378844
 20
2.999826
 30
0.0
 10
2.636791
 20
2.818308
 30
0.0
 10
2.808755
 20
2.560361
 30
0.0
 10
2.913845
 20
2.015806
 30
0.0
 10
3.047595
 20
1.815181
 30
0.0
 10
3.248220
 20
1.681431
 30
0.0
 10
3.496614
 20
1.633663
 30
0.0
 10
7.575996
 20
1.633663
 30
0.0
 10
7.776622
 20
1.681431
 30
0.0
 10
7.843497
 20
1.834288
 30
0.0
 10
7.814836
 20
1.948931
 30
0.0
 10
7.719300
 20
2.092235
 30
0.0
 10
1.643217
 20
9.859303
 30
0.0
 10
1.318395
 20
10.442072
 30
0.0
 10
1.213306
 20
11.072609
 30
0.0
 10
1.347056
 20
11.779575
 30
0.0
 10
1.757860
 20
12.391004
 30
0.0
 10
2.359737
 20
12.811362
 30
0.0
  0
LWPOLYLINE
  5
10a
100
AcDbEntity
  8
Layer_1
 62
7
100
AcDbPolyline
 90
44
 70
1
 10
14.999135
 20
1.643216
 30
0.0
 10
17.951194
 20
1.643216
 30
0.0
 10
18.266463
 20
1.585895
 30
0.0
 10
18.533963
 20
1.404377
 30
0.0
 10
18.725035
 20
1.136876
 30
0.0
 10
18.791910
 20
0.821608
 30
0.0
 10
18.725035
 20
0.506339
 30
0.0
 10
18.533963
 20
0.238839
 30
0.0
 10
18.266463
 20
0.057320
 30
0.0
 10
17.951194
 20
-0.000001
 30
0.0
 10
14.894046
 20
-0.000001
 30
0.0
 10
14.301723
 20
0.095535
 30
0.0
 10
13.690293
 20
0.372589
 30
0.0
 10
13.164846
 20
0.764286
 30
0.0
 10
12.830470
 20
1.203751
 30
0.0
 10
10.938860
 20
4.862776
 30
0.0
 10
10.652252
 20
5.665277
 30
0.0
 10
10.556716
 20
6.486886
 30
0.0
 10
10.642698
 20
7.346709
 30
0.0
 10
10.910199
 20
8.082335
 30
0.0
 10
12.820917
 20
11.703146
 30
0.0
 10
13.164846
 20
12.180825
 30
0.0
 10
13.661633
 20
12.601183
 30
0.0
 10
14.225294
 20
12.887791
 30
0.0
 10
14.769849
 20
12.983327
 30
0.0
 10
18.008516
 20
12.983327
 30
0.0
 10
18.323784
 20
12.926005
 30
0.0
 10
18.591285
 20
12.744487
 30
0.0
 10
18.772803
 20
12.476987
 30
0.0
 10
18.830124
 20
12.171272
 30
0.0
 10
18.772803
 20
11.856003
 30
0.0
 10
18.591285
 20
11.588503
 30
0.0
 10
18.323784
 20
11.397431
 30
0.0
 10
18.008516
 20
11.330556
 30
0.0
 10
14.894046
 20
11.330556
 30
0.0
 10
14.540563
 20
11.215913
 30
0.0
 10
14.263509
 20
10.871984
 30
0.0
 10
12.448327
 20
7.480459
 30
0.0
 10
12.285916
 20
7.040994
 30
0.0
 10
12.238148
 20
6.534654
 30
0.0
 10
12.295469
 20
5.990099
 30
0.0
 10
12.467434
 20
5.512420
 30
0.0
 10
14.206187
 20
2.178217
 30
0.0
 10
14.531009
 20
1.786520
 30
0.0
  0
LWPOLYLINE
  5
10b
100
AcDbEntity
  8
Layer_1
 62
7
100
AcDbPolyline
 90
53
 70
1
 10
21.619773
 20
12.964220
 30
0.0
 10
25.880673
 20
12.964220
 30
0.0
 10
26.644961
 20
12.801809
 30
0.0
 10
27.361480
 20
12.305022
 30
0.0
 10
27.886927
 20
11.578949
 30
0.0
 10
28.058892
 20
10.709573
 30
0.0
 10
27.992017
 20
10.384750
 30
0.0
 10
27.800945
 20
10.117250
 30
0.0
 10
27.542998
 20
9.935732
 30
0.0
 10
27.256390
 20
9.878410
 30
0.0
 10
26.902907
 20
9.926178
 30
0.0
 10
26.683175
 20
10.069482
 30
0.0
 10
26.530317
 20
10.336983
 30
0.0
 10
26.387014
 20
10.776448
 30
0.0
 10
26.157727
 20
11.168145
 30
0.0
 10
25.756477
 20
11.301895
 30
0.0
 10
21.705755
 20
11.301895
 30
0.0
 10
21.486022
 20
11.254127
 30
0.0
 10
21.409594
 20
11.110823
 30
0.0
 10
21.438254
 20
10.986627
 30
0.0
 10
21.533790
 20
10.843323
 30
0.0
 10
27.619427
 20
3.076255
 30
0.0
 10
27.953802
 20
2.493486
 30
0.0
 10
28.068445
 20
1.872502
 30
0.0
 10
27.934695
 20
1.184644
 30
0.0
 10
27.533444
 20
0.582768
 30
0.0
 10
26.969783
 20
0.162410
 30
0.0
 10
26.348799
 20
0.019106
 30
0.0
 10
21.935041
 20
0.019106
 30
0.0
 10
21.113432
 20
0.181517
 30
0.0
 10
20.406467
 20
0.678304
 30
0.0
 10
19.919234
 20
1.375716
 30
0.0
 10
19.756823
 20
2.140003
 30
0.0
 10
19.967002
 20
2.827861
 30
0.0
 10
20.607092
 20
3.057148
 30
0.0
 10
20.912807
 20
2.999826
 30
0.0
 10
21.170754
 20
2.818308
 30
0.0
 10
21.342718
 20
2.560361
 30
0.0
 10
21.447808
 20
2.015806
 30
0.0
 10
21.581558
 20
1.815181
 30
0.0
 10
21.782184
 20
1.681431
 30
0.0
 10
22.030577
 20
1.633663
 30
0.0
 10
26.109960
 20
1.633663
 30
0.0
 10
26.310585
 20
1.681431
 30
0.0
 10
26.377460
 20
1.834288
 30
0.0
 10
26.348799
 20
1.948931
 30
0.0
 10
26.253263
 20
2.092235
 30
0.0
 10
20.177181
 20
9.859303
 30
0.0
 10
19.852359
 20
10.442072
 30
0.0
 10
19.747269
 20
11.072609
 30
0.0
 10
19.881019
 20
11.779575
 30
0.0
 10
20.291824
 20
12.391004
 30
0.0
 10
20.893700
 20
12.811362
 30
0.0
  0
LWPOLYLINE
  5
10c
100
AcDbEntity
  8
Layer_1
 62
7
100
AcDbPolyline
 90
40
 70
1
 10
29.835859
 20
12.964220
 30
0.0
 10
36.466050
 20
12.964220
 30
0.0
 10
36.771765
 20
12.906898
 30
0.0
 10
37.039266
 20
12.725380
 30
0.0
 10
37.230337
 20
12.457879
 30
0.0
 10
37.297213
 20
12.152165
 30
0.0
 10
37.239891
 20
11.836896
 30
0.0
 10
37.058373
 20
11.569396
 30
0.0
 10
36.790872
 20
11.378324
 30
0.0
 10
36.485157
 20
11.311449
 30
0.0
 10
34.010778
 20
11.311449
 30
0.0
 10
34.010778
 20
1.652770
 30
0.0
 10
36.485157
 20
1.652770
 30
0.0
 10
36.800426
 20
1.595448
 30
0.0
 10
37.067926
 20
1.413930
 30
0.0
 10
37.249445
 20
1.146430
 30
0.0
 10
37.306766
 20
0.831161
 30
0.0
 10
37.249445
 20
0.515893
 30
0.0
 10
37.067926
 20
0.248392
 30
0.0
 10
36.800426
 20
0.066874
 30
0.0
 10
36.494711
 20
0.009553
 30
0.0
 10
29.864520
 20
0.009553
 30
0.0
 10
29.549252
 20
0.066874
 30
0.0
 10
29.281751
 20
0.248392
 30
0.0
 10
29.100233
 20
0.515893
 30
0.0
 10
29.042911
 20
0.831161
 30
0.0
 10
29.100233
 20
1.146430
 30
0.0
 10
29.281751
 20
1.413930
 30
0.0
 10
29.549252
 20
1.595448
 30
0.0
 10
29.864520
 20
1.652770
 30
0.0
 10
32.377114
 20
1.652770
 30
0.0
 10
32.377114
 20
11.311449
 30
0.0
 10
29.864520
 20
11.311449
 30
0.0
 10
29.549252
 20
11.368770
 30
0.0
 10
29.281751
 20
11.550288
 30
0.0
 10
29.100233
 20
11.817789
 30
0.0
 10
29.042911
 20
12.123504
 30
0.0
 10
29.100233
 20
12.448326
 30
0.0
 10
29.281751
 20
12.715826
 30
0.0
 10
29.549252
 20
12.897344
 30
0.0
  0
ENDSEC
  0
SECTION
  2
OBJECTS
  0
DICTIONARY
  5
C
330
0
100
AcDbDictionary
  3
ACAD_GROUP
350
D
  3
ACAD_MLINESTYLE
350
17
  0
DICTIONARY
  5
D
330
C
100
AcDbDictionary
  0
DICTIONARY
  5
1A
330
C
100
AcDbDictionary
  0
DICTIONARY
  5
17
330
C
100
AcDbDictionary
  3
STANDARD
350
18
  0
DICTIONARY
  5
19
330
C
100
AcDbDictionary
  0
ENDSEC
  0
EOF
