G04 #@! TF.FileFunction,Copper,L2,Bot,Signal*
%FSLAX46Y46*%
G04 Gerber Fmt 4.6, Leading zero omitted, Abs format (unit mm)*
G04 Created by KiCad (PCBNEW 4.0.7) date 05/03/18 17:06:33*
%MOMM*%
%LPD*%
G01*
G04 APERTURE LIST*
%ADD10C,0.100000*%
%ADD11C,0.150000*%
%ADD12R,1.700000X1.700000*%
%ADD13O,1.700000X1.700000*%
%ADD14R,1.850000X1.850000*%
%ADD15C,1.850000*%
%ADD16C,1.700000*%
%ADD17C,0.800000*%
%ADD18C,0.600000*%
%ADD19C,0.500000*%
%ADD20C,0.400000*%
%ADD21C,1.000000*%
%ADD22C,0.250000*%
%ADD23C,1.500000*%
%ADD24C,0.254000*%
G04 APERTURE END LIST*
D10*
D11*
X84836000Y-117856000D02*
X84836000Y-67056000D01*
X150368000Y-117856000D02*
X84836000Y-117856000D01*
X150368000Y-67056000D02*
X150368000Y-117856000D01*
X84836000Y-67056000D02*
X150368000Y-67056000D01*
D12*
X104648000Y-95758000D03*
D13*
X107188000Y-95758000D03*
X104648000Y-98298000D03*
X107188000Y-98298000D03*
X104648000Y-100838000D03*
X107188000Y-100838000D03*
X104648000Y-103378000D03*
X107188000Y-103378000D03*
X104648000Y-105918000D03*
X107188000Y-105918000D03*
D14*
X108458000Y-110998000D03*
D15*
X105958000Y-110998000D03*
D12*
X98552000Y-112776000D03*
D16*
X96012000Y-112776000D03*
X98552000Y-110236000D03*
X96012000Y-110236000D03*
X98552000Y-107696000D03*
X96012000Y-107696000D03*
X98552000Y-105156000D03*
X96012000Y-105156000D03*
X98552000Y-102616000D03*
X96012000Y-102616000D03*
X98552000Y-100076000D03*
X96012000Y-100076000D03*
X98552000Y-97536000D03*
X96012000Y-97536000D03*
X98552000Y-94996000D03*
X96012000Y-94996000D03*
X98552000Y-92456000D03*
X96012000Y-92456000D03*
X98552000Y-89916000D03*
X96012000Y-89916000D03*
X98552000Y-87376000D03*
X96012000Y-87376000D03*
X98552000Y-84836000D03*
X96012000Y-84836000D03*
X98552000Y-82296000D03*
X96012000Y-82296000D03*
X98552000Y-79756000D03*
X96012000Y-79756000D03*
X98552000Y-77216000D03*
X96012000Y-77216000D03*
X98552000Y-74676000D03*
X96012000Y-74676000D03*
X98552000Y-72136000D03*
X96012000Y-72136000D03*
D12*
X116840000Y-75438000D03*
D13*
X119380000Y-75438000D03*
X121920000Y-75438000D03*
X124460000Y-75438000D03*
X127000000Y-75438000D03*
X129540000Y-75438000D03*
D14*
X138176000Y-110998000D03*
D15*
X135676000Y-110998000D03*
X133176000Y-110998000D03*
X130676000Y-110998000D03*
D17*
X127000000Y-101854000D03*
X140208000Y-98806000D03*
X137668000Y-101092000D03*
X110236000Y-70866000D03*
X127000000Y-109982000D03*
X133858000Y-86360000D03*
X137160000Y-86360000D03*
X141732000Y-73406000D03*
X127000000Y-97282000D03*
X115062000Y-89154000D03*
X115062000Y-91186000D03*
X101600000Y-110744000D03*
X105156000Y-116332000D03*
D18*
X109474000Y-93218000D03*
X112268000Y-93218000D03*
X123190000Y-105664000D03*
X135128000Y-82042000D03*
X116840000Y-85852000D03*
X118110000Y-72136000D03*
X109474000Y-98552000D03*
X110490000Y-94996000D03*
X109220000Y-114554000D03*
X117602000Y-111760000D03*
X139954000Y-106426000D03*
D17*
X141732000Y-98806000D03*
X144780000Y-97536000D03*
D18*
X113030000Y-90678000D03*
D17*
X104902000Y-68580000D03*
X104902000Y-71120000D03*
X143510000Y-88138000D03*
X130556000Y-98552000D03*
X135128000Y-98806000D03*
X112014000Y-80772000D03*
X114046000Y-95250000D03*
X139700000Y-68580000D03*
X135128000Y-68580000D03*
D18*
X120650000Y-87122000D03*
X122174000Y-80010000D03*
X100330000Y-115062000D03*
X118110000Y-77216000D03*
D17*
X133858000Y-84074000D03*
X139446000Y-83312000D03*
X144272000Y-84074000D03*
X133858000Y-69850000D03*
X125222000Y-78486000D03*
X108966000Y-69850000D03*
X107188000Y-80010000D03*
X114808000Y-101600000D03*
X115570000Y-98044000D03*
X125476000Y-110236000D03*
X119634000Y-107442000D03*
X119634000Y-113284000D03*
D18*
X123444000Y-80010000D03*
X121158000Y-88646000D03*
X146050000Y-98806000D03*
X139954000Y-100838000D03*
X149606000Y-89662000D03*
X149352000Y-99060000D03*
X149098000Y-77978000D03*
X149606000Y-82042000D03*
X147066000Y-100838000D03*
X146050000Y-85852000D03*
X145288000Y-84836000D03*
X147066000Y-106172000D03*
X143002000Y-84074000D03*
X143002000Y-86360000D03*
X143764000Y-99568000D03*
X143764000Y-103124000D03*
X148082000Y-95250000D03*
X145796000Y-83312000D03*
X143002000Y-82550000D03*
X144526000Y-82550000D03*
X148844000Y-88900000D03*
X139446000Y-81534000D03*
X127508000Y-82296000D03*
X122936000Y-82296000D03*
X128016000Y-81534000D03*
X123444000Y-81534000D03*
X124460000Y-91186000D03*
X120904000Y-89662000D03*
X123952000Y-92202000D03*
X120396000Y-90424000D03*
X124460000Y-92964000D03*
X120396000Y-91440000D03*
X123190000Y-95250000D03*
X123190000Y-93726000D03*
D19*
X104013000Y-92329000D03*
X107188000Y-92329000D03*
X104013000Y-91567000D03*
X107188000Y-91567000D03*
D18*
X113030000Y-89662000D03*
D19*
X104013000Y-90805000D03*
X107188000Y-90805000D03*
X104013000Y-89916000D03*
X107188000Y-89916000D03*
D18*
X113030000Y-88646000D03*
D19*
X104013000Y-88519000D03*
X107188000Y-88519000D03*
X104013000Y-87757000D03*
X107188000Y-87757000D03*
X104013000Y-86995000D03*
X107188000Y-86995000D03*
X104013000Y-86233000D03*
X107188000Y-86233000D03*
X104013000Y-84836000D03*
X107188000Y-84836000D03*
X104013000Y-83947000D03*
X107188000Y-83947000D03*
X104013000Y-83185000D03*
X107188000Y-83185000D03*
X104013000Y-82296000D03*
X107188000Y-82296000D03*
D18*
X108712000Y-81280000D03*
X103124000Y-81280000D03*
D19*
X104013000Y-78105000D03*
X107188000Y-78105000D03*
X104013000Y-77343000D03*
X107188000Y-77343000D03*
X104013000Y-76581000D03*
X107188000Y-76581000D03*
X104013000Y-75692000D03*
X107188000Y-75692000D03*
X104013000Y-74295000D03*
X107188000Y-74295000D03*
X104013000Y-73533000D03*
X107188000Y-73533000D03*
X104013000Y-72771000D03*
X107188000Y-72771000D03*
X104013000Y-71882000D03*
X107188000Y-71882000D03*
D18*
X148082000Y-80264000D03*
X148082000Y-88646000D03*
X144526000Y-100076000D03*
X144526000Y-101600000D03*
X145288000Y-99568000D03*
X146304000Y-102870000D03*
X149606000Y-107188000D03*
X146812000Y-93218000D03*
X147320000Y-79756000D03*
X148844000Y-96012000D03*
X127508000Y-92964000D03*
X112014000Y-95504000D03*
X118872000Y-98806000D03*
X118872000Y-100330000D03*
X118110000Y-98044000D03*
X119634000Y-98044000D03*
X103378000Y-99568000D03*
X114808000Y-100330000D03*
X116332000Y-101092000D03*
X114808000Y-105410000D03*
X116332000Y-105410000D03*
X120142000Y-98806000D03*
X120142000Y-101346000D03*
X114808000Y-102870000D03*
X109728000Y-102870000D03*
X141732000Y-93980000D03*
X138176000Y-89408000D03*
X138430000Y-92202000D03*
X135128000Y-102870000D03*
X138430000Y-90932000D03*
X134112000Y-102870000D03*
X125730000Y-97028000D03*
X128524000Y-92964000D03*
D20*
X140208000Y-98806000D02*
X139954000Y-98806000D01*
X137668000Y-101092000D02*
X139954000Y-98806000D01*
D21*
X110236000Y-70866000D02*
X110236000Y-73406000D01*
X132842000Y-97282000D02*
X127000000Y-97282000D01*
X133858000Y-96266000D02*
X132842000Y-97282000D01*
X133858000Y-86360000D02*
X133858000Y-96266000D01*
X137160000Y-77978000D02*
X137160000Y-86360000D01*
X141732000Y-73406000D02*
X137160000Y-77978000D01*
X127000000Y-103632000D02*
X127000000Y-101854000D01*
X127000000Y-105918000D02*
X127000000Y-103632000D01*
X127000000Y-109982000D02*
X127000000Y-105918000D01*
X127000000Y-101854000D02*
X127000000Y-99822000D01*
X127000000Y-99822000D02*
X127000000Y-97282000D01*
X109474000Y-93218000D02*
X110490000Y-92202000D01*
X110236000Y-73406000D02*
X110236000Y-84328000D01*
X110236000Y-84328000D02*
X115062000Y-89154000D01*
X114046000Y-92202000D02*
X110490000Y-92202000D01*
X115062000Y-91186000D02*
X114046000Y-92202000D01*
X109474000Y-93218000D02*
X109220000Y-93218000D01*
X109220000Y-93218000D02*
X108712000Y-93726000D01*
X108712000Y-93726000D02*
X102108000Y-93726000D01*
X102108000Y-93726000D02*
X101600000Y-94234000D01*
X101600000Y-94234000D02*
X101600000Y-110744000D01*
X105156000Y-116332000D02*
X121666000Y-116332000D01*
X121666000Y-116332000D02*
X127000000Y-110998000D01*
X127000000Y-110998000D02*
X127000000Y-109982000D01*
D22*
X112268000Y-93218000D02*
X109474000Y-93218000D01*
D20*
X144780000Y-97536000D02*
X144272000Y-98044000D01*
X142240000Y-98806000D02*
X141732000Y-98806000D01*
X143002000Y-98044000D02*
X142240000Y-98806000D01*
X144272000Y-98044000D02*
X143002000Y-98044000D01*
D21*
X98552000Y-112776000D02*
X98552000Y-114554000D01*
X93726000Y-69596000D02*
X94742000Y-68580000D01*
X93726000Y-114046000D02*
X93726000Y-69596000D01*
X94742000Y-115062000D02*
X93726000Y-114046000D01*
X98044000Y-115062000D02*
X94742000Y-115062000D01*
X98552000Y-114554000D02*
X98044000Y-115062000D01*
D22*
X135128000Y-81534000D02*
X135128000Y-82042000D01*
X116840000Y-85090000D02*
X116840000Y-85852000D01*
X116840000Y-72136000D02*
X118110000Y-72136000D01*
X110617000Y-94869000D02*
X110744000Y-94996000D01*
X110744000Y-94996000D02*
X110744000Y-94742000D01*
X113030000Y-90678000D02*
X113538000Y-90170000D01*
X113538000Y-90170000D02*
X116840000Y-90170000D01*
X116840000Y-90678000D02*
X116586000Y-90678000D01*
X116586000Y-90678000D02*
X116840000Y-90678000D01*
D20*
X104902000Y-71120000D02*
X104902000Y-68580000D01*
D21*
X107188000Y-95758000D02*
X109728000Y-95758000D01*
X109728000Y-95758000D02*
X110490000Y-94996000D01*
X110490000Y-94996000D02*
X110744000Y-94742000D01*
X110617000Y-94869000D02*
X110998000Y-94488000D01*
X110998000Y-94488000D02*
X114808000Y-94488000D01*
X143510000Y-88138000D02*
X138176000Y-88138000D01*
X138176000Y-88138000D02*
X135128000Y-88138000D01*
X135128000Y-88138000D02*
X135382000Y-88138000D01*
X135382000Y-88138000D02*
X135128000Y-88138000D01*
X130810000Y-98806000D02*
X135128000Y-98806000D01*
X130556000Y-98552000D02*
X130810000Y-98806000D01*
X135128000Y-98806000D02*
X135128000Y-88138000D01*
X135128000Y-88138000D02*
X135128000Y-81534000D01*
X135128000Y-81534000D02*
X135128000Y-68580000D01*
X112268000Y-80518000D02*
X116840000Y-80518000D01*
X112014000Y-80772000D02*
X112268000Y-80518000D01*
X116840000Y-75438000D02*
X116840000Y-80518000D01*
X116840000Y-80518000D02*
X116840000Y-85090000D01*
X116840000Y-85090000D02*
X116840000Y-85598000D01*
X116840000Y-85598000D02*
X116840000Y-90170000D01*
X116840000Y-90170000D02*
X116840000Y-90678000D01*
X116840000Y-90678000D02*
X116840000Y-92456000D01*
X116840000Y-92456000D02*
X114808000Y-94488000D01*
X114808000Y-94488000D02*
X114046000Y-95250000D01*
X116840000Y-75438000D02*
X116840000Y-72136000D01*
X116840000Y-72136000D02*
X116840000Y-68580000D01*
X94742000Y-68580000D02*
X116840000Y-68580000D01*
X116840000Y-68580000D02*
X135128000Y-68580000D01*
X135128000Y-68580000D02*
X139700000Y-68580000D01*
X107188000Y-105918000D02*
X107188000Y-107188000D01*
X105958000Y-108418000D02*
X105958000Y-110998000D01*
X107188000Y-107188000D02*
X105958000Y-108418000D01*
X98552000Y-112776000D02*
X104180000Y-112776000D01*
X104180000Y-112776000D02*
X105958000Y-110998000D01*
D22*
X120650000Y-81534000D02*
X120650000Y-87122000D01*
X122174000Y-80010000D02*
X120650000Y-81534000D01*
D23*
X98552000Y-92456000D02*
X98552000Y-94996000D01*
X98552000Y-94996000D02*
X98552000Y-97536000D01*
X98552000Y-97536000D02*
X98552000Y-100076000D01*
X98552000Y-100076000D02*
X98552000Y-102616000D01*
X98552000Y-102616000D02*
X98552000Y-105156000D01*
X98552000Y-105156000D02*
X98552000Y-107696000D01*
X98552000Y-107696000D02*
X98552000Y-110236000D01*
X98552000Y-110236000D02*
X98552000Y-112776000D01*
D21*
X119634000Y-113284000D02*
X105918000Y-113284000D01*
X104140000Y-115062000D02*
X100330000Y-115062000D01*
X105918000Y-113284000D02*
X104140000Y-115062000D01*
D20*
X125222000Y-77724000D02*
X125222000Y-78486000D01*
X124714000Y-77216000D02*
X125222000Y-77724000D01*
X118110000Y-77216000D02*
X124714000Y-77216000D01*
D21*
X133858000Y-84074000D02*
X133858000Y-78486000D01*
D20*
X140462000Y-83312000D02*
X139446000Y-83312000D01*
X143510000Y-83312000D02*
X140462000Y-83312000D01*
X144272000Y-84074000D02*
X143510000Y-83312000D01*
D21*
X125222000Y-78486000D02*
X133858000Y-78486000D01*
X133858000Y-78486000D02*
X133604000Y-78486000D01*
X133604000Y-78486000D02*
X133858000Y-78486000D01*
X133858000Y-69850000D02*
X133858000Y-78486000D01*
X108966000Y-78232000D02*
X108966000Y-69850000D01*
X107188000Y-80010000D02*
X108966000Y-78232000D01*
D20*
X115570000Y-102362000D02*
X117348000Y-102362000D01*
X114808000Y-101600000D02*
X115570000Y-102362000D01*
D21*
X119634000Y-107442000D02*
X119634000Y-104648000D01*
X117348000Y-99822000D02*
X115570000Y-98044000D01*
X117348000Y-102362000D02*
X117348000Y-99822000D01*
X119634000Y-104648000D02*
X117348000Y-102362000D01*
D22*
X119634000Y-113284000D02*
X110998000Y-113284000D01*
X105156000Y-97028000D02*
X106426000Y-98298000D01*
X103124000Y-97028000D02*
X105156000Y-97028000D01*
X102616000Y-97536000D02*
X103124000Y-97028000D01*
X102616000Y-104140000D02*
X102616000Y-97536000D01*
X103124000Y-104648000D02*
X102616000Y-104140000D01*
X108966000Y-104648000D02*
X103124000Y-104648000D01*
X110236000Y-105918000D02*
X108966000Y-104648000D01*
X110236000Y-112522000D02*
X110236000Y-105918000D01*
X110998000Y-113284000D02*
X110236000Y-112522000D01*
X106426000Y-98298000D02*
X107188000Y-98298000D01*
D21*
X125476000Y-110236000D02*
X119634000Y-110236000D01*
X119634000Y-113284000D02*
X119634000Y-110236000D01*
X119634000Y-110236000D02*
X119634000Y-107442000D01*
D22*
X121412000Y-82042000D02*
X123444000Y-80010000D01*
X121412000Y-88392000D02*
X121412000Y-82042000D01*
X121158000Y-88646000D02*
X121412000Y-88392000D01*
X143510000Y-98806000D02*
X146050000Y-98806000D01*
X143002000Y-99314000D02*
X143510000Y-98806000D01*
X143002000Y-100330000D02*
X143002000Y-99314000D01*
X142494000Y-100838000D02*
X143002000Y-100330000D01*
X139954000Y-100838000D02*
X142494000Y-100838000D01*
X149352000Y-99060000D02*
X149606000Y-98806000D01*
X149606000Y-98806000D02*
X149606000Y-89662000D01*
X149606000Y-89662000D02*
X149606000Y-82042000D01*
X149606000Y-78486000D02*
X149098000Y-77978000D01*
X149606000Y-82042000D02*
X149606000Y-78486000D01*
X147320000Y-95504000D02*
X148082000Y-96266000D01*
X147320000Y-100838000D02*
X147066000Y-100838000D01*
X148082000Y-100076000D02*
X147320000Y-100838000D01*
X148082000Y-96266000D02*
X148082000Y-100076000D01*
X147320000Y-90424000D02*
X147574000Y-90678000D01*
X147574000Y-94742000D02*
X147320000Y-94996000D01*
X147574000Y-90678000D02*
X147574000Y-94742000D01*
X147320000Y-95504000D02*
X147320000Y-94996000D01*
X146304000Y-86106000D02*
X146050000Y-85852000D01*
X146304000Y-89408000D02*
X146304000Y-86106000D01*
X147320000Y-90424000D02*
X146304000Y-89408000D01*
X147066000Y-102870000D02*
X147066000Y-102616000D01*
X147066000Y-102616000D02*
X146812000Y-102362000D01*
X146812000Y-102362000D02*
X145796000Y-101346000D01*
X145796000Y-101346000D02*
X145796000Y-100330000D01*
X145796000Y-100330000D02*
X147066000Y-99060000D01*
X147066000Y-99060000D02*
X147066000Y-96774000D01*
X147066000Y-96774000D02*
X146050000Y-95758000D01*
X146050000Y-95758000D02*
X146050000Y-89916000D01*
X146050000Y-89916000D02*
X145796000Y-89662000D01*
X145796000Y-89662000D02*
X145796000Y-86868000D01*
X145796000Y-86868000D02*
X145288000Y-86360000D01*
X145288000Y-86360000D02*
X145288000Y-84836000D01*
X147066000Y-106172000D02*
X147066000Y-102870000D01*
X143002000Y-86360000D02*
X143002000Y-84074000D01*
X143764000Y-103124000D02*
X143764000Y-99568000D01*
X148082000Y-95250000D02*
X148082000Y-90424000D01*
X148082000Y-90424000D02*
X146812000Y-89154000D01*
X146812000Y-89154000D02*
X146812000Y-83820000D01*
X146812000Y-83820000D02*
X146304000Y-83312000D01*
X146304000Y-83312000D02*
X145796000Y-83312000D01*
X144526000Y-82550000D02*
X143002000Y-82550000D01*
X148844000Y-79756000D02*
X147828000Y-78740000D01*
X139446000Y-81534000D02*
X142240000Y-78740000D01*
X147828000Y-78740000D02*
X142240000Y-78740000D01*
X148844000Y-88900000D02*
X148844000Y-79756000D01*
X122936000Y-82296000D02*
X127508000Y-82296000D01*
X123444000Y-81534000D02*
X128016000Y-81534000D01*
X122428000Y-91186000D02*
X124460000Y-91186000D01*
X120904000Y-89662000D02*
X122428000Y-91186000D01*
X122682000Y-92202000D02*
X123952000Y-92202000D01*
X120904000Y-90424000D02*
X122682000Y-92202000D01*
X120396000Y-90424000D02*
X120904000Y-90424000D01*
X121920000Y-92964000D02*
X124460000Y-92964000D01*
X120396000Y-91440000D02*
X121920000Y-92964000D01*
X123190000Y-93726000D02*
X123190000Y-95250000D01*
X107188000Y-92329000D02*
X104013000Y-92329000D01*
X107188000Y-91567000D02*
X104013000Y-91567000D01*
X97282000Y-103886000D02*
X96012000Y-105156000D01*
X97282000Y-91440000D02*
X97282000Y-103886000D01*
X97536000Y-91186000D02*
X97282000Y-91440000D01*
X99568000Y-91186000D02*
X97536000Y-91186000D01*
X101600000Y-89154000D02*
X99568000Y-91186000D01*
X112522000Y-89154000D02*
X101600000Y-89154000D01*
X113030000Y-89662000D02*
X112522000Y-89154000D01*
X107188000Y-90805000D02*
X104013000Y-90805000D01*
X107188000Y-89916000D02*
X104013000Y-89916000D01*
X94742000Y-96266000D02*
X96012000Y-97536000D01*
X94742000Y-86868000D02*
X94742000Y-96266000D01*
X95504000Y-86106000D02*
X94742000Y-86868000D01*
X99568000Y-86106000D02*
X95504000Y-86106000D01*
X100076000Y-85598000D02*
X99568000Y-86106000D01*
X109982000Y-85598000D02*
X100076000Y-85598000D01*
X113030000Y-88646000D02*
X109982000Y-85598000D01*
X107188000Y-88519000D02*
X104013000Y-88519000D01*
X107188000Y-87757000D02*
X104013000Y-87757000D01*
X107188000Y-86995000D02*
X104013000Y-86995000D01*
X107188000Y-86233000D02*
X104013000Y-86233000D01*
X107188000Y-84836000D02*
X104013000Y-84836000D01*
X107188000Y-83947000D02*
X104013000Y-83947000D01*
X107188000Y-83185000D02*
X104013000Y-83185000D01*
X107188000Y-82296000D02*
X104013000Y-82296000D01*
X103124000Y-81280000D02*
X108712000Y-81280000D01*
X107188000Y-78105000D02*
X104013000Y-78105000D01*
X107188000Y-77343000D02*
X104013000Y-77343000D01*
X107188000Y-76581000D02*
X104013000Y-76581000D01*
X107188000Y-75692000D02*
X104013000Y-75692000D01*
X107188000Y-74295000D02*
X104013000Y-74295000D01*
X107188000Y-73533000D02*
X104013000Y-73533000D01*
X107188000Y-72771000D02*
X104013000Y-72771000D01*
X107188000Y-71882000D02*
X104013000Y-71882000D01*
X148082000Y-88646000D02*
X148082000Y-80264000D01*
X144526000Y-101600000D02*
X144526000Y-100076000D01*
X145288000Y-101854000D02*
X145288000Y-99568000D01*
X146304000Y-102870000D02*
X145288000Y-101854000D01*
X149606000Y-102108000D02*
X149606000Y-107188000D01*
X149098000Y-101600000D02*
X149606000Y-102108000D01*
X146812000Y-101600000D02*
X149098000Y-101600000D01*
X146304000Y-101092000D02*
X146812000Y-101600000D01*
X146304000Y-100584000D02*
X146304000Y-101092000D01*
X147631998Y-99256002D02*
X146304000Y-100584000D01*
X147631998Y-96577998D02*
X147631998Y-99256002D01*
X146812000Y-95758000D02*
X147631998Y-96577998D01*
X146812000Y-93218000D02*
X146812000Y-95758000D01*
X147320000Y-88900000D02*
X147320000Y-79756000D01*
X147574000Y-89154000D02*
X147320000Y-88900000D01*
X148844000Y-90424000D02*
X147574000Y-89154000D01*
X148844000Y-96012000D02*
X148844000Y-90424000D01*
X127508000Y-92964000D02*
X123894002Y-96577998D01*
X123894002Y-96577998D02*
X113087998Y-96577998D01*
X113087998Y-96577998D02*
X112014000Y-95504000D01*
X118872000Y-100330000D02*
X118872000Y-98806000D01*
X118110000Y-98044000D02*
X119634000Y-98044000D01*
X110490000Y-100330000D02*
X114808000Y-100330000D01*
X110236000Y-100076000D02*
X110490000Y-100330000D01*
X109728000Y-99568000D02*
X110236000Y-100076000D01*
X103378000Y-99568000D02*
X109728000Y-99568000D01*
X115570000Y-100330000D02*
X114808000Y-100330000D01*
X116332000Y-101092000D02*
X115570000Y-100330000D01*
X104648000Y-95758000D02*
X105918000Y-97028000D01*
X120650000Y-98298000D02*
X120142000Y-98806000D01*
X120650000Y-97536000D02*
X120650000Y-98298000D01*
X120142000Y-97028000D02*
X120650000Y-97536000D01*
X105918000Y-97028000D02*
X120142000Y-97028000D01*
X116332000Y-105410000D02*
X114808000Y-105410000D01*
X120142000Y-101346000D02*
X120142000Y-98806000D01*
X109728000Y-102870000D02*
X114808000Y-102870000D01*
X141224000Y-89408000D02*
X141732000Y-89916000D01*
X141732000Y-93980000D02*
X141732000Y-89916000D01*
X141224000Y-89408000D02*
X138176000Y-89408000D01*
X135128000Y-102870000D02*
X135128000Y-101092000D01*
X135128000Y-101092000D02*
X135382000Y-100838000D01*
X136652000Y-99568000D02*
X135382000Y-100838000D01*
X136652000Y-93980000D02*
X136652000Y-99568000D01*
X138430000Y-92202000D02*
X136652000Y-93980000D01*
X134112000Y-102870000D02*
X134112000Y-101346000D01*
X134112000Y-101346000D02*
X135128000Y-100330000D01*
X135382000Y-100076000D02*
X135128000Y-100330000D01*
X135128000Y-100330000D02*
X134112000Y-101346000D01*
X138430000Y-90932000D02*
X136144000Y-93218000D01*
X136144000Y-93218000D02*
X136144000Y-99314000D01*
X136144000Y-99314000D02*
X135382000Y-100076000D01*
X125730000Y-95758000D02*
X125730000Y-97028000D01*
X128524000Y-92964000D02*
X125730000Y-95758000D01*
D24*
G36*
X149566000Y-77060312D02*
X149303179Y-76951179D01*
X148894613Y-76950822D01*
X148517011Y-77106844D01*
X148227860Y-77395492D01*
X148071179Y-77772821D01*
X148071036Y-77936343D01*
X147828000Y-77888000D01*
X142240000Y-77888000D01*
X141913954Y-77952855D01*
X141637545Y-78137545D01*
X139268246Y-80506844D01*
X139242613Y-80506822D01*
X138865011Y-80662844D01*
X138575860Y-80951492D01*
X138419179Y-81328821D01*
X138418822Y-81737387D01*
X138574844Y-82114989D01*
X138813406Y-82353967D01*
X138808440Y-82356019D01*
X138491133Y-82672772D01*
X138387000Y-82923552D01*
X138387000Y-78486240D01*
X142599620Y-74273620D01*
X142865600Y-73875552D01*
X142959000Y-73406000D01*
X142873834Y-72977838D01*
X144230597Y-72977838D01*
X144584115Y-73833418D01*
X145238139Y-74488585D01*
X146093100Y-74843596D01*
X147018838Y-74844403D01*
X147874418Y-74490885D01*
X148529585Y-73836861D01*
X148884596Y-72981900D01*
X148885403Y-72056162D01*
X148531885Y-71200582D01*
X147877861Y-70545415D01*
X147022900Y-70190404D01*
X146097162Y-70189597D01*
X145241582Y-70543115D01*
X144586415Y-71197139D01*
X144231404Y-72052100D01*
X144230597Y-72977838D01*
X142873834Y-72977838D01*
X142865600Y-72936448D01*
X142599620Y-72538380D01*
X142201552Y-72272400D01*
X141732000Y-72179000D01*
X141262448Y-72272400D01*
X140864380Y-72538380D01*
X136292380Y-77110380D01*
X136026400Y-77508447D01*
X135933000Y-77978000D01*
X135933000Y-86360000D01*
X136026400Y-86829553D01*
X136292380Y-87227620D01*
X136690447Y-87493600D01*
X137160000Y-87587000D01*
X137629553Y-87493600D01*
X138027620Y-87227620D01*
X138293600Y-86829553D01*
X138387000Y-86360000D01*
X138387000Y-83700235D01*
X138490019Y-83949560D01*
X138806772Y-84266867D01*
X139220842Y-84438804D01*
X139669191Y-84439195D01*
X140083560Y-84267981D01*
X140112592Y-84239000D01*
X141974856Y-84239000D01*
X141974822Y-84277387D01*
X142130844Y-84654989D01*
X142150000Y-84674178D01*
X142150000Y-85759384D01*
X142131860Y-85777492D01*
X141975179Y-86154821D01*
X141974822Y-86563387D01*
X142130844Y-86940989D01*
X142419492Y-87230140D01*
X142796821Y-87386821D01*
X143205387Y-87387178D01*
X143582989Y-87231156D01*
X143872140Y-86942508D01*
X144028821Y-86565179D01*
X144029178Y-86156613D01*
X143873156Y-85779011D01*
X143854000Y-85759822D01*
X143854000Y-85120729D01*
X144046842Y-85200804D01*
X144327619Y-85201049D01*
X144416844Y-85416989D01*
X144436000Y-85436178D01*
X144436000Y-86360000D01*
X144500855Y-86686046D01*
X144685545Y-86962455D01*
X144944000Y-87220910D01*
X144944000Y-89662000D01*
X145008855Y-89988046D01*
X145193545Y-90264455D01*
X145198000Y-90268910D01*
X145198000Y-95758000D01*
X145262855Y-96084046D01*
X145447545Y-96360455D01*
X146214000Y-97126910D01*
X146214000Y-97779143D01*
X145846613Y-97778822D01*
X145469011Y-97934844D01*
X145449822Y-97954000D01*
X143510000Y-97954000D01*
X143183953Y-98018855D01*
X142907545Y-98203545D01*
X142399545Y-98711545D01*
X142214855Y-98987954D01*
X142150000Y-99314000D01*
X142150000Y-99977090D01*
X142141090Y-99986000D01*
X140554616Y-99986000D01*
X140536508Y-99967860D01*
X140442135Y-99928673D01*
X140845560Y-99761981D01*
X141162867Y-99445228D01*
X141334804Y-99031158D01*
X141335195Y-98582809D01*
X141163981Y-98168440D01*
X140847228Y-97851133D01*
X140433158Y-97679196D01*
X139984809Y-97678805D01*
X139570440Y-97850019D01*
X139253133Y-98166772D01*
X139232456Y-98216568D01*
X137484185Y-99964839D01*
X137444809Y-99964805D01*
X137371674Y-99995024D01*
X137439145Y-99894046D01*
X137504000Y-99568000D01*
X137504000Y-94332910D01*
X138607754Y-93229156D01*
X138633387Y-93229178D01*
X139010989Y-93073156D01*
X139300140Y-92784508D01*
X139456821Y-92407179D01*
X139457178Y-91998613D01*
X139301156Y-91621011D01*
X139247397Y-91567159D01*
X139300140Y-91514508D01*
X139456821Y-91137179D01*
X139457178Y-90728613D01*
X139301156Y-90351011D01*
X139210303Y-90260000D01*
X140871090Y-90260000D01*
X140880000Y-90268910D01*
X140880000Y-93379384D01*
X140861860Y-93397492D01*
X140705179Y-93774821D01*
X140704822Y-94183387D01*
X140860844Y-94560989D01*
X141149492Y-94850140D01*
X141526821Y-95006821D01*
X141935387Y-95007178D01*
X142312989Y-94851156D01*
X142602140Y-94562508D01*
X142758821Y-94185179D01*
X142759178Y-93776613D01*
X142603156Y-93399011D01*
X142584000Y-93379822D01*
X142584000Y-89916000D01*
X142573932Y-89865387D01*
X142519145Y-89589953D01*
X142334455Y-89313545D01*
X141826455Y-88805545D01*
X141550046Y-88620855D01*
X141224000Y-88556000D01*
X138776616Y-88556000D01*
X138758508Y-88537860D01*
X138381179Y-88381179D01*
X137972613Y-88380822D01*
X137595011Y-88536844D01*
X137305860Y-88825492D01*
X137149179Y-89202821D01*
X137148822Y-89611387D01*
X137304844Y-89988989D01*
X137593492Y-90278140D01*
X137620219Y-90289238D01*
X137559860Y-90349492D01*
X137403179Y-90726821D01*
X137403155Y-90753935D01*
X135541545Y-92615545D01*
X135356855Y-92891954D01*
X135292000Y-93218000D01*
X135292000Y-98961090D01*
X133509545Y-100743545D01*
X133324855Y-101019954D01*
X133260000Y-101346000D01*
X133260000Y-102269384D01*
X133241860Y-102287492D01*
X133085179Y-102664821D01*
X133084822Y-103073387D01*
X133240844Y-103450989D01*
X133529492Y-103740140D01*
X133906821Y-103896821D01*
X134315387Y-103897178D01*
X134620285Y-103771197D01*
X134922821Y-103896821D01*
X135331387Y-103897178D01*
X135708989Y-103741156D01*
X135998140Y-103452508D01*
X136154821Y-103075179D01*
X136155178Y-102666613D01*
X135999156Y-102289011D01*
X135980000Y-102269822D01*
X135980000Y-101444910D01*
X136541181Y-100883729D01*
X136540805Y-101315191D01*
X136712019Y-101729560D01*
X137028772Y-102046867D01*
X137442842Y-102218804D01*
X137891191Y-102219195D01*
X138305560Y-102047981D01*
X138622867Y-101731228D01*
X138794804Y-101317158D01*
X138794840Y-101276136D01*
X138956869Y-101114107D01*
X139082844Y-101418989D01*
X139371492Y-101708140D01*
X139748821Y-101864821D01*
X140157387Y-101865178D01*
X140534989Y-101709156D01*
X140554178Y-101690000D01*
X142494000Y-101690000D01*
X142820046Y-101625145D01*
X142912000Y-101563703D01*
X142912000Y-102523384D01*
X142893860Y-102541492D01*
X142737179Y-102918821D01*
X142736822Y-103327387D01*
X142892844Y-103704989D01*
X143181492Y-103994140D01*
X143558821Y-104150821D01*
X143967387Y-104151178D01*
X144344989Y-103995156D01*
X144634140Y-103706508D01*
X144790821Y-103329179D01*
X144791178Y-102920613D01*
X144669912Y-102627126D01*
X144729387Y-102627178D01*
X144819170Y-102590080D01*
X145276844Y-103047754D01*
X145276822Y-103073387D01*
X145432844Y-103450989D01*
X145721492Y-103740140D01*
X146098821Y-103896821D01*
X146214000Y-103896922D01*
X146214000Y-105571384D01*
X146195860Y-105589492D01*
X146039179Y-105966821D01*
X146038822Y-106375387D01*
X146194844Y-106752989D01*
X146483492Y-107042140D01*
X146860821Y-107198821D01*
X147269387Y-107199178D01*
X147646989Y-107043156D01*
X147936140Y-106754508D01*
X148092821Y-106377179D01*
X148093178Y-105968613D01*
X147937156Y-105591011D01*
X147918000Y-105571822D01*
X147918000Y-102616000D01*
X147885378Y-102452000D01*
X148745090Y-102452000D01*
X148754000Y-102460910D01*
X148754000Y-106587384D01*
X148735860Y-106605492D01*
X148579179Y-106982821D01*
X148578822Y-107391387D01*
X148734844Y-107768989D01*
X149023492Y-108058140D01*
X149400821Y-108214821D01*
X149566000Y-108214965D01*
X149566000Y-117054000D01*
X122679240Y-117054000D01*
X126750402Y-112982838D01*
X144230597Y-112982838D01*
X144584115Y-113838418D01*
X145238139Y-114493585D01*
X146093100Y-114848596D01*
X147018838Y-114849403D01*
X147874418Y-114495885D01*
X148529585Y-113841861D01*
X148884596Y-112986900D01*
X148885403Y-112061162D01*
X148531885Y-111205582D01*
X147877861Y-110550415D01*
X147022900Y-110195404D01*
X146097162Y-110194597D01*
X145241582Y-110548115D01*
X144586415Y-111202139D01*
X144231404Y-112057100D01*
X144230597Y-112982838D01*
X126750402Y-112982838D01*
X127636984Y-112096256D01*
X129757349Y-112096256D01*
X129846821Y-112355332D01*
X130429368Y-112569325D01*
X131049461Y-112544097D01*
X131505179Y-112355332D01*
X131594651Y-112096256D01*
X130676000Y-111177605D01*
X129757349Y-112096256D01*
X127636984Y-112096256D01*
X127867620Y-111865620D01*
X128062678Y-111573695D01*
X128133600Y-111467553D01*
X128227000Y-110998000D01*
X128227000Y-110751368D01*
X129104675Y-110751368D01*
X129129903Y-111371461D01*
X129318668Y-111827179D01*
X129577744Y-111916651D01*
X130496395Y-110998000D01*
X130855605Y-110998000D01*
X131763786Y-111906181D01*
X131774686Y-111932561D01*
X132238995Y-112397681D01*
X132845955Y-112649713D01*
X133503162Y-112650287D01*
X134110561Y-112399314D01*
X134426143Y-112084282D01*
X134738995Y-112397681D01*
X135345955Y-112649713D01*
X136003162Y-112650287D01*
X136610561Y-112399314D01*
X136661116Y-112348847D01*
X136719672Y-112439846D01*
X136962615Y-112605843D01*
X137251000Y-112664242D01*
X139101000Y-112664242D01*
X139370410Y-112613549D01*
X139617846Y-112454328D01*
X139783843Y-112211385D01*
X139842242Y-111923000D01*
X139842242Y-110073000D01*
X139791549Y-109803590D01*
X139632328Y-109556154D01*
X139389385Y-109390157D01*
X139101000Y-109331758D01*
X137251000Y-109331758D01*
X136981590Y-109382451D01*
X136734154Y-109541672D01*
X136661948Y-109647348D01*
X136613005Y-109598319D01*
X136006045Y-109346287D01*
X135348838Y-109345713D01*
X134741439Y-109596686D01*
X134425857Y-109911718D01*
X134113005Y-109598319D01*
X133506045Y-109346287D01*
X132848838Y-109345713D01*
X132241439Y-109596686D01*
X131776319Y-110060995D01*
X131764751Y-110088854D01*
X130855605Y-110998000D01*
X130496395Y-110998000D01*
X129577744Y-110079349D01*
X129318668Y-110168821D01*
X129104675Y-110751368D01*
X128227000Y-110751368D01*
X128227000Y-109899744D01*
X129757349Y-109899744D01*
X130676000Y-110818395D01*
X131594651Y-109899744D01*
X131505179Y-109640668D01*
X130922632Y-109426675D01*
X130302539Y-109451903D01*
X129846821Y-109640668D01*
X129757349Y-109899744D01*
X128227000Y-109899744D01*
X128227000Y-98509000D01*
X132842000Y-98509000D01*
X133311553Y-98415600D01*
X133709620Y-98149620D01*
X134725620Y-97133620D01*
X134879017Y-96904045D01*
X134991600Y-96735553D01*
X135085000Y-96266000D01*
X135085000Y-86360000D01*
X134991600Y-85890447D01*
X134725620Y-85492380D01*
X134327553Y-85226400D01*
X134280296Y-85217000D01*
X134327553Y-85207600D01*
X134725620Y-84941620D01*
X134991600Y-84543553D01*
X135085000Y-84074000D01*
X135085000Y-69850000D01*
X134991600Y-69380447D01*
X134725620Y-68982380D01*
X134327553Y-68716400D01*
X133858000Y-68623000D01*
X133388447Y-68716400D01*
X132990380Y-68982380D01*
X132724400Y-69380447D01*
X132631000Y-69850000D01*
X132631000Y-77259000D01*
X126004768Y-77259000D01*
X125877488Y-77068512D01*
X125465929Y-76656953D01*
X125575107Y-76584002D01*
X125730000Y-76352189D01*
X125884893Y-76584002D01*
X126396508Y-76925853D01*
X127000000Y-77045895D01*
X127603492Y-76925853D01*
X128115107Y-76584002D01*
X128270000Y-76352189D01*
X128424893Y-76584002D01*
X128936508Y-76925853D01*
X129540000Y-77045895D01*
X130143492Y-76925853D01*
X130655107Y-76584002D01*
X130996958Y-76072387D01*
X131117000Y-75468895D01*
X131117000Y-75407105D01*
X130996958Y-74803613D01*
X130655107Y-74291998D01*
X130143492Y-73950147D01*
X129540000Y-73830105D01*
X128936508Y-73950147D01*
X128424893Y-74291998D01*
X128270000Y-74523811D01*
X128115107Y-74291998D01*
X127603492Y-73950147D01*
X127000000Y-73830105D01*
X126396508Y-73950147D01*
X125884893Y-74291998D01*
X125730000Y-74523811D01*
X125575107Y-74291998D01*
X125063492Y-73950147D01*
X124460000Y-73830105D01*
X123856508Y-73950147D01*
X123344893Y-74291998D01*
X123190000Y-74523811D01*
X123035107Y-74291998D01*
X122523492Y-73950147D01*
X121920000Y-73830105D01*
X121316508Y-73950147D01*
X120804893Y-74291998D01*
X120650000Y-74523811D01*
X120495107Y-74291998D01*
X119983492Y-73950147D01*
X119380000Y-73830105D01*
X118776508Y-73950147D01*
X118264893Y-74291998D01*
X118258607Y-74301405D01*
X118228327Y-74228302D01*
X118049699Y-74049673D01*
X117816310Y-73953000D01*
X117125750Y-73953000D01*
X116967000Y-74111750D01*
X116967000Y-75311000D01*
X116987000Y-75311000D01*
X116987000Y-75565000D01*
X116967000Y-75565000D01*
X116967000Y-76764250D01*
X117121437Y-76918687D01*
X117083179Y-77010821D01*
X117082822Y-77419387D01*
X117238844Y-77796989D01*
X117527492Y-78086140D01*
X117904821Y-78242821D01*
X118313387Y-78243178D01*
X118555836Y-78143000D01*
X124063227Y-78143000D01*
X123995000Y-78486000D01*
X124088400Y-78955553D01*
X124354380Y-79353620D01*
X124752447Y-79619600D01*
X125222000Y-79713000D01*
X132631000Y-79713000D01*
X132631000Y-84074000D01*
X132724400Y-84543553D01*
X132990380Y-84941620D01*
X133388447Y-85207600D01*
X133435704Y-85217000D01*
X133388447Y-85226400D01*
X132990380Y-85492380D01*
X132724400Y-85890447D01*
X132631000Y-86360000D01*
X132631000Y-95757760D01*
X132333760Y-96055000D01*
X127000000Y-96055000D01*
X126582000Y-96138145D01*
X126582000Y-96110910D01*
X128701754Y-93991156D01*
X128727387Y-93991178D01*
X129104989Y-93835156D01*
X129394140Y-93546508D01*
X129550821Y-93169179D01*
X129551178Y-92760613D01*
X129395156Y-92383011D01*
X129106508Y-92093860D01*
X128729179Y-91937179D01*
X128320613Y-91936822D01*
X128015715Y-92062803D01*
X127713179Y-91937179D01*
X127304613Y-91936822D01*
X126927011Y-92092844D01*
X126637860Y-92381492D01*
X126481179Y-92758821D01*
X126481155Y-92785935D01*
X124217175Y-95049915D01*
X124217178Y-95046613D01*
X124061156Y-94669011D01*
X124042000Y-94649822D01*
X124042000Y-94326616D01*
X124060140Y-94308508D01*
X124201286Y-93968591D01*
X124254821Y-93990821D01*
X124663387Y-93991178D01*
X125040989Y-93835156D01*
X125330140Y-93546508D01*
X125486821Y-93169179D01*
X125487178Y-92760613D01*
X125331156Y-92383011D01*
X125042508Y-92093860D01*
X124997445Y-92075148D01*
X125040989Y-92057156D01*
X125330140Y-91768508D01*
X125486821Y-91391179D01*
X125487178Y-90982613D01*
X125331156Y-90605011D01*
X125042508Y-90315860D01*
X124665179Y-90159179D01*
X124256613Y-90158822D01*
X123879011Y-90314844D01*
X123859822Y-90334000D01*
X122780910Y-90334000D01*
X121931156Y-89484246D01*
X121931178Y-89458613D01*
X121892180Y-89364231D01*
X122028140Y-89228508D01*
X122184821Y-88851179D01*
X122184919Y-88739337D01*
X122199145Y-88718046D01*
X122264000Y-88392000D01*
X122264000Y-83076492D01*
X122353492Y-83166140D01*
X122730821Y-83322821D01*
X123139387Y-83323178D01*
X123516989Y-83167156D01*
X123536178Y-83148000D01*
X126907384Y-83148000D01*
X126925492Y-83166140D01*
X127302821Y-83322821D01*
X127711387Y-83323178D01*
X128088989Y-83167156D01*
X128378140Y-82878508D01*
X128534821Y-82501179D01*
X128534882Y-82430818D01*
X128596989Y-82405156D01*
X128886140Y-82116508D01*
X129042821Y-81739179D01*
X129043178Y-81330613D01*
X128887156Y-80953011D01*
X128598508Y-80663860D01*
X128221179Y-80507179D01*
X127812613Y-80506822D01*
X127435011Y-80662844D01*
X127415822Y-80682000D01*
X124224492Y-80682000D01*
X124314140Y-80592508D01*
X124470821Y-80215179D01*
X124471178Y-79806613D01*
X124315156Y-79429011D01*
X124026508Y-79139860D01*
X123649179Y-78983179D01*
X123240613Y-78982822D01*
X122863011Y-79138844D01*
X122573860Y-79427492D01*
X122417179Y-79804821D01*
X122417155Y-79831935D01*
X120809545Y-81439545D01*
X120624855Y-81715954D01*
X120560000Y-82042000D01*
X120560000Y-87791825D01*
X120287860Y-88063492D01*
X120131179Y-88440821D01*
X120130822Y-88849387D01*
X120169820Y-88943769D01*
X120033860Y-89079492D01*
X119877179Y-89456821D01*
X119877118Y-89527182D01*
X119815011Y-89552844D01*
X119525860Y-89841492D01*
X119369179Y-90218821D01*
X119368822Y-90627387D01*
X119494803Y-90932285D01*
X119369179Y-91234821D01*
X119368822Y-91643387D01*
X119524844Y-92020989D01*
X119813492Y-92310140D01*
X120190821Y-92466821D01*
X120217935Y-92466845D01*
X121317545Y-93566455D01*
X121593953Y-93751145D01*
X121920000Y-93816000D01*
X122162921Y-93816000D01*
X122162822Y-93929387D01*
X122318844Y-94306989D01*
X122338000Y-94326178D01*
X122338000Y-94649384D01*
X122319860Y-94667492D01*
X122163179Y-95044821D01*
X122162822Y-95453387D01*
X122275463Y-95725998D01*
X113440908Y-95725998D01*
X113041156Y-95326246D01*
X113041178Y-95300613D01*
X112885156Y-94923011D01*
X112596508Y-94633860D01*
X112219179Y-94477179D01*
X111810613Y-94476822D01*
X111433011Y-94632844D01*
X111143860Y-94921492D01*
X110987179Y-95298821D01*
X110986822Y-95707387D01*
X111142844Y-96084989D01*
X111233697Y-96176000D01*
X108604165Y-96176000D01*
X108629476Y-96114890D01*
X108508155Y-95885000D01*
X107315000Y-95885000D01*
X107315000Y-95905000D01*
X107061000Y-95905000D01*
X107061000Y-95885000D01*
X107041000Y-95885000D01*
X107041000Y-95631000D01*
X107061000Y-95631000D01*
X107061000Y-95611000D01*
X107315000Y-95611000D01*
X107315000Y-95631000D01*
X108508155Y-95631000D01*
X108629476Y-95401110D01*
X108459645Y-94991076D01*
X108424945Y-94953000D01*
X108712000Y-94953000D01*
X109181553Y-94859600D01*
X109579620Y-94593620D01*
X109791369Y-94381871D01*
X109943553Y-94351600D01*
X110341620Y-94085620D01*
X110357240Y-94070000D01*
X111667384Y-94070000D01*
X111685492Y-94088140D01*
X112062821Y-94244821D01*
X112471387Y-94245178D01*
X112848989Y-94089156D01*
X113138140Y-93800508D01*
X113292404Y-93429000D01*
X114046000Y-93429000D01*
X114515553Y-93335600D01*
X114913620Y-93069620D01*
X115929620Y-92053620D01*
X116195600Y-91655552D01*
X116289000Y-91186000D01*
X116195600Y-90716448D01*
X115929620Y-90318380D01*
X115707554Y-90170000D01*
X115929620Y-90021620D01*
X116195601Y-89623552D01*
X116289000Y-89154000D01*
X116195601Y-88684448D01*
X115929620Y-88286380D01*
X111463000Y-83819760D01*
X111463000Y-75723750D01*
X115355000Y-75723750D01*
X115355000Y-76414309D01*
X115451673Y-76647698D01*
X115630301Y-76826327D01*
X115863690Y-76923000D01*
X116554250Y-76923000D01*
X116713000Y-76764250D01*
X116713000Y-75565000D01*
X115513750Y-75565000D01*
X115355000Y-75723750D01*
X111463000Y-75723750D01*
X111463000Y-74461691D01*
X115355000Y-74461691D01*
X115355000Y-75152250D01*
X115513750Y-75311000D01*
X116713000Y-75311000D01*
X116713000Y-74111750D01*
X116554250Y-73953000D01*
X115863690Y-73953000D01*
X115630301Y-74049673D01*
X115451673Y-74228302D01*
X115355000Y-74461691D01*
X111463000Y-74461691D01*
X111463000Y-70866000D01*
X111369600Y-70396447D01*
X111103620Y-69998380D01*
X110705553Y-69732400D01*
X110236000Y-69639000D01*
X110154263Y-69655258D01*
X110099600Y-69380447D01*
X109833620Y-68982380D01*
X109435553Y-68716400D01*
X108966000Y-68623000D01*
X108496447Y-68716400D01*
X108098380Y-68982380D01*
X107832400Y-69380447D01*
X107739000Y-69850000D01*
X107739000Y-71052914D01*
X107383190Y-70905170D01*
X106994515Y-70904830D01*
X106691581Y-71030000D01*
X104508816Y-71030000D01*
X104208190Y-70905170D01*
X103819515Y-70904830D01*
X103460297Y-71053256D01*
X103185222Y-71327851D01*
X103036170Y-71686810D01*
X103035830Y-72075485D01*
X103139620Y-72326675D01*
X103036170Y-72575810D01*
X103035830Y-72964485D01*
X103113317Y-73152018D01*
X103036170Y-73337810D01*
X103035830Y-73726485D01*
X103113317Y-73914018D01*
X103036170Y-74099810D01*
X103035830Y-74488485D01*
X103184256Y-74847703D01*
X103329812Y-74993513D01*
X103185222Y-75137851D01*
X103036170Y-75496810D01*
X103035830Y-75885485D01*
X103139620Y-76136675D01*
X103036170Y-76385810D01*
X103035830Y-76774485D01*
X103113317Y-76962018D01*
X103036170Y-77147810D01*
X103035830Y-77536485D01*
X103113317Y-77724018D01*
X103036170Y-77909810D01*
X103035830Y-78298485D01*
X103184256Y-78657703D01*
X103458851Y-78932778D01*
X103817810Y-79081830D01*
X104206485Y-79082170D01*
X104509419Y-78957000D01*
X106505760Y-78957000D01*
X106320380Y-79142380D01*
X106054400Y-79540448D01*
X105961000Y-80010000D01*
X106044146Y-80428000D01*
X103724616Y-80428000D01*
X103706508Y-80409860D01*
X103329179Y-80253179D01*
X102920613Y-80252822D01*
X102543011Y-80408844D01*
X102253860Y-80697492D01*
X102097179Y-81074821D01*
X102096822Y-81483387D01*
X102252844Y-81860989D01*
X102541492Y-82150140D01*
X102918821Y-82306821D01*
X103035990Y-82306923D01*
X103035830Y-82489485D01*
X103139620Y-82740675D01*
X103036170Y-82989810D01*
X103035830Y-83378485D01*
X103113317Y-83566018D01*
X103036170Y-83751810D01*
X103035830Y-84140485D01*
X103139620Y-84391675D01*
X103036170Y-84640810D01*
X103036078Y-84746000D01*
X100129079Y-84746000D01*
X100129273Y-84523692D01*
X99889695Y-83943868D01*
X99512216Y-83565730D01*
X99888136Y-83190465D01*
X100128725Y-82611061D01*
X100129273Y-81983692D01*
X99889695Y-81403868D01*
X99512216Y-81025730D01*
X99888136Y-80650465D01*
X100128725Y-80071061D01*
X100129273Y-79443692D01*
X99889695Y-78863868D01*
X99512216Y-78485730D01*
X99888136Y-78110465D01*
X100128725Y-77531061D01*
X100129273Y-76903692D01*
X99889695Y-76323868D01*
X99512216Y-75945730D01*
X99888136Y-75570465D01*
X100128725Y-74991061D01*
X100129273Y-74363692D01*
X99889695Y-73783868D01*
X99512216Y-73405730D01*
X99888136Y-73030465D01*
X100128725Y-72451061D01*
X100129273Y-71823692D01*
X99889695Y-71243868D01*
X99446465Y-70799864D01*
X98867061Y-70559275D01*
X98239692Y-70558727D01*
X97659868Y-70798305D01*
X97281730Y-71175784D01*
X96906465Y-70799864D01*
X96327061Y-70559275D01*
X95699692Y-70558727D01*
X95119868Y-70798305D01*
X94675864Y-71241535D01*
X94435275Y-71820939D01*
X94434727Y-72448308D01*
X94674305Y-73028132D01*
X95051784Y-73406270D01*
X94675864Y-73781535D01*
X94435275Y-74360939D01*
X94434727Y-74988308D01*
X94674305Y-75568132D01*
X95051784Y-75946270D01*
X94675864Y-76321535D01*
X94435275Y-76900939D01*
X94434727Y-77528308D01*
X94674305Y-78108132D01*
X95051784Y-78486270D01*
X94675864Y-78861535D01*
X94435275Y-79440939D01*
X94434727Y-80068308D01*
X94674305Y-80648132D01*
X95051784Y-81026270D01*
X94675864Y-81401535D01*
X94435275Y-81980939D01*
X94434727Y-82608308D01*
X94674305Y-83188132D01*
X95051784Y-83566270D01*
X94675864Y-83941535D01*
X94435275Y-84520939D01*
X94434727Y-85148308D01*
X94674305Y-85728132D01*
X94675630Y-85729460D01*
X94139545Y-86265545D01*
X93954855Y-86541954D01*
X93890000Y-86868000D01*
X93890000Y-96266000D01*
X93954855Y-96592046D01*
X94139545Y-96868455D01*
X94451927Y-97180837D01*
X94435275Y-97220939D01*
X94434727Y-97848308D01*
X94674305Y-98428132D01*
X95051784Y-98806270D01*
X94675864Y-99181535D01*
X94435275Y-99760939D01*
X94434727Y-100388308D01*
X94674305Y-100968132D01*
X95051784Y-101346270D01*
X94675864Y-101721535D01*
X94435275Y-102300939D01*
X94434727Y-102928308D01*
X94674305Y-103508132D01*
X95051784Y-103886270D01*
X94675864Y-104261535D01*
X94435275Y-104840939D01*
X94434727Y-105468308D01*
X94674305Y-106048132D01*
X95051784Y-106426270D01*
X94675864Y-106801535D01*
X94435275Y-107380939D01*
X94434727Y-108008308D01*
X94674305Y-108588132D01*
X95051784Y-108966270D01*
X94675864Y-109341535D01*
X94435275Y-109920939D01*
X94434727Y-110548308D01*
X94674305Y-111128132D01*
X95051784Y-111506270D01*
X94675864Y-111881535D01*
X94435275Y-112460939D01*
X94434727Y-113088308D01*
X94674305Y-113668132D01*
X95117535Y-114112136D01*
X95696939Y-114352725D01*
X96324308Y-114353273D01*
X96904132Y-114113695D01*
X97125258Y-113892955D01*
X97163673Y-113985698D01*
X97342301Y-114164327D01*
X97575690Y-114261000D01*
X98266250Y-114261000D01*
X98425000Y-114102250D01*
X98425000Y-112903000D01*
X98405000Y-112903000D01*
X98405000Y-112649000D01*
X98425000Y-112649000D01*
X98425000Y-112629000D01*
X98679000Y-112629000D01*
X98679000Y-112649000D01*
X99878250Y-112649000D01*
X100037000Y-112490250D01*
X100037000Y-111799691D01*
X99940327Y-111566302D01*
X99761699Y-111387673D01*
X99528310Y-111291000D01*
X99412826Y-111291000D01*
X99416353Y-111279958D01*
X98552000Y-110415605D01*
X97687647Y-111279958D01*
X97691174Y-111291000D01*
X97575690Y-111291000D01*
X97342301Y-111387673D01*
X97163673Y-111566302D01*
X97125259Y-111659040D01*
X96972216Y-111505730D01*
X97348136Y-111130465D01*
X97377901Y-111058782D01*
X97508042Y-111100353D01*
X98372395Y-110236000D01*
X98731605Y-110236000D01*
X99595958Y-111100353D01*
X99847259Y-111020080D01*
X100048718Y-110464721D01*
X100022315Y-109874542D01*
X99847259Y-109451920D01*
X99595958Y-109371647D01*
X98731605Y-110236000D01*
X98372395Y-110236000D01*
X97508042Y-109371647D01*
X97378297Y-109413091D01*
X97349695Y-109343868D01*
X96972216Y-108965730D01*
X97198382Y-108739958D01*
X97687647Y-108739958D01*
X97759852Y-108966000D01*
X97687647Y-109192042D01*
X98552000Y-110056395D01*
X99416353Y-109192042D01*
X99344148Y-108966000D01*
X99416353Y-108739958D01*
X98552000Y-107875605D01*
X97687647Y-108739958D01*
X97198382Y-108739958D01*
X97348136Y-108590465D01*
X97377901Y-108518782D01*
X97508042Y-108560353D01*
X98372395Y-107696000D01*
X98731605Y-107696000D01*
X99595958Y-108560353D01*
X99847259Y-108480080D01*
X100048718Y-107924721D01*
X100022315Y-107334542D01*
X99847259Y-106911920D01*
X99595958Y-106831647D01*
X98731605Y-107696000D01*
X98372395Y-107696000D01*
X97508042Y-106831647D01*
X97378297Y-106873091D01*
X97349695Y-106803868D01*
X96972216Y-106425730D01*
X97198382Y-106199958D01*
X97687647Y-106199958D01*
X97759852Y-106426000D01*
X97687647Y-106652042D01*
X98552000Y-107516395D01*
X99416353Y-106652042D01*
X99344148Y-106426000D01*
X99416353Y-106199958D01*
X98552000Y-105335605D01*
X97687647Y-106199958D01*
X97198382Y-106199958D01*
X97348136Y-106050465D01*
X97377901Y-105978782D01*
X97508042Y-106020353D01*
X98372395Y-105156000D01*
X98731605Y-105156000D01*
X99595958Y-106020353D01*
X99847259Y-105940080D01*
X100048718Y-105384721D01*
X100022315Y-104794542D01*
X99847259Y-104371920D01*
X99595958Y-104291647D01*
X98731605Y-105156000D01*
X98372395Y-105156000D01*
X98358253Y-105141858D01*
X98537858Y-104962253D01*
X98552000Y-104976395D01*
X99416353Y-104112042D01*
X99344148Y-103886000D01*
X99416353Y-103659958D01*
X98552000Y-102795605D01*
X98537858Y-102809748D01*
X98358253Y-102630143D01*
X98372395Y-102616000D01*
X98731605Y-102616000D01*
X99595958Y-103480353D01*
X99847259Y-103400080D01*
X100048718Y-102844721D01*
X100022315Y-102254542D01*
X99847259Y-101831920D01*
X99595958Y-101751647D01*
X98731605Y-102616000D01*
X98372395Y-102616000D01*
X98358253Y-102601858D01*
X98537858Y-102422253D01*
X98552000Y-102436395D01*
X99416353Y-101572042D01*
X99344148Y-101346000D01*
X99416353Y-101119958D01*
X98552000Y-100255605D01*
X98537858Y-100269748D01*
X98358253Y-100090143D01*
X98372395Y-100076000D01*
X98731605Y-100076000D01*
X99595958Y-100940353D01*
X99847259Y-100860080D01*
X100048718Y-100304721D01*
X100022315Y-99714542D01*
X99847259Y-99291920D01*
X99595958Y-99211647D01*
X98731605Y-100076000D01*
X98372395Y-100076000D01*
X98358253Y-100061858D01*
X98537858Y-99882253D01*
X98552000Y-99896395D01*
X99416353Y-99032042D01*
X99344148Y-98806000D01*
X99416353Y-98579958D01*
X98552000Y-97715605D01*
X98537858Y-97729748D01*
X98358253Y-97550143D01*
X98372395Y-97536000D01*
X98731605Y-97536000D01*
X99595958Y-98400353D01*
X99847259Y-98320080D01*
X100048718Y-97764721D01*
X100022315Y-97174542D01*
X99847259Y-96751920D01*
X99595958Y-96671647D01*
X98731605Y-97536000D01*
X98372395Y-97536000D01*
X98358253Y-97521858D01*
X98537858Y-97342253D01*
X98552000Y-97356395D01*
X99416353Y-96492042D01*
X99344148Y-96266000D01*
X99416353Y-96039958D01*
X98552000Y-95175605D01*
X98537858Y-95189748D01*
X98358253Y-95010143D01*
X98372395Y-94996000D01*
X98731605Y-94996000D01*
X99595958Y-95860353D01*
X99847259Y-95780080D01*
X100048718Y-95224721D01*
X100022315Y-94634542D01*
X99847259Y-94211920D01*
X99595958Y-94131647D01*
X98731605Y-94996000D01*
X98372395Y-94996000D01*
X98358253Y-94981858D01*
X98537858Y-94802253D01*
X98552000Y-94816395D01*
X99416353Y-93952042D01*
X99344148Y-93726000D01*
X99416353Y-93499958D01*
X98552000Y-92635605D01*
X98537858Y-92649748D01*
X98358253Y-92470143D01*
X98372395Y-92456000D01*
X98358253Y-92441858D01*
X98537858Y-92262253D01*
X98552000Y-92276395D01*
X98566143Y-92262253D01*
X98745748Y-92441858D01*
X98731605Y-92456000D01*
X99595958Y-93320353D01*
X99847259Y-93240080D01*
X100048718Y-92684721D01*
X100022315Y-92094542D01*
X99955126Y-91932333D01*
X100170455Y-91788455D01*
X101952910Y-90006000D01*
X103035921Y-90006000D01*
X103035830Y-90109485D01*
X103139620Y-90360675D01*
X103036170Y-90609810D01*
X103035830Y-90998485D01*
X103113317Y-91186018D01*
X103036170Y-91371810D01*
X103035830Y-91760485D01*
X103113317Y-91948018D01*
X103036170Y-92133810D01*
X103035851Y-92499000D01*
X102108000Y-92499000D01*
X101638447Y-92592400D01*
X101301624Y-92817458D01*
X101240380Y-92858380D01*
X100732380Y-93366380D01*
X100466400Y-93764447D01*
X100373000Y-94234000D01*
X100373000Y-110744000D01*
X100466400Y-111213553D01*
X100732380Y-111611620D01*
X101130447Y-111877600D01*
X101600000Y-111971000D01*
X102069553Y-111877600D01*
X102467620Y-111611620D01*
X102733600Y-111213553D01*
X102825534Y-110751368D01*
X104386675Y-110751368D01*
X104411903Y-111371461D01*
X104600668Y-111827179D01*
X104859744Y-111916651D01*
X105778395Y-110998000D01*
X104859744Y-110079349D01*
X104600668Y-110168821D01*
X104386675Y-110751368D01*
X102825534Y-110751368D01*
X102827000Y-110744000D01*
X102827000Y-105440923D01*
X103123279Y-105499857D01*
X103040105Y-105918000D01*
X103160147Y-106521492D01*
X103501998Y-107033107D01*
X104013613Y-107374958D01*
X104617105Y-107495000D01*
X104678895Y-107495000D01*
X105282387Y-107374958D01*
X105794002Y-107033107D01*
X105979993Y-106754753D01*
X106306642Y-107113183D01*
X106831108Y-107359486D01*
X107061000Y-107238819D01*
X107061000Y-106045000D01*
X107315000Y-106045000D01*
X107315000Y-107238819D01*
X107544892Y-107359486D01*
X108069358Y-107113183D01*
X108459645Y-106684924D01*
X108629476Y-106274890D01*
X108508155Y-106045000D01*
X107315000Y-106045000D01*
X107061000Y-106045000D01*
X107041000Y-106045000D01*
X107041000Y-105791000D01*
X107061000Y-105791000D01*
X107061000Y-105771000D01*
X107315000Y-105771000D01*
X107315000Y-105791000D01*
X108508155Y-105791000D01*
X108629476Y-105561110D01*
X108604165Y-105500000D01*
X108613090Y-105500000D01*
X109384000Y-106270910D01*
X109384000Y-109331961D01*
X109383000Y-109331758D01*
X107533000Y-109331758D01*
X107263590Y-109382451D01*
X107016154Y-109541672D01*
X106850157Y-109784615D01*
X106845254Y-109808829D01*
X106787179Y-109640668D01*
X106204632Y-109426675D01*
X105584539Y-109451903D01*
X105128821Y-109640668D01*
X105039349Y-109899744D01*
X105958000Y-110818395D01*
X105972143Y-110804253D01*
X106151748Y-110983858D01*
X106137605Y-110998000D01*
X106151748Y-111012143D01*
X105972143Y-111191748D01*
X105958000Y-111177605D01*
X105039349Y-112096256D01*
X105128821Y-112355332D01*
X105137160Y-112358395D01*
X105050380Y-112416380D01*
X103631760Y-113835000D01*
X100330000Y-113835000D01*
X99973364Y-113905939D01*
X100037000Y-113752309D01*
X100037000Y-113061750D01*
X99878250Y-112903000D01*
X98679000Y-112903000D01*
X98679000Y-114102250D01*
X98837750Y-114261000D01*
X99417866Y-114261000D01*
X99196400Y-114592447D01*
X99103000Y-115062000D01*
X99196400Y-115531553D01*
X99462380Y-115929620D01*
X99860447Y-116195600D01*
X100330000Y-116289000D01*
X103937553Y-116289000D01*
X103929000Y-116332000D01*
X104022400Y-116801553D01*
X104191080Y-117054000D01*
X85638000Y-117054000D01*
X85638000Y-112982838D01*
X86445597Y-112982838D01*
X86799115Y-113838418D01*
X87453139Y-114493585D01*
X88308100Y-114848596D01*
X89233838Y-114849403D01*
X90089418Y-114495885D01*
X90744585Y-113841861D01*
X91099596Y-112986900D01*
X91100403Y-112061162D01*
X90746885Y-111205582D01*
X90092861Y-110550415D01*
X89237900Y-110195404D01*
X88312162Y-110194597D01*
X87456582Y-110548115D01*
X86801415Y-111202139D01*
X86446404Y-112057100D01*
X86445597Y-112982838D01*
X85638000Y-112982838D01*
X85638000Y-72977838D01*
X86445597Y-72977838D01*
X86799115Y-73833418D01*
X87453139Y-74488585D01*
X88308100Y-74843596D01*
X89233838Y-74844403D01*
X90089418Y-74490885D01*
X90744585Y-73836861D01*
X91099596Y-72981900D01*
X91100403Y-72056162D01*
X90746885Y-71200582D01*
X90092861Y-70545415D01*
X89237900Y-70190404D01*
X88312162Y-70189597D01*
X87456582Y-70543115D01*
X86801415Y-71197139D01*
X86446404Y-72052100D01*
X86445597Y-72977838D01*
X85638000Y-72977838D01*
X85638000Y-67858000D01*
X149566000Y-67858000D01*
X149566000Y-77060312D01*
X149566000Y-77060312D01*
G37*
X149566000Y-77060312D02*
X149303179Y-76951179D01*
X148894613Y-76950822D01*
X148517011Y-77106844D01*
X148227860Y-77395492D01*
X148071179Y-77772821D01*
X148071036Y-77936343D01*
X147828000Y-77888000D01*
X142240000Y-77888000D01*
X141913954Y-77952855D01*
X141637545Y-78137545D01*
X139268246Y-80506844D01*
X139242613Y-80506822D01*
X138865011Y-80662844D01*
X138575860Y-80951492D01*
X138419179Y-81328821D01*
X138418822Y-81737387D01*
X138574844Y-82114989D01*
X138813406Y-82353967D01*
X138808440Y-82356019D01*
X138491133Y-82672772D01*
X138387000Y-82923552D01*
X138387000Y-78486240D01*
X142599620Y-74273620D01*
X142865600Y-73875552D01*
X142959000Y-73406000D01*
X142873834Y-72977838D01*
X144230597Y-72977838D01*
X144584115Y-73833418D01*
X145238139Y-74488585D01*
X146093100Y-74843596D01*
X147018838Y-74844403D01*
X147874418Y-74490885D01*
X148529585Y-73836861D01*
X148884596Y-72981900D01*
X148885403Y-72056162D01*
X148531885Y-71200582D01*
X147877861Y-70545415D01*
X147022900Y-70190404D01*
X146097162Y-70189597D01*
X145241582Y-70543115D01*
X144586415Y-71197139D01*
X144231404Y-72052100D01*
X144230597Y-72977838D01*
X142873834Y-72977838D01*
X142865600Y-72936448D01*
X142599620Y-72538380D01*
X142201552Y-72272400D01*
X141732000Y-72179000D01*
X141262448Y-72272400D01*
X140864380Y-72538380D01*
X136292380Y-77110380D01*
X136026400Y-77508447D01*
X135933000Y-77978000D01*
X135933000Y-86360000D01*
X136026400Y-86829553D01*
X136292380Y-87227620D01*
X136690447Y-87493600D01*
X137160000Y-87587000D01*
X137629553Y-87493600D01*
X138027620Y-87227620D01*
X138293600Y-86829553D01*
X138387000Y-86360000D01*
X138387000Y-83700235D01*
X138490019Y-83949560D01*
X138806772Y-84266867D01*
X139220842Y-84438804D01*
X139669191Y-84439195D01*
X140083560Y-84267981D01*
X140112592Y-84239000D01*
X141974856Y-84239000D01*
X141974822Y-84277387D01*
X142130844Y-84654989D01*
X142150000Y-84674178D01*
X142150000Y-85759384D01*
X142131860Y-85777492D01*
X141975179Y-86154821D01*
X141974822Y-86563387D01*
X142130844Y-86940989D01*
X142419492Y-87230140D01*
X142796821Y-87386821D01*
X143205387Y-87387178D01*
X143582989Y-87231156D01*
X143872140Y-86942508D01*
X144028821Y-86565179D01*
X144029178Y-86156613D01*
X143873156Y-85779011D01*
X143854000Y-85759822D01*
X143854000Y-85120729D01*
X144046842Y-85200804D01*
X144327619Y-85201049D01*
X144416844Y-85416989D01*
X144436000Y-85436178D01*
X144436000Y-86360000D01*
X144500855Y-86686046D01*
X144685545Y-86962455D01*
X144944000Y-87220910D01*
X144944000Y-89662000D01*
X145008855Y-89988046D01*
X145193545Y-90264455D01*
X145198000Y-90268910D01*
X145198000Y-95758000D01*
X145262855Y-96084046D01*
X145447545Y-96360455D01*
X146214000Y-97126910D01*
X146214000Y-97779143D01*
X145846613Y-97778822D01*
X145469011Y-97934844D01*
X145449822Y-97954000D01*
X143510000Y-97954000D01*
X143183953Y-98018855D01*
X142907545Y-98203545D01*
X142399545Y-98711545D01*
X142214855Y-98987954D01*
X142150000Y-99314000D01*
X142150000Y-99977090D01*
X142141090Y-99986000D01*
X140554616Y-99986000D01*
X140536508Y-99967860D01*
X140442135Y-99928673D01*
X140845560Y-99761981D01*
X141162867Y-99445228D01*
X141334804Y-99031158D01*
X141335195Y-98582809D01*
X141163981Y-98168440D01*
X140847228Y-97851133D01*
X140433158Y-97679196D01*
X139984809Y-97678805D01*
X139570440Y-97850019D01*
X139253133Y-98166772D01*
X139232456Y-98216568D01*
X137484185Y-99964839D01*
X137444809Y-99964805D01*
X137371674Y-99995024D01*
X137439145Y-99894046D01*
X137504000Y-99568000D01*
X137504000Y-94332910D01*
X138607754Y-93229156D01*
X138633387Y-93229178D01*
X139010989Y-93073156D01*
X139300140Y-92784508D01*
X139456821Y-92407179D01*
X139457178Y-91998613D01*
X139301156Y-91621011D01*
X139247397Y-91567159D01*
X139300140Y-91514508D01*
X139456821Y-91137179D01*
X139457178Y-90728613D01*
X139301156Y-90351011D01*
X139210303Y-90260000D01*
X140871090Y-90260000D01*
X140880000Y-90268910D01*
X140880000Y-93379384D01*
X140861860Y-93397492D01*
X140705179Y-93774821D01*
X140704822Y-94183387D01*
X140860844Y-94560989D01*
X141149492Y-94850140D01*
X141526821Y-95006821D01*
X141935387Y-95007178D01*
X142312989Y-94851156D01*
X142602140Y-94562508D01*
X142758821Y-94185179D01*
X142759178Y-93776613D01*
X142603156Y-93399011D01*
X142584000Y-93379822D01*
X142584000Y-89916000D01*
X142573932Y-89865387D01*
X142519145Y-89589953D01*
X142334455Y-89313545D01*
X141826455Y-88805545D01*
X141550046Y-88620855D01*
X141224000Y-88556000D01*
X138776616Y-88556000D01*
X138758508Y-88537860D01*
X138381179Y-88381179D01*
X137972613Y-88380822D01*
X137595011Y-88536844D01*
X137305860Y-88825492D01*
X137149179Y-89202821D01*
X137148822Y-89611387D01*
X137304844Y-89988989D01*
X137593492Y-90278140D01*
X137620219Y-90289238D01*
X137559860Y-90349492D01*
X137403179Y-90726821D01*
X137403155Y-90753935D01*
X135541545Y-92615545D01*
X135356855Y-92891954D01*
X135292000Y-93218000D01*
X135292000Y-98961090D01*
X133509545Y-100743545D01*
X133324855Y-101019954D01*
X133260000Y-101346000D01*
X133260000Y-102269384D01*
X133241860Y-102287492D01*
X133085179Y-102664821D01*
X133084822Y-103073387D01*
X133240844Y-103450989D01*
X133529492Y-103740140D01*
X133906821Y-103896821D01*
X134315387Y-103897178D01*
X134620285Y-103771197D01*
X134922821Y-103896821D01*
X135331387Y-103897178D01*
X135708989Y-103741156D01*
X135998140Y-103452508D01*
X136154821Y-103075179D01*
X136155178Y-102666613D01*
X135999156Y-102289011D01*
X135980000Y-102269822D01*
X135980000Y-101444910D01*
X136541181Y-100883729D01*
X136540805Y-101315191D01*
X136712019Y-101729560D01*
X137028772Y-102046867D01*
X137442842Y-102218804D01*
X137891191Y-102219195D01*
X138305560Y-102047981D01*
X138622867Y-101731228D01*
X138794804Y-101317158D01*
X138794840Y-101276136D01*
X138956869Y-101114107D01*
X139082844Y-101418989D01*
X139371492Y-101708140D01*
X139748821Y-101864821D01*
X140157387Y-101865178D01*
X140534989Y-101709156D01*
X140554178Y-101690000D01*
X142494000Y-101690000D01*
X142820046Y-101625145D01*
X142912000Y-101563703D01*
X142912000Y-102523384D01*
X142893860Y-102541492D01*
X142737179Y-102918821D01*
X142736822Y-103327387D01*
X142892844Y-103704989D01*
X143181492Y-103994140D01*
X143558821Y-104150821D01*
X143967387Y-104151178D01*
X144344989Y-103995156D01*
X144634140Y-103706508D01*
X144790821Y-103329179D01*
X144791178Y-102920613D01*
X144669912Y-102627126D01*
X144729387Y-102627178D01*
X144819170Y-102590080D01*
X145276844Y-103047754D01*
X145276822Y-103073387D01*
X145432844Y-103450989D01*
X145721492Y-103740140D01*
X146098821Y-103896821D01*
X146214000Y-103896922D01*
X146214000Y-105571384D01*
X146195860Y-105589492D01*
X146039179Y-105966821D01*
X146038822Y-106375387D01*
X146194844Y-106752989D01*
X146483492Y-107042140D01*
X146860821Y-107198821D01*
X147269387Y-107199178D01*
X147646989Y-107043156D01*
X147936140Y-106754508D01*
X148092821Y-106377179D01*
X148093178Y-105968613D01*
X147937156Y-105591011D01*
X147918000Y-105571822D01*
X147918000Y-102616000D01*
X147885378Y-102452000D01*
X148745090Y-102452000D01*
X148754000Y-102460910D01*
X148754000Y-106587384D01*
X148735860Y-106605492D01*
X148579179Y-106982821D01*
X148578822Y-107391387D01*
X148734844Y-107768989D01*
X149023492Y-108058140D01*
X149400821Y-108214821D01*
X149566000Y-108214965D01*
X149566000Y-117054000D01*
X122679240Y-117054000D01*
X126750402Y-112982838D01*
X144230597Y-112982838D01*
X144584115Y-113838418D01*
X145238139Y-114493585D01*
X146093100Y-114848596D01*
X147018838Y-114849403D01*
X147874418Y-114495885D01*
X148529585Y-113841861D01*
X148884596Y-112986900D01*
X148885403Y-112061162D01*
X148531885Y-111205582D01*
X147877861Y-110550415D01*
X147022900Y-110195404D01*
X146097162Y-110194597D01*
X145241582Y-110548115D01*
X144586415Y-111202139D01*
X144231404Y-112057100D01*
X144230597Y-112982838D01*
X126750402Y-112982838D01*
X127636984Y-112096256D01*
X129757349Y-112096256D01*
X129846821Y-112355332D01*
X130429368Y-112569325D01*
X131049461Y-112544097D01*
X131505179Y-112355332D01*
X131594651Y-112096256D01*
X130676000Y-111177605D01*
X129757349Y-112096256D01*
X127636984Y-112096256D01*
X127867620Y-111865620D01*
X128062678Y-111573695D01*
X128133600Y-111467553D01*
X128227000Y-110998000D01*
X128227000Y-110751368D01*
X129104675Y-110751368D01*
X129129903Y-111371461D01*
X129318668Y-111827179D01*
X129577744Y-111916651D01*
X130496395Y-110998000D01*
X130855605Y-110998000D01*
X131763786Y-111906181D01*
X131774686Y-111932561D01*
X132238995Y-112397681D01*
X132845955Y-112649713D01*
X133503162Y-112650287D01*
X134110561Y-112399314D01*
X134426143Y-112084282D01*
X134738995Y-112397681D01*
X135345955Y-112649713D01*
X136003162Y-112650287D01*
X136610561Y-112399314D01*
X136661116Y-112348847D01*
X136719672Y-112439846D01*
X136962615Y-112605843D01*
X137251000Y-112664242D01*
X139101000Y-112664242D01*
X139370410Y-112613549D01*
X139617846Y-112454328D01*
X139783843Y-112211385D01*
X139842242Y-111923000D01*
X139842242Y-110073000D01*
X139791549Y-109803590D01*
X139632328Y-109556154D01*
X139389385Y-109390157D01*
X139101000Y-109331758D01*
X137251000Y-109331758D01*
X136981590Y-109382451D01*
X136734154Y-109541672D01*
X136661948Y-109647348D01*
X136613005Y-109598319D01*
X136006045Y-109346287D01*
X135348838Y-109345713D01*
X134741439Y-109596686D01*
X134425857Y-109911718D01*
X134113005Y-109598319D01*
X133506045Y-109346287D01*
X132848838Y-109345713D01*
X132241439Y-109596686D01*
X131776319Y-110060995D01*
X131764751Y-110088854D01*
X130855605Y-110998000D01*
X130496395Y-110998000D01*
X129577744Y-110079349D01*
X129318668Y-110168821D01*
X129104675Y-110751368D01*
X128227000Y-110751368D01*
X128227000Y-109899744D01*
X129757349Y-109899744D01*
X130676000Y-110818395D01*
X131594651Y-109899744D01*
X131505179Y-109640668D01*
X130922632Y-109426675D01*
X130302539Y-109451903D01*
X129846821Y-109640668D01*
X129757349Y-109899744D01*
X128227000Y-109899744D01*
X128227000Y-98509000D01*
X132842000Y-98509000D01*
X133311553Y-98415600D01*
X133709620Y-98149620D01*
X134725620Y-97133620D01*
X134879017Y-96904045D01*
X134991600Y-96735553D01*
X135085000Y-96266000D01*
X135085000Y-86360000D01*
X134991600Y-85890447D01*
X134725620Y-85492380D01*
X134327553Y-85226400D01*
X134280296Y-85217000D01*
X134327553Y-85207600D01*
X134725620Y-84941620D01*
X134991600Y-84543553D01*
X135085000Y-84074000D01*
X135085000Y-69850000D01*
X134991600Y-69380447D01*
X134725620Y-68982380D01*
X134327553Y-68716400D01*
X133858000Y-68623000D01*
X133388447Y-68716400D01*
X132990380Y-68982380D01*
X132724400Y-69380447D01*
X132631000Y-69850000D01*
X132631000Y-77259000D01*
X126004768Y-77259000D01*
X125877488Y-77068512D01*
X125465929Y-76656953D01*
X125575107Y-76584002D01*
X125730000Y-76352189D01*
X125884893Y-76584002D01*
X126396508Y-76925853D01*
X127000000Y-77045895D01*
X127603492Y-76925853D01*
X128115107Y-76584002D01*
X128270000Y-76352189D01*
X128424893Y-76584002D01*
X128936508Y-76925853D01*
X129540000Y-77045895D01*
X130143492Y-76925853D01*
X130655107Y-76584002D01*
X130996958Y-76072387D01*
X131117000Y-75468895D01*
X131117000Y-75407105D01*
X130996958Y-74803613D01*
X130655107Y-74291998D01*
X130143492Y-73950147D01*
X129540000Y-73830105D01*
X128936508Y-73950147D01*
X128424893Y-74291998D01*
X128270000Y-74523811D01*
X128115107Y-74291998D01*
X127603492Y-73950147D01*
X127000000Y-73830105D01*
X126396508Y-73950147D01*
X125884893Y-74291998D01*
X125730000Y-74523811D01*
X125575107Y-74291998D01*
X125063492Y-73950147D01*
X124460000Y-73830105D01*
X123856508Y-73950147D01*
X123344893Y-74291998D01*
X123190000Y-74523811D01*
X123035107Y-74291998D01*
X122523492Y-73950147D01*
X121920000Y-73830105D01*
X121316508Y-73950147D01*
X120804893Y-74291998D01*
X120650000Y-74523811D01*
X120495107Y-74291998D01*
X119983492Y-73950147D01*
X119380000Y-73830105D01*
X118776508Y-73950147D01*
X118264893Y-74291998D01*
X118258607Y-74301405D01*
X118228327Y-74228302D01*
X118049699Y-74049673D01*
X117816310Y-73953000D01*
X117125750Y-73953000D01*
X116967000Y-74111750D01*
X116967000Y-75311000D01*
X116987000Y-75311000D01*
X116987000Y-75565000D01*
X116967000Y-75565000D01*
X116967000Y-76764250D01*
X117121437Y-76918687D01*
X117083179Y-77010821D01*
X117082822Y-77419387D01*
X117238844Y-77796989D01*
X117527492Y-78086140D01*
X117904821Y-78242821D01*
X118313387Y-78243178D01*
X118555836Y-78143000D01*
X124063227Y-78143000D01*
X123995000Y-78486000D01*
X124088400Y-78955553D01*
X124354380Y-79353620D01*
X124752447Y-79619600D01*
X125222000Y-79713000D01*
X132631000Y-79713000D01*
X132631000Y-84074000D01*
X132724400Y-84543553D01*
X132990380Y-84941620D01*
X133388447Y-85207600D01*
X133435704Y-85217000D01*
X133388447Y-85226400D01*
X132990380Y-85492380D01*
X132724400Y-85890447D01*
X132631000Y-86360000D01*
X132631000Y-95757760D01*
X132333760Y-96055000D01*
X127000000Y-96055000D01*
X126582000Y-96138145D01*
X126582000Y-96110910D01*
X128701754Y-93991156D01*
X128727387Y-93991178D01*
X129104989Y-93835156D01*
X129394140Y-93546508D01*
X129550821Y-93169179D01*
X129551178Y-92760613D01*
X129395156Y-92383011D01*
X129106508Y-92093860D01*
X128729179Y-91937179D01*
X128320613Y-91936822D01*
X128015715Y-92062803D01*
X127713179Y-91937179D01*
X127304613Y-91936822D01*
X126927011Y-92092844D01*
X126637860Y-92381492D01*
X126481179Y-92758821D01*
X126481155Y-92785935D01*
X124217175Y-95049915D01*
X124217178Y-95046613D01*
X124061156Y-94669011D01*
X124042000Y-94649822D01*
X124042000Y-94326616D01*
X124060140Y-94308508D01*
X124201286Y-93968591D01*
X124254821Y-93990821D01*
X124663387Y-93991178D01*
X125040989Y-93835156D01*
X125330140Y-93546508D01*
X125486821Y-93169179D01*
X125487178Y-92760613D01*
X125331156Y-92383011D01*
X125042508Y-92093860D01*
X124997445Y-92075148D01*
X125040989Y-92057156D01*
X125330140Y-91768508D01*
X125486821Y-91391179D01*
X125487178Y-90982613D01*
X125331156Y-90605011D01*
X125042508Y-90315860D01*
X124665179Y-90159179D01*
X124256613Y-90158822D01*
X123879011Y-90314844D01*
X123859822Y-90334000D01*
X122780910Y-90334000D01*
X121931156Y-89484246D01*
X121931178Y-89458613D01*
X121892180Y-89364231D01*
X122028140Y-89228508D01*
X122184821Y-88851179D01*
X122184919Y-88739337D01*
X122199145Y-88718046D01*
X122264000Y-88392000D01*
X122264000Y-83076492D01*
X122353492Y-83166140D01*
X122730821Y-83322821D01*
X123139387Y-83323178D01*
X123516989Y-83167156D01*
X123536178Y-83148000D01*
X126907384Y-83148000D01*
X126925492Y-83166140D01*
X127302821Y-83322821D01*
X127711387Y-83323178D01*
X128088989Y-83167156D01*
X128378140Y-82878508D01*
X128534821Y-82501179D01*
X128534882Y-82430818D01*
X128596989Y-82405156D01*
X128886140Y-82116508D01*
X129042821Y-81739179D01*
X129043178Y-81330613D01*
X128887156Y-80953011D01*
X128598508Y-80663860D01*
X128221179Y-80507179D01*
X127812613Y-80506822D01*
X127435011Y-80662844D01*
X127415822Y-80682000D01*
X124224492Y-80682000D01*
X124314140Y-80592508D01*
X124470821Y-80215179D01*
X124471178Y-79806613D01*
X124315156Y-79429011D01*
X124026508Y-79139860D01*
X123649179Y-78983179D01*
X123240613Y-78982822D01*
X122863011Y-79138844D01*
X122573860Y-79427492D01*
X122417179Y-79804821D01*
X122417155Y-79831935D01*
X120809545Y-81439545D01*
X120624855Y-81715954D01*
X120560000Y-82042000D01*
X120560000Y-87791825D01*
X120287860Y-88063492D01*
X120131179Y-88440821D01*
X120130822Y-88849387D01*
X120169820Y-88943769D01*
X120033860Y-89079492D01*
X119877179Y-89456821D01*
X119877118Y-89527182D01*
X119815011Y-89552844D01*
X119525860Y-89841492D01*
X119369179Y-90218821D01*
X119368822Y-90627387D01*
X119494803Y-90932285D01*
X119369179Y-91234821D01*
X119368822Y-91643387D01*
X119524844Y-92020989D01*
X119813492Y-92310140D01*
X120190821Y-92466821D01*
X120217935Y-92466845D01*
X121317545Y-93566455D01*
X121593953Y-93751145D01*
X121920000Y-93816000D01*
X122162921Y-93816000D01*
X122162822Y-93929387D01*
X122318844Y-94306989D01*
X122338000Y-94326178D01*
X122338000Y-94649384D01*
X122319860Y-94667492D01*
X122163179Y-95044821D01*
X122162822Y-95453387D01*
X122275463Y-95725998D01*
X113440908Y-95725998D01*
X113041156Y-95326246D01*
X113041178Y-95300613D01*
X112885156Y-94923011D01*
X112596508Y-94633860D01*
X112219179Y-94477179D01*
X111810613Y-94476822D01*
X111433011Y-94632844D01*
X111143860Y-94921492D01*
X110987179Y-95298821D01*
X110986822Y-95707387D01*
X111142844Y-96084989D01*
X111233697Y-96176000D01*
X108604165Y-96176000D01*
X108629476Y-96114890D01*
X108508155Y-95885000D01*
X107315000Y-95885000D01*
X107315000Y-95905000D01*
X107061000Y-95905000D01*
X107061000Y-95885000D01*
X107041000Y-95885000D01*
X107041000Y-95631000D01*
X107061000Y-95631000D01*
X107061000Y-95611000D01*
X107315000Y-95611000D01*
X107315000Y-95631000D01*
X108508155Y-95631000D01*
X108629476Y-95401110D01*
X108459645Y-94991076D01*
X108424945Y-94953000D01*
X108712000Y-94953000D01*
X109181553Y-94859600D01*
X109579620Y-94593620D01*
X109791369Y-94381871D01*
X109943553Y-94351600D01*
X110341620Y-94085620D01*
X110357240Y-94070000D01*
X111667384Y-94070000D01*
X111685492Y-94088140D01*
X112062821Y-94244821D01*
X112471387Y-94245178D01*
X112848989Y-94089156D01*
X113138140Y-93800508D01*
X113292404Y-93429000D01*
X114046000Y-93429000D01*
X114515553Y-93335600D01*
X114913620Y-93069620D01*
X115929620Y-92053620D01*
X116195600Y-91655552D01*
X116289000Y-91186000D01*
X116195600Y-90716448D01*
X115929620Y-90318380D01*
X115707554Y-90170000D01*
X115929620Y-90021620D01*
X116195601Y-89623552D01*
X116289000Y-89154000D01*
X116195601Y-88684448D01*
X115929620Y-88286380D01*
X111463000Y-83819760D01*
X111463000Y-75723750D01*
X115355000Y-75723750D01*
X115355000Y-76414309D01*
X115451673Y-76647698D01*
X115630301Y-76826327D01*
X115863690Y-76923000D01*
X116554250Y-76923000D01*
X116713000Y-76764250D01*
X116713000Y-75565000D01*
X115513750Y-75565000D01*
X115355000Y-75723750D01*
X111463000Y-75723750D01*
X111463000Y-74461691D01*
X115355000Y-74461691D01*
X115355000Y-75152250D01*
X115513750Y-75311000D01*
X116713000Y-75311000D01*
X116713000Y-74111750D01*
X116554250Y-73953000D01*
X115863690Y-73953000D01*
X115630301Y-74049673D01*
X115451673Y-74228302D01*
X115355000Y-74461691D01*
X111463000Y-74461691D01*
X111463000Y-70866000D01*
X111369600Y-70396447D01*
X111103620Y-69998380D01*
X110705553Y-69732400D01*
X110236000Y-69639000D01*
X110154263Y-69655258D01*
X110099600Y-69380447D01*
X109833620Y-68982380D01*
X109435553Y-68716400D01*
X108966000Y-68623000D01*
X108496447Y-68716400D01*
X108098380Y-68982380D01*
X107832400Y-69380447D01*
X107739000Y-69850000D01*
X107739000Y-71052914D01*
X107383190Y-70905170D01*
X106994515Y-70904830D01*
X106691581Y-71030000D01*
X104508816Y-71030000D01*
X104208190Y-70905170D01*
X103819515Y-70904830D01*
X103460297Y-71053256D01*
X103185222Y-71327851D01*
X103036170Y-71686810D01*
X103035830Y-72075485D01*
X103139620Y-72326675D01*
X103036170Y-72575810D01*
X103035830Y-72964485D01*
X103113317Y-73152018D01*
X103036170Y-73337810D01*
X103035830Y-73726485D01*
X103113317Y-73914018D01*
X103036170Y-74099810D01*
X103035830Y-74488485D01*
X103184256Y-74847703D01*
X103329812Y-74993513D01*
X103185222Y-75137851D01*
X103036170Y-75496810D01*
X103035830Y-75885485D01*
X103139620Y-76136675D01*
X103036170Y-76385810D01*
X103035830Y-76774485D01*
X103113317Y-76962018D01*
X103036170Y-77147810D01*
X103035830Y-77536485D01*
X103113317Y-77724018D01*
X103036170Y-77909810D01*
X103035830Y-78298485D01*
X103184256Y-78657703D01*
X103458851Y-78932778D01*
X103817810Y-79081830D01*
X104206485Y-79082170D01*
X104509419Y-78957000D01*
X106505760Y-78957000D01*
X106320380Y-79142380D01*
X106054400Y-79540448D01*
X105961000Y-80010000D01*
X106044146Y-80428000D01*
X103724616Y-80428000D01*
X103706508Y-80409860D01*
X103329179Y-80253179D01*
X102920613Y-80252822D01*
X102543011Y-80408844D01*
X102253860Y-80697492D01*
X102097179Y-81074821D01*
X102096822Y-81483387D01*
X102252844Y-81860989D01*
X102541492Y-82150140D01*
X102918821Y-82306821D01*
X103035990Y-82306923D01*
X103035830Y-82489485D01*
X103139620Y-82740675D01*
X103036170Y-82989810D01*
X103035830Y-83378485D01*
X103113317Y-83566018D01*
X103036170Y-83751810D01*
X103035830Y-84140485D01*
X103139620Y-84391675D01*
X103036170Y-84640810D01*
X103036078Y-84746000D01*
X100129079Y-84746000D01*
X100129273Y-84523692D01*
X99889695Y-83943868D01*
X99512216Y-83565730D01*
X99888136Y-83190465D01*
X100128725Y-82611061D01*
X100129273Y-81983692D01*
X99889695Y-81403868D01*
X99512216Y-81025730D01*
X99888136Y-80650465D01*
X100128725Y-80071061D01*
X100129273Y-79443692D01*
X99889695Y-78863868D01*
X99512216Y-78485730D01*
X99888136Y-78110465D01*
X100128725Y-77531061D01*
X100129273Y-76903692D01*
X99889695Y-76323868D01*
X99512216Y-75945730D01*
X99888136Y-75570465D01*
X100128725Y-74991061D01*
X100129273Y-74363692D01*
X99889695Y-73783868D01*
X99512216Y-73405730D01*
X99888136Y-73030465D01*
X100128725Y-72451061D01*
X100129273Y-71823692D01*
X99889695Y-71243868D01*
X99446465Y-70799864D01*
X98867061Y-70559275D01*
X98239692Y-70558727D01*
X97659868Y-70798305D01*
X97281730Y-71175784D01*
X96906465Y-70799864D01*
X96327061Y-70559275D01*
X95699692Y-70558727D01*
X95119868Y-70798305D01*
X94675864Y-71241535D01*
X94435275Y-71820939D01*
X94434727Y-72448308D01*
X94674305Y-73028132D01*
X95051784Y-73406270D01*
X94675864Y-73781535D01*
X94435275Y-74360939D01*
X94434727Y-74988308D01*
X94674305Y-75568132D01*
X95051784Y-75946270D01*
X94675864Y-76321535D01*
X94435275Y-76900939D01*
X94434727Y-77528308D01*
X94674305Y-78108132D01*
X95051784Y-78486270D01*
X94675864Y-78861535D01*
X94435275Y-79440939D01*
X94434727Y-80068308D01*
X94674305Y-80648132D01*
X95051784Y-81026270D01*
X94675864Y-81401535D01*
X94435275Y-81980939D01*
X94434727Y-82608308D01*
X94674305Y-83188132D01*
X95051784Y-83566270D01*
X94675864Y-83941535D01*
X94435275Y-84520939D01*
X94434727Y-85148308D01*
X94674305Y-85728132D01*
X94675630Y-85729460D01*
X94139545Y-86265545D01*
X93954855Y-86541954D01*
X93890000Y-86868000D01*
X93890000Y-96266000D01*
X93954855Y-96592046D01*
X94139545Y-96868455D01*
X94451927Y-97180837D01*
X94435275Y-97220939D01*
X94434727Y-97848308D01*
X94674305Y-98428132D01*
X95051784Y-98806270D01*
X94675864Y-99181535D01*
X94435275Y-99760939D01*
X94434727Y-100388308D01*
X94674305Y-100968132D01*
X95051784Y-101346270D01*
X94675864Y-101721535D01*
X94435275Y-102300939D01*
X94434727Y-102928308D01*
X94674305Y-103508132D01*
X95051784Y-103886270D01*
X94675864Y-104261535D01*
X94435275Y-104840939D01*
X94434727Y-105468308D01*
X94674305Y-106048132D01*
X95051784Y-106426270D01*
X94675864Y-106801535D01*
X94435275Y-107380939D01*
X94434727Y-108008308D01*
X94674305Y-108588132D01*
X95051784Y-108966270D01*
X94675864Y-109341535D01*
X94435275Y-109920939D01*
X94434727Y-110548308D01*
X94674305Y-111128132D01*
X95051784Y-111506270D01*
X94675864Y-111881535D01*
X94435275Y-112460939D01*
X94434727Y-113088308D01*
X94674305Y-113668132D01*
X95117535Y-114112136D01*
X95696939Y-114352725D01*
X96324308Y-114353273D01*
X96904132Y-114113695D01*
X97125258Y-113892955D01*
X97163673Y-113985698D01*
X97342301Y-114164327D01*
X97575690Y-114261000D01*
X98266250Y-114261000D01*
X98425000Y-114102250D01*
X98425000Y-112903000D01*
X98405000Y-112903000D01*
X98405000Y-112649000D01*
X98425000Y-112649000D01*
X98425000Y-112629000D01*
X98679000Y-112629000D01*
X98679000Y-112649000D01*
X99878250Y-112649000D01*
X100037000Y-112490250D01*
X100037000Y-111799691D01*
X99940327Y-111566302D01*
X99761699Y-111387673D01*
X99528310Y-111291000D01*
X99412826Y-111291000D01*
X99416353Y-111279958D01*
X98552000Y-110415605D01*
X97687647Y-111279958D01*
X97691174Y-111291000D01*
X97575690Y-111291000D01*
X97342301Y-111387673D01*
X97163673Y-111566302D01*
X97125259Y-111659040D01*
X96972216Y-111505730D01*
X97348136Y-111130465D01*
X97377901Y-111058782D01*
X97508042Y-111100353D01*
X98372395Y-110236000D01*
X98731605Y-110236000D01*
X99595958Y-111100353D01*
X99847259Y-111020080D01*
X100048718Y-110464721D01*
X100022315Y-109874542D01*
X99847259Y-109451920D01*
X99595958Y-109371647D01*
X98731605Y-110236000D01*
X98372395Y-110236000D01*
X97508042Y-109371647D01*
X97378297Y-109413091D01*
X97349695Y-109343868D01*
X96972216Y-108965730D01*
X97198382Y-108739958D01*
X97687647Y-108739958D01*
X97759852Y-108966000D01*
X97687647Y-109192042D01*
X98552000Y-110056395D01*
X99416353Y-109192042D01*
X99344148Y-108966000D01*
X99416353Y-108739958D01*
X98552000Y-107875605D01*
X97687647Y-108739958D01*
X97198382Y-108739958D01*
X97348136Y-108590465D01*
X97377901Y-108518782D01*
X97508042Y-108560353D01*
X98372395Y-107696000D01*
X98731605Y-107696000D01*
X99595958Y-108560353D01*
X99847259Y-108480080D01*
X100048718Y-107924721D01*
X100022315Y-107334542D01*
X99847259Y-106911920D01*
X99595958Y-106831647D01*
X98731605Y-107696000D01*
X98372395Y-107696000D01*
X97508042Y-106831647D01*
X97378297Y-106873091D01*
X97349695Y-106803868D01*
X96972216Y-106425730D01*
X97198382Y-106199958D01*
X97687647Y-106199958D01*
X97759852Y-106426000D01*
X97687647Y-106652042D01*
X98552000Y-107516395D01*
X99416353Y-106652042D01*
X99344148Y-106426000D01*
X99416353Y-106199958D01*
X98552000Y-105335605D01*
X97687647Y-106199958D01*
X97198382Y-106199958D01*
X97348136Y-106050465D01*
X97377901Y-105978782D01*
X97508042Y-106020353D01*
X98372395Y-105156000D01*
X98731605Y-105156000D01*
X99595958Y-106020353D01*
X99847259Y-105940080D01*
X100048718Y-105384721D01*
X100022315Y-104794542D01*
X99847259Y-104371920D01*
X99595958Y-104291647D01*
X98731605Y-105156000D01*
X98372395Y-105156000D01*
X98358253Y-105141858D01*
X98537858Y-104962253D01*
X98552000Y-104976395D01*
X99416353Y-104112042D01*
X99344148Y-103886000D01*
X99416353Y-103659958D01*
X98552000Y-102795605D01*
X98537858Y-102809748D01*
X98358253Y-102630143D01*
X98372395Y-102616000D01*
X98731605Y-102616000D01*
X99595958Y-103480353D01*
X99847259Y-103400080D01*
X100048718Y-102844721D01*
X100022315Y-102254542D01*
X99847259Y-101831920D01*
X99595958Y-101751647D01*
X98731605Y-102616000D01*
X98372395Y-102616000D01*
X98358253Y-102601858D01*
X98537858Y-102422253D01*
X98552000Y-102436395D01*
X99416353Y-101572042D01*
X99344148Y-101346000D01*
X99416353Y-101119958D01*
X98552000Y-100255605D01*
X98537858Y-100269748D01*
X98358253Y-100090143D01*
X98372395Y-100076000D01*
X98731605Y-100076000D01*
X99595958Y-100940353D01*
X99847259Y-100860080D01*
X100048718Y-100304721D01*
X100022315Y-99714542D01*
X99847259Y-99291920D01*
X99595958Y-99211647D01*
X98731605Y-100076000D01*
X98372395Y-100076000D01*
X98358253Y-100061858D01*
X98537858Y-99882253D01*
X98552000Y-99896395D01*
X99416353Y-99032042D01*
X99344148Y-98806000D01*
X99416353Y-98579958D01*
X98552000Y-97715605D01*
X98537858Y-97729748D01*
X98358253Y-97550143D01*
X98372395Y-97536000D01*
X98731605Y-97536000D01*
X99595958Y-98400353D01*
X99847259Y-98320080D01*
X100048718Y-97764721D01*
X100022315Y-97174542D01*
X99847259Y-96751920D01*
X99595958Y-96671647D01*
X98731605Y-97536000D01*
X98372395Y-97536000D01*
X98358253Y-97521858D01*
X98537858Y-97342253D01*
X98552000Y-97356395D01*
X99416353Y-96492042D01*
X99344148Y-96266000D01*
X99416353Y-96039958D01*
X98552000Y-95175605D01*
X98537858Y-95189748D01*
X98358253Y-95010143D01*
X98372395Y-94996000D01*
X98731605Y-94996000D01*
X99595958Y-95860353D01*
X99847259Y-95780080D01*
X100048718Y-95224721D01*
X100022315Y-94634542D01*
X99847259Y-94211920D01*
X99595958Y-94131647D01*
X98731605Y-94996000D01*
X98372395Y-94996000D01*
X98358253Y-94981858D01*
X98537858Y-94802253D01*
X98552000Y-94816395D01*
X99416353Y-93952042D01*
X99344148Y-93726000D01*
X99416353Y-93499958D01*
X98552000Y-92635605D01*
X98537858Y-92649748D01*
X98358253Y-92470143D01*
X98372395Y-92456000D01*
X98358253Y-92441858D01*
X98537858Y-92262253D01*
X98552000Y-92276395D01*
X98566143Y-92262253D01*
X98745748Y-92441858D01*
X98731605Y-92456000D01*
X99595958Y-93320353D01*
X99847259Y-93240080D01*
X100048718Y-92684721D01*
X100022315Y-92094542D01*
X99955126Y-91932333D01*
X100170455Y-91788455D01*
X101952910Y-90006000D01*
X103035921Y-90006000D01*
X103035830Y-90109485D01*
X103139620Y-90360675D01*
X103036170Y-90609810D01*
X103035830Y-90998485D01*
X103113317Y-91186018D01*
X103036170Y-91371810D01*
X103035830Y-91760485D01*
X103113317Y-91948018D01*
X103036170Y-92133810D01*
X103035851Y-92499000D01*
X102108000Y-92499000D01*
X101638447Y-92592400D01*
X101301624Y-92817458D01*
X101240380Y-92858380D01*
X100732380Y-93366380D01*
X100466400Y-93764447D01*
X100373000Y-94234000D01*
X100373000Y-110744000D01*
X100466400Y-111213553D01*
X100732380Y-111611620D01*
X101130447Y-111877600D01*
X101600000Y-111971000D01*
X102069553Y-111877600D01*
X102467620Y-111611620D01*
X102733600Y-111213553D01*
X102825534Y-110751368D01*
X104386675Y-110751368D01*
X104411903Y-111371461D01*
X104600668Y-111827179D01*
X104859744Y-111916651D01*
X105778395Y-110998000D01*
X104859744Y-110079349D01*
X104600668Y-110168821D01*
X104386675Y-110751368D01*
X102825534Y-110751368D01*
X102827000Y-110744000D01*
X102827000Y-105440923D01*
X103123279Y-105499857D01*
X103040105Y-105918000D01*
X103160147Y-106521492D01*
X103501998Y-107033107D01*
X104013613Y-107374958D01*
X104617105Y-107495000D01*
X104678895Y-107495000D01*
X105282387Y-107374958D01*
X105794002Y-107033107D01*
X105979993Y-106754753D01*
X106306642Y-107113183D01*
X106831108Y-107359486D01*
X107061000Y-107238819D01*
X107061000Y-106045000D01*
X107315000Y-106045000D01*
X107315000Y-107238819D01*
X107544892Y-107359486D01*
X108069358Y-107113183D01*
X108459645Y-106684924D01*
X108629476Y-106274890D01*
X108508155Y-106045000D01*
X107315000Y-106045000D01*
X107061000Y-106045000D01*
X107041000Y-106045000D01*
X107041000Y-105791000D01*
X107061000Y-105791000D01*
X107061000Y-105771000D01*
X107315000Y-105771000D01*
X107315000Y-105791000D01*
X108508155Y-105791000D01*
X108629476Y-105561110D01*
X108604165Y-105500000D01*
X108613090Y-105500000D01*
X109384000Y-106270910D01*
X109384000Y-109331961D01*
X109383000Y-109331758D01*
X107533000Y-109331758D01*
X107263590Y-109382451D01*
X107016154Y-109541672D01*
X106850157Y-109784615D01*
X106845254Y-109808829D01*
X106787179Y-109640668D01*
X106204632Y-109426675D01*
X105584539Y-109451903D01*
X105128821Y-109640668D01*
X105039349Y-109899744D01*
X105958000Y-110818395D01*
X105972143Y-110804253D01*
X106151748Y-110983858D01*
X106137605Y-110998000D01*
X106151748Y-111012143D01*
X105972143Y-111191748D01*
X105958000Y-111177605D01*
X105039349Y-112096256D01*
X105128821Y-112355332D01*
X105137160Y-112358395D01*
X105050380Y-112416380D01*
X103631760Y-113835000D01*
X100330000Y-113835000D01*
X99973364Y-113905939D01*
X100037000Y-113752309D01*
X100037000Y-113061750D01*
X99878250Y-112903000D01*
X98679000Y-112903000D01*
X98679000Y-114102250D01*
X98837750Y-114261000D01*
X99417866Y-114261000D01*
X99196400Y-114592447D01*
X99103000Y-115062000D01*
X99196400Y-115531553D01*
X99462380Y-115929620D01*
X99860447Y-116195600D01*
X100330000Y-116289000D01*
X103937553Y-116289000D01*
X103929000Y-116332000D01*
X104022400Y-116801553D01*
X104191080Y-117054000D01*
X85638000Y-117054000D01*
X85638000Y-112982838D01*
X86445597Y-112982838D01*
X86799115Y-113838418D01*
X87453139Y-114493585D01*
X88308100Y-114848596D01*
X89233838Y-114849403D01*
X90089418Y-114495885D01*
X90744585Y-113841861D01*
X91099596Y-112986900D01*
X91100403Y-112061162D01*
X90746885Y-111205582D01*
X90092861Y-110550415D01*
X89237900Y-110195404D01*
X88312162Y-110194597D01*
X87456582Y-110548115D01*
X86801415Y-111202139D01*
X86446404Y-112057100D01*
X86445597Y-112982838D01*
X85638000Y-112982838D01*
X85638000Y-72977838D01*
X86445597Y-72977838D01*
X86799115Y-73833418D01*
X87453139Y-74488585D01*
X88308100Y-74843596D01*
X89233838Y-74844403D01*
X90089418Y-74490885D01*
X90744585Y-73836861D01*
X91099596Y-72981900D01*
X91100403Y-72056162D01*
X90746885Y-71200582D01*
X90092861Y-70545415D01*
X89237900Y-70190404D01*
X88312162Y-70189597D01*
X87456582Y-70543115D01*
X86801415Y-71197139D01*
X86446404Y-72052100D01*
X86445597Y-72977838D01*
X85638000Y-72977838D01*
X85638000Y-67858000D01*
X149566000Y-67858000D01*
X149566000Y-77060312D01*
G36*
X121157760Y-115105000D02*
X105832240Y-115105000D01*
X106426240Y-114511000D01*
X119634000Y-114511000D01*
X120103553Y-114417600D01*
X120501620Y-114151620D01*
X120767600Y-113753553D01*
X120861000Y-113284000D01*
X120861000Y-111463000D01*
X124799760Y-111463000D01*
X121157760Y-115105000D01*
X121157760Y-115105000D01*
G37*
X121157760Y-115105000D02*
X105832240Y-115105000D01*
X106426240Y-114511000D01*
X119634000Y-114511000D01*
X120103553Y-114417600D01*
X120501620Y-114151620D01*
X120767600Y-113753553D01*
X120861000Y-113284000D01*
X120861000Y-111463000D01*
X124799760Y-111463000D01*
X121157760Y-115105000D01*
G36*
X108856844Y-103450989D02*
X109145492Y-103740140D01*
X109522821Y-103896821D01*
X109931387Y-103897178D01*
X110308989Y-103741156D01*
X110328178Y-103722000D01*
X114207384Y-103722000D01*
X114225492Y-103740140D01*
X114602821Y-103896821D01*
X115011387Y-103897178D01*
X115388989Y-103741156D01*
X115678140Y-103452508D01*
X115746035Y-103289000D01*
X116539760Y-103289000D01*
X118407000Y-105156240D01*
X118407000Y-112057000D01*
X111088000Y-112057000D01*
X111088000Y-107024948D01*
X111231181Y-107371473D01*
X111574719Y-107715611D01*
X112023803Y-107902087D01*
X112510064Y-107902511D01*
X112959473Y-107716819D01*
X113303611Y-107373281D01*
X113490087Y-106924197D01*
X113490511Y-106437936D01*
X113304819Y-105988527D01*
X112961281Y-105644389D01*
X112886620Y-105613387D01*
X113780822Y-105613387D01*
X113936844Y-105990989D01*
X114225492Y-106280140D01*
X114602821Y-106436821D01*
X115011387Y-106437178D01*
X115388989Y-106281156D01*
X115408178Y-106262000D01*
X115731384Y-106262000D01*
X115749492Y-106280140D01*
X116126821Y-106436821D01*
X116535387Y-106437178D01*
X116912989Y-106281156D01*
X117202140Y-105992508D01*
X117358821Y-105615179D01*
X117359178Y-105206613D01*
X117203156Y-104829011D01*
X116914508Y-104539860D01*
X116537179Y-104383179D01*
X116128613Y-104382822D01*
X115751011Y-104538844D01*
X115731822Y-104558000D01*
X115408616Y-104558000D01*
X115390508Y-104539860D01*
X115013179Y-104383179D01*
X114604613Y-104382822D01*
X114227011Y-104538844D01*
X113937860Y-104827492D01*
X113781179Y-105204821D01*
X113780822Y-105613387D01*
X112886620Y-105613387D01*
X112512197Y-105457913D01*
X112025936Y-105457489D01*
X111576527Y-105643181D01*
X111232389Y-105986719D01*
X111088000Y-106334446D01*
X111088000Y-105918000D01*
X111023145Y-105591954D01*
X110838455Y-105315545D01*
X109568455Y-104045545D01*
X109292046Y-103860855D01*
X108966000Y-103796000D01*
X108712750Y-103796000D01*
X108795895Y-103378000D01*
X108767313Y-103234306D01*
X108856844Y-103450989D01*
X108856844Y-103450989D01*
G37*
X108856844Y-103450989D02*
X109145492Y-103740140D01*
X109522821Y-103896821D01*
X109931387Y-103897178D01*
X110308989Y-103741156D01*
X110328178Y-103722000D01*
X114207384Y-103722000D01*
X114225492Y-103740140D01*
X114602821Y-103896821D01*
X115011387Y-103897178D01*
X115388989Y-103741156D01*
X115678140Y-103452508D01*
X115746035Y-103289000D01*
X116539760Y-103289000D01*
X118407000Y-105156240D01*
X118407000Y-112057000D01*
X111088000Y-112057000D01*
X111088000Y-107024948D01*
X111231181Y-107371473D01*
X111574719Y-107715611D01*
X112023803Y-107902087D01*
X112510064Y-107902511D01*
X112959473Y-107716819D01*
X113303611Y-107373281D01*
X113490087Y-106924197D01*
X113490511Y-106437936D01*
X113304819Y-105988527D01*
X112961281Y-105644389D01*
X112886620Y-105613387D01*
X113780822Y-105613387D01*
X113936844Y-105990989D01*
X114225492Y-106280140D01*
X114602821Y-106436821D01*
X115011387Y-106437178D01*
X115388989Y-106281156D01*
X115408178Y-106262000D01*
X115731384Y-106262000D01*
X115749492Y-106280140D01*
X116126821Y-106436821D01*
X116535387Y-106437178D01*
X116912989Y-106281156D01*
X117202140Y-105992508D01*
X117358821Y-105615179D01*
X117359178Y-105206613D01*
X117203156Y-104829011D01*
X116914508Y-104539860D01*
X116537179Y-104383179D01*
X116128613Y-104382822D01*
X115751011Y-104538844D01*
X115731822Y-104558000D01*
X115408616Y-104558000D01*
X115390508Y-104539860D01*
X115013179Y-104383179D01*
X114604613Y-104382822D01*
X114227011Y-104538844D01*
X113937860Y-104827492D01*
X113781179Y-105204821D01*
X113780822Y-105613387D01*
X112886620Y-105613387D01*
X112512197Y-105457913D01*
X112025936Y-105457489D01*
X111576527Y-105643181D01*
X111232389Y-105986719D01*
X111088000Y-106334446D01*
X111088000Y-105918000D01*
X111023145Y-105591954D01*
X110838455Y-105315545D01*
X109568455Y-104045545D01*
X109292046Y-103860855D01*
X108966000Y-103796000D01*
X108712750Y-103796000D01*
X108795895Y-103378000D01*
X108767313Y-103234306D01*
X108856844Y-103450989D01*
G36*
X124702822Y-97231387D02*
X124858844Y-97608989D01*
X125147492Y-97898140D01*
X125524821Y-98054821D01*
X125773000Y-98055038D01*
X125773000Y-109068077D01*
X125476000Y-109009000D01*
X120861000Y-109009000D01*
X120861000Y-104648000D01*
X120767600Y-104178447D01*
X120501620Y-103780380D01*
X118575000Y-101853760D01*
X118575000Y-101318694D01*
X118666821Y-101356821D01*
X119075387Y-101357178D01*
X119115004Y-101340808D01*
X119114822Y-101549387D01*
X119270844Y-101926989D01*
X119559492Y-102216140D01*
X119936821Y-102372821D01*
X120345387Y-102373178D01*
X120722989Y-102217156D01*
X121012140Y-101928508D01*
X121168821Y-101551179D01*
X121169178Y-101142613D01*
X121013156Y-100765011D01*
X120994000Y-100745822D01*
X120994000Y-99406616D01*
X121012140Y-99388508D01*
X121168821Y-99011179D01*
X121168845Y-98984065D01*
X121252455Y-98900455D01*
X121437145Y-98624047D01*
X121502000Y-98298000D01*
X121502000Y-97536000D01*
X121493447Y-97493000D01*
X121480915Y-97429998D01*
X123894002Y-97429998D01*
X124220048Y-97365143D01*
X124496457Y-97180453D01*
X124703047Y-96973863D01*
X124702822Y-97231387D01*
X124702822Y-97231387D01*
G37*
X124702822Y-97231387D02*
X124858844Y-97608989D01*
X125147492Y-97898140D01*
X125524821Y-98054821D01*
X125773000Y-98055038D01*
X125773000Y-109068077D01*
X125476000Y-109009000D01*
X120861000Y-109009000D01*
X120861000Y-104648000D01*
X120767600Y-104178447D01*
X120501620Y-103780380D01*
X118575000Y-101853760D01*
X118575000Y-101318694D01*
X118666821Y-101356821D01*
X119075387Y-101357178D01*
X119115004Y-101340808D01*
X119114822Y-101549387D01*
X119270844Y-101926989D01*
X119559492Y-102216140D01*
X119936821Y-102372821D01*
X120345387Y-102373178D01*
X120722989Y-102217156D01*
X121012140Y-101928508D01*
X121168821Y-101551179D01*
X121169178Y-101142613D01*
X121013156Y-100765011D01*
X120994000Y-100745822D01*
X120994000Y-99406616D01*
X121012140Y-99388508D01*
X121168821Y-99011179D01*
X121168845Y-98984065D01*
X121252455Y-98900455D01*
X121437145Y-98624047D01*
X121502000Y-98298000D01*
X121502000Y-97536000D01*
X121493447Y-97493000D01*
X121480915Y-97429998D01*
X123894002Y-97429998D01*
X124220048Y-97365143D01*
X124496457Y-97180453D01*
X124703047Y-96973863D01*
X124702822Y-97231387D01*
G36*
X110560527Y-98023181D02*
X110216389Y-98366719D01*
X110045159Y-98779087D01*
X109728000Y-98716000D01*
X108712750Y-98716000D01*
X108795895Y-98298000D01*
X108712750Y-97880000D01*
X110907052Y-97880000D01*
X110560527Y-98023181D01*
X110560527Y-98023181D01*
G37*
X110560527Y-98023181D02*
X110216389Y-98366719D01*
X110045159Y-98779087D01*
X109728000Y-98716000D01*
X108712750Y-98716000D01*
X108795895Y-98298000D01*
X108712750Y-97880000D01*
X110907052Y-97880000D01*
X110560527Y-98023181D01*
M02*
