G04 #@! TF.FileFunction,Soldermask,Bot*
%FSLAX46Y46*%
G04 Gerber Fmt 4.6, Leading zero omitted, Abs format (unit mm)*
G04 Created by KiCad (PCBNEW 4.0.7) date 05/03/18 17:06:33*
%MOMM*%
%LPD*%
G01*
G04 APERTURE LIST*
%ADD10C,0.100000*%
%ADD11C,0.150000*%
%ADD12C,3.600000*%
%ADD13R,2.100000X2.100000*%
%ADD14O,2.100000X2.100000*%
%ADD15C,1.390600*%
%ADD16R,2.250000X2.250000*%
%ADD17C,2.250000*%
%ADD18C,2.100000*%
G04 APERTURE END LIST*
D10*
D11*
X84836000Y-117856000D02*
X84836000Y-67056000D01*
X150368000Y-117856000D02*
X84836000Y-117856000D01*
X150368000Y-67056000D02*
X150368000Y-117856000D01*
X84836000Y-67056000D02*
X150368000Y-67056000D01*
D12*
X88773000Y-112522000D03*
X146558000Y-112522000D03*
X146558000Y-72517000D03*
X88773000Y-72517000D03*
D13*
X104648000Y-95758000D03*
D14*
X107188000Y-95758000D03*
X104648000Y-98298000D03*
X107188000Y-98298000D03*
X104648000Y-100838000D03*
X107188000Y-100838000D03*
X104648000Y-103378000D03*
X107188000Y-103378000D03*
X104648000Y-105918000D03*
X107188000Y-105918000D03*
D15*
X111252000Y-99060000D03*
X113284000Y-99060000D03*
X112268000Y-106680000D03*
D16*
X108458000Y-110998000D03*
D17*
X105958000Y-110998000D03*
D13*
X98552000Y-112776000D03*
D18*
X96012000Y-112776000D03*
X98552000Y-110236000D03*
X96012000Y-110236000D03*
X98552000Y-107696000D03*
X96012000Y-107696000D03*
X98552000Y-105156000D03*
X96012000Y-105156000D03*
X98552000Y-102616000D03*
X96012000Y-102616000D03*
X98552000Y-100076000D03*
X96012000Y-100076000D03*
X98552000Y-97536000D03*
X96012000Y-97536000D03*
X98552000Y-94996000D03*
X96012000Y-94996000D03*
X98552000Y-92456000D03*
X96012000Y-92456000D03*
X98552000Y-89916000D03*
X96012000Y-89916000D03*
X98552000Y-87376000D03*
X96012000Y-87376000D03*
X98552000Y-84836000D03*
X96012000Y-84836000D03*
X98552000Y-82296000D03*
X96012000Y-82296000D03*
X98552000Y-79756000D03*
X96012000Y-79756000D03*
X98552000Y-77216000D03*
X96012000Y-77216000D03*
X98552000Y-74676000D03*
X96012000Y-74676000D03*
X98552000Y-72136000D03*
X96012000Y-72136000D03*
D13*
X116840000Y-75438000D03*
D14*
X119380000Y-75438000D03*
X121920000Y-75438000D03*
X124460000Y-75438000D03*
X127000000Y-75438000D03*
X129540000Y-75438000D03*
D16*
X138176000Y-110998000D03*
D17*
X135676000Y-110998000D03*
X133176000Y-110998000D03*
X130676000Y-110998000D03*
M02*
