G04 #@! TF.FileFunction,Copper,L1,Top,Signal*
%FSLAX46Y46*%
G04 Gerber Fmt 4.6, Leading zero omitted, Abs format (unit mm)*
G04 Created by KiCad (PCBNEW 4.0.7) date 05/19/18 14:37:58*
%MOMM*%
%LPD*%
G01*
G04 APERTURE LIST*
%ADD10C,0.100000*%
%ADD11R,1.500000X0.300000*%
%ADD12R,0.300000X1.500000*%
%ADD13R,2.000000X2.400000*%
%ADD14R,2.500000X1.950000*%
%ADD15R,1.000000X1.250000*%
%ADD16R,1.250000X1.000000*%
%ADD17R,1.200000X1.200000*%
%ADD18R,1.500000X0.550000*%
%ADD19R,0.550000X1.500000*%
%ADD20R,0.900000X0.800000*%
%ADD21R,0.700000X1.300000*%
%ADD22R,1.300000X0.700000*%
%ADD23R,3.800000X2.000000*%
%ADD24R,1.500000X2.000000*%
%ADD25R,1.143000X0.508000*%
%ADD26R,1.250000X0.600000*%
%ADD27R,3.790000X1.200000*%
%ADD28R,1.400000X1.450000*%
%ADD29R,0.600000X1.000000*%
%ADD30R,0.850000X0.950000*%
%ADD31C,0.500000*%
%ADD32R,1.700000X1.700000*%
%ADD33O,1.700000X1.700000*%
%ADD34C,0.787400*%
%ADD35R,0.800000X0.500000*%
%ADD36R,0.800000X0.400000*%
%ADD37R,1.850000X1.850000*%
%ADD38C,1.850000*%
%ADD39C,1.700000*%
%ADD40C,0.800000*%
%ADD41C,0.600000*%
%ADD42C,0.500000*%
%ADD43C,0.250000*%
%ADD44C,0.400000*%
%ADD45C,1.000000*%
%ADD46C,0.254000*%
G04 APERTURE END LIST*
D10*
D11*
X111394000Y-83626000D03*
X111394000Y-84126000D03*
X111394000Y-84626000D03*
X111394000Y-85126000D03*
X111394000Y-85626000D03*
X111394000Y-86126000D03*
X111394000Y-86626000D03*
X111394000Y-87126000D03*
X111394000Y-87626000D03*
X111394000Y-88126000D03*
X111394000Y-88626000D03*
X111394000Y-89126000D03*
X111394000Y-89626000D03*
X111394000Y-90126000D03*
X111394000Y-90626000D03*
X111394000Y-91126000D03*
D12*
X113344000Y-93076000D03*
X113844000Y-93076000D03*
X114344000Y-93076000D03*
X114844000Y-93076000D03*
X115344000Y-93076000D03*
X115844000Y-93076000D03*
X116344000Y-93076000D03*
X116844000Y-93076000D03*
X117344000Y-93076000D03*
X117844000Y-93076000D03*
X118344000Y-93076000D03*
X118844000Y-93076000D03*
X119344000Y-93076000D03*
X119844000Y-93076000D03*
X120344000Y-93076000D03*
X120844000Y-93076000D03*
D11*
X122794000Y-91126000D03*
X122794000Y-90626000D03*
X122794000Y-90126000D03*
X122794000Y-89626000D03*
X122794000Y-89126000D03*
X122794000Y-88626000D03*
X122794000Y-88126000D03*
X122794000Y-87626000D03*
X122794000Y-87126000D03*
X122794000Y-86626000D03*
X122794000Y-86126000D03*
X122794000Y-85626000D03*
X122794000Y-85126000D03*
X122794000Y-84626000D03*
X122794000Y-84126000D03*
X122794000Y-83626000D03*
D12*
X120844000Y-81676000D03*
X120344000Y-81676000D03*
X119844000Y-81676000D03*
X119344000Y-81676000D03*
X118844000Y-81676000D03*
X118344000Y-81676000D03*
X117844000Y-81676000D03*
X117344000Y-81676000D03*
X116844000Y-81676000D03*
X116344000Y-81676000D03*
X115844000Y-81676000D03*
X115344000Y-81676000D03*
X114844000Y-81676000D03*
X114344000Y-81676000D03*
X113844000Y-81676000D03*
X113344000Y-81676000D03*
D13*
X134040000Y-74930000D03*
X137740000Y-74930000D03*
D14*
X113919000Y-112521000D03*
X113919000Y-115571000D03*
X125349000Y-112521000D03*
X125349000Y-115571000D03*
D15*
X108474000Y-80010000D03*
X110474000Y-80010000D03*
X123682000Y-78486000D03*
X121682000Y-78486000D03*
X117586000Y-95250000D03*
X115586000Y-95250000D03*
X117872000Y-78486000D03*
X119872000Y-78486000D03*
X138922000Y-98806000D03*
X136922000Y-98806000D03*
X128286000Y-97282000D03*
X130286000Y-97282000D03*
X141716000Y-75438000D03*
X139716000Y-75438000D03*
X133112000Y-72136000D03*
X135112000Y-72136000D03*
X138668000Y-72136000D03*
X136668000Y-72136000D03*
X136922000Y-97028000D03*
X138922000Y-97028000D03*
D16*
X139954000Y-101616000D03*
X139954000Y-103616000D03*
D17*
X111676000Y-70612000D03*
X113876000Y-70612000D03*
D18*
X141304000Y-92868000D03*
X141304000Y-92068000D03*
X141304000Y-91268000D03*
X141304000Y-90468000D03*
X141304000Y-89668000D03*
X141304000Y-88868000D03*
X141304000Y-88068000D03*
X141304000Y-87268000D03*
X141304000Y-86468000D03*
X141304000Y-85668000D03*
X141304000Y-84868000D03*
X141304000Y-84068000D03*
X141304000Y-83268000D03*
X141304000Y-82468000D03*
X141304000Y-81668000D03*
X141304000Y-80868000D03*
D19*
X139604000Y-79168000D03*
X138804000Y-79168000D03*
X138004000Y-79168000D03*
X137204000Y-79168000D03*
X136404000Y-79168000D03*
X135604000Y-79168000D03*
X134804000Y-79168000D03*
X134004000Y-79168000D03*
X133204000Y-79168000D03*
X132404000Y-79168000D03*
X131604000Y-79168000D03*
X130804000Y-79168000D03*
X130004000Y-79168000D03*
X129204000Y-79168000D03*
X128404000Y-79168000D03*
X127604000Y-79168000D03*
D18*
X125904000Y-80868000D03*
X125904000Y-81668000D03*
X125904000Y-82468000D03*
X125904000Y-83268000D03*
X125904000Y-84068000D03*
X125904000Y-84868000D03*
X125904000Y-85668000D03*
X125904000Y-86468000D03*
X125904000Y-87268000D03*
X125904000Y-88068000D03*
X125904000Y-88868000D03*
X125904000Y-89668000D03*
X125904000Y-90468000D03*
X125904000Y-91268000D03*
X125904000Y-92068000D03*
X125904000Y-92868000D03*
D19*
X127604000Y-94568000D03*
X128404000Y-94568000D03*
X129204000Y-94568000D03*
X130004000Y-94568000D03*
X130804000Y-94568000D03*
X131604000Y-94568000D03*
X132404000Y-94568000D03*
X133204000Y-94568000D03*
X134004000Y-94568000D03*
X134804000Y-94568000D03*
X135604000Y-94568000D03*
X136404000Y-94568000D03*
X137204000Y-94568000D03*
X138004000Y-94568000D03*
X138804000Y-94568000D03*
X139604000Y-94568000D03*
D20*
X147082000Y-82362000D03*
X147082000Y-84262000D03*
X149082000Y-83312000D03*
D21*
X105090000Y-80010000D03*
X103190000Y-80010000D03*
D22*
X114046000Y-74356000D03*
X114046000Y-72456000D03*
D21*
X113726000Y-97028000D03*
X111826000Y-97028000D03*
D22*
X143764000Y-77028000D03*
X143764000Y-78928000D03*
X147320000Y-77028000D03*
X147320000Y-78928000D03*
X149098000Y-77028000D03*
X149098000Y-78928000D03*
X145542000Y-77028000D03*
X145542000Y-78928000D03*
D23*
X119634000Y-115926000D03*
D24*
X119634000Y-109626000D03*
X117334000Y-109626000D03*
X121934000Y-109626000D03*
D25*
X141986000Y-99822000D03*
X141986000Y-101092000D03*
X141986000Y-102362000D03*
X141986000Y-103632000D03*
X141986000Y-104902000D03*
X141986000Y-106172000D03*
X141986000Y-107442000D03*
X148336000Y-107442000D03*
X148336000Y-106172000D03*
X148336000Y-103632000D03*
X148336000Y-102362000D03*
X148336000Y-101092000D03*
X148336000Y-99822000D03*
X148336000Y-104902000D03*
D26*
X145622800Y-88641600D03*
X145622800Y-89741600D03*
X145622800Y-90841600D03*
X145622800Y-91941600D03*
X145622800Y-93041600D03*
X145622800Y-94141600D03*
X145622800Y-95241600D03*
X145622800Y-96341600D03*
D27*
X148122800Y-97491600D03*
D28*
X147372800Y-87016600D03*
D29*
X148622800Y-86791600D03*
D30*
X149597800Y-87716600D03*
D31*
X86360000Y-116332000D03*
X148844000Y-116332000D03*
X86360000Y-68580000D03*
D32*
X104648000Y-94996000D03*
D33*
X107188000Y-94996000D03*
X104648000Y-97536000D03*
X107188000Y-97536000D03*
X104648000Y-100076000D03*
X107188000Y-100076000D03*
X104648000Y-102616000D03*
X107188000Y-102616000D03*
X104648000Y-105156000D03*
X107188000Y-105156000D03*
D34*
X112903000Y-105410000D03*
X112903000Y-104140000D03*
X112903000Y-102870000D03*
X112903000Y-101600000D03*
X112903000Y-100330000D03*
X111633000Y-100330000D03*
X111633000Y-101600000D03*
X111633000Y-102870000D03*
X111633000Y-104140000D03*
X111633000Y-105410000D03*
D35*
X103113000Y-75762000D03*
D36*
X103113000Y-77362000D03*
X103113000Y-76562000D03*
D35*
X103113000Y-78162000D03*
D36*
X104913000Y-76562000D03*
D35*
X104913000Y-75762000D03*
D36*
X104913000Y-77362000D03*
D35*
X104913000Y-78162000D03*
X108088000Y-78162000D03*
D36*
X108088000Y-76562000D03*
X108088000Y-77362000D03*
D35*
X108088000Y-75762000D03*
D36*
X106288000Y-77362000D03*
D35*
X106288000Y-78162000D03*
D36*
X106288000Y-76562000D03*
D35*
X106288000Y-75762000D03*
X103113000Y-71952000D03*
D36*
X103113000Y-73552000D03*
X103113000Y-72752000D03*
D35*
X103113000Y-74352000D03*
D36*
X104913000Y-72752000D03*
D35*
X104913000Y-71952000D03*
D36*
X104913000Y-73552000D03*
D35*
X104913000Y-74352000D03*
X108088000Y-74352000D03*
D36*
X108088000Y-72752000D03*
X108088000Y-73552000D03*
D35*
X108088000Y-71952000D03*
D36*
X106288000Y-73552000D03*
D35*
X106288000Y-74352000D03*
D36*
X106288000Y-72752000D03*
D35*
X106288000Y-71952000D03*
X103113000Y-86176000D03*
D36*
X103113000Y-87776000D03*
X103113000Y-86976000D03*
D35*
X103113000Y-88576000D03*
D36*
X104913000Y-86976000D03*
D35*
X104913000Y-86176000D03*
D36*
X104913000Y-87776000D03*
D35*
X104913000Y-88576000D03*
X108088000Y-88576000D03*
D36*
X108088000Y-86976000D03*
X108088000Y-87776000D03*
D35*
X108088000Y-86176000D03*
D36*
X106288000Y-87776000D03*
D35*
X106288000Y-88576000D03*
D36*
X106288000Y-86976000D03*
D35*
X106288000Y-86176000D03*
X103113000Y-82366000D03*
D36*
X103113000Y-83966000D03*
X103113000Y-83166000D03*
D35*
X103113000Y-84766000D03*
D36*
X104913000Y-83166000D03*
D35*
X104913000Y-82366000D03*
D36*
X104913000Y-83966000D03*
D35*
X104913000Y-84766000D03*
X108088000Y-84766000D03*
D36*
X108088000Y-83166000D03*
X108088000Y-83966000D03*
D35*
X108088000Y-82366000D03*
D36*
X106288000Y-83966000D03*
D35*
X106288000Y-84766000D03*
D36*
X106288000Y-83166000D03*
D35*
X106288000Y-82366000D03*
X103113000Y-89986000D03*
D36*
X103113000Y-91586000D03*
X103113000Y-90786000D03*
D35*
X103113000Y-92386000D03*
D36*
X104913000Y-90786000D03*
D35*
X104913000Y-89986000D03*
D36*
X104913000Y-91586000D03*
D35*
X104913000Y-92386000D03*
X108088000Y-92386000D03*
D36*
X108088000Y-90786000D03*
X108088000Y-91586000D03*
D35*
X108088000Y-89986000D03*
D36*
X106288000Y-91586000D03*
D35*
X106288000Y-92386000D03*
D36*
X106288000Y-90786000D03*
D35*
X106288000Y-89986000D03*
D37*
X108458000Y-110998000D03*
D38*
X105958000Y-110998000D03*
D32*
X98552000Y-112776000D03*
D39*
X96012000Y-112776000D03*
X98552000Y-110236000D03*
X96012000Y-110236000D03*
X98552000Y-107696000D03*
X96012000Y-107696000D03*
X98552000Y-105156000D03*
X96012000Y-105156000D03*
X98552000Y-102616000D03*
X96012000Y-102616000D03*
X98552000Y-100076000D03*
X96012000Y-100076000D03*
X98552000Y-97536000D03*
X96012000Y-97536000D03*
X98552000Y-94996000D03*
X96012000Y-94996000D03*
X98552000Y-92456000D03*
X96012000Y-92456000D03*
X98552000Y-89916000D03*
X96012000Y-89916000D03*
X98552000Y-87376000D03*
X96012000Y-87376000D03*
X98552000Y-84836000D03*
X96012000Y-84836000D03*
X98552000Y-82296000D03*
X96012000Y-82296000D03*
X98552000Y-79756000D03*
X96012000Y-79756000D03*
X98552000Y-77216000D03*
X96012000Y-77216000D03*
X98552000Y-74676000D03*
X96012000Y-74676000D03*
X98552000Y-72136000D03*
X96012000Y-72136000D03*
D32*
X116840000Y-75438000D03*
D33*
X119380000Y-75438000D03*
X121920000Y-75438000D03*
X124460000Y-75438000D03*
X127000000Y-75438000D03*
X129540000Y-75438000D03*
D16*
X141732000Y-95012000D03*
X141732000Y-97012000D03*
D37*
X138176000Y-110998000D03*
D38*
X135676000Y-110998000D03*
X133176000Y-110998000D03*
X130676000Y-110998000D03*
D21*
X135194000Y-106934000D03*
X137094000Y-106934000D03*
X133792000Y-106934000D03*
X131892000Y-106934000D03*
X125664000Y-98044000D03*
X123764000Y-98044000D03*
D40*
X115062000Y-96774000D03*
X127000000Y-101854000D03*
X140208000Y-98806000D03*
X137668000Y-101092000D03*
X127000000Y-109982000D03*
X133858000Y-86360000D03*
X137160000Y-86360000D03*
X141732000Y-73406000D03*
X127000000Y-97282000D03*
X114046000Y-94742000D03*
D41*
X123190000Y-105664000D03*
X135128000Y-82042000D03*
X116840000Y-85852000D03*
X118110000Y-72136000D03*
X109474000Y-98552000D03*
X110490000Y-94996000D03*
X109220000Y-114554000D03*
X117602000Y-111760000D03*
X139954000Y-106426000D03*
D40*
X141732000Y-98806000D03*
X144780000Y-97536000D03*
D41*
X113030000Y-90678000D03*
D40*
X104902000Y-68580000D03*
X104902000Y-71120000D03*
X143510000Y-88138000D03*
X130556000Y-98552000D03*
X135128000Y-98806000D03*
X112014000Y-80772000D03*
X139700000Y-68580000D03*
X135128000Y-68580000D03*
D41*
X120650000Y-87122000D03*
X122174000Y-80010000D03*
X100330000Y-115062000D03*
X118110000Y-77216000D03*
D40*
X133858000Y-84074000D03*
X139446000Y-83312000D03*
X144272000Y-84074000D03*
X133858000Y-69850000D03*
X125222000Y-78486000D03*
X108966000Y-69850000D03*
X107188000Y-80010000D03*
X114808000Y-101600000D03*
X115570000Y-98044000D03*
X125476000Y-110236000D03*
X119634000Y-107442000D03*
X119634000Y-113284000D03*
D41*
X123444000Y-80010000D03*
X121158000Y-88646000D03*
X146050000Y-98806000D03*
X139954000Y-100838000D03*
X149606000Y-89662000D03*
X149352000Y-99060000D03*
X149098000Y-77978000D03*
X149606000Y-82042000D03*
X147066000Y-100838000D03*
X146050000Y-85852000D03*
X145288000Y-84836000D03*
X147066000Y-106172000D03*
X143002000Y-84074000D03*
X143002000Y-86360000D03*
X143764000Y-99568000D03*
X143764000Y-103124000D03*
X148082000Y-95250000D03*
X145796000Y-83312000D03*
X143002000Y-82550000D03*
X144526000Y-82550000D03*
X148844000Y-88900000D03*
X139446000Y-81534000D03*
X127508000Y-82296000D03*
X122936000Y-82296000D03*
X128016000Y-81534000D03*
X123444000Y-81534000D03*
X124460000Y-91186000D03*
X120904000Y-89662000D03*
X123952000Y-92202000D03*
X120396000Y-90424000D03*
X124460000Y-92964000D03*
X120396000Y-91440000D03*
D31*
X104013000Y-92329000D03*
X107188000Y-92329000D03*
X104013000Y-91567000D03*
X107188000Y-91567000D03*
D41*
X113030000Y-89662000D03*
D31*
X104013000Y-90805000D03*
X107188000Y-90805000D03*
X104013000Y-89916000D03*
X107188000Y-89916000D03*
D41*
X113030000Y-86868000D03*
D31*
X104013000Y-88519000D03*
X107188000Y-88519000D03*
X104013000Y-87757000D03*
X107188000Y-87757000D03*
X104013000Y-86995000D03*
X107188000Y-86995000D03*
X104013000Y-86233000D03*
X107188000Y-86233000D03*
X104013000Y-84836000D03*
X107188000Y-84836000D03*
X104013000Y-83947000D03*
X107188000Y-83947000D03*
X104013000Y-83185000D03*
X107188000Y-83185000D03*
X104013000Y-82296000D03*
X107188000Y-82296000D03*
D41*
X108712000Y-81280000D03*
X103124000Y-81280000D03*
D31*
X104013000Y-78105000D03*
X107188000Y-78105000D03*
X104013000Y-77343000D03*
X107188000Y-77343000D03*
X104013000Y-76581000D03*
X107188000Y-76581000D03*
X104013000Y-75692000D03*
X107188000Y-75692000D03*
X104013000Y-74295000D03*
X107188000Y-74295000D03*
X104013000Y-73533000D03*
X107188000Y-73533000D03*
X104013000Y-72771000D03*
X107188000Y-72771000D03*
X104013000Y-71882000D03*
X107188000Y-71882000D03*
D41*
X148082000Y-80264000D03*
X148082000Y-88646000D03*
X144526000Y-100076000D03*
X144526000Y-101600000D03*
X145288000Y-99568000D03*
X146304000Y-102870000D03*
X149606000Y-107188000D03*
X146812000Y-93218000D03*
X147320000Y-79756000D03*
X148844000Y-96012000D03*
X127508000Y-92964000D03*
X112014000Y-95504000D03*
X122174000Y-99314000D03*
X122174000Y-101854000D03*
X109601000Y-103886000D03*
X118110000Y-104648000D03*
X118872000Y-98806000D03*
X118872000Y-100330000D03*
X105918000Y-101346000D03*
X118110000Y-98044000D03*
X119634000Y-98044000D03*
X114808000Y-100330000D03*
X116332000Y-101092000D03*
X114808000Y-105410000D03*
X116332000Y-105410000D03*
X121158000Y-98806000D03*
X121158000Y-101346000D03*
X120142000Y-95885000D03*
X118872000Y-83693000D03*
X103251000Y-103886000D03*
X114808000Y-102870000D03*
X141732000Y-93980000D03*
X138176000Y-89408000D03*
X138430000Y-92202000D03*
X135128000Y-103505000D03*
X138430000Y-90932000D03*
X134112000Y-103505000D03*
X125730000Y-97028000D03*
X128524000Y-92964000D03*
D42*
X113726000Y-97028000D02*
X113980000Y-96774000D01*
X113980000Y-96774000D02*
X115062000Y-96774000D01*
D43*
X106288000Y-92386000D02*
X107247000Y-93345000D01*
X113726000Y-96200000D02*
X113726000Y-97028000D01*
X110871000Y-93345000D02*
X113726000Y-96200000D01*
X107247000Y-93345000D02*
X110871000Y-93345000D01*
D44*
X141304000Y-87268000D02*
X138068000Y-87268000D01*
X138068000Y-87268000D02*
X137160000Y-86360000D01*
X138176000Y-110998000D02*
X138176000Y-103632000D01*
X137668000Y-103124000D02*
X137668000Y-101092000D01*
X138176000Y-103632000D02*
X137668000Y-103124000D01*
X132842000Y-101092000D02*
X137668000Y-101092000D01*
X132080000Y-101854000D02*
X132842000Y-101092000D01*
X132080000Y-101854000D02*
X127000000Y-101854000D01*
D45*
X111676000Y-70612000D02*
X110490000Y-70612000D01*
X110490000Y-70612000D02*
X110236000Y-70866000D01*
X127000000Y-109982000D02*
X127000000Y-109220000D01*
X127000000Y-109220000D02*
X125222000Y-107442000D01*
X120650000Y-105918000D02*
X122174000Y-107442000D01*
X117334000Y-106948000D02*
X118364000Y-105918000D01*
X118364000Y-105918000D02*
X120650000Y-105918000D01*
X117334000Y-109626000D02*
X117334000Y-106948000D01*
X125222000Y-107442000D02*
X122174000Y-107442000D01*
X141716000Y-75438000D02*
X141716000Y-73422000D01*
X137160000Y-86360000D02*
X133858000Y-86360000D01*
X141716000Y-73422000D02*
X141732000Y-73406000D01*
D44*
X145542000Y-77028000D02*
X145542000Y-76454000D01*
X142224000Y-75946000D02*
X141716000Y-75438000D01*
X145034000Y-75946000D02*
X142224000Y-75946000D01*
X145542000Y-76454000D02*
X145034000Y-75946000D01*
X140208000Y-98806000D02*
X140208000Y-95172000D01*
X140208000Y-95172000D02*
X139604000Y-94568000D01*
X138922000Y-98806000D02*
X140208000Y-98806000D01*
D45*
X127000000Y-97282000D02*
X128286000Y-97282000D01*
D44*
X106288000Y-71258000D02*
X106680000Y-70866000D01*
X106680000Y-70866000D02*
X110236000Y-70866000D01*
X106288000Y-71258000D02*
X106288000Y-71952000D01*
D43*
X106288000Y-82366000D02*
X106288000Y-81208000D01*
X106288000Y-81208000D02*
X105090000Y-80010000D01*
D45*
X113919000Y-112521000D02*
X114439000Y-112521000D01*
X114439000Y-112521000D02*
X117334000Y-109626000D01*
X108458000Y-110998000D02*
X108458000Y-111760000D01*
X108458000Y-111760000D02*
X109219000Y-112521000D01*
X109219000Y-112521000D02*
X113919000Y-112521000D01*
D43*
X141304000Y-91268000D02*
X140126000Y-91268000D01*
X140126000Y-91268000D02*
X139604000Y-91790000D01*
X139604000Y-91790000D02*
X139604000Y-94568000D01*
X130004000Y-94568000D02*
X130004000Y-95802000D01*
X130004000Y-95802000D02*
X128524000Y-97282000D01*
X128524000Y-97282000D02*
X128286000Y-97282000D01*
X136404000Y-79168000D02*
X136404000Y-77660002D01*
X140462000Y-77216000D02*
X141716000Y-75962000D01*
X136848002Y-77216000D02*
X140462000Y-77216000D01*
X136404000Y-77660002D02*
X136848002Y-77216000D01*
X141716000Y-75962000D02*
X141716000Y-75438000D01*
X105090000Y-80010000D02*
X105918000Y-80010000D01*
X105918000Y-80010000D02*
X106288000Y-79640000D01*
X106288000Y-79640000D02*
X106288000Y-78162000D01*
X106288000Y-78162000D02*
X106288000Y-77362000D01*
X106288000Y-77362000D02*
X106288000Y-76562000D01*
X106288000Y-76562000D02*
X106288000Y-75762000D01*
X106288000Y-75762000D02*
X106288000Y-74352000D01*
X106288000Y-74352000D02*
X106288000Y-73552000D01*
X106288000Y-73552000D02*
X106288000Y-72752000D01*
X106288000Y-72752000D02*
X106288000Y-71952000D01*
X106288000Y-92386000D02*
X106288000Y-91586000D01*
X106288000Y-91586000D02*
X106288000Y-90786000D01*
X106288000Y-90786000D02*
X106288000Y-89986000D01*
X106288000Y-89986000D02*
X106288000Y-88576000D01*
X106288000Y-88576000D02*
X106288000Y-87776000D01*
X106288000Y-87776000D02*
X106288000Y-86976000D01*
X106288000Y-86976000D02*
X106288000Y-86176000D01*
X106288000Y-86176000D02*
X106288000Y-84766000D01*
X106288000Y-84766000D02*
X106288000Y-83966000D01*
X106288000Y-83966000D02*
X106288000Y-83166000D01*
X106288000Y-83166000D02*
X106288000Y-82366000D01*
X116344000Y-93076000D02*
X116344000Y-90678000D01*
X116344000Y-90678000D02*
X116332000Y-90678000D01*
X115344000Y-93076000D02*
X115344000Y-90678000D01*
X115344000Y-90678000D02*
X115316000Y-90678000D01*
X117344000Y-93076000D02*
X117344000Y-90678000D01*
X117344000Y-90678000D02*
X117348000Y-90678000D01*
X116844000Y-93076000D02*
X116844000Y-90678000D01*
X116844000Y-90678000D02*
X116840000Y-90678000D01*
X115844000Y-93076000D02*
X115844000Y-90678000D01*
X115844000Y-90678000D02*
X115824000Y-90678000D01*
X114844000Y-93076000D02*
X114844000Y-90678000D01*
X114844000Y-90678000D02*
X114808000Y-90678000D01*
X114344000Y-93076000D02*
X114344000Y-90678000D01*
X114344000Y-90678000D02*
X114300000Y-90678000D01*
X113844000Y-93076000D02*
X113844000Y-90678000D01*
X113844000Y-90678000D02*
X113792000Y-90678000D01*
X119380000Y-82804000D02*
X119634000Y-82804000D01*
X119634000Y-82804000D02*
X120015000Y-83185000D01*
X119344000Y-82804000D02*
X119380000Y-82804000D01*
X119380000Y-82804000D02*
X119888000Y-82804000D01*
X119888000Y-82804000D02*
X120015000Y-82931000D01*
X120015000Y-83820000D02*
X120015000Y-84455000D01*
X120015000Y-83566000D02*
X120015000Y-83820000D01*
X117344000Y-81676000D02*
X117344000Y-83689000D01*
X117344000Y-83689000D02*
X117348000Y-83693000D01*
X120015000Y-83185000D02*
X120015000Y-83566000D01*
X120015000Y-84455000D02*
X119507000Y-84963000D01*
X119507000Y-84963000D02*
X117729000Y-84963000D01*
X117729000Y-84963000D02*
X117348000Y-84582000D01*
X117348000Y-84582000D02*
X117348000Y-83693000D01*
X119844000Y-81676000D02*
X119844000Y-82760000D01*
X119844000Y-82760000D02*
X120015000Y-82931000D01*
X120015000Y-82931000D02*
X120015000Y-83185000D01*
X119344000Y-81676000D02*
X119344000Y-82804000D01*
X118344000Y-93076000D02*
X118344000Y-91039000D01*
X117983000Y-90678000D02*
X117348000Y-90678000D01*
X117348000Y-90678000D02*
X116840000Y-90678000D01*
X116840000Y-90678000D02*
X116332000Y-90678000D01*
X116332000Y-90678000D02*
X115824000Y-90678000D01*
X115824000Y-90678000D02*
X115316000Y-90678000D01*
X115316000Y-90678000D02*
X114808000Y-90678000D01*
X114808000Y-90678000D02*
X114300000Y-90678000D01*
X114300000Y-90678000D02*
X113792000Y-90678000D01*
X113792000Y-90678000D02*
X113030000Y-90678000D01*
X118344000Y-91039000D02*
X117983000Y-90678000D01*
X113344000Y-93076000D02*
X113344000Y-90992000D01*
X113344000Y-90992000D02*
X113030000Y-90678000D01*
D45*
X115586000Y-95250000D02*
X114554000Y-95250000D01*
X114554000Y-95250000D02*
X114046000Y-94742000D01*
D43*
X104913000Y-92386000D02*
X104913000Y-92721000D01*
X104913000Y-92721000D02*
X107188000Y-94996000D01*
X107188000Y-105156000D02*
X111379000Y-105156000D01*
X111379000Y-105156000D02*
X111633000Y-105410000D01*
X130676000Y-110998000D02*
X130676000Y-108324000D01*
X128016000Y-105664000D02*
X123190000Y-105664000D01*
X130676000Y-108324000D02*
X128016000Y-105664000D01*
D45*
X125349000Y-115571000D02*
X130047000Y-115571000D01*
X130676000Y-114942000D02*
X130676000Y-110998000D01*
X130047000Y-115571000D02*
X130676000Y-114942000D01*
D43*
X138804000Y-94568000D02*
X138804000Y-93592000D01*
X138804000Y-89796000D02*
X138430000Y-90170000D01*
X138430000Y-93218000D02*
X138804000Y-93592000D01*
X137922000Y-93218000D02*
X138430000Y-93218000D01*
X137668000Y-92964000D02*
X137922000Y-93218000D01*
X137668000Y-90424000D02*
X137668000Y-92964000D01*
X137922000Y-90170000D02*
X137668000Y-90424000D01*
X138430000Y-90170000D02*
X137922000Y-90170000D01*
D44*
X139954000Y-103616000D02*
X139176000Y-103616000D01*
X138684000Y-103124000D02*
X138684000Y-100076000D01*
X139176000Y-103616000D02*
X138684000Y-103124000D01*
D43*
X123764000Y-98044000D02*
X123764000Y-98618000D01*
X123764000Y-98618000D02*
X124206000Y-99060000D01*
X124206000Y-99060000D02*
X130048000Y-99060000D01*
X130048000Y-99060000D02*
X130556000Y-98552000D01*
D44*
X141732000Y-98806000D02*
X141732000Y-97012000D01*
X144780000Y-97536000D02*
X144526000Y-97282000D01*
X144526000Y-94234000D02*
X144618400Y-94141600D01*
X144526000Y-97282000D02*
X144526000Y-94234000D01*
X144618400Y-94141600D02*
X145622800Y-94141600D01*
D43*
X110490000Y-97028000D02*
X110490000Y-94996000D01*
X110490000Y-97028000D02*
X109474000Y-98044000D01*
X109474000Y-98298000D02*
X109474000Y-98044000D01*
X109220000Y-115571000D02*
X109220000Y-114554000D01*
X139954000Y-103616000D02*
X139954000Y-106426000D01*
D44*
X118872000Y-76708000D02*
X118618000Y-76454000D01*
X118618000Y-76454000D02*
X117602000Y-75438000D01*
X117602000Y-75438000D02*
X116840000Y-75438000D01*
X119872000Y-78486000D02*
X119872000Y-76946000D01*
X119634000Y-76708000D02*
X118872000Y-76708000D01*
X119872000Y-76946000D02*
X119634000Y-76708000D01*
X148122800Y-97491600D02*
X144824400Y-97491600D01*
X141732000Y-98806000D02*
X141732000Y-99568000D01*
X144824400Y-97491600D02*
X144780000Y-97536000D01*
X141732000Y-99568000D02*
X141986000Y-99822000D01*
X148336000Y-104902000D02*
X146812000Y-104902000D01*
X144272000Y-107442000D02*
X141986000Y-107442000D01*
X146812000Y-104902000D02*
X144272000Y-107442000D01*
X136922000Y-98806000D02*
X136922000Y-99330000D01*
X136922000Y-99330000D02*
X137668000Y-100076000D01*
X138430000Y-100076000D02*
X137668000Y-100076000D01*
X141986000Y-99822000D02*
X140208000Y-99822000D01*
X139954000Y-100076000D02*
X138684000Y-100076000D01*
X140208000Y-99822000D02*
X139954000Y-100076000D01*
X138684000Y-100076000D02*
X138430000Y-100076000D01*
D43*
X111394000Y-90126000D02*
X112478000Y-90126000D01*
X112478000Y-90126000D02*
X113030000Y-90678000D01*
X104913000Y-82366000D02*
X104913000Y-82053000D01*
X104140000Y-78935000D02*
X104913000Y-78162000D01*
X104140000Y-81280000D02*
X104140000Y-78935000D01*
X104913000Y-82053000D02*
X104140000Y-81280000D01*
D44*
X104913000Y-71952000D02*
X104913000Y-71131000D01*
X104913000Y-71131000D02*
X104902000Y-71120000D01*
D45*
X147372800Y-87016600D02*
X144631400Y-87016600D01*
X144631400Y-87016600D02*
X143510000Y-88138000D01*
X130286000Y-97282000D02*
X130286000Y-98282000D01*
X130286000Y-98282000D02*
X130556000Y-98552000D01*
X136922000Y-98806000D02*
X135128000Y-98806000D01*
X110474000Y-80010000D02*
X111252000Y-80010000D01*
X111252000Y-80010000D02*
X112014000Y-80772000D01*
D44*
X139716000Y-75438000D02*
X139716000Y-68596000D01*
X139716000Y-68596000D02*
X139700000Y-68580000D01*
X136668000Y-72136000D02*
X135112000Y-72136000D01*
X135112000Y-72136000D02*
X135112000Y-68596000D01*
X135112000Y-68596000D02*
X135128000Y-68580000D01*
X121682000Y-78486000D02*
X119872000Y-78486000D01*
X116840000Y-75454000D02*
X116840000Y-75438000D01*
D45*
X121934000Y-109626000D02*
X121934000Y-111520000D01*
X121934000Y-111520000D02*
X122174000Y-111760000D01*
X113919000Y-115571000D02*
X115823000Y-115571000D01*
X123699000Y-115571000D02*
X125349000Y-115571000D01*
X122936000Y-114808000D02*
X123699000Y-115571000D01*
X122936000Y-112522000D02*
X122936000Y-114808000D01*
X122174000Y-111760000D02*
X122936000Y-112522000D01*
X117602000Y-111760000D02*
X122174000Y-111760000D01*
X116586000Y-112776000D02*
X117602000Y-111760000D01*
X116586000Y-114808000D02*
X116586000Y-112776000D01*
X115823000Y-115571000D02*
X116586000Y-114808000D01*
X105958000Y-110998000D02*
X105958000Y-114594000D01*
X106935000Y-115571000D02*
X109220000Y-115571000D01*
X109220000Y-115571000D02*
X113919000Y-115571000D01*
X105958000Y-114594000D02*
X106935000Y-115571000D01*
D43*
X141304000Y-88868000D02*
X139732000Y-88868000D01*
X139732000Y-88868000D02*
X139319000Y-89281000D01*
X139319000Y-89281000D02*
X138804000Y-89796000D01*
X139954000Y-103616000D02*
X141970000Y-103616000D01*
X141970000Y-103616000D02*
X141986000Y-103632000D01*
X141986000Y-107442000D02*
X141224000Y-107442000D01*
X141224000Y-107442000D02*
X140970000Y-107188000D01*
X140970000Y-107188000D02*
X140970000Y-103886000D01*
X140970000Y-103886000D02*
X141224000Y-103632000D01*
X141224000Y-103632000D02*
X141986000Y-103632000D01*
X148336000Y-102362000D02*
X149098000Y-102362000D01*
X149098000Y-104902000D02*
X148336000Y-104902000D01*
X149352000Y-104648000D02*
X149098000Y-104902000D01*
X149352000Y-102616000D02*
X149352000Y-104648000D01*
X149098000Y-102362000D02*
X149352000Y-102616000D01*
X148336000Y-101092000D02*
X148336000Y-102362000D01*
X148622800Y-86791600D02*
X147597800Y-86791600D01*
X147597800Y-86791600D02*
X147372800Y-87016600D01*
X111633000Y-105410000D02*
X112903000Y-104140000D01*
X130804000Y-94568000D02*
X130804000Y-96764000D01*
X130804000Y-96764000D02*
X130286000Y-97282000D01*
X138922000Y-97028000D02*
X138700000Y-97028000D01*
X138700000Y-97028000D02*
X136922000Y-98806000D01*
X135604000Y-79168000D02*
X135604000Y-77502000D01*
X139716000Y-76438000D02*
X139716000Y-75438000D01*
X139446000Y-76708000D02*
X139716000Y-76438000D01*
X136398000Y-76708000D02*
X139446000Y-76708000D01*
X135604000Y-77502000D02*
X136398000Y-76708000D01*
X138804000Y-94568000D02*
X138804000Y-96910000D01*
X138804000Y-96910000D02*
X138922000Y-97028000D01*
X121682000Y-78486000D02*
X121682000Y-79518000D01*
X120654000Y-87126000D02*
X122794000Y-87126000D01*
X120650000Y-87122000D02*
X120654000Y-87126000D01*
X121682000Y-79518000D02*
X122174000Y-80010000D01*
X115344000Y-93076000D02*
X115344000Y-95008000D01*
X115344000Y-95008000D02*
X115586000Y-95250000D01*
X118344000Y-81676000D02*
X118344000Y-79776000D01*
X118344000Y-79776000D02*
X119634000Y-78486000D01*
X119634000Y-78486000D02*
X119872000Y-78486000D01*
X104913000Y-78162000D02*
X104913000Y-77362000D01*
X104913000Y-77362000D02*
X104913000Y-76562000D01*
X104913000Y-76562000D02*
X104913000Y-75762000D01*
X104913000Y-75762000D02*
X104913000Y-74352000D01*
X104913000Y-74352000D02*
X104913000Y-73552000D01*
X104913000Y-73552000D02*
X104913000Y-72752000D01*
X104913000Y-72752000D02*
X104913000Y-71952000D01*
X104913000Y-92386000D02*
X104913000Y-91586000D01*
X104913000Y-91586000D02*
X104913000Y-90786000D01*
X104913000Y-90786000D02*
X104913000Y-89986000D01*
X104913000Y-89986000D02*
X104913000Y-88576000D01*
X104913000Y-88576000D02*
X104913000Y-87776000D01*
X104913000Y-87776000D02*
X104913000Y-86976000D01*
X104913000Y-86976000D02*
X104913000Y-86176000D01*
X104913000Y-86176000D02*
X104913000Y-84766000D01*
X104913000Y-84766000D02*
X104913000Y-83966000D01*
X104913000Y-83966000D02*
X104913000Y-83166000D01*
X104913000Y-83166000D02*
X104913000Y-82366000D01*
D45*
X133858000Y-84074000D02*
X134620000Y-83312000D01*
X134620000Y-83312000D02*
X139446000Y-83312000D01*
X95504000Y-69850000D02*
X93726000Y-71628000D01*
X93726000Y-113792000D02*
X93726000Y-71628000D01*
X94996000Y-115062000D02*
X93726000Y-113792000D01*
X100330000Y-115062000D02*
X94996000Y-115062000D01*
X95504000Y-69850000D02*
X108966000Y-69850000D01*
D44*
X117872000Y-78486000D02*
X117872000Y-77454000D01*
X117872000Y-77454000D02*
X118110000Y-77216000D01*
D45*
X108966000Y-69850000D02*
X110236000Y-68580000D01*
X132588000Y-68580000D02*
X133858000Y-69850000D01*
X110236000Y-68580000D02*
X132588000Y-68580000D01*
D44*
X147082000Y-84262000D02*
X145730000Y-84262000D01*
X145542000Y-84074000D02*
X144272000Y-84074000D01*
X145730000Y-84262000D02*
X145542000Y-84074000D01*
D45*
X123682000Y-78486000D02*
X125222000Y-78486000D01*
X108474000Y-80010000D02*
X107188000Y-80010000D01*
D44*
X112903000Y-101600000D02*
X114808000Y-101600000D01*
D45*
X117586000Y-96028000D02*
X117586000Y-95250000D01*
X115570000Y-98044000D02*
X117586000Y-96028000D01*
X125349000Y-112521000D02*
X125349000Y-110363000D01*
X125349000Y-110363000D02*
X125476000Y-110236000D01*
X119634000Y-115926000D02*
X119634000Y-113284000D01*
X119634000Y-107442000D02*
X119634000Y-109626000D01*
D43*
X111394000Y-84626000D02*
X112732000Y-84626000D01*
X109744000Y-81280000D02*
X108474000Y-80010000D01*
X110998000Y-81280000D02*
X109744000Y-81280000D01*
X113030000Y-83312000D02*
X110998000Y-81280000D01*
X113030000Y-84328000D02*
X113030000Y-83312000D01*
X112732000Y-84626000D02*
X113030000Y-84328000D01*
X122794000Y-89126000D02*
X121638000Y-89126000D01*
X123682000Y-79772000D02*
X123682000Y-78486000D01*
X123444000Y-80010000D02*
X123682000Y-79772000D01*
X121638000Y-89126000D02*
X121158000Y-88646000D01*
X117844000Y-93076000D02*
X117844000Y-94992000D01*
X117844000Y-94992000D02*
X117586000Y-95250000D01*
X117844000Y-81676000D02*
X117844000Y-78514000D01*
X117844000Y-78514000D02*
X117872000Y-78486000D01*
X134004000Y-79168000D02*
X134040000Y-79132000D01*
X134040000Y-79132000D02*
X134040000Y-74930000D01*
X134040000Y-74930000D02*
X133112000Y-74002000D01*
X133112000Y-74002000D02*
X133112000Y-72136000D01*
X137740000Y-74930000D02*
X138668000Y-74002000D01*
X138668000Y-74002000D02*
X138668000Y-72136000D01*
X134804000Y-79168000D02*
X134804000Y-77286000D01*
X134804000Y-77286000D02*
X137160000Y-74930000D01*
X137160000Y-74930000D02*
X137740000Y-74930000D01*
X138004000Y-94568000D02*
X138004000Y-95946000D01*
X138004000Y-95946000D02*
X136922000Y-97028000D01*
X139954000Y-101616000D02*
X139954000Y-100838000D01*
X147066000Y-99822000D02*
X148336000Y-99822000D01*
X146050000Y-98806000D02*
X147066000Y-99822000D01*
X145622800Y-91941600D02*
X149358400Y-91941600D01*
X149606000Y-91694000D02*
X149606000Y-89662000D01*
X149358400Y-91941600D02*
X149606000Y-91694000D01*
X148336000Y-99822000D02*
X148590000Y-99822000D01*
X148590000Y-99822000D02*
X149352000Y-99060000D01*
X147320000Y-77028000D02*
X147320000Y-77978000D01*
X143764000Y-77028000D02*
X143764000Y-77470000D01*
X144272000Y-77978000D02*
X147320000Y-77978000D01*
X147320000Y-77978000D02*
X149098000Y-77978000D01*
X143764000Y-77470000D02*
X144272000Y-77978000D01*
X149082000Y-83312000D02*
X149082000Y-82566000D01*
X149098000Y-77978000D02*
X149098000Y-77028000D01*
X149082000Y-82566000D02*
X149606000Y-82042000D01*
X114046000Y-72456000D02*
X114046000Y-70782000D01*
X114046000Y-70782000D02*
X113876000Y-70612000D01*
X141986000Y-101092000D02*
X143002000Y-101092000D01*
X143256000Y-100838000D02*
X147066000Y-100838000D01*
X143002000Y-101092000D02*
X143256000Y-100838000D01*
X145866000Y-85668000D02*
X141304000Y-85668000D01*
X146050000Y-85852000D02*
X145866000Y-85668000D01*
X148336000Y-106172000D02*
X147066000Y-106172000D01*
X145288000Y-84836000D02*
X145256000Y-84868000D01*
X145256000Y-84868000D02*
X141304000Y-84868000D01*
X142748000Y-98806000D02*
X142748000Y-88900000D01*
X142748000Y-88900000D02*
X142494000Y-88646000D01*
X143764000Y-99568000D02*
X143510000Y-99568000D01*
X143510000Y-99568000D02*
X142748000Y-98806000D01*
X142494000Y-88646000D02*
X142494000Y-86868000D01*
X143002000Y-84074000D02*
X142996000Y-84068000D01*
X142996000Y-84068000D02*
X141304000Y-84068000D01*
X142494000Y-86868000D02*
X143002000Y-86360000D01*
X141986000Y-104902000D02*
X143256000Y-104902000D01*
X143764000Y-104394000D02*
X143764000Y-103124000D01*
X143256000Y-104902000D02*
X143764000Y-104394000D01*
X145622800Y-95241600D02*
X145631200Y-95250000D01*
X145631200Y-95250000D02*
X148082000Y-95250000D01*
X145796000Y-83312000D02*
X145752000Y-83268000D01*
X145752000Y-83268000D02*
X143300000Y-83268000D01*
X143764000Y-78928000D02*
X143764000Y-82804000D01*
X143300000Y-83268000D02*
X141304000Y-83268000D01*
X143764000Y-82804000D02*
X143300000Y-83268000D01*
X144526000Y-82550000D02*
X146894000Y-82550000D01*
X146894000Y-82550000D02*
X147082000Y-82362000D01*
X145542000Y-78928000D02*
X145542000Y-82042000D01*
X142920000Y-82468000D02*
X141304000Y-82468000D01*
X143002000Y-82550000D02*
X142920000Y-82468000D01*
X145034000Y-82550000D02*
X144526000Y-82550000D01*
X145542000Y-82042000D02*
X145034000Y-82550000D01*
X149597800Y-88146200D02*
X148844000Y-88900000D01*
X149597800Y-87716600D02*
X149597800Y-88146200D01*
X139446000Y-81534000D02*
X139580000Y-81668000D01*
X139580000Y-81668000D02*
X141304000Y-81668000D01*
X120844000Y-81676000D02*
X122316000Y-81676000D01*
X133204000Y-81934000D02*
X133204000Y-79168000D01*
X132842000Y-82296000D02*
X133204000Y-81934000D01*
X127508000Y-82296000D02*
X132842000Y-82296000D01*
X122316000Y-81676000D02*
X122936000Y-82296000D01*
X132404000Y-81026000D02*
X132404000Y-81718000D01*
X128327998Y-81845998D02*
X128016000Y-81534000D01*
X132276002Y-81845998D02*
X128327998Y-81845998D01*
X132404000Y-81718000D02*
X132276002Y-81845998D01*
X122936000Y-81026000D02*
X122174000Y-81026000D01*
X122174000Y-81026000D02*
X121412000Y-80264000D01*
X120344000Y-81676000D02*
X120344000Y-80570000D01*
X120650000Y-80264000D02*
X121412000Y-80264000D01*
X120344000Y-80570000D02*
X120650000Y-80264000D01*
X132404000Y-81026000D02*
X132404000Y-79168000D01*
X122936000Y-81026000D02*
X123444000Y-81534000D01*
X131604000Y-79168000D02*
X131604000Y-74454000D01*
X125984000Y-73914000D02*
X124460000Y-75438000D01*
X131064000Y-73914000D02*
X125984000Y-73914000D01*
X131604000Y-74454000D02*
X131064000Y-73914000D01*
X130804000Y-79168000D02*
X130804000Y-77464000D01*
X128270000Y-76708000D02*
X127000000Y-75438000D01*
X130048000Y-76708000D02*
X128270000Y-76708000D01*
X130804000Y-77464000D02*
X130048000Y-76708000D01*
X125904000Y-80868000D02*
X125904000Y-79582000D01*
X114488000Y-73914000D02*
X114046000Y-74356000D01*
X120142000Y-73914000D02*
X114488000Y-73914000D01*
X120650000Y-74422000D02*
X120142000Y-73914000D01*
X120650000Y-76708000D02*
X120650000Y-74422000D01*
X120904000Y-76962000D02*
X120650000Y-76708000D01*
X125476000Y-76962000D02*
X120904000Y-76962000D01*
X126238000Y-77724000D02*
X125476000Y-76962000D01*
X126238000Y-79248000D02*
X126238000Y-77724000D01*
X125904000Y-79582000D02*
X126238000Y-79248000D01*
X122794000Y-83626000D02*
X123952000Y-82468000D01*
X123952000Y-82468000D02*
X125904000Y-82468000D01*
X122794000Y-84126000D02*
X123900000Y-84126000D01*
X124758000Y-83268000D02*
X125904000Y-83268000D01*
X123900000Y-84126000D02*
X124758000Y-83268000D01*
X122794000Y-84626000D02*
X124162000Y-84626000D01*
X124720000Y-84068000D02*
X125904000Y-84068000D01*
X124162000Y-84626000D02*
X124720000Y-84068000D01*
X122794000Y-85126000D02*
X124424000Y-85126000D01*
X124682000Y-84868000D02*
X125904000Y-84868000D01*
X124424000Y-85126000D02*
X124682000Y-84868000D01*
X122794000Y-85626000D02*
X125862000Y-85626000D01*
X125862000Y-85626000D02*
X125904000Y-85668000D01*
X122794000Y-86126000D02*
X124734000Y-86126000D01*
X125076000Y-86468000D02*
X125904000Y-86468000D01*
X124734000Y-86126000D02*
X125076000Y-86468000D01*
X122794000Y-86626000D02*
X124472000Y-86626000D01*
X125114000Y-87268000D02*
X125904000Y-87268000D01*
X124472000Y-86626000D02*
X125114000Y-87268000D01*
X122794000Y-87626000D02*
X124456000Y-87626000D01*
X124898000Y-88068000D02*
X125904000Y-88068000D01*
X124456000Y-87626000D02*
X124898000Y-88068000D01*
X122794000Y-88126000D02*
X124194000Y-88126000D01*
X124974000Y-89668000D02*
X125904000Y-89668000D01*
X124714000Y-89408000D02*
X124974000Y-89668000D01*
X124714000Y-88646000D02*
X124714000Y-89408000D01*
X124194000Y-88126000D02*
X124714000Y-88646000D01*
X122794000Y-88626000D02*
X123989998Y-88626000D01*
X125012000Y-90468000D02*
X125904000Y-90468000D01*
X124206000Y-89662000D02*
X125012000Y-90468000D01*
X124206000Y-88842002D02*
X124206000Y-89662000D01*
X123989998Y-88626000D02*
X124206000Y-88842002D01*
X122794000Y-89626000D02*
X120940000Y-89626000D01*
X124542000Y-91268000D02*
X125904000Y-91268000D01*
X124460000Y-91186000D02*
X124542000Y-91268000D01*
X120940000Y-89626000D02*
X120904000Y-89662000D01*
X122794000Y-90126000D02*
X121456000Y-90126000D01*
X124086000Y-92068000D02*
X125904000Y-92068000D01*
X123952000Y-92202000D02*
X124086000Y-92068000D01*
X121158000Y-90424000D02*
X120396000Y-90424000D01*
X121456000Y-90126000D02*
X121158000Y-90424000D01*
X122794000Y-90626000D02*
X121718000Y-90626000D01*
X124556000Y-92868000D02*
X125904000Y-92868000D01*
X124460000Y-92964000D02*
X124556000Y-92868000D01*
X120904000Y-91440000D02*
X120396000Y-91440000D01*
X121718000Y-90626000D02*
X120904000Y-91440000D01*
X120844000Y-93076000D02*
X120844000Y-93920000D01*
X128404000Y-95370000D02*
X128404000Y-94568000D01*
X128016000Y-95758000D02*
X128404000Y-95370000D01*
X122682000Y-95758000D02*
X128016000Y-95758000D01*
X120844000Y-93920000D02*
X122682000Y-95758000D01*
X122794000Y-91126000D02*
X122794000Y-94092000D01*
X123270000Y-94568000D02*
X127604000Y-94568000D01*
X122794000Y-94092000D02*
X123270000Y-94568000D01*
X120344000Y-93076000D02*
X120344000Y-94182000D01*
X129204000Y-95840000D02*
X129204000Y-94568000D01*
X128778000Y-96266000D02*
X129204000Y-95840000D01*
X122428000Y-96266000D02*
X128778000Y-96266000D01*
X120344000Y-94182000D02*
X122428000Y-96266000D01*
X108088000Y-92386000D02*
X107245000Y-92386000D01*
X103956000Y-92386000D02*
X103113000Y-92386000D01*
X104013000Y-92329000D02*
X103956000Y-92386000D01*
X107245000Y-92386000D02*
X107188000Y-92329000D01*
X111394000Y-91126000D02*
X110042000Y-91126000D01*
X108782000Y-92386000D02*
X108088000Y-92386000D01*
X110042000Y-91126000D02*
X108782000Y-92386000D01*
X103113000Y-92386000D02*
X102178000Y-92386000D01*
X102178000Y-92386000D02*
X101346000Y-93218000D01*
X101346000Y-93218000D02*
X101346000Y-101092000D01*
X101346000Y-101092000D02*
X100330000Y-102108000D01*
X100330000Y-102108000D02*
X100330000Y-110490000D01*
X100330000Y-110490000D02*
X99314000Y-111506000D01*
X99314000Y-111506000D02*
X97282000Y-111506000D01*
X97282000Y-111506000D02*
X96012000Y-112776000D01*
X108088000Y-91586000D02*
X107207000Y-91586000D01*
X103994000Y-91586000D02*
X103113000Y-91586000D01*
X104013000Y-91567000D02*
X103994000Y-91586000D01*
X107207000Y-91586000D02*
X107188000Y-91567000D01*
X111394000Y-90626000D02*
X109780000Y-90626000D01*
X108820000Y-91586000D02*
X108088000Y-91586000D01*
X109780000Y-90626000D02*
X108820000Y-91586000D01*
X103113000Y-91586000D02*
X101650002Y-91586000D01*
X101650002Y-91586000D02*
X100838000Y-92398002D01*
X100838000Y-92398002D02*
X100838000Y-100838000D01*
X100838000Y-100838000D02*
X99822000Y-101854000D01*
X99822000Y-101854000D02*
X99822000Y-108458000D01*
X99822000Y-108458000D02*
X99314000Y-108966000D01*
X99314000Y-108966000D02*
X97282000Y-108966000D01*
X97282000Y-108966000D02*
X96012000Y-110236000D01*
X111394000Y-89626000D02*
X112994000Y-89626000D01*
X112994000Y-89626000D02*
X113030000Y-89662000D01*
X108088000Y-90786000D02*
X107207000Y-90786000D01*
X103994000Y-90786000D02*
X103113000Y-90786000D01*
X104013000Y-90805000D02*
X103994000Y-90786000D01*
X107207000Y-90786000D02*
X107188000Y-90805000D01*
X109220000Y-89916000D02*
X110010000Y-89126000D01*
X109982000Y-89154000D02*
X109982000Y-89126000D01*
X110010000Y-89126000D02*
X109982000Y-89154000D01*
X111394000Y-89126000D02*
X109982000Y-89126000D01*
X108858000Y-90786000D02*
X108088000Y-90786000D01*
X109220000Y-90424000D02*
X108858000Y-90786000D01*
X109220000Y-89916000D02*
X109220000Y-90424000D01*
X103113000Y-90786000D02*
X101746000Y-90786000D01*
X101746000Y-90786000D02*
X100330000Y-92202000D01*
X100330000Y-92202000D02*
X100330000Y-100330000D01*
X100330000Y-100330000D02*
X99314000Y-101346000D01*
X99314000Y-101346000D02*
X97282000Y-101346000D01*
X97282000Y-101346000D02*
X96012000Y-102616000D01*
X108088000Y-89986000D02*
X107258000Y-89986000D01*
X103943000Y-89986000D02*
X103113000Y-89986000D01*
X104013000Y-89916000D02*
X103943000Y-89986000D01*
X107258000Y-89986000D02*
X107188000Y-89916000D01*
X103113000Y-89986000D02*
X101784000Y-89986000D01*
X97282000Y-98806000D02*
X96012000Y-100076000D01*
X99314000Y-98806000D02*
X97282000Y-98806000D01*
X99822000Y-98298000D02*
X99314000Y-98806000D01*
X99822000Y-91948000D02*
X99822000Y-98298000D01*
X101784000Y-89986000D02*
X99822000Y-91948000D01*
X111394000Y-88626000D02*
X112542000Y-88626000D01*
X113030000Y-88138000D02*
X113030000Y-86868000D01*
X112542000Y-88626000D02*
X113030000Y-88138000D01*
X113010000Y-86848000D02*
X113030000Y-86868000D01*
X108088000Y-88576000D02*
X107245000Y-88576000D01*
X103956000Y-88576000D02*
X103113000Y-88576000D01*
X104013000Y-88519000D02*
X103956000Y-88576000D01*
X107245000Y-88576000D02*
X107188000Y-88519000D01*
X111394000Y-88126000D02*
X109486000Y-88126000D01*
X109036000Y-88576000D02*
X108088000Y-88576000D01*
X109486000Y-88126000D02*
X109036000Y-88576000D01*
X103113000Y-88576000D02*
X101416000Y-88576000D01*
X101416000Y-88576000D02*
X99822000Y-90170000D01*
X99822000Y-90170000D02*
X99822000Y-90678000D01*
X99822000Y-90678000D02*
X99314000Y-91186000D01*
X99314000Y-91186000D02*
X97282000Y-91186000D01*
X97282000Y-91186000D02*
X96012000Y-92456000D01*
X108088000Y-87776000D02*
X107207000Y-87776000D01*
X103994000Y-87776000D02*
X103113000Y-87776000D01*
X104013000Y-87757000D02*
X103994000Y-87776000D01*
X107207000Y-87776000D02*
X107188000Y-87757000D01*
X111394000Y-87626000D02*
X109224000Y-87626000D01*
X109074000Y-87776000D02*
X108088000Y-87776000D01*
X109224000Y-87626000D02*
X109074000Y-87776000D01*
X103113000Y-87776000D02*
X100946000Y-87776000D01*
X100946000Y-87776000D02*
X98806000Y-89916000D01*
X98806000Y-89916000D02*
X98552000Y-89916000D01*
X108088000Y-86976000D02*
X107207000Y-86976000D01*
X103994000Y-86976000D02*
X103113000Y-86976000D01*
X104013000Y-86995000D02*
X103994000Y-86976000D01*
X107207000Y-86976000D02*
X107188000Y-86995000D01*
X111394000Y-87126000D02*
X109478000Y-87126000D01*
X109328000Y-86976000D02*
X108088000Y-86976000D01*
X109478000Y-87126000D02*
X109328000Y-86976000D01*
X103113000Y-86976000D02*
X100984000Y-86976000D01*
X100984000Y-86976000D02*
X99314000Y-88646000D01*
X99314000Y-88646000D02*
X97282000Y-88646000D01*
X97282000Y-88646000D02*
X96012000Y-89916000D01*
X108088000Y-86176000D02*
X107245000Y-86176000D01*
X103956000Y-86176000D02*
X103113000Y-86176000D01*
X104013000Y-86233000D02*
X103956000Y-86176000D01*
X107245000Y-86176000D02*
X107188000Y-86233000D01*
X111394000Y-86626000D02*
X109740000Y-86626000D01*
X109290000Y-86176000D02*
X108088000Y-86176000D01*
X109740000Y-86626000D02*
X109290000Y-86176000D01*
X103113000Y-86176000D02*
X99752000Y-86176000D01*
X99752000Y-86176000D02*
X98552000Y-87376000D01*
X108088000Y-84766000D02*
X107258000Y-84766000D01*
X103943000Y-84766000D02*
X103113000Y-84766000D01*
X104013000Y-84836000D02*
X103943000Y-84766000D01*
X107258000Y-84766000D02*
X107188000Y-84836000D01*
X108088000Y-84766000D02*
X108642000Y-84766000D01*
X110002000Y-86126000D02*
X111394000Y-86126000D01*
X108642000Y-84766000D02*
X110002000Y-86126000D01*
X103113000Y-84766000D02*
X100400000Y-84766000D01*
X100400000Y-84766000D02*
X99060000Y-86106000D01*
X99060000Y-86106000D02*
X97282000Y-86106000D01*
X97282000Y-86106000D02*
X96012000Y-87376000D01*
X108088000Y-83966000D02*
X107207000Y-83966000D01*
X103994000Y-83966000D02*
X103113000Y-83966000D01*
X104013000Y-83947000D02*
X103994000Y-83966000D01*
X107207000Y-83966000D02*
X107188000Y-83947000D01*
X111394000Y-85626000D02*
X110264000Y-85626000D01*
X108604000Y-83966000D02*
X108088000Y-83966000D01*
X110264000Y-85626000D02*
X108604000Y-83966000D01*
X103113000Y-83966000D02*
X99930000Y-83966000D01*
X99930000Y-83966000D02*
X99060000Y-84836000D01*
X99060000Y-84836000D02*
X98552000Y-84836000D01*
X108088000Y-83166000D02*
X107207000Y-83166000D01*
X103994000Y-83166000D02*
X103113000Y-83166000D01*
X104013000Y-83185000D02*
X103994000Y-83166000D01*
X107207000Y-83166000D02*
X107188000Y-83185000D01*
X108088000Y-83166000D02*
X109131998Y-83166000D01*
X110526000Y-85126000D02*
X111394000Y-85126000D01*
X109474000Y-84074000D02*
X110526000Y-85126000D01*
X109474000Y-83508002D02*
X109474000Y-84074000D01*
X109131998Y-83166000D02*
X109474000Y-83508002D01*
X103113000Y-83166000D02*
X99714000Y-83166000D01*
X99714000Y-83166000D02*
X99314000Y-83566000D01*
X99314000Y-83566000D02*
X97282000Y-83566000D01*
X97282000Y-83566000D02*
X96012000Y-84836000D01*
X108088000Y-82366000D02*
X107258000Y-82366000D01*
X103943000Y-82366000D02*
X103113000Y-82366000D01*
X104013000Y-82296000D02*
X103943000Y-82366000D01*
X107258000Y-82366000D02*
X107188000Y-82296000D01*
X111394000Y-84126000D02*
X110288000Y-84126000D01*
X109036000Y-82366000D02*
X108088000Y-82366000D01*
X109982000Y-83312000D02*
X109036000Y-82366000D01*
X109982000Y-83820000D02*
X109982000Y-83312000D01*
X110288000Y-84126000D02*
X109982000Y-83820000D01*
X103113000Y-82366000D02*
X98622000Y-82366000D01*
X98622000Y-82366000D02*
X98552000Y-82296000D01*
X103190000Y-80010000D02*
X103190000Y-81214000D01*
X103124000Y-81280000D02*
X103190000Y-81214000D01*
X111394000Y-83626000D02*
X111058000Y-83626000D01*
X111058000Y-83626000D02*
X108712000Y-81280000D01*
X103190000Y-80010000D02*
X100330000Y-80010000D01*
X100330000Y-80010000D02*
X99314000Y-81026000D01*
X96012000Y-82296000D02*
X97282000Y-81026000D01*
X97282000Y-81026000D02*
X99314000Y-81026000D01*
X103113000Y-78162000D02*
X100400000Y-78162000D01*
X100400000Y-78162000D02*
X98806000Y-79756000D01*
X98806000Y-79756000D02*
X98552000Y-79756000D01*
X108088000Y-78162000D02*
X107245000Y-78162000D01*
X103956000Y-78162000D02*
X103113000Y-78162000D01*
X104013000Y-78105000D02*
X103956000Y-78162000D01*
X107245000Y-78162000D02*
X107188000Y-78105000D01*
X113344000Y-81676000D02*
X113344000Y-80832000D01*
X110674000Y-78162000D02*
X108088000Y-78162000D01*
X113344000Y-80832000D02*
X110674000Y-78162000D01*
X103113000Y-77362000D02*
X100438000Y-77362000D01*
X97282000Y-78486000D02*
X96012000Y-79756000D01*
X99314000Y-78486000D02*
X97282000Y-78486000D01*
X100438000Y-77362000D02*
X99314000Y-78486000D01*
X108088000Y-77362000D02*
X107207000Y-77362000D01*
X103994000Y-77362000D02*
X103113000Y-77362000D01*
X104013000Y-77343000D02*
X103994000Y-77362000D01*
X107207000Y-77362000D02*
X107188000Y-77343000D01*
X113844000Y-81676000D02*
X113844000Y-80570000D01*
X110636000Y-77362000D02*
X108088000Y-77362000D01*
X113844000Y-80570000D02*
X110636000Y-77362000D01*
X103113000Y-76562000D02*
X99206000Y-76562000D01*
X99206000Y-76562000D02*
X98552000Y-77216000D01*
X108088000Y-76562000D02*
X107207000Y-76562000D01*
X103994000Y-76562000D02*
X103113000Y-76562000D01*
X104013000Y-76581000D02*
X103994000Y-76562000D01*
X107207000Y-76562000D02*
X107188000Y-76581000D01*
X114344000Y-81676000D02*
X114344000Y-80308000D01*
X110598000Y-76562000D02*
X108088000Y-76562000D01*
X114344000Y-80308000D02*
X110598000Y-76562000D01*
X103113000Y-75762000D02*
X99498000Y-75762000D01*
X97282000Y-75946000D02*
X96012000Y-77216000D01*
X99314000Y-75946000D02*
X97282000Y-75946000D01*
X99498000Y-75762000D02*
X99314000Y-75946000D01*
X108088000Y-75762000D02*
X107258000Y-75762000D01*
X103943000Y-75762000D02*
X103113000Y-75762000D01*
X104013000Y-75692000D02*
X103943000Y-75762000D01*
X107258000Y-75762000D02*
X107188000Y-75692000D01*
X114844000Y-81676000D02*
X114844000Y-80046000D01*
X110560000Y-75762000D02*
X108088000Y-75762000D01*
X114844000Y-80046000D02*
X110560000Y-75762000D01*
X103113000Y-74352000D02*
X98876000Y-74352000D01*
X98876000Y-74352000D02*
X98552000Y-74676000D01*
X108088000Y-74352000D02*
X107245000Y-74352000D01*
X103956000Y-74352000D02*
X103113000Y-74352000D01*
X104013000Y-74295000D02*
X103956000Y-74352000D01*
X107245000Y-74352000D02*
X107188000Y-74295000D01*
X115344000Y-81676000D02*
X115344000Y-79784000D01*
X109912000Y-74352000D02*
X108088000Y-74352000D01*
X115344000Y-79784000D02*
X109912000Y-74352000D01*
X103113000Y-73552000D02*
X99714000Y-73552000D01*
X97282000Y-73406000D02*
X96012000Y-74676000D01*
X99568000Y-73406000D02*
X97282000Y-73406000D01*
X99714000Y-73552000D02*
X99568000Y-73406000D01*
X108088000Y-73552000D02*
X107207000Y-73552000D01*
X103994000Y-73552000D02*
X103113000Y-73552000D01*
X104013000Y-73533000D02*
X103994000Y-73552000D01*
X107207000Y-73552000D02*
X107188000Y-73533000D01*
X115844000Y-81676000D02*
X115844000Y-79522000D01*
X109874000Y-73552000D02*
X108088000Y-73552000D01*
X115844000Y-79522000D02*
X109874000Y-73552000D01*
X103113000Y-72752000D02*
X99168000Y-72752000D01*
X99168000Y-72752000D02*
X98552000Y-72136000D01*
X108088000Y-72752000D02*
X107207000Y-72752000D01*
X103994000Y-72752000D02*
X103113000Y-72752000D01*
X104013000Y-72771000D02*
X103994000Y-72752000D01*
X107207000Y-72752000D02*
X107188000Y-72771000D01*
X116344000Y-81676000D02*
X116344000Y-79260000D01*
X109836000Y-72752000D02*
X108088000Y-72752000D01*
X116344000Y-79260000D02*
X109836000Y-72752000D01*
X103113000Y-71952000D02*
X102027000Y-70866000D01*
X97282000Y-70866000D02*
X96012000Y-72136000D01*
X102027000Y-70866000D02*
X97282000Y-70866000D01*
X108088000Y-71952000D02*
X107258000Y-71952000D01*
X103943000Y-71952000D02*
X103113000Y-71952000D01*
X104013000Y-71882000D02*
X103943000Y-71952000D01*
X107258000Y-71952000D02*
X107188000Y-71882000D01*
X116844000Y-81676000D02*
X116844000Y-78998000D01*
X109798000Y-71952000D02*
X108088000Y-71952000D01*
X116844000Y-78998000D02*
X109798000Y-71952000D01*
X145622800Y-88641600D02*
X148077600Y-88641600D01*
X148082000Y-80264000D02*
X149098000Y-79248000D01*
X148077600Y-88641600D02*
X148082000Y-88646000D01*
X149098000Y-79248000D02*
X149098000Y-78928000D01*
X143256000Y-98044000D02*
X143256000Y-93726000D01*
X143764000Y-93218000D02*
X143764000Y-92964000D01*
X143256000Y-93726000D02*
X143764000Y-93218000D01*
X143764000Y-91186000D02*
X144526000Y-90424000D01*
X144526000Y-90424000D02*
X144526000Y-90170000D01*
X144526000Y-90170000D02*
X144954400Y-89741600D01*
X143764000Y-92964000D02*
X143764000Y-91186000D01*
X144526000Y-99314000D02*
X144272000Y-99060000D01*
X144272000Y-99060000D02*
X143256000Y-98044000D01*
X144526000Y-100076000D02*
X144526000Y-99314000D01*
X141986000Y-102362000D02*
X143764000Y-102362000D01*
X144954400Y-89741600D02*
X145622800Y-89741600D01*
X143764000Y-102362000D02*
X144526000Y-101600000D01*
X143764000Y-93980000D02*
X144272000Y-93472000D01*
X144272000Y-93472000D02*
X144272000Y-93218000D01*
X143764000Y-97790000D02*
X143764000Y-93980000D01*
X144272000Y-91440000D02*
X144870400Y-90841600D01*
X144870400Y-90841600D02*
X145622800Y-90841600D01*
X144272000Y-93218000D02*
X144272000Y-91440000D01*
X145288000Y-99314000D02*
X145288000Y-99568000D01*
X143764000Y-97790000D02*
X145288000Y-99314000D01*
X141986000Y-106172000D02*
X143764000Y-106172000D01*
X146304000Y-103632000D02*
X146304000Y-102870000D01*
X143764000Y-106172000D02*
X146304000Y-103632000D01*
X145622800Y-93041600D02*
X146635600Y-93041600D01*
X149352000Y-107442000D02*
X148336000Y-107442000D01*
X149606000Y-107188000D02*
X149352000Y-107442000D01*
X149606000Y-107188000D02*
X149606000Y-107188000D01*
X146635600Y-93041600D02*
X146812000Y-93218000D01*
X145622800Y-96341600D02*
X148514400Y-96341600D01*
X147320000Y-79756000D02*
X147320000Y-78928000D01*
X148514400Y-96341600D02*
X148844000Y-96012000D01*
X107188000Y-100076000D02*
X111379000Y-100076000D01*
X111379000Y-100076000D02*
X111633000Y-100330000D01*
X133858000Y-82042000D02*
X133858000Y-80772000D01*
X136652000Y-80518000D02*
X137204000Y-79966000D01*
X134112000Y-80518000D02*
X136652000Y-80518000D01*
X133858000Y-80772000D02*
X134112000Y-80518000D01*
X133096000Y-82804000D02*
X128016000Y-82804000D01*
X127508000Y-83312000D02*
X127508000Y-83820000D01*
X128016000Y-82804000D02*
X127508000Y-83312000D01*
X137204000Y-79168000D02*
X137204000Y-79966000D01*
X111826000Y-95692000D02*
X111826000Y-97028000D01*
X127508000Y-83820000D02*
X127508000Y-92964000D01*
X112014000Y-95504000D02*
X111826000Y-95692000D01*
X133858000Y-82042000D02*
X133096000Y-82804000D01*
X111633000Y-100330000D02*
X112268000Y-99695000D01*
X112268000Y-97470000D02*
X111826000Y-97028000D01*
X112268000Y-99695000D02*
X112268000Y-97470000D01*
X118110000Y-104648000D02*
X120650000Y-102108000D01*
X120650000Y-102108000D02*
X121920000Y-102108000D01*
X131604000Y-94568000D02*
X131604000Y-98901000D01*
X131604000Y-98901000D02*
X130937000Y-99568000D01*
X130937000Y-99568000D02*
X122428000Y-99568000D01*
X122428000Y-99568000D02*
X122174000Y-99314000D01*
X122174000Y-101854000D02*
X121920000Y-102108000D01*
X104648000Y-105156000D02*
X105918000Y-103886000D01*
X105918000Y-103886000D02*
X109601000Y-103886000D01*
X109601000Y-103886000D02*
X111379000Y-103886000D01*
X111379000Y-103886000D02*
X111633000Y-104140000D01*
X122936000Y-100076000D02*
X119126000Y-100076000D01*
X132404000Y-98990000D02*
X131318000Y-100076000D01*
X132404000Y-94568000D02*
X132404000Y-98990000D01*
X131318000Y-100076000D02*
X122936000Y-100076000D01*
X118844000Y-98778000D02*
X118844000Y-97508000D01*
X118872000Y-98806000D02*
X118844000Y-98778000D01*
X119126000Y-100076000D02*
X118872000Y-100330000D01*
X118844000Y-93076000D02*
X118844000Y-97508000D01*
X104648000Y-100076000D02*
X105918000Y-101346000D01*
X114808000Y-100330000D02*
X117094000Y-98044000D01*
X117094000Y-98044000D02*
X118110000Y-98044000D01*
X119344000Y-93076000D02*
X119344000Y-97754000D01*
X119344000Y-97754000D02*
X119634000Y-98044000D01*
X122936000Y-100584000D02*
X119888000Y-100584000D01*
X133204000Y-98952000D02*
X131572000Y-100584000D01*
X133204000Y-94568000D02*
X133204000Y-98952000D01*
X131572000Y-100584000D02*
X122936000Y-100584000D01*
X114808000Y-100330000D02*
X112903000Y-100330000D01*
X119380000Y-101092000D02*
X116332000Y-101092000D01*
X119888000Y-100584000D02*
X119380000Y-101092000D01*
X120650000Y-95250000D02*
X121158000Y-95758000D01*
X121158000Y-95758000D02*
X121158000Y-98806000D01*
X116332000Y-105410000D02*
X120396000Y-101346000D01*
X120396000Y-101346000D02*
X121158000Y-101346000D01*
X104648000Y-94996000D02*
X102616000Y-97028000D01*
X114808000Y-106807000D02*
X114808000Y-105410000D01*
X113792000Y-107823000D02*
X114808000Y-106807000D01*
X104648000Y-107823000D02*
X113792000Y-107823000D01*
X102616000Y-105791000D02*
X104648000Y-107823000D01*
X102616000Y-97028000D02*
X102616000Y-105791000D01*
X120650000Y-95250000D02*
X120142000Y-94742000D01*
X114808000Y-105410000D02*
X112903000Y-105410000D01*
X134004000Y-94568000D02*
X134004000Y-98914000D01*
X119888000Y-94488000D02*
X119844000Y-94488000D01*
X119844000Y-94444000D02*
X119888000Y-94488000D01*
X120142000Y-94742000D02*
X119844000Y-94444000D01*
X119844000Y-93076000D02*
X119844000Y-94488000D01*
X121412000Y-101092000D02*
X121158000Y-101346000D01*
X131826000Y-101092000D02*
X121412000Y-101092000D01*
X134004000Y-98914000D02*
X131826000Y-101092000D01*
X118844000Y-81676000D02*
X118844000Y-83665000D01*
X115697000Y-101981000D02*
X114808000Y-102870000D01*
X115697000Y-100457000D02*
X115697000Y-101981000D01*
X116586000Y-99568000D02*
X115697000Y-100457000D01*
X120015000Y-99568000D02*
X116586000Y-99568000D01*
X120396000Y-99187000D02*
X120015000Y-99568000D01*
X120396000Y-97536000D02*
X120396000Y-99187000D01*
X120142000Y-97282000D02*
X120396000Y-97536000D01*
X120142000Y-95885000D02*
X120142000Y-97282000D01*
X118844000Y-83665000D02*
X118872000Y-83693000D01*
X104648000Y-97536000D02*
X103251000Y-98933000D01*
X103251000Y-98933000D02*
X103251000Y-103886000D01*
X114808000Y-102870000D02*
X112903000Y-102870000D01*
X141732000Y-95012000D02*
X141732000Y-93980000D01*
X138176000Y-89408000D02*
X138290000Y-89408000D01*
X139630000Y-88068000D02*
X141304000Y-88068000D01*
X138290000Y-89408000D02*
X139630000Y-88068000D01*
X135128000Y-103505000D02*
X135128000Y-106868000D01*
X135128000Y-106868000D02*
X135194000Y-106934000D01*
X140164000Y-90468000D02*
X138430000Y-92202000D01*
X140164000Y-90468000D02*
X141304000Y-90468000D01*
X135382000Y-106746000D02*
X135194000Y-106934000D01*
X134112000Y-103505000D02*
X134112000Y-106614000D01*
X134112000Y-106614000D02*
X133792000Y-106934000D01*
X141304000Y-89668000D02*
X139694000Y-89668000D01*
X139694000Y-89668000D02*
X138430000Y-90932000D01*
X134804000Y-94568000D02*
X134804000Y-93402000D01*
X125664000Y-97094000D02*
X125664000Y-98044000D01*
X125730000Y-97028000D02*
X125664000Y-97094000D01*
X134366000Y-92964000D02*
X128524000Y-92964000D01*
X134804000Y-93402000D02*
X134366000Y-92964000D01*
X137094000Y-106934000D02*
X137094000Y-107762000D01*
X135676000Y-109180000D02*
X135676000Y-110998000D01*
X137094000Y-107762000D02*
X135676000Y-109180000D01*
X131892000Y-106934000D02*
X131892000Y-108016000D01*
X133176000Y-109300000D02*
X133176000Y-110998000D01*
X131892000Y-108016000D02*
X133176000Y-109300000D01*
D46*
G36*
X108457760Y-68623000D02*
X95504000Y-68623000D01*
X95034448Y-68716399D01*
X94636380Y-68982380D01*
X92858380Y-70760380D01*
X92592400Y-71158447D01*
X92499000Y-71628000D01*
X92499000Y-113792000D01*
X92592400Y-114261553D01*
X92813497Y-114592448D01*
X92858380Y-114659620D01*
X94128380Y-115929620D01*
X94526447Y-116195600D01*
X94996000Y-116289000D01*
X100330000Y-116289000D01*
X100799553Y-116195600D01*
X101197620Y-115929620D01*
X101463600Y-115531553D01*
X101557000Y-115062000D01*
X101463600Y-114592447D01*
X101197620Y-114194380D01*
X100799553Y-113928400D01*
X100330000Y-113835000D01*
X100002748Y-113835000D01*
X100037000Y-113752309D01*
X100037000Y-113061750D01*
X99878250Y-112903000D01*
X98679000Y-112903000D01*
X98679000Y-112923000D01*
X98425000Y-112923000D01*
X98425000Y-112903000D01*
X98405000Y-112903000D01*
X98405000Y-112649000D01*
X98425000Y-112649000D01*
X98425000Y-112629000D01*
X98679000Y-112629000D01*
X98679000Y-112649000D01*
X99878250Y-112649000D01*
X100037000Y-112490250D01*
X100037000Y-111987910D01*
X100932455Y-111092455D01*
X101117145Y-110816046D01*
X101130010Y-110751368D01*
X104386675Y-110751368D01*
X104411903Y-111371461D01*
X104600668Y-111827179D01*
X104859744Y-111916651D01*
X105778395Y-110998000D01*
X104859744Y-110079349D01*
X104600668Y-110168821D01*
X104386675Y-110751368D01*
X101130010Y-110751368D01*
X101182000Y-110490000D01*
X101182000Y-102460910D01*
X101764000Y-101878910D01*
X101764000Y-105791000D01*
X101828855Y-106117046D01*
X102013545Y-106393455D01*
X104045545Y-108425455D01*
X104321954Y-108610145D01*
X104648000Y-108675000D01*
X113792000Y-108675000D01*
X114118046Y-108610145D01*
X114394455Y-108425455D01*
X115410455Y-107409455D01*
X115595145Y-107133046D01*
X115660000Y-106807000D01*
X115660000Y-106190492D01*
X115749492Y-106280140D01*
X116126821Y-106436821D01*
X116228154Y-106436910D01*
X116200400Y-106478447D01*
X116107000Y-106948000D01*
X116107000Y-108069032D01*
X116067154Y-108094672D01*
X115901157Y-108337615D01*
X115842758Y-108626000D01*
X115842758Y-109382002D01*
X114420002Y-110804758D01*
X112669000Y-110804758D01*
X112399590Y-110855451D01*
X112152154Y-111014672D01*
X111986157Y-111257615D01*
X111978789Y-111294000D01*
X110124242Y-111294000D01*
X110124242Y-110073000D01*
X110073549Y-109803590D01*
X109914328Y-109556154D01*
X109671385Y-109390157D01*
X109383000Y-109331758D01*
X107533000Y-109331758D01*
X107263590Y-109382451D01*
X107016154Y-109541672D01*
X106850157Y-109784615D01*
X106845254Y-109808829D01*
X106787179Y-109640668D01*
X106204632Y-109426675D01*
X105584539Y-109451903D01*
X105128821Y-109640668D01*
X105039349Y-109899744D01*
X105958000Y-110818395D01*
X105972143Y-110804253D01*
X106151748Y-110983858D01*
X106137605Y-110998000D01*
X106151748Y-111012143D01*
X105972143Y-111191748D01*
X105958000Y-111177605D01*
X105039349Y-112096256D01*
X105128821Y-112355332D01*
X105711368Y-112569325D01*
X106331461Y-112544097D01*
X106787179Y-112355332D01*
X106843097Y-112193414D01*
X107001672Y-112439846D01*
X107244615Y-112605843D01*
X107533000Y-112664242D01*
X107627002Y-112664242D01*
X108351380Y-113388620D01*
X108749448Y-113654601D01*
X109219000Y-113748000D01*
X111975175Y-113748000D01*
X111978451Y-113765410D01*
X112137672Y-114012846D01*
X112266264Y-114100710D01*
X112130673Y-114236302D01*
X112034000Y-114469691D01*
X112034000Y-115285250D01*
X112192750Y-115444000D01*
X113792000Y-115444000D01*
X113792000Y-115424000D01*
X114046000Y-115424000D01*
X114046000Y-115444000D01*
X115645250Y-115444000D01*
X115804000Y-115285250D01*
X115804000Y-114469691D01*
X115707327Y-114236302D01*
X115571764Y-114100738D01*
X115685846Y-114027328D01*
X115851843Y-113784385D01*
X115910242Y-113496000D01*
X115910242Y-112784998D01*
X117327998Y-111367242D01*
X118084000Y-111367242D01*
X118353410Y-111316549D01*
X118483953Y-111232547D01*
X118595615Y-111308843D01*
X118884000Y-111367242D01*
X120384000Y-111367242D01*
X120653410Y-111316549D01*
X120864252Y-111180875D01*
X121057690Y-111261000D01*
X121648250Y-111261000D01*
X121807000Y-111102250D01*
X121807000Y-109753000D01*
X122061000Y-109753000D01*
X122061000Y-111102250D01*
X122219750Y-111261000D01*
X122810310Y-111261000D01*
X123043699Y-111164327D01*
X123222327Y-110985698D01*
X123319000Y-110752309D01*
X123319000Y-109911750D01*
X123160250Y-109753000D01*
X122061000Y-109753000D01*
X121807000Y-109753000D01*
X121787000Y-109753000D01*
X121787000Y-109499000D01*
X121807000Y-109499000D01*
X121807000Y-109479000D01*
X122061000Y-109479000D01*
X122061000Y-109499000D01*
X123160250Y-109499000D01*
X123319000Y-109340250D01*
X123319000Y-108669000D01*
X124713760Y-108669000D01*
X125123814Y-109079054D01*
X125006448Y-109102400D01*
X124608380Y-109368380D01*
X124481380Y-109495380D01*
X124215400Y-109893447D01*
X124122000Y-110363000D01*
X124122000Y-110804758D01*
X124099000Y-110804758D01*
X123829590Y-110855451D01*
X123582154Y-111014672D01*
X123416157Y-111257615D01*
X123357758Y-111546000D01*
X123357758Y-113496000D01*
X123408451Y-113765410D01*
X123567672Y-114012846D01*
X123696264Y-114100710D01*
X123560673Y-114236302D01*
X123464000Y-114469691D01*
X123464000Y-115285250D01*
X123622750Y-115444000D01*
X125222000Y-115444000D01*
X125222000Y-115424000D01*
X125476000Y-115424000D01*
X125476000Y-115444000D01*
X127075250Y-115444000D01*
X127234000Y-115285250D01*
X127234000Y-114469691D01*
X127137327Y-114236302D01*
X127001764Y-114100738D01*
X127115846Y-114027328D01*
X127281843Y-113784385D01*
X127340242Y-113496000D01*
X127340242Y-112982838D01*
X144230597Y-112982838D01*
X144584115Y-113838418D01*
X145238139Y-114493585D01*
X146093100Y-114848596D01*
X147018838Y-114849403D01*
X147874418Y-114495885D01*
X148529585Y-113841861D01*
X148884596Y-112986900D01*
X148885403Y-112061162D01*
X148531885Y-111205582D01*
X147877861Y-110550415D01*
X147022900Y-110195404D01*
X146097162Y-110194597D01*
X145241582Y-110548115D01*
X144586415Y-111202139D01*
X144231404Y-112057100D01*
X144230597Y-112982838D01*
X127340242Y-112982838D01*
X127340242Y-112096256D01*
X129757349Y-112096256D01*
X129846821Y-112355332D01*
X130429368Y-112569325D01*
X131049461Y-112544097D01*
X131505179Y-112355332D01*
X131594651Y-112096256D01*
X130676000Y-111177605D01*
X129757349Y-112096256D01*
X127340242Y-112096256D01*
X127340242Y-111546000D01*
X127289549Y-111276590D01*
X127218135Y-111165610D01*
X127469553Y-111115600D01*
X127867620Y-110849620D01*
X127933269Y-110751368D01*
X129104675Y-110751368D01*
X129129903Y-111371461D01*
X129318668Y-111827179D01*
X129577744Y-111916651D01*
X130496395Y-110998000D01*
X129577744Y-110079349D01*
X129318668Y-110168821D01*
X129104675Y-110751368D01*
X127933269Y-110751368D01*
X128133600Y-110451553D01*
X128227000Y-109982000D01*
X128227000Y-109899744D01*
X129757349Y-109899744D01*
X130676000Y-110818395D01*
X131594651Y-109899744D01*
X131505179Y-109640668D01*
X130922632Y-109426675D01*
X130302539Y-109451903D01*
X129846821Y-109640668D01*
X129757349Y-109899744D01*
X128227000Y-109899744D01*
X128227000Y-109220000D01*
X128221439Y-109192042D01*
X128133601Y-108750448D01*
X127867620Y-108352380D01*
X126089620Y-106574380D01*
X126041091Y-106541954D01*
X125691553Y-106308400D01*
X125222000Y-106215000D01*
X122682240Y-106215000D01*
X121517620Y-105050380D01*
X121447990Y-105003855D01*
X121119553Y-104784400D01*
X120650000Y-104691000D01*
X119271910Y-104691000D01*
X121002910Y-102960000D01*
X121920000Y-102960000D01*
X122246046Y-102895145D01*
X122267093Y-102881082D01*
X122377387Y-102881178D01*
X122754989Y-102725156D01*
X123044140Y-102436508D01*
X123200821Y-102059179D01*
X123200922Y-101944000D01*
X125872921Y-101944000D01*
X125872805Y-102077191D01*
X126044019Y-102491560D01*
X126360772Y-102808867D01*
X126774842Y-102980804D01*
X127223191Y-102981195D01*
X127637560Y-102809981D01*
X127666592Y-102781000D01*
X132080000Y-102781000D01*
X132434748Y-102710436D01*
X132735488Y-102509488D01*
X133225976Y-102019000D01*
X136741000Y-102019000D01*
X136741000Y-103124000D01*
X136811564Y-103478748D01*
X136963748Y-103706508D01*
X137012512Y-103779488D01*
X137249000Y-104015976D01*
X137249000Y-105542758D01*
X136744000Y-105542758D01*
X136474590Y-105593451D01*
X136227154Y-105752672D01*
X136144165Y-105874130D01*
X136075328Y-105767154D01*
X135980000Y-105702019D01*
X135980000Y-104105616D01*
X135998140Y-104087508D01*
X136154821Y-103710179D01*
X136155178Y-103301613D01*
X135999156Y-102924011D01*
X135710508Y-102634860D01*
X135333179Y-102478179D01*
X134924613Y-102477822D01*
X134619715Y-102603803D01*
X134317179Y-102478179D01*
X133908613Y-102477822D01*
X133531011Y-102633844D01*
X133241860Y-102922492D01*
X133085179Y-103299821D01*
X133084822Y-103708387D01*
X133240844Y-104085989D01*
X133260000Y-104105178D01*
X133260000Y-105577004D01*
X133172590Y-105593451D01*
X132925154Y-105752672D01*
X132842165Y-105874130D01*
X132773328Y-105767154D01*
X132530385Y-105601157D01*
X132242000Y-105542758D01*
X131542000Y-105542758D01*
X131272590Y-105593451D01*
X131025154Y-105752672D01*
X130859157Y-105995615D01*
X130800758Y-106284000D01*
X130800758Y-107584000D01*
X130851451Y-107853410D01*
X131010672Y-108100846D01*
X131064145Y-108137383D01*
X131104855Y-108342046D01*
X131289545Y-108618455D01*
X132260076Y-109588986D01*
X132241439Y-109596686D01*
X131776319Y-110060995D01*
X131764751Y-110088854D01*
X130855605Y-110998000D01*
X131763786Y-111906181D01*
X131774686Y-111932561D01*
X132238995Y-112397681D01*
X132845955Y-112649713D01*
X133503162Y-112650287D01*
X134110561Y-112399314D01*
X134426143Y-112084282D01*
X134738995Y-112397681D01*
X135345955Y-112649713D01*
X136003162Y-112650287D01*
X136610561Y-112399314D01*
X136661116Y-112348847D01*
X136719672Y-112439846D01*
X136962615Y-112605843D01*
X137251000Y-112664242D01*
X139101000Y-112664242D01*
X139370410Y-112613549D01*
X139617846Y-112454328D01*
X139783843Y-112211385D01*
X139842242Y-111923000D01*
X139842242Y-110073000D01*
X139791549Y-109803590D01*
X139632328Y-109556154D01*
X139389385Y-109390157D01*
X139103000Y-109332163D01*
X139103000Y-107727750D01*
X140779500Y-107727750D01*
X140779500Y-107822309D01*
X140876173Y-108055698D01*
X141054801Y-108234327D01*
X141288190Y-108331000D01*
X141700250Y-108331000D01*
X141859000Y-108172250D01*
X141859000Y-107569000D01*
X142113000Y-107569000D01*
X142113000Y-108172250D01*
X142271750Y-108331000D01*
X142683810Y-108331000D01*
X142917199Y-108234327D01*
X143095827Y-108055698D01*
X143192500Y-107822309D01*
X143192500Y-107727750D01*
X143033750Y-107569000D01*
X142113000Y-107569000D01*
X141859000Y-107569000D01*
X140938250Y-107569000D01*
X140779500Y-107727750D01*
X139103000Y-107727750D01*
X139103000Y-104709707D01*
X139202690Y-104751000D01*
X139668250Y-104751000D01*
X139827000Y-104592250D01*
X139827000Y-103743000D01*
X139807000Y-103743000D01*
X139807000Y-103489000D01*
X139827000Y-103489000D01*
X139827000Y-103469000D01*
X140081000Y-103469000D01*
X140081000Y-103489000D01*
X140922250Y-103489000D01*
X140938250Y-103505000D01*
X141859000Y-103505000D01*
X141859000Y-103485000D01*
X142113000Y-103485000D01*
X142113000Y-103505000D01*
X142133000Y-103505000D01*
X142133000Y-103759000D01*
X142113000Y-103759000D01*
X142113000Y-103779000D01*
X141859000Y-103779000D01*
X141859000Y-103759000D01*
X141071250Y-103759000D01*
X141055250Y-103743000D01*
X140081000Y-103743000D01*
X140081000Y-104592250D01*
X140239750Y-104751000D01*
X140673258Y-104751000D01*
X140673258Y-105156000D01*
X140723951Y-105425410D01*
X140795360Y-105536383D01*
X140731657Y-105629615D01*
X140673258Y-105918000D01*
X140673258Y-106426000D01*
X140723951Y-106695410D01*
X140850049Y-106891371D01*
X140779500Y-107061691D01*
X140779500Y-107156250D01*
X140938250Y-107315000D01*
X141859000Y-107315000D01*
X141859000Y-107295000D01*
X142113000Y-107295000D01*
X142113000Y-107315000D01*
X143033750Y-107315000D01*
X143192500Y-107156250D01*
X143192500Y-107061691D01*
X143176888Y-107024000D01*
X143764000Y-107024000D01*
X144090046Y-106959145D01*
X144366455Y-106774455D01*
X146906455Y-104234455D01*
X147048753Y-104021492D01*
X147073951Y-104155410D01*
X147200049Y-104351371D01*
X147129500Y-104521691D01*
X147129500Y-104616250D01*
X147288250Y-104775000D01*
X148209000Y-104775000D01*
X148209000Y-104755000D01*
X148463000Y-104755000D01*
X148463000Y-104775000D01*
X149383750Y-104775000D01*
X149542500Y-104616250D01*
X149542500Y-104521691D01*
X149470993Y-104349058D01*
X149566000Y-104210012D01*
X149566000Y-105598785D01*
X149471951Y-105452629D01*
X149542500Y-105282309D01*
X149542500Y-105187750D01*
X149383750Y-105029000D01*
X148463000Y-105029000D01*
X148463000Y-105049000D01*
X148209000Y-105049000D01*
X148209000Y-105029000D01*
X147288250Y-105029000D01*
X147172158Y-105145092D01*
X146862613Y-105144822D01*
X146485011Y-105300844D01*
X146195860Y-105589492D01*
X146039179Y-105966821D01*
X146038822Y-106375387D01*
X146194844Y-106752989D01*
X146483492Y-107042140D01*
X146860821Y-107198821D01*
X147023258Y-107198963D01*
X147023258Y-107696000D01*
X147073951Y-107965410D01*
X147233172Y-108212846D01*
X147476115Y-108378843D01*
X147764500Y-108437242D01*
X148907500Y-108437242D01*
X149176910Y-108386549D01*
X149320735Y-108294000D01*
X149352000Y-108294000D01*
X149566000Y-108251432D01*
X149566000Y-115672366D01*
X149398149Y-115504222D01*
X149039190Y-115355170D01*
X148650515Y-115354830D01*
X148291297Y-115503256D01*
X148016222Y-115777851D01*
X147867170Y-116136810D01*
X147866830Y-116525485D01*
X148015256Y-116884703D01*
X148184258Y-117054000D01*
X126989026Y-117054000D01*
X127137327Y-116905698D01*
X127234000Y-116672309D01*
X127234000Y-115856750D01*
X127075250Y-115698000D01*
X125476000Y-115698000D01*
X125476000Y-115718000D01*
X125222000Y-115718000D01*
X125222000Y-115698000D01*
X123622750Y-115698000D01*
X123464000Y-115856750D01*
X123464000Y-116672309D01*
X123560673Y-116905698D01*
X123708974Y-117054000D01*
X122249322Y-117054000D01*
X122275242Y-116926000D01*
X122275242Y-114926000D01*
X122224549Y-114656590D01*
X122065328Y-114409154D01*
X121822385Y-114243157D01*
X121534000Y-114184758D01*
X120861000Y-114184758D01*
X120861000Y-113284000D01*
X120767600Y-112814447D01*
X120501620Y-112416380D01*
X120103553Y-112150400D01*
X119634000Y-112057000D01*
X119164447Y-112150400D01*
X118766380Y-112416380D01*
X118500400Y-112814447D01*
X118407000Y-113284000D01*
X118407000Y-114184758D01*
X117734000Y-114184758D01*
X117464590Y-114235451D01*
X117217154Y-114394672D01*
X117051157Y-114637615D01*
X116992758Y-114926000D01*
X116992758Y-116926000D01*
X117016843Y-117054000D01*
X115559026Y-117054000D01*
X115707327Y-116905698D01*
X115804000Y-116672309D01*
X115804000Y-115856750D01*
X115645250Y-115698000D01*
X114046000Y-115698000D01*
X114046000Y-115718000D01*
X113792000Y-115718000D01*
X113792000Y-115698000D01*
X112192750Y-115698000D01*
X112034000Y-115856750D01*
X112034000Y-116672309D01*
X112130673Y-116905698D01*
X112278974Y-117054000D01*
X87019634Y-117054000D01*
X87187778Y-116886149D01*
X87336830Y-116527190D01*
X87337170Y-116138515D01*
X87188744Y-115779297D01*
X86914149Y-115504222D01*
X86555190Y-115355170D01*
X86166515Y-115354830D01*
X85807297Y-115503256D01*
X85638000Y-115672258D01*
X85638000Y-112982838D01*
X86445597Y-112982838D01*
X86799115Y-113838418D01*
X87453139Y-114493585D01*
X88308100Y-114848596D01*
X89233838Y-114849403D01*
X90089418Y-114495885D01*
X90744585Y-113841861D01*
X91099596Y-112986900D01*
X91100403Y-112061162D01*
X90746885Y-111205582D01*
X90092861Y-110550415D01*
X89237900Y-110195404D01*
X88312162Y-110194597D01*
X87456582Y-110548115D01*
X86801415Y-111202139D01*
X86446404Y-112057100D01*
X86445597Y-112982838D01*
X85638000Y-112982838D01*
X85638000Y-72977838D01*
X86445597Y-72977838D01*
X86799115Y-73833418D01*
X87453139Y-74488585D01*
X88308100Y-74843596D01*
X89233838Y-74844403D01*
X90089418Y-74490885D01*
X90744585Y-73836861D01*
X91099596Y-72981900D01*
X91100403Y-72056162D01*
X90746885Y-71200582D01*
X90092861Y-70545415D01*
X89237900Y-70190404D01*
X88312162Y-70189597D01*
X87456582Y-70543115D01*
X86801415Y-71197139D01*
X86446404Y-72052100D01*
X86445597Y-72977838D01*
X85638000Y-72977838D01*
X85638000Y-69239634D01*
X85805851Y-69407778D01*
X86164810Y-69556830D01*
X86553485Y-69557170D01*
X86912703Y-69408744D01*
X87187778Y-69134149D01*
X87336830Y-68775190D01*
X87337170Y-68386515D01*
X87188744Y-68027297D01*
X87019742Y-67858000D01*
X109222760Y-67858000D01*
X108457760Y-68623000D01*
X108457760Y-68623000D01*
G37*
X108457760Y-68623000D02*
X95504000Y-68623000D01*
X95034448Y-68716399D01*
X94636380Y-68982380D01*
X92858380Y-70760380D01*
X92592400Y-71158447D01*
X92499000Y-71628000D01*
X92499000Y-113792000D01*
X92592400Y-114261553D01*
X92813497Y-114592448D01*
X92858380Y-114659620D01*
X94128380Y-115929620D01*
X94526447Y-116195600D01*
X94996000Y-116289000D01*
X100330000Y-116289000D01*
X100799553Y-116195600D01*
X101197620Y-115929620D01*
X101463600Y-115531553D01*
X101557000Y-115062000D01*
X101463600Y-114592447D01*
X101197620Y-114194380D01*
X100799553Y-113928400D01*
X100330000Y-113835000D01*
X100002748Y-113835000D01*
X100037000Y-113752309D01*
X100037000Y-113061750D01*
X99878250Y-112903000D01*
X98679000Y-112903000D01*
X98679000Y-112923000D01*
X98425000Y-112923000D01*
X98425000Y-112903000D01*
X98405000Y-112903000D01*
X98405000Y-112649000D01*
X98425000Y-112649000D01*
X98425000Y-112629000D01*
X98679000Y-112629000D01*
X98679000Y-112649000D01*
X99878250Y-112649000D01*
X100037000Y-112490250D01*
X100037000Y-111987910D01*
X100932455Y-111092455D01*
X101117145Y-110816046D01*
X101130010Y-110751368D01*
X104386675Y-110751368D01*
X104411903Y-111371461D01*
X104600668Y-111827179D01*
X104859744Y-111916651D01*
X105778395Y-110998000D01*
X104859744Y-110079349D01*
X104600668Y-110168821D01*
X104386675Y-110751368D01*
X101130010Y-110751368D01*
X101182000Y-110490000D01*
X101182000Y-102460910D01*
X101764000Y-101878910D01*
X101764000Y-105791000D01*
X101828855Y-106117046D01*
X102013545Y-106393455D01*
X104045545Y-108425455D01*
X104321954Y-108610145D01*
X104648000Y-108675000D01*
X113792000Y-108675000D01*
X114118046Y-108610145D01*
X114394455Y-108425455D01*
X115410455Y-107409455D01*
X115595145Y-107133046D01*
X115660000Y-106807000D01*
X115660000Y-106190492D01*
X115749492Y-106280140D01*
X116126821Y-106436821D01*
X116228154Y-106436910D01*
X116200400Y-106478447D01*
X116107000Y-106948000D01*
X116107000Y-108069032D01*
X116067154Y-108094672D01*
X115901157Y-108337615D01*
X115842758Y-108626000D01*
X115842758Y-109382002D01*
X114420002Y-110804758D01*
X112669000Y-110804758D01*
X112399590Y-110855451D01*
X112152154Y-111014672D01*
X111986157Y-111257615D01*
X111978789Y-111294000D01*
X110124242Y-111294000D01*
X110124242Y-110073000D01*
X110073549Y-109803590D01*
X109914328Y-109556154D01*
X109671385Y-109390157D01*
X109383000Y-109331758D01*
X107533000Y-109331758D01*
X107263590Y-109382451D01*
X107016154Y-109541672D01*
X106850157Y-109784615D01*
X106845254Y-109808829D01*
X106787179Y-109640668D01*
X106204632Y-109426675D01*
X105584539Y-109451903D01*
X105128821Y-109640668D01*
X105039349Y-109899744D01*
X105958000Y-110818395D01*
X105972143Y-110804253D01*
X106151748Y-110983858D01*
X106137605Y-110998000D01*
X106151748Y-111012143D01*
X105972143Y-111191748D01*
X105958000Y-111177605D01*
X105039349Y-112096256D01*
X105128821Y-112355332D01*
X105711368Y-112569325D01*
X106331461Y-112544097D01*
X106787179Y-112355332D01*
X106843097Y-112193414D01*
X107001672Y-112439846D01*
X107244615Y-112605843D01*
X107533000Y-112664242D01*
X107627002Y-112664242D01*
X108351380Y-113388620D01*
X108749448Y-113654601D01*
X109219000Y-113748000D01*
X111975175Y-113748000D01*
X111978451Y-113765410D01*
X112137672Y-114012846D01*
X112266264Y-114100710D01*
X112130673Y-114236302D01*
X112034000Y-114469691D01*
X112034000Y-115285250D01*
X112192750Y-115444000D01*
X113792000Y-115444000D01*
X113792000Y-115424000D01*
X114046000Y-115424000D01*
X114046000Y-115444000D01*
X115645250Y-115444000D01*
X115804000Y-115285250D01*
X115804000Y-114469691D01*
X115707327Y-114236302D01*
X115571764Y-114100738D01*
X115685846Y-114027328D01*
X115851843Y-113784385D01*
X115910242Y-113496000D01*
X115910242Y-112784998D01*
X117327998Y-111367242D01*
X118084000Y-111367242D01*
X118353410Y-111316549D01*
X118483953Y-111232547D01*
X118595615Y-111308843D01*
X118884000Y-111367242D01*
X120384000Y-111367242D01*
X120653410Y-111316549D01*
X120864252Y-111180875D01*
X121057690Y-111261000D01*
X121648250Y-111261000D01*
X121807000Y-111102250D01*
X121807000Y-109753000D01*
X122061000Y-109753000D01*
X122061000Y-111102250D01*
X122219750Y-111261000D01*
X122810310Y-111261000D01*
X123043699Y-111164327D01*
X123222327Y-110985698D01*
X123319000Y-110752309D01*
X123319000Y-109911750D01*
X123160250Y-109753000D01*
X122061000Y-109753000D01*
X121807000Y-109753000D01*
X121787000Y-109753000D01*
X121787000Y-109499000D01*
X121807000Y-109499000D01*
X121807000Y-109479000D01*
X122061000Y-109479000D01*
X122061000Y-109499000D01*
X123160250Y-109499000D01*
X123319000Y-109340250D01*
X123319000Y-108669000D01*
X124713760Y-108669000D01*
X125123814Y-109079054D01*
X125006448Y-109102400D01*
X124608380Y-109368380D01*
X124481380Y-109495380D01*
X124215400Y-109893447D01*
X124122000Y-110363000D01*
X124122000Y-110804758D01*
X124099000Y-110804758D01*
X123829590Y-110855451D01*
X123582154Y-111014672D01*
X123416157Y-111257615D01*
X123357758Y-111546000D01*
X123357758Y-113496000D01*
X123408451Y-113765410D01*
X123567672Y-114012846D01*
X123696264Y-114100710D01*
X123560673Y-114236302D01*
X123464000Y-114469691D01*
X123464000Y-115285250D01*
X123622750Y-115444000D01*
X125222000Y-115444000D01*
X125222000Y-115424000D01*
X125476000Y-115424000D01*
X125476000Y-115444000D01*
X127075250Y-115444000D01*
X127234000Y-115285250D01*
X127234000Y-114469691D01*
X127137327Y-114236302D01*
X127001764Y-114100738D01*
X127115846Y-114027328D01*
X127281843Y-113784385D01*
X127340242Y-113496000D01*
X127340242Y-112982838D01*
X144230597Y-112982838D01*
X144584115Y-113838418D01*
X145238139Y-114493585D01*
X146093100Y-114848596D01*
X147018838Y-114849403D01*
X147874418Y-114495885D01*
X148529585Y-113841861D01*
X148884596Y-112986900D01*
X148885403Y-112061162D01*
X148531885Y-111205582D01*
X147877861Y-110550415D01*
X147022900Y-110195404D01*
X146097162Y-110194597D01*
X145241582Y-110548115D01*
X144586415Y-111202139D01*
X144231404Y-112057100D01*
X144230597Y-112982838D01*
X127340242Y-112982838D01*
X127340242Y-112096256D01*
X129757349Y-112096256D01*
X129846821Y-112355332D01*
X130429368Y-112569325D01*
X131049461Y-112544097D01*
X131505179Y-112355332D01*
X131594651Y-112096256D01*
X130676000Y-111177605D01*
X129757349Y-112096256D01*
X127340242Y-112096256D01*
X127340242Y-111546000D01*
X127289549Y-111276590D01*
X127218135Y-111165610D01*
X127469553Y-111115600D01*
X127867620Y-110849620D01*
X127933269Y-110751368D01*
X129104675Y-110751368D01*
X129129903Y-111371461D01*
X129318668Y-111827179D01*
X129577744Y-111916651D01*
X130496395Y-110998000D01*
X129577744Y-110079349D01*
X129318668Y-110168821D01*
X129104675Y-110751368D01*
X127933269Y-110751368D01*
X128133600Y-110451553D01*
X128227000Y-109982000D01*
X128227000Y-109899744D01*
X129757349Y-109899744D01*
X130676000Y-110818395D01*
X131594651Y-109899744D01*
X131505179Y-109640668D01*
X130922632Y-109426675D01*
X130302539Y-109451903D01*
X129846821Y-109640668D01*
X129757349Y-109899744D01*
X128227000Y-109899744D01*
X128227000Y-109220000D01*
X128221439Y-109192042D01*
X128133601Y-108750448D01*
X127867620Y-108352380D01*
X126089620Y-106574380D01*
X126041091Y-106541954D01*
X125691553Y-106308400D01*
X125222000Y-106215000D01*
X122682240Y-106215000D01*
X121517620Y-105050380D01*
X121447990Y-105003855D01*
X121119553Y-104784400D01*
X120650000Y-104691000D01*
X119271910Y-104691000D01*
X121002910Y-102960000D01*
X121920000Y-102960000D01*
X122246046Y-102895145D01*
X122267093Y-102881082D01*
X122377387Y-102881178D01*
X122754989Y-102725156D01*
X123044140Y-102436508D01*
X123200821Y-102059179D01*
X123200922Y-101944000D01*
X125872921Y-101944000D01*
X125872805Y-102077191D01*
X126044019Y-102491560D01*
X126360772Y-102808867D01*
X126774842Y-102980804D01*
X127223191Y-102981195D01*
X127637560Y-102809981D01*
X127666592Y-102781000D01*
X132080000Y-102781000D01*
X132434748Y-102710436D01*
X132735488Y-102509488D01*
X133225976Y-102019000D01*
X136741000Y-102019000D01*
X136741000Y-103124000D01*
X136811564Y-103478748D01*
X136963748Y-103706508D01*
X137012512Y-103779488D01*
X137249000Y-104015976D01*
X137249000Y-105542758D01*
X136744000Y-105542758D01*
X136474590Y-105593451D01*
X136227154Y-105752672D01*
X136144165Y-105874130D01*
X136075328Y-105767154D01*
X135980000Y-105702019D01*
X135980000Y-104105616D01*
X135998140Y-104087508D01*
X136154821Y-103710179D01*
X136155178Y-103301613D01*
X135999156Y-102924011D01*
X135710508Y-102634860D01*
X135333179Y-102478179D01*
X134924613Y-102477822D01*
X134619715Y-102603803D01*
X134317179Y-102478179D01*
X133908613Y-102477822D01*
X133531011Y-102633844D01*
X133241860Y-102922492D01*
X133085179Y-103299821D01*
X133084822Y-103708387D01*
X133240844Y-104085989D01*
X133260000Y-104105178D01*
X133260000Y-105577004D01*
X133172590Y-105593451D01*
X132925154Y-105752672D01*
X132842165Y-105874130D01*
X132773328Y-105767154D01*
X132530385Y-105601157D01*
X132242000Y-105542758D01*
X131542000Y-105542758D01*
X131272590Y-105593451D01*
X131025154Y-105752672D01*
X130859157Y-105995615D01*
X130800758Y-106284000D01*
X130800758Y-107584000D01*
X130851451Y-107853410D01*
X131010672Y-108100846D01*
X131064145Y-108137383D01*
X131104855Y-108342046D01*
X131289545Y-108618455D01*
X132260076Y-109588986D01*
X132241439Y-109596686D01*
X131776319Y-110060995D01*
X131764751Y-110088854D01*
X130855605Y-110998000D01*
X131763786Y-111906181D01*
X131774686Y-111932561D01*
X132238995Y-112397681D01*
X132845955Y-112649713D01*
X133503162Y-112650287D01*
X134110561Y-112399314D01*
X134426143Y-112084282D01*
X134738995Y-112397681D01*
X135345955Y-112649713D01*
X136003162Y-112650287D01*
X136610561Y-112399314D01*
X136661116Y-112348847D01*
X136719672Y-112439846D01*
X136962615Y-112605843D01*
X137251000Y-112664242D01*
X139101000Y-112664242D01*
X139370410Y-112613549D01*
X139617846Y-112454328D01*
X139783843Y-112211385D01*
X139842242Y-111923000D01*
X139842242Y-110073000D01*
X139791549Y-109803590D01*
X139632328Y-109556154D01*
X139389385Y-109390157D01*
X139103000Y-109332163D01*
X139103000Y-107727750D01*
X140779500Y-107727750D01*
X140779500Y-107822309D01*
X140876173Y-108055698D01*
X141054801Y-108234327D01*
X141288190Y-108331000D01*
X141700250Y-108331000D01*
X141859000Y-108172250D01*
X141859000Y-107569000D01*
X142113000Y-107569000D01*
X142113000Y-108172250D01*
X142271750Y-108331000D01*
X142683810Y-108331000D01*
X142917199Y-108234327D01*
X143095827Y-108055698D01*
X143192500Y-107822309D01*
X143192500Y-107727750D01*
X143033750Y-107569000D01*
X142113000Y-107569000D01*
X141859000Y-107569000D01*
X140938250Y-107569000D01*
X140779500Y-107727750D01*
X139103000Y-107727750D01*
X139103000Y-104709707D01*
X139202690Y-104751000D01*
X139668250Y-104751000D01*
X139827000Y-104592250D01*
X139827000Y-103743000D01*
X139807000Y-103743000D01*
X139807000Y-103489000D01*
X139827000Y-103489000D01*
X139827000Y-103469000D01*
X140081000Y-103469000D01*
X140081000Y-103489000D01*
X140922250Y-103489000D01*
X140938250Y-103505000D01*
X141859000Y-103505000D01*
X141859000Y-103485000D01*
X142113000Y-103485000D01*
X142113000Y-103505000D01*
X142133000Y-103505000D01*
X142133000Y-103759000D01*
X142113000Y-103759000D01*
X142113000Y-103779000D01*
X141859000Y-103779000D01*
X141859000Y-103759000D01*
X141071250Y-103759000D01*
X141055250Y-103743000D01*
X140081000Y-103743000D01*
X140081000Y-104592250D01*
X140239750Y-104751000D01*
X140673258Y-104751000D01*
X140673258Y-105156000D01*
X140723951Y-105425410D01*
X140795360Y-105536383D01*
X140731657Y-105629615D01*
X140673258Y-105918000D01*
X140673258Y-106426000D01*
X140723951Y-106695410D01*
X140850049Y-106891371D01*
X140779500Y-107061691D01*
X140779500Y-107156250D01*
X140938250Y-107315000D01*
X141859000Y-107315000D01*
X141859000Y-107295000D01*
X142113000Y-107295000D01*
X142113000Y-107315000D01*
X143033750Y-107315000D01*
X143192500Y-107156250D01*
X143192500Y-107061691D01*
X143176888Y-107024000D01*
X143764000Y-107024000D01*
X144090046Y-106959145D01*
X144366455Y-106774455D01*
X146906455Y-104234455D01*
X147048753Y-104021492D01*
X147073951Y-104155410D01*
X147200049Y-104351371D01*
X147129500Y-104521691D01*
X147129500Y-104616250D01*
X147288250Y-104775000D01*
X148209000Y-104775000D01*
X148209000Y-104755000D01*
X148463000Y-104755000D01*
X148463000Y-104775000D01*
X149383750Y-104775000D01*
X149542500Y-104616250D01*
X149542500Y-104521691D01*
X149470993Y-104349058D01*
X149566000Y-104210012D01*
X149566000Y-105598785D01*
X149471951Y-105452629D01*
X149542500Y-105282309D01*
X149542500Y-105187750D01*
X149383750Y-105029000D01*
X148463000Y-105029000D01*
X148463000Y-105049000D01*
X148209000Y-105049000D01*
X148209000Y-105029000D01*
X147288250Y-105029000D01*
X147172158Y-105145092D01*
X146862613Y-105144822D01*
X146485011Y-105300844D01*
X146195860Y-105589492D01*
X146039179Y-105966821D01*
X146038822Y-106375387D01*
X146194844Y-106752989D01*
X146483492Y-107042140D01*
X146860821Y-107198821D01*
X147023258Y-107198963D01*
X147023258Y-107696000D01*
X147073951Y-107965410D01*
X147233172Y-108212846D01*
X147476115Y-108378843D01*
X147764500Y-108437242D01*
X148907500Y-108437242D01*
X149176910Y-108386549D01*
X149320735Y-108294000D01*
X149352000Y-108294000D01*
X149566000Y-108251432D01*
X149566000Y-115672366D01*
X149398149Y-115504222D01*
X149039190Y-115355170D01*
X148650515Y-115354830D01*
X148291297Y-115503256D01*
X148016222Y-115777851D01*
X147867170Y-116136810D01*
X147866830Y-116525485D01*
X148015256Y-116884703D01*
X148184258Y-117054000D01*
X126989026Y-117054000D01*
X127137327Y-116905698D01*
X127234000Y-116672309D01*
X127234000Y-115856750D01*
X127075250Y-115698000D01*
X125476000Y-115698000D01*
X125476000Y-115718000D01*
X125222000Y-115718000D01*
X125222000Y-115698000D01*
X123622750Y-115698000D01*
X123464000Y-115856750D01*
X123464000Y-116672309D01*
X123560673Y-116905698D01*
X123708974Y-117054000D01*
X122249322Y-117054000D01*
X122275242Y-116926000D01*
X122275242Y-114926000D01*
X122224549Y-114656590D01*
X122065328Y-114409154D01*
X121822385Y-114243157D01*
X121534000Y-114184758D01*
X120861000Y-114184758D01*
X120861000Y-113284000D01*
X120767600Y-112814447D01*
X120501620Y-112416380D01*
X120103553Y-112150400D01*
X119634000Y-112057000D01*
X119164447Y-112150400D01*
X118766380Y-112416380D01*
X118500400Y-112814447D01*
X118407000Y-113284000D01*
X118407000Y-114184758D01*
X117734000Y-114184758D01*
X117464590Y-114235451D01*
X117217154Y-114394672D01*
X117051157Y-114637615D01*
X116992758Y-114926000D01*
X116992758Y-116926000D01*
X117016843Y-117054000D01*
X115559026Y-117054000D01*
X115707327Y-116905698D01*
X115804000Y-116672309D01*
X115804000Y-115856750D01*
X115645250Y-115698000D01*
X114046000Y-115698000D01*
X114046000Y-115718000D01*
X113792000Y-115718000D01*
X113792000Y-115698000D01*
X112192750Y-115698000D01*
X112034000Y-115856750D01*
X112034000Y-116672309D01*
X112130673Y-116905698D01*
X112278974Y-117054000D01*
X87019634Y-117054000D01*
X87187778Y-116886149D01*
X87336830Y-116527190D01*
X87337170Y-116138515D01*
X87188744Y-115779297D01*
X86914149Y-115504222D01*
X86555190Y-115355170D01*
X86166515Y-115354830D01*
X85807297Y-115503256D01*
X85638000Y-115672258D01*
X85638000Y-112982838D01*
X86445597Y-112982838D01*
X86799115Y-113838418D01*
X87453139Y-114493585D01*
X88308100Y-114848596D01*
X89233838Y-114849403D01*
X90089418Y-114495885D01*
X90744585Y-113841861D01*
X91099596Y-112986900D01*
X91100403Y-112061162D01*
X90746885Y-111205582D01*
X90092861Y-110550415D01*
X89237900Y-110195404D01*
X88312162Y-110194597D01*
X87456582Y-110548115D01*
X86801415Y-111202139D01*
X86446404Y-112057100D01*
X86445597Y-112982838D01*
X85638000Y-112982838D01*
X85638000Y-72977838D01*
X86445597Y-72977838D01*
X86799115Y-73833418D01*
X87453139Y-74488585D01*
X88308100Y-74843596D01*
X89233838Y-74844403D01*
X90089418Y-74490885D01*
X90744585Y-73836861D01*
X91099596Y-72981900D01*
X91100403Y-72056162D01*
X90746885Y-71200582D01*
X90092861Y-70545415D01*
X89237900Y-70190404D01*
X88312162Y-70189597D01*
X87456582Y-70543115D01*
X86801415Y-71197139D01*
X86446404Y-72052100D01*
X86445597Y-72977838D01*
X85638000Y-72977838D01*
X85638000Y-69239634D01*
X85805851Y-69407778D01*
X86164810Y-69556830D01*
X86553485Y-69557170D01*
X86912703Y-69408744D01*
X87187778Y-69134149D01*
X87336830Y-68775190D01*
X87337170Y-68386515D01*
X87188744Y-68027297D01*
X87019742Y-67858000D01*
X109222760Y-67858000D01*
X108457760Y-68623000D01*
G36*
X98745748Y-110221858D02*
X98731605Y-110236000D01*
X98745748Y-110250143D01*
X98566143Y-110429748D01*
X98552000Y-110415605D01*
X98537858Y-110429748D01*
X98358253Y-110250143D01*
X98372395Y-110236000D01*
X98358253Y-110221858D01*
X98537858Y-110042253D01*
X98552000Y-110056395D01*
X98566143Y-110042253D01*
X98745748Y-110221858D01*
X98745748Y-110221858D01*
G37*
X98745748Y-110221858D02*
X98731605Y-110236000D01*
X98745748Y-110250143D01*
X98566143Y-110429748D01*
X98552000Y-110415605D01*
X98537858Y-110429748D01*
X98358253Y-110250143D01*
X98372395Y-110236000D01*
X98358253Y-110221858D01*
X98537858Y-110042253D01*
X98552000Y-110056395D01*
X98566143Y-110042253D01*
X98745748Y-110221858D01*
G36*
X98745748Y-102601858D02*
X98731605Y-102616000D01*
X98745748Y-102630143D01*
X98566143Y-102809748D01*
X98552000Y-102795605D01*
X97687647Y-103659958D01*
X97759852Y-103886000D01*
X97687647Y-104112042D01*
X98552000Y-104976395D01*
X98566143Y-104962253D01*
X98745748Y-105141858D01*
X98731605Y-105156000D01*
X98745748Y-105170143D01*
X98566143Y-105349748D01*
X98552000Y-105335605D01*
X97687647Y-106199958D01*
X97759852Y-106426000D01*
X97687647Y-106652042D01*
X98552000Y-107516395D01*
X98566143Y-107502253D01*
X98745748Y-107681858D01*
X98731605Y-107696000D01*
X98745748Y-107710143D01*
X98566143Y-107889748D01*
X98552000Y-107875605D01*
X98537858Y-107889748D01*
X98358253Y-107710143D01*
X98372395Y-107696000D01*
X97508042Y-106831647D01*
X97378297Y-106873091D01*
X97349695Y-106803868D01*
X96972216Y-106425730D01*
X97348136Y-106050465D01*
X97377901Y-105978782D01*
X97508042Y-106020353D01*
X98372395Y-105156000D01*
X97508042Y-104291647D01*
X97378297Y-104333091D01*
X97349695Y-104263868D01*
X96972216Y-103885730D01*
X97348136Y-103510465D01*
X97377901Y-103438782D01*
X97508042Y-103480353D01*
X98372395Y-102616000D01*
X98358253Y-102601858D01*
X98537858Y-102422253D01*
X98552000Y-102436395D01*
X98566143Y-102422253D01*
X98745748Y-102601858D01*
X98745748Y-102601858D01*
G37*
X98745748Y-102601858D02*
X98731605Y-102616000D01*
X98745748Y-102630143D01*
X98566143Y-102809748D01*
X98552000Y-102795605D01*
X97687647Y-103659958D01*
X97759852Y-103886000D01*
X97687647Y-104112042D01*
X98552000Y-104976395D01*
X98566143Y-104962253D01*
X98745748Y-105141858D01*
X98731605Y-105156000D01*
X98745748Y-105170143D01*
X98566143Y-105349748D01*
X98552000Y-105335605D01*
X97687647Y-106199958D01*
X97759852Y-106426000D01*
X97687647Y-106652042D01*
X98552000Y-107516395D01*
X98566143Y-107502253D01*
X98745748Y-107681858D01*
X98731605Y-107696000D01*
X98745748Y-107710143D01*
X98566143Y-107889748D01*
X98552000Y-107875605D01*
X98537858Y-107889748D01*
X98358253Y-107710143D01*
X98372395Y-107696000D01*
X97508042Y-106831647D01*
X97378297Y-106873091D01*
X97349695Y-106803868D01*
X96972216Y-106425730D01*
X97348136Y-106050465D01*
X97377901Y-105978782D01*
X97508042Y-106020353D01*
X98372395Y-105156000D01*
X97508042Y-104291647D01*
X97378297Y-104333091D01*
X97349695Y-104263868D01*
X96972216Y-103885730D01*
X97348136Y-103510465D01*
X97377901Y-103438782D01*
X97508042Y-103480353D01*
X98372395Y-102616000D01*
X98358253Y-102601858D01*
X98537858Y-102422253D01*
X98552000Y-102436395D01*
X98566143Y-102422253D01*
X98745748Y-102601858D01*
G36*
X109018492Y-104756140D02*
X109395821Y-104912821D01*
X109804387Y-104913178D01*
X110181989Y-104757156D01*
X110201178Y-104738000D01*
X110667490Y-104738000D01*
X110682363Y-104773996D01*
X110799197Y-104891034D01*
X110716054Y-104900781D01*
X110590983Y-105290443D01*
X110624549Y-105698307D01*
X110716054Y-105919219D01*
X110920239Y-105943156D01*
X111453395Y-105410000D01*
X111439253Y-105395858D01*
X111574461Y-105260649D01*
X111691642Y-105260752D01*
X111782351Y-105351461D01*
X111782248Y-105468642D01*
X111647143Y-105603748D01*
X111633000Y-105589605D01*
X111581464Y-105641141D01*
X111576527Y-105643181D01*
X111232389Y-105986719D01*
X111229906Y-105992699D01*
X111099844Y-106122761D01*
X111116589Y-106265597D01*
X111045913Y-106435803D01*
X111045489Y-106922064D01*
X111065709Y-106971000D01*
X105000910Y-106971000D01*
X104748971Y-106719061D01*
X105282387Y-106612958D01*
X105794002Y-106271107D01*
X105979993Y-105992753D01*
X106306642Y-106351183D01*
X106831108Y-106597486D01*
X107061000Y-106476819D01*
X107061000Y-105283000D01*
X107315000Y-105283000D01*
X107315000Y-106476819D01*
X107544892Y-106597486D01*
X108069358Y-106351183D01*
X108459645Y-105922924D01*
X108629476Y-105512890D01*
X108508155Y-105283000D01*
X107315000Y-105283000D01*
X107061000Y-105283000D01*
X107041000Y-105283000D01*
X107041000Y-105029000D01*
X107061000Y-105029000D01*
X107061000Y-105009000D01*
X107315000Y-105009000D01*
X107315000Y-105029000D01*
X108508155Y-105029000D01*
X108629476Y-104799110D01*
X108604165Y-104738000D01*
X109000384Y-104738000D01*
X109018492Y-104756140D01*
X109018492Y-104756140D01*
G37*
X109018492Y-104756140D02*
X109395821Y-104912821D01*
X109804387Y-104913178D01*
X110181989Y-104757156D01*
X110201178Y-104738000D01*
X110667490Y-104738000D01*
X110682363Y-104773996D01*
X110799197Y-104891034D01*
X110716054Y-104900781D01*
X110590983Y-105290443D01*
X110624549Y-105698307D01*
X110716054Y-105919219D01*
X110920239Y-105943156D01*
X111453395Y-105410000D01*
X111439253Y-105395858D01*
X111574461Y-105260649D01*
X111691642Y-105260752D01*
X111782351Y-105351461D01*
X111782248Y-105468642D01*
X111647143Y-105603748D01*
X111633000Y-105589605D01*
X111581464Y-105641141D01*
X111576527Y-105643181D01*
X111232389Y-105986719D01*
X111229906Y-105992699D01*
X111099844Y-106122761D01*
X111116589Y-106265597D01*
X111045913Y-106435803D01*
X111045489Y-106922064D01*
X111065709Y-106971000D01*
X105000910Y-106971000D01*
X104748971Y-106719061D01*
X105282387Y-106612958D01*
X105794002Y-106271107D01*
X105979993Y-105992753D01*
X106306642Y-106351183D01*
X106831108Y-106597486D01*
X107061000Y-106476819D01*
X107061000Y-105283000D01*
X107315000Y-105283000D01*
X107315000Y-106476819D01*
X107544892Y-106597486D01*
X108069358Y-106351183D01*
X108459645Y-105922924D01*
X108629476Y-105512890D01*
X108508155Y-105283000D01*
X107315000Y-105283000D01*
X107061000Y-105283000D01*
X107041000Y-105283000D01*
X107041000Y-105029000D01*
X107061000Y-105029000D01*
X107061000Y-105009000D01*
X107315000Y-105009000D01*
X107315000Y-105029000D01*
X108508155Y-105029000D01*
X108629476Y-104799110D01*
X108604165Y-104738000D01*
X109000384Y-104738000D01*
X109018492Y-104756140D01*
G36*
X112961641Y-103990751D02*
X113096748Y-104125858D01*
X113082605Y-104140000D01*
X113096748Y-104154143D01*
X112961539Y-104289351D01*
X112844358Y-104289248D01*
X112753649Y-104198539D01*
X112753752Y-104081358D01*
X112844461Y-103990649D01*
X112961641Y-103990751D01*
X112961641Y-103990751D01*
G37*
X112961641Y-103990751D02*
X113096748Y-104125858D01*
X113082605Y-104140000D01*
X113096748Y-104154143D01*
X112961539Y-104289351D01*
X112844358Y-104289248D01*
X112753649Y-104198539D01*
X112753752Y-104081358D01*
X112844461Y-103990649D01*
X112961641Y-103990751D01*
G36*
X149566000Y-103058785D02*
X149471951Y-102912629D01*
X149542500Y-102742309D01*
X149542500Y-102647750D01*
X149383750Y-102489000D01*
X148463000Y-102489000D01*
X148463000Y-102509000D01*
X148209000Y-102509000D01*
X148209000Y-102489000D01*
X148189000Y-102489000D01*
X148189000Y-102235000D01*
X148209000Y-102235000D01*
X148209000Y-101219000D01*
X148463000Y-101219000D01*
X148463000Y-102235000D01*
X149383750Y-102235000D01*
X149542500Y-102076250D01*
X149542500Y-101981691D01*
X149445827Y-101748302D01*
X149424525Y-101727000D01*
X149445827Y-101705698D01*
X149542500Y-101472309D01*
X149542500Y-101377750D01*
X149383750Y-101219000D01*
X148463000Y-101219000D01*
X148209000Y-101219000D01*
X148189000Y-101219000D01*
X148189000Y-100965000D01*
X148209000Y-100965000D01*
X148209000Y-100945000D01*
X148463000Y-100945000D01*
X148463000Y-100965000D01*
X149383750Y-100965000D01*
X149542500Y-100806250D01*
X149542500Y-100711691D01*
X149470993Y-100539058D01*
X149566000Y-100400012D01*
X149566000Y-103058785D01*
X149566000Y-103058785D01*
G37*
X149566000Y-103058785D02*
X149471951Y-102912629D01*
X149542500Y-102742309D01*
X149542500Y-102647750D01*
X149383750Y-102489000D01*
X148463000Y-102489000D01*
X148463000Y-102509000D01*
X148209000Y-102509000D01*
X148209000Y-102489000D01*
X148189000Y-102489000D01*
X148189000Y-102235000D01*
X148209000Y-102235000D01*
X148209000Y-101219000D01*
X148463000Y-101219000D01*
X148463000Y-102235000D01*
X149383750Y-102235000D01*
X149542500Y-102076250D01*
X149542500Y-101981691D01*
X149445827Y-101748302D01*
X149424525Y-101727000D01*
X149445827Y-101705698D01*
X149542500Y-101472309D01*
X149542500Y-101377750D01*
X149383750Y-101219000D01*
X148463000Y-101219000D01*
X148209000Y-101219000D01*
X148189000Y-101219000D01*
X148189000Y-100965000D01*
X148209000Y-100965000D01*
X148209000Y-100945000D01*
X148463000Y-100945000D01*
X148463000Y-100965000D01*
X149383750Y-100965000D01*
X149542500Y-100806250D01*
X149542500Y-100711691D01*
X149470993Y-100539058D01*
X149566000Y-100400012D01*
X149566000Y-103058785D01*
G36*
X98745748Y-100061858D02*
X98731605Y-100076000D01*
X98745748Y-100090143D01*
X98566143Y-100269748D01*
X98552000Y-100255605D01*
X98537858Y-100269748D01*
X98358253Y-100090143D01*
X98372395Y-100076000D01*
X98358253Y-100061858D01*
X98537858Y-99882253D01*
X98552000Y-99896395D01*
X98566143Y-99882253D01*
X98745748Y-100061858D01*
X98745748Y-100061858D01*
G37*
X98745748Y-100061858D02*
X98731605Y-100076000D01*
X98745748Y-100090143D01*
X98566143Y-100269748D01*
X98552000Y-100255605D01*
X98537858Y-100269748D01*
X98358253Y-100090143D01*
X98372395Y-100076000D01*
X98358253Y-100061858D01*
X98537858Y-99882253D01*
X98552000Y-99896395D01*
X98566143Y-99882253D01*
X98745748Y-100061858D01*
G36*
X142113000Y-99695000D02*
X142133000Y-99695000D01*
X142133000Y-99949000D01*
X142113000Y-99949000D01*
X142113000Y-99969000D01*
X141859000Y-99969000D01*
X141859000Y-99949000D01*
X140938250Y-99949000D01*
X140779500Y-100107750D01*
X140779500Y-100202309D01*
X140785848Y-100217635D01*
X140536508Y-99967860D01*
X140442135Y-99928673D01*
X140845560Y-99761981D01*
X140925465Y-99682215D01*
X140938250Y-99695000D01*
X141859000Y-99695000D01*
X141859000Y-99675000D01*
X142113000Y-99675000D01*
X142113000Y-99695000D01*
X142113000Y-99695000D01*
G37*
X142113000Y-99695000D02*
X142133000Y-99695000D01*
X142133000Y-99949000D01*
X142113000Y-99949000D01*
X142113000Y-99969000D01*
X141859000Y-99969000D01*
X141859000Y-99949000D01*
X140938250Y-99949000D01*
X140779500Y-100107750D01*
X140779500Y-100202309D01*
X140785848Y-100217635D01*
X140536508Y-99967860D01*
X140442135Y-99928673D01*
X140845560Y-99761981D01*
X140925465Y-99682215D01*
X140938250Y-99695000D01*
X141859000Y-99695000D01*
X141859000Y-99675000D01*
X142113000Y-99675000D01*
X142113000Y-99695000D01*
G36*
X135329000Y-96059242D02*
X135776992Y-96059242D01*
X135739157Y-96114615D01*
X135680758Y-96403000D01*
X135680758Y-97653000D01*
X135731451Y-97922410D01*
X135798581Y-98026732D01*
X135787000Y-98054690D01*
X135787000Y-98520250D01*
X135945750Y-98679000D01*
X136795000Y-98679000D01*
X136795000Y-98659000D01*
X137049000Y-98659000D01*
X137049000Y-98679000D01*
X137069000Y-98679000D01*
X137069000Y-98933000D01*
X137049000Y-98933000D01*
X137049000Y-99907250D01*
X137205454Y-100063704D01*
X137030440Y-100136019D01*
X137001408Y-100165000D01*
X133957910Y-100165000D01*
X134606455Y-99516455D01*
X134791145Y-99240046D01*
X134820643Y-99091750D01*
X135787000Y-99091750D01*
X135787000Y-99557310D01*
X135883673Y-99790699D01*
X136062302Y-99969327D01*
X136295691Y-100066000D01*
X136636250Y-100066000D01*
X136795000Y-99907250D01*
X136795000Y-98933000D01*
X135945750Y-98933000D01*
X135787000Y-99091750D01*
X134820643Y-99091750D01*
X134856000Y-98914000D01*
X134856000Y-96059242D01*
X135079000Y-96059242D01*
X135208588Y-96034858D01*
X135329000Y-96059242D01*
X135329000Y-96059242D01*
G37*
X135329000Y-96059242D02*
X135776992Y-96059242D01*
X135739157Y-96114615D01*
X135680758Y-96403000D01*
X135680758Y-97653000D01*
X135731451Y-97922410D01*
X135798581Y-98026732D01*
X135787000Y-98054690D01*
X135787000Y-98520250D01*
X135945750Y-98679000D01*
X136795000Y-98679000D01*
X136795000Y-98659000D01*
X137049000Y-98659000D01*
X137049000Y-98679000D01*
X137069000Y-98679000D01*
X137069000Y-98933000D01*
X137049000Y-98933000D01*
X137049000Y-99907250D01*
X137205454Y-100063704D01*
X137030440Y-100136019D01*
X137001408Y-100165000D01*
X133957910Y-100165000D01*
X134606455Y-99516455D01*
X134791145Y-99240046D01*
X134820643Y-99091750D01*
X135787000Y-99091750D01*
X135787000Y-99557310D01*
X135883673Y-99790699D01*
X136062302Y-99969327D01*
X136295691Y-100066000D01*
X136636250Y-100066000D01*
X136795000Y-99907250D01*
X136795000Y-98933000D01*
X135945750Y-98933000D01*
X135787000Y-99091750D01*
X134820643Y-99091750D01*
X134856000Y-98914000D01*
X134856000Y-96059242D01*
X135079000Y-96059242D01*
X135208588Y-96034858D01*
X135329000Y-96059242D01*
G36*
X111193264Y-94872174D02*
X111143860Y-94921492D01*
X110987179Y-95298821D01*
X110986892Y-95627188D01*
X110974000Y-95692000D01*
X110974000Y-95837119D01*
X110959154Y-95846672D01*
X110793157Y-96089615D01*
X110734758Y-96378000D01*
X110734758Y-97678000D01*
X110782454Y-97931483D01*
X110560527Y-98023181D01*
X110216389Y-98366719D01*
X110029913Y-98815803D01*
X110029557Y-99224000D01*
X108509805Y-99224000D01*
X108334002Y-98960893D01*
X108102189Y-98806000D01*
X108334002Y-98651107D01*
X108675853Y-98139492D01*
X108795895Y-97536000D01*
X108675853Y-96932508D01*
X108334002Y-96420893D01*
X108022882Y-96213009D01*
X108069358Y-96191183D01*
X108459645Y-95762924D01*
X108629476Y-95352890D01*
X108508155Y-95123000D01*
X107315000Y-95123000D01*
X107315000Y-95143000D01*
X107061000Y-95143000D01*
X107061000Y-95123000D01*
X107041000Y-95123000D01*
X107041000Y-94869000D01*
X107061000Y-94869000D01*
X107061000Y-94849000D01*
X107315000Y-94849000D01*
X107315000Y-94869000D01*
X108508155Y-94869000D01*
X108629476Y-94639110D01*
X108459645Y-94229076D01*
X108430413Y-94197000D01*
X110518090Y-94197000D01*
X111193264Y-94872174D01*
X111193264Y-94872174D01*
G37*
X111193264Y-94872174D02*
X111143860Y-94921492D01*
X110987179Y-95298821D01*
X110986892Y-95627188D01*
X110974000Y-95692000D01*
X110974000Y-95837119D01*
X110959154Y-95846672D01*
X110793157Y-96089615D01*
X110734758Y-96378000D01*
X110734758Y-97678000D01*
X110782454Y-97931483D01*
X110560527Y-98023181D01*
X110216389Y-98366719D01*
X110029913Y-98815803D01*
X110029557Y-99224000D01*
X108509805Y-99224000D01*
X108334002Y-98960893D01*
X108102189Y-98806000D01*
X108334002Y-98651107D01*
X108675853Y-98139492D01*
X108795895Y-97536000D01*
X108675853Y-96932508D01*
X108334002Y-96420893D01*
X108022882Y-96213009D01*
X108069358Y-96191183D01*
X108459645Y-95762924D01*
X108629476Y-95352890D01*
X108508155Y-95123000D01*
X107315000Y-95123000D01*
X107315000Y-95143000D01*
X107061000Y-95143000D01*
X107061000Y-95123000D01*
X107041000Y-95123000D01*
X107041000Y-94869000D01*
X107061000Y-94869000D01*
X107061000Y-94849000D01*
X107315000Y-94849000D01*
X107315000Y-94869000D01*
X108508155Y-94869000D01*
X108629476Y-94639110D01*
X108459645Y-94229076D01*
X108430413Y-94197000D01*
X110518090Y-94197000D01*
X111193264Y-94872174D01*
G36*
X141859000Y-96885000D02*
X141879000Y-96885000D01*
X141879000Y-97139000D01*
X141859000Y-97139000D01*
X141859000Y-97988250D01*
X141896000Y-98025250D01*
X141896000Y-98806000D01*
X141921262Y-98933000D01*
X141858998Y-98933000D01*
X141858998Y-99091748D01*
X141700250Y-98933000D01*
X141334890Y-98933000D01*
X141335195Y-98582809D01*
X141163981Y-98168440D01*
X141142578Y-98147000D01*
X141446250Y-98147000D01*
X141605000Y-97988250D01*
X141605000Y-97139000D01*
X141585000Y-97139000D01*
X141585000Y-96885000D01*
X141605000Y-96885000D01*
X141605000Y-96865000D01*
X141859000Y-96865000D01*
X141859000Y-96885000D01*
X141859000Y-96885000D01*
G37*
X141859000Y-96885000D02*
X141879000Y-96885000D01*
X141879000Y-97139000D01*
X141859000Y-97139000D01*
X141859000Y-97988250D01*
X141896000Y-98025250D01*
X141896000Y-98806000D01*
X141921262Y-98933000D01*
X141858998Y-98933000D01*
X141858998Y-99091748D01*
X141700250Y-98933000D01*
X141334890Y-98933000D01*
X141335195Y-98582809D01*
X141163981Y-98168440D01*
X141142578Y-98147000D01*
X141446250Y-98147000D01*
X141605000Y-97988250D01*
X141605000Y-97139000D01*
X141585000Y-97139000D01*
X141585000Y-96885000D01*
X141605000Y-96885000D01*
X141605000Y-96865000D01*
X141859000Y-96865000D01*
X141859000Y-96885000D01*
G36*
X144709415Y-97324443D02*
X144997800Y-97382842D01*
X146247800Y-97382842D01*
X146344748Y-97364600D01*
X147995800Y-97364600D01*
X147995800Y-97344600D01*
X148249800Y-97344600D01*
X148249800Y-97364600D01*
X148269800Y-97364600D01*
X148269800Y-97618600D01*
X148249800Y-97618600D01*
X148249800Y-98567850D01*
X148387261Y-98705311D01*
X148336832Y-98826758D01*
X147764500Y-98826758D01*
X147495090Y-98877451D01*
X147392425Y-98943515D01*
X147175510Y-98726600D01*
X147837050Y-98726600D01*
X147995800Y-98567850D01*
X147995800Y-97618600D01*
X145751550Y-97618600D01*
X145592800Y-97777350D01*
X145592800Y-97883695D01*
X145469011Y-97934844D01*
X145291228Y-98112318D01*
X144616000Y-97437090D01*
X144616000Y-97260615D01*
X144709415Y-97324443D01*
X144709415Y-97324443D01*
G37*
X144709415Y-97324443D02*
X144997800Y-97382842D01*
X146247800Y-97382842D01*
X146344748Y-97364600D01*
X147995800Y-97364600D01*
X147995800Y-97344600D01*
X148249800Y-97344600D01*
X148249800Y-97364600D01*
X148269800Y-97364600D01*
X148269800Y-97618600D01*
X148249800Y-97618600D01*
X148249800Y-98567850D01*
X148387261Y-98705311D01*
X148336832Y-98826758D01*
X147764500Y-98826758D01*
X147495090Y-98877451D01*
X147392425Y-98943515D01*
X147175510Y-98726600D01*
X147837050Y-98726600D01*
X147995800Y-98567850D01*
X147995800Y-97618600D01*
X145751550Y-97618600D01*
X145592800Y-97777350D01*
X145592800Y-97883695D01*
X145469011Y-97934844D01*
X145291228Y-98112318D01*
X144616000Y-97437090D01*
X144616000Y-97260615D01*
X144709415Y-97324443D01*
G36*
X130413000Y-97155000D02*
X130433000Y-97155000D01*
X130433000Y-97409000D01*
X130413000Y-97409000D01*
X130413000Y-98383250D01*
X130571750Y-98542000D01*
X130752000Y-98542000D01*
X130752000Y-98548090D01*
X130584090Y-98716000D01*
X126750787Y-98716000D01*
X126755242Y-98694000D01*
X126755242Y-98460315D01*
X127000000Y-98509000D01*
X127379298Y-98509000D01*
X127497615Y-98589843D01*
X127786000Y-98648242D01*
X128786000Y-98648242D01*
X129055410Y-98597549D01*
X129302846Y-98438328D01*
X129350118Y-98369144D01*
X129426302Y-98445327D01*
X129659691Y-98542000D01*
X130000250Y-98542000D01*
X130159000Y-98383250D01*
X130159000Y-97409000D01*
X130139000Y-97409000D01*
X130139000Y-97155000D01*
X130159000Y-97155000D01*
X130159000Y-97135000D01*
X130413000Y-97135000D01*
X130413000Y-97155000D01*
X130413000Y-97155000D01*
G37*
X130413000Y-97155000D02*
X130433000Y-97155000D01*
X130433000Y-97409000D01*
X130413000Y-97409000D01*
X130413000Y-98383250D01*
X130571750Y-98542000D01*
X130752000Y-98542000D01*
X130752000Y-98548090D01*
X130584090Y-98716000D01*
X126750787Y-98716000D01*
X126755242Y-98694000D01*
X126755242Y-98460315D01*
X127000000Y-98509000D01*
X127379298Y-98509000D01*
X127497615Y-98589843D01*
X127786000Y-98648242D01*
X128786000Y-98648242D01*
X129055410Y-98597549D01*
X129302846Y-98438328D01*
X129350118Y-98369144D01*
X129426302Y-98445327D01*
X129659691Y-98542000D01*
X130000250Y-98542000D01*
X130159000Y-98383250D01*
X130159000Y-97409000D01*
X130139000Y-97409000D01*
X130139000Y-97155000D01*
X130159000Y-97155000D01*
X130159000Y-97135000D01*
X130413000Y-97135000D01*
X130413000Y-97155000D01*
G36*
X122101954Y-97053145D02*
X122428000Y-97118000D01*
X122841004Y-97118000D01*
X122779000Y-97267690D01*
X122779000Y-97758250D01*
X122937750Y-97917000D01*
X123637000Y-97917000D01*
X123637000Y-97897000D01*
X123891000Y-97897000D01*
X123891000Y-97917000D01*
X123911000Y-97917000D01*
X123911000Y-98171000D01*
X123891000Y-98171000D01*
X123891000Y-98191000D01*
X123637000Y-98191000D01*
X123637000Y-98171000D01*
X122937750Y-98171000D01*
X122779000Y-98329750D01*
X122779000Y-98466391D01*
X122756508Y-98443860D01*
X122379179Y-98287179D01*
X122054726Y-98286895D01*
X122029156Y-98225011D01*
X122010000Y-98205822D01*
X122010000Y-96991703D01*
X122101954Y-97053145D01*
X122101954Y-97053145D01*
G37*
X122101954Y-97053145D02*
X122428000Y-97118000D01*
X122841004Y-97118000D01*
X122779000Y-97267690D01*
X122779000Y-97758250D01*
X122937750Y-97917000D01*
X123637000Y-97917000D01*
X123637000Y-97897000D01*
X123891000Y-97897000D01*
X123891000Y-97917000D01*
X123911000Y-97917000D01*
X123911000Y-98171000D01*
X123891000Y-98171000D01*
X123891000Y-98191000D01*
X123637000Y-98191000D01*
X123637000Y-98171000D01*
X122937750Y-98171000D01*
X122779000Y-98329750D01*
X122779000Y-98466391D01*
X122756508Y-98443860D01*
X122379179Y-98287179D01*
X122054726Y-98286895D01*
X122029156Y-98225011D01*
X122010000Y-98205822D01*
X122010000Y-96991703D01*
X122101954Y-97053145D01*
G36*
X98745748Y-92441858D02*
X98731605Y-92456000D01*
X98745748Y-92470143D01*
X98566143Y-92649748D01*
X98552000Y-92635605D01*
X97687647Y-93499958D01*
X97759852Y-93726000D01*
X97687647Y-93952042D01*
X98552000Y-94816395D01*
X98566143Y-94802253D01*
X98745748Y-94981858D01*
X98731605Y-94996000D01*
X98745748Y-95010143D01*
X98566143Y-95189748D01*
X98552000Y-95175605D01*
X97687647Y-96039958D01*
X97759852Y-96266000D01*
X97687647Y-96492042D01*
X98552000Y-97356395D01*
X98566143Y-97342253D01*
X98745748Y-97521858D01*
X98731605Y-97536000D01*
X98745748Y-97550143D01*
X98566143Y-97729748D01*
X98552000Y-97715605D01*
X98537858Y-97729748D01*
X98358253Y-97550143D01*
X98372395Y-97536000D01*
X97508042Y-96671647D01*
X97378297Y-96713091D01*
X97349695Y-96643868D01*
X96972216Y-96265730D01*
X97348136Y-95890465D01*
X97377901Y-95818782D01*
X97508042Y-95860353D01*
X98372395Y-94996000D01*
X97508042Y-94131647D01*
X97378297Y-94173091D01*
X97349695Y-94103868D01*
X96972216Y-93725730D01*
X97348136Y-93350465D01*
X97377901Y-93278782D01*
X97508042Y-93320353D01*
X98372395Y-92456000D01*
X98358253Y-92441858D01*
X98537858Y-92262253D01*
X98552000Y-92276395D01*
X98566143Y-92262253D01*
X98745748Y-92441858D01*
X98745748Y-92441858D01*
G37*
X98745748Y-92441858D02*
X98731605Y-92456000D01*
X98745748Y-92470143D01*
X98566143Y-92649748D01*
X98552000Y-92635605D01*
X97687647Y-93499958D01*
X97759852Y-93726000D01*
X97687647Y-93952042D01*
X98552000Y-94816395D01*
X98566143Y-94802253D01*
X98745748Y-94981858D01*
X98731605Y-94996000D01*
X98745748Y-95010143D01*
X98566143Y-95189748D01*
X98552000Y-95175605D01*
X97687647Y-96039958D01*
X97759852Y-96266000D01*
X97687647Y-96492042D01*
X98552000Y-97356395D01*
X98566143Y-97342253D01*
X98745748Y-97521858D01*
X98731605Y-97536000D01*
X98745748Y-97550143D01*
X98566143Y-97729748D01*
X98552000Y-97715605D01*
X98537858Y-97729748D01*
X98358253Y-97550143D01*
X98372395Y-97536000D01*
X97508042Y-96671647D01*
X97378297Y-96713091D01*
X97349695Y-96643868D01*
X96972216Y-96265730D01*
X97348136Y-95890465D01*
X97377901Y-95818782D01*
X97508042Y-95860353D01*
X98372395Y-94996000D01*
X97508042Y-94131647D01*
X97378297Y-94173091D01*
X97349695Y-94103868D01*
X96972216Y-93725730D01*
X97348136Y-93350465D01*
X97377901Y-93278782D01*
X97508042Y-93320353D01*
X98372395Y-92456000D01*
X98358253Y-92441858D01*
X98537858Y-92262253D01*
X98552000Y-92276395D01*
X98566143Y-92262253D01*
X98745748Y-92441858D01*
G36*
X139049000Y-96901000D02*
X139069000Y-96901000D01*
X139069000Y-97155000D01*
X139049000Y-97155000D01*
X139049000Y-97175000D01*
X138795000Y-97175000D01*
X138795000Y-97155000D01*
X138775000Y-97155000D01*
X138775000Y-96901000D01*
X138795000Y-96901000D01*
X138795000Y-96881000D01*
X139049000Y-96881000D01*
X139049000Y-96901000D01*
X139049000Y-96901000D01*
G37*
X139049000Y-96901000D02*
X139069000Y-96901000D01*
X139069000Y-97155000D01*
X139049000Y-97155000D01*
X139049000Y-97175000D01*
X138795000Y-97175000D01*
X138795000Y-97155000D01*
X138775000Y-97155000D01*
X138775000Y-96901000D01*
X138795000Y-96901000D01*
X138795000Y-96881000D01*
X139049000Y-96881000D01*
X139049000Y-96901000D01*
G36*
X105060000Y-92282250D02*
X105060000Y-92511000D01*
X105040000Y-92511000D01*
X105040000Y-93112250D01*
X105198750Y-93271000D01*
X105439309Y-93271000D01*
X105495519Y-93247717D01*
X105599615Y-93318843D01*
X105888000Y-93377242D01*
X106074332Y-93377242D01*
X106436787Y-93739697D01*
X106306642Y-93800817D01*
X106196941Y-93921191D01*
X106188549Y-93876590D01*
X106029328Y-93629154D01*
X105786385Y-93463157D01*
X105498000Y-93404758D01*
X103798000Y-93404758D01*
X103528590Y-93455451D01*
X103281154Y-93614672D01*
X103115157Y-93857615D01*
X103056758Y-94146000D01*
X103056758Y-95382332D01*
X102198000Y-96241090D01*
X102198000Y-93570910D01*
X102445781Y-93323129D01*
X102713000Y-93377242D01*
X103513000Y-93377242D01*
X103782410Y-93326549D01*
X103815864Y-93305022D01*
X103817810Y-93305830D01*
X104206485Y-93306170D01*
X104339206Y-93251331D01*
X104386691Y-93271000D01*
X104627250Y-93271000D01*
X104786000Y-93112250D01*
X104786000Y-92937831D01*
X104840778Y-92883149D01*
X104989830Y-92524190D01*
X104989920Y-92421000D01*
X105040002Y-92421000D01*
X105040002Y-92262252D01*
X105060000Y-92282250D01*
X105060000Y-92282250D01*
G37*
X105060000Y-92282250D02*
X105060000Y-92511000D01*
X105040000Y-92511000D01*
X105040000Y-93112250D01*
X105198750Y-93271000D01*
X105439309Y-93271000D01*
X105495519Y-93247717D01*
X105599615Y-93318843D01*
X105888000Y-93377242D01*
X106074332Y-93377242D01*
X106436787Y-93739697D01*
X106306642Y-93800817D01*
X106196941Y-93921191D01*
X106188549Y-93876590D01*
X106029328Y-93629154D01*
X105786385Y-93463157D01*
X105498000Y-93404758D01*
X103798000Y-93404758D01*
X103528590Y-93455451D01*
X103281154Y-93614672D01*
X103115157Y-93857615D01*
X103056758Y-94146000D01*
X103056758Y-95382332D01*
X102198000Y-96241090D01*
X102198000Y-93570910D01*
X102445781Y-93323129D01*
X102713000Y-93377242D01*
X103513000Y-93377242D01*
X103782410Y-93326549D01*
X103815864Y-93305022D01*
X103817810Y-93305830D01*
X104206485Y-93306170D01*
X104339206Y-93251331D01*
X104386691Y-93271000D01*
X104627250Y-93271000D01*
X104786000Y-93112250D01*
X104786000Y-92937831D01*
X104840778Y-92883149D01*
X104989830Y-92524190D01*
X104989920Y-92421000D01*
X105040002Y-92421000D01*
X105040002Y-92262252D01*
X105060000Y-92282250D01*
G36*
X113334301Y-94364327D02*
X113567690Y-94461000D01*
X113620310Y-94461000D01*
X113844000Y-94368344D01*
X114067690Y-94461000D01*
X114120310Y-94461000D01*
X114344000Y-94368344D01*
X114481414Y-94425263D01*
X114451000Y-94498690D01*
X114451000Y-94964250D01*
X114609750Y-95123000D01*
X115459000Y-95123000D01*
X115459000Y-95103000D01*
X115713000Y-95103000D01*
X115713000Y-95123000D01*
X115733000Y-95123000D01*
X115733000Y-95377000D01*
X115713000Y-95377000D01*
X115713000Y-95397000D01*
X115459000Y-95397000D01*
X115459000Y-95377000D01*
X114609750Y-95377000D01*
X114451000Y-95535750D01*
X114451000Y-95754339D01*
X114418285Y-95731986D01*
X114328455Y-95597545D01*
X113151080Y-94420170D01*
X113269000Y-94302250D01*
X113269000Y-94299026D01*
X113334301Y-94364327D01*
X113334301Y-94364327D01*
G37*
X113334301Y-94364327D02*
X113567690Y-94461000D01*
X113620310Y-94461000D01*
X113844000Y-94368344D01*
X114067690Y-94461000D01*
X114120310Y-94461000D01*
X114344000Y-94368344D01*
X114481414Y-94425263D01*
X114451000Y-94498690D01*
X114451000Y-94964250D01*
X114609750Y-95123000D01*
X115459000Y-95123000D01*
X115459000Y-95103000D01*
X115713000Y-95103000D01*
X115713000Y-95123000D01*
X115733000Y-95123000D01*
X115733000Y-95377000D01*
X115713000Y-95377000D01*
X115713000Y-95397000D01*
X115459000Y-95397000D01*
X115459000Y-95377000D01*
X114609750Y-95377000D01*
X114451000Y-95535750D01*
X114451000Y-95754339D01*
X114418285Y-95731986D01*
X114328455Y-95597545D01*
X113151080Y-94420170D01*
X113269000Y-94302250D01*
X113269000Y-94299026D01*
X113334301Y-94364327D01*
G36*
X145769800Y-94200358D02*
X145475800Y-94200358D01*
X145475800Y-94082842D01*
X145769800Y-94082842D01*
X145769800Y-94200358D01*
X145769800Y-94200358D01*
G37*
X145769800Y-94200358D02*
X145475800Y-94200358D01*
X145475800Y-94082842D01*
X145769800Y-94082842D01*
X145769800Y-94200358D01*
G36*
X122008811Y-82741379D02*
X121774590Y-82785451D01*
X121527154Y-82944672D01*
X121361157Y-83187615D01*
X121302758Y-83476000D01*
X121302758Y-83776000D01*
X121322265Y-83879671D01*
X121302758Y-83976000D01*
X121302758Y-84276000D01*
X121322265Y-84379671D01*
X121302758Y-84476000D01*
X121302758Y-84776000D01*
X121322265Y-84879671D01*
X121302758Y-84976000D01*
X121302758Y-85276000D01*
X121322265Y-85379671D01*
X121302758Y-85476000D01*
X121302758Y-85776000D01*
X121322265Y-85879671D01*
X121302758Y-85976000D01*
X121302758Y-86276000D01*
X121322265Y-86379671D01*
X121302758Y-86476000D01*
X121302758Y-86776000D01*
X121353451Y-87045410D01*
X121404314Y-87124453D01*
X121361157Y-87187615D01*
X121302758Y-87476000D01*
X121302758Y-87619126D01*
X120954613Y-87618822D01*
X120577011Y-87774844D01*
X120287860Y-88063492D01*
X120131179Y-88440821D01*
X120130822Y-88849387D01*
X120169820Y-88943769D01*
X120033860Y-89079492D01*
X119877179Y-89456821D01*
X119877118Y-89527182D01*
X119815011Y-89552844D01*
X119525860Y-89841492D01*
X119369179Y-90218821D01*
X119368822Y-90627387D01*
X119494803Y-90932285D01*
X119369179Y-91234821D01*
X119368873Y-91584758D01*
X119194000Y-91584758D01*
X119090329Y-91604265D01*
X118994000Y-91584758D01*
X118694000Y-91584758D01*
X118424590Y-91635451D01*
X118345547Y-91686314D01*
X118282385Y-91643157D01*
X117994000Y-91584758D01*
X117694000Y-91584758D01*
X117424590Y-91635451D01*
X117338265Y-91691000D01*
X117216998Y-91691000D01*
X117216998Y-91731050D01*
X117120310Y-91691000D01*
X117067690Y-91691000D01*
X116844000Y-91783656D01*
X116620310Y-91691000D01*
X116567690Y-91691000D01*
X116344000Y-91783656D01*
X116120310Y-91691000D01*
X116067690Y-91691000D01*
X115844000Y-91783656D01*
X115620310Y-91691000D01*
X115567690Y-91691000D01*
X115344000Y-91783656D01*
X115120310Y-91691000D01*
X115067690Y-91691000D01*
X114844000Y-91783656D01*
X114620310Y-91691000D01*
X114567690Y-91691000D01*
X114344000Y-91783656D01*
X114120310Y-91691000D01*
X114067690Y-91691000D01*
X113844000Y-91783656D01*
X113620310Y-91691000D01*
X113567690Y-91691000D01*
X113334301Y-91787673D01*
X113269000Y-91852974D01*
X113269000Y-91849750D01*
X113110250Y-91691000D01*
X113067690Y-91691000D01*
X112834301Y-91787673D01*
X112655673Y-91966302D01*
X112559000Y-92199691D01*
X112559000Y-92790250D01*
X112717750Y-92949000D01*
X112903000Y-92949000D01*
X112903000Y-93203000D01*
X112717750Y-93203000D01*
X112559000Y-93361750D01*
X112559000Y-93828090D01*
X111473455Y-92742545D01*
X111197046Y-92557855D01*
X110871000Y-92493000D01*
X109879910Y-92493000D01*
X110394910Y-91978000D01*
X110450216Y-91978000D01*
X110644000Y-92017242D01*
X112144000Y-92017242D01*
X112413410Y-91966549D01*
X112660846Y-91807328D01*
X112826843Y-91564385D01*
X112885242Y-91276000D01*
X112885242Y-90976000D01*
X112865735Y-90872329D01*
X112885242Y-90776000D01*
X112885242Y-90688874D01*
X113233387Y-90689178D01*
X113610989Y-90533156D01*
X113900140Y-90244508D01*
X114056821Y-89867179D01*
X114057178Y-89458613D01*
X113901156Y-89081011D01*
X113612508Y-88791860D01*
X113590280Y-88782630D01*
X113632455Y-88740455D01*
X113817145Y-88464046D01*
X113882000Y-88138000D01*
X113882000Y-87468616D01*
X113900140Y-87450508D01*
X114056821Y-87073179D01*
X114057178Y-86664613D01*
X113901156Y-86287011D01*
X113612508Y-85997860D01*
X113235179Y-85841179D01*
X112872107Y-85840862D01*
X112885242Y-85776000D01*
X112885242Y-85476000D01*
X112880076Y-85448546D01*
X113058046Y-85413145D01*
X113334455Y-85228455D01*
X113632455Y-84930455D01*
X113817145Y-84654046D01*
X113882000Y-84328000D01*
X113882000Y-83312000D01*
X113853206Y-83167242D01*
X113994000Y-83167242D01*
X114097671Y-83147735D01*
X114194000Y-83167242D01*
X114494000Y-83167242D01*
X114597671Y-83147735D01*
X114694000Y-83167242D01*
X114994000Y-83167242D01*
X115097671Y-83147735D01*
X115194000Y-83167242D01*
X115494000Y-83167242D01*
X115597671Y-83147735D01*
X115694000Y-83167242D01*
X115994000Y-83167242D01*
X116097671Y-83147735D01*
X116194000Y-83167242D01*
X116494000Y-83167242D01*
X116597671Y-83147735D01*
X116694000Y-83167242D01*
X116994000Y-83167242D01*
X117263410Y-83116549D01*
X117342453Y-83065686D01*
X117405615Y-83108843D01*
X117694000Y-83167242D01*
X117978295Y-83167242D01*
X117845179Y-83487821D01*
X117844822Y-83896387D01*
X118000844Y-84273989D01*
X118289492Y-84563140D01*
X118666821Y-84719821D01*
X119075387Y-84720178D01*
X119452989Y-84564156D01*
X119742140Y-84275508D01*
X119898821Y-83898179D01*
X119899178Y-83489613D01*
X119743156Y-83112011D01*
X119696000Y-83064773D01*
X119696000Y-83029648D01*
X119716998Y-83020950D01*
X119716998Y-83061000D01*
X119835595Y-83061000D01*
X119905615Y-83108843D01*
X120194000Y-83167242D01*
X120494000Y-83167242D01*
X120597671Y-83147735D01*
X120694000Y-83167242D01*
X120994000Y-83167242D01*
X121263410Y-83116549D01*
X121510846Y-82957328D01*
X121676843Y-82714385D01*
X121714587Y-82528000D01*
X121920645Y-82528000D01*
X122008811Y-82741379D01*
X122008811Y-82741379D01*
G37*
X122008811Y-82741379D02*
X121774590Y-82785451D01*
X121527154Y-82944672D01*
X121361157Y-83187615D01*
X121302758Y-83476000D01*
X121302758Y-83776000D01*
X121322265Y-83879671D01*
X121302758Y-83976000D01*
X121302758Y-84276000D01*
X121322265Y-84379671D01*
X121302758Y-84476000D01*
X121302758Y-84776000D01*
X121322265Y-84879671D01*
X121302758Y-84976000D01*
X121302758Y-85276000D01*
X121322265Y-85379671D01*
X121302758Y-85476000D01*
X121302758Y-85776000D01*
X121322265Y-85879671D01*
X121302758Y-85976000D01*
X121302758Y-86276000D01*
X121322265Y-86379671D01*
X121302758Y-86476000D01*
X121302758Y-86776000D01*
X121353451Y-87045410D01*
X121404314Y-87124453D01*
X121361157Y-87187615D01*
X121302758Y-87476000D01*
X121302758Y-87619126D01*
X120954613Y-87618822D01*
X120577011Y-87774844D01*
X120287860Y-88063492D01*
X120131179Y-88440821D01*
X120130822Y-88849387D01*
X120169820Y-88943769D01*
X120033860Y-89079492D01*
X119877179Y-89456821D01*
X119877118Y-89527182D01*
X119815011Y-89552844D01*
X119525860Y-89841492D01*
X119369179Y-90218821D01*
X119368822Y-90627387D01*
X119494803Y-90932285D01*
X119369179Y-91234821D01*
X119368873Y-91584758D01*
X119194000Y-91584758D01*
X119090329Y-91604265D01*
X118994000Y-91584758D01*
X118694000Y-91584758D01*
X118424590Y-91635451D01*
X118345547Y-91686314D01*
X118282385Y-91643157D01*
X117994000Y-91584758D01*
X117694000Y-91584758D01*
X117424590Y-91635451D01*
X117338265Y-91691000D01*
X117216998Y-91691000D01*
X117216998Y-91731050D01*
X117120310Y-91691000D01*
X117067690Y-91691000D01*
X116844000Y-91783656D01*
X116620310Y-91691000D01*
X116567690Y-91691000D01*
X116344000Y-91783656D01*
X116120310Y-91691000D01*
X116067690Y-91691000D01*
X115844000Y-91783656D01*
X115620310Y-91691000D01*
X115567690Y-91691000D01*
X115344000Y-91783656D01*
X115120310Y-91691000D01*
X115067690Y-91691000D01*
X114844000Y-91783656D01*
X114620310Y-91691000D01*
X114567690Y-91691000D01*
X114344000Y-91783656D01*
X114120310Y-91691000D01*
X114067690Y-91691000D01*
X113844000Y-91783656D01*
X113620310Y-91691000D01*
X113567690Y-91691000D01*
X113334301Y-91787673D01*
X113269000Y-91852974D01*
X113269000Y-91849750D01*
X113110250Y-91691000D01*
X113067690Y-91691000D01*
X112834301Y-91787673D01*
X112655673Y-91966302D01*
X112559000Y-92199691D01*
X112559000Y-92790250D01*
X112717750Y-92949000D01*
X112903000Y-92949000D01*
X112903000Y-93203000D01*
X112717750Y-93203000D01*
X112559000Y-93361750D01*
X112559000Y-93828090D01*
X111473455Y-92742545D01*
X111197046Y-92557855D01*
X110871000Y-92493000D01*
X109879910Y-92493000D01*
X110394910Y-91978000D01*
X110450216Y-91978000D01*
X110644000Y-92017242D01*
X112144000Y-92017242D01*
X112413410Y-91966549D01*
X112660846Y-91807328D01*
X112826843Y-91564385D01*
X112885242Y-91276000D01*
X112885242Y-90976000D01*
X112865735Y-90872329D01*
X112885242Y-90776000D01*
X112885242Y-90688874D01*
X113233387Y-90689178D01*
X113610989Y-90533156D01*
X113900140Y-90244508D01*
X114056821Y-89867179D01*
X114057178Y-89458613D01*
X113901156Y-89081011D01*
X113612508Y-88791860D01*
X113590280Y-88782630D01*
X113632455Y-88740455D01*
X113817145Y-88464046D01*
X113882000Y-88138000D01*
X113882000Y-87468616D01*
X113900140Y-87450508D01*
X114056821Y-87073179D01*
X114057178Y-86664613D01*
X113901156Y-86287011D01*
X113612508Y-85997860D01*
X113235179Y-85841179D01*
X112872107Y-85840862D01*
X112885242Y-85776000D01*
X112885242Y-85476000D01*
X112880076Y-85448546D01*
X113058046Y-85413145D01*
X113334455Y-85228455D01*
X113632455Y-84930455D01*
X113817145Y-84654046D01*
X113882000Y-84328000D01*
X113882000Y-83312000D01*
X113853206Y-83167242D01*
X113994000Y-83167242D01*
X114097671Y-83147735D01*
X114194000Y-83167242D01*
X114494000Y-83167242D01*
X114597671Y-83147735D01*
X114694000Y-83167242D01*
X114994000Y-83167242D01*
X115097671Y-83147735D01*
X115194000Y-83167242D01*
X115494000Y-83167242D01*
X115597671Y-83147735D01*
X115694000Y-83167242D01*
X115994000Y-83167242D01*
X116097671Y-83147735D01*
X116194000Y-83167242D01*
X116494000Y-83167242D01*
X116597671Y-83147735D01*
X116694000Y-83167242D01*
X116994000Y-83167242D01*
X117263410Y-83116549D01*
X117342453Y-83065686D01*
X117405615Y-83108843D01*
X117694000Y-83167242D01*
X117978295Y-83167242D01*
X117845179Y-83487821D01*
X117844822Y-83896387D01*
X118000844Y-84273989D01*
X118289492Y-84563140D01*
X118666821Y-84719821D01*
X119075387Y-84720178D01*
X119452989Y-84564156D01*
X119742140Y-84275508D01*
X119898821Y-83898179D01*
X119899178Y-83489613D01*
X119743156Y-83112011D01*
X119696000Y-83064773D01*
X119696000Y-83029648D01*
X119716998Y-83020950D01*
X119716998Y-83061000D01*
X119835595Y-83061000D01*
X119905615Y-83108843D01*
X120194000Y-83167242D01*
X120494000Y-83167242D01*
X120597671Y-83147735D01*
X120694000Y-83167242D01*
X120994000Y-83167242D01*
X121263410Y-83116549D01*
X121510846Y-82957328D01*
X121676843Y-82714385D01*
X121714587Y-82528000D01*
X121920645Y-82528000D01*
X122008811Y-82741379D01*
G36*
X132631000Y-84074000D02*
X132724400Y-84543552D01*
X132990380Y-84941620D01*
X133388448Y-85207600D01*
X133435704Y-85217000D01*
X133388447Y-85226400D01*
X132990380Y-85492380D01*
X132724400Y-85890447D01*
X132631000Y-86360000D01*
X132724400Y-86829553D01*
X132990380Y-87227620D01*
X133388447Y-87493600D01*
X133858000Y-87587000D01*
X137076024Y-87587000D01*
X137412512Y-87923488D01*
X137713252Y-88124436D01*
X138068000Y-88195000D01*
X138298090Y-88195000D01*
X138112146Y-88380944D01*
X137972613Y-88380822D01*
X137595011Y-88536844D01*
X137305860Y-88825492D01*
X137149179Y-89202821D01*
X137148822Y-89611387D01*
X137304844Y-89988989D01*
X137593492Y-90278140D01*
X137620219Y-90289238D01*
X137559860Y-90349492D01*
X137403179Y-90726821D01*
X137402822Y-91135387D01*
X137558844Y-91512989D01*
X137612603Y-91566841D01*
X137559860Y-91619492D01*
X137403179Y-91996821D01*
X137402822Y-92405387D01*
X137558844Y-92782989D01*
X137847492Y-93072140D01*
X137858613Y-93076758D01*
X137729000Y-93076758D01*
X137599412Y-93101142D01*
X137479000Y-93076758D01*
X136929000Y-93076758D01*
X136799412Y-93101142D01*
X136679000Y-93076758D01*
X136129000Y-93076758D01*
X135999412Y-93101142D01*
X135879000Y-93076758D01*
X135591305Y-93076758D01*
X135591145Y-93075954D01*
X135406455Y-92799545D01*
X134968455Y-92361545D01*
X134692046Y-92176855D01*
X134366000Y-92112000D01*
X129124616Y-92112000D01*
X129106508Y-92093860D01*
X128729179Y-91937179D01*
X128360000Y-91936856D01*
X128360000Y-83664910D01*
X128368910Y-83656000D01*
X132714146Y-83656000D01*
X132631000Y-84074000D01*
X132631000Y-84074000D01*
G37*
X132631000Y-84074000D02*
X132724400Y-84543552D01*
X132990380Y-84941620D01*
X133388448Y-85207600D01*
X133435704Y-85217000D01*
X133388447Y-85226400D01*
X132990380Y-85492380D01*
X132724400Y-85890447D01*
X132631000Y-86360000D01*
X132724400Y-86829553D01*
X132990380Y-87227620D01*
X133388447Y-87493600D01*
X133858000Y-87587000D01*
X137076024Y-87587000D01*
X137412512Y-87923488D01*
X137713252Y-88124436D01*
X138068000Y-88195000D01*
X138298090Y-88195000D01*
X138112146Y-88380944D01*
X137972613Y-88380822D01*
X137595011Y-88536844D01*
X137305860Y-88825492D01*
X137149179Y-89202821D01*
X137148822Y-89611387D01*
X137304844Y-89988989D01*
X137593492Y-90278140D01*
X137620219Y-90289238D01*
X137559860Y-90349492D01*
X137403179Y-90726821D01*
X137402822Y-91135387D01*
X137558844Y-91512989D01*
X137612603Y-91566841D01*
X137559860Y-91619492D01*
X137403179Y-91996821D01*
X137402822Y-92405387D01*
X137558844Y-92782989D01*
X137847492Y-93072140D01*
X137858613Y-93076758D01*
X137729000Y-93076758D01*
X137599412Y-93101142D01*
X137479000Y-93076758D01*
X136929000Y-93076758D01*
X136799412Y-93101142D01*
X136679000Y-93076758D01*
X136129000Y-93076758D01*
X135999412Y-93101142D01*
X135879000Y-93076758D01*
X135591305Y-93076758D01*
X135591145Y-93075954D01*
X135406455Y-92799545D01*
X134968455Y-92361545D01*
X134692046Y-92176855D01*
X134366000Y-92112000D01*
X129124616Y-92112000D01*
X129106508Y-92093860D01*
X128729179Y-91937179D01*
X128360000Y-91936856D01*
X128360000Y-83664910D01*
X128368910Y-83656000D01*
X132714146Y-83656000D01*
X132631000Y-84074000D01*
G36*
X148343615Y-84394843D02*
X148632000Y-84453242D01*
X149532000Y-84453242D01*
X149566000Y-84446844D01*
X149566000Y-86500358D01*
X149557800Y-86500358D01*
X149557800Y-86165291D01*
X149461127Y-85931902D01*
X149282499Y-85753273D01*
X149049110Y-85656600D01*
X148908550Y-85656600D01*
X148749800Y-85815350D01*
X148749800Y-86649884D01*
X148707800Y-86676910D01*
X148707800Y-86165291D01*
X148611127Y-85931902D01*
X148495800Y-85816574D01*
X148495800Y-85815350D01*
X148337050Y-85656600D01*
X147658550Y-85656600D01*
X147499800Y-85815350D01*
X147499800Y-86889600D01*
X147519800Y-86889600D01*
X147519800Y-87143600D01*
X147499800Y-87143600D01*
X147499800Y-87163600D01*
X147245800Y-87163600D01*
X147245800Y-87143600D01*
X146196550Y-87143600D01*
X146037800Y-87302350D01*
X146037800Y-87600358D01*
X144997800Y-87600358D01*
X144728390Y-87651051D01*
X144480954Y-87810272D01*
X144314957Y-88053215D01*
X144256558Y-88341600D01*
X144256558Y-88941600D01*
X144302948Y-89188142D01*
X143923545Y-89567545D01*
X143738855Y-89843954D01*
X143698560Y-90046530D01*
X143600000Y-90145090D01*
X143600000Y-88900000D01*
X143535145Y-88573954D01*
X143350455Y-88297545D01*
X143346000Y-88293090D01*
X143346000Y-87329078D01*
X143582989Y-87231156D01*
X143872140Y-86942508D01*
X144028821Y-86565179D01*
X144028860Y-86520000D01*
X145265704Y-86520000D01*
X145467492Y-86722140D01*
X145844821Y-86878821D01*
X146186069Y-86879119D01*
X146196550Y-86889600D01*
X147245800Y-86889600D01*
X147245800Y-85815350D01*
X147087050Y-85656600D01*
X147077171Y-85656600D01*
X147077178Y-85648613D01*
X146975793Y-85403242D01*
X147532000Y-85403242D01*
X147801410Y-85352549D01*
X148048846Y-85193328D01*
X148214843Y-84950385D01*
X148273242Y-84662000D01*
X148273242Y-84346759D01*
X148343615Y-84394843D01*
X148343615Y-84394843D01*
G37*
X148343615Y-84394843D02*
X148632000Y-84453242D01*
X149532000Y-84453242D01*
X149566000Y-84446844D01*
X149566000Y-86500358D01*
X149557800Y-86500358D01*
X149557800Y-86165291D01*
X149461127Y-85931902D01*
X149282499Y-85753273D01*
X149049110Y-85656600D01*
X148908550Y-85656600D01*
X148749800Y-85815350D01*
X148749800Y-86649884D01*
X148707800Y-86676910D01*
X148707800Y-86165291D01*
X148611127Y-85931902D01*
X148495800Y-85816574D01*
X148495800Y-85815350D01*
X148337050Y-85656600D01*
X147658550Y-85656600D01*
X147499800Y-85815350D01*
X147499800Y-86889600D01*
X147519800Y-86889600D01*
X147519800Y-87143600D01*
X147499800Y-87143600D01*
X147499800Y-87163600D01*
X147245800Y-87163600D01*
X147245800Y-87143600D01*
X146196550Y-87143600D01*
X146037800Y-87302350D01*
X146037800Y-87600358D01*
X144997800Y-87600358D01*
X144728390Y-87651051D01*
X144480954Y-87810272D01*
X144314957Y-88053215D01*
X144256558Y-88341600D01*
X144256558Y-88941600D01*
X144302948Y-89188142D01*
X143923545Y-89567545D01*
X143738855Y-89843954D01*
X143698560Y-90046530D01*
X143600000Y-90145090D01*
X143600000Y-88900000D01*
X143535145Y-88573954D01*
X143350455Y-88297545D01*
X143346000Y-88293090D01*
X143346000Y-87329078D01*
X143582989Y-87231156D01*
X143872140Y-86942508D01*
X144028821Y-86565179D01*
X144028860Y-86520000D01*
X145265704Y-86520000D01*
X145467492Y-86722140D01*
X145844821Y-86878821D01*
X146186069Y-86879119D01*
X146196550Y-86889600D01*
X147245800Y-86889600D01*
X147245800Y-85815350D01*
X147087050Y-85656600D01*
X147077171Y-85656600D01*
X147077178Y-85648613D01*
X146975793Y-85403242D01*
X147532000Y-85403242D01*
X147801410Y-85352549D01*
X148048846Y-85193328D01*
X148214843Y-84950385D01*
X148273242Y-84662000D01*
X148273242Y-84346759D01*
X148343615Y-84394843D01*
G36*
X138529000Y-80659242D02*
X138873729Y-80659242D01*
X138865011Y-80662844D01*
X138575860Y-80951492D01*
X138419179Y-81328821D01*
X138418822Y-81737387D01*
X138562453Y-82085000D01*
X134701447Y-82085000D01*
X134710000Y-82042000D01*
X134710000Y-81370000D01*
X136652000Y-81370000D01*
X136978046Y-81305145D01*
X137254455Y-81120455D01*
X137717913Y-80656997D01*
X137729000Y-80659242D01*
X138279000Y-80659242D01*
X138408588Y-80634858D01*
X138529000Y-80659242D01*
X138529000Y-80659242D01*
G37*
X138529000Y-80659242D02*
X138873729Y-80659242D01*
X138865011Y-80662844D01*
X138575860Y-80951492D01*
X138419179Y-81328821D01*
X138418822Y-81737387D01*
X138562453Y-82085000D01*
X134701447Y-82085000D01*
X134710000Y-82042000D01*
X134710000Y-81370000D01*
X136652000Y-81370000D01*
X136978046Y-81305145D01*
X137254455Y-81120455D01*
X137717913Y-80656997D01*
X137729000Y-80659242D01*
X138279000Y-80659242D01*
X138408588Y-80634858D01*
X138529000Y-80659242D01*
G36*
X112452758Y-81145668D02*
X112452758Y-81529848D01*
X111609000Y-80686090D01*
X111609000Y-80301910D01*
X112452758Y-81145668D01*
X112452758Y-81145668D01*
G37*
X112452758Y-81145668D02*
X112452758Y-81529848D01*
X111609000Y-80686090D01*
X111609000Y-80301910D01*
X112452758Y-81145668D01*
G36*
X119862855Y-77034046D02*
X120047545Y-77310455D01*
X120060420Y-77323330D01*
X119999000Y-77384750D01*
X119999000Y-78359000D01*
X121555000Y-78359000D01*
X121555000Y-78339000D01*
X121809000Y-78339000D01*
X121809000Y-78359000D01*
X121829000Y-78359000D01*
X121829000Y-78613000D01*
X121809000Y-78613000D01*
X121809000Y-78633000D01*
X121555000Y-78633000D01*
X121555000Y-78613000D01*
X119999000Y-78613000D01*
X119999000Y-79587250D01*
X120062981Y-79651231D01*
X120047545Y-79661545D01*
X119741545Y-79967545D01*
X119556855Y-80243954D01*
X119545684Y-80300115D01*
X119471002Y-80331050D01*
X119471002Y-80291000D01*
X119352405Y-80291000D01*
X119282385Y-80243157D01*
X118994000Y-80184758D01*
X118696000Y-80184758D01*
X118696000Y-79766421D01*
X118888846Y-79642328D01*
X118936118Y-79573144D01*
X119012302Y-79649327D01*
X119245691Y-79746000D01*
X119586250Y-79746000D01*
X119745000Y-79587250D01*
X119745000Y-78613000D01*
X119725000Y-78613000D01*
X119725000Y-78359000D01*
X119745000Y-78359000D01*
X119745000Y-77384750D01*
X119586250Y-77226000D01*
X119245691Y-77226000D01*
X119136952Y-77271041D01*
X119137178Y-77012613D01*
X119130417Y-76996250D01*
X119380000Y-77045895D01*
X119846745Y-76953054D01*
X119862855Y-77034046D01*
X119862855Y-77034046D01*
G37*
X119862855Y-77034046D02*
X120047545Y-77310455D01*
X120060420Y-77323330D01*
X119999000Y-77384750D01*
X119999000Y-78359000D01*
X121555000Y-78359000D01*
X121555000Y-78339000D01*
X121809000Y-78339000D01*
X121809000Y-78359000D01*
X121829000Y-78359000D01*
X121829000Y-78613000D01*
X121809000Y-78613000D01*
X121809000Y-78633000D01*
X121555000Y-78633000D01*
X121555000Y-78613000D01*
X119999000Y-78613000D01*
X119999000Y-79587250D01*
X120062981Y-79651231D01*
X120047545Y-79661545D01*
X119741545Y-79967545D01*
X119556855Y-80243954D01*
X119545684Y-80300115D01*
X119471002Y-80331050D01*
X119471002Y-80291000D01*
X119352405Y-80291000D01*
X119282385Y-80243157D01*
X118994000Y-80184758D01*
X118696000Y-80184758D01*
X118696000Y-79766421D01*
X118888846Y-79642328D01*
X118936118Y-79573144D01*
X119012302Y-79649327D01*
X119245691Y-79746000D01*
X119586250Y-79746000D01*
X119745000Y-79587250D01*
X119745000Y-78613000D01*
X119725000Y-78613000D01*
X119725000Y-78359000D01*
X119745000Y-78359000D01*
X119745000Y-77384750D01*
X119586250Y-77226000D01*
X119245691Y-77226000D01*
X119136952Y-77271041D01*
X119137178Y-77012613D01*
X119130417Y-76996250D01*
X119380000Y-77045895D01*
X119846745Y-76953054D01*
X119862855Y-77034046D01*
G36*
X110601000Y-79883000D02*
X110621000Y-79883000D01*
X110621000Y-80137000D01*
X110601000Y-80137000D01*
X110601000Y-80157000D01*
X110347000Y-80157000D01*
X110347000Y-80137000D01*
X110327000Y-80137000D01*
X110327000Y-79883000D01*
X110347000Y-79883000D01*
X110347000Y-79863000D01*
X110601000Y-79863000D01*
X110601000Y-79883000D01*
X110601000Y-79883000D01*
G37*
X110601000Y-79883000D02*
X110621000Y-79883000D01*
X110621000Y-80137000D01*
X110601000Y-80137000D01*
X110601000Y-80157000D01*
X110347000Y-80157000D01*
X110347000Y-80137000D01*
X110327000Y-80137000D01*
X110327000Y-79883000D01*
X110347000Y-79883000D01*
X110347000Y-79863000D01*
X110601000Y-79863000D01*
X110601000Y-79883000D01*
G36*
X115355000Y-75152250D02*
X115513750Y-75311000D01*
X116713000Y-75311000D01*
X116713000Y-75291000D01*
X116967000Y-75291000D01*
X116967000Y-75311000D01*
X116987000Y-75311000D01*
X116987000Y-75565000D01*
X116967000Y-75565000D01*
X116967000Y-76764250D01*
X117121437Y-76918687D01*
X117097178Y-76977108D01*
X117015564Y-77099252D01*
X116986549Y-77245122D01*
X116855154Y-77329672D01*
X116689157Y-77572615D01*
X116678104Y-77627194D01*
X115973910Y-76923000D01*
X116554250Y-76923000D01*
X116713000Y-76764250D01*
X116713000Y-75565000D01*
X115513750Y-75565000D01*
X115355000Y-75723750D01*
X115355000Y-76304090D01*
X114498152Y-75447242D01*
X114696000Y-75447242D01*
X114965410Y-75396549D01*
X115212846Y-75237328D01*
X115355000Y-75029280D01*
X115355000Y-75152250D01*
X115355000Y-75152250D01*
G37*
X115355000Y-75152250D02*
X115513750Y-75311000D01*
X116713000Y-75311000D01*
X116713000Y-75291000D01*
X116967000Y-75291000D01*
X116967000Y-75311000D01*
X116987000Y-75311000D01*
X116987000Y-75565000D01*
X116967000Y-75565000D01*
X116967000Y-76764250D01*
X117121437Y-76918687D01*
X117097178Y-76977108D01*
X117015564Y-77099252D01*
X116986549Y-77245122D01*
X116855154Y-77329672D01*
X116689157Y-77572615D01*
X116678104Y-77627194D01*
X115973910Y-76923000D01*
X116554250Y-76923000D01*
X116713000Y-76764250D01*
X116713000Y-75565000D01*
X115513750Y-75565000D01*
X115355000Y-75723750D01*
X115355000Y-76304090D01*
X114498152Y-75447242D01*
X114696000Y-75447242D01*
X114965410Y-75396549D01*
X115212846Y-75237328D01*
X115355000Y-75029280D01*
X115355000Y-75152250D01*
G36*
X149566000Y-75936758D02*
X148448000Y-75936758D01*
X148200227Y-75983380D01*
X147970000Y-75936758D01*
X146670000Y-75936758D01*
X146422227Y-75983380D01*
X146305174Y-75959676D01*
X146197488Y-75798512D01*
X145689488Y-75290512D01*
X145637906Y-75256046D01*
X145388748Y-75089564D01*
X145034000Y-75019000D01*
X142957242Y-75019000D01*
X142957242Y-74813000D01*
X142943000Y-74737310D01*
X142943000Y-73486437D01*
X142959000Y-73406000D01*
X142873834Y-72977838D01*
X144230597Y-72977838D01*
X144584115Y-73833418D01*
X145238139Y-74488585D01*
X146093100Y-74843596D01*
X147018838Y-74844403D01*
X147874418Y-74490885D01*
X148529585Y-73836861D01*
X148884596Y-72981900D01*
X148885403Y-72056162D01*
X148531885Y-71200582D01*
X147877861Y-70545415D01*
X147022900Y-70190404D01*
X146097162Y-70189597D01*
X145241582Y-70543115D01*
X144586415Y-71197139D01*
X144231404Y-72052100D01*
X144230597Y-72977838D01*
X142873834Y-72977838D01*
X142865600Y-72936448D01*
X142599620Y-72538380D01*
X142201552Y-72272400D01*
X141732000Y-72179000D01*
X141262448Y-72272400D01*
X140864380Y-72538380D01*
X140848380Y-72554380D01*
X140582400Y-72952447D01*
X140489000Y-73422000D01*
X140489000Y-74238761D01*
X140342309Y-74178000D01*
X140001750Y-74178000D01*
X139843000Y-74336750D01*
X139843000Y-75311000D01*
X139863000Y-75311000D01*
X139863000Y-75565000D01*
X139843000Y-75565000D01*
X139843000Y-75585000D01*
X139589000Y-75585000D01*
X139589000Y-75565000D01*
X139569000Y-75565000D01*
X139569000Y-75311000D01*
X139589000Y-75311000D01*
X139589000Y-74336750D01*
X139481242Y-74228992D01*
X139481242Y-74196848D01*
X139520000Y-74002000D01*
X139520000Y-73398404D01*
X139684846Y-73292328D01*
X139850843Y-73049385D01*
X139909242Y-72761000D01*
X139909242Y-71511000D01*
X139858549Y-71241590D01*
X139699328Y-70994154D01*
X139456385Y-70828157D01*
X139168000Y-70769758D01*
X138168000Y-70769758D01*
X137898590Y-70820451D01*
X137651154Y-70979672D01*
X137603882Y-71048856D01*
X137527698Y-70972673D01*
X137294309Y-70876000D01*
X136953750Y-70876000D01*
X136795000Y-71034750D01*
X136795000Y-72009000D01*
X136815000Y-72009000D01*
X136815000Y-72263000D01*
X136795000Y-72263000D01*
X136795000Y-72283000D01*
X136541000Y-72283000D01*
X136541000Y-72263000D01*
X135239000Y-72263000D01*
X135239000Y-72283000D01*
X134985000Y-72283000D01*
X134985000Y-72263000D01*
X134965000Y-72263000D01*
X134965000Y-72009000D01*
X134985000Y-72009000D01*
X134985000Y-71034750D01*
X135239000Y-71034750D01*
X135239000Y-72009000D01*
X136541000Y-72009000D01*
X136541000Y-71034750D01*
X136382250Y-70876000D01*
X136041691Y-70876000D01*
X135890000Y-70938833D01*
X135738309Y-70876000D01*
X135397750Y-70876000D01*
X135239000Y-71034750D01*
X134985000Y-71034750D01*
X134826250Y-70876000D01*
X134488587Y-70876000D01*
X134725620Y-70717620D01*
X134991600Y-70319552D01*
X135085000Y-69850000D01*
X134991600Y-69380448D01*
X134725620Y-68982380D01*
X133601240Y-67858000D01*
X149566000Y-67858000D01*
X149566000Y-75936758D01*
X149566000Y-75936758D01*
G37*
X149566000Y-75936758D02*
X148448000Y-75936758D01*
X148200227Y-75983380D01*
X147970000Y-75936758D01*
X146670000Y-75936758D01*
X146422227Y-75983380D01*
X146305174Y-75959676D01*
X146197488Y-75798512D01*
X145689488Y-75290512D01*
X145637906Y-75256046D01*
X145388748Y-75089564D01*
X145034000Y-75019000D01*
X142957242Y-75019000D01*
X142957242Y-74813000D01*
X142943000Y-74737310D01*
X142943000Y-73486437D01*
X142959000Y-73406000D01*
X142873834Y-72977838D01*
X144230597Y-72977838D01*
X144584115Y-73833418D01*
X145238139Y-74488585D01*
X146093100Y-74843596D01*
X147018838Y-74844403D01*
X147874418Y-74490885D01*
X148529585Y-73836861D01*
X148884596Y-72981900D01*
X148885403Y-72056162D01*
X148531885Y-71200582D01*
X147877861Y-70545415D01*
X147022900Y-70190404D01*
X146097162Y-70189597D01*
X145241582Y-70543115D01*
X144586415Y-71197139D01*
X144231404Y-72052100D01*
X144230597Y-72977838D01*
X142873834Y-72977838D01*
X142865600Y-72936448D01*
X142599620Y-72538380D01*
X142201552Y-72272400D01*
X141732000Y-72179000D01*
X141262448Y-72272400D01*
X140864380Y-72538380D01*
X140848380Y-72554380D01*
X140582400Y-72952447D01*
X140489000Y-73422000D01*
X140489000Y-74238761D01*
X140342309Y-74178000D01*
X140001750Y-74178000D01*
X139843000Y-74336750D01*
X139843000Y-75311000D01*
X139863000Y-75311000D01*
X139863000Y-75565000D01*
X139843000Y-75565000D01*
X139843000Y-75585000D01*
X139589000Y-75585000D01*
X139589000Y-75565000D01*
X139569000Y-75565000D01*
X139569000Y-75311000D01*
X139589000Y-75311000D01*
X139589000Y-74336750D01*
X139481242Y-74228992D01*
X139481242Y-74196848D01*
X139520000Y-74002000D01*
X139520000Y-73398404D01*
X139684846Y-73292328D01*
X139850843Y-73049385D01*
X139909242Y-72761000D01*
X139909242Y-71511000D01*
X139858549Y-71241590D01*
X139699328Y-70994154D01*
X139456385Y-70828157D01*
X139168000Y-70769758D01*
X138168000Y-70769758D01*
X137898590Y-70820451D01*
X137651154Y-70979672D01*
X137603882Y-71048856D01*
X137527698Y-70972673D01*
X137294309Y-70876000D01*
X136953750Y-70876000D01*
X136795000Y-71034750D01*
X136795000Y-72009000D01*
X136815000Y-72009000D01*
X136815000Y-72263000D01*
X136795000Y-72263000D01*
X136795000Y-72283000D01*
X136541000Y-72283000D01*
X136541000Y-72263000D01*
X135239000Y-72263000D01*
X135239000Y-72283000D01*
X134985000Y-72283000D01*
X134985000Y-72263000D01*
X134965000Y-72263000D01*
X134965000Y-72009000D01*
X134985000Y-72009000D01*
X134985000Y-71034750D01*
X135239000Y-71034750D01*
X135239000Y-72009000D01*
X136541000Y-72009000D01*
X136541000Y-71034750D01*
X136382250Y-70876000D01*
X136041691Y-70876000D01*
X135890000Y-70938833D01*
X135738309Y-70876000D01*
X135397750Y-70876000D01*
X135239000Y-71034750D01*
X134985000Y-71034750D01*
X134826250Y-70876000D01*
X134488587Y-70876000D01*
X134725620Y-70717620D01*
X134991600Y-70319552D01*
X135085000Y-69850000D01*
X134991600Y-69380448D01*
X134725620Y-68982380D01*
X133601240Y-67858000D01*
X149566000Y-67858000D01*
X149566000Y-75936758D01*
G36*
X132990380Y-70717620D02*
X133068410Y-70769758D01*
X132612000Y-70769758D01*
X132342590Y-70820451D01*
X132095154Y-70979672D01*
X131929157Y-71222615D01*
X131870758Y-71511000D01*
X131870758Y-72761000D01*
X131921451Y-73030410D01*
X132080672Y-73277846D01*
X132260000Y-73400376D01*
X132260000Y-73931681D01*
X132206455Y-73851545D01*
X131666455Y-73311545D01*
X131390046Y-73126855D01*
X131064000Y-73062000D01*
X125984000Y-73062000D01*
X125657953Y-73126855D01*
X125381545Y-73311545D01*
X124796125Y-73896965D01*
X124460000Y-73830105D01*
X123856508Y-73950147D01*
X123344893Y-74291998D01*
X123190000Y-74523811D01*
X123035107Y-74291998D01*
X122523492Y-73950147D01*
X121920000Y-73830105D01*
X121336997Y-73946071D01*
X121252455Y-73819545D01*
X120744455Y-73311545D01*
X120468046Y-73126855D01*
X120142000Y-73062000D01*
X115385401Y-73062000D01*
X115437242Y-72806000D01*
X115437242Y-72106000D01*
X115386549Y-71836590D01*
X115227328Y-71589154D01*
X115139291Y-71529000D01*
X115158843Y-71500385D01*
X115217242Y-71212000D01*
X115217242Y-70012000D01*
X115178669Y-69807000D01*
X132079760Y-69807000D01*
X132990380Y-70717620D01*
X132990380Y-70717620D01*
G37*
X132990380Y-70717620D02*
X133068410Y-70769758D01*
X132612000Y-70769758D01*
X132342590Y-70820451D01*
X132095154Y-70979672D01*
X131929157Y-71222615D01*
X131870758Y-71511000D01*
X131870758Y-72761000D01*
X131921451Y-73030410D01*
X132080672Y-73277846D01*
X132260000Y-73400376D01*
X132260000Y-73931681D01*
X132206455Y-73851545D01*
X131666455Y-73311545D01*
X131390046Y-73126855D01*
X131064000Y-73062000D01*
X125984000Y-73062000D01*
X125657953Y-73126855D01*
X125381545Y-73311545D01*
X124796125Y-73896965D01*
X124460000Y-73830105D01*
X123856508Y-73950147D01*
X123344893Y-74291998D01*
X123190000Y-74523811D01*
X123035107Y-74291998D01*
X122523492Y-73950147D01*
X121920000Y-73830105D01*
X121336997Y-73946071D01*
X121252455Y-73819545D01*
X120744455Y-73311545D01*
X120468046Y-73126855D01*
X120142000Y-73062000D01*
X115385401Y-73062000D01*
X115437242Y-72806000D01*
X115437242Y-72106000D01*
X115386549Y-71836590D01*
X115227328Y-71589154D01*
X115139291Y-71529000D01*
X115158843Y-71500385D01*
X115217242Y-71212000D01*
X115217242Y-70012000D01*
X115178669Y-69807000D01*
X132079760Y-69807000D01*
X132990380Y-70717620D01*
M02*
