M48
;DRILL file {KiCad 4.0.7} date 05/18/18 07:30:49
;FORMAT={-:-/ absolute / inch / decimal}
FMAT,2
INCH,TZ
T1C0.012
T2C0.016
T3C0.024
T4C0.035
T5C0.039
%
G90
G05
M72
T1
X4.095Y-2.83
X4.095Y-2.865
X4.095Y-2.895
X4.095Y-2.925
X4.095Y-2.98
X4.095Y-3.015
X4.095Y-3.045
X4.095Y-3.075
X4.095Y-3.24
X4.095Y-3.275
X4.095Y-3.305
X4.095Y-3.34
X4.095Y-3.395
X4.095Y-3.425
X4.095Y-3.455
X4.095Y-3.485
X4.095Y-3.54
X4.095Y-3.575
X4.095Y-3.605
X4.095Y-3.635
X4.22Y-2.83
X4.22Y-2.865
X4.22Y-2.895
X4.22Y-2.925
X4.22Y-2.98
X4.22Y-3.015
X4.22Y-3.045
X4.22Y-3.075
X4.22Y-3.24
X4.22Y-3.275
X4.22Y-3.305
X4.22Y-3.34
X4.22Y-3.395
X4.22Y-3.425
X4.22Y-3.455
X4.22Y-3.485
X4.22Y-3.54
X4.22Y-3.575
X4.22Y-3.605
X4.22Y-3.635
T2
X3.95Y-4.53
X4.06Y-3.2
X4.065Y-4.09
X4.17Y-3.99
X4.28Y-3.2
X4.3Y-4.51
X4.31Y-3.88
X4.315Y-4.09
X4.35Y-3.74
X4.41Y-3.76
X4.45Y-3.42
X4.45Y-3.53
X4.45Y-3.57
X4.52Y-3.95
X4.52Y-4.05
X4.52Y-4.15
X4.58Y-3.98
X4.58Y-4.15
X4.6Y-3.38
X4.63Y-4.4
X4.65Y-2.84
X4.65Y-3.04
X4.65Y-3.86
X4.65Y-4.12
X4.68Y-3.285
X4.68Y-3.89
X4.68Y-3.95
X4.71Y-3.86
X4.73Y-3.775
X4.74Y-3.56
X4.74Y-3.6
X4.75Y-3.43
X4.76Y-3.53
X4.77Y-3.49
X4.77Y-3.89
X4.77Y-3.99
X4.81Y-3.15
X4.81Y-3.91
X4.81Y-4.01
X4.84Y-3.24
X4.85Y-4.16
X4.86Y-3.15
X4.86Y-3.21
X4.88Y-3.63
X4.9Y-3.59
X4.9Y-3.66
X4.95Y-3.82
X5.02Y-3.24
X5.02Y-3.66
X5.04Y-3.21
X5.06Y-3.66
X5.28Y-4.075
X5.32Y-3.23
X5.32Y-4.075
X5.44Y-3.52
X5.45Y-3.58
X5.45Y-3.63
X5.49Y-3.21
X5.51Y-3.97
X5.51Y-4.19
X5.58Y-3.7
X5.63Y-3.25
X5.63Y-3.31
X5.63Y-3.4
X5.66Y-3.92
X5.66Y-4.06
X5.69Y-3.25
X5.69Y-3.94
X5.69Y-4.
X5.72Y-3.34
X5.72Y-3.92
X5.74Y-3.28
X5.75Y-3.38
X5.75Y-3.89
X5.76Y-4.05
X5.78Y-3.67
X5.79Y-3.97
X5.79Y-4.18
X5.8Y-3.14
X5.83Y-3.16
X5.83Y-3.49
X5.83Y-3.75
X5.86Y-3.5
X5.86Y-3.78
X5.87Y-3.07
X5.88Y-3.9
X5.89Y-3.23
X5.89Y-3.53
X5.89Y-4.22
T3
X4.13Y-2.7
X4.13Y-2.8
X4.22Y-3.15
X4.29Y-2.75
X4.41Y-3.18
X4.49Y-3.73
X4.52Y-4.
X4.53Y-3.81
X4.55Y-3.86
X4.71Y-4.23
X4.71Y-4.46
X4.93Y-3.09
X4.94Y-4.34
X5.Y-3.83
X5.Y-4.01
X5.Y-4.33
X5.14Y-3.88
X5.27Y-2.75
X5.27Y-3.31
X5.27Y-3.4
X5.32Y-2.7
X5.32Y-3.89
X5.4Y-3.4
X5.42Y-3.98
X5.49Y-3.28
X5.5Y-2.7
X5.52Y-3.89
X5.58Y-2.89
X5.58Y-3.89
X5.65Y-3.47
X5.68Y-3.31
X5.7Y-3.84
T4
X4.1716Y-4.37
X4.27Y-4.37
X5.1447Y-4.37
X5.2431Y-4.37
X5.3416Y-4.37
X5.44Y-4.37
T5
X3.78Y-2.84
X3.78Y-2.94
X3.78Y-3.04
X3.78Y-3.14
X3.78Y-3.24
X3.78Y-3.34
X3.78Y-3.44
X3.78Y-3.54
X3.78Y-3.64
X3.78Y-3.74
X3.78Y-3.84
X3.78Y-3.94
X3.78Y-4.04
X3.78Y-4.14
X3.78Y-4.24
X3.78Y-4.34
X3.78Y-4.44
X3.88Y-2.84
X3.88Y-2.94
X3.88Y-3.04
X3.88Y-3.14
X3.88Y-3.24
X3.88Y-3.34
X3.88Y-3.44
X3.88Y-3.54
X3.88Y-3.64
X3.88Y-3.74
X3.88Y-3.84
X3.88Y-3.94
X3.88Y-4.04
X3.88Y-4.14
X3.88Y-4.24
X3.88Y-4.34
X3.88Y-4.44
X4.12Y-3.74
X4.12Y-3.84
X4.12Y-3.94
X4.12Y-4.04
X4.12Y-4.14
X4.22Y-3.74
X4.22Y-3.84
X4.22Y-3.94
X4.22Y-4.04
X4.22Y-4.14
X4.6Y-2.97
X4.7Y-2.97
X4.8Y-2.97
X4.9Y-2.97
X5.Y-2.97
X5.1Y-2.97
T0
M30
