G04 #@! TF.FileFunction,Soldermask,Top*
%FSLAX46Y46*%
G04 Gerber Fmt 4.6, Leading zero omitted, Abs format (unit mm)*
G04 Created by KiCad (PCBNEW 4.0.7) date 05/18/18 07:30:45*
%MOMM*%
%LPD*%
G01*
G04 APERTURE LIST*
%ADD10C,0.100000*%
%ADD11R,2.400000X2.800000*%
%ADD12C,3.600000*%
%ADD13R,2.900000X2.350000*%
%ADD14R,1.400000X1.650000*%
%ADD15R,1.650000X1.400000*%
%ADD16R,1.600000X1.600000*%
%ADD17R,1.900000X0.950000*%
%ADD18R,0.950000X1.900000*%
%ADD19R,1.300000X1.200000*%
%ADD20R,1.100000X1.700000*%
%ADD21R,1.700000X1.100000*%
%ADD22R,4.200000X2.400000*%
%ADD23R,1.900000X2.400000*%
%ADD24R,1.543000X0.908000*%
%ADD25R,1.650000X1.000000*%
%ADD26R,4.190000X1.600000*%
%ADD27R,1.800000X1.850000*%
%ADD28R,1.000000X1.400000*%
%ADD29R,1.250000X1.350000*%
%ADD30R,1.900000X0.700000*%
%ADD31R,0.700000X1.900000*%
%ADD32C,1.000000*%
%ADD33R,2.100000X2.100000*%
%ADD34O,2.100000X2.100000*%
%ADD35C,1.390600*%
%ADD36C,1.187400*%
%ADD37R,1.200000X0.900000*%
%ADD38R,1.200000X0.800000*%
%ADD39R,2.250000X2.250000*%
%ADD40C,2.250000*%
%ADD41C,2.100000*%
G04 APERTURE END LIST*
D10*
D11*
X134040000Y-74930000D03*
X137740000Y-74930000D03*
D12*
X88773000Y-112522000D03*
X146558000Y-112522000D03*
D13*
X113919000Y-112521000D03*
X113919000Y-115571000D03*
X125349000Y-112521000D03*
X125349000Y-115571000D03*
D14*
X108474000Y-80010000D03*
X110474000Y-80010000D03*
X123682000Y-78486000D03*
X121682000Y-78486000D03*
X117586000Y-95250000D03*
X115586000Y-95250000D03*
X117872000Y-78486000D03*
X119872000Y-78486000D03*
X138922000Y-98806000D03*
X136922000Y-98806000D03*
X128286000Y-97282000D03*
X130286000Y-97282000D03*
X141716000Y-75438000D03*
X139716000Y-75438000D03*
X133112000Y-72136000D03*
X135112000Y-72136000D03*
X138668000Y-72136000D03*
X136668000Y-72136000D03*
X136922000Y-97028000D03*
X138922000Y-97028000D03*
D15*
X139954000Y-101616000D03*
X139954000Y-103616000D03*
D16*
X111676000Y-70612000D03*
X113876000Y-70612000D03*
D17*
X141304000Y-92868000D03*
X141304000Y-92068000D03*
X141304000Y-91268000D03*
X141304000Y-90468000D03*
X141304000Y-89668000D03*
X141304000Y-88868000D03*
X141304000Y-88068000D03*
X141304000Y-87268000D03*
X141304000Y-86468000D03*
X141304000Y-85668000D03*
X141304000Y-84868000D03*
X141304000Y-84068000D03*
X141304000Y-83268000D03*
X141304000Y-82468000D03*
X141304000Y-81668000D03*
X141304000Y-80868000D03*
D18*
X139604000Y-79168000D03*
X138804000Y-79168000D03*
X138004000Y-79168000D03*
X137204000Y-79168000D03*
X136404000Y-79168000D03*
X135604000Y-79168000D03*
X134804000Y-79168000D03*
X134004000Y-79168000D03*
X133204000Y-79168000D03*
X132404000Y-79168000D03*
X131604000Y-79168000D03*
X130804000Y-79168000D03*
X130004000Y-79168000D03*
X129204000Y-79168000D03*
X128404000Y-79168000D03*
X127604000Y-79168000D03*
D17*
X125904000Y-80868000D03*
X125904000Y-81668000D03*
X125904000Y-82468000D03*
X125904000Y-83268000D03*
X125904000Y-84068000D03*
X125904000Y-84868000D03*
X125904000Y-85668000D03*
X125904000Y-86468000D03*
X125904000Y-87268000D03*
X125904000Y-88068000D03*
X125904000Y-88868000D03*
X125904000Y-89668000D03*
X125904000Y-90468000D03*
X125904000Y-91268000D03*
X125904000Y-92068000D03*
X125904000Y-92868000D03*
D18*
X127604000Y-94568000D03*
X128404000Y-94568000D03*
X129204000Y-94568000D03*
X130004000Y-94568000D03*
X130804000Y-94568000D03*
X131604000Y-94568000D03*
X132404000Y-94568000D03*
X133204000Y-94568000D03*
X134004000Y-94568000D03*
X134804000Y-94568000D03*
X135604000Y-94568000D03*
X136404000Y-94568000D03*
X137204000Y-94568000D03*
X138004000Y-94568000D03*
X138804000Y-94568000D03*
X139604000Y-94568000D03*
D19*
X147082000Y-82362000D03*
X147082000Y-84262000D03*
X149082000Y-83312000D03*
D20*
X105090000Y-80010000D03*
X103190000Y-80010000D03*
D21*
X114046000Y-74356000D03*
X114046000Y-72456000D03*
D20*
X113726000Y-97028000D03*
X111826000Y-97028000D03*
D21*
X143764000Y-77028000D03*
X143764000Y-78928000D03*
X147320000Y-77028000D03*
X147320000Y-78928000D03*
X149098000Y-77028000D03*
X149098000Y-78928000D03*
X145542000Y-77028000D03*
X145542000Y-78928000D03*
D22*
X119634000Y-115926000D03*
D23*
X119634000Y-109626000D03*
X117334000Y-109626000D03*
X121934000Y-109626000D03*
D24*
X141986000Y-99822000D03*
X141986000Y-101092000D03*
X141986000Y-102362000D03*
X141986000Y-103632000D03*
X141986000Y-104902000D03*
X141986000Y-106172000D03*
X141986000Y-107442000D03*
X148336000Y-107442000D03*
X148336000Y-106172000D03*
X148336000Y-103632000D03*
X148336000Y-102362000D03*
X148336000Y-101092000D03*
X148336000Y-99822000D03*
X148336000Y-104902000D03*
D12*
X146558000Y-72517000D03*
X88773000Y-72517000D03*
D25*
X145622800Y-88641600D03*
X145622800Y-89741600D03*
X145622800Y-90841600D03*
X145622800Y-91941600D03*
X145622800Y-93041600D03*
X145622800Y-94141600D03*
X145622800Y-95241600D03*
X145622800Y-96341600D03*
D26*
X148122800Y-97491600D03*
D27*
X147372800Y-87016600D03*
D28*
X148622800Y-86791600D03*
D29*
X149597800Y-87716600D03*
D30*
X111394000Y-83626000D03*
X111394000Y-84126000D03*
X111394000Y-84626000D03*
X111394000Y-85126000D03*
X111394000Y-85626000D03*
X111394000Y-86126000D03*
X111394000Y-86626000D03*
X111394000Y-87126000D03*
X111394000Y-87626000D03*
X111394000Y-88126000D03*
X111394000Y-88626000D03*
X111394000Y-89126000D03*
X111394000Y-89626000D03*
X111394000Y-90126000D03*
X111394000Y-90626000D03*
X111394000Y-91126000D03*
D31*
X113344000Y-93076000D03*
X113844000Y-93076000D03*
X114344000Y-93076000D03*
X114844000Y-93076000D03*
X115344000Y-93076000D03*
X115844000Y-93076000D03*
X116344000Y-93076000D03*
X116844000Y-93076000D03*
X117344000Y-93076000D03*
X117844000Y-93076000D03*
X118344000Y-93076000D03*
X118844000Y-93076000D03*
X119344000Y-93076000D03*
X119844000Y-93076000D03*
X120344000Y-93076000D03*
X120844000Y-93076000D03*
D30*
X122794000Y-91126000D03*
X122794000Y-90626000D03*
X122794000Y-90126000D03*
X122794000Y-89626000D03*
X122794000Y-89126000D03*
X122794000Y-88626000D03*
X122794000Y-88126000D03*
X122794000Y-87626000D03*
X122794000Y-87126000D03*
X122794000Y-86626000D03*
X122794000Y-86126000D03*
X122794000Y-85626000D03*
X122794000Y-85126000D03*
X122794000Y-84626000D03*
X122794000Y-84126000D03*
X122794000Y-83626000D03*
D31*
X120844000Y-81676000D03*
X120344000Y-81676000D03*
X119844000Y-81676000D03*
X119344000Y-81676000D03*
X118844000Y-81676000D03*
X118344000Y-81676000D03*
X117844000Y-81676000D03*
X117344000Y-81676000D03*
X116844000Y-81676000D03*
X116344000Y-81676000D03*
X115844000Y-81676000D03*
X115344000Y-81676000D03*
X114844000Y-81676000D03*
X114344000Y-81676000D03*
X113844000Y-81676000D03*
X113344000Y-81676000D03*
D32*
X86360000Y-116332000D03*
X148844000Y-116332000D03*
X86360000Y-68580000D03*
D33*
X104648000Y-94996000D03*
D34*
X107188000Y-94996000D03*
X104648000Y-97536000D03*
X107188000Y-97536000D03*
X104648000Y-100076000D03*
X107188000Y-100076000D03*
X104648000Y-102616000D03*
X107188000Y-102616000D03*
X104648000Y-105156000D03*
X107188000Y-105156000D03*
D35*
X111252000Y-99060000D03*
X113284000Y-99060000D03*
X112268000Y-106680000D03*
D36*
X112903000Y-105410000D03*
X112903000Y-104140000D03*
X112903000Y-102870000D03*
X112903000Y-101600000D03*
X112903000Y-100330000D03*
X111633000Y-100330000D03*
X111633000Y-101600000D03*
X111633000Y-102870000D03*
X111633000Y-104140000D03*
X111633000Y-105410000D03*
D37*
X103113000Y-75762000D03*
D38*
X103113000Y-77362000D03*
X103113000Y-76562000D03*
D37*
X103113000Y-78162000D03*
D38*
X104913000Y-76562000D03*
D37*
X104913000Y-75762000D03*
D38*
X104913000Y-77362000D03*
D37*
X104913000Y-78162000D03*
X108088000Y-78162000D03*
D38*
X108088000Y-76562000D03*
X108088000Y-77362000D03*
D37*
X108088000Y-75762000D03*
D38*
X106288000Y-77362000D03*
D37*
X106288000Y-78162000D03*
D38*
X106288000Y-76562000D03*
D37*
X106288000Y-75762000D03*
X103113000Y-71952000D03*
D38*
X103113000Y-73552000D03*
X103113000Y-72752000D03*
D37*
X103113000Y-74352000D03*
D38*
X104913000Y-72752000D03*
D37*
X104913000Y-71952000D03*
D38*
X104913000Y-73552000D03*
D37*
X104913000Y-74352000D03*
X108088000Y-74352000D03*
D38*
X108088000Y-72752000D03*
X108088000Y-73552000D03*
D37*
X108088000Y-71952000D03*
D38*
X106288000Y-73552000D03*
D37*
X106288000Y-74352000D03*
D38*
X106288000Y-72752000D03*
D37*
X106288000Y-71952000D03*
X103113000Y-86176000D03*
D38*
X103113000Y-87776000D03*
X103113000Y-86976000D03*
D37*
X103113000Y-88576000D03*
D38*
X104913000Y-86976000D03*
D37*
X104913000Y-86176000D03*
D38*
X104913000Y-87776000D03*
D37*
X104913000Y-88576000D03*
X108088000Y-88576000D03*
D38*
X108088000Y-86976000D03*
X108088000Y-87776000D03*
D37*
X108088000Y-86176000D03*
D38*
X106288000Y-87776000D03*
D37*
X106288000Y-88576000D03*
D38*
X106288000Y-86976000D03*
D37*
X106288000Y-86176000D03*
X103113000Y-82366000D03*
D38*
X103113000Y-83966000D03*
X103113000Y-83166000D03*
D37*
X103113000Y-84766000D03*
D38*
X104913000Y-83166000D03*
D37*
X104913000Y-82366000D03*
D38*
X104913000Y-83966000D03*
D37*
X104913000Y-84766000D03*
X108088000Y-84766000D03*
D38*
X108088000Y-83166000D03*
X108088000Y-83966000D03*
D37*
X108088000Y-82366000D03*
D38*
X106288000Y-83966000D03*
D37*
X106288000Y-84766000D03*
D38*
X106288000Y-83166000D03*
D37*
X106288000Y-82366000D03*
X103113000Y-89986000D03*
D38*
X103113000Y-91586000D03*
X103113000Y-90786000D03*
D37*
X103113000Y-92386000D03*
D38*
X104913000Y-90786000D03*
D37*
X104913000Y-89986000D03*
D38*
X104913000Y-91586000D03*
D37*
X104913000Y-92386000D03*
X108088000Y-92386000D03*
D38*
X108088000Y-90786000D03*
X108088000Y-91586000D03*
D37*
X108088000Y-89986000D03*
D38*
X106288000Y-91586000D03*
D37*
X106288000Y-92386000D03*
D38*
X106288000Y-90786000D03*
D37*
X106288000Y-89986000D03*
D39*
X108458000Y-110998000D03*
D40*
X105958000Y-110998000D03*
D33*
X98552000Y-112776000D03*
D41*
X96012000Y-112776000D03*
X98552000Y-110236000D03*
X96012000Y-110236000D03*
X98552000Y-107696000D03*
X96012000Y-107696000D03*
X98552000Y-105156000D03*
X96012000Y-105156000D03*
X98552000Y-102616000D03*
X96012000Y-102616000D03*
X98552000Y-100076000D03*
X96012000Y-100076000D03*
X98552000Y-97536000D03*
X96012000Y-97536000D03*
X98552000Y-94996000D03*
X96012000Y-94996000D03*
X98552000Y-92456000D03*
X96012000Y-92456000D03*
X98552000Y-89916000D03*
X96012000Y-89916000D03*
X98552000Y-87376000D03*
X96012000Y-87376000D03*
X98552000Y-84836000D03*
X96012000Y-84836000D03*
X98552000Y-82296000D03*
X96012000Y-82296000D03*
X98552000Y-79756000D03*
X96012000Y-79756000D03*
X98552000Y-77216000D03*
X96012000Y-77216000D03*
X98552000Y-74676000D03*
X96012000Y-74676000D03*
X98552000Y-72136000D03*
X96012000Y-72136000D03*
D33*
X116840000Y-75438000D03*
D34*
X119380000Y-75438000D03*
X121920000Y-75438000D03*
X124460000Y-75438000D03*
X127000000Y-75438000D03*
X129540000Y-75438000D03*
D15*
X141732000Y-95012000D03*
X141732000Y-97012000D03*
D39*
X138176000Y-110998000D03*
D40*
X135676000Y-110998000D03*
X133176000Y-110998000D03*
X130676000Y-110998000D03*
D20*
X135194000Y-106934000D03*
X137094000Y-106934000D03*
X133792000Y-106934000D03*
X131892000Y-106934000D03*
X125664000Y-98044000D03*
X123764000Y-98044000D03*
M02*
