G04 #@! TF.FileFunction,Legend,Bot*
%FSLAX46Y46*%
G04 Gerber Fmt 4.6, Leading zero omitted, Abs format (unit mm)*
G04 Created by KiCad (PCBNEW 4.0.7) date 05/19/18 23:16:30*
%MOMM*%
%LPD*%
G01*
G04 APERTURE LIST*
%ADD10C,0.100000*%
%ADD11C,0.300000*%
%ADD12C,0.120000*%
%ADD13C,0.010000*%
%ADD14C,0.150000*%
G04 APERTURE END LIST*
D10*
D11*
X116957143Y-87318570D02*
X116885714Y-87104284D01*
X116814286Y-87032856D01*
X116671429Y-86961427D01*
X116457143Y-86961427D01*
X116314286Y-87032856D01*
X116242857Y-87104284D01*
X116171429Y-87247142D01*
X116171429Y-87818570D01*
X117671429Y-87818570D01*
X117671429Y-87318570D01*
X117600000Y-87175713D01*
X117528571Y-87104284D01*
X117385714Y-87032856D01*
X117242857Y-87032856D01*
X117100000Y-87104284D01*
X117028571Y-87175713D01*
X116957143Y-87318570D01*
X116957143Y-87818570D01*
X116242857Y-85747142D02*
X116171429Y-85889999D01*
X116171429Y-86175713D01*
X116242857Y-86318570D01*
X116385714Y-86389999D01*
X116957143Y-86389999D01*
X117100000Y-86318570D01*
X117171429Y-86175713D01*
X117171429Y-85889999D01*
X117100000Y-85747142D01*
X116957143Y-85675713D01*
X116814286Y-85675713D01*
X116671429Y-86389999D01*
X116242857Y-84461428D02*
X116171429Y-84604285D01*
X116171429Y-84889999D01*
X116242857Y-85032856D01*
X116385714Y-85104285D01*
X116957143Y-85104285D01*
X117100000Y-85032856D01*
X117171429Y-84889999D01*
X117171429Y-84604285D01*
X117100000Y-84461428D01*
X116957143Y-84389999D01*
X116814286Y-84389999D01*
X116671429Y-85104285D01*
X116171429Y-83747142D02*
X117671429Y-83747142D01*
X117100000Y-83747142D02*
X117171429Y-83604285D01*
X117171429Y-83318571D01*
X117100000Y-83175714D01*
X117028571Y-83104285D01*
X116885714Y-83032856D01*
X116457143Y-83032856D01*
X116314286Y-83104285D01*
X116242857Y-83175714D01*
X116171429Y-83318571D01*
X116171429Y-83604285D01*
X116242857Y-83747142D01*
X116242857Y-82461428D02*
X116171429Y-82247142D01*
X116171429Y-81889999D01*
X116242857Y-81747142D01*
X116314286Y-81675713D01*
X116457143Y-81604285D01*
X116600000Y-81604285D01*
X116742857Y-81675713D01*
X116814286Y-81747142D01*
X116885714Y-81889999D01*
X116957143Y-82175713D01*
X117028571Y-82318571D01*
X117100000Y-82389999D01*
X117242857Y-82461428D01*
X117385714Y-82461428D01*
X117528571Y-82389999D01*
X117600000Y-82318571D01*
X117671429Y-82175713D01*
X117671429Y-81818571D01*
X117600000Y-81604285D01*
X116314286Y-80104285D02*
X116242857Y-80175714D01*
X116171429Y-80390000D01*
X116171429Y-80532857D01*
X116242857Y-80747142D01*
X116385714Y-80890000D01*
X116528571Y-80961428D01*
X116814286Y-81032857D01*
X117028571Y-81032857D01*
X117314286Y-80961428D01*
X117457143Y-80890000D01*
X117600000Y-80747142D01*
X117671429Y-80532857D01*
X117671429Y-80390000D01*
X117600000Y-80175714D01*
X117528571Y-80104285D01*
X116242857Y-79532857D02*
X116171429Y-79318571D01*
X116171429Y-78961428D01*
X116242857Y-78818571D01*
X116314286Y-78747142D01*
X116457143Y-78675714D01*
X116600000Y-78675714D01*
X116742857Y-78747142D01*
X116814286Y-78818571D01*
X116885714Y-78961428D01*
X116957143Y-79247142D01*
X117028571Y-79390000D01*
X117100000Y-79461428D01*
X117242857Y-79532857D01*
X117385714Y-79532857D01*
X117528571Y-79461428D01*
X117600000Y-79390000D01*
X117671429Y-79247142D01*
X117671429Y-78890000D01*
X117600000Y-78675714D01*
X116171429Y-78032857D02*
X117671429Y-78032857D01*
X116314286Y-75318571D02*
X116242857Y-75390000D01*
X116171429Y-75604286D01*
X116171429Y-75747143D01*
X116242857Y-75961428D01*
X116385714Y-76104286D01*
X116528571Y-76175714D01*
X116814286Y-76247143D01*
X117028571Y-76247143D01*
X117314286Y-76175714D01*
X117457143Y-76104286D01*
X117600000Y-75961428D01*
X117671429Y-75747143D01*
X117671429Y-75604286D01*
X117600000Y-75390000D01*
X117528571Y-75318571D01*
X116171429Y-74032857D02*
X116957143Y-74032857D01*
X117100000Y-74104286D01*
X117171429Y-74247143D01*
X117171429Y-74532857D01*
X117100000Y-74675714D01*
X116242857Y-74032857D02*
X116171429Y-74175714D01*
X116171429Y-74532857D01*
X116242857Y-74675714D01*
X116385714Y-74747143D01*
X116528571Y-74747143D01*
X116671429Y-74675714D01*
X116742857Y-74532857D01*
X116742857Y-74175714D01*
X116814286Y-74032857D01*
X116171429Y-73318571D02*
X117171429Y-73318571D01*
X116885714Y-73318571D02*
X117028571Y-73247143D01*
X117100000Y-73175714D01*
X117171429Y-73032857D01*
X117171429Y-72890000D01*
X117171429Y-72604286D02*
X117171429Y-72032857D01*
X117671429Y-72390000D02*
X116385714Y-72390000D01*
X116242857Y-72318572D01*
X116171429Y-72175714D01*
X116171429Y-72032857D01*
X116171429Y-71532857D02*
X117171429Y-71532857D01*
X116885714Y-71532857D02*
X117028571Y-71461429D01*
X117100000Y-71390000D01*
X117171429Y-71247143D01*
X117171429Y-71104286D01*
X116171429Y-70604286D02*
X117171429Y-70604286D01*
X117671429Y-70604286D02*
X117600000Y-70675715D01*
X117528571Y-70604286D01*
X117600000Y-70532858D01*
X117671429Y-70604286D01*
X117528571Y-70604286D01*
X116171429Y-69247143D02*
X117671429Y-69247143D01*
X116242857Y-69247143D02*
X116171429Y-69390000D01*
X116171429Y-69675714D01*
X116242857Y-69818572D01*
X116314286Y-69890000D01*
X116457143Y-69961429D01*
X116885714Y-69961429D01*
X117028571Y-69890000D01*
X117100000Y-69818572D01*
X117171429Y-69675714D01*
X117171429Y-69390000D01*
X117100000Y-69247143D01*
X117171429Y-67890000D02*
X115957143Y-67890000D01*
X115814286Y-67961429D01*
X115742857Y-68032857D01*
X115671429Y-68175714D01*
X115671429Y-68390000D01*
X115742857Y-68532857D01*
X116242857Y-67890000D02*
X116171429Y-68032857D01*
X116171429Y-68318571D01*
X116242857Y-68461429D01*
X116314286Y-68532857D01*
X116457143Y-68604286D01*
X116885714Y-68604286D01*
X117028571Y-68532857D01*
X117100000Y-68461429D01*
X117171429Y-68318571D01*
X117171429Y-68032857D01*
X117100000Y-67890000D01*
X116242857Y-66604286D02*
X116171429Y-66747143D01*
X116171429Y-67032857D01*
X116242857Y-67175714D01*
X116385714Y-67247143D01*
X116957143Y-67247143D01*
X117100000Y-67175714D01*
X117171429Y-67032857D01*
X117171429Y-66747143D01*
X117100000Y-66604286D01*
X116957143Y-66532857D01*
X116814286Y-66532857D01*
X116671429Y-67247143D01*
X116600000Y-64818572D02*
X116600000Y-64104286D01*
X116171429Y-64961429D02*
X117671429Y-64461429D01*
X116171429Y-63961429D01*
X116171429Y-62818572D02*
X117671429Y-62818572D01*
X116242857Y-62818572D02*
X116171429Y-62961429D01*
X116171429Y-63247143D01*
X116242857Y-63390001D01*
X116314286Y-63461429D01*
X116457143Y-63532858D01*
X116885714Y-63532858D01*
X117028571Y-63461429D01*
X117100000Y-63390001D01*
X117171429Y-63247143D01*
X117171429Y-62961429D01*
X117100000Y-62818572D01*
X116171429Y-61461429D02*
X116957143Y-61461429D01*
X117100000Y-61532858D01*
X117171429Y-61675715D01*
X117171429Y-61961429D01*
X117100000Y-62104286D01*
X116242857Y-61461429D02*
X116171429Y-61604286D01*
X116171429Y-61961429D01*
X116242857Y-62104286D01*
X116385714Y-62175715D01*
X116528571Y-62175715D01*
X116671429Y-62104286D01*
X116742857Y-61961429D01*
X116742857Y-61604286D01*
X116814286Y-61461429D01*
X117171429Y-60747143D02*
X115671429Y-60747143D01*
X117100000Y-60747143D02*
X117171429Y-60604286D01*
X117171429Y-60318572D01*
X117100000Y-60175715D01*
X117028571Y-60104286D01*
X116885714Y-60032857D01*
X116457143Y-60032857D01*
X116314286Y-60104286D01*
X116242857Y-60175715D01*
X116171429Y-60318572D01*
X116171429Y-60604286D01*
X116242857Y-60747143D01*
X117171429Y-59604286D02*
X117171429Y-59032857D01*
X117671429Y-59390000D02*
X116385714Y-59390000D01*
X116242857Y-59318572D01*
X116171429Y-59175714D01*
X116171429Y-59032857D01*
X116171429Y-58318571D02*
X116242857Y-58461429D01*
X116314286Y-58532857D01*
X116457143Y-58604286D01*
X116885714Y-58604286D01*
X117028571Y-58532857D01*
X117100000Y-58461429D01*
X117171429Y-58318571D01*
X117171429Y-58104286D01*
X117100000Y-57961429D01*
X117028571Y-57890000D01*
X116885714Y-57818571D01*
X116457143Y-57818571D01*
X116314286Y-57890000D01*
X116242857Y-57961429D01*
X116171429Y-58104286D01*
X116171429Y-58318571D01*
X116171429Y-57175714D02*
X117171429Y-57175714D01*
X116885714Y-57175714D02*
X117028571Y-57104286D01*
X117100000Y-57032857D01*
X117171429Y-56890000D01*
X117171429Y-56747143D01*
X113621429Y-89140001D02*
X115121429Y-89140001D01*
X113621429Y-88497144D02*
X114407143Y-88497144D01*
X114550000Y-88568573D01*
X114621429Y-88711430D01*
X114621429Y-88925715D01*
X114550000Y-89068573D01*
X114478571Y-89140001D01*
X114621429Y-87997144D02*
X114621429Y-87425715D01*
X115121429Y-87782858D02*
X113835714Y-87782858D01*
X113692857Y-87711430D01*
X113621429Y-87568572D01*
X113621429Y-87425715D01*
X114621429Y-87140001D02*
X114621429Y-86568572D01*
X115121429Y-86925715D02*
X113835714Y-86925715D01*
X113692857Y-86854287D01*
X113621429Y-86711429D01*
X113621429Y-86568572D01*
X114621429Y-86068572D02*
X113121429Y-86068572D01*
X114550000Y-86068572D02*
X114621429Y-85925715D01*
X114621429Y-85640001D01*
X114550000Y-85497144D01*
X114478571Y-85425715D01*
X114335714Y-85354286D01*
X113907143Y-85354286D01*
X113764286Y-85425715D01*
X113692857Y-85497144D01*
X113621429Y-85640001D01*
X113621429Y-85925715D01*
X113692857Y-86068572D01*
X113692857Y-84782858D02*
X113621429Y-84640001D01*
X113621429Y-84354286D01*
X113692857Y-84211429D01*
X113835714Y-84140001D01*
X113907143Y-84140001D01*
X114050000Y-84211429D01*
X114121429Y-84354286D01*
X114121429Y-84568572D01*
X114192857Y-84711429D01*
X114335714Y-84782858D01*
X114407143Y-84782858D01*
X114550000Y-84711429D01*
X114621429Y-84568572D01*
X114621429Y-84354286D01*
X114550000Y-84211429D01*
X113764286Y-83497143D02*
X113692857Y-83425715D01*
X113621429Y-83497143D01*
X113692857Y-83568572D01*
X113764286Y-83497143D01*
X113621429Y-83497143D01*
X114550000Y-83497143D02*
X114478571Y-83425715D01*
X114407143Y-83497143D01*
X114478571Y-83568572D01*
X114550000Y-83497143D01*
X114407143Y-83497143D01*
X115192857Y-81711429D02*
X113264286Y-82997143D01*
X115192857Y-80140000D02*
X113264286Y-81425714D01*
X114621429Y-79782856D02*
X113621429Y-79497142D01*
X114335714Y-79211428D01*
X113621429Y-78925713D01*
X114621429Y-78639999D01*
X114621429Y-78211427D02*
X113621429Y-77925713D01*
X114335714Y-77639999D01*
X113621429Y-77354284D01*
X114621429Y-77068570D01*
X114621429Y-76639998D02*
X113621429Y-76354284D01*
X114335714Y-76068570D01*
X113621429Y-75782855D01*
X114621429Y-75497141D01*
X113764286Y-74925712D02*
X113692857Y-74854284D01*
X113621429Y-74925712D01*
X113692857Y-74997141D01*
X113764286Y-74925712D01*
X113621429Y-74925712D01*
X113621429Y-73568569D02*
X115121429Y-73568569D01*
X113692857Y-73568569D02*
X113621429Y-73711426D01*
X113621429Y-73997140D01*
X113692857Y-74139998D01*
X113764286Y-74211426D01*
X113907143Y-74282855D01*
X114335714Y-74282855D01*
X114478571Y-74211426D01*
X114550000Y-74139998D01*
X114621429Y-73997140D01*
X114621429Y-73711426D01*
X114550000Y-73568569D01*
X113621429Y-72639997D02*
X113692857Y-72782855D01*
X113764286Y-72854283D01*
X113907143Y-72925712D01*
X114335714Y-72925712D01*
X114478571Y-72854283D01*
X114550000Y-72782855D01*
X114621429Y-72639997D01*
X114621429Y-72425712D01*
X114550000Y-72282855D01*
X114478571Y-72211426D01*
X114335714Y-72139997D01*
X113907143Y-72139997D01*
X113764286Y-72211426D01*
X113692857Y-72282855D01*
X113621429Y-72425712D01*
X113621429Y-72639997D01*
X113621429Y-71497140D02*
X114621429Y-71497140D01*
X114478571Y-71497140D02*
X114550000Y-71425712D01*
X114621429Y-71282854D01*
X114621429Y-71068569D01*
X114550000Y-70925712D01*
X114407143Y-70854283D01*
X113621429Y-70854283D01*
X114407143Y-70854283D02*
X114550000Y-70782854D01*
X114621429Y-70639997D01*
X114621429Y-70425712D01*
X114550000Y-70282854D01*
X114407143Y-70211426D01*
X113621429Y-70211426D01*
X113692857Y-68925712D02*
X113621429Y-69068569D01*
X113621429Y-69354283D01*
X113692857Y-69497140D01*
X113835714Y-69568569D01*
X114407143Y-69568569D01*
X114550000Y-69497140D01*
X114621429Y-69354283D01*
X114621429Y-69068569D01*
X114550000Y-68925712D01*
X114407143Y-68854283D01*
X114264286Y-68854283D01*
X114121429Y-69568569D01*
X113692857Y-68282855D02*
X113621429Y-68139998D01*
X113621429Y-67854283D01*
X113692857Y-67711426D01*
X113835714Y-67639998D01*
X113907143Y-67639998D01*
X114050000Y-67711426D01*
X114121429Y-67854283D01*
X114121429Y-68068569D01*
X114192857Y-68211426D01*
X114335714Y-68282855D01*
X114407143Y-68282855D01*
X114550000Y-68211426D01*
X114621429Y-68068569D01*
X114621429Y-67854283D01*
X114550000Y-67711426D01*
X113621429Y-66354283D02*
X115121429Y-66354283D01*
X113692857Y-66354283D02*
X113621429Y-66497140D01*
X113621429Y-66782854D01*
X113692857Y-66925712D01*
X113764286Y-66997140D01*
X113907143Y-67068569D01*
X114335714Y-67068569D01*
X114478571Y-66997140D01*
X114550000Y-66925712D01*
X114621429Y-66782854D01*
X114621429Y-66497140D01*
X114550000Y-66354283D01*
X113621429Y-64997140D02*
X114407143Y-64997140D01*
X114550000Y-65068569D01*
X114621429Y-65211426D01*
X114621429Y-65497140D01*
X114550000Y-65639997D01*
X113692857Y-64997140D02*
X113621429Y-65139997D01*
X113621429Y-65497140D01*
X113692857Y-65639997D01*
X113835714Y-65711426D01*
X113978571Y-65711426D01*
X114121429Y-65639997D01*
X114192857Y-65497140D01*
X114192857Y-65139997D01*
X114264286Y-64997140D01*
X114621429Y-64425711D02*
X113621429Y-64068568D01*
X114621429Y-63711426D02*
X113621429Y-64068568D01*
X113264286Y-64211426D01*
X113192857Y-64282854D01*
X113121429Y-64425711D01*
X114478571Y-62925711D02*
X114550000Y-63068569D01*
X114621429Y-63139997D01*
X114764286Y-63211426D01*
X114835714Y-63211426D01*
X114978571Y-63139997D01*
X115050000Y-63068569D01*
X115121429Y-62925711D01*
X115121429Y-62639997D01*
X115050000Y-62497140D01*
X114978571Y-62425711D01*
X114835714Y-62354283D01*
X114764286Y-62354283D01*
X114621429Y-62425711D01*
X114550000Y-62497140D01*
X114478571Y-62639997D01*
X114478571Y-62925711D01*
X114407143Y-63068569D01*
X114335714Y-63139997D01*
X114192857Y-63211426D01*
X113907143Y-63211426D01*
X113764286Y-63139997D01*
X113692857Y-63068569D01*
X113621429Y-62925711D01*
X113621429Y-62639997D01*
X113692857Y-62497140D01*
X113764286Y-62425711D01*
X113907143Y-62354283D01*
X114192857Y-62354283D01*
X114335714Y-62425711D01*
X114407143Y-62497140D01*
X114478571Y-62639997D01*
X115121429Y-61068569D02*
X115121429Y-61354283D01*
X115050000Y-61497140D01*
X114978571Y-61568569D01*
X114764286Y-61711426D01*
X114478571Y-61782855D01*
X113907143Y-61782855D01*
X113764286Y-61711426D01*
X113692857Y-61639998D01*
X113621429Y-61497140D01*
X113621429Y-61211426D01*
X113692857Y-61068569D01*
X113764286Y-60997140D01*
X113907143Y-60925712D01*
X114264286Y-60925712D01*
X114407143Y-60997140D01*
X114478571Y-61068569D01*
X114550000Y-61211426D01*
X114550000Y-61497140D01*
X114478571Y-61639998D01*
X114407143Y-61711426D01*
X114264286Y-61782855D01*
X113764286Y-60282855D02*
X113692857Y-60211427D01*
X113621429Y-60282855D01*
X113692857Y-60354284D01*
X113764286Y-60282855D01*
X113621429Y-60282855D01*
X113692857Y-58925712D02*
X113621429Y-59068569D01*
X113621429Y-59354283D01*
X113692857Y-59497141D01*
X113764286Y-59568569D01*
X113907143Y-59639998D01*
X114335714Y-59639998D01*
X114478571Y-59568569D01*
X114550000Y-59497141D01*
X114621429Y-59354283D01*
X114621429Y-59068569D01*
X114550000Y-58925712D01*
X113621429Y-58068569D02*
X113692857Y-58211427D01*
X113764286Y-58282855D01*
X113907143Y-58354284D01*
X114335714Y-58354284D01*
X114478571Y-58282855D01*
X114550000Y-58211427D01*
X114621429Y-58068569D01*
X114621429Y-57854284D01*
X114550000Y-57711427D01*
X114478571Y-57639998D01*
X114335714Y-57568569D01*
X113907143Y-57568569D01*
X113764286Y-57639998D01*
X113692857Y-57711427D01*
X113621429Y-57854284D01*
X113621429Y-58068569D01*
X113621429Y-56925712D02*
X114621429Y-56925712D01*
X114478571Y-56925712D02*
X114550000Y-56854284D01*
X114621429Y-56711426D01*
X114621429Y-56497141D01*
X114550000Y-56354284D01*
X114407143Y-56282855D01*
X113621429Y-56282855D01*
X114407143Y-56282855D02*
X114550000Y-56211426D01*
X114621429Y-56068569D01*
X114621429Y-55854284D01*
X114550000Y-55711426D01*
X114407143Y-55639998D01*
X113621429Y-55639998D01*
X110500000Y-82997142D02*
X110571429Y-83068570D01*
X110785714Y-83211427D01*
X110928571Y-83282856D01*
X111142857Y-83354285D01*
X111500000Y-83425713D01*
X111785714Y-83425713D01*
X112142857Y-83354285D01*
X112357143Y-83282856D01*
X112500000Y-83211427D01*
X112714286Y-83068570D01*
X112785714Y-82997142D01*
X111142857Y-81782856D02*
X111071429Y-81925713D01*
X111071429Y-82211427D01*
X111142857Y-82354285D01*
X111214286Y-82425713D01*
X111357143Y-82497142D01*
X111785714Y-82497142D01*
X111928571Y-82425713D01*
X112000000Y-82354285D01*
X112071429Y-82211427D01*
X112071429Y-81925713D01*
X112000000Y-81782856D01*
X110500000Y-81282856D02*
X110571429Y-81211428D01*
X110785714Y-81068571D01*
X110928571Y-80997142D01*
X111142857Y-80925713D01*
X111500000Y-80854285D01*
X111785714Y-80854285D01*
X112142857Y-80925713D01*
X112357143Y-80997142D01*
X112500000Y-81068571D01*
X112714286Y-81211428D01*
X112785714Y-81282856D01*
X112428571Y-80211428D02*
X112500000Y-80139999D01*
X112571429Y-79997142D01*
X112571429Y-79639999D01*
X112500000Y-79497142D01*
X112428571Y-79425713D01*
X112285714Y-79354285D01*
X112142857Y-79354285D01*
X111928571Y-79425713D01*
X111071429Y-80282856D01*
X111071429Y-79354285D01*
X112571429Y-78425714D02*
X112571429Y-78282857D01*
X112500000Y-78140000D01*
X112428571Y-78068571D01*
X112285714Y-77997142D01*
X112000000Y-77925714D01*
X111642857Y-77925714D01*
X111357143Y-77997142D01*
X111214286Y-78068571D01*
X111142857Y-78140000D01*
X111071429Y-78282857D01*
X111071429Y-78425714D01*
X111142857Y-78568571D01*
X111214286Y-78640000D01*
X111357143Y-78711428D01*
X111642857Y-78782857D01*
X112000000Y-78782857D01*
X112285714Y-78711428D01*
X112428571Y-78640000D01*
X112500000Y-78568571D01*
X112571429Y-78425714D01*
X111071429Y-76497143D02*
X111071429Y-77354286D01*
X111071429Y-76925714D02*
X112571429Y-76925714D01*
X112357143Y-77068571D01*
X112214286Y-77211429D01*
X112142857Y-77354286D01*
X111928571Y-75640000D02*
X112000000Y-75782858D01*
X112071429Y-75854286D01*
X112214286Y-75925715D01*
X112285714Y-75925715D01*
X112428571Y-75854286D01*
X112500000Y-75782858D01*
X112571429Y-75640000D01*
X112571429Y-75354286D01*
X112500000Y-75211429D01*
X112428571Y-75140000D01*
X112285714Y-75068572D01*
X112214286Y-75068572D01*
X112071429Y-75140000D01*
X112000000Y-75211429D01*
X111928571Y-75354286D01*
X111928571Y-75640000D01*
X111857143Y-75782858D01*
X111785714Y-75854286D01*
X111642857Y-75925715D01*
X111357143Y-75925715D01*
X111214286Y-75854286D01*
X111142857Y-75782858D01*
X111071429Y-75640000D01*
X111071429Y-75354286D01*
X111142857Y-75211429D01*
X111214286Y-75140000D01*
X111357143Y-75068572D01*
X111642857Y-75068572D01*
X111785714Y-75140000D01*
X111857143Y-75211429D01*
X111928571Y-75354286D01*
X111142857Y-73354287D02*
X111071429Y-73140001D01*
X111071429Y-72782858D01*
X111142857Y-72640001D01*
X111214286Y-72568572D01*
X111357143Y-72497144D01*
X111500000Y-72497144D01*
X111642857Y-72568572D01*
X111714286Y-72640001D01*
X111785714Y-72782858D01*
X111857143Y-73068572D01*
X111928571Y-73211430D01*
X112000000Y-73282858D01*
X112142857Y-73354287D01*
X112285714Y-73354287D01*
X112428571Y-73282858D01*
X112500000Y-73211430D01*
X112571429Y-73068572D01*
X112571429Y-72711430D01*
X112500000Y-72497144D01*
X111071429Y-71854287D02*
X112071429Y-71854287D01*
X112571429Y-71854287D02*
X112500000Y-71925716D01*
X112428571Y-71854287D01*
X112500000Y-71782859D01*
X112571429Y-71854287D01*
X112428571Y-71854287D01*
X111071429Y-71140001D02*
X112071429Y-71140001D01*
X111928571Y-71140001D02*
X112000000Y-71068573D01*
X112071429Y-70925715D01*
X112071429Y-70711430D01*
X112000000Y-70568573D01*
X111857143Y-70497144D01*
X111071429Y-70497144D01*
X111857143Y-70497144D02*
X112000000Y-70425715D01*
X112071429Y-70282858D01*
X112071429Y-70068573D01*
X112000000Y-69925715D01*
X111857143Y-69854287D01*
X111071429Y-69854287D01*
X111071429Y-68925715D02*
X111142857Y-69068573D01*
X111214286Y-69140001D01*
X111357143Y-69211430D01*
X111785714Y-69211430D01*
X111928571Y-69140001D01*
X112000000Y-69068573D01*
X112071429Y-68925715D01*
X112071429Y-68711430D01*
X112000000Y-68568573D01*
X111928571Y-68497144D01*
X111785714Y-68425715D01*
X111357143Y-68425715D01*
X111214286Y-68497144D01*
X111142857Y-68568573D01*
X111071429Y-68711430D01*
X111071429Y-68925715D01*
X112071429Y-67782858D02*
X111071429Y-67782858D01*
X111928571Y-67782858D02*
X112000000Y-67711430D01*
X112071429Y-67568572D01*
X112071429Y-67354287D01*
X112000000Y-67211430D01*
X111857143Y-67140001D01*
X111071429Y-67140001D01*
X111071429Y-65282858D02*
X112571429Y-65282858D01*
X112071429Y-64568572D02*
X111071429Y-64568572D01*
X111928571Y-64568572D02*
X112000000Y-64497144D01*
X112071429Y-64354286D01*
X112071429Y-64140001D01*
X112000000Y-63997144D01*
X111857143Y-63925715D01*
X111071429Y-63925715D01*
X112071429Y-63211429D02*
X111071429Y-63211429D01*
X111928571Y-63211429D02*
X112000000Y-63140001D01*
X112071429Y-62997143D01*
X112071429Y-62782858D01*
X112000000Y-62640001D01*
X111857143Y-62568572D01*
X111071429Y-62568572D01*
X111142857Y-61925715D02*
X111071429Y-61782858D01*
X111071429Y-61497143D01*
X111142857Y-61354286D01*
X111285714Y-61282858D01*
X111357143Y-61282858D01*
X111500000Y-61354286D01*
X111571429Y-61497143D01*
X111571429Y-61711429D01*
X111642857Y-61854286D01*
X111785714Y-61925715D01*
X111857143Y-61925715D01*
X112000000Y-61854286D01*
X112071429Y-61711429D01*
X112071429Y-61497143D01*
X112000000Y-61354286D01*
X168231429Y-57559287D02*
X168160000Y-57630716D01*
X168088571Y-57773573D01*
X168088571Y-58130716D01*
X168160000Y-58273573D01*
X168231429Y-58345002D01*
X168374286Y-58416430D01*
X168517143Y-58416430D01*
X168731429Y-58345002D01*
X169588571Y-57487859D01*
X169588571Y-58416430D01*
X168088571Y-58916430D02*
X168088571Y-59916430D01*
X169588571Y-59273573D01*
X169445714Y-61345001D02*
X169517143Y-61273572D01*
X169588571Y-61059286D01*
X169588571Y-60916429D01*
X169517143Y-60702144D01*
X169374286Y-60559286D01*
X169231429Y-60487858D01*
X168945714Y-60416429D01*
X168731429Y-60416429D01*
X168445714Y-60487858D01*
X168302857Y-60559286D01*
X168160000Y-60702144D01*
X168088571Y-60916429D01*
X168088571Y-61059286D01*
X168160000Y-61273572D01*
X168231429Y-61345001D01*
X169588571Y-62773572D02*
X169588571Y-61916429D01*
X169588571Y-62345001D02*
X168088571Y-62345001D01*
X168302857Y-62202144D01*
X168445714Y-62059286D01*
X168517143Y-61916429D01*
X168231429Y-63345000D02*
X168160000Y-63416429D01*
X168088571Y-63559286D01*
X168088571Y-63916429D01*
X168160000Y-64059286D01*
X168231429Y-64130715D01*
X168374286Y-64202143D01*
X168517143Y-64202143D01*
X168731429Y-64130715D01*
X169588571Y-63273572D01*
X169588571Y-64202143D01*
X168731429Y-65059286D02*
X168660000Y-64916428D01*
X168588571Y-64845000D01*
X168445714Y-64773571D01*
X168374286Y-64773571D01*
X168231429Y-64845000D01*
X168160000Y-64916428D01*
X168088571Y-65059286D01*
X168088571Y-65345000D01*
X168160000Y-65487857D01*
X168231429Y-65559286D01*
X168374286Y-65630714D01*
X168445714Y-65630714D01*
X168588571Y-65559286D01*
X168660000Y-65487857D01*
X168731429Y-65345000D01*
X168731429Y-65059286D01*
X168802857Y-64916428D01*
X168874286Y-64845000D01*
X169017143Y-64773571D01*
X169302857Y-64773571D01*
X169445714Y-64845000D01*
X169517143Y-64916428D01*
X169588571Y-65059286D01*
X169588571Y-65345000D01*
X169517143Y-65487857D01*
X169445714Y-65559286D01*
X169302857Y-65630714D01*
X169017143Y-65630714D01*
X168874286Y-65559286D01*
X168802857Y-65487857D01*
X168731429Y-65345000D01*
X142196429Y-57559287D02*
X142125000Y-57630716D01*
X142053571Y-57773573D01*
X142053571Y-58130716D01*
X142125000Y-58273573D01*
X142196429Y-58345002D01*
X142339286Y-58416430D01*
X142482143Y-58416430D01*
X142696429Y-58345002D01*
X143553571Y-57487859D01*
X143553571Y-58416430D01*
X142053571Y-58916430D02*
X142053571Y-59916430D01*
X143553571Y-59273573D01*
X143410714Y-61345001D02*
X143482143Y-61273572D01*
X143553571Y-61059286D01*
X143553571Y-60916429D01*
X143482143Y-60702144D01*
X143339286Y-60559286D01*
X143196429Y-60487858D01*
X142910714Y-60416429D01*
X142696429Y-60416429D01*
X142410714Y-60487858D01*
X142267857Y-60559286D01*
X142125000Y-60702144D01*
X142053571Y-60916429D01*
X142053571Y-61059286D01*
X142125000Y-61273572D01*
X142196429Y-61345001D01*
X143553571Y-62773572D02*
X143553571Y-61916429D01*
X143553571Y-62345001D02*
X142053571Y-62345001D01*
X142267857Y-62202144D01*
X142410714Y-62059286D01*
X142482143Y-61916429D01*
X142196429Y-63345000D02*
X142125000Y-63416429D01*
X142053571Y-63559286D01*
X142053571Y-63916429D01*
X142125000Y-64059286D01*
X142196429Y-64130715D01*
X142339286Y-64202143D01*
X142482143Y-64202143D01*
X142696429Y-64130715D01*
X143553571Y-63273572D01*
X143553571Y-64202143D01*
X142696429Y-65059286D02*
X142625000Y-64916428D01*
X142553571Y-64845000D01*
X142410714Y-64773571D01*
X142339286Y-64773571D01*
X142196429Y-64845000D01*
X142125000Y-64916428D01*
X142053571Y-65059286D01*
X142053571Y-65345000D01*
X142125000Y-65487857D01*
X142196429Y-65559286D01*
X142339286Y-65630714D01*
X142410714Y-65630714D01*
X142553571Y-65559286D01*
X142625000Y-65487857D01*
X142696429Y-65345000D01*
X142696429Y-65059286D01*
X142767857Y-64916428D01*
X142839286Y-64845000D01*
X142982143Y-64773571D01*
X143267857Y-64773571D01*
X143410714Y-64845000D01*
X143482143Y-64916428D01*
X143553571Y-65059286D01*
X143553571Y-65345000D01*
X143482143Y-65487857D01*
X143410714Y-65559286D01*
X143267857Y-65630714D01*
X142982143Y-65630714D01*
X142839286Y-65559286D01*
X142767857Y-65487857D01*
X142696429Y-65345000D01*
X160579285Y-95293571D02*
X161079285Y-94579286D01*
X161436428Y-95293571D02*
X161436428Y-93793571D01*
X160865000Y-93793571D01*
X160722142Y-93865000D01*
X160650714Y-93936429D01*
X160579285Y-94079286D01*
X160579285Y-94293571D01*
X160650714Y-94436429D01*
X160722142Y-94507857D01*
X160865000Y-94579286D01*
X161436428Y-94579286D01*
X159650714Y-93793571D02*
X159365000Y-93793571D01*
X159222142Y-93865000D01*
X159079285Y-94007857D01*
X159007857Y-94293571D01*
X159007857Y-94793571D01*
X159079285Y-95079286D01*
X159222142Y-95222143D01*
X159365000Y-95293571D01*
X159650714Y-95293571D01*
X159793571Y-95222143D01*
X159936428Y-95079286D01*
X160007857Y-94793571D01*
X160007857Y-94293571D01*
X159936428Y-94007857D01*
X159793571Y-93865000D01*
X159650714Y-93793571D01*
X158364999Y-95293571D02*
X158364999Y-93793571D01*
X157864999Y-94865000D01*
X157364999Y-93793571D01*
X157364999Y-95293571D01*
X155579285Y-93936429D02*
X155507856Y-93865000D01*
X155364999Y-93793571D01*
X155007856Y-93793571D01*
X154864999Y-93865000D01*
X154793570Y-93936429D01*
X154722142Y-94079286D01*
X154722142Y-94222143D01*
X154793570Y-94436429D01*
X155650713Y-95293571D01*
X154722142Y-95293571D01*
X134544285Y-95293571D02*
X135044285Y-94579286D01*
X135401428Y-95293571D02*
X135401428Y-93793571D01*
X134830000Y-93793571D01*
X134687142Y-93865000D01*
X134615714Y-93936429D01*
X134544285Y-94079286D01*
X134544285Y-94293571D01*
X134615714Y-94436429D01*
X134687142Y-94507857D01*
X134830000Y-94579286D01*
X135401428Y-94579286D01*
X133615714Y-93793571D02*
X133330000Y-93793571D01*
X133187142Y-93865000D01*
X133044285Y-94007857D01*
X132972857Y-94293571D01*
X132972857Y-94793571D01*
X133044285Y-95079286D01*
X133187142Y-95222143D01*
X133330000Y-95293571D01*
X133615714Y-95293571D01*
X133758571Y-95222143D01*
X133901428Y-95079286D01*
X133972857Y-94793571D01*
X133972857Y-94293571D01*
X133901428Y-94007857D01*
X133758571Y-93865000D01*
X133615714Y-93793571D01*
X132329999Y-95293571D02*
X132329999Y-93793571D01*
X131829999Y-94865000D01*
X131329999Y-93793571D01*
X131329999Y-95293571D01*
X128687142Y-95293571D02*
X129544285Y-95293571D01*
X129115713Y-95293571D02*
X129115713Y-93793571D01*
X129258570Y-94007857D01*
X129401428Y-94150714D01*
X129544285Y-94222143D01*
X156744285Y-48703571D02*
X155887142Y-48703571D01*
X156315713Y-50203571D02*
X156315713Y-48703571D01*
X155387142Y-50203571D02*
X155387142Y-48703571D01*
X155387142Y-49417857D02*
X154529999Y-49417857D01*
X154529999Y-50203571D02*
X154529999Y-48703571D01*
X153815713Y-50203571D02*
X153815713Y-48703571D01*
X153172856Y-50132143D02*
X152958570Y-50203571D01*
X152601427Y-50203571D01*
X152458570Y-50132143D01*
X152387141Y-50060714D01*
X152315713Y-49917857D01*
X152315713Y-49775000D01*
X152387141Y-49632143D01*
X152458570Y-49560714D01*
X152601427Y-49489286D01*
X152887141Y-49417857D01*
X153029999Y-49346429D01*
X153101427Y-49275000D01*
X153172856Y-49132143D01*
X153172856Y-48989286D01*
X153101427Y-48846429D01*
X153029999Y-48775000D01*
X152887141Y-48703571D01*
X152529999Y-48703571D01*
X152315713Y-48775000D01*
X150601428Y-50132143D02*
X150387142Y-50203571D01*
X150029999Y-50203571D01*
X149887142Y-50132143D01*
X149815713Y-50060714D01*
X149744285Y-49917857D01*
X149744285Y-49775000D01*
X149815713Y-49632143D01*
X149887142Y-49560714D01*
X150029999Y-49489286D01*
X150315713Y-49417857D01*
X150458571Y-49346429D01*
X150529999Y-49275000D01*
X150601428Y-49132143D01*
X150601428Y-48989286D01*
X150529999Y-48846429D01*
X150458571Y-48775000D01*
X150315713Y-48703571D01*
X149958571Y-48703571D01*
X149744285Y-48775000D01*
X149101428Y-50203571D02*
X149101428Y-48703571D01*
X148387142Y-50203571D02*
X148387142Y-48703571D01*
X148029999Y-48703571D01*
X147815714Y-48775000D01*
X147672856Y-48917857D01*
X147601428Y-49060714D01*
X147529999Y-49346429D01*
X147529999Y-49560714D01*
X147601428Y-49846429D01*
X147672856Y-49989286D01*
X147815714Y-50132143D01*
X148029999Y-50203571D01*
X148387142Y-50203571D01*
X146887142Y-49417857D02*
X146387142Y-49417857D01*
X146172856Y-50203571D02*
X146887142Y-50203571D01*
X146887142Y-48703571D01*
X146172856Y-48703571D01*
X143887142Y-49417857D02*
X144387142Y-49417857D01*
X144387142Y-50203571D02*
X144387142Y-48703571D01*
X143672856Y-48703571D01*
X143172857Y-49775000D02*
X142458571Y-49775000D01*
X143315714Y-50203571D02*
X142815714Y-48703571D01*
X142315714Y-50203571D01*
X140958571Y-50060714D02*
X141030000Y-50132143D01*
X141244286Y-50203571D01*
X141387143Y-50203571D01*
X141601428Y-50132143D01*
X141744286Y-49989286D01*
X141815714Y-49846429D01*
X141887143Y-49560714D01*
X141887143Y-49346429D01*
X141815714Y-49060714D01*
X141744286Y-48917857D01*
X141601428Y-48775000D01*
X141387143Y-48703571D01*
X141244286Y-48703571D01*
X141030000Y-48775000D01*
X140958571Y-48846429D01*
X140315714Y-49417857D02*
X139815714Y-49417857D01*
X139601428Y-50203571D02*
X140315714Y-50203571D01*
X140315714Y-48703571D01*
X139601428Y-48703571D01*
X139030000Y-50132143D02*
X138815714Y-50203571D01*
X138458571Y-50203571D01*
X138315714Y-50132143D01*
X138244285Y-50060714D01*
X138172857Y-49917857D01*
X138172857Y-49775000D01*
X138244285Y-49632143D01*
X138315714Y-49560714D01*
X138458571Y-49489286D01*
X138744285Y-49417857D01*
X138887143Y-49346429D01*
X138958571Y-49275000D01*
X139030000Y-49132143D01*
X139030000Y-48989286D01*
X138958571Y-48846429D01*
X138887143Y-48775000D01*
X138744285Y-48703571D01*
X138387143Y-48703571D01*
X138172857Y-48775000D01*
X136601429Y-48703571D02*
X135744286Y-48703571D01*
X136172857Y-50203571D02*
X136172857Y-48703571D01*
X135244286Y-50203571D02*
X135244286Y-48703571D01*
X135244286Y-49417857D02*
X134387143Y-49417857D01*
X134387143Y-50203571D02*
X134387143Y-48703571D01*
X133672857Y-49417857D02*
X133172857Y-49417857D01*
X132958571Y-50203571D02*
X133672857Y-50203571D01*
X133672857Y-48703571D01*
X132958571Y-48703571D01*
X156208571Y-51967857D02*
X155994285Y-52039286D01*
X155922857Y-52110714D01*
X155851428Y-52253571D01*
X155851428Y-52467857D01*
X155922857Y-52610714D01*
X155994285Y-52682143D01*
X156137143Y-52753571D01*
X156708571Y-52753571D01*
X156708571Y-51253571D01*
X156208571Y-51253571D01*
X156065714Y-51325000D01*
X155994285Y-51396429D01*
X155922857Y-51539286D01*
X155922857Y-51682143D01*
X155994285Y-51825000D01*
X156065714Y-51896429D01*
X156208571Y-51967857D01*
X156708571Y-51967857D01*
X155280000Y-52325000D02*
X154565714Y-52325000D01*
X155422857Y-52753571D02*
X154922857Y-51253571D01*
X154422857Y-52753571D01*
X153065714Y-52610714D02*
X153137143Y-52682143D01*
X153351429Y-52753571D01*
X153494286Y-52753571D01*
X153708571Y-52682143D01*
X153851429Y-52539286D01*
X153922857Y-52396429D01*
X153994286Y-52110714D01*
X153994286Y-51896429D01*
X153922857Y-51610714D01*
X153851429Y-51467857D01*
X153708571Y-51325000D01*
X153494286Y-51253571D01*
X153351429Y-51253571D01*
X153137143Y-51325000D01*
X153065714Y-51396429D01*
X152422857Y-52753571D02*
X152422857Y-51253571D01*
X151565714Y-52753571D02*
X152208571Y-51896429D01*
X151565714Y-51253571D02*
X152422857Y-52110714D01*
X149494286Y-51253571D02*
X149208572Y-51253571D01*
X149065714Y-51325000D01*
X148922857Y-51467857D01*
X148851429Y-51753571D01*
X148851429Y-52253571D01*
X148922857Y-52539286D01*
X149065714Y-52682143D01*
X149208572Y-52753571D01*
X149494286Y-52753571D01*
X149637143Y-52682143D01*
X149780000Y-52539286D01*
X149851429Y-52253571D01*
X149851429Y-51753571D01*
X149780000Y-51467857D01*
X149637143Y-51325000D01*
X149494286Y-51253571D01*
X147708571Y-51967857D02*
X148208571Y-51967857D01*
X148208571Y-52753571D02*
X148208571Y-51253571D01*
X147494285Y-51253571D01*
X145994286Y-51253571D02*
X145137143Y-51253571D01*
X145565714Y-52753571D02*
X145565714Y-51253571D01*
X144637143Y-52753571D02*
X144637143Y-51253571D01*
X144637143Y-51967857D02*
X143780000Y-51967857D01*
X143780000Y-52753571D02*
X143780000Y-51253571D01*
X143065714Y-51967857D02*
X142565714Y-51967857D01*
X142351428Y-52753571D02*
X143065714Y-52753571D01*
X143065714Y-51253571D01*
X142351428Y-51253571D01*
X140565714Y-52753571D02*
X140565714Y-51253571D01*
X140065714Y-52325000D01*
X139565714Y-51253571D01*
X139565714Y-52753571D01*
X138922857Y-52325000D02*
X138208571Y-52325000D01*
X139065714Y-52753571D02*
X138565714Y-51253571D01*
X138065714Y-52753571D01*
X137637143Y-52682143D02*
X137422857Y-52753571D01*
X137065714Y-52753571D01*
X136922857Y-52682143D01*
X136851428Y-52610714D01*
X136780000Y-52467857D01*
X136780000Y-52325000D01*
X136851428Y-52182143D01*
X136922857Y-52110714D01*
X137065714Y-52039286D01*
X137351428Y-51967857D01*
X137494286Y-51896429D01*
X137565714Y-51825000D01*
X137637143Y-51682143D01*
X137637143Y-51539286D01*
X137565714Y-51396429D01*
X137494286Y-51325000D01*
X137351428Y-51253571D01*
X136994286Y-51253571D01*
X136780000Y-51325000D01*
X136351429Y-51253571D02*
X135494286Y-51253571D01*
X135922857Y-52753571D02*
X135922857Y-51253571D01*
X134994286Y-51967857D02*
X134494286Y-51967857D01*
X134280000Y-52753571D02*
X134994286Y-52753571D01*
X134994286Y-51253571D01*
X134280000Y-51253571D01*
X132780000Y-52753571D02*
X133280000Y-52039286D01*
X133637143Y-52753571D02*
X133637143Y-51253571D01*
X133065715Y-51253571D01*
X132922857Y-51325000D01*
X132851429Y-51396429D01*
X132780000Y-51539286D01*
X132780000Y-51753571D01*
X132851429Y-51896429D01*
X132922857Y-51967857D01*
X133065715Y-52039286D01*
X133637143Y-52039286D01*
D12*
X131080000Y-57090000D02*
G75*
G03X133080000Y-57090000I1000000J0D01*
G01*
X133080000Y-57090000D02*
X138540000Y-57090000D01*
X138540000Y-57090000D02*
X138540000Y-92770000D01*
X138540000Y-92770000D02*
X125620000Y-92770000D01*
X125620000Y-92770000D02*
X125620000Y-57090000D01*
X125620000Y-57090000D02*
X131080000Y-57090000D01*
X157115000Y-57090000D02*
G75*
G03X159115000Y-57090000I1000000J0D01*
G01*
X159115000Y-57090000D02*
X164575000Y-57090000D01*
X164575000Y-57090000D02*
X164575000Y-92770000D01*
X164575000Y-92770000D02*
X151655000Y-92770000D01*
X151655000Y-92770000D02*
X151655000Y-57090000D01*
X151655000Y-57090000D02*
X157115000Y-57090000D01*
D13*
G36*
X124162419Y-115025725D02*
X122696431Y-115025761D01*
X121299681Y-115025825D01*
X119970502Y-115025922D01*
X118707228Y-115026056D01*
X117508190Y-115026232D01*
X116371724Y-115026454D01*
X115296161Y-115026726D01*
X114279835Y-115027051D01*
X113321080Y-115027436D01*
X112418228Y-115027883D01*
X111569613Y-115028398D01*
X110773567Y-115028983D01*
X110028425Y-115029644D01*
X109332518Y-115030385D01*
X108684182Y-115031210D01*
X108081747Y-115032123D01*
X107523549Y-115033129D01*
X107007920Y-115034232D01*
X106533193Y-115035435D01*
X106097701Y-115036744D01*
X105699779Y-115038163D01*
X105337758Y-115039695D01*
X105009972Y-115041346D01*
X104714754Y-115043118D01*
X104450438Y-115045018D01*
X104215356Y-115047048D01*
X104007843Y-115049213D01*
X103826230Y-115051517D01*
X103668852Y-115053965D01*
X103534041Y-115056561D01*
X103420131Y-115059309D01*
X103325454Y-115062214D01*
X103248345Y-115065279D01*
X103187136Y-115068508D01*
X103140161Y-115071907D01*
X103105752Y-115075479D01*
X103082243Y-115079229D01*
X103067967Y-115083161D01*
X103067237Y-115083457D01*
X102830290Y-115219057D01*
X102642016Y-115405393D01*
X102601839Y-115461635D01*
X102507143Y-115604730D01*
X102507143Y-131390572D01*
X148842617Y-131390572D01*
X148862424Y-131308929D01*
X148864277Y-131265287D01*
X148865990Y-131152433D01*
X148867561Y-130973727D01*
X148868985Y-130732528D01*
X148870257Y-130432195D01*
X148871373Y-130076089D01*
X148872330Y-129667568D01*
X148873123Y-129209992D01*
X148873749Y-128706721D01*
X148874202Y-128161114D01*
X148874478Y-127576530D01*
X148874575Y-126956330D01*
X148874512Y-126492000D01*
X148590705Y-126492000D01*
X147746709Y-126493038D01*
X146902714Y-126494075D01*
X146739429Y-126770239D01*
X146365278Y-127333031D01*
X145937166Y-127851295D01*
X145460404Y-128322380D01*
X144940299Y-128743635D01*
X144382162Y-129112409D01*
X143791301Y-129426051D01*
X143173025Y-129681911D01*
X142532643Y-129877338D01*
X141875465Y-130009682D01*
X141206800Y-130076291D01*
X140531957Y-130074514D01*
X140179356Y-130045574D01*
X139533751Y-129944555D01*
X138912609Y-129784254D01*
X138301794Y-129560436D01*
X137825145Y-129339899D01*
X137203362Y-128988735D01*
X136632800Y-128586566D01*
X136111335Y-128131496D01*
X135841930Y-127842006D01*
X127000000Y-127842006D01*
X127000000Y-130447143D01*
X125485751Y-130447143D01*
X125223915Y-130316152D01*
X125047040Y-130218128D01*
X124929712Y-130123119D01*
X124861635Y-130014424D01*
X124832514Y-129875344D01*
X124832054Y-129689175D01*
X124832455Y-129681128D01*
X124859359Y-129456198D01*
X124917688Y-129287133D01*
X125013216Y-129161915D01*
X125118148Y-129086449D01*
X125246108Y-129013857D01*
X125142474Y-128928737D01*
X125021350Y-128800946D01*
X124954671Y-128653085D01*
X124935517Y-128467206D01*
X124938160Y-128398854D01*
X124977933Y-128181885D01*
X125067891Y-128015257D01*
X125210526Y-127894610D01*
X125233932Y-127881619D01*
X125351931Y-127843497D01*
X125534059Y-127817321D01*
X124677714Y-127817321D01*
X124660094Y-127854463D01*
X124611507Y-127942541D01*
X124538365Y-128070287D01*
X124447079Y-128226431D01*
X124393080Y-128317611D01*
X124278211Y-128512250D01*
X124162152Y-128711535D01*
X124056756Y-128894947D01*
X123973875Y-129041967D01*
X123957651Y-129071381D01*
X123806857Y-129346620D01*
X123806857Y-130410857D01*
X123190000Y-130410857D01*
X123190000Y-129576286D01*
X116262717Y-129576286D01*
X116237851Y-129712357D01*
X116196951Y-129884388D01*
X116139245Y-130013482D01*
X116050745Y-130129219D01*
X116030417Y-130150966D01*
X115822555Y-130316858D01*
X115566989Y-130432542D01*
X115270468Y-130495782D01*
X114959766Y-130505384D01*
X114785389Y-130492163D01*
X114650225Y-130466301D01*
X114521047Y-130419493D01*
X114445553Y-130383643D01*
X113972453Y-130383643D01*
X113939435Y-130396011D01*
X113850557Y-130405440D01*
X113722516Y-130410434D01*
X113669057Y-130410857D01*
X113364685Y-130410857D01*
X113263283Y-130119565D01*
X113161881Y-129828272D01*
X112692218Y-129838350D01*
X112222555Y-129848429D01*
X112122909Y-130120572D01*
X112023264Y-130392714D01*
X111728346Y-130403253D01*
X111573541Y-130405710D01*
X111480366Y-130398704D01*
X111438340Y-130380947D01*
X111433221Y-130366968D01*
X111445290Y-130323277D01*
X111479745Y-130219374D01*
X111533810Y-130063116D01*
X111604708Y-129862359D01*
X111689664Y-129624961D01*
X111785903Y-129358778D01*
X111890648Y-129071669D01*
X111895655Y-129058007D01*
X112358296Y-127795872D01*
X112697350Y-127806150D01*
X113036404Y-127816429D01*
X113503940Y-129086429D01*
X113609656Y-129374229D01*
X113707058Y-129640622D01*
X113793374Y-129877935D01*
X113865833Y-130078494D01*
X113921663Y-130234626D01*
X113958094Y-130338656D01*
X113972353Y-130382910D01*
X113972453Y-130383643D01*
X114445553Y-130383643D01*
X114415481Y-130369363D01*
X114228749Y-130255985D01*
X114105338Y-130128732D01*
X114036001Y-129973201D01*
X114011490Y-129774987D01*
X114011108Y-129739572D01*
X114035285Y-129503742D01*
X114110065Y-129315297D01*
X114239545Y-129165905D01*
X114323269Y-129105027D01*
X114432923Y-129043857D01*
X114529370Y-129004186D01*
X114572201Y-128995714D01*
X114689280Y-128979121D01*
X114847445Y-128935012D01*
X115024787Y-128871893D01*
X115199391Y-128798272D01*
X115349347Y-128722656D01*
X115452072Y-128654129D01*
X115519333Y-128570805D01*
X115521949Y-128484470D01*
X115458894Y-128384553D01*
X115422066Y-128345363D01*
X115355410Y-128285127D01*
X115291295Y-128251559D01*
X115205105Y-128236983D01*
X115072226Y-128233718D01*
X115064157Y-128233714D01*
X114926374Y-128237073D01*
X114837404Y-128251554D01*
X114773629Y-128283766D01*
X114722234Y-128329377D01*
X114658047Y-128415875D01*
X114627082Y-128501439D01*
X114626571Y-128510805D01*
X114622936Y-128553102D01*
X114602246Y-128578557D01*
X114549827Y-128591439D01*
X114451004Y-128596018D01*
X114331750Y-128596572D01*
X114036929Y-128596572D01*
X114060340Y-128479514D01*
X114136334Y-128243558D01*
X114263558Y-128053581D01*
X114447497Y-127903327D01*
X114655129Y-127801149D01*
X114920329Y-127731157D01*
X115184309Y-127731940D01*
X115452874Y-127803799D01*
X115552881Y-127847647D01*
X115714032Y-127930773D01*
X115825222Y-128006304D01*
X115904705Y-128091408D01*
X115970736Y-128203255D01*
X116002637Y-128270653D01*
X116063240Y-128473775D01*
X116074193Y-128688745D01*
X116035382Y-128888725D01*
X116005557Y-128959178D01*
X115905191Y-129088997D01*
X115748110Y-129210913D01*
X115550163Y-129315992D01*
X115327198Y-129395300D01*
X115170857Y-129429709D01*
X114949383Y-129475061D01*
X114792594Y-129530252D01*
X114692810Y-129599673D01*
X114642351Y-129687713D01*
X114633483Y-129736841D01*
X114641025Y-129848162D01*
X114697086Y-129939392D01*
X114717655Y-129960954D01*
X114780765Y-130015493D01*
X114845638Y-130041475D01*
X114939151Y-130046001D01*
X115021545Y-130041276D01*
X115231426Y-129999334D01*
X115394093Y-129904716D01*
X115516475Y-129753066D01*
X115535273Y-129718373D01*
X115607761Y-129576286D01*
X116262717Y-129576286D01*
X123190000Y-129576286D01*
X123190000Y-129414403D01*
X122718286Y-128627402D01*
X122589759Y-128412119D01*
X122474563Y-128217534D01*
X122377700Y-128052228D01*
X122304172Y-127924785D01*
X122258979Y-127843786D01*
X122246572Y-127817983D01*
X122280146Y-127809243D01*
X122370183Y-127804447D01*
X122500651Y-127804173D01*
X122578702Y-127805996D01*
X122910832Y-127816429D01*
X123185402Y-128291797D01*
X123459973Y-128767166D01*
X123734563Y-128291797D01*
X124009153Y-127816429D01*
X124343434Y-127805996D01*
X124489035Y-127803637D01*
X124602546Y-127805959D01*
X124667986Y-127812420D01*
X124677714Y-127817321D01*
X125534059Y-127817321D01*
X125535618Y-127817097D01*
X125779013Y-127802727D01*
X126076137Y-127800696D01*
X126421009Y-127811310D01*
X126510639Y-127815796D01*
X127000000Y-127842006D01*
X135841930Y-127842006D01*
X135636841Y-127621627D01*
X135207192Y-127055064D01*
X135122881Y-126929341D01*
X135028064Y-126782709D01*
X134949882Y-126657598D01*
X134896014Y-126566600D01*
X134874138Y-126522311D01*
X134874000Y-126521127D01*
X134838100Y-126519172D01*
X134731943Y-126517250D01*
X134557844Y-126515366D01*
X134318118Y-126513524D01*
X134015079Y-126511728D01*
X133651041Y-126509983D01*
X133228320Y-126508293D01*
X132749230Y-126506661D01*
X132216085Y-126505093D01*
X131631200Y-126503592D01*
X130996891Y-126502162D01*
X130315471Y-126500808D01*
X129589255Y-126499535D01*
X128820557Y-126498345D01*
X128011694Y-126497244D01*
X127164978Y-126496236D01*
X126282725Y-126495324D01*
X125367249Y-126494514D01*
X124420865Y-126493808D01*
X123445887Y-126493213D01*
X122444631Y-126492731D01*
X121419410Y-126492367D01*
X120372540Y-126492125D01*
X119306335Y-126492010D01*
X118890143Y-126492000D01*
X102906286Y-126492000D01*
X102906286Y-121151314D01*
X102906297Y-120424438D01*
X102906363Y-119766581D01*
X102906532Y-119174188D01*
X102906852Y-118643706D01*
X102907371Y-118171582D01*
X102908136Y-117754261D01*
X102909196Y-117388191D01*
X102910598Y-117069818D01*
X102912391Y-116795588D01*
X102914623Y-116561948D01*
X102917342Y-116365345D01*
X102920594Y-116202225D01*
X102924430Y-116069034D01*
X102928896Y-115962219D01*
X102934041Y-115878227D01*
X102939912Y-115813504D01*
X102946557Y-115764496D01*
X102954025Y-115727650D01*
X102962363Y-115699413D01*
X102971620Y-115676230D01*
X102980461Y-115657401D01*
X103079928Y-115515220D01*
X103176628Y-115446287D01*
X103189079Y-115442335D01*
X103210488Y-115438569D01*
X103242523Y-115434986D01*
X103286849Y-115431583D01*
X103345133Y-115428355D01*
X103419042Y-115425299D01*
X103510243Y-115422411D01*
X103620401Y-115419688D01*
X103751183Y-115417127D01*
X103904256Y-115414723D01*
X104081287Y-115412473D01*
X104283942Y-115410374D01*
X104513886Y-115408421D01*
X104772788Y-115406612D01*
X105062314Y-115404942D01*
X105384129Y-115403409D01*
X105739901Y-115402008D01*
X106131296Y-115400736D01*
X106559981Y-115399589D01*
X107027621Y-115398564D01*
X107535885Y-115397658D01*
X108086437Y-115396865D01*
X108680946Y-115396184D01*
X109321076Y-115395610D01*
X110008495Y-115395140D01*
X110744870Y-115394770D01*
X111531866Y-115394497D01*
X112371151Y-115394317D01*
X113264391Y-115394226D01*
X114213252Y-115394221D01*
X115219401Y-115394299D01*
X116284504Y-115394455D01*
X117410229Y-115394686D01*
X118598241Y-115394988D01*
X119850207Y-115395359D01*
X121167794Y-115395793D01*
X122552667Y-115396289D01*
X124006495Y-115396841D01*
X125530942Y-115397447D01*
X125798563Y-115397556D01*
X148298505Y-115406714D01*
X148571857Y-115680060D01*
X148590705Y-126492000D01*
X148874512Y-126492000D01*
X148874486Y-126303872D01*
X148874209Y-125622515D01*
X148873739Y-124915620D01*
X148873072Y-124186546D01*
X148872204Y-123438653D01*
X148872187Y-123425857D01*
X148862143Y-115624429D01*
X148780835Y-115472317D01*
X148642653Y-115288602D01*
X148447607Y-115141109D01*
X148326141Y-115081266D01*
X148311890Y-115077461D01*
X148286672Y-115073832D01*
X148248834Y-115070375D01*
X148196723Y-115067084D01*
X148128688Y-115063957D01*
X148043074Y-115060988D01*
X147938231Y-115058175D01*
X147812504Y-115055513D01*
X147664242Y-115052997D01*
X147491791Y-115050624D01*
X147293500Y-115048391D01*
X147067716Y-115046291D01*
X146812786Y-115044323D01*
X146527057Y-115042481D01*
X146208877Y-115040762D01*
X145856593Y-115039161D01*
X145468553Y-115037675D01*
X145043104Y-115036299D01*
X144578593Y-115035030D01*
X144073368Y-115033862D01*
X143525777Y-115032793D01*
X142934166Y-115031818D01*
X142296883Y-115030934D01*
X141612275Y-115030135D01*
X140878691Y-115029418D01*
X140094476Y-115028779D01*
X139257979Y-115028214D01*
X138367547Y-115027719D01*
X137421528Y-115027290D01*
X136418268Y-115026922D01*
X135356115Y-115026612D01*
X134233417Y-115026356D01*
X133048521Y-115026149D01*
X131799775Y-115025988D01*
X130485525Y-115025868D01*
X129104119Y-115025785D01*
X127653905Y-115025736D01*
X126133230Y-115025715D01*
X125699311Y-115025715D01*
X124162419Y-115025725D01*
X124162419Y-115025725D01*
G37*
X124162419Y-115025725D02*
X122696431Y-115025761D01*
X121299681Y-115025825D01*
X119970502Y-115025922D01*
X118707228Y-115026056D01*
X117508190Y-115026232D01*
X116371724Y-115026454D01*
X115296161Y-115026726D01*
X114279835Y-115027051D01*
X113321080Y-115027436D01*
X112418228Y-115027883D01*
X111569613Y-115028398D01*
X110773567Y-115028983D01*
X110028425Y-115029644D01*
X109332518Y-115030385D01*
X108684182Y-115031210D01*
X108081747Y-115032123D01*
X107523549Y-115033129D01*
X107007920Y-115034232D01*
X106533193Y-115035435D01*
X106097701Y-115036744D01*
X105699779Y-115038163D01*
X105337758Y-115039695D01*
X105009972Y-115041346D01*
X104714754Y-115043118D01*
X104450438Y-115045018D01*
X104215356Y-115047048D01*
X104007843Y-115049213D01*
X103826230Y-115051517D01*
X103668852Y-115053965D01*
X103534041Y-115056561D01*
X103420131Y-115059309D01*
X103325454Y-115062214D01*
X103248345Y-115065279D01*
X103187136Y-115068508D01*
X103140161Y-115071907D01*
X103105752Y-115075479D01*
X103082243Y-115079229D01*
X103067967Y-115083161D01*
X103067237Y-115083457D01*
X102830290Y-115219057D01*
X102642016Y-115405393D01*
X102601839Y-115461635D01*
X102507143Y-115604730D01*
X102507143Y-131390572D01*
X148842617Y-131390572D01*
X148862424Y-131308929D01*
X148864277Y-131265287D01*
X148865990Y-131152433D01*
X148867561Y-130973727D01*
X148868985Y-130732528D01*
X148870257Y-130432195D01*
X148871373Y-130076089D01*
X148872330Y-129667568D01*
X148873123Y-129209992D01*
X148873749Y-128706721D01*
X148874202Y-128161114D01*
X148874478Y-127576530D01*
X148874575Y-126956330D01*
X148874512Y-126492000D01*
X148590705Y-126492000D01*
X147746709Y-126493038D01*
X146902714Y-126494075D01*
X146739429Y-126770239D01*
X146365278Y-127333031D01*
X145937166Y-127851295D01*
X145460404Y-128322380D01*
X144940299Y-128743635D01*
X144382162Y-129112409D01*
X143791301Y-129426051D01*
X143173025Y-129681911D01*
X142532643Y-129877338D01*
X141875465Y-130009682D01*
X141206800Y-130076291D01*
X140531957Y-130074514D01*
X140179356Y-130045574D01*
X139533751Y-129944555D01*
X138912609Y-129784254D01*
X138301794Y-129560436D01*
X137825145Y-129339899D01*
X137203362Y-128988735D01*
X136632800Y-128586566D01*
X136111335Y-128131496D01*
X135841930Y-127842006D01*
X127000000Y-127842006D01*
X127000000Y-130447143D01*
X125485751Y-130447143D01*
X125223915Y-130316152D01*
X125047040Y-130218128D01*
X124929712Y-130123119D01*
X124861635Y-130014424D01*
X124832514Y-129875344D01*
X124832054Y-129689175D01*
X124832455Y-129681128D01*
X124859359Y-129456198D01*
X124917688Y-129287133D01*
X125013216Y-129161915D01*
X125118148Y-129086449D01*
X125246108Y-129013857D01*
X125142474Y-128928737D01*
X125021350Y-128800946D01*
X124954671Y-128653085D01*
X124935517Y-128467206D01*
X124938160Y-128398854D01*
X124977933Y-128181885D01*
X125067891Y-128015257D01*
X125210526Y-127894610D01*
X125233932Y-127881619D01*
X125351931Y-127843497D01*
X125534059Y-127817321D01*
X124677714Y-127817321D01*
X124660094Y-127854463D01*
X124611507Y-127942541D01*
X124538365Y-128070287D01*
X124447079Y-128226431D01*
X124393080Y-128317611D01*
X124278211Y-128512250D01*
X124162152Y-128711535D01*
X124056756Y-128894947D01*
X123973875Y-129041967D01*
X123957651Y-129071381D01*
X123806857Y-129346620D01*
X123806857Y-130410857D01*
X123190000Y-130410857D01*
X123190000Y-129576286D01*
X116262717Y-129576286D01*
X116237851Y-129712357D01*
X116196951Y-129884388D01*
X116139245Y-130013482D01*
X116050745Y-130129219D01*
X116030417Y-130150966D01*
X115822555Y-130316858D01*
X115566989Y-130432542D01*
X115270468Y-130495782D01*
X114959766Y-130505384D01*
X114785389Y-130492163D01*
X114650225Y-130466301D01*
X114521047Y-130419493D01*
X114445553Y-130383643D01*
X113972453Y-130383643D01*
X113939435Y-130396011D01*
X113850557Y-130405440D01*
X113722516Y-130410434D01*
X113669057Y-130410857D01*
X113364685Y-130410857D01*
X113263283Y-130119565D01*
X113161881Y-129828272D01*
X112692218Y-129838350D01*
X112222555Y-129848429D01*
X112122909Y-130120572D01*
X112023264Y-130392714D01*
X111728346Y-130403253D01*
X111573541Y-130405710D01*
X111480366Y-130398704D01*
X111438340Y-130380947D01*
X111433221Y-130366968D01*
X111445290Y-130323277D01*
X111479745Y-130219374D01*
X111533810Y-130063116D01*
X111604708Y-129862359D01*
X111689664Y-129624961D01*
X111785903Y-129358778D01*
X111890648Y-129071669D01*
X111895655Y-129058007D01*
X112358296Y-127795872D01*
X112697350Y-127806150D01*
X113036404Y-127816429D01*
X113503940Y-129086429D01*
X113609656Y-129374229D01*
X113707058Y-129640622D01*
X113793374Y-129877935D01*
X113865833Y-130078494D01*
X113921663Y-130234626D01*
X113958094Y-130338656D01*
X113972353Y-130382910D01*
X113972453Y-130383643D01*
X114445553Y-130383643D01*
X114415481Y-130369363D01*
X114228749Y-130255985D01*
X114105338Y-130128732D01*
X114036001Y-129973201D01*
X114011490Y-129774987D01*
X114011108Y-129739572D01*
X114035285Y-129503742D01*
X114110065Y-129315297D01*
X114239545Y-129165905D01*
X114323269Y-129105027D01*
X114432923Y-129043857D01*
X114529370Y-129004186D01*
X114572201Y-128995714D01*
X114689280Y-128979121D01*
X114847445Y-128935012D01*
X115024787Y-128871893D01*
X115199391Y-128798272D01*
X115349347Y-128722656D01*
X115452072Y-128654129D01*
X115519333Y-128570805D01*
X115521949Y-128484470D01*
X115458894Y-128384553D01*
X115422066Y-128345363D01*
X115355410Y-128285127D01*
X115291295Y-128251559D01*
X115205105Y-128236983D01*
X115072226Y-128233718D01*
X115064157Y-128233714D01*
X114926374Y-128237073D01*
X114837404Y-128251554D01*
X114773629Y-128283766D01*
X114722234Y-128329377D01*
X114658047Y-128415875D01*
X114627082Y-128501439D01*
X114626571Y-128510805D01*
X114622936Y-128553102D01*
X114602246Y-128578557D01*
X114549827Y-128591439D01*
X114451004Y-128596018D01*
X114331750Y-128596572D01*
X114036929Y-128596572D01*
X114060340Y-128479514D01*
X114136334Y-128243558D01*
X114263558Y-128053581D01*
X114447497Y-127903327D01*
X114655129Y-127801149D01*
X114920329Y-127731157D01*
X115184309Y-127731940D01*
X115452874Y-127803799D01*
X115552881Y-127847647D01*
X115714032Y-127930773D01*
X115825222Y-128006304D01*
X115904705Y-128091408D01*
X115970736Y-128203255D01*
X116002637Y-128270653D01*
X116063240Y-128473775D01*
X116074193Y-128688745D01*
X116035382Y-128888725D01*
X116005557Y-128959178D01*
X115905191Y-129088997D01*
X115748110Y-129210913D01*
X115550163Y-129315992D01*
X115327198Y-129395300D01*
X115170857Y-129429709D01*
X114949383Y-129475061D01*
X114792594Y-129530252D01*
X114692810Y-129599673D01*
X114642351Y-129687713D01*
X114633483Y-129736841D01*
X114641025Y-129848162D01*
X114697086Y-129939392D01*
X114717655Y-129960954D01*
X114780765Y-130015493D01*
X114845638Y-130041475D01*
X114939151Y-130046001D01*
X115021545Y-130041276D01*
X115231426Y-129999334D01*
X115394093Y-129904716D01*
X115516475Y-129753066D01*
X115535273Y-129718373D01*
X115607761Y-129576286D01*
X116262717Y-129576286D01*
X123190000Y-129576286D01*
X123190000Y-129414403D01*
X122718286Y-128627402D01*
X122589759Y-128412119D01*
X122474563Y-128217534D01*
X122377700Y-128052228D01*
X122304172Y-127924785D01*
X122258979Y-127843786D01*
X122246572Y-127817983D01*
X122280146Y-127809243D01*
X122370183Y-127804447D01*
X122500651Y-127804173D01*
X122578702Y-127805996D01*
X122910832Y-127816429D01*
X123185402Y-128291797D01*
X123459973Y-128767166D01*
X123734563Y-128291797D01*
X124009153Y-127816429D01*
X124343434Y-127805996D01*
X124489035Y-127803637D01*
X124602546Y-127805959D01*
X124667986Y-127812420D01*
X124677714Y-127817321D01*
X125534059Y-127817321D01*
X125535618Y-127817097D01*
X125779013Y-127802727D01*
X126076137Y-127800696D01*
X126421009Y-127811310D01*
X126510639Y-127815796D01*
X127000000Y-127842006D01*
X135841930Y-127842006D01*
X135636841Y-127621627D01*
X135207192Y-127055064D01*
X135122881Y-126929341D01*
X135028064Y-126782709D01*
X134949882Y-126657598D01*
X134896014Y-126566600D01*
X134874138Y-126522311D01*
X134874000Y-126521127D01*
X134838100Y-126519172D01*
X134731943Y-126517250D01*
X134557844Y-126515366D01*
X134318118Y-126513524D01*
X134015079Y-126511728D01*
X133651041Y-126509983D01*
X133228320Y-126508293D01*
X132749230Y-126506661D01*
X132216085Y-126505093D01*
X131631200Y-126503592D01*
X130996891Y-126502162D01*
X130315471Y-126500808D01*
X129589255Y-126499535D01*
X128820557Y-126498345D01*
X128011694Y-126497244D01*
X127164978Y-126496236D01*
X126282725Y-126495324D01*
X125367249Y-126494514D01*
X124420865Y-126493808D01*
X123445887Y-126493213D01*
X122444631Y-126492731D01*
X121419410Y-126492367D01*
X120372540Y-126492125D01*
X119306335Y-126492010D01*
X118890143Y-126492000D01*
X102906286Y-126492000D01*
X102906286Y-121151314D01*
X102906297Y-120424438D01*
X102906363Y-119766581D01*
X102906532Y-119174188D01*
X102906852Y-118643706D01*
X102907371Y-118171582D01*
X102908136Y-117754261D01*
X102909196Y-117388191D01*
X102910598Y-117069818D01*
X102912391Y-116795588D01*
X102914623Y-116561948D01*
X102917342Y-116365345D01*
X102920594Y-116202225D01*
X102924430Y-116069034D01*
X102928896Y-115962219D01*
X102934041Y-115878227D01*
X102939912Y-115813504D01*
X102946557Y-115764496D01*
X102954025Y-115727650D01*
X102962363Y-115699413D01*
X102971620Y-115676230D01*
X102980461Y-115657401D01*
X103079928Y-115515220D01*
X103176628Y-115446287D01*
X103189079Y-115442335D01*
X103210488Y-115438569D01*
X103242523Y-115434986D01*
X103286849Y-115431583D01*
X103345133Y-115428355D01*
X103419042Y-115425299D01*
X103510243Y-115422411D01*
X103620401Y-115419688D01*
X103751183Y-115417127D01*
X103904256Y-115414723D01*
X104081287Y-115412473D01*
X104283942Y-115410374D01*
X104513886Y-115408421D01*
X104772788Y-115406612D01*
X105062314Y-115404942D01*
X105384129Y-115403409D01*
X105739901Y-115402008D01*
X106131296Y-115400736D01*
X106559981Y-115399589D01*
X107027621Y-115398564D01*
X107535885Y-115397658D01*
X108086437Y-115396865D01*
X108680946Y-115396184D01*
X109321076Y-115395610D01*
X110008495Y-115395140D01*
X110744870Y-115394770D01*
X111531866Y-115394497D01*
X112371151Y-115394317D01*
X113264391Y-115394226D01*
X114213252Y-115394221D01*
X115219401Y-115394299D01*
X116284504Y-115394455D01*
X117410229Y-115394686D01*
X118598241Y-115394988D01*
X119850207Y-115395359D01*
X121167794Y-115395793D01*
X122552667Y-115396289D01*
X124006495Y-115396841D01*
X125530942Y-115397447D01*
X125798563Y-115397556D01*
X148298505Y-115406714D01*
X148571857Y-115680060D01*
X148590705Y-126492000D01*
X148874512Y-126492000D01*
X148874486Y-126303872D01*
X148874209Y-125622515D01*
X148873739Y-124915620D01*
X148873072Y-124186546D01*
X148872204Y-123438653D01*
X148872187Y-123425857D01*
X148862143Y-115624429D01*
X148780835Y-115472317D01*
X148642653Y-115288602D01*
X148447607Y-115141109D01*
X148326141Y-115081266D01*
X148311890Y-115077461D01*
X148286672Y-115073832D01*
X148248834Y-115070375D01*
X148196723Y-115067084D01*
X148128688Y-115063957D01*
X148043074Y-115060988D01*
X147938231Y-115058175D01*
X147812504Y-115055513D01*
X147664242Y-115052997D01*
X147491791Y-115050624D01*
X147293500Y-115048391D01*
X147067716Y-115046291D01*
X146812786Y-115044323D01*
X146527057Y-115042481D01*
X146208877Y-115040762D01*
X145856593Y-115039161D01*
X145468553Y-115037675D01*
X145043104Y-115036299D01*
X144578593Y-115035030D01*
X144073368Y-115033862D01*
X143525777Y-115032793D01*
X142934166Y-115031818D01*
X142296883Y-115030934D01*
X141612275Y-115030135D01*
X140878691Y-115029418D01*
X140094476Y-115028779D01*
X139257979Y-115028214D01*
X138367547Y-115027719D01*
X137421528Y-115027290D01*
X136418268Y-115026922D01*
X135356115Y-115026612D01*
X134233417Y-115026356D01*
X133048521Y-115026149D01*
X131799775Y-115025988D01*
X130485525Y-115025868D01*
X129104119Y-115025785D01*
X127653905Y-115025736D01*
X126133230Y-115025715D01*
X125699311Y-115025715D01*
X124162419Y-115025725D01*
G36*
X125821528Y-129253141D02*
X125675386Y-129262345D01*
X125568990Y-129275709D01*
X125534689Y-129284381D01*
X125419716Y-129361273D01*
X125354575Y-129473083D01*
X125340953Y-129600427D01*
X125380537Y-129723923D01*
X125475014Y-129824186D01*
X125487040Y-129831881D01*
X125556172Y-129865801D01*
X125640706Y-129887183D01*
X125758285Y-129898590D01*
X125926556Y-129902582D01*
X125974929Y-129902722D01*
X126346857Y-129902857D01*
X126346857Y-129249714D01*
X125986362Y-129249714D01*
X125821528Y-129253141D01*
X125821528Y-129253141D01*
G37*
X125821528Y-129253141D02*
X125675386Y-129262345D01*
X125568990Y-129275709D01*
X125534689Y-129284381D01*
X125419716Y-129361273D01*
X125354575Y-129473083D01*
X125340953Y-129600427D01*
X125380537Y-129723923D01*
X125475014Y-129824186D01*
X125487040Y-129831881D01*
X125556172Y-129865801D01*
X125640706Y-129887183D01*
X125758285Y-129898590D01*
X125926556Y-129902582D01*
X125974929Y-129902722D01*
X126346857Y-129902857D01*
X126346857Y-129249714D01*
X125986362Y-129249714D01*
X125821528Y-129253141D01*
G36*
X125804561Y-128240884D02*
X125656436Y-128265139D01*
X125551970Y-128310599D01*
X125477291Y-128381385D01*
X125467484Y-128394897D01*
X125440587Y-128487523D01*
X125454453Y-128600073D01*
X125503859Y-128696333D01*
X125512286Y-128705429D01*
X125553962Y-128738552D01*
X125609644Y-128759881D01*
X125694857Y-128771899D01*
X125825125Y-128777091D01*
X125965857Y-128778000D01*
X126346857Y-128778000D01*
X126346857Y-128233714D01*
X126010217Y-128233714D01*
X125804561Y-128240884D01*
X125804561Y-128240884D01*
G37*
X125804561Y-128240884D02*
X125656436Y-128265139D01*
X125551970Y-128310599D01*
X125477291Y-128381385D01*
X125467484Y-128394897D01*
X125440587Y-128487523D01*
X125454453Y-128600073D01*
X125503859Y-128696333D01*
X125512286Y-128705429D01*
X125553962Y-128738552D01*
X125609644Y-128759881D01*
X125694857Y-128771899D01*
X125825125Y-128777091D01*
X125965857Y-128778000D01*
X126346857Y-128778000D01*
X126346857Y-128233714D01*
X126010217Y-128233714D01*
X125804561Y-128240884D01*
G36*
X112697702Y-128569591D02*
X112660413Y-128641816D01*
X112608121Y-128770211D01*
X112543481Y-128948026D01*
X112469148Y-129168510D01*
X112428975Y-129293281D01*
X112425228Y-129325753D01*
X112448275Y-129345271D01*
X112511443Y-129355061D01*
X112628056Y-129358352D01*
X112698582Y-129358572D01*
X112988912Y-129358572D01*
X112864179Y-128986643D01*
X112810895Y-128828787D01*
X112764502Y-128693224D01*
X112730817Y-128596845D01*
X112717332Y-128560286D01*
X112697702Y-128569591D01*
X112697702Y-128569591D01*
G37*
X112697702Y-128569591D02*
X112660413Y-128641816D01*
X112608121Y-128770211D01*
X112543481Y-128948026D01*
X112469148Y-129168510D01*
X112428975Y-129293281D01*
X112425228Y-129325753D01*
X112448275Y-129345271D01*
X112511443Y-129355061D01*
X112628056Y-129358352D01*
X112698582Y-129358572D01*
X112988912Y-129358572D01*
X112864179Y-128986643D01*
X112810895Y-128828787D01*
X112764502Y-128693224D01*
X112730817Y-128596845D01*
X112717332Y-128560286D01*
X112697702Y-128569591D01*
G36*
X140434702Y-116645838D02*
X140118794Y-116658273D01*
X139842820Y-116681453D01*
X139590610Y-116717469D01*
X139345994Y-116768411D01*
X139092801Y-116836370D01*
X138938000Y-116883663D01*
X138390831Y-117093733D01*
X137862564Y-117369196D01*
X137359291Y-117704011D01*
X136887103Y-118092139D01*
X136452089Y-118527540D01*
X136060342Y-119004176D01*
X135717951Y-119516006D01*
X135431008Y-120056991D01*
X135224466Y-120565924D01*
X135051773Y-121162118D01*
X134938324Y-121780769D01*
X134883844Y-122411495D01*
X134888055Y-123043912D01*
X134950681Y-123667638D01*
X135071443Y-124272291D01*
X135250065Y-124847486D01*
X135345030Y-125084192D01*
X135564553Y-125542630D01*
X135814723Y-125964069D01*
X136106866Y-126364896D01*
X136452306Y-126761501D01*
X136632536Y-126947346D01*
X137119217Y-127393734D01*
X137620612Y-127771266D01*
X138142754Y-128083138D01*
X138691678Y-128332544D01*
X139273417Y-128522681D01*
X139845143Y-128648416D01*
X140061404Y-128677616D01*
X140327154Y-128700575D01*
X140621138Y-128716615D01*
X140922102Y-128725061D01*
X141208793Y-128725236D01*
X141459956Y-128716463D01*
X141605000Y-128704439D01*
X142245694Y-128599085D01*
X142853588Y-128431174D01*
X143431691Y-128199208D01*
X143983010Y-127901689D01*
X144510555Y-127537119D01*
X145017333Y-127104001D01*
X145222689Y-126903342D01*
X145404538Y-126716888D01*
X145548029Y-126563243D01*
X145667291Y-126425101D01*
X145776456Y-126285156D01*
X145889655Y-126126103D01*
X146021019Y-125930637D01*
X146038209Y-125904617D01*
X146361482Y-125350925D01*
X146617542Y-124770794D01*
X146807452Y-124161564D01*
X146891985Y-123770572D01*
X146935561Y-123452928D01*
X146962178Y-123087453D01*
X146971843Y-122696875D01*
X146971568Y-122682000D01*
X145843224Y-122682000D01*
X145813447Y-123283507D01*
X145723706Y-123846074D01*
X145572065Y-124374344D01*
X145356589Y-124872957D01*
X145075342Y-125346554D01*
X144726389Y-125799776D01*
X144396464Y-126151507D01*
X143932126Y-126567885D01*
X143454130Y-126914293D01*
X142958875Y-127192635D01*
X142442761Y-127404813D01*
X141902186Y-127552728D01*
X141659429Y-127597347D01*
X141367715Y-127630129D01*
X141032743Y-127645953D01*
X140681810Y-127644834D01*
X140342216Y-127626783D01*
X140072077Y-127596556D01*
X139510773Y-127476840D01*
X138968919Y-127288034D01*
X138449462Y-127031716D01*
X137955349Y-126709465D01*
X137489527Y-126322862D01*
X137244400Y-126081226D01*
X136858459Y-125626953D01*
X136536455Y-125139809D01*
X136279212Y-124622754D01*
X136087558Y-124078749D01*
X135962319Y-123510753D01*
X135904321Y-122921726D01*
X135914391Y-122314627D01*
X135993354Y-121692416D01*
X136003639Y-121636979D01*
X136147298Y-121072767D01*
X136356969Y-120533442D01*
X136628902Y-120023895D01*
X136959349Y-119549019D01*
X137344558Y-119113705D01*
X137780779Y-118722847D01*
X138264263Y-118381335D01*
X138676638Y-118149915D01*
X139119200Y-117953169D01*
X139563424Y-117809919D01*
X140025438Y-117716560D01*
X140521370Y-117669491D01*
X140861143Y-117661989D01*
X141376352Y-117682407D01*
X141846814Y-117743885D01*
X142290183Y-117850433D01*
X142724114Y-118006061D01*
X143063889Y-118162349D01*
X143401482Y-118347632D01*
X143711977Y-118554785D01*
X144012894Y-118797060D01*
X144321755Y-119087708D01*
X144420839Y-119188653D01*
X144822934Y-119645987D01*
X145154956Y-120115174D01*
X145419122Y-120601655D01*
X145617648Y-121110871D01*
X145752749Y-121648265D01*
X145826641Y-122219279D01*
X145843224Y-122682000D01*
X146971568Y-122682000D01*
X146964562Y-122303925D01*
X146940343Y-121931331D01*
X146899190Y-121601822D01*
X146891357Y-121556407D01*
X146744377Y-120926559D01*
X146535590Y-120330968D01*
X146263026Y-119765777D01*
X145924715Y-119227125D01*
X145518685Y-118711156D01*
X145333864Y-118507057D01*
X144853787Y-118046268D01*
X144340714Y-117648928D01*
X143796446Y-117316119D01*
X143222782Y-117048926D01*
X142621521Y-116848433D01*
X142548429Y-116829120D01*
X142298904Y-116768104D01*
X142074711Y-116721517D01*
X141859118Y-116687562D01*
X141635391Y-116664443D01*
X141386798Y-116650361D01*
X141096606Y-116643521D01*
X140806714Y-116642057D01*
X140434702Y-116645838D01*
X140434702Y-116645838D01*
G37*
X140434702Y-116645838D02*
X140118794Y-116658273D01*
X139842820Y-116681453D01*
X139590610Y-116717469D01*
X139345994Y-116768411D01*
X139092801Y-116836370D01*
X138938000Y-116883663D01*
X138390831Y-117093733D01*
X137862564Y-117369196D01*
X137359291Y-117704011D01*
X136887103Y-118092139D01*
X136452089Y-118527540D01*
X136060342Y-119004176D01*
X135717951Y-119516006D01*
X135431008Y-120056991D01*
X135224466Y-120565924D01*
X135051773Y-121162118D01*
X134938324Y-121780769D01*
X134883844Y-122411495D01*
X134888055Y-123043912D01*
X134950681Y-123667638D01*
X135071443Y-124272291D01*
X135250065Y-124847486D01*
X135345030Y-125084192D01*
X135564553Y-125542630D01*
X135814723Y-125964069D01*
X136106866Y-126364896D01*
X136452306Y-126761501D01*
X136632536Y-126947346D01*
X137119217Y-127393734D01*
X137620612Y-127771266D01*
X138142754Y-128083138D01*
X138691678Y-128332544D01*
X139273417Y-128522681D01*
X139845143Y-128648416D01*
X140061404Y-128677616D01*
X140327154Y-128700575D01*
X140621138Y-128716615D01*
X140922102Y-128725061D01*
X141208793Y-128725236D01*
X141459956Y-128716463D01*
X141605000Y-128704439D01*
X142245694Y-128599085D01*
X142853588Y-128431174D01*
X143431691Y-128199208D01*
X143983010Y-127901689D01*
X144510555Y-127537119D01*
X145017333Y-127104001D01*
X145222689Y-126903342D01*
X145404538Y-126716888D01*
X145548029Y-126563243D01*
X145667291Y-126425101D01*
X145776456Y-126285156D01*
X145889655Y-126126103D01*
X146021019Y-125930637D01*
X146038209Y-125904617D01*
X146361482Y-125350925D01*
X146617542Y-124770794D01*
X146807452Y-124161564D01*
X146891985Y-123770572D01*
X146935561Y-123452928D01*
X146962178Y-123087453D01*
X146971843Y-122696875D01*
X146971568Y-122682000D01*
X145843224Y-122682000D01*
X145813447Y-123283507D01*
X145723706Y-123846074D01*
X145572065Y-124374344D01*
X145356589Y-124872957D01*
X145075342Y-125346554D01*
X144726389Y-125799776D01*
X144396464Y-126151507D01*
X143932126Y-126567885D01*
X143454130Y-126914293D01*
X142958875Y-127192635D01*
X142442761Y-127404813D01*
X141902186Y-127552728D01*
X141659429Y-127597347D01*
X141367715Y-127630129D01*
X141032743Y-127645953D01*
X140681810Y-127644834D01*
X140342216Y-127626783D01*
X140072077Y-127596556D01*
X139510773Y-127476840D01*
X138968919Y-127288034D01*
X138449462Y-127031716D01*
X137955349Y-126709465D01*
X137489527Y-126322862D01*
X137244400Y-126081226D01*
X136858459Y-125626953D01*
X136536455Y-125139809D01*
X136279212Y-124622754D01*
X136087558Y-124078749D01*
X135962319Y-123510753D01*
X135904321Y-122921726D01*
X135914391Y-122314627D01*
X135993354Y-121692416D01*
X136003639Y-121636979D01*
X136147298Y-121072767D01*
X136356969Y-120533442D01*
X136628902Y-120023895D01*
X136959349Y-119549019D01*
X137344558Y-119113705D01*
X137780779Y-118722847D01*
X138264263Y-118381335D01*
X138676638Y-118149915D01*
X139119200Y-117953169D01*
X139563424Y-117809919D01*
X140025438Y-117716560D01*
X140521370Y-117669491D01*
X140861143Y-117661989D01*
X141376352Y-117682407D01*
X141846814Y-117743885D01*
X142290183Y-117850433D01*
X142724114Y-118006061D01*
X143063889Y-118162349D01*
X143401482Y-118347632D01*
X143711977Y-118554785D01*
X144012894Y-118797060D01*
X144321755Y-119087708D01*
X144420839Y-119188653D01*
X144822934Y-119645987D01*
X145154956Y-120115174D01*
X145419122Y-120601655D01*
X145617648Y-121110871D01*
X145752749Y-121648265D01*
X145826641Y-122219279D01*
X145843224Y-122682000D01*
X146971568Y-122682000D01*
X146964562Y-122303925D01*
X146940343Y-121931331D01*
X146899190Y-121601822D01*
X146891357Y-121556407D01*
X146744377Y-120926559D01*
X146535590Y-120330968D01*
X146263026Y-119765777D01*
X145924715Y-119227125D01*
X145518685Y-118711156D01*
X145333864Y-118507057D01*
X144853787Y-118046268D01*
X144340714Y-117648928D01*
X143796446Y-117316119D01*
X143222782Y-117048926D01*
X142621521Y-116848433D01*
X142548429Y-116829120D01*
X142298904Y-116768104D01*
X142074711Y-116721517D01*
X141859118Y-116687562D01*
X141635391Y-116664443D01*
X141386798Y-116650361D01*
X141096606Y-116643521D01*
X140806714Y-116642057D01*
X140434702Y-116645838D01*
G36*
X123883543Y-116399905D02*
X123338274Y-116493288D01*
X122827110Y-116647827D01*
X122352971Y-116862621D01*
X121918773Y-117136772D01*
X121883714Y-117162849D01*
X121691364Y-117321765D01*
X121476646Y-117522343D01*
X121255335Y-117747818D01*
X121043204Y-117981422D01*
X120856029Y-118206389D01*
X120709582Y-118405953D01*
X120698809Y-118422293D01*
X120433654Y-118894617D01*
X120229815Y-119400326D01*
X120088227Y-119932549D01*
X120009824Y-120484414D01*
X119995542Y-121049049D01*
X120046314Y-121619582D01*
X120163077Y-122189142D01*
X120178638Y-122246572D01*
X120343380Y-122709675D01*
X120573099Y-123156791D01*
X120860723Y-123580650D01*
X121199183Y-123973979D01*
X121581409Y-124329507D01*
X122000330Y-124639961D01*
X122448875Y-124898070D01*
X122919976Y-125096561D01*
X122964212Y-125111576D01*
X123149431Y-125168815D01*
X123350746Y-125224255D01*
X123529467Y-125267348D01*
X123556110Y-125272950D01*
X123769247Y-125305926D01*
X124030154Y-125330381D01*
X124314424Y-125345355D01*
X124597650Y-125349891D01*
X124855426Y-125343032D01*
X125014366Y-125330180D01*
X125545140Y-125233104D01*
X126061230Y-125066354D01*
X126558526Y-124832054D01*
X127032916Y-124532328D01*
X127480286Y-124169300D01*
X127727318Y-123928960D01*
X128090411Y-123505863D01*
X128386396Y-123058830D01*
X128616431Y-122584914D01*
X128781676Y-122081168D01*
X128883291Y-121544643D01*
X128922436Y-120972395D01*
X128922902Y-120904000D01*
X128160392Y-120904000D01*
X128131675Y-121396234D01*
X128044116Y-121854317D01*
X127894864Y-122285125D01*
X127681064Y-122695532D01*
X127399864Y-123092415D01*
X127120992Y-123408418D01*
X126727883Y-123775315D01*
X126318206Y-124072833D01*
X125888081Y-124303049D01*
X125433635Y-124468036D01*
X124950988Y-124569870D01*
X124950872Y-124569886D01*
X124703583Y-124590047D01*
X124413501Y-124589783D01*
X124106967Y-124570740D01*
X123810320Y-124534565D01*
X123549901Y-124482903D01*
X123546909Y-124482146D01*
X123065581Y-124323449D01*
X122611958Y-124101086D01*
X122192789Y-123820525D01*
X121814824Y-123487235D01*
X121484815Y-123106682D01*
X121209511Y-122684335D01*
X121122937Y-122518714D01*
X120988973Y-122218295D01*
X120891742Y-121931540D01*
X120825911Y-121635959D01*
X120786150Y-121309059D01*
X120770273Y-121031000D01*
X120776921Y-120502292D01*
X120838854Y-120016626D01*
X120958456Y-119567370D01*
X121138105Y-119147889D01*
X121380185Y-118751551D01*
X121687076Y-118371724D01*
X121748729Y-118305287D01*
X122029281Y-118027783D01*
X122299311Y-117803052D01*
X122577076Y-117617244D01*
X122845286Y-117473536D01*
X123094590Y-117359933D01*
X123321233Y-117275173D01*
X123543569Y-117215484D01*
X123779952Y-117177090D01*
X124048735Y-117156220D01*
X124368272Y-117149098D01*
X124423714Y-117148982D01*
X124670079Y-117150231D01*
X124860282Y-117154936D01*
X125010706Y-117164531D01*
X125137730Y-117180451D01*
X125257738Y-117204130D01*
X125367143Y-117231612D01*
X125822818Y-117390130D01*
X126259280Y-117612856D01*
X126668610Y-117892385D01*
X127042891Y-118221309D01*
X127374202Y-118592225D01*
X127654626Y-118997726D01*
X127876242Y-119430406D01*
X127964620Y-119660762D01*
X128049984Y-119934813D01*
X128107911Y-120184668D01*
X128142619Y-120437115D01*
X128158325Y-120718938D01*
X128160392Y-120904000D01*
X128922902Y-120904000D01*
X128922997Y-120890176D01*
X128890824Y-120297172D01*
X128794389Y-119737738D01*
X128633260Y-119210909D01*
X128407003Y-118715722D01*
X128115185Y-118251212D01*
X127757373Y-117816415D01*
X127376319Y-117447746D01*
X126940097Y-117105243D01*
X126490252Y-116831003D01*
X126020301Y-116622626D01*
X125523757Y-116477712D01*
X124994138Y-116393862D01*
X124460000Y-116368578D01*
X123883543Y-116399905D01*
X123883543Y-116399905D01*
G37*
X123883543Y-116399905D02*
X123338274Y-116493288D01*
X122827110Y-116647827D01*
X122352971Y-116862621D01*
X121918773Y-117136772D01*
X121883714Y-117162849D01*
X121691364Y-117321765D01*
X121476646Y-117522343D01*
X121255335Y-117747818D01*
X121043204Y-117981422D01*
X120856029Y-118206389D01*
X120709582Y-118405953D01*
X120698809Y-118422293D01*
X120433654Y-118894617D01*
X120229815Y-119400326D01*
X120088227Y-119932549D01*
X120009824Y-120484414D01*
X119995542Y-121049049D01*
X120046314Y-121619582D01*
X120163077Y-122189142D01*
X120178638Y-122246572D01*
X120343380Y-122709675D01*
X120573099Y-123156791D01*
X120860723Y-123580650D01*
X121199183Y-123973979D01*
X121581409Y-124329507D01*
X122000330Y-124639961D01*
X122448875Y-124898070D01*
X122919976Y-125096561D01*
X122964212Y-125111576D01*
X123149431Y-125168815D01*
X123350746Y-125224255D01*
X123529467Y-125267348D01*
X123556110Y-125272950D01*
X123769247Y-125305926D01*
X124030154Y-125330381D01*
X124314424Y-125345355D01*
X124597650Y-125349891D01*
X124855426Y-125343032D01*
X125014366Y-125330180D01*
X125545140Y-125233104D01*
X126061230Y-125066354D01*
X126558526Y-124832054D01*
X127032916Y-124532328D01*
X127480286Y-124169300D01*
X127727318Y-123928960D01*
X128090411Y-123505863D01*
X128386396Y-123058830D01*
X128616431Y-122584914D01*
X128781676Y-122081168D01*
X128883291Y-121544643D01*
X128922436Y-120972395D01*
X128922902Y-120904000D01*
X128160392Y-120904000D01*
X128131675Y-121396234D01*
X128044116Y-121854317D01*
X127894864Y-122285125D01*
X127681064Y-122695532D01*
X127399864Y-123092415D01*
X127120992Y-123408418D01*
X126727883Y-123775315D01*
X126318206Y-124072833D01*
X125888081Y-124303049D01*
X125433635Y-124468036D01*
X124950988Y-124569870D01*
X124950872Y-124569886D01*
X124703583Y-124590047D01*
X124413501Y-124589783D01*
X124106967Y-124570740D01*
X123810320Y-124534565D01*
X123549901Y-124482903D01*
X123546909Y-124482146D01*
X123065581Y-124323449D01*
X122611958Y-124101086D01*
X122192789Y-123820525D01*
X121814824Y-123487235D01*
X121484815Y-123106682D01*
X121209511Y-122684335D01*
X121122937Y-122518714D01*
X120988973Y-122218295D01*
X120891742Y-121931540D01*
X120825911Y-121635959D01*
X120786150Y-121309059D01*
X120770273Y-121031000D01*
X120776921Y-120502292D01*
X120838854Y-120016626D01*
X120958456Y-119567370D01*
X121138105Y-119147889D01*
X121380185Y-118751551D01*
X121687076Y-118371724D01*
X121748729Y-118305287D01*
X122029281Y-118027783D01*
X122299311Y-117803052D01*
X122577076Y-117617244D01*
X122845286Y-117473536D01*
X123094590Y-117359933D01*
X123321233Y-117275173D01*
X123543569Y-117215484D01*
X123779952Y-117177090D01*
X124048735Y-117156220D01*
X124368272Y-117149098D01*
X124423714Y-117148982D01*
X124670079Y-117150231D01*
X124860282Y-117154936D01*
X125010706Y-117164531D01*
X125137730Y-117180451D01*
X125257738Y-117204130D01*
X125367143Y-117231612D01*
X125822818Y-117390130D01*
X126259280Y-117612856D01*
X126668610Y-117892385D01*
X127042891Y-118221309D01*
X127374202Y-118592225D01*
X127654626Y-118997726D01*
X127876242Y-119430406D01*
X127964620Y-119660762D01*
X128049984Y-119934813D01*
X128107911Y-120184668D01*
X128142619Y-120437115D01*
X128158325Y-120718938D01*
X128160392Y-120904000D01*
X128922902Y-120904000D01*
X128922997Y-120890176D01*
X128890824Y-120297172D01*
X128794389Y-119737738D01*
X128633260Y-119210909D01*
X128407003Y-118715722D01*
X128115185Y-118251212D01*
X127757373Y-117816415D01*
X127376319Y-117447746D01*
X126940097Y-117105243D01*
X126490252Y-116831003D01*
X126020301Y-116622626D01*
X125523757Y-116477712D01*
X124994138Y-116393862D01*
X124460000Y-116368578D01*
X123883543Y-116399905D01*
G36*
X112852686Y-116399905D02*
X112307417Y-116493288D01*
X111796253Y-116647827D01*
X111322114Y-116862621D01*
X110887916Y-117136772D01*
X110852857Y-117162849D01*
X110660507Y-117321765D01*
X110445789Y-117522343D01*
X110224478Y-117747818D01*
X110012347Y-117981422D01*
X109825172Y-118206389D01*
X109678725Y-118405953D01*
X109667952Y-118422293D01*
X109402797Y-118894617D01*
X109198958Y-119400326D01*
X109057370Y-119932549D01*
X108978967Y-120484414D01*
X108964685Y-121049049D01*
X109015457Y-121619582D01*
X109132220Y-122189142D01*
X109147781Y-122246572D01*
X109312523Y-122709675D01*
X109542242Y-123156791D01*
X109829866Y-123580650D01*
X110168326Y-123973979D01*
X110550552Y-124329507D01*
X110969472Y-124639961D01*
X111418018Y-124898070D01*
X111889119Y-125096561D01*
X111933355Y-125111576D01*
X112118574Y-125168815D01*
X112319889Y-125224255D01*
X112498610Y-125267348D01*
X112525253Y-125272950D01*
X112738390Y-125305926D01*
X112999297Y-125330381D01*
X113283566Y-125345355D01*
X113566793Y-125349891D01*
X113824569Y-125343032D01*
X113983509Y-125330180D01*
X114514282Y-125233104D01*
X115030373Y-125066354D01*
X115527669Y-124832054D01*
X116002058Y-124532328D01*
X116449429Y-124169300D01*
X116696461Y-123928960D01*
X117059554Y-123505863D01*
X117355539Y-123058830D01*
X117585574Y-122584914D01*
X117750819Y-122081168D01*
X117852434Y-121544643D01*
X117891578Y-120972395D01*
X117891967Y-120915370D01*
X117181570Y-120915370D01*
X117172967Y-121208341D01*
X117149409Y-121473560D01*
X117118283Y-121656657D01*
X116974002Y-122131202D01*
X116761442Y-122586097D01*
X116483372Y-123016480D01*
X116142560Y-123417485D01*
X116079157Y-123481812D01*
X115678741Y-123836563D01*
X115260080Y-124122114D01*
X114819482Y-124340365D01*
X114353254Y-124493213D01*
X113964369Y-124568970D01*
X113763033Y-124585796D01*
X113516846Y-124588971D01*
X113252017Y-124579579D01*
X112994755Y-124558702D01*
X112771269Y-124527425D01*
X112721306Y-124517590D01*
X112232180Y-124377107D01*
X111768111Y-124171545D01*
X111335687Y-123906011D01*
X110941495Y-123585607D01*
X110592121Y-123215437D01*
X110294154Y-122800607D01*
X110132115Y-122511333D01*
X109978466Y-122138895D01*
X109866057Y-121722939D01*
X109797918Y-121281645D01*
X109777081Y-120833194D01*
X109795436Y-120491888D01*
X109865488Y-120012978D01*
X109976596Y-119584662D01*
X110134861Y-119193939D01*
X110346381Y-118827806D01*
X110617256Y-118473260D01*
X110871000Y-118199082D01*
X111228710Y-117874334D01*
X111596990Y-117615042D01*
X111988756Y-117414129D01*
X112416924Y-117264519D01*
X112703429Y-117195023D01*
X113004626Y-117151645D01*
X113346378Y-117134167D01*
X113701964Y-117141923D01*
X114044663Y-117174244D01*
X114347752Y-117230461D01*
X114372571Y-117236774D01*
X114849089Y-117398536D01*
X115300807Y-117627605D01*
X115724328Y-117921943D01*
X116116250Y-118279513D01*
X116121750Y-118285223D01*
X116468471Y-118690779D01*
X116746249Y-119115649D01*
X116956947Y-119563241D01*
X117102430Y-120036959D01*
X117117732Y-120105715D01*
X117153944Y-120340480D01*
X117175226Y-120618224D01*
X117181570Y-120915370D01*
X117891967Y-120915370D01*
X117892140Y-120890176D01*
X117859967Y-120297172D01*
X117763532Y-119737738D01*
X117602403Y-119210909D01*
X117376146Y-118715722D01*
X117084328Y-118251212D01*
X116726516Y-117816415D01*
X116345462Y-117447746D01*
X115909240Y-117105243D01*
X115459395Y-116831003D01*
X114989444Y-116622626D01*
X114492900Y-116477712D01*
X113963281Y-116393862D01*
X113429143Y-116368578D01*
X112852686Y-116399905D01*
X112852686Y-116399905D01*
G37*
X112852686Y-116399905D02*
X112307417Y-116493288D01*
X111796253Y-116647827D01*
X111322114Y-116862621D01*
X110887916Y-117136772D01*
X110852857Y-117162849D01*
X110660507Y-117321765D01*
X110445789Y-117522343D01*
X110224478Y-117747818D01*
X110012347Y-117981422D01*
X109825172Y-118206389D01*
X109678725Y-118405953D01*
X109667952Y-118422293D01*
X109402797Y-118894617D01*
X109198958Y-119400326D01*
X109057370Y-119932549D01*
X108978967Y-120484414D01*
X108964685Y-121049049D01*
X109015457Y-121619582D01*
X109132220Y-122189142D01*
X109147781Y-122246572D01*
X109312523Y-122709675D01*
X109542242Y-123156791D01*
X109829866Y-123580650D01*
X110168326Y-123973979D01*
X110550552Y-124329507D01*
X110969472Y-124639961D01*
X111418018Y-124898070D01*
X111889119Y-125096561D01*
X111933355Y-125111576D01*
X112118574Y-125168815D01*
X112319889Y-125224255D01*
X112498610Y-125267348D01*
X112525253Y-125272950D01*
X112738390Y-125305926D01*
X112999297Y-125330381D01*
X113283566Y-125345355D01*
X113566793Y-125349891D01*
X113824569Y-125343032D01*
X113983509Y-125330180D01*
X114514282Y-125233104D01*
X115030373Y-125066354D01*
X115527669Y-124832054D01*
X116002058Y-124532328D01*
X116449429Y-124169300D01*
X116696461Y-123928960D01*
X117059554Y-123505863D01*
X117355539Y-123058830D01*
X117585574Y-122584914D01*
X117750819Y-122081168D01*
X117852434Y-121544643D01*
X117891578Y-120972395D01*
X117891967Y-120915370D01*
X117181570Y-120915370D01*
X117172967Y-121208341D01*
X117149409Y-121473560D01*
X117118283Y-121656657D01*
X116974002Y-122131202D01*
X116761442Y-122586097D01*
X116483372Y-123016480D01*
X116142560Y-123417485D01*
X116079157Y-123481812D01*
X115678741Y-123836563D01*
X115260080Y-124122114D01*
X114819482Y-124340365D01*
X114353254Y-124493213D01*
X113964369Y-124568970D01*
X113763033Y-124585796D01*
X113516846Y-124588971D01*
X113252017Y-124579579D01*
X112994755Y-124558702D01*
X112771269Y-124527425D01*
X112721306Y-124517590D01*
X112232180Y-124377107D01*
X111768111Y-124171545D01*
X111335687Y-123906011D01*
X110941495Y-123585607D01*
X110592121Y-123215437D01*
X110294154Y-122800607D01*
X110132115Y-122511333D01*
X109978466Y-122138895D01*
X109866057Y-121722939D01*
X109797918Y-121281645D01*
X109777081Y-120833194D01*
X109795436Y-120491888D01*
X109865488Y-120012978D01*
X109976596Y-119584662D01*
X110134861Y-119193939D01*
X110346381Y-118827806D01*
X110617256Y-118473260D01*
X110871000Y-118199082D01*
X111228710Y-117874334D01*
X111596990Y-117615042D01*
X111988756Y-117414129D01*
X112416924Y-117264519D01*
X112703429Y-117195023D01*
X113004626Y-117151645D01*
X113346378Y-117134167D01*
X113701964Y-117141923D01*
X114044663Y-117174244D01*
X114347752Y-117230461D01*
X114372571Y-117236774D01*
X114849089Y-117398536D01*
X115300807Y-117627605D01*
X115724328Y-117921943D01*
X116116250Y-118279513D01*
X116121750Y-118285223D01*
X116468471Y-118690779D01*
X116746249Y-119115649D01*
X116956947Y-119563241D01*
X117102430Y-120036959D01*
X117117732Y-120105715D01*
X117153944Y-120340480D01*
X117175226Y-120618224D01*
X117181570Y-120915370D01*
X117891967Y-120915370D01*
X117892140Y-120890176D01*
X117859967Y-120297172D01*
X117763532Y-119737738D01*
X117602403Y-119210909D01*
X117376146Y-118715722D01*
X117084328Y-118251212D01*
X116726516Y-117816415D01*
X116345462Y-117447746D01*
X115909240Y-117105243D01*
X115459395Y-116831003D01*
X114989444Y-116622626D01*
X114492900Y-116477712D01*
X113963281Y-116393862D01*
X113429143Y-116368578D01*
X112852686Y-116399905D01*
G36*
X142327267Y-120873876D02*
X142072708Y-120901469D01*
X141854248Y-120952372D01*
X141804572Y-120970119D01*
X141542265Y-121106321D01*
X141298037Y-121295102D01*
X141108489Y-121502153D01*
X140973100Y-121681285D01*
X141162050Y-121758635D01*
X141310030Y-121822891D01*
X141471214Y-121898208D01*
X141541500Y-121933032D01*
X141641992Y-121978515D01*
X141711022Y-121998836D01*
X141732000Y-121992372D01*
X141759464Y-121929969D01*
X141830155Y-121844140D01*
X141926525Y-121751118D01*
X142031024Y-121667135D01*
X142126104Y-121608426D01*
X142162447Y-121594207D01*
X142410971Y-121556845D01*
X142637920Y-121585041D01*
X142836000Y-121675171D01*
X142997915Y-121823605D01*
X143116370Y-122026719D01*
X143135779Y-122078111D01*
X143169601Y-122224784D01*
X143191609Y-122419993D01*
X143201467Y-122640616D01*
X143198838Y-122863529D01*
X143183386Y-123065611D01*
X143154772Y-123223739D01*
X143152578Y-123231501D01*
X143054770Y-123451419D01*
X142908478Y-123622021D01*
X142722414Y-123738656D01*
X142505288Y-123796679D01*
X142265811Y-123791440D01*
X142150104Y-123766385D01*
X142019250Y-123703734D01*
X141878235Y-123593707D01*
X141748322Y-123454338D01*
X141694727Y-123380137D01*
X141641286Y-123298131D01*
X141314714Y-123484522D01*
X141178005Y-123562920D01*
X141066718Y-123627440D01*
X140994701Y-123670011D01*
X140974932Y-123682548D01*
X140976601Y-123725512D01*
X141023707Y-123803993D01*
X141105844Y-123907164D01*
X141212602Y-124024198D01*
X141333574Y-124144266D01*
X141458352Y-124256541D01*
X141576527Y-124350197D01*
X141677691Y-124414405D01*
X141679190Y-124415172D01*
X141937986Y-124515789D01*
X142235215Y-124580483D01*
X142545437Y-124606664D01*
X142843212Y-124591748D01*
X143038286Y-124553373D01*
X143311355Y-124457823D01*
X143539051Y-124330345D01*
X143746382Y-124156707D01*
X143761325Y-124141909D01*
X143961229Y-123909587D01*
X144108055Y-123660464D01*
X144206217Y-123382564D01*
X144260130Y-123063908D01*
X144274470Y-122749892D01*
X144257425Y-122391592D01*
X144202177Y-122086415D01*
X144104934Y-121823591D01*
X143961906Y-121592349D01*
X143804855Y-121415855D01*
X143577797Y-121215762D01*
X143353652Y-121068329D01*
X143108847Y-120958649D01*
X143048669Y-120937704D01*
X142841134Y-120891319D01*
X142592038Y-120870268D01*
X142327267Y-120873876D01*
X142327267Y-120873876D01*
G37*
X142327267Y-120873876D02*
X142072708Y-120901469D01*
X141854248Y-120952372D01*
X141804572Y-120970119D01*
X141542265Y-121106321D01*
X141298037Y-121295102D01*
X141108489Y-121502153D01*
X140973100Y-121681285D01*
X141162050Y-121758635D01*
X141310030Y-121822891D01*
X141471214Y-121898208D01*
X141541500Y-121933032D01*
X141641992Y-121978515D01*
X141711022Y-121998836D01*
X141732000Y-121992372D01*
X141759464Y-121929969D01*
X141830155Y-121844140D01*
X141926525Y-121751118D01*
X142031024Y-121667135D01*
X142126104Y-121608426D01*
X142162447Y-121594207D01*
X142410971Y-121556845D01*
X142637920Y-121585041D01*
X142836000Y-121675171D01*
X142997915Y-121823605D01*
X143116370Y-122026719D01*
X143135779Y-122078111D01*
X143169601Y-122224784D01*
X143191609Y-122419993D01*
X143201467Y-122640616D01*
X143198838Y-122863529D01*
X143183386Y-123065611D01*
X143154772Y-123223739D01*
X143152578Y-123231501D01*
X143054770Y-123451419D01*
X142908478Y-123622021D01*
X142722414Y-123738656D01*
X142505288Y-123796679D01*
X142265811Y-123791440D01*
X142150104Y-123766385D01*
X142019250Y-123703734D01*
X141878235Y-123593707D01*
X141748322Y-123454338D01*
X141694727Y-123380137D01*
X141641286Y-123298131D01*
X141314714Y-123484522D01*
X141178005Y-123562920D01*
X141066718Y-123627440D01*
X140994701Y-123670011D01*
X140974932Y-123682548D01*
X140976601Y-123725512D01*
X141023707Y-123803993D01*
X141105844Y-123907164D01*
X141212602Y-124024198D01*
X141333574Y-124144266D01*
X141458352Y-124256541D01*
X141576527Y-124350197D01*
X141677691Y-124414405D01*
X141679190Y-124415172D01*
X141937986Y-124515789D01*
X142235215Y-124580483D01*
X142545437Y-124606664D01*
X142843212Y-124591748D01*
X143038286Y-124553373D01*
X143311355Y-124457823D01*
X143539051Y-124330345D01*
X143746382Y-124156707D01*
X143761325Y-124141909D01*
X143961229Y-123909587D01*
X144108055Y-123660464D01*
X144206217Y-123382564D01*
X144260130Y-123063908D01*
X144274470Y-122749892D01*
X144257425Y-122391592D01*
X144202177Y-122086415D01*
X144104934Y-121823591D01*
X143961906Y-121592349D01*
X143804855Y-121415855D01*
X143577797Y-121215762D01*
X143353652Y-121068329D01*
X143108847Y-120958649D01*
X143048669Y-120937704D01*
X142841134Y-120891319D01*
X142592038Y-120870268D01*
X142327267Y-120873876D01*
G36*
X138799156Y-120883159D02*
X138466607Y-120946799D01*
X138174319Y-121066555D01*
X137916793Y-121244797D01*
X137688532Y-121483895D01*
X137652128Y-121530916D01*
X137595105Y-121614497D01*
X137566477Y-121672323D01*
X137566548Y-121685501D01*
X137614901Y-121717385D01*
X137706323Y-121765431D01*
X137824461Y-121822322D01*
X137952960Y-121880743D01*
X138075465Y-121933381D01*
X138175622Y-121972919D01*
X138237076Y-121992043D01*
X138248571Y-121990554D01*
X138276007Y-121929028D01*
X138346608Y-121843932D01*
X138442814Y-121751433D01*
X138547067Y-121667701D01*
X138641807Y-121608902D01*
X138679019Y-121594207D01*
X138927542Y-121556845D01*
X139154491Y-121585041D01*
X139352571Y-121675171D01*
X139514486Y-121823605D01*
X139632941Y-122026719D01*
X139652351Y-122078111D01*
X139686172Y-122224784D01*
X139708181Y-122419993D01*
X139718039Y-122640616D01*
X139715410Y-122863529D01*
X139699957Y-123065611D01*
X139671344Y-123223739D01*
X139669150Y-123231501D01*
X139571342Y-123451419D01*
X139425050Y-123622021D01*
X139238985Y-123738656D01*
X139021859Y-123796679D01*
X138782383Y-123791440D01*
X138666675Y-123766385D01*
X138535822Y-123703734D01*
X138394806Y-123593707D01*
X138264894Y-123454338D01*
X138211299Y-123380137D01*
X138157857Y-123298131D01*
X137831286Y-123484522D01*
X137694577Y-123562920D01*
X137583290Y-123627440D01*
X137511273Y-123670011D01*
X137491504Y-123682548D01*
X137493172Y-123725512D01*
X137540279Y-123803993D01*
X137622415Y-123907164D01*
X137729173Y-124024198D01*
X137850145Y-124144266D01*
X137974923Y-124256541D01*
X138093098Y-124350197D01*
X138194262Y-124414405D01*
X138195761Y-124415172D01*
X138454557Y-124515789D01*
X138751786Y-124580483D01*
X139062008Y-124606664D01*
X139359784Y-124591748D01*
X139554857Y-124553373D01*
X139827926Y-124457823D01*
X140055623Y-124330345D01*
X140262954Y-124156707D01*
X140277897Y-124141909D01*
X140475064Y-123913816D01*
X140620410Y-123670482D01*
X140718419Y-123399609D01*
X140773576Y-123088896D01*
X140790378Y-122736429D01*
X140765846Y-122338114D01*
X140690932Y-121990402D01*
X140563654Y-121689822D01*
X140382032Y-121432904D01*
X140144087Y-121216180D01*
X139847838Y-121036180D01*
X139809279Y-121017361D01*
X139671187Y-120954952D01*
X139556489Y-120915084D01*
X139438484Y-120891666D01*
X139290468Y-120878607D01*
X139177464Y-120873264D01*
X138799156Y-120883159D01*
X138799156Y-120883159D01*
G37*
X138799156Y-120883159D02*
X138466607Y-120946799D01*
X138174319Y-121066555D01*
X137916793Y-121244797D01*
X137688532Y-121483895D01*
X137652128Y-121530916D01*
X137595105Y-121614497D01*
X137566477Y-121672323D01*
X137566548Y-121685501D01*
X137614901Y-121717385D01*
X137706323Y-121765431D01*
X137824461Y-121822322D01*
X137952960Y-121880743D01*
X138075465Y-121933381D01*
X138175622Y-121972919D01*
X138237076Y-121992043D01*
X138248571Y-121990554D01*
X138276007Y-121929028D01*
X138346608Y-121843932D01*
X138442814Y-121751433D01*
X138547067Y-121667701D01*
X138641807Y-121608902D01*
X138679019Y-121594207D01*
X138927542Y-121556845D01*
X139154491Y-121585041D01*
X139352571Y-121675171D01*
X139514486Y-121823605D01*
X139632941Y-122026719D01*
X139652351Y-122078111D01*
X139686172Y-122224784D01*
X139708181Y-122419993D01*
X139718039Y-122640616D01*
X139715410Y-122863529D01*
X139699957Y-123065611D01*
X139671344Y-123223739D01*
X139669150Y-123231501D01*
X139571342Y-123451419D01*
X139425050Y-123622021D01*
X139238985Y-123738656D01*
X139021859Y-123796679D01*
X138782383Y-123791440D01*
X138666675Y-123766385D01*
X138535822Y-123703734D01*
X138394806Y-123593707D01*
X138264894Y-123454338D01*
X138211299Y-123380137D01*
X138157857Y-123298131D01*
X137831286Y-123484522D01*
X137694577Y-123562920D01*
X137583290Y-123627440D01*
X137511273Y-123670011D01*
X137491504Y-123682548D01*
X137493172Y-123725512D01*
X137540279Y-123803993D01*
X137622415Y-123907164D01*
X137729173Y-124024198D01*
X137850145Y-124144266D01*
X137974923Y-124256541D01*
X138093098Y-124350197D01*
X138194262Y-124414405D01*
X138195761Y-124415172D01*
X138454557Y-124515789D01*
X138751786Y-124580483D01*
X139062008Y-124606664D01*
X139359784Y-124591748D01*
X139554857Y-124553373D01*
X139827926Y-124457823D01*
X140055623Y-124330345D01*
X140262954Y-124156707D01*
X140277897Y-124141909D01*
X140475064Y-123913816D01*
X140620410Y-123670482D01*
X140718419Y-123399609D01*
X140773576Y-123088896D01*
X140790378Y-122736429D01*
X140765846Y-122338114D01*
X140690932Y-121990402D01*
X140563654Y-121689822D01*
X140382032Y-121432904D01*
X140144087Y-121216180D01*
X139847838Y-121036180D01*
X139809279Y-121017361D01*
X139671187Y-120954952D01*
X139556489Y-120915084D01*
X139438484Y-120891666D01*
X139290468Y-120878607D01*
X139177464Y-120873264D01*
X138799156Y-120883159D01*
G36*
X123370236Y-119520753D02*
X123262572Y-119628418D01*
X123262719Y-120130138D01*
X123264779Y-120371051D01*
X123270255Y-120640426D01*
X123278272Y-120902847D01*
X123286461Y-121094500D01*
X123310057Y-121557143D01*
X123843143Y-121557143D01*
X123843143Y-123734286D01*
X125185714Y-123734286D01*
X125185714Y-121557143D01*
X125734329Y-121557143D01*
X125723093Y-120578375D01*
X125719579Y-120286515D01*
X125716021Y-120058460D01*
X125711644Y-119885448D01*
X125705674Y-119758717D01*
X125697336Y-119669503D01*
X125685855Y-119609044D01*
X125670456Y-119568578D01*
X125650365Y-119539343D01*
X125629261Y-119517018D01*
X125603455Y-119492987D01*
X125573999Y-119474037D01*
X125532410Y-119459462D01*
X125470202Y-119448551D01*
X125378891Y-119440597D01*
X125249991Y-119434891D01*
X125075018Y-119430725D01*
X124845488Y-119427390D01*
X124552914Y-119424178D01*
X124512283Y-119423758D01*
X123477901Y-119413088D01*
X123370236Y-119520753D01*
X123370236Y-119520753D01*
G37*
X123370236Y-119520753D02*
X123262572Y-119628418D01*
X123262719Y-120130138D01*
X123264779Y-120371051D01*
X123270255Y-120640426D01*
X123278272Y-120902847D01*
X123286461Y-121094500D01*
X123310057Y-121557143D01*
X123843143Y-121557143D01*
X123843143Y-123734286D01*
X125185714Y-123734286D01*
X125185714Y-121557143D01*
X125734329Y-121557143D01*
X125723093Y-120578375D01*
X125719579Y-120286515D01*
X125716021Y-120058460D01*
X125711644Y-119885448D01*
X125705674Y-119758717D01*
X125697336Y-119669503D01*
X125685855Y-119609044D01*
X125670456Y-119568578D01*
X125650365Y-119539343D01*
X125629261Y-119517018D01*
X125603455Y-119492987D01*
X125573999Y-119474037D01*
X125532410Y-119459462D01*
X125470202Y-119448551D01*
X125378891Y-119440597D01*
X125249991Y-119434891D01*
X125075018Y-119430725D01*
X124845488Y-119427390D01*
X124552914Y-119424178D01*
X124512283Y-119423758D01*
X123477901Y-119413088D01*
X123370236Y-119520753D01*
G36*
X124227542Y-117979949D02*
X124117356Y-118020736D01*
X123966748Y-118123446D01*
X123869597Y-118266971D01*
X123821279Y-118459052D01*
X123815698Y-118525742D01*
X123832504Y-118744373D01*
X123906932Y-118923333D01*
X124036786Y-119058176D01*
X124096577Y-119095009D01*
X124246875Y-119144183D01*
X124427906Y-119159559D01*
X124605723Y-119140252D01*
X124698935Y-119110709D01*
X124845023Y-119010050D01*
X124952503Y-118862169D01*
X125012807Y-118685907D01*
X125017369Y-118500105D01*
X125004730Y-118438222D01*
X124919343Y-118246059D01*
X124786064Y-118098097D01*
X124617760Y-118000389D01*
X124427297Y-117958988D01*
X124227542Y-117979949D01*
X124227542Y-117979949D01*
G37*
X124227542Y-117979949D02*
X124117356Y-118020736D01*
X123966748Y-118123446D01*
X123869597Y-118266971D01*
X123821279Y-118459052D01*
X123815698Y-118525742D01*
X123832504Y-118744373D01*
X123906932Y-118923333D01*
X124036786Y-119058176D01*
X124096577Y-119095009D01*
X124246875Y-119144183D01*
X124427906Y-119159559D01*
X124605723Y-119140252D01*
X124698935Y-119110709D01*
X124845023Y-119010050D01*
X124952503Y-118862169D01*
X125012807Y-118685907D01*
X125017369Y-118500105D01*
X125004730Y-118438222D01*
X124919343Y-118246059D01*
X124786064Y-118098097D01*
X124617760Y-118000389D01*
X124427297Y-117958988D01*
X124227542Y-117979949D01*
G36*
X113338429Y-118484505D02*
X112926597Y-118541960D01*
X112547430Y-118662728D01*
X112205155Y-118843356D01*
X111903998Y-119080390D01*
X111648185Y-119370376D01*
X111441943Y-119709862D01*
X111289497Y-120095394D01*
X111265683Y-120178286D01*
X111228127Y-120376200D01*
X111205647Y-120620268D01*
X111198307Y-120886464D01*
X111206171Y-121150760D01*
X111229304Y-121389127D01*
X111262012Y-121557143D01*
X111402081Y-121947012D01*
X111602090Y-122305306D01*
X111855641Y-122621901D01*
X112050286Y-122803992D01*
X112318479Y-122985419D01*
X112632895Y-123129828D01*
X112974567Y-123232090D01*
X113324526Y-123287078D01*
X113663808Y-123289663D01*
X113792000Y-123274919D01*
X114091673Y-123203209D01*
X114391569Y-123085981D01*
X114665772Y-122934860D01*
X114841076Y-122804454D01*
X115022337Y-122612494D01*
X115187883Y-122370922D01*
X115324899Y-122102639D01*
X115420570Y-121830547D01*
X115444253Y-121726513D01*
X115469219Y-121593429D01*
X114410240Y-121593429D01*
X114388147Y-121693214D01*
X114304400Y-121951086D01*
X114178806Y-122151431D01*
X114009105Y-122295811D01*
X113793032Y-122385788D01*
X113528327Y-122422926D01*
X113336073Y-122419928D01*
X113075898Y-122374526D01*
X112855644Y-122273015D01*
X112673425Y-122113377D01*
X112527352Y-121893598D01*
X112415538Y-121611660D01*
X112356058Y-121373375D01*
X112316477Y-121058362D01*
X112315657Y-120720136D01*
X112352228Y-120389178D01*
X112411662Y-120136437D01*
X112525826Y-119876863D01*
X112687856Y-119668826D01*
X112891191Y-119515859D01*
X113129270Y-119421491D01*
X113395534Y-119389256D01*
X113683423Y-119422684D01*
X113720746Y-119431692D01*
X113872033Y-119481773D01*
X114010740Y-119547107D01*
X114082123Y-119593860D01*
X114198441Y-119719117D01*
X114302091Y-119886365D01*
X114375216Y-120065207D01*
X114388138Y-120114786D01*
X114397424Y-120177198D01*
X114376784Y-120206003D01*
X114308981Y-120214172D01*
X114255527Y-120214572D01*
X114100815Y-120214572D01*
X114953143Y-121066900D01*
X115805471Y-120214572D01*
X115435285Y-120214572D01*
X115375687Y-119969643D01*
X115251971Y-119597374D01*
X115075851Y-119273862D01*
X114850973Y-119001764D01*
X114580980Y-118783737D01*
X114269516Y-118622438D01*
X113920225Y-118520522D01*
X113536752Y-118480647D01*
X113338429Y-118484505D01*
X113338429Y-118484505D01*
G37*
X113338429Y-118484505D02*
X112926597Y-118541960D01*
X112547430Y-118662728D01*
X112205155Y-118843356D01*
X111903998Y-119080390D01*
X111648185Y-119370376D01*
X111441943Y-119709862D01*
X111289497Y-120095394D01*
X111265683Y-120178286D01*
X111228127Y-120376200D01*
X111205647Y-120620268D01*
X111198307Y-120886464D01*
X111206171Y-121150760D01*
X111229304Y-121389127D01*
X111262012Y-121557143D01*
X111402081Y-121947012D01*
X111602090Y-122305306D01*
X111855641Y-122621901D01*
X112050286Y-122803992D01*
X112318479Y-122985419D01*
X112632895Y-123129828D01*
X112974567Y-123232090D01*
X113324526Y-123287078D01*
X113663808Y-123289663D01*
X113792000Y-123274919D01*
X114091673Y-123203209D01*
X114391569Y-123085981D01*
X114665772Y-122934860D01*
X114841076Y-122804454D01*
X115022337Y-122612494D01*
X115187883Y-122370922D01*
X115324899Y-122102639D01*
X115420570Y-121830547D01*
X115444253Y-121726513D01*
X115469219Y-121593429D01*
X114410240Y-121593429D01*
X114388147Y-121693214D01*
X114304400Y-121951086D01*
X114178806Y-122151431D01*
X114009105Y-122295811D01*
X113793032Y-122385788D01*
X113528327Y-122422926D01*
X113336073Y-122419928D01*
X113075898Y-122374526D01*
X112855644Y-122273015D01*
X112673425Y-122113377D01*
X112527352Y-121893598D01*
X112415538Y-121611660D01*
X112356058Y-121373375D01*
X112316477Y-121058362D01*
X112315657Y-120720136D01*
X112352228Y-120389178D01*
X112411662Y-120136437D01*
X112525826Y-119876863D01*
X112687856Y-119668826D01*
X112891191Y-119515859D01*
X113129270Y-119421491D01*
X113395534Y-119389256D01*
X113683423Y-119422684D01*
X113720746Y-119431692D01*
X113872033Y-119481773D01*
X114010740Y-119547107D01*
X114082123Y-119593860D01*
X114198441Y-119719117D01*
X114302091Y-119886365D01*
X114375216Y-120065207D01*
X114388138Y-120114786D01*
X114397424Y-120177198D01*
X114376784Y-120206003D01*
X114308981Y-120214172D01*
X114255527Y-120214572D01*
X114100815Y-120214572D01*
X114953143Y-121066900D01*
X115805471Y-120214572D01*
X115435285Y-120214572D01*
X115375687Y-119969643D01*
X115251971Y-119597374D01*
X115075851Y-119273862D01*
X114850973Y-119001764D01*
X114580980Y-118783737D01*
X114269516Y-118622438D01*
X113920225Y-118520522D01*
X113536752Y-118480647D01*
X113338429Y-118484505D01*
G36*
X172055091Y-127369560D02*
X172002588Y-127395499D01*
X171937842Y-127440700D01*
X171890653Y-127489991D01*
X171858335Y-127551885D01*
X171838203Y-127634896D01*
X171827570Y-127747538D01*
X171823753Y-127898324D01*
X171823530Y-127963149D01*
X171824182Y-128105221D01*
X171826888Y-128206757D01*
X171832776Y-128277015D01*
X171842973Y-128325256D01*
X171858606Y-128360738D01*
X171874872Y-128384943D01*
X171978705Y-128487929D01*
X172100979Y-128549874D01*
X172232886Y-128568506D01*
X172365616Y-128541549D01*
X172407667Y-128522486D01*
X172508334Y-128470015D01*
X172508334Y-129292259D01*
X172434865Y-129254267D01*
X172338059Y-129224872D01*
X172219072Y-129217342D01*
X172100255Y-129231245D01*
X172010527Y-129262476D01*
X171936101Y-129321954D01*
X171872510Y-129407066D01*
X171867729Y-129415805D01*
X171847563Y-129456966D01*
X171832835Y-129498454D01*
X171822697Y-129548713D01*
X171816301Y-129616184D01*
X171812799Y-129709309D01*
X171811342Y-129836531D01*
X171811079Y-129979701D01*
X171811079Y-130436471D01*
X172085000Y-130436471D01*
X172085000Y-129594231D01*
X172161617Y-129529763D01*
X172241207Y-129478194D01*
X172316578Y-129468818D01*
X172392367Y-129492947D01*
X172432759Y-129516574D01*
X172462821Y-129550227D01*
X172484203Y-129601087D01*
X172498550Y-129676334D01*
X172507510Y-129783146D01*
X172512730Y-129928704D01*
X172514569Y-130025588D01*
X172520785Y-130424020D01*
X172651520Y-130431547D01*
X172782255Y-130439073D01*
X172782255Y-127966582D01*
X172508334Y-127966582D01*
X172501350Y-128104423D01*
X172477818Y-128200107D01*
X172433865Y-128259641D01*
X172365618Y-128289029D01*
X172296667Y-128294902D01*
X172218614Y-128288154D01*
X172166811Y-128261594D01*
X172134417Y-128226499D01*
X172108916Y-128188752D01*
X172093735Y-128146700D01*
X172086981Y-128087779D01*
X172086759Y-127999428D01*
X172089032Y-127925448D01*
X172094251Y-127814000D01*
X172102021Y-127740833D01*
X172115105Y-127694422D01*
X172136268Y-127663244D01*
X172156240Y-127645223D01*
X172239686Y-127605925D01*
X172338449Y-127599579D01*
X172395159Y-127613116D01*
X172451308Y-127661233D01*
X172488501Y-127754833D01*
X172506528Y-127893254D01*
X172508334Y-127966582D01*
X172782255Y-127966582D01*
X172782255Y-127348628D01*
X172645295Y-127348628D01*
X172563065Y-127351879D01*
X172520640Y-127363426D01*
X172508339Y-127385952D01*
X172508334Y-127386620D01*
X172502626Y-127408681D01*
X172477453Y-127406176D01*
X172427402Y-127381935D01*
X172310781Y-127344851D01*
X172179571Y-127340953D01*
X172055091Y-127369560D01*
X172055091Y-127369560D01*
G37*
X172055091Y-127369560D02*
X172002588Y-127395499D01*
X171937842Y-127440700D01*
X171890653Y-127489991D01*
X171858335Y-127551885D01*
X171838203Y-127634896D01*
X171827570Y-127747538D01*
X171823753Y-127898324D01*
X171823530Y-127963149D01*
X171824182Y-128105221D01*
X171826888Y-128206757D01*
X171832776Y-128277015D01*
X171842973Y-128325256D01*
X171858606Y-128360738D01*
X171874872Y-128384943D01*
X171978705Y-128487929D01*
X172100979Y-128549874D01*
X172232886Y-128568506D01*
X172365616Y-128541549D01*
X172407667Y-128522486D01*
X172508334Y-128470015D01*
X172508334Y-129292259D01*
X172434865Y-129254267D01*
X172338059Y-129224872D01*
X172219072Y-129217342D01*
X172100255Y-129231245D01*
X172010527Y-129262476D01*
X171936101Y-129321954D01*
X171872510Y-129407066D01*
X171867729Y-129415805D01*
X171847563Y-129456966D01*
X171832835Y-129498454D01*
X171822697Y-129548713D01*
X171816301Y-129616184D01*
X171812799Y-129709309D01*
X171811342Y-129836531D01*
X171811079Y-129979701D01*
X171811079Y-130436471D01*
X172085000Y-130436471D01*
X172085000Y-129594231D01*
X172161617Y-129529763D01*
X172241207Y-129478194D01*
X172316578Y-129468818D01*
X172392367Y-129492947D01*
X172432759Y-129516574D01*
X172462821Y-129550227D01*
X172484203Y-129601087D01*
X172498550Y-129676334D01*
X172507510Y-129783146D01*
X172512730Y-129928704D01*
X172514569Y-130025588D01*
X172520785Y-130424020D01*
X172651520Y-130431547D01*
X172782255Y-130439073D01*
X172782255Y-127966582D01*
X172508334Y-127966582D01*
X172501350Y-128104423D01*
X172477818Y-128200107D01*
X172433865Y-128259641D01*
X172365618Y-128289029D01*
X172296667Y-128294902D01*
X172218614Y-128288154D01*
X172166811Y-128261594D01*
X172134417Y-128226499D01*
X172108916Y-128188752D01*
X172093735Y-128146700D01*
X172086981Y-128087779D01*
X172086759Y-127999428D01*
X172089032Y-127925448D01*
X172094251Y-127814000D01*
X172102021Y-127740833D01*
X172115105Y-127694422D01*
X172136268Y-127663244D01*
X172156240Y-127645223D01*
X172239686Y-127605925D01*
X172338449Y-127599579D01*
X172395159Y-127613116D01*
X172451308Y-127661233D01*
X172488501Y-127754833D01*
X172506528Y-127893254D01*
X172508334Y-127966582D01*
X172782255Y-127966582D01*
X172782255Y-127348628D01*
X172645295Y-127348628D01*
X172563065Y-127351879D01*
X172520640Y-127363426D01*
X172508339Y-127385952D01*
X172508334Y-127386620D01*
X172502626Y-127408681D01*
X172477453Y-127406176D01*
X172427402Y-127381935D01*
X172310781Y-127344851D01*
X172179571Y-127340953D01*
X172055091Y-127369560D01*
G36*
X171016280Y-129225922D02*
X170899130Y-129257180D01*
X170809949Y-129313837D01*
X170747016Y-129388045D01*
X170727452Y-129419716D01*
X170713008Y-129452891D01*
X170702911Y-129495329D01*
X170696385Y-129554788D01*
X170692658Y-129639029D01*
X170690954Y-129755810D01*
X170690500Y-129912890D01*
X170690491Y-129954565D01*
X170690491Y-130436471D01*
X170810020Y-130436471D01*
X170886261Y-130431131D01*
X170942634Y-130417604D01*
X170956758Y-130409262D01*
X170995370Y-130394864D01*
X171034808Y-130409262D01*
X171099738Y-130427237D01*
X171194055Y-130434472D01*
X171298593Y-130431333D01*
X171394189Y-130418186D01*
X171450000Y-130401318D01*
X171558002Y-130331986D01*
X171625497Y-130235772D01*
X171655841Y-130107844D01*
X171656123Y-130104559D01*
X171653460Y-130047808D01*
X171412647Y-130047808D01*
X171391595Y-130112358D01*
X171357303Y-130148686D01*
X171288468Y-130176162D01*
X171197610Y-130187129D01*
X171104958Y-130181731D01*
X171030744Y-130160110D01*
X171009951Y-130146239D01*
X170973619Y-130082143D01*
X170964412Y-130009278D01*
X170964412Y-129913530D01*
X171102173Y-129913530D01*
X171233047Y-129923605D01*
X171332259Y-129952148D01*
X171393977Y-129996639D01*
X171412647Y-130047808D01*
X171653460Y-130047808D01*
X171649564Y-129964790D01*
X171603466Y-129854282D01*
X171516800Y-129770712D01*
X171504821Y-129763110D01*
X171453345Y-129738357D01*
X171389632Y-129723368D01*
X171300565Y-129716082D01*
X171194755Y-129714407D01*
X170964412Y-129714314D01*
X170964412Y-129617755D01*
X170974183Y-129542836D01*
X170999116Y-129492644D01*
X171002035Y-129489972D01*
X171057519Y-129468015D01*
X171141273Y-129459505D01*
X171233833Y-129463687D01*
X171315730Y-129479809D01*
X171364327Y-129503990D01*
X171390659Y-129523359D01*
X171418465Y-129527057D01*
X171456839Y-129511188D01*
X171514875Y-129471855D01*
X171601669Y-129405164D01*
X171609635Y-129398916D01*
X171605553Y-129375800D01*
X171571499Y-129337352D01*
X171519740Y-129294627D01*
X171462545Y-129258679D01*
X171444575Y-129250191D01*
X171379028Y-129233252D01*
X171282980Y-129221170D01*
X171175671Y-129216323D01*
X171170653Y-129216313D01*
X171016280Y-129225922D01*
X171016280Y-129225922D01*
G37*
X171016280Y-129225922D02*
X170899130Y-129257180D01*
X170809949Y-129313837D01*
X170747016Y-129388045D01*
X170727452Y-129419716D01*
X170713008Y-129452891D01*
X170702911Y-129495329D01*
X170696385Y-129554788D01*
X170692658Y-129639029D01*
X170690954Y-129755810D01*
X170690500Y-129912890D01*
X170690491Y-129954565D01*
X170690491Y-130436471D01*
X170810020Y-130436471D01*
X170886261Y-130431131D01*
X170942634Y-130417604D01*
X170956758Y-130409262D01*
X170995370Y-130394864D01*
X171034808Y-130409262D01*
X171099738Y-130427237D01*
X171194055Y-130434472D01*
X171298593Y-130431333D01*
X171394189Y-130418186D01*
X171450000Y-130401318D01*
X171558002Y-130331986D01*
X171625497Y-130235772D01*
X171655841Y-130107844D01*
X171656123Y-130104559D01*
X171653460Y-130047808D01*
X171412647Y-130047808D01*
X171391595Y-130112358D01*
X171357303Y-130148686D01*
X171288468Y-130176162D01*
X171197610Y-130187129D01*
X171104958Y-130181731D01*
X171030744Y-130160110D01*
X171009951Y-130146239D01*
X170973619Y-130082143D01*
X170964412Y-130009278D01*
X170964412Y-129913530D01*
X171102173Y-129913530D01*
X171233047Y-129923605D01*
X171332259Y-129952148D01*
X171393977Y-129996639D01*
X171412647Y-130047808D01*
X171653460Y-130047808D01*
X171649564Y-129964790D01*
X171603466Y-129854282D01*
X171516800Y-129770712D01*
X171504821Y-129763110D01*
X171453345Y-129738357D01*
X171389632Y-129723368D01*
X171300565Y-129716082D01*
X171194755Y-129714407D01*
X170964412Y-129714314D01*
X170964412Y-129617755D01*
X170974183Y-129542836D01*
X170999116Y-129492644D01*
X171002035Y-129489972D01*
X171057519Y-129468015D01*
X171141273Y-129459505D01*
X171233833Y-129463687D01*
X171315730Y-129479809D01*
X171364327Y-129503990D01*
X171390659Y-129523359D01*
X171418465Y-129527057D01*
X171456839Y-129511188D01*
X171514875Y-129471855D01*
X171601669Y-129405164D01*
X171609635Y-129398916D01*
X171605553Y-129375800D01*
X171571499Y-129337352D01*
X171519740Y-129294627D01*
X171462545Y-129258679D01*
X171444575Y-129250191D01*
X171379028Y-129233252D01*
X171282980Y-129221170D01*
X171175671Y-129216323D01*
X171170653Y-129216313D01*
X171016280Y-129225922D01*
G36*
X170242236Y-129218921D02*
X170204970Y-129230091D01*
X170192957Y-129254633D01*
X170192451Y-129265712D01*
X170190296Y-129296572D01*
X170175449Y-129301417D01*
X170135343Y-129280260D01*
X170111520Y-129265806D01*
X170036362Y-129234850D01*
X169946594Y-129219544D01*
X169852471Y-129218367D01*
X169764246Y-129229799D01*
X169692174Y-129252320D01*
X169646508Y-129284409D01*
X169637502Y-129324545D01*
X169642047Y-129335415D01*
X169675179Y-129380534D01*
X169726555Y-129436026D01*
X169735848Y-129444996D01*
X169784818Y-129486245D01*
X169827069Y-129499572D01*
X169886159Y-129490271D01*
X169909831Y-129484090D01*
X169983496Y-129469246D01*
X170035290Y-129475921D01*
X170079031Y-129499465D01*
X170119098Y-129531061D01*
X170148608Y-129570798D01*
X170169116Y-129626252D01*
X170182176Y-129705003D01*
X170189344Y-129814629D01*
X170192176Y-129962706D01*
X170192451Y-130052111D01*
X170192451Y-130436471D01*
X170441471Y-130436471D01*
X170441471Y-129216275D01*
X170316961Y-129216275D01*
X170242236Y-129218921D01*
X170242236Y-129218921D01*
G37*
X170242236Y-129218921D02*
X170204970Y-129230091D01*
X170192957Y-129254633D01*
X170192451Y-129265712D01*
X170190296Y-129296572D01*
X170175449Y-129301417D01*
X170135343Y-129280260D01*
X170111520Y-129265806D01*
X170036362Y-129234850D01*
X169946594Y-129219544D01*
X169852471Y-129218367D01*
X169764246Y-129229799D01*
X169692174Y-129252320D01*
X169646508Y-129284409D01*
X169637502Y-129324545D01*
X169642047Y-129335415D01*
X169675179Y-129380534D01*
X169726555Y-129436026D01*
X169735848Y-129444996D01*
X169784818Y-129486245D01*
X169827069Y-129499572D01*
X169886159Y-129490271D01*
X169909831Y-129484090D01*
X169983496Y-129469246D01*
X170035290Y-129475921D01*
X170079031Y-129499465D01*
X170119098Y-129531061D01*
X170148608Y-129570798D01*
X170169116Y-129626252D01*
X170182176Y-129705003D01*
X170189344Y-129814629D01*
X170192176Y-129962706D01*
X170192451Y-130052111D01*
X170192451Y-130436471D01*
X170441471Y-130436471D01*
X170441471Y-129216275D01*
X170316961Y-129216275D01*
X170242236Y-129218921D01*
G36*
X168673432Y-130436471D02*
X168810393Y-130436471D01*
X168889889Y-130434140D01*
X168931292Y-130424488D01*
X168946199Y-130403525D01*
X168947353Y-130389351D01*
X168949867Y-130360927D01*
X168965720Y-130355475D01*
X169007379Y-130372998D01*
X169039776Y-130389351D01*
X169164151Y-130428103D01*
X169299354Y-130430346D01*
X169409274Y-130401444D01*
X169511634Y-130331619D01*
X169589660Y-130228555D01*
X169632386Y-130106989D01*
X169633474Y-130100192D01*
X169639822Y-130026032D01*
X169642979Y-129919570D01*
X169642725Y-129839052D01*
X169370711Y-129839052D01*
X169364410Y-129946070D01*
X169350075Y-130034278D01*
X169330669Y-130084090D01*
X169257254Y-130152162D01*
X169170086Y-130176564D01*
X169080196Y-130156831D01*
X169003383Y-130097968D01*
X168974292Y-130058379D01*
X168957283Y-130011138D01*
X168949316Y-129942181D01*
X168947353Y-129838607D01*
X168950866Y-129736039D01*
X168960143Y-129645921D01*
X168973294Y-129585613D01*
X168975486Y-129580208D01*
X169028522Y-129515940D01*
X169105933Y-129480656D01*
X169192546Y-129474959D01*
X169273193Y-129499453D01*
X169332703Y-129554742D01*
X169338876Y-129565743D01*
X169358199Y-129632827D01*
X169368726Y-129729284D01*
X169370711Y-129839052D01*
X169642725Y-129839052D01*
X169642596Y-129798225D01*
X169640806Y-129732918D01*
X169628627Y-129571355D01*
X169603315Y-129450053D01*
X169561207Y-129360379D01*
X169498641Y-129293699D01*
X169437900Y-129254557D01*
X169353036Y-129227040D01*
X169247485Y-129217603D01*
X169139402Y-129225290D01*
X169046942Y-129249146D01*
X168998090Y-129277685D01*
X168947353Y-129323601D01*
X168947353Y-128743137D01*
X168673432Y-128743137D01*
X168673432Y-130436471D01*
X168673432Y-130436471D01*
G37*
X168673432Y-130436471D02*
X168810393Y-130436471D01*
X168889889Y-130434140D01*
X168931292Y-130424488D01*
X168946199Y-130403525D01*
X168947353Y-130389351D01*
X168949867Y-130360927D01*
X168965720Y-130355475D01*
X169007379Y-130372998D01*
X169039776Y-130389351D01*
X169164151Y-130428103D01*
X169299354Y-130430346D01*
X169409274Y-130401444D01*
X169511634Y-130331619D01*
X169589660Y-130228555D01*
X169632386Y-130106989D01*
X169633474Y-130100192D01*
X169639822Y-130026032D01*
X169642979Y-129919570D01*
X169642725Y-129839052D01*
X169370711Y-129839052D01*
X169364410Y-129946070D01*
X169350075Y-130034278D01*
X169330669Y-130084090D01*
X169257254Y-130152162D01*
X169170086Y-130176564D01*
X169080196Y-130156831D01*
X169003383Y-130097968D01*
X168974292Y-130058379D01*
X168957283Y-130011138D01*
X168949316Y-129942181D01*
X168947353Y-129838607D01*
X168950866Y-129736039D01*
X168960143Y-129645921D01*
X168973294Y-129585613D01*
X168975486Y-129580208D01*
X169028522Y-129515940D01*
X169105933Y-129480656D01*
X169192546Y-129474959D01*
X169273193Y-129499453D01*
X169332703Y-129554742D01*
X169338876Y-129565743D01*
X169358199Y-129632827D01*
X169368726Y-129729284D01*
X169370711Y-129839052D01*
X169642725Y-129839052D01*
X169642596Y-129798225D01*
X169640806Y-129732918D01*
X169628627Y-129571355D01*
X169603315Y-129450053D01*
X169561207Y-129360379D01*
X169498641Y-129293699D01*
X169437900Y-129254557D01*
X169353036Y-129227040D01*
X169247485Y-129217603D01*
X169139402Y-129225290D01*
X169046942Y-129249146D01*
X168998090Y-129277685D01*
X168947353Y-129323601D01*
X168947353Y-128743137D01*
X168673432Y-128743137D01*
X168673432Y-130436471D01*
G36*
X167717472Y-129221332D02*
X167618986Y-129228726D01*
X167490224Y-129614706D01*
X167361463Y-130000686D01*
X167321089Y-129863726D01*
X167296793Y-129779083D01*
X167264833Y-129664697D01*
X167230321Y-129538963D01*
X167212072Y-129471520D01*
X167143429Y-129216275D01*
X166860227Y-129216275D01*
X166944878Y-129483971D01*
X166986565Y-129615638D01*
X167036926Y-129774458D01*
X167089519Y-129940128D01*
X167136470Y-130087843D01*
X167243411Y-130424020D01*
X167474339Y-130439044D01*
X167536950Y-130232316D01*
X167575562Y-130103896D01*
X167617700Y-129962322D01*
X167654528Y-129837285D01*
X167655982Y-129832309D01*
X167683489Y-129747586D01*
X167707758Y-129689778D01*
X167724757Y-129667918D01*
X167728250Y-129670446D01*
X167740510Y-129704336D01*
X167763805Y-129776930D01*
X167795300Y-129879101D01*
X167832158Y-130001720D01*
X167852101Y-130069167D01*
X167960105Y-130436471D01*
X168189321Y-130436471D01*
X168372561Y-129857500D01*
X168424037Y-129695091D01*
X168470930Y-129547602D01*
X168511023Y-129421960D01*
X168542103Y-129325095D01*
X168561955Y-129263934D01*
X168567989Y-129246065D01*
X168563212Y-129227768D01*
X168525703Y-129219755D01*
X168447645Y-129220557D01*
X168435426Y-129221163D01*
X168290674Y-129228726D01*
X168195870Y-129577353D01*
X168161023Y-129704497D01*
X168129883Y-129816265D01*
X168105191Y-129902953D01*
X168089688Y-129954856D01*
X168086824Y-129963318D01*
X168074954Y-129953587D01*
X168051017Y-129903172D01*
X168017761Y-129818935D01*
X167977936Y-129707741D01*
X167944270Y-129607297D01*
X167815959Y-129213939D01*
X167717472Y-129221332D01*
X167717472Y-129221332D01*
G37*
X167717472Y-129221332D02*
X167618986Y-129228726D01*
X167490224Y-129614706D01*
X167361463Y-130000686D01*
X167321089Y-129863726D01*
X167296793Y-129779083D01*
X167264833Y-129664697D01*
X167230321Y-129538963D01*
X167212072Y-129471520D01*
X167143429Y-129216275D01*
X166860227Y-129216275D01*
X166944878Y-129483971D01*
X166986565Y-129615638D01*
X167036926Y-129774458D01*
X167089519Y-129940128D01*
X167136470Y-130087843D01*
X167243411Y-130424020D01*
X167474339Y-130439044D01*
X167536950Y-130232316D01*
X167575562Y-130103896D01*
X167617700Y-129962322D01*
X167654528Y-129837285D01*
X167655982Y-129832309D01*
X167683489Y-129747586D01*
X167707758Y-129689778D01*
X167724757Y-129667918D01*
X167728250Y-129670446D01*
X167740510Y-129704336D01*
X167763805Y-129776930D01*
X167795300Y-129879101D01*
X167832158Y-130001720D01*
X167852101Y-130069167D01*
X167960105Y-130436471D01*
X168189321Y-130436471D01*
X168372561Y-129857500D01*
X168424037Y-129695091D01*
X168470930Y-129547602D01*
X168511023Y-129421960D01*
X168542103Y-129325095D01*
X168561955Y-129263934D01*
X168567989Y-129246065D01*
X168563212Y-129227768D01*
X168525703Y-129219755D01*
X168447645Y-129220557D01*
X168435426Y-129221163D01*
X168290674Y-129228726D01*
X168195870Y-129577353D01*
X168161023Y-129704497D01*
X168129883Y-129816265D01*
X168105191Y-129902953D01*
X168089688Y-129954856D01*
X168086824Y-129963318D01*
X168074954Y-129953587D01*
X168051017Y-129903172D01*
X168017761Y-129818935D01*
X167977936Y-129707741D01*
X167944270Y-129607297D01*
X167815959Y-129213939D01*
X167717472Y-129221332D01*
G36*
X166218541Y-129223669D02*
X166113580Y-129249163D01*
X166083239Y-129262669D01*
X166024427Y-129298046D01*
X165979291Y-129337890D01*
X165945894Y-129389120D01*
X165922299Y-129458654D01*
X165906567Y-129553409D01*
X165896761Y-129680305D01*
X165890943Y-129846258D01*
X165888734Y-129957108D01*
X165880604Y-130436471D01*
X166019469Y-130436471D01*
X166103713Y-130432938D01*
X166147116Y-130420866D01*
X166158334Y-130400594D01*
X166164256Y-130378674D01*
X166190734Y-130382865D01*
X166226814Y-130400441D01*
X166317138Y-130427382D01*
X166433223Y-130434642D01*
X166555320Y-130422767D01*
X166663679Y-130392305D01*
X166673398Y-130388077D01*
X166772432Y-130318505D01*
X166837719Y-130221789D01*
X166867760Y-130108738D01*
X166865465Y-130068122D01*
X166620367Y-130068122D01*
X166598771Y-130122782D01*
X166534741Y-130161952D01*
X166431435Y-130182974D01*
X166376226Y-130185766D01*
X166284218Y-130178620D01*
X166223059Y-130150848D01*
X166208138Y-130137647D01*
X166167713Y-130065829D01*
X166158334Y-130000686D01*
X166158334Y-129913530D01*
X166279731Y-129913530D01*
X166420847Y-129920722D01*
X166519827Y-129943345D01*
X166582367Y-129982964D01*
X166596369Y-130000628D01*
X166620367Y-130068122D01*
X166865465Y-130068122D01*
X166861059Y-129990157D01*
X166816120Y-129876855D01*
X166754804Y-129800285D01*
X166717668Y-129767181D01*
X166681313Y-129745425D01*
X166634010Y-129732161D01*
X166564027Y-129724528D01*
X166459636Y-129719670D01*
X166418230Y-129718273D01*
X166158334Y-129709780D01*
X166158715Y-129631116D01*
X166168781Y-129548428D01*
X166205171Y-129498431D01*
X166278689Y-129466489D01*
X166280661Y-129465920D01*
X166384895Y-129453361D01*
X166486892Y-129469766D01*
X166562695Y-129509657D01*
X166593110Y-129529354D01*
X166625868Y-129526629D01*
X166676279Y-129498091D01*
X166705881Y-129477950D01*
X166763782Y-129434919D01*
X166799648Y-129402662D01*
X166805403Y-129393427D01*
X166781705Y-129345636D01*
X166711687Y-129288562D01*
X166681275Y-129269305D01*
X166593845Y-129236140D01*
X166476017Y-129217350D01*
X166345134Y-129213129D01*
X166218541Y-129223669D01*
X166218541Y-129223669D01*
G37*
X166218541Y-129223669D02*
X166113580Y-129249163D01*
X166083239Y-129262669D01*
X166024427Y-129298046D01*
X165979291Y-129337890D01*
X165945894Y-129389120D01*
X165922299Y-129458654D01*
X165906567Y-129553409D01*
X165896761Y-129680305D01*
X165890943Y-129846258D01*
X165888734Y-129957108D01*
X165880604Y-130436471D01*
X166019469Y-130436471D01*
X166103713Y-130432938D01*
X166147116Y-130420866D01*
X166158334Y-130400594D01*
X166164256Y-130378674D01*
X166190734Y-130382865D01*
X166226814Y-130400441D01*
X166317138Y-130427382D01*
X166433223Y-130434642D01*
X166555320Y-130422767D01*
X166663679Y-130392305D01*
X166673398Y-130388077D01*
X166772432Y-130318505D01*
X166837719Y-130221789D01*
X166867760Y-130108738D01*
X166865465Y-130068122D01*
X166620367Y-130068122D01*
X166598771Y-130122782D01*
X166534741Y-130161952D01*
X166431435Y-130182974D01*
X166376226Y-130185766D01*
X166284218Y-130178620D01*
X166223059Y-130150848D01*
X166208138Y-130137647D01*
X166167713Y-130065829D01*
X166158334Y-130000686D01*
X166158334Y-129913530D01*
X166279731Y-129913530D01*
X166420847Y-129920722D01*
X166519827Y-129943345D01*
X166582367Y-129982964D01*
X166596369Y-130000628D01*
X166620367Y-130068122D01*
X166865465Y-130068122D01*
X166861059Y-129990157D01*
X166816120Y-129876855D01*
X166754804Y-129800285D01*
X166717668Y-129767181D01*
X166681313Y-129745425D01*
X166634010Y-129732161D01*
X166564027Y-129724528D01*
X166459636Y-129719670D01*
X166418230Y-129718273D01*
X166158334Y-129709780D01*
X166158715Y-129631116D01*
X166168781Y-129548428D01*
X166205171Y-129498431D01*
X166278689Y-129466489D01*
X166280661Y-129465920D01*
X166384895Y-129453361D01*
X166486892Y-129469766D01*
X166562695Y-129509657D01*
X166593110Y-129529354D01*
X166625868Y-129526629D01*
X166676279Y-129498091D01*
X166705881Y-129477950D01*
X166763782Y-129434919D01*
X166799648Y-129402662D01*
X166805403Y-129393427D01*
X166781705Y-129345636D01*
X166711687Y-129288562D01*
X166681275Y-129269305D01*
X166593845Y-129236140D01*
X166476017Y-129217350D01*
X166345134Y-129213129D01*
X166218541Y-129223669D01*
G36*
X165036554Y-129215883D02*
X164940823Y-129234755D01*
X164886323Y-129262699D01*
X164828992Y-129309123D01*
X164910559Y-129412111D01*
X164960850Y-129474479D01*
X164994999Y-129504907D01*
X165028937Y-129509555D01*
X165078594Y-129494586D01*
X165101904Y-129486117D01*
X165196937Y-129473622D01*
X165283968Y-129500406D01*
X165347862Y-129560915D01*
X165358241Y-129580208D01*
X165369544Y-129631314D01*
X165378268Y-129725500D01*
X165384003Y-129856089D01*
X165386340Y-130016405D01*
X165386373Y-130039211D01*
X165386373Y-130436471D01*
X165660295Y-130436471D01*
X165660295Y-129216275D01*
X165523334Y-129216275D01*
X165444362Y-129218337D01*
X165403221Y-129227513D01*
X165388008Y-129248290D01*
X165386373Y-129267886D01*
X165386373Y-129319497D01*
X165320760Y-129267886D01*
X165245525Y-129232675D01*
X165144456Y-129215265D01*
X165036554Y-129215883D01*
X165036554Y-129215883D01*
G37*
X165036554Y-129215883D02*
X164940823Y-129234755D01*
X164886323Y-129262699D01*
X164828992Y-129309123D01*
X164910559Y-129412111D01*
X164960850Y-129474479D01*
X164994999Y-129504907D01*
X165028937Y-129509555D01*
X165078594Y-129494586D01*
X165101904Y-129486117D01*
X165196937Y-129473622D01*
X165283968Y-129500406D01*
X165347862Y-129560915D01*
X165358241Y-129580208D01*
X165369544Y-129631314D01*
X165378268Y-129725500D01*
X165384003Y-129856089D01*
X165386340Y-130016405D01*
X165386373Y-130039211D01*
X165386373Y-130436471D01*
X165660295Y-130436471D01*
X165660295Y-129216275D01*
X165523334Y-129216275D01*
X165444362Y-129218337D01*
X165403221Y-129227513D01*
X165388008Y-129248290D01*
X165386373Y-129267886D01*
X165386373Y-129319497D01*
X165320760Y-129267886D01*
X165245525Y-129232675D01*
X165144456Y-129215265D01*
X165036554Y-129215883D01*
G36*
X164249693Y-129222784D02*
X164130663Y-129253731D01*
X164030979Y-129317600D01*
X163982712Y-129365313D01*
X163903592Y-129478106D01*
X163858248Y-129608950D01*
X163842670Y-129769792D01*
X163842590Y-129782794D01*
X163842451Y-129913530D01*
X164594909Y-129913530D01*
X164578870Y-129982010D01*
X164549909Y-130044031D01*
X164499222Y-130108654D01*
X164488621Y-130118971D01*
X164397506Y-130174805D01*
X164293600Y-130184275D01*
X164174000Y-130147540D01*
X164153726Y-130137647D01*
X164091544Y-130107574D01*
X164049894Y-130090440D01*
X164042627Y-130088855D01*
X164017260Y-130104242D01*
X163968880Y-130141887D01*
X163944321Y-130162459D01*
X163893430Y-130209714D01*
X163876719Y-130240917D01*
X163888317Y-130269620D01*
X163894517Y-130277468D01*
X163936507Y-130311819D01*
X164005794Y-130353565D01*
X164054118Y-130377935D01*
X164191289Y-130420873D01*
X164343153Y-130434786D01*
X164486976Y-130418300D01*
X164527255Y-130406496D01*
X164651922Y-130339689D01*
X164744329Y-130236892D01*
X164805010Y-130097105D01*
X164834502Y-129919330D01*
X164837740Y-129826373D01*
X164828286Y-129691033D01*
X164589510Y-129691033D01*
X164566416Y-129701038D01*
X164504338Y-129708888D01*
X164414086Y-129713521D01*
X164352942Y-129714314D01*
X164242960Y-129713549D01*
X164173543Y-129709970D01*
X164135462Y-129701649D01*
X164119485Y-129686657D01*
X164116373Y-129664903D01*
X164137722Y-129597892D01*
X164191471Y-129531664D01*
X164262178Y-129480832D01*
X164332911Y-129460038D01*
X164428984Y-129478484D01*
X164512151Y-129531811D01*
X164569814Y-129608677D01*
X164589510Y-129691033D01*
X164828286Y-129691033D01*
X164823972Y-129629291D01*
X164781480Y-129472271D01*
X164709365Y-129354069D01*
X164606727Y-129273440D01*
X164472668Y-129229139D01*
X164400043Y-129220607D01*
X164249693Y-129222784D01*
X164249693Y-129222784D01*
G37*
X164249693Y-129222784D02*
X164130663Y-129253731D01*
X164030979Y-129317600D01*
X163982712Y-129365313D01*
X163903592Y-129478106D01*
X163858248Y-129608950D01*
X163842670Y-129769792D01*
X163842590Y-129782794D01*
X163842451Y-129913530D01*
X164594909Y-129913530D01*
X164578870Y-129982010D01*
X164549909Y-130044031D01*
X164499222Y-130108654D01*
X164488621Y-130118971D01*
X164397506Y-130174805D01*
X164293600Y-130184275D01*
X164174000Y-130147540D01*
X164153726Y-130137647D01*
X164091544Y-130107574D01*
X164049894Y-130090440D01*
X164042627Y-130088855D01*
X164017260Y-130104242D01*
X163968880Y-130141887D01*
X163944321Y-130162459D01*
X163893430Y-130209714D01*
X163876719Y-130240917D01*
X163888317Y-130269620D01*
X163894517Y-130277468D01*
X163936507Y-130311819D01*
X164005794Y-130353565D01*
X164054118Y-130377935D01*
X164191289Y-130420873D01*
X164343153Y-130434786D01*
X164486976Y-130418300D01*
X164527255Y-130406496D01*
X164651922Y-130339689D01*
X164744329Y-130236892D01*
X164805010Y-130097105D01*
X164834502Y-129919330D01*
X164837740Y-129826373D01*
X164828286Y-129691033D01*
X164589510Y-129691033D01*
X164566416Y-129701038D01*
X164504338Y-129708888D01*
X164414086Y-129713521D01*
X164352942Y-129714314D01*
X164242960Y-129713549D01*
X164173543Y-129709970D01*
X164135462Y-129701649D01*
X164119485Y-129686657D01*
X164116373Y-129664903D01*
X164137722Y-129597892D01*
X164191471Y-129531664D01*
X164262178Y-129480832D01*
X164332911Y-129460038D01*
X164428984Y-129478484D01*
X164512151Y-129531811D01*
X164569814Y-129608677D01*
X164589510Y-129691033D01*
X164828286Y-129691033D01*
X164823972Y-129629291D01*
X164781480Y-129472271D01*
X164709365Y-129354069D01*
X164606727Y-129273440D01*
X164472668Y-129229139D01*
X164400043Y-129220607D01*
X164249693Y-129222784D01*
G36*
X173301753Y-127361568D02*
X173171478Y-127419163D01*
X173072581Y-127515334D01*
X173004918Y-127650229D01*
X172968345Y-127823996D01*
X172965724Y-127851126D01*
X172963670Y-128042408D01*
X172990301Y-128210073D01*
X173043999Y-128345967D01*
X173072753Y-128389681D01*
X173172909Y-128482198D01*
X173300463Y-128542119D01*
X173443163Y-128566985D01*
X173588760Y-128554339D01*
X173699438Y-128515391D01*
X173794616Y-128449755D01*
X173872406Y-128363699D01*
X173873751Y-128361685D01*
X173905343Y-128308570D01*
X173925873Y-128255160D01*
X173938305Y-128187754D01*
X173945603Y-128092653D01*
X173948818Y-128014666D01*
X173950156Y-127943944D01*
X173701186Y-127943944D01*
X173698753Y-128014348D01*
X173689920Y-128108068D01*
X173674336Y-128168214D01*
X173646234Y-128211006D01*
X173619914Y-128236002D01*
X173526608Y-128288338D01*
X173428980Y-128295333D01*
X173338058Y-128257676D01*
X173292598Y-128215479D01*
X173259838Y-128172956D01*
X173240677Y-128132267D01*
X173232267Y-128079314D01*
X173231763Y-127999997D01*
X173234355Y-127926950D01*
X173239929Y-127822601D01*
X173248766Y-127754920D01*
X173264693Y-127710774D01*
X173291538Y-127677031D01*
X173312811Y-127657746D01*
X173401794Y-127607086D01*
X173497789Y-127604560D01*
X173578281Y-127634567D01*
X173646947Y-127697231D01*
X173687856Y-127800168D01*
X173701186Y-127943944D01*
X173950156Y-127943944D01*
X173951754Y-127859582D01*
X173946740Y-127743600D01*
X173931717Y-127656367D01*
X173904624Y-127587530D01*
X173863400Y-127526737D01*
X173848115Y-127508686D01*
X173752546Y-127418746D01*
X173650039Y-127366211D01*
X173524679Y-127344201D01*
X173463550Y-127342402D01*
X173301753Y-127361568D01*
X173301753Y-127361568D01*
G37*
X173301753Y-127361568D02*
X173171478Y-127419163D01*
X173072581Y-127515334D01*
X173004918Y-127650229D01*
X172968345Y-127823996D01*
X172965724Y-127851126D01*
X172963670Y-128042408D01*
X172990301Y-128210073D01*
X173043999Y-128345967D01*
X173072753Y-128389681D01*
X173172909Y-128482198D01*
X173300463Y-128542119D01*
X173443163Y-128566985D01*
X173588760Y-128554339D01*
X173699438Y-128515391D01*
X173794616Y-128449755D01*
X173872406Y-128363699D01*
X173873751Y-128361685D01*
X173905343Y-128308570D01*
X173925873Y-128255160D01*
X173938305Y-128187754D01*
X173945603Y-128092653D01*
X173948818Y-128014666D01*
X173950156Y-127943944D01*
X173701186Y-127943944D01*
X173698753Y-128014348D01*
X173689920Y-128108068D01*
X173674336Y-128168214D01*
X173646234Y-128211006D01*
X173619914Y-128236002D01*
X173526608Y-128288338D01*
X173428980Y-128295333D01*
X173338058Y-128257676D01*
X173292598Y-128215479D01*
X173259838Y-128172956D01*
X173240677Y-128132267D01*
X173232267Y-128079314D01*
X173231763Y-127999997D01*
X173234355Y-127926950D01*
X173239929Y-127822601D01*
X173248766Y-127754920D01*
X173264693Y-127710774D01*
X173291538Y-127677031D01*
X173312811Y-127657746D01*
X173401794Y-127607086D01*
X173497789Y-127604560D01*
X173578281Y-127634567D01*
X173646947Y-127697231D01*
X173687856Y-127800168D01*
X173701186Y-127943944D01*
X173950156Y-127943944D01*
X173951754Y-127859582D01*
X173946740Y-127743600D01*
X173931717Y-127656367D01*
X173904624Y-127587530D01*
X173863400Y-127526737D01*
X173848115Y-127508686D01*
X173752546Y-127418746D01*
X173650039Y-127366211D01*
X173524679Y-127344201D01*
X173463550Y-127342402D01*
X173301753Y-127361568D01*
G36*
X170961796Y-127376354D02*
X170936981Y-127388037D01*
X170851094Y-127450951D01*
X170769879Y-127542769D01*
X170709236Y-127643868D01*
X170691988Y-127690349D01*
X170676251Y-127773376D01*
X170666867Y-127873713D01*
X170665728Y-127915147D01*
X170665589Y-128045882D01*
X171418047Y-128045882D01*
X171402007Y-128114363D01*
X171362637Y-128195355D01*
X171293806Y-128265351D01*
X171211919Y-128310441D01*
X171159737Y-128319804D01*
X171088971Y-128308441D01*
X171004540Y-128279943D01*
X170975858Y-128266831D01*
X170869791Y-128213858D01*
X170779272Y-128282901D01*
X170727039Y-128329597D01*
X170699247Y-128368140D01*
X170697840Y-128379452D01*
X170722668Y-128406868D01*
X170777083Y-128448532D01*
X170826472Y-128481037D01*
X170959748Y-128539468D01*
X171109161Y-128565915D01*
X171257249Y-128559039D01*
X171375295Y-128523096D01*
X171496982Y-128446101D01*
X171583460Y-128344728D01*
X171637559Y-128213570D01*
X171662109Y-128047224D01*
X171664286Y-127971108D01*
X171655573Y-127796685D01*
X171654503Y-127791611D01*
X171405173Y-127791611D01*
X171398306Y-127807968D01*
X171370083Y-127816988D01*
X171311873Y-127820854D01*
X171215042Y-127821749D01*
X171177757Y-127821765D01*
X171064317Y-127820413D01*
X170992378Y-127815505D01*
X170953687Y-127805760D01*
X170939995Y-127789899D01*
X170939510Y-127784805D01*
X170955137Y-127744326D01*
X170994247Y-127687621D01*
X171011061Y-127667766D01*
X171073481Y-127611611D01*
X171138547Y-127589532D01*
X171173603Y-127587686D01*
X171268442Y-127610766D01*
X171347973Y-127672759D01*
X171398423Y-127762802D01*
X171399317Y-127765735D01*
X171405173Y-127791611D01*
X171654503Y-127791611D01*
X171626601Y-127659343D01*
X171574410Y-127549461D01*
X171510579Y-127471461D01*
X171392567Y-127386882D01*
X171253842Y-127341686D01*
X171106290Y-127337600D01*
X170961796Y-127376354D01*
X170961796Y-127376354D01*
G37*
X170961796Y-127376354D02*
X170936981Y-127388037D01*
X170851094Y-127450951D01*
X170769879Y-127542769D01*
X170709236Y-127643868D01*
X170691988Y-127690349D01*
X170676251Y-127773376D01*
X170666867Y-127873713D01*
X170665728Y-127915147D01*
X170665589Y-128045882D01*
X171418047Y-128045882D01*
X171402007Y-128114363D01*
X171362637Y-128195355D01*
X171293806Y-128265351D01*
X171211919Y-128310441D01*
X171159737Y-128319804D01*
X171088971Y-128308441D01*
X171004540Y-128279943D01*
X170975858Y-128266831D01*
X170869791Y-128213858D01*
X170779272Y-128282901D01*
X170727039Y-128329597D01*
X170699247Y-128368140D01*
X170697840Y-128379452D01*
X170722668Y-128406868D01*
X170777083Y-128448532D01*
X170826472Y-128481037D01*
X170959748Y-128539468D01*
X171109161Y-128565915D01*
X171257249Y-128559039D01*
X171375295Y-128523096D01*
X171496982Y-128446101D01*
X171583460Y-128344728D01*
X171637559Y-128213570D01*
X171662109Y-128047224D01*
X171664286Y-127971108D01*
X171655573Y-127796685D01*
X171654503Y-127791611D01*
X171405173Y-127791611D01*
X171398306Y-127807968D01*
X171370083Y-127816988D01*
X171311873Y-127820854D01*
X171215042Y-127821749D01*
X171177757Y-127821765D01*
X171064317Y-127820413D01*
X170992378Y-127815505D01*
X170953687Y-127805760D01*
X170939995Y-127789899D01*
X170939510Y-127784805D01*
X170955137Y-127744326D01*
X170994247Y-127687621D01*
X171011061Y-127667766D01*
X171073481Y-127611611D01*
X171138547Y-127589532D01*
X171173603Y-127587686D01*
X171268442Y-127610766D01*
X171347973Y-127672759D01*
X171398423Y-127762802D01*
X171399317Y-127765735D01*
X171405173Y-127791611D01*
X171654503Y-127791611D01*
X171626601Y-127659343D01*
X171574410Y-127549461D01*
X171510579Y-127471461D01*
X171392567Y-127386882D01*
X171253842Y-127341686D01*
X171106290Y-127337600D01*
X170961796Y-127376354D01*
G36*
X168247241Y-127344345D02*
X168152941Y-127362229D01*
X168055110Y-127399633D01*
X168044657Y-127404402D01*
X167970469Y-127443412D01*
X167919090Y-127479664D01*
X167902483Y-127502887D01*
X167918298Y-127540761D01*
X167956712Y-127596644D01*
X167973763Y-127617505D01*
X168044031Y-127699618D01*
X168134621Y-127646168D01*
X168220836Y-127610561D01*
X168320451Y-127591529D01*
X168415981Y-127590326D01*
X168489939Y-127608210D01*
X168507688Y-127619373D01*
X168541488Y-127670553D01*
X168545596Y-127729509D01*
X168520304Y-127775567D01*
X168505344Y-127784499D01*
X168460514Y-127795592D01*
X168381714Y-127808630D01*
X168284574Y-127821088D01*
X168266654Y-127823042D01*
X168110635Y-127850030D01*
X167997477Y-127895873D01*
X167922431Y-127964803D01*
X167880747Y-128061054D01*
X167867762Y-128178617D01*
X167885701Y-128312254D01*
X167943950Y-128417195D01*
X168042745Y-128493630D01*
X168182318Y-128541748D01*
X168337255Y-128560732D01*
X168463602Y-128560504D01*
X168566087Y-128543262D01*
X168636079Y-128519457D01*
X168724517Y-128477978D01*
X168806246Y-128429842D01*
X168835295Y-128408655D01*
X168910000Y-128347676D01*
X168819902Y-128256508D01*
X168729804Y-128165339D01*
X168627368Y-128233128D01*
X168524626Y-128284042D01*
X168414913Y-128310673D01*
X168309449Y-128313483D01*
X168219454Y-128292935D01*
X168156146Y-128249493D01*
X168135704Y-128212838D01*
X168138771Y-128154053D01*
X168189566Y-128109099D01*
X168287952Y-128078057D01*
X168395744Y-128063710D01*
X168561635Y-128036337D01*
X168684876Y-127984693D01*
X168767114Y-127907266D01*
X168809999Y-127802544D01*
X168815940Y-127678387D01*
X168786594Y-127548702D01*
X168719691Y-127450677D01*
X168614629Y-127383866D01*
X168470810Y-127347820D01*
X168364262Y-127340754D01*
X168247241Y-127344345D01*
X168247241Y-127344345D01*
G37*
X168247241Y-127344345D02*
X168152941Y-127362229D01*
X168055110Y-127399633D01*
X168044657Y-127404402D01*
X167970469Y-127443412D01*
X167919090Y-127479664D01*
X167902483Y-127502887D01*
X167918298Y-127540761D01*
X167956712Y-127596644D01*
X167973763Y-127617505D01*
X168044031Y-127699618D01*
X168134621Y-127646168D01*
X168220836Y-127610561D01*
X168320451Y-127591529D01*
X168415981Y-127590326D01*
X168489939Y-127608210D01*
X168507688Y-127619373D01*
X168541488Y-127670553D01*
X168545596Y-127729509D01*
X168520304Y-127775567D01*
X168505344Y-127784499D01*
X168460514Y-127795592D01*
X168381714Y-127808630D01*
X168284574Y-127821088D01*
X168266654Y-127823042D01*
X168110635Y-127850030D01*
X167997477Y-127895873D01*
X167922431Y-127964803D01*
X167880747Y-128061054D01*
X167867762Y-128178617D01*
X167885701Y-128312254D01*
X167943950Y-128417195D01*
X168042745Y-128493630D01*
X168182318Y-128541748D01*
X168337255Y-128560732D01*
X168463602Y-128560504D01*
X168566087Y-128543262D01*
X168636079Y-128519457D01*
X168724517Y-128477978D01*
X168806246Y-128429842D01*
X168835295Y-128408655D01*
X168910000Y-128347676D01*
X168819902Y-128256508D01*
X168729804Y-128165339D01*
X168627368Y-128233128D01*
X168524626Y-128284042D01*
X168414913Y-128310673D01*
X168309449Y-128313483D01*
X168219454Y-128292935D01*
X168156146Y-128249493D01*
X168135704Y-128212838D01*
X168138771Y-128154053D01*
X168189566Y-128109099D01*
X168287952Y-128078057D01*
X168395744Y-128063710D01*
X168561635Y-128036337D01*
X168684876Y-127984693D01*
X168767114Y-127907266D01*
X168809999Y-127802544D01*
X168815940Y-127678387D01*
X168786594Y-127548702D01*
X168719691Y-127450677D01*
X168614629Y-127383866D01*
X168470810Y-127347820D01*
X168364262Y-127340754D01*
X168247241Y-127344345D01*
G36*
X167065453Y-127363364D02*
X166939498Y-127431959D01*
X166840953Y-127540245D01*
X166794522Y-127628315D01*
X166774588Y-127706101D01*
X166761672Y-127816993D01*
X166756137Y-127944738D01*
X166758346Y-128073084D01*
X166768663Y-128185779D01*
X166780714Y-128245969D01*
X166821366Y-128328311D01*
X166891770Y-128415770D01*
X166976618Y-128492251D01*
X167060603Y-128541655D01*
X167062651Y-128542439D01*
X167166866Y-128564027D01*
X167290373Y-128564562D01*
X167407739Y-128544908D01*
X167453058Y-128529155D01*
X167569780Y-128462966D01*
X167653376Y-128376246D01*
X167708299Y-128261438D01*
X167739005Y-128110982D01*
X167745953Y-128032173D01*
X167745067Y-127933145D01*
X167478138Y-127933145D01*
X167469146Y-128077645D01*
X167443264Y-128187760D01*
X167402132Y-128258116D01*
X167372828Y-128278235D01*
X167297749Y-128292265D01*
X167208506Y-128288111D01*
X167131350Y-128267922D01*
X167111117Y-128256815D01*
X167057735Y-128192123D01*
X167022500Y-128093119D01*
X167007502Y-127972632D01*
X167014828Y-127843494D01*
X167031201Y-127765775D01*
X167078210Y-127675771D01*
X167152418Y-127619509D01*
X167241791Y-127600057D01*
X167334293Y-127620481D01*
X167405347Y-127670437D01*
X167442688Y-127711655D01*
X167464482Y-127752281D01*
X167474870Y-127807264D01*
X167477994Y-127891549D01*
X167478138Y-127933145D01*
X167745067Y-127933145D01*
X167744070Y-127821874D01*
X167709820Y-127649423D01*
X167643198Y-127514814D01*
X167544201Y-127418040D01*
X167412825Y-127359094D01*
X167384615Y-127352259D01*
X167215074Y-127336213D01*
X167065453Y-127363364D01*
X167065453Y-127363364D01*
G37*
X167065453Y-127363364D02*
X166939498Y-127431959D01*
X166840953Y-127540245D01*
X166794522Y-127628315D01*
X166774588Y-127706101D01*
X166761672Y-127816993D01*
X166756137Y-127944738D01*
X166758346Y-128073084D01*
X166768663Y-128185779D01*
X166780714Y-128245969D01*
X166821366Y-128328311D01*
X166891770Y-128415770D01*
X166976618Y-128492251D01*
X167060603Y-128541655D01*
X167062651Y-128542439D01*
X167166866Y-128564027D01*
X167290373Y-128564562D01*
X167407739Y-128544908D01*
X167453058Y-128529155D01*
X167569780Y-128462966D01*
X167653376Y-128376246D01*
X167708299Y-128261438D01*
X167739005Y-128110982D01*
X167745953Y-128032173D01*
X167745067Y-127933145D01*
X167478138Y-127933145D01*
X167469146Y-128077645D01*
X167443264Y-128187760D01*
X167402132Y-128258116D01*
X167372828Y-128278235D01*
X167297749Y-128292265D01*
X167208506Y-128288111D01*
X167131350Y-128267922D01*
X167111117Y-128256815D01*
X167057735Y-128192123D01*
X167022500Y-128093119D01*
X167007502Y-127972632D01*
X167014828Y-127843494D01*
X167031201Y-127765775D01*
X167078210Y-127675771D01*
X167152418Y-127619509D01*
X167241791Y-127600057D01*
X167334293Y-127620481D01*
X167405347Y-127670437D01*
X167442688Y-127711655D01*
X167464482Y-127752281D01*
X167474870Y-127807264D01*
X167477994Y-127891549D01*
X167478138Y-127933145D01*
X167745067Y-127933145D01*
X167744070Y-127821874D01*
X167709820Y-127649423D01*
X167643198Y-127514814D01*
X167544201Y-127418040D01*
X167412825Y-127359094D01*
X167384615Y-127352259D01*
X167215074Y-127336213D01*
X167065453Y-127363364D01*
G36*
X166307746Y-127736245D02*
X166305392Y-127918879D01*
X166296793Y-128057600D01*
X166279640Y-128158147D01*
X166251626Y-128226254D01*
X166210443Y-128267659D01*
X166153783Y-128288097D01*
X166083628Y-128293318D01*
X166010152Y-128287468D01*
X165954343Y-128266093D01*
X165913891Y-128223458D01*
X165886491Y-128153825D01*
X165869833Y-128051460D01*
X165861611Y-127910624D01*
X165859510Y-127736245D01*
X165859510Y-127348628D01*
X165585589Y-127348628D01*
X165585589Y-128543922D01*
X165722549Y-128543922D01*
X165805116Y-128540576D01*
X165847632Y-128528826D01*
X165859510Y-128506520D01*
X165866664Y-128486654D01*
X165895135Y-128490857D01*
X165952524Y-128518971D01*
X166084055Y-128562342D01*
X166223562Y-128559270D01*
X166357235Y-128512174D01*
X166420892Y-128474971D01*
X166469447Y-128434691D01*
X166504919Y-128384291D01*
X166529326Y-128316729D01*
X166544687Y-128224965D01*
X166553018Y-128101955D01*
X166556338Y-127940659D01*
X166556765Y-127815928D01*
X166556765Y-127348628D01*
X166307746Y-127348628D01*
X166307746Y-127736245D01*
X166307746Y-127736245D01*
G37*
X166307746Y-127736245D02*
X166305392Y-127918879D01*
X166296793Y-128057600D01*
X166279640Y-128158147D01*
X166251626Y-128226254D01*
X166210443Y-128267659D01*
X166153783Y-128288097D01*
X166083628Y-128293318D01*
X166010152Y-128287468D01*
X165954343Y-128266093D01*
X165913891Y-128223458D01*
X165886491Y-128153825D01*
X165869833Y-128051460D01*
X165861611Y-127910624D01*
X165859510Y-127736245D01*
X165859510Y-127348628D01*
X165585589Y-127348628D01*
X165585589Y-128543922D01*
X165722549Y-128543922D01*
X165805116Y-128540576D01*
X165847632Y-128528826D01*
X165859510Y-128506520D01*
X165866664Y-128486654D01*
X165895135Y-128490857D01*
X165952524Y-128518971D01*
X166084055Y-128562342D01*
X166223562Y-128559270D01*
X166357235Y-128512174D01*
X166420892Y-128474971D01*
X166469447Y-128434691D01*
X166504919Y-128384291D01*
X166529326Y-128316729D01*
X166544687Y-128224965D01*
X166553018Y-128101955D01*
X166556338Y-127940659D01*
X166556765Y-127815928D01*
X166556765Y-127348628D01*
X166307746Y-127348628D01*
X166307746Y-127736245D01*
G36*
X163884024Y-127359056D02*
X163739744Y-127420348D01*
X163694301Y-127450185D01*
X163636221Y-127496036D01*
X163599762Y-127532089D01*
X163593432Y-127543832D01*
X163611307Y-127569889D01*
X163657050Y-127614105D01*
X163693672Y-127644965D01*
X163793912Y-127725520D01*
X163873065Y-127658918D01*
X163934231Y-127615921D01*
X163993871Y-127601079D01*
X164062128Y-127604704D01*
X164170518Y-127631652D01*
X164245128Y-127687587D01*
X164290470Y-127778014D01*
X164311053Y-127908435D01*
X164311058Y-127908517D01*
X164309278Y-128054290D01*
X164281613Y-128161245D01*
X164226429Y-128234064D01*
X164188808Y-128258723D01*
X164088895Y-128289431D01*
X163982178Y-128289449D01*
X163889331Y-128259655D01*
X163867353Y-128245098D01*
X163812235Y-128207914D01*
X163769141Y-128201820D01*
X163722665Y-128229496D01*
X163671284Y-128279205D01*
X163589954Y-128363116D01*
X163680251Y-128437546D01*
X163819764Y-128521549D01*
X163977088Y-128562947D01*
X164141497Y-128559950D01*
X164249469Y-128532500D01*
X164375669Y-128464620D01*
X164476599Y-128357831D01*
X164522452Y-128282451D01*
X164559590Y-128174297D01*
X164578173Y-128037318D01*
X164578316Y-127888864D01*
X164560135Y-127746281D01*
X164523745Y-127626918D01*
X164518013Y-127614680D01*
X164433135Y-127494655D01*
X164318218Y-127407267D01*
X164182341Y-127354329D01*
X164034583Y-127337654D01*
X163884024Y-127359056D01*
X163884024Y-127359056D01*
G37*
X163884024Y-127359056D02*
X163739744Y-127420348D01*
X163694301Y-127450185D01*
X163636221Y-127496036D01*
X163599762Y-127532089D01*
X163593432Y-127543832D01*
X163611307Y-127569889D01*
X163657050Y-127614105D01*
X163693672Y-127644965D01*
X163793912Y-127725520D01*
X163873065Y-127658918D01*
X163934231Y-127615921D01*
X163993871Y-127601079D01*
X164062128Y-127604704D01*
X164170518Y-127631652D01*
X164245128Y-127687587D01*
X164290470Y-127778014D01*
X164311053Y-127908435D01*
X164311058Y-127908517D01*
X164309278Y-128054290D01*
X164281613Y-128161245D01*
X164226429Y-128234064D01*
X164188808Y-128258723D01*
X164088895Y-128289431D01*
X163982178Y-128289449D01*
X163889331Y-128259655D01*
X163867353Y-128245098D01*
X163812235Y-128207914D01*
X163769141Y-128201820D01*
X163722665Y-128229496D01*
X163671284Y-128279205D01*
X163589954Y-128363116D01*
X163680251Y-128437546D01*
X163819764Y-128521549D01*
X163977088Y-128562947D01*
X164141497Y-128559950D01*
X164249469Y-128532500D01*
X164375669Y-128464620D01*
X164476599Y-128357831D01*
X164522452Y-128282451D01*
X164559590Y-128174297D01*
X164578173Y-128037318D01*
X164578316Y-127888864D01*
X164560135Y-127746281D01*
X164523745Y-127626918D01*
X164518013Y-127614680D01*
X164433135Y-127494655D01*
X164318218Y-127407267D01*
X164182341Y-127354329D01*
X164034583Y-127337654D01*
X163884024Y-127359056D01*
G36*
X162971713Y-127344355D02*
X162907949Y-127359845D01*
X162785700Y-127416569D01*
X162681166Y-127503202D01*
X162608820Y-127607074D01*
X162598881Y-127630396D01*
X162585246Y-127691484D01*
X162575702Y-127781853D01*
X162572451Y-127873190D01*
X162572451Y-128045882D01*
X162933530Y-128045882D01*
X163082454Y-128046445D01*
X163187368Y-128049864D01*
X163254063Y-128058731D01*
X163288334Y-128075641D01*
X163295972Y-128103189D01*
X163282771Y-128143968D01*
X163259123Y-128191683D01*
X163193157Y-128271314D01*
X163101488Y-128310987D01*
X162989445Y-128309695D01*
X162862528Y-128266514D01*
X162752842Y-128213224D01*
X162661827Y-128285191D01*
X162570812Y-128357157D01*
X162656437Y-128436269D01*
X162770750Y-128511017D01*
X162911334Y-128556084D01*
X163062551Y-128568696D01*
X163208764Y-128546079D01*
X163232353Y-128538405D01*
X163360859Y-128471296D01*
X163456449Y-128371247D01*
X163521139Y-128235271D01*
X163556943Y-128060380D01*
X163557360Y-128056632D01*
X163560566Y-127866032D01*
X163547607Y-127798035D01*
X163294608Y-127798035D01*
X163271373Y-127808491D01*
X163208290Y-127816500D01*
X163115294Y-127821073D01*
X163056362Y-127821765D01*
X162946463Y-127821332D01*
X162877748Y-127818578D01*
X162841595Y-127811321D01*
X162829385Y-127797376D01*
X162832496Y-127774562D01*
X162835106Y-127765735D01*
X162879656Y-127682800D01*
X162949721Y-127615960D01*
X163011554Y-127586589D01*
X163093699Y-127588362D01*
X163176938Y-127624990D01*
X163246762Y-127685634D01*
X163288663Y-127759456D01*
X163294608Y-127798035D01*
X163547607Y-127798035D01*
X163528615Y-127698395D01*
X163465227Y-127557711D01*
X163374122Y-127447974D01*
X163259022Y-127373174D01*
X163123645Y-127337304D01*
X162971713Y-127344355D01*
X162971713Y-127344355D01*
G37*
X162971713Y-127344355D02*
X162907949Y-127359845D01*
X162785700Y-127416569D01*
X162681166Y-127503202D01*
X162608820Y-127607074D01*
X162598881Y-127630396D01*
X162585246Y-127691484D01*
X162575702Y-127781853D01*
X162572451Y-127873190D01*
X162572451Y-128045882D01*
X162933530Y-128045882D01*
X163082454Y-128046445D01*
X163187368Y-128049864D01*
X163254063Y-128058731D01*
X163288334Y-128075641D01*
X163295972Y-128103189D01*
X163282771Y-128143968D01*
X163259123Y-128191683D01*
X163193157Y-128271314D01*
X163101488Y-128310987D01*
X162989445Y-128309695D01*
X162862528Y-128266514D01*
X162752842Y-128213224D01*
X162661827Y-128285191D01*
X162570812Y-128357157D01*
X162656437Y-128436269D01*
X162770750Y-128511017D01*
X162911334Y-128556084D01*
X163062551Y-128568696D01*
X163208764Y-128546079D01*
X163232353Y-128538405D01*
X163360859Y-128471296D01*
X163456449Y-128371247D01*
X163521139Y-128235271D01*
X163556943Y-128060380D01*
X163557360Y-128056632D01*
X163560566Y-127866032D01*
X163547607Y-127798035D01*
X163294608Y-127798035D01*
X163271373Y-127808491D01*
X163208290Y-127816500D01*
X163115294Y-127821073D01*
X163056362Y-127821765D01*
X162946463Y-127821332D01*
X162877748Y-127818578D01*
X162841595Y-127811321D01*
X162829385Y-127797376D01*
X162832496Y-127774562D01*
X162835106Y-127765735D01*
X162879656Y-127682800D01*
X162949721Y-127615960D01*
X163011554Y-127586589D01*
X163093699Y-127588362D01*
X163176938Y-127624990D01*
X163246762Y-127685634D01*
X163288663Y-127759456D01*
X163294608Y-127798035D01*
X163547607Y-127798035D01*
X163528615Y-127698395D01*
X163465227Y-127557711D01*
X163374122Y-127447974D01*
X163259022Y-127373174D01*
X163123645Y-127337304D01*
X162971713Y-127344355D01*
G36*
X169768240Y-127369199D02*
X169706264Y-127398802D01*
X169646241Y-127441561D01*
X169600514Y-127490775D01*
X169567207Y-127553544D01*
X169544445Y-127636971D01*
X169530353Y-127748159D01*
X169523058Y-127894209D01*
X169520682Y-128082223D01*
X169520645Y-128101912D01*
X169520098Y-128543922D01*
X169794020Y-128543922D01*
X169794020Y-128136435D01*
X169794215Y-127985471D01*
X169795564Y-127876056D01*
X169799212Y-127799933D01*
X169806304Y-127748848D01*
X169817987Y-127714545D01*
X169835406Y-127688768D01*
X169859671Y-127663298D01*
X169944565Y-127608571D01*
X170037239Y-127598416D01*
X170125527Y-127633017D01*
X170156230Y-127658770D01*
X170178771Y-127682982D01*
X170194954Y-127708912D01*
X170205832Y-127744708D01*
X170212458Y-127798519D01*
X170215885Y-127878493D01*
X170217166Y-127992779D01*
X170217353Y-128131907D01*
X170217353Y-128543922D01*
X170491275Y-128543922D01*
X170491275Y-127348628D01*
X170354314Y-127348628D01*
X170272084Y-127351879D01*
X170229660Y-127363426D01*
X170217359Y-127385952D01*
X170217353Y-127386620D01*
X170211646Y-127408681D01*
X170186473Y-127406177D01*
X170136422Y-127381937D01*
X170022906Y-127346271D01*
X169893055Y-127342305D01*
X169768240Y-127369199D01*
X169768240Y-127369199D01*
G37*
X169768240Y-127369199D02*
X169706264Y-127398802D01*
X169646241Y-127441561D01*
X169600514Y-127490775D01*
X169567207Y-127553544D01*
X169544445Y-127636971D01*
X169530353Y-127748159D01*
X169523058Y-127894209D01*
X169520682Y-128082223D01*
X169520645Y-128101912D01*
X169520098Y-128543922D01*
X169794020Y-128543922D01*
X169794020Y-128136435D01*
X169794215Y-127985471D01*
X169795564Y-127876056D01*
X169799212Y-127799933D01*
X169806304Y-127748848D01*
X169817987Y-127714545D01*
X169835406Y-127688768D01*
X169859671Y-127663298D01*
X169944565Y-127608571D01*
X170037239Y-127598416D01*
X170125527Y-127633017D01*
X170156230Y-127658770D01*
X170178771Y-127682982D01*
X170194954Y-127708912D01*
X170205832Y-127744708D01*
X170212458Y-127798519D01*
X170215885Y-127878493D01*
X170217166Y-127992779D01*
X170217353Y-128131907D01*
X170217353Y-128543922D01*
X170491275Y-128543922D01*
X170491275Y-127348628D01*
X170354314Y-127348628D01*
X170272084Y-127351879D01*
X170229660Y-127363426D01*
X170217359Y-127385952D01*
X170217353Y-127386620D01*
X170211646Y-127408681D01*
X170186473Y-127406177D01*
X170136422Y-127381937D01*
X170022906Y-127346271D01*
X169893055Y-127342305D01*
X169768240Y-127369199D01*
G36*
X164711363Y-127347472D02*
X164625710Y-127373641D01*
X164570563Y-127406707D01*
X164552599Y-127432855D01*
X164557543Y-127463852D01*
X164589628Y-127512547D01*
X164616757Y-127547035D01*
X164672683Y-127609383D01*
X164714701Y-127635615D01*
X164750520Y-127633903D01*
X164856776Y-127606863D01*
X164934811Y-127608091D01*
X164998180Y-127638735D01*
X165019454Y-127656670D01*
X165087549Y-127719779D01*
X165087549Y-128543922D01*
X165361471Y-128543922D01*
X165361471Y-127348628D01*
X165224510Y-127348628D01*
X165142281Y-127351879D01*
X165099856Y-127363426D01*
X165087555Y-127385952D01*
X165087549Y-127386620D01*
X165081740Y-127410215D01*
X165055469Y-127407138D01*
X165019069Y-127390115D01*
X164943889Y-127358439D01*
X164882842Y-127339381D01*
X164804292Y-127334496D01*
X164711363Y-127347472D01*
X164711363Y-127347472D01*
G37*
X164711363Y-127347472D02*
X164625710Y-127373641D01*
X164570563Y-127406707D01*
X164552599Y-127432855D01*
X164557543Y-127463852D01*
X164589628Y-127512547D01*
X164616757Y-127547035D01*
X164672683Y-127609383D01*
X164714701Y-127635615D01*
X164750520Y-127633903D01*
X164856776Y-127606863D01*
X164934811Y-127608091D01*
X164998180Y-127638735D01*
X165019454Y-127656670D01*
X165087549Y-127719779D01*
X165087549Y-128543922D01*
X165361471Y-128543922D01*
X165361471Y-127348628D01*
X165224510Y-127348628D01*
X165142281Y-127351879D01*
X165099856Y-127363426D01*
X165087555Y-127385952D01*
X165087549Y-127386620D01*
X165081740Y-127410215D01*
X165055469Y-127407138D01*
X165019069Y-127390115D01*
X164943889Y-127358439D01*
X164882842Y-127339381D01*
X164804292Y-127334496D01*
X164711363Y-127347472D01*
G36*
X167528465Y-119093172D02*
X167415883Y-119690363D01*
X167000469Y-119861610D01*
X166585056Y-120032857D01*
X166086698Y-119693978D01*
X165947132Y-119599622D01*
X165820972Y-119515375D01*
X165714105Y-119445083D01*
X165632418Y-119392592D01*
X165581799Y-119361749D01*
X165568014Y-119355098D01*
X165543180Y-119372203D01*
X165490112Y-119419489D01*
X165414760Y-119490917D01*
X165323071Y-119580445D01*
X165220993Y-119682034D01*
X165114474Y-119789643D01*
X165009464Y-119897232D01*
X164911909Y-119998760D01*
X164827758Y-120088186D01*
X164762960Y-120159471D01*
X164723462Y-120206573D01*
X164714020Y-120222337D01*
X164727609Y-120251398D01*
X164765707Y-120315066D01*
X164824306Y-120407112D01*
X164899403Y-120521309D01*
X164986991Y-120651429D01*
X165037746Y-120725646D01*
X165130255Y-120861167D01*
X165212460Y-120983461D01*
X165280370Y-121086440D01*
X165330000Y-121164018D01*
X165357360Y-121210106D01*
X165361471Y-121219792D01*
X165352151Y-121247319D01*
X165326746Y-121311473D01*
X165289089Y-121403235D01*
X165243014Y-121513584D01*
X165192354Y-121633500D01*
X165140941Y-121753964D01*
X165092611Y-121865954D01*
X165051194Y-121960452D01*
X165020526Y-122028437D01*
X165004438Y-122060888D01*
X165003489Y-122062165D01*
X164978228Y-122068362D01*
X164910954Y-122082185D01*
X164808640Y-122102277D01*
X164678259Y-122127279D01*
X164526784Y-122155831D01*
X164438406Y-122172296D01*
X164276548Y-122203114D01*
X164130351Y-122232439D01*
X164007213Y-122258666D01*
X163914531Y-122280191D01*
X163859699Y-122295410D01*
X163848677Y-122300238D01*
X163837881Y-122332919D01*
X163829171Y-122406730D01*
X163822540Y-122513037D01*
X163817982Y-122643212D01*
X163815491Y-122788621D01*
X163815062Y-122940635D01*
X163816689Y-123090622D01*
X163820365Y-123229951D01*
X163826085Y-123349990D01*
X163833842Y-123442110D01*
X163843632Y-123497677D01*
X163849504Y-123509245D01*
X163884601Y-123523110D01*
X163958972Y-123542933D01*
X164062777Y-123566384D01*
X164186181Y-123591136D01*
X164229259Y-123599143D01*
X164436953Y-123637186D01*
X164601016Y-123667824D01*
X164726870Y-123692274D01*
X164819935Y-123711754D01*
X164885633Y-123727481D01*
X164929383Y-123740673D01*
X164956608Y-123752549D01*
X164972728Y-123764325D01*
X164974983Y-123766653D01*
X164997497Y-123804145D01*
X165031842Y-123877110D01*
X165074589Y-123976612D01*
X165122308Y-124093718D01*
X165171570Y-124219493D01*
X165218945Y-124345002D01*
X165261005Y-124461310D01*
X165294320Y-124559484D01*
X165315459Y-124630588D01*
X165320995Y-124665687D01*
X165320534Y-124666917D01*
X165301777Y-124695606D01*
X165259224Y-124758730D01*
X165197347Y-124849718D01*
X165120618Y-124962000D01*
X165033509Y-125089005D01*
X165008701Y-125125098D01*
X164920247Y-125255948D01*
X164842412Y-125375336D01*
X164779434Y-125476407D01*
X164735555Y-125552304D01*
X164715015Y-125596172D01*
X164714020Y-125601562D01*
X164731278Y-125629889D01*
X164778964Y-125686006D01*
X164850950Y-125763882D01*
X164941103Y-125857485D01*
X165043295Y-125960786D01*
X165151394Y-126067751D01*
X165259272Y-126172351D01*
X165360796Y-126268554D01*
X165449838Y-126350329D01*
X165520267Y-126411645D01*
X165565953Y-126446471D01*
X165578591Y-126452157D01*
X165608009Y-126438765D01*
X165668239Y-126402644D01*
X165749470Y-126349881D01*
X165811970Y-126307412D01*
X165925215Y-126229485D01*
X166059326Y-126137729D01*
X166193845Y-126046120D01*
X166266167Y-125997091D01*
X166510962Y-125831515D01*
X166716449Y-125942620D01*
X166810064Y-125991293D01*
X166889670Y-126029126D01*
X166943533Y-126050703D01*
X166957243Y-126053706D01*
X166973730Y-126031538D01*
X167006255Y-125968894D01*
X167052391Y-125871554D01*
X167109710Y-125745294D01*
X167175784Y-125595895D01*
X167248185Y-125429133D01*
X167324484Y-125250787D01*
X167402254Y-125066636D01*
X167479066Y-124882457D01*
X167552494Y-124704030D01*
X167620108Y-124537132D01*
X167679480Y-124387542D01*
X167728184Y-124261038D01*
X167763790Y-124163399D01*
X167783870Y-124100402D01*
X167787100Y-124078766D01*
X167761504Y-124051169D01*
X167705461Y-124006370D01*
X167630689Y-123953679D01*
X167624413Y-123949510D01*
X167431155Y-123794814D01*
X167275326Y-123614336D01*
X167158276Y-123413847D01*
X167081355Y-123199119D01*
X167045914Y-122975922D01*
X167053303Y-122750026D01*
X167104873Y-122527204D01*
X167201974Y-122313224D01*
X167230542Y-122266409D01*
X167379132Y-122077363D01*
X167554673Y-121925557D01*
X167751090Y-121811779D01*
X167962307Y-121736820D01*
X168182247Y-121701467D01*
X168404837Y-121706512D01*
X168623999Y-121752744D01*
X168833658Y-121840951D01*
X169027739Y-121971924D01*
X169087774Y-122025082D01*
X169240565Y-122191484D01*
X169351903Y-122366657D01*
X169428277Y-122563011D01*
X169470813Y-122757462D01*
X169481314Y-122976087D01*
X169446299Y-123195797D01*
X169369327Y-123409165D01*
X169253953Y-123608767D01*
X169103734Y-123787174D01*
X168922227Y-123936962D01*
X168898373Y-123952751D01*
X168822799Y-124004457D01*
X168765349Y-124049257D01*
X168737883Y-124077862D01*
X168737483Y-124078766D01*
X168743380Y-124109709D01*
X168766755Y-124179936D01*
X168805179Y-124283670D01*
X168856223Y-124415135D01*
X168917458Y-124568552D01*
X168986456Y-124738146D01*
X169060786Y-124918138D01*
X169138022Y-125102753D01*
X169215732Y-125286213D01*
X169291489Y-125462741D01*
X169362863Y-125626559D01*
X169427426Y-125771892D01*
X169482748Y-125892962D01*
X169526400Y-125983992D01*
X169555954Y-126039205D01*
X169567856Y-126053706D01*
X169604223Y-126042414D01*
X169672270Y-126012130D01*
X169760263Y-125968265D01*
X169808649Y-125942620D01*
X170014137Y-125831515D01*
X170258932Y-125997091D01*
X170383894Y-126081915D01*
X170520705Y-126175261D01*
X170648911Y-126263153D01*
X170713129Y-126307412D01*
X170803449Y-126368063D01*
X170879929Y-126416126D01*
X170932593Y-126445515D01*
X170949698Y-126451727D01*
X170974595Y-126434968D01*
X171029695Y-126388181D01*
X171109657Y-126316225D01*
X171209139Y-126223957D01*
X171322800Y-126116235D01*
X171394685Y-126047071D01*
X171520449Y-125923502D01*
X171629137Y-125812979D01*
X171716355Y-125720230D01*
X171777711Y-125649982D01*
X171808809Y-125606965D01*
X171811792Y-125598235D01*
X171797947Y-125565029D01*
X171759688Y-125497887D01*
X171701258Y-125403608D01*
X171626903Y-125288990D01*
X171540865Y-125160828D01*
X171516397Y-125125098D01*
X171427245Y-124995234D01*
X171347262Y-124878314D01*
X171280920Y-124780907D01*
X171232689Y-124709584D01*
X171207043Y-124670915D01*
X171204565Y-124666917D01*
X171208271Y-124636100D01*
X171227939Y-124568344D01*
X171260140Y-124472584D01*
X171301445Y-124357754D01*
X171348425Y-124232789D01*
X171397651Y-124106624D01*
X171445692Y-123988193D01*
X171489119Y-123886430D01*
X171524504Y-123810271D01*
X171548416Y-123768649D01*
X171550116Y-123766653D01*
X171564738Y-123754758D01*
X171589435Y-123742995D01*
X171629628Y-123730146D01*
X171690737Y-123714994D01*
X171778183Y-123696321D01*
X171897388Y-123672910D01*
X172053773Y-123643542D01*
X172252757Y-123607000D01*
X172295840Y-123599143D01*
X172423529Y-123574472D01*
X172534847Y-123550338D01*
X172619955Y-123529069D01*
X172669017Y-123512993D01*
X172675595Y-123509245D01*
X172686436Y-123476018D01*
X172695247Y-123401766D01*
X172702024Y-123295121D01*
X172706760Y-123164712D01*
X172709450Y-123019172D01*
X172710087Y-122867131D01*
X172708666Y-122717221D01*
X172705180Y-122578073D01*
X172699624Y-122458317D01*
X172691992Y-122366586D01*
X172682278Y-122311511D01*
X172676422Y-122300238D01*
X172643820Y-122288868D01*
X172569582Y-122270369D01*
X172461104Y-122246347D01*
X172325783Y-122218407D01*
X172171015Y-122188153D01*
X172086692Y-122172296D01*
X171926704Y-122142389D01*
X171784033Y-122115295D01*
X171665652Y-122092376D01*
X171578535Y-122074988D01*
X171529655Y-122064492D01*
X171521610Y-122062165D01*
X171508013Y-122035931D01*
X171479271Y-121972740D01*
X171439215Y-121881622D01*
X171391676Y-121771602D01*
X171340485Y-121651710D01*
X171289474Y-121530972D01*
X171242474Y-121418416D01*
X171203316Y-121323071D01*
X171175831Y-121253962D01*
X171163851Y-121220119D01*
X171163628Y-121218640D01*
X171177209Y-121191942D01*
X171215285Y-121130505D01*
X171273853Y-121040434D01*
X171348912Y-120927835D01*
X171436460Y-120798815D01*
X171487353Y-120724706D01*
X171580091Y-120588822D01*
X171662459Y-120465454D01*
X171730439Y-120360842D01*
X171780012Y-120281228D01*
X171807158Y-120232852D01*
X171811079Y-120222007D01*
X171794225Y-120196765D01*
X171747632Y-120142869D01*
X171677251Y-120066358D01*
X171589035Y-119973268D01*
X171488935Y-119869640D01*
X171382902Y-119761509D01*
X171276889Y-119654915D01*
X171176848Y-119555895D01*
X171088730Y-119470487D01*
X171018487Y-119404730D01*
X170972072Y-119364661D01*
X170956544Y-119355098D01*
X170931261Y-119368545D01*
X170870789Y-119406320D01*
X170781008Y-119464580D01*
X170667797Y-119539479D01*
X170537036Y-119627170D01*
X170438400Y-119693978D01*
X169940043Y-120032857D01*
X169524629Y-119861610D01*
X169109216Y-119690363D01*
X168996634Y-119093172D01*
X168884051Y-118495980D01*
X167641048Y-118495980D01*
X167528465Y-119093172D01*
X167528465Y-119093172D01*
G37*
X167528465Y-119093172D02*
X167415883Y-119690363D01*
X167000469Y-119861610D01*
X166585056Y-120032857D01*
X166086698Y-119693978D01*
X165947132Y-119599622D01*
X165820972Y-119515375D01*
X165714105Y-119445083D01*
X165632418Y-119392592D01*
X165581799Y-119361749D01*
X165568014Y-119355098D01*
X165543180Y-119372203D01*
X165490112Y-119419489D01*
X165414760Y-119490917D01*
X165323071Y-119580445D01*
X165220993Y-119682034D01*
X165114474Y-119789643D01*
X165009464Y-119897232D01*
X164911909Y-119998760D01*
X164827758Y-120088186D01*
X164762960Y-120159471D01*
X164723462Y-120206573D01*
X164714020Y-120222337D01*
X164727609Y-120251398D01*
X164765707Y-120315066D01*
X164824306Y-120407112D01*
X164899403Y-120521309D01*
X164986991Y-120651429D01*
X165037746Y-120725646D01*
X165130255Y-120861167D01*
X165212460Y-120983461D01*
X165280370Y-121086440D01*
X165330000Y-121164018D01*
X165357360Y-121210106D01*
X165361471Y-121219792D01*
X165352151Y-121247319D01*
X165326746Y-121311473D01*
X165289089Y-121403235D01*
X165243014Y-121513584D01*
X165192354Y-121633500D01*
X165140941Y-121753964D01*
X165092611Y-121865954D01*
X165051194Y-121960452D01*
X165020526Y-122028437D01*
X165004438Y-122060888D01*
X165003489Y-122062165D01*
X164978228Y-122068362D01*
X164910954Y-122082185D01*
X164808640Y-122102277D01*
X164678259Y-122127279D01*
X164526784Y-122155831D01*
X164438406Y-122172296D01*
X164276548Y-122203114D01*
X164130351Y-122232439D01*
X164007213Y-122258666D01*
X163914531Y-122280191D01*
X163859699Y-122295410D01*
X163848677Y-122300238D01*
X163837881Y-122332919D01*
X163829171Y-122406730D01*
X163822540Y-122513037D01*
X163817982Y-122643212D01*
X163815491Y-122788621D01*
X163815062Y-122940635D01*
X163816689Y-123090622D01*
X163820365Y-123229951D01*
X163826085Y-123349990D01*
X163833842Y-123442110D01*
X163843632Y-123497677D01*
X163849504Y-123509245D01*
X163884601Y-123523110D01*
X163958972Y-123542933D01*
X164062777Y-123566384D01*
X164186181Y-123591136D01*
X164229259Y-123599143D01*
X164436953Y-123637186D01*
X164601016Y-123667824D01*
X164726870Y-123692274D01*
X164819935Y-123711754D01*
X164885633Y-123727481D01*
X164929383Y-123740673D01*
X164956608Y-123752549D01*
X164972728Y-123764325D01*
X164974983Y-123766653D01*
X164997497Y-123804145D01*
X165031842Y-123877110D01*
X165074589Y-123976612D01*
X165122308Y-124093718D01*
X165171570Y-124219493D01*
X165218945Y-124345002D01*
X165261005Y-124461310D01*
X165294320Y-124559484D01*
X165315459Y-124630588D01*
X165320995Y-124665687D01*
X165320534Y-124666917D01*
X165301777Y-124695606D01*
X165259224Y-124758730D01*
X165197347Y-124849718D01*
X165120618Y-124962000D01*
X165033509Y-125089005D01*
X165008701Y-125125098D01*
X164920247Y-125255948D01*
X164842412Y-125375336D01*
X164779434Y-125476407D01*
X164735555Y-125552304D01*
X164715015Y-125596172D01*
X164714020Y-125601562D01*
X164731278Y-125629889D01*
X164778964Y-125686006D01*
X164850950Y-125763882D01*
X164941103Y-125857485D01*
X165043295Y-125960786D01*
X165151394Y-126067751D01*
X165259272Y-126172351D01*
X165360796Y-126268554D01*
X165449838Y-126350329D01*
X165520267Y-126411645D01*
X165565953Y-126446471D01*
X165578591Y-126452157D01*
X165608009Y-126438765D01*
X165668239Y-126402644D01*
X165749470Y-126349881D01*
X165811970Y-126307412D01*
X165925215Y-126229485D01*
X166059326Y-126137729D01*
X166193845Y-126046120D01*
X166266167Y-125997091D01*
X166510962Y-125831515D01*
X166716449Y-125942620D01*
X166810064Y-125991293D01*
X166889670Y-126029126D01*
X166943533Y-126050703D01*
X166957243Y-126053706D01*
X166973730Y-126031538D01*
X167006255Y-125968894D01*
X167052391Y-125871554D01*
X167109710Y-125745294D01*
X167175784Y-125595895D01*
X167248185Y-125429133D01*
X167324484Y-125250787D01*
X167402254Y-125066636D01*
X167479066Y-124882457D01*
X167552494Y-124704030D01*
X167620108Y-124537132D01*
X167679480Y-124387542D01*
X167728184Y-124261038D01*
X167763790Y-124163399D01*
X167783870Y-124100402D01*
X167787100Y-124078766D01*
X167761504Y-124051169D01*
X167705461Y-124006370D01*
X167630689Y-123953679D01*
X167624413Y-123949510D01*
X167431155Y-123794814D01*
X167275326Y-123614336D01*
X167158276Y-123413847D01*
X167081355Y-123199119D01*
X167045914Y-122975922D01*
X167053303Y-122750026D01*
X167104873Y-122527204D01*
X167201974Y-122313224D01*
X167230542Y-122266409D01*
X167379132Y-122077363D01*
X167554673Y-121925557D01*
X167751090Y-121811779D01*
X167962307Y-121736820D01*
X168182247Y-121701467D01*
X168404837Y-121706512D01*
X168623999Y-121752744D01*
X168833658Y-121840951D01*
X169027739Y-121971924D01*
X169087774Y-122025082D01*
X169240565Y-122191484D01*
X169351903Y-122366657D01*
X169428277Y-122563011D01*
X169470813Y-122757462D01*
X169481314Y-122976087D01*
X169446299Y-123195797D01*
X169369327Y-123409165D01*
X169253953Y-123608767D01*
X169103734Y-123787174D01*
X168922227Y-123936962D01*
X168898373Y-123952751D01*
X168822799Y-124004457D01*
X168765349Y-124049257D01*
X168737883Y-124077862D01*
X168737483Y-124078766D01*
X168743380Y-124109709D01*
X168766755Y-124179936D01*
X168805179Y-124283670D01*
X168856223Y-124415135D01*
X168917458Y-124568552D01*
X168986456Y-124738146D01*
X169060786Y-124918138D01*
X169138022Y-125102753D01*
X169215732Y-125286213D01*
X169291489Y-125462741D01*
X169362863Y-125626559D01*
X169427426Y-125771892D01*
X169482748Y-125892962D01*
X169526400Y-125983992D01*
X169555954Y-126039205D01*
X169567856Y-126053706D01*
X169604223Y-126042414D01*
X169672270Y-126012130D01*
X169760263Y-125968265D01*
X169808649Y-125942620D01*
X170014137Y-125831515D01*
X170258932Y-125997091D01*
X170383894Y-126081915D01*
X170520705Y-126175261D01*
X170648911Y-126263153D01*
X170713129Y-126307412D01*
X170803449Y-126368063D01*
X170879929Y-126416126D01*
X170932593Y-126445515D01*
X170949698Y-126451727D01*
X170974595Y-126434968D01*
X171029695Y-126388181D01*
X171109657Y-126316225D01*
X171209139Y-126223957D01*
X171322800Y-126116235D01*
X171394685Y-126047071D01*
X171520449Y-125923502D01*
X171629137Y-125812979D01*
X171716355Y-125720230D01*
X171777711Y-125649982D01*
X171808809Y-125606965D01*
X171811792Y-125598235D01*
X171797947Y-125565029D01*
X171759688Y-125497887D01*
X171701258Y-125403608D01*
X171626903Y-125288990D01*
X171540865Y-125160828D01*
X171516397Y-125125098D01*
X171427245Y-124995234D01*
X171347262Y-124878314D01*
X171280920Y-124780907D01*
X171232689Y-124709584D01*
X171207043Y-124670915D01*
X171204565Y-124666917D01*
X171208271Y-124636100D01*
X171227939Y-124568344D01*
X171260140Y-124472584D01*
X171301445Y-124357754D01*
X171348425Y-124232789D01*
X171397651Y-124106624D01*
X171445692Y-123988193D01*
X171489119Y-123886430D01*
X171524504Y-123810271D01*
X171548416Y-123768649D01*
X171550116Y-123766653D01*
X171564738Y-123754758D01*
X171589435Y-123742995D01*
X171629628Y-123730146D01*
X171690737Y-123714994D01*
X171778183Y-123696321D01*
X171897388Y-123672910D01*
X172053773Y-123643542D01*
X172252757Y-123607000D01*
X172295840Y-123599143D01*
X172423529Y-123574472D01*
X172534847Y-123550338D01*
X172619955Y-123529069D01*
X172669017Y-123512993D01*
X172675595Y-123509245D01*
X172686436Y-123476018D01*
X172695247Y-123401766D01*
X172702024Y-123295121D01*
X172706760Y-123164712D01*
X172709450Y-123019172D01*
X172710087Y-122867131D01*
X172708666Y-122717221D01*
X172705180Y-122578073D01*
X172699624Y-122458317D01*
X172691992Y-122366586D01*
X172682278Y-122311511D01*
X172676422Y-122300238D01*
X172643820Y-122288868D01*
X172569582Y-122270369D01*
X172461104Y-122246347D01*
X172325783Y-122218407D01*
X172171015Y-122188153D01*
X172086692Y-122172296D01*
X171926704Y-122142389D01*
X171784033Y-122115295D01*
X171665652Y-122092376D01*
X171578535Y-122074988D01*
X171529655Y-122064492D01*
X171521610Y-122062165D01*
X171508013Y-122035931D01*
X171479271Y-121972740D01*
X171439215Y-121881622D01*
X171391676Y-121771602D01*
X171340485Y-121651710D01*
X171289474Y-121530972D01*
X171242474Y-121418416D01*
X171203316Y-121323071D01*
X171175831Y-121253962D01*
X171163851Y-121220119D01*
X171163628Y-121218640D01*
X171177209Y-121191942D01*
X171215285Y-121130505D01*
X171273853Y-121040434D01*
X171348912Y-120927835D01*
X171436460Y-120798815D01*
X171487353Y-120724706D01*
X171580091Y-120588822D01*
X171662459Y-120465454D01*
X171730439Y-120360842D01*
X171780012Y-120281228D01*
X171807158Y-120232852D01*
X171811079Y-120222007D01*
X171794225Y-120196765D01*
X171747632Y-120142869D01*
X171677251Y-120066358D01*
X171589035Y-119973268D01*
X171488935Y-119869640D01*
X171382902Y-119761509D01*
X171276889Y-119654915D01*
X171176848Y-119555895D01*
X171088730Y-119470487D01*
X171018487Y-119404730D01*
X170972072Y-119364661D01*
X170956544Y-119355098D01*
X170931261Y-119368545D01*
X170870789Y-119406320D01*
X170781008Y-119464580D01*
X170667797Y-119539479D01*
X170537036Y-119627170D01*
X170438400Y-119693978D01*
X169940043Y-120032857D01*
X169524629Y-119861610D01*
X169109216Y-119690363D01*
X168996634Y-119093172D01*
X168884051Y-118495980D01*
X167641048Y-118495980D01*
X167528465Y-119093172D01*
D14*
X153564955Y-139787381D02*
X152993526Y-139787381D01*
X153279241Y-140787381D02*
X153279241Y-139787381D01*
X152660193Y-140787381D02*
X152660193Y-139787381D01*
X152231621Y-140787381D02*
X152231621Y-140263571D01*
X152279240Y-140168333D01*
X152374478Y-140120714D01*
X152517336Y-140120714D01*
X152612574Y-140168333D01*
X152660193Y-140215952D01*
X151755431Y-140787381D02*
X151755431Y-140120714D01*
X151755431Y-139787381D02*
X151803050Y-139835000D01*
X151755431Y-139882619D01*
X151707812Y-139835000D01*
X151755431Y-139787381D01*
X151755431Y-139882619D01*
X151326860Y-140739762D02*
X151231622Y-140787381D01*
X151041146Y-140787381D01*
X150945907Y-140739762D01*
X150898288Y-140644524D01*
X150898288Y-140596905D01*
X150945907Y-140501667D01*
X151041146Y-140454048D01*
X151184003Y-140454048D01*
X151279241Y-140406429D01*
X151326860Y-140311190D01*
X151326860Y-140263571D01*
X151279241Y-140168333D01*
X151184003Y-140120714D01*
X151041146Y-140120714D01*
X150945907Y-140168333D01*
X149755431Y-140739762D02*
X149660193Y-140787381D01*
X149469717Y-140787381D01*
X149374478Y-140739762D01*
X149326859Y-140644524D01*
X149326859Y-140596905D01*
X149374478Y-140501667D01*
X149469717Y-140454048D01*
X149612574Y-140454048D01*
X149707812Y-140406429D01*
X149755431Y-140311190D01*
X149755431Y-140263571D01*
X149707812Y-140168333D01*
X149612574Y-140120714D01*
X149469717Y-140120714D01*
X149374478Y-140168333D01*
X148898288Y-140787381D02*
X148898288Y-140120714D01*
X148898288Y-139787381D02*
X148945907Y-139835000D01*
X148898288Y-139882619D01*
X148850669Y-139835000D01*
X148898288Y-139787381D01*
X148898288Y-139882619D01*
X147993526Y-140787381D02*
X147993526Y-139787381D01*
X147993526Y-140739762D02*
X148088764Y-140787381D01*
X148279241Y-140787381D01*
X148374479Y-140739762D01*
X148422098Y-140692143D01*
X148469717Y-140596905D01*
X148469717Y-140311190D01*
X148422098Y-140215952D01*
X148374479Y-140168333D01*
X148279241Y-140120714D01*
X148088764Y-140120714D01*
X147993526Y-140168333D01*
X147136383Y-140739762D02*
X147231621Y-140787381D01*
X147422098Y-140787381D01*
X147517336Y-140739762D01*
X147564955Y-140644524D01*
X147564955Y-140263571D01*
X147517336Y-140168333D01*
X147422098Y-140120714D01*
X147231621Y-140120714D01*
X147136383Y-140168333D01*
X147088764Y-140263571D01*
X147088764Y-140358810D01*
X147564955Y-140454048D01*
X146041145Y-140120714D02*
X145660193Y-140120714D01*
X145898288Y-139787381D02*
X145898288Y-140644524D01*
X145850669Y-140739762D01*
X145755431Y-140787381D01*
X145660193Y-140787381D01*
X145184002Y-140787381D02*
X145279240Y-140739762D01*
X145326859Y-140692143D01*
X145374478Y-140596905D01*
X145374478Y-140311190D01*
X145326859Y-140215952D01*
X145279240Y-140168333D01*
X145184002Y-140120714D01*
X145041144Y-140120714D01*
X144945906Y-140168333D01*
X144898287Y-140215952D01*
X144850668Y-140311190D01*
X144850668Y-140596905D01*
X144898287Y-140692143D01*
X144945906Y-140739762D01*
X145041144Y-140787381D01*
X145184002Y-140787381D01*
X144517335Y-140120714D02*
X144326859Y-140787381D01*
X144136382Y-140311190D01*
X143945906Y-140787381D01*
X143755430Y-140120714D01*
X142945906Y-140787381D02*
X142945906Y-140263571D01*
X142993525Y-140168333D01*
X143088763Y-140120714D01*
X143279240Y-140120714D01*
X143374478Y-140168333D01*
X142945906Y-140739762D02*
X143041144Y-140787381D01*
X143279240Y-140787381D01*
X143374478Y-140739762D01*
X143422097Y-140644524D01*
X143422097Y-140549286D01*
X143374478Y-140454048D01*
X143279240Y-140406429D01*
X143041144Y-140406429D01*
X142945906Y-140358810D01*
X142469716Y-140787381D02*
X142469716Y-140120714D01*
X142469716Y-140311190D02*
X142422097Y-140215952D01*
X142374478Y-140168333D01*
X142279240Y-140120714D01*
X142184001Y-140120714D01*
X141422096Y-140787381D02*
X141422096Y-139787381D01*
X141422096Y-140739762D02*
X141517334Y-140787381D01*
X141707811Y-140787381D01*
X141803049Y-140739762D01*
X141850668Y-140692143D01*
X141898287Y-140596905D01*
X141898287Y-140311190D01*
X141850668Y-140215952D01*
X141803049Y-140168333D01*
X141707811Y-140120714D01*
X141517334Y-140120714D01*
X141422096Y-140168333D01*
X140993525Y-140739762D02*
X140898287Y-140787381D01*
X140707811Y-140787381D01*
X140612572Y-140739762D01*
X140564953Y-140644524D01*
X140564953Y-140596905D01*
X140612572Y-140501667D01*
X140707811Y-140454048D01*
X140850668Y-140454048D01*
X140945906Y-140406429D01*
X140993525Y-140311190D01*
X140993525Y-140263571D01*
X140945906Y-140168333D01*
X140850668Y-140120714D01*
X140707811Y-140120714D01*
X140612572Y-140168333D01*
X139374477Y-140787381D02*
X139374477Y-140120714D01*
X139374477Y-140311190D02*
X139326858Y-140215952D01*
X139279239Y-140168333D01*
X139184001Y-140120714D01*
X139088762Y-140120714D01*
X138374476Y-140739762D02*
X138469714Y-140787381D01*
X138660191Y-140787381D01*
X138755429Y-140739762D01*
X138803048Y-140644524D01*
X138803048Y-140263571D01*
X138755429Y-140168333D01*
X138660191Y-140120714D01*
X138469714Y-140120714D01*
X138374476Y-140168333D01*
X138326857Y-140263571D01*
X138326857Y-140358810D01*
X138803048Y-140454048D01*
X137469714Y-140787381D02*
X137469714Y-140263571D01*
X137517333Y-140168333D01*
X137612571Y-140120714D01*
X137803048Y-140120714D01*
X137898286Y-140168333D01*
X137469714Y-140739762D02*
X137564952Y-140787381D01*
X137803048Y-140787381D01*
X137898286Y-140739762D01*
X137945905Y-140644524D01*
X137945905Y-140549286D01*
X137898286Y-140454048D01*
X137803048Y-140406429D01*
X137564952Y-140406429D01*
X137469714Y-140358810D01*
X136993524Y-140787381D02*
X136993524Y-140120714D01*
X136993524Y-140311190D02*
X136945905Y-140215952D01*
X136898286Y-140168333D01*
X136803048Y-140120714D01*
X136707809Y-140120714D01*
X135469714Y-140787381D02*
X135564952Y-140739762D01*
X135612571Y-140692143D01*
X135660190Y-140596905D01*
X135660190Y-140311190D01*
X135612571Y-140215952D01*
X135564952Y-140168333D01*
X135469714Y-140120714D01*
X135326856Y-140120714D01*
X135231618Y-140168333D01*
X135183999Y-140215952D01*
X135136380Y-140311190D01*
X135136380Y-140596905D01*
X135183999Y-140692143D01*
X135231618Y-140739762D01*
X135326856Y-140787381D01*
X135469714Y-140787381D01*
X134850666Y-140120714D02*
X134469714Y-140120714D01*
X134707809Y-140787381D02*
X134707809Y-139930238D01*
X134660190Y-139835000D01*
X134564952Y-139787381D01*
X134469714Y-139787381D01*
X132945903Y-140739762D02*
X133041141Y-140787381D01*
X133231618Y-140787381D01*
X133326856Y-140739762D01*
X133374475Y-140692143D01*
X133422094Y-140596905D01*
X133422094Y-140311190D01*
X133374475Y-140215952D01*
X133326856Y-140168333D01*
X133231618Y-140120714D01*
X133041141Y-140120714D01*
X132945903Y-140168333D01*
X132374475Y-140787381D02*
X132469713Y-140739762D01*
X132517332Y-140692143D01*
X132564951Y-140596905D01*
X132564951Y-140311190D01*
X132517332Y-140215952D01*
X132469713Y-140168333D01*
X132374475Y-140120714D01*
X132231617Y-140120714D01*
X132136379Y-140168333D01*
X132088760Y-140215952D01*
X132041141Y-140311190D01*
X132041141Y-140596905D01*
X132088760Y-140692143D01*
X132136379Y-140739762D01*
X132231617Y-140787381D01*
X132374475Y-140787381D01*
X131612570Y-140787381D02*
X131612570Y-140120714D01*
X131612570Y-140215952D02*
X131564951Y-140168333D01*
X131469713Y-140120714D01*
X131326855Y-140120714D01*
X131231617Y-140168333D01*
X131183998Y-140263571D01*
X131183998Y-140787381D01*
X131183998Y-140263571D02*
X131136379Y-140168333D01*
X131041141Y-140120714D01*
X130898284Y-140120714D01*
X130803046Y-140168333D01*
X130755427Y-140263571D01*
X130755427Y-140787381D01*
X130279237Y-140120714D02*
X130279237Y-141120714D01*
X130279237Y-140168333D02*
X130183999Y-140120714D01*
X129993522Y-140120714D01*
X129898284Y-140168333D01*
X129850665Y-140215952D01*
X129803046Y-140311190D01*
X129803046Y-140596905D01*
X129850665Y-140692143D01*
X129898284Y-140739762D01*
X129993522Y-140787381D01*
X130183999Y-140787381D01*
X130279237Y-140739762D01*
X128945903Y-140120714D02*
X128945903Y-140787381D01*
X129374475Y-140120714D02*
X129374475Y-140644524D01*
X129326856Y-140739762D01*
X129231618Y-140787381D01*
X129088760Y-140787381D01*
X128993522Y-140739762D01*
X128945903Y-140692143D01*
X128612570Y-140120714D02*
X128231618Y-140120714D01*
X128469713Y-139787381D02*
X128469713Y-140644524D01*
X128422094Y-140739762D01*
X128326856Y-140787381D01*
X128231618Y-140787381D01*
X127517331Y-140739762D02*
X127612569Y-140787381D01*
X127803046Y-140787381D01*
X127898284Y-140739762D01*
X127945903Y-140644524D01*
X127945903Y-140263571D01*
X127898284Y-140168333D01*
X127803046Y-140120714D01*
X127612569Y-140120714D01*
X127517331Y-140168333D01*
X127469712Y-140263571D01*
X127469712Y-140358810D01*
X127945903Y-140454048D01*
X127041141Y-140787381D02*
X127041141Y-140120714D01*
X127041141Y-140311190D02*
X126993522Y-140215952D01*
X126945903Y-140168333D01*
X126850665Y-140120714D01*
X126755426Y-140120714D01*
X125374473Y-141168333D02*
X125422093Y-141120714D01*
X125517331Y-140977857D01*
X125564950Y-140882619D01*
X125612569Y-140739762D01*
X125660188Y-140501667D01*
X125660188Y-140311190D01*
X125612569Y-140073095D01*
X125564950Y-139930238D01*
X125517331Y-139835000D01*
X125422093Y-139692143D01*
X125374473Y-139644524D01*
X125041140Y-140501667D02*
X124564949Y-140501667D01*
X125136378Y-140787381D02*
X124803045Y-139787381D01*
X124469711Y-140787381D01*
X124231616Y-141168333D02*
X124183997Y-141120714D01*
X124088759Y-140977857D01*
X124041140Y-140882619D01*
X123993521Y-140739762D01*
X123945902Y-140501667D01*
X123945902Y-140311190D01*
X123993521Y-140073095D01*
X124041140Y-139930238D01*
X124088759Y-139835000D01*
X124183997Y-139692143D01*
X124231616Y-139644524D01*
M02*
