G04 #@! TF.FileFunction,Copper,L2,Bot,Signal*
%FSLAX46Y46*%
G04 Gerber Fmt 4.6, Leading zero omitted, Abs format (unit mm)*
G04 Created by KiCad (PCBNEW 4.0.7) date 05/19/18 23:16:30*
%MOMM*%
%LPD*%
G01*
G04 APERTURE LIST*
%ADD10C,0.100000*%
%ADD11C,3.000000*%
%ADD12R,1.850000X1.850000*%
%ADD13C,1.850000*%
%ADD14R,1.700000X1.700000*%
%ADD15O,1.700000X1.700000*%
%ADD16R,1.600000X1.600000*%
%ADD17O,1.600000X1.600000*%
%ADD18R,1.000000X6.000000*%
%ADD19R,1.000000X8.000000*%
%ADD20C,0.800000*%
%ADD21C,0.600000*%
%ADD22C,1.000000*%
%ADD23C,0.250000*%
%ADD24C,0.254000*%
G04 APERTURE END LIST*
D10*
D11*
X102904000Y-49930000D03*
X116044000Y-49930000D03*
D12*
X102235000Y-88900000D03*
D13*
X102235000Y-91400000D03*
D14*
X124968000Y-98044000D03*
D15*
X124968000Y-100584000D03*
X127508000Y-98044000D03*
X127508000Y-100584000D03*
X130048000Y-98044000D03*
X130048000Y-100584000D03*
X132588000Y-98044000D03*
X132588000Y-100584000D03*
X135128000Y-98044000D03*
X135128000Y-100584000D03*
X137668000Y-98044000D03*
X137668000Y-100584000D03*
X140208000Y-98044000D03*
X140208000Y-100584000D03*
X142748000Y-98044000D03*
X142748000Y-100584000D03*
X145288000Y-98044000D03*
X145288000Y-100584000D03*
X147828000Y-98044000D03*
X147828000Y-100584000D03*
X150368000Y-98044000D03*
X150368000Y-100584000D03*
X152908000Y-98044000D03*
X152908000Y-100584000D03*
X155448000Y-98044000D03*
X155448000Y-100584000D03*
X157988000Y-98044000D03*
X157988000Y-100584000D03*
X160528000Y-98044000D03*
X160528000Y-100584000D03*
X163068000Y-98044000D03*
X163068000Y-100584000D03*
X165608000Y-98044000D03*
X165608000Y-100584000D03*
D12*
X102235000Y-74295000D03*
D13*
X102235000Y-76795000D03*
X102235000Y-79295000D03*
X102235000Y-81795000D03*
D16*
X139700000Y-58420000D03*
D17*
X124460000Y-91440000D03*
X139700000Y-60960000D03*
X124460000Y-88900000D03*
X139700000Y-63500000D03*
X124460000Y-86360000D03*
X139700000Y-66040000D03*
X124460000Y-83820000D03*
X139700000Y-68580000D03*
X124460000Y-81280000D03*
X139700000Y-71120000D03*
X124460000Y-78740000D03*
X139700000Y-73660000D03*
X124460000Y-76200000D03*
X139700000Y-76200000D03*
X124460000Y-73660000D03*
X139700000Y-78740000D03*
X124460000Y-71120000D03*
X139700000Y-81280000D03*
X124460000Y-68580000D03*
X139700000Y-83820000D03*
X124460000Y-66040000D03*
X139700000Y-86360000D03*
X124460000Y-63500000D03*
X139700000Y-88900000D03*
X124460000Y-60960000D03*
X139700000Y-91440000D03*
X124460000Y-58420000D03*
D16*
X165735000Y-58420000D03*
D17*
X150495000Y-91440000D03*
X165735000Y-60960000D03*
X150495000Y-88900000D03*
X165735000Y-63500000D03*
X150495000Y-86360000D03*
X165735000Y-66040000D03*
X150495000Y-83820000D03*
X165735000Y-68580000D03*
X150495000Y-81280000D03*
X165735000Y-71120000D03*
X150495000Y-78740000D03*
X165735000Y-73660000D03*
X150495000Y-76200000D03*
X165735000Y-76200000D03*
X150495000Y-73660000D03*
X165735000Y-78740000D03*
X150495000Y-71120000D03*
X165735000Y-81280000D03*
X150495000Y-68580000D03*
X165735000Y-83820000D03*
X150495000Y-66040000D03*
X165735000Y-86360000D03*
X150495000Y-63500000D03*
X165735000Y-88900000D03*
X150495000Y-60960000D03*
X165735000Y-91440000D03*
X150495000Y-58420000D03*
D18*
X165354000Y-145050000D03*
D19*
X162814000Y-146050000D03*
X160274000Y-146050000D03*
X157734000Y-146050000D03*
X155194000Y-146050000D03*
X152654000Y-146050000D03*
X150114000Y-146050000D03*
X147574000Y-146050000D03*
X145034000Y-146050000D03*
X142494000Y-146050000D03*
X139954000Y-146050000D03*
X137414000Y-146050000D03*
X134874000Y-146050000D03*
X132334000Y-146050000D03*
X129794000Y-146050000D03*
X127254000Y-146050000D03*
X124714000Y-146050000D03*
X122174000Y-146050000D03*
X119634000Y-146050000D03*
X117094000Y-146050000D03*
X114554000Y-146050000D03*
X112014000Y-146050000D03*
D20*
X111252000Y-89154000D03*
X165354000Y-140716000D03*
X113284000Y-105156000D03*
X117348000Y-96266000D03*
X121158000Y-101092000D03*
X159004000Y-131572000D03*
X165862000Y-56134000D03*
X141224000Y-103378000D03*
X141224000Y-116395002D03*
X136652000Y-132588000D03*
X141224000Y-132842000D03*
X147574000Y-132842000D03*
X147828000Y-129286000D03*
X111252000Y-110490000D03*
X135128000Y-56134000D03*
X122682000Y-99822000D03*
X112014000Y-140462000D03*
X111252000Y-96012000D03*
X115316000Y-91186000D03*
X111252000Y-91186000D03*
X111252000Y-105156000D03*
D21*
X109474000Y-76708000D03*
X109728000Y-74168000D03*
X139192000Y-117348000D03*
X147066000Y-83820000D03*
X119634000Y-136398000D03*
X119634000Y-139700000D03*
X147828000Y-86360000D03*
X153416000Y-90170000D03*
X156972000Y-128016000D03*
X154178000Y-91440000D03*
X151130000Y-127254000D03*
X151130000Y-123952000D03*
X151130000Y-118872000D03*
X154940000Y-88900000D03*
X151892000Y-118364000D03*
X151892000Y-124714000D03*
X155702000Y-86360000D03*
X152654000Y-124206000D03*
X152654000Y-118872000D03*
X156464000Y-83820000D03*
X153416000Y-124714000D03*
X153416000Y-118364000D03*
X157226000Y-81280000D03*
X154178000Y-124206000D03*
X154178000Y-118872000D03*
X157988000Y-82550000D03*
X158750000Y-78740000D03*
X159512000Y-76200000D03*
X160274000Y-73660000D03*
X161036000Y-71120000D03*
X162052000Y-68580000D03*
X162814000Y-66040000D03*
X163576000Y-63500000D03*
X119888000Y-73660000D03*
X121412000Y-73660000D03*
X119380000Y-80010000D03*
X121412000Y-80010000D03*
X119380000Y-78740000D03*
X121412000Y-78740000D03*
X154940000Y-138684000D03*
X160274000Y-128016000D03*
X160274000Y-123444000D03*
X157480000Y-124968000D03*
X154940000Y-124968000D03*
X157988000Y-125730000D03*
X155956000Y-125730000D03*
X155194000Y-140970000D03*
X157480000Y-126492000D03*
X150368000Y-126492000D03*
X150368000Y-136906000D03*
X148590000Y-123952000D03*
X147574000Y-139446000D03*
X148590000Y-117348000D03*
X137414000Y-115824000D03*
X136652000Y-115062000D03*
X135890000Y-114300000D03*
X135128000Y-113538000D03*
X147574000Y-123952000D03*
X148590000Y-116332000D03*
X148844000Y-133858000D03*
X134366000Y-112776000D03*
X136398000Y-119126000D03*
X114554000Y-140462000D03*
X120142000Y-97536000D03*
X159766000Y-138938000D03*
X128270000Y-111760000D03*
X157734000Y-138938000D03*
X127254000Y-127254000D03*
D22*
X117348000Y-89916000D02*
X117348000Y-96266000D01*
X116586000Y-89154000D02*
X117348000Y-89916000D01*
X111252000Y-89154000D02*
X116586000Y-89154000D01*
X165354000Y-145050000D02*
X165354000Y-140716000D01*
X113284000Y-97282000D02*
X113284000Y-105156000D01*
X114300000Y-96266000D02*
X113284000Y-97282000D01*
X117348000Y-96266000D02*
X114300000Y-96266000D01*
X121158000Y-96266000D02*
X121158000Y-101092000D01*
X124460000Y-58420000D02*
X123190000Y-58420000D01*
X122428000Y-94996000D02*
X121158000Y-96266000D01*
X122428000Y-59182000D02*
X122428000Y-94996000D01*
X123190000Y-58420000D02*
X122428000Y-59182000D01*
X141224000Y-132842000D02*
X141224000Y-116395002D01*
X163068000Y-131572000D02*
X173990000Y-131572000D01*
X129032000Y-124968000D02*
X136652000Y-132588000D01*
X141224000Y-132842000D02*
X147574000Y-132842000D01*
X147828000Y-129286000D02*
X150114000Y-131572000D01*
X150114000Y-131572000D02*
X159004000Y-131572000D01*
X159004000Y-131572000D02*
X163068000Y-131572000D01*
X112014000Y-124968000D02*
X129032000Y-124968000D01*
X176276000Y-56134000D02*
X167386000Y-56134000D01*
X177292000Y-57150000D02*
X176276000Y-56134000D01*
X177292000Y-128270000D02*
X177292000Y-57150000D01*
X173990000Y-131572000D02*
X177292000Y-128270000D01*
X112014000Y-111252000D02*
X112014000Y-124968000D01*
X112014000Y-124968000D02*
X112014000Y-146050000D01*
X111252000Y-110490000D02*
X112014000Y-111252000D01*
X165735000Y-91440000D02*
X167386000Y-91440000D01*
X167386000Y-91440000D02*
X167894000Y-90932000D01*
X167894000Y-90932000D02*
X167894000Y-56642000D01*
X167894000Y-56642000D02*
X167386000Y-56134000D01*
X167386000Y-56134000D02*
X165862000Y-56134000D01*
X139700000Y-91440000D02*
X135636000Y-91440000D01*
X135128000Y-90932000D02*
X135128000Y-56134000D01*
X135636000Y-91440000D02*
X135128000Y-90932000D01*
X112014000Y-146050000D02*
X112014000Y-140462000D01*
X122682000Y-102108000D02*
X123952000Y-103378000D01*
X141224000Y-103378000D02*
X124206000Y-103378000D01*
X122682000Y-102108000D02*
X122682000Y-99822000D01*
X123952000Y-103378000D02*
X124206000Y-103378000D01*
X111252000Y-91186000D02*
X115316000Y-91186000D01*
X111252000Y-105156000D02*
X111252000Y-96012000D01*
X111252000Y-96012000D02*
X111252000Y-91186000D01*
X122682000Y-99822000D02*
X122682000Y-99060000D01*
X122682000Y-99060000D02*
X123698000Y-98044000D01*
X123698000Y-98044000D02*
X124968000Y-98044000D01*
X155448000Y-100584000D02*
X155448000Y-102870000D01*
X155448000Y-102870000D02*
X154940000Y-103378000D01*
X154940000Y-103378000D02*
X141224000Y-103378000D01*
X139700000Y-91440000D02*
X139700000Y-97536000D01*
X139700000Y-97536000D02*
X140208000Y-98044000D01*
X145288000Y-98044000D02*
X142748000Y-98044000D01*
X142748000Y-98044000D02*
X140208000Y-98044000D01*
X140208000Y-98044000D02*
X137668000Y-98044000D01*
X137668000Y-98044000D02*
X135128000Y-98044000D01*
X135128000Y-98044000D02*
X132588000Y-98044000D01*
X132588000Y-98044000D02*
X130048000Y-98044000D01*
X130048000Y-98044000D02*
X127508000Y-98044000D01*
X127508000Y-98044000D02*
X124968000Y-98044000D01*
D23*
X109387000Y-76795000D02*
X102235000Y-76795000D01*
X109474000Y-76708000D02*
X109387000Y-76795000D01*
X109728000Y-74168000D02*
X109601000Y-74295000D01*
X109601000Y-74295000D02*
X102235000Y-74295000D01*
X139192000Y-117348000D02*
X139954000Y-118110000D01*
X139954000Y-118110000D02*
X139954000Y-146050000D01*
X145288000Y-100584000D02*
X145288000Y-100330000D01*
X145288000Y-100330000D02*
X146558000Y-99060000D01*
X147066000Y-96266000D02*
X147066000Y-83820000D01*
X146558000Y-96774000D02*
X147066000Y-96266000D01*
X146558000Y-99060000D02*
X146558000Y-96774000D01*
X119634000Y-136398000D02*
X119634000Y-139700000D01*
X147828000Y-98044000D02*
X147828000Y-86360000D01*
X147828000Y-100584000D02*
X149098000Y-99314000D01*
X153416000Y-93726000D02*
X153416000Y-90170000D01*
X150876000Y-96266000D02*
X153416000Y-93726000D01*
X150114000Y-96266000D02*
X150876000Y-96266000D01*
X149098000Y-97282000D02*
X150114000Y-96266000D01*
X149098000Y-99314000D02*
X149098000Y-97282000D01*
X156972000Y-128016000D02*
X156210000Y-127254000D01*
X156210000Y-127254000D02*
X151130000Y-127254000D01*
X150368000Y-98044000D02*
X150368000Y-97536000D01*
X150368000Y-97536000D02*
X154178000Y-93726000D01*
X154178000Y-93726000D02*
X154178000Y-91440000D01*
X151130000Y-118872000D02*
X151130000Y-123952000D01*
X150368000Y-100584000D02*
X150368000Y-100330000D01*
X150368000Y-100330000D02*
X151638000Y-99060000D01*
X154940000Y-93980000D02*
X154940000Y-88900000D01*
X151638000Y-97282000D02*
X154940000Y-93980000D01*
X151638000Y-99060000D02*
X151638000Y-97282000D01*
X151892000Y-118364000D02*
X151892000Y-124714000D01*
X152908000Y-98044000D02*
X152908000Y-97282000D01*
X152908000Y-97282000D02*
X155702000Y-94488000D01*
X155702000Y-94488000D02*
X155702000Y-86360000D01*
X152654000Y-118872000D02*
X152654000Y-124206000D01*
X152908000Y-100584000D02*
X154178000Y-99314000D01*
X156464000Y-94742000D02*
X156464000Y-83820000D01*
X154178000Y-97028000D02*
X156464000Y-94742000D01*
X154178000Y-99314000D02*
X154178000Y-97028000D01*
X153416000Y-118364000D02*
X153416000Y-124714000D01*
X155448000Y-98044000D02*
X157226000Y-96266000D01*
X157226000Y-96266000D02*
X157226000Y-81280000D01*
X154178000Y-118872000D02*
X154178000Y-124206000D01*
X157988000Y-98044000D02*
X157988000Y-82550000D01*
X158750000Y-80010000D02*
X158750000Y-78740000D01*
X159258000Y-97028000D02*
X158750000Y-96520000D01*
X158750000Y-96520000D02*
X158750000Y-80010000D01*
X157988000Y-100584000D02*
X159258000Y-99314000D01*
X159258000Y-99314000D02*
X159258000Y-97028000D01*
X159512000Y-77470000D02*
X159512000Y-76200000D01*
X160528000Y-98044000D02*
X160528000Y-97282000D01*
X160528000Y-97282000D02*
X159512000Y-96266000D01*
X159512000Y-96266000D02*
X159512000Y-77470000D01*
X160274000Y-74930000D02*
X160274000Y-73660000D01*
X161290000Y-97028000D02*
X161798000Y-97536000D01*
X160274000Y-96012000D02*
X160274000Y-74930000D01*
X161290000Y-97028000D02*
X160274000Y-96012000D01*
X160528000Y-100584000D02*
X161798000Y-99314000D01*
X161798000Y-99314000D02*
X161798000Y-97536000D01*
X161036000Y-72390000D02*
X161036000Y-71120000D01*
X163068000Y-98044000D02*
X161036000Y-96012000D01*
X161036000Y-96012000D02*
X161036000Y-72390000D01*
X163068000Y-98044000D02*
X162560000Y-97536000D01*
X162052000Y-69850000D02*
X162052000Y-68580000D01*
X162306000Y-95758000D02*
X163322000Y-96774000D01*
X163322000Y-96774000D02*
X164084000Y-96774000D01*
X163068000Y-100584000D02*
X164338000Y-99314000D01*
X164338000Y-99314000D02*
X164338000Y-97028000D01*
X164338000Y-97028000D02*
X164084000Y-96774000D01*
X162052000Y-95504000D02*
X162052000Y-69850000D01*
X162306000Y-95758000D02*
X162052000Y-95504000D01*
X162814000Y-67310000D02*
X162814000Y-66040000D01*
X165608000Y-98044000D02*
X165608000Y-97536000D01*
X165608000Y-97536000D02*
X162814000Y-94742000D01*
X162814000Y-94742000D02*
X162814000Y-67310000D01*
X163576000Y-64770000D02*
X163576000Y-63500000D01*
X165608000Y-100584000D02*
X166878000Y-99314000D01*
X163576000Y-94234000D02*
X163576000Y-64770000D01*
X166878000Y-97536000D02*
X163576000Y-94234000D01*
X166878000Y-99314000D02*
X166878000Y-97536000D01*
X119888000Y-73660000D02*
X121412000Y-73660000D01*
X121412000Y-80010000D02*
X119380000Y-80010000D01*
X119380000Y-78740000D02*
X121412000Y-78740000D01*
X150876000Y-136144000D02*
X151384000Y-136652000D01*
X154940000Y-139446000D02*
X154940000Y-138684000D01*
X154178000Y-140208000D02*
X154940000Y-139446000D01*
X152400000Y-140208000D02*
X154178000Y-140208000D01*
X151384000Y-139192000D02*
X152400000Y-140208000D01*
X151384000Y-136652000D02*
X151384000Y-139192000D01*
X149352000Y-137160000D02*
X149352000Y-136906000D01*
X150114000Y-136144000D02*
X150876000Y-136144000D01*
X149352000Y-136906000D02*
X150114000Y-136144000D01*
X149352000Y-137160000D02*
X149352000Y-140716000D01*
X149352000Y-140716000D02*
X150114000Y-141478000D01*
X150114000Y-141478000D02*
X150114000Y-146050000D01*
X160274000Y-123444000D02*
X160274000Y-128016000D01*
X157480000Y-124968000D02*
X154940000Y-124968000D01*
X157988000Y-125730000D02*
X155956000Y-125730000D01*
X155194000Y-141986000D02*
X155194000Y-146050000D01*
X155194000Y-140970000D02*
X155194000Y-141986000D01*
X150368000Y-136906000D02*
X150368000Y-139192000D01*
X150368000Y-139192000D02*
X152654000Y-141478000D01*
X157480000Y-126492000D02*
X150368000Y-126492000D01*
X152654000Y-141478000D02*
X152654000Y-146050000D01*
X148590000Y-117348000D02*
X148590000Y-123952000D01*
X147574000Y-139446000D02*
X147574000Y-146050000D01*
X137414000Y-146050000D02*
X137414000Y-141478000D01*
X139446000Y-118618000D02*
X137414000Y-116586000D01*
X139446000Y-139446000D02*
X139446000Y-118618000D01*
X137414000Y-141478000D02*
X139446000Y-139446000D01*
X137414000Y-115824000D02*
X137414000Y-116586000D01*
X138938000Y-137414000D02*
X138938000Y-139192000D01*
X135382000Y-141478000D02*
X134874000Y-141986000D01*
X136652000Y-141478000D02*
X135382000Y-141478000D01*
X138938000Y-139192000D02*
X136652000Y-141478000D01*
X134874000Y-146050000D02*
X134874000Y-141986000D01*
X134874000Y-146050000D02*
X134874000Y-143002000D01*
X138938000Y-137414000D02*
X138938000Y-118872000D01*
X138938000Y-118872000D02*
X136652000Y-116586000D01*
X136652000Y-116586000D02*
X136652000Y-115062000D01*
X138430000Y-135128000D02*
X138430000Y-138938000D01*
X132842000Y-140970000D02*
X132334000Y-141478000D01*
X136398000Y-140970000D02*
X132842000Y-140970000D01*
X138430000Y-138938000D02*
X136398000Y-140970000D01*
X132334000Y-146050000D02*
X132334000Y-141478000D01*
X135890000Y-116586000D02*
X135890000Y-114300000D01*
X138430000Y-119126000D02*
X135890000Y-116586000D01*
X138430000Y-135128000D02*
X138430000Y-119126000D01*
X137922000Y-133096000D02*
X137922000Y-138684000D01*
X130556000Y-140462000D02*
X130048000Y-140970000D01*
X136144000Y-140462000D02*
X130556000Y-140462000D01*
X137922000Y-138684000D02*
X136144000Y-140462000D01*
X129794000Y-146050000D02*
X129794000Y-141224000D01*
X129794000Y-141224000D02*
X130048000Y-140970000D01*
X135128000Y-116586000D02*
X135128000Y-113538000D01*
X137922000Y-119380000D02*
X135128000Y-116586000D01*
X137922000Y-133096000D02*
X137922000Y-119380000D01*
X130048000Y-145796000D02*
X129794000Y-146050000D01*
X155702000Y-135636000D02*
X155702000Y-135070002D01*
X155702000Y-135070002D02*
X154997998Y-134366000D01*
X154997998Y-134366000D02*
X149352000Y-134366000D01*
X147574000Y-117348000D02*
X148590000Y-116332000D01*
X147574000Y-123952000D02*
X147574000Y-117348000D01*
X149352000Y-134366000D02*
X148844000Y-133858000D01*
X157988000Y-138176000D02*
X160274000Y-140462000D01*
X160274000Y-141732000D02*
X160274000Y-140462000D01*
X160274000Y-146050000D02*
X160274000Y-141732000D01*
X156464000Y-138176000D02*
X155702000Y-137414000D01*
X157988000Y-138176000D02*
X156464000Y-138176000D01*
X155702000Y-135636000D02*
X155702000Y-137414000D01*
X114554000Y-146050000D02*
X114554000Y-140462000D01*
X134366000Y-117094000D02*
X134366000Y-112776000D01*
X136398000Y-119126000D02*
X134366000Y-117094000D01*
X148082000Y-131318000D02*
X143256000Y-131318000D01*
X142748000Y-115824000D02*
X141986000Y-115062000D01*
X142748000Y-130810000D02*
X142748000Y-115824000D01*
X143256000Y-131318000D02*
X142748000Y-130810000D01*
X159258000Y-137160000D02*
X156972000Y-137160000D01*
X156718000Y-136906000D02*
X156718000Y-134620000D01*
X156972000Y-137160000D02*
X156718000Y-136906000D01*
X150114000Y-133350000D02*
X148082000Y-131318000D01*
X155448000Y-133350000D02*
X150114000Y-133350000D01*
X156718000Y-134620000D02*
X155448000Y-133350000D01*
X159258000Y-137160000D02*
X162814000Y-140716000D01*
X138938000Y-115062000D02*
X138684000Y-115062000D01*
X138938000Y-115062000D02*
X141986000Y-115062000D01*
X120142000Y-97536000D02*
X120142000Y-110236000D01*
X120142000Y-110236000D02*
X121412000Y-111506000D01*
X121412000Y-111506000D02*
X127508000Y-111506000D01*
X127508000Y-111506000D02*
X128016000Y-110998000D01*
X128016000Y-110998000D02*
X134620000Y-110998000D01*
X138684000Y-115062000D02*
X134620000Y-110998000D01*
X162814000Y-140716000D02*
X162814000Y-146050000D01*
X147828000Y-131826000D02*
X142748000Y-131826000D01*
X142240000Y-116078000D02*
X141732000Y-115570000D01*
X142240000Y-131318000D02*
X142240000Y-116078000D01*
X142748000Y-131826000D02*
X142240000Y-131318000D01*
X158750000Y-137922000D02*
X158496000Y-137668000D01*
X149860000Y-133858000D02*
X147828000Y-131826000D01*
X155194000Y-133858000D02*
X149860000Y-133858000D01*
X156210000Y-134874000D02*
X155194000Y-133858000D01*
X156210000Y-137160000D02*
X156210000Y-134874000D01*
X156718000Y-137668000D02*
X156210000Y-137160000D01*
X158496000Y-137668000D02*
X156718000Y-137668000D01*
X158750000Y-137922000D02*
X159766000Y-138938000D01*
X128270000Y-111760000D02*
X134620000Y-111760000D01*
X138430000Y-115570000D02*
X141732000Y-115570000D01*
X134620000Y-111760000D02*
X138430000Y-115570000D01*
X157734000Y-138938000D02*
X157734000Y-146050000D01*
X127254000Y-127254000D02*
X127254000Y-146050000D01*
D24*
G36*
X178522000Y-138644000D02*
X166624000Y-138644000D01*
X166317088Y-138705049D01*
X166056900Y-138878900D01*
X165883049Y-139139088D01*
X165822000Y-139446000D01*
X165822000Y-139582091D01*
X165354000Y-139489000D01*
X164884447Y-139582400D01*
X164486380Y-139848380D01*
X164220400Y-140246447D01*
X164127000Y-140716000D01*
X164127000Y-141605000D01*
X163891560Y-141605000D01*
X163845328Y-141533154D01*
X163666000Y-141410624D01*
X163666000Y-140716000D01*
X163637189Y-140571156D01*
X163601145Y-140389953D01*
X163416455Y-140113545D01*
X159860455Y-136557545D01*
X159584046Y-136372855D01*
X159258000Y-136308000D01*
X157570000Y-136308000D01*
X157570000Y-134620000D01*
X157505145Y-134293954D01*
X157320455Y-134017545D01*
X156050455Y-132747545D01*
X155774046Y-132562855D01*
X155448000Y-132498000D01*
X150466910Y-132498000D01*
X148684455Y-130715545D01*
X148408046Y-130530855D01*
X148082000Y-130466000D01*
X143608910Y-130466000D01*
X143600000Y-130457090D01*
X143600000Y-126695387D01*
X149340822Y-126695387D01*
X149496844Y-127072989D01*
X149785492Y-127362140D01*
X150121037Y-127501471D01*
X150258844Y-127834989D01*
X150547492Y-128124140D01*
X150924821Y-128280821D01*
X151333387Y-128281178D01*
X151710989Y-128125156D01*
X151730178Y-128106000D01*
X155857090Y-128106000D01*
X155944844Y-128193754D01*
X155944822Y-128219387D01*
X156100844Y-128596989D01*
X156389492Y-128886140D01*
X156766821Y-129042821D01*
X157175387Y-129043178D01*
X157552989Y-128887156D01*
X157842140Y-128598508D01*
X157998821Y-128221179D01*
X157999178Y-127812613D01*
X157849562Y-127450516D01*
X158060989Y-127363156D01*
X158350140Y-127074508D01*
X158506821Y-126697179D01*
X158506882Y-126626818D01*
X158568989Y-126601156D01*
X158858140Y-126312508D01*
X159014821Y-125935179D01*
X159015178Y-125526613D01*
X158859156Y-125149011D01*
X158570508Y-124859860D01*
X158507118Y-124833538D01*
X158507178Y-124764613D01*
X158351156Y-124387011D01*
X158062508Y-124097860D01*
X157685179Y-123941179D01*
X157276613Y-123940822D01*
X156899011Y-124096844D01*
X156879822Y-124116000D01*
X155540616Y-124116000D01*
X155522508Y-124097860D01*
X155186963Y-123958529D01*
X155058402Y-123647387D01*
X159246822Y-123647387D01*
X159402844Y-124024989D01*
X159422000Y-124044178D01*
X159422000Y-127415384D01*
X159403860Y-127433492D01*
X159247179Y-127810821D01*
X159246822Y-128219387D01*
X159402844Y-128596989D01*
X159691492Y-128886140D01*
X160068821Y-129042821D01*
X160477387Y-129043178D01*
X160854989Y-128887156D01*
X161144140Y-128598508D01*
X161300821Y-128221179D01*
X161301178Y-127812613D01*
X161145156Y-127435011D01*
X161126000Y-127415822D01*
X161126000Y-124044616D01*
X161144140Y-124026508D01*
X161300821Y-123649179D01*
X161301178Y-123240613D01*
X161145156Y-122863011D01*
X160856508Y-122573860D01*
X160479179Y-122417179D01*
X160070613Y-122416822D01*
X159693011Y-122572844D01*
X159403860Y-122861492D01*
X159247179Y-123238821D01*
X159246822Y-123647387D01*
X155058402Y-123647387D01*
X155049156Y-123625011D01*
X155030000Y-123605822D01*
X155030000Y-119472616D01*
X155048140Y-119454508D01*
X155204821Y-119077179D01*
X155205178Y-118668613D01*
X155049156Y-118291011D01*
X154760508Y-118001860D01*
X154383179Y-117845179D01*
X154312818Y-117845118D01*
X154287156Y-117783011D01*
X153998508Y-117493860D01*
X153621179Y-117337179D01*
X153212613Y-117336822D01*
X152835011Y-117492844D01*
X152653938Y-117673602D01*
X152474508Y-117493860D01*
X152097179Y-117337179D01*
X151688613Y-117336822D01*
X151311011Y-117492844D01*
X151021860Y-117781492D01*
X150995538Y-117844882D01*
X150926613Y-117844822D01*
X150549011Y-118000844D01*
X150259860Y-118289492D01*
X150103179Y-118666821D01*
X150102822Y-119075387D01*
X150258844Y-119452989D01*
X150278000Y-119472178D01*
X150278000Y-123351384D01*
X150259860Y-123369492D01*
X150103179Y-123746821D01*
X150102822Y-124155387D01*
X150258844Y-124532989D01*
X150547492Y-124822140D01*
X150883037Y-124961471D01*
X151020844Y-125294989D01*
X151309492Y-125584140D01*
X151444018Y-125640000D01*
X150968616Y-125640000D01*
X150950508Y-125621860D01*
X150573179Y-125465179D01*
X150164613Y-125464822D01*
X149787011Y-125620844D01*
X149497860Y-125909492D01*
X149341179Y-126286821D01*
X149340822Y-126695387D01*
X143600000Y-126695387D01*
X143600000Y-124155387D01*
X146546822Y-124155387D01*
X146702844Y-124532989D01*
X146991492Y-124822140D01*
X147368821Y-124978821D01*
X147777387Y-124979178D01*
X148082285Y-124853197D01*
X148384821Y-124978821D01*
X148793387Y-124979178D01*
X149170989Y-124823156D01*
X149460140Y-124534508D01*
X149616821Y-124157179D01*
X149617178Y-123748613D01*
X149461156Y-123371011D01*
X149442000Y-123351822D01*
X149442000Y-117948616D01*
X149460140Y-117930508D01*
X149616821Y-117553179D01*
X149617178Y-117144613D01*
X149491197Y-116839715D01*
X149616821Y-116537179D01*
X149617178Y-116128613D01*
X149461156Y-115751011D01*
X149172508Y-115461860D01*
X148795179Y-115305179D01*
X148386613Y-115304822D01*
X148009011Y-115460844D01*
X147719860Y-115749492D01*
X147563179Y-116126821D01*
X147563155Y-116153935D01*
X146971545Y-116745545D01*
X146786855Y-117021954D01*
X146722000Y-117348000D01*
X146722000Y-123351384D01*
X146703860Y-123369492D01*
X146547179Y-123746821D01*
X146546822Y-124155387D01*
X143600000Y-124155387D01*
X143600000Y-115824000D01*
X143535145Y-115497954D01*
X143350455Y-115221545D01*
X142588455Y-114459545D01*
X142312046Y-114274855D01*
X141986000Y-114210000D01*
X139036910Y-114210000D01*
X135222455Y-110395545D01*
X134946046Y-110210855D01*
X134620000Y-110146000D01*
X128016000Y-110146000D01*
X127689953Y-110210855D01*
X127413545Y-110395545D01*
X127155090Y-110654000D01*
X121764910Y-110654000D01*
X120994000Y-109883090D01*
X120994000Y-108156838D01*
X122640597Y-108156838D01*
X122994115Y-109012418D01*
X123648139Y-109667585D01*
X124503100Y-110022596D01*
X125428838Y-110023403D01*
X126284418Y-109669885D01*
X126939585Y-109015861D01*
X127294596Y-108160900D01*
X127294599Y-108156838D01*
X162772597Y-108156838D01*
X163126115Y-109012418D01*
X163780139Y-109667585D01*
X164635100Y-110022596D01*
X165560838Y-110023403D01*
X166416418Y-109669885D01*
X167071585Y-109015861D01*
X167426596Y-108160900D01*
X167427403Y-107235162D01*
X167073885Y-106379582D01*
X166419861Y-105724415D01*
X165564900Y-105369404D01*
X164639162Y-105368597D01*
X163783582Y-105722115D01*
X163128415Y-106376139D01*
X162773404Y-107231100D01*
X162772597Y-108156838D01*
X127294599Y-108156838D01*
X127295403Y-107235162D01*
X126941885Y-106379582D01*
X126287861Y-105724415D01*
X125432900Y-105369404D01*
X124507162Y-105368597D01*
X123651582Y-105722115D01*
X122996415Y-106376139D01*
X122641404Y-107231100D01*
X122640597Y-108156838D01*
X120994000Y-108156838D01*
X120994000Y-102286378D01*
X121158000Y-102319000D01*
X121627553Y-102225600D01*
X122025620Y-101959620D01*
X122291600Y-101561553D01*
X122385000Y-101092000D01*
X122385000Y-100553105D01*
X123391000Y-100553105D01*
X123391000Y-100614895D01*
X123511042Y-101218387D01*
X123852893Y-101730002D01*
X124364508Y-102071853D01*
X124968000Y-102191895D01*
X125571492Y-102071853D01*
X126083107Y-101730002D01*
X126238000Y-101498189D01*
X126392893Y-101730002D01*
X126904508Y-102071853D01*
X127508000Y-102191895D01*
X128111492Y-102071853D01*
X128623107Y-101730002D01*
X128778000Y-101498189D01*
X128932893Y-101730002D01*
X129444508Y-102071853D01*
X130048000Y-102191895D01*
X130651492Y-102071853D01*
X131163107Y-101730002D01*
X131318000Y-101498189D01*
X131472893Y-101730002D01*
X131984508Y-102071853D01*
X132588000Y-102191895D01*
X133191492Y-102071853D01*
X133703107Y-101730002D01*
X133858000Y-101498189D01*
X134012893Y-101730002D01*
X134524508Y-102071853D01*
X135128000Y-102191895D01*
X135731492Y-102071853D01*
X136243107Y-101730002D01*
X136398000Y-101498189D01*
X136552893Y-101730002D01*
X137064508Y-102071853D01*
X137668000Y-102191895D01*
X138271492Y-102071853D01*
X138783107Y-101730002D01*
X138938000Y-101498189D01*
X139092893Y-101730002D01*
X139604508Y-102071853D01*
X140208000Y-102191895D01*
X140811492Y-102071853D01*
X141323107Y-101730002D01*
X141478000Y-101498189D01*
X141632893Y-101730002D01*
X142144508Y-102071853D01*
X142748000Y-102191895D01*
X143351492Y-102071853D01*
X143863107Y-101730002D01*
X144018000Y-101498189D01*
X144172893Y-101730002D01*
X144684508Y-102071853D01*
X145288000Y-102191895D01*
X145891492Y-102071853D01*
X146403107Y-101730002D01*
X146558000Y-101498189D01*
X146712893Y-101730002D01*
X147224508Y-102071853D01*
X147828000Y-102191895D01*
X148431492Y-102071853D01*
X148943107Y-101730002D01*
X149098000Y-101498189D01*
X149252893Y-101730002D01*
X149764508Y-102071853D01*
X150368000Y-102191895D01*
X150971492Y-102071853D01*
X151483107Y-101730002D01*
X151638000Y-101498189D01*
X151792893Y-101730002D01*
X152304508Y-102071853D01*
X152908000Y-102191895D01*
X153511492Y-102071853D01*
X154023107Y-101730002D01*
X154230991Y-101418882D01*
X154252817Y-101465358D01*
X154681076Y-101855645D01*
X155091110Y-102025476D01*
X155321000Y-101904155D01*
X155321000Y-100711000D01*
X155301000Y-100711000D01*
X155301000Y-100457000D01*
X155321000Y-100457000D01*
X155321000Y-100437000D01*
X155575000Y-100437000D01*
X155575000Y-100457000D01*
X155595000Y-100457000D01*
X155595000Y-100711000D01*
X155575000Y-100711000D01*
X155575000Y-101904155D01*
X155804890Y-102025476D01*
X156214924Y-101855645D01*
X156643183Y-101465358D01*
X156665009Y-101418882D01*
X156872893Y-101730002D01*
X157384508Y-102071853D01*
X157988000Y-102191895D01*
X158591492Y-102071853D01*
X159103107Y-101730002D01*
X159258000Y-101498189D01*
X159412893Y-101730002D01*
X159924508Y-102071853D01*
X160528000Y-102191895D01*
X161131492Y-102071853D01*
X161643107Y-101730002D01*
X161798000Y-101498189D01*
X161952893Y-101730002D01*
X162464508Y-102071853D01*
X163068000Y-102191895D01*
X163671492Y-102071853D01*
X164183107Y-101730002D01*
X164338000Y-101498189D01*
X164492893Y-101730002D01*
X165004508Y-102071853D01*
X165608000Y-102191895D01*
X166211492Y-102071853D01*
X166723107Y-101730002D01*
X167064958Y-101218387D01*
X167185000Y-100614895D01*
X167185000Y-100553105D01*
X167128392Y-100268518D01*
X167480455Y-99916455D01*
X167665145Y-99640046D01*
X167730000Y-99314000D01*
X167730000Y-97536000D01*
X167665145Y-97209954D01*
X167480455Y-96933545D01*
X164428000Y-93881090D01*
X164428000Y-91994029D01*
X164503959Y-92177423D01*
X164879866Y-92592389D01*
X165385959Y-92831914D01*
X165608000Y-92710629D01*
X165608000Y-91567000D01*
X165862000Y-91567000D01*
X165862000Y-92710629D01*
X166084041Y-92831914D01*
X166590134Y-92592389D01*
X166966041Y-92177423D01*
X167126904Y-91789039D01*
X167004915Y-91567000D01*
X165862000Y-91567000D01*
X165608000Y-91567000D01*
X165588000Y-91567000D01*
X165588000Y-91313000D01*
X165608000Y-91313000D01*
X165608000Y-91293000D01*
X165862000Y-91293000D01*
X165862000Y-91313000D01*
X167004915Y-91313000D01*
X167126904Y-91090961D01*
X166966041Y-90702577D01*
X166590134Y-90287611D01*
X166469425Y-90230482D01*
X166844668Y-89979752D01*
X167175680Y-89484358D01*
X167291916Y-88900000D01*
X167175680Y-88315642D01*
X166844668Y-87820248D01*
X166559942Y-87630000D01*
X166844668Y-87439752D01*
X167175680Y-86944358D01*
X167291916Y-86360000D01*
X167175680Y-85775642D01*
X166844668Y-85280248D01*
X166559942Y-85090000D01*
X166844668Y-84899752D01*
X167175680Y-84404358D01*
X167291916Y-83820000D01*
X167175680Y-83235642D01*
X166844668Y-82740248D01*
X166559942Y-82550000D01*
X166844668Y-82359752D01*
X167175680Y-81864358D01*
X167291916Y-81280000D01*
X167175680Y-80695642D01*
X166844668Y-80200248D01*
X166559942Y-80010000D01*
X166844668Y-79819752D01*
X167175680Y-79324358D01*
X167291916Y-78740000D01*
X167175680Y-78155642D01*
X166844668Y-77660248D01*
X166559942Y-77470000D01*
X166844668Y-77279752D01*
X167175680Y-76784358D01*
X167291916Y-76200000D01*
X167175680Y-75615642D01*
X166844668Y-75120248D01*
X166559942Y-74930000D01*
X166844668Y-74739752D01*
X167175680Y-74244358D01*
X167291916Y-73660000D01*
X167175680Y-73075642D01*
X166844668Y-72580248D01*
X166559942Y-72390000D01*
X166844668Y-72199752D01*
X167175680Y-71704358D01*
X167291916Y-71120000D01*
X167175680Y-70535642D01*
X166844668Y-70040248D01*
X166559942Y-69850000D01*
X166844668Y-69659752D01*
X167175680Y-69164358D01*
X167291916Y-68580000D01*
X167175680Y-67995642D01*
X166844668Y-67500248D01*
X166559942Y-67310000D01*
X166844668Y-67119752D01*
X167175680Y-66624358D01*
X167291916Y-66040000D01*
X167175680Y-65455642D01*
X166844668Y-64960248D01*
X166559942Y-64770000D01*
X166844668Y-64579752D01*
X167175680Y-64084358D01*
X167291916Y-63500000D01*
X167175680Y-62915642D01*
X166844668Y-62420248D01*
X166559942Y-62230000D01*
X166844668Y-62039752D01*
X167175680Y-61544358D01*
X167291916Y-60960000D01*
X167175680Y-60375642D01*
X166846722Y-59883322D01*
X167051846Y-59751328D01*
X167217843Y-59508385D01*
X167276242Y-59220000D01*
X167276242Y-57620000D01*
X167225549Y-57350590D01*
X167066328Y-57103154D01*
X166823385Y-56937157D01*
X166535000Y-56878758D01*
X164935000Y-56878758D01*
X164665590Y-56929451D01*
X164418154Y-57088672D01*
X164252157Y-57331615D01*
X164193758Y-57620000D01*
X164193758Y-59220000D01*
X164244451Y-59489410D01*
X164403672Y-59736846D01*
X164621638Y-59885777D01*
X164294320Y-60375642D01*
X164178084Y-60960000D01*
X164294320Y-61544358D01*
X164625332Y-62039752D01*
X164910058Y-62230000D01*
X164625332Y-62420248D01*
X164354253Y-62825946D01*
X164158508Y-62629860D01*
X163781179Y-62473179D01*
X163372613Y-62472822D01*
X162995011Y-62628844D01*
X162705860Y-62917492D01*
X162549179Y-63294821D01*
X162548822Y-63703387D01*
X162704844Y-64080989D01*
X162724000Y-64100178D01*
X162724000Y-65012921D01*
X162610613Y-65012822D01*
X162233011Y-65168844D01*
X161943860Y-65457492D01*
X161787179Y-65834821D01*
X161786822Y-66243387D01*
X161942844Y-66620989D01*
X161962000Y-66640178D01*
X161962000Y-67552921D01*
X161848613Y-67552822D01*
X161471011Y-67708844D01*
X161181860Y-67997492D01*
X161025179Y-68374821D01*
X161024822Y-68783387D01*
X161180844Y-69160989D01*
X161200000Y-69180178D01*
X161200000Y-70093143D01*
X160832613Y-70092822D01*
X160455011Y-70248844D01*
X160165860Y-70537492D01*
X160009179Y-70914821D01*
X160008822Y-71323387D01*
X160164844Y-71700989D01*
X160184000Y-71720178D01*
X160184000Y-72632921D01*
X160070613Y-72632822D01*
X159693011Y-72788844D01*
X159403860Y-73077492D01*
X159247179Y-73454821D01*
X159246822Y-73863387D01*
X159402844Y-74240989D01*
X159422000Y-74260178D01*
X159422000Y-75172921D01*
X159308613Y-75172822D01*
X158931011Y-75328844D01*
X158641860Y-75617492D01*
X158485179Y-75994821D01*
X158484822Y-76403387D01*
X158640844Y-76780989D01*
X158660000Y-76800178D01*
X158660000Y-77712921D01*
X158546613Y-77712822D01*
X158169011Y-77868844D01*
X157879860Y-78157492D01*
X157723179Y-78534821D01*
X157722822Y-78943387D01*
X157878844Y-79320989D01*
X157898000Y-79340178D01*
X157898000Y-80499508D01*
X157808508Y-80409860D01*
X157431179Y-80253179D01*
X157022613Y-80252822D01*
X156645011Y-80408844D01*
X156355860Y-80697492D01*
X156199179Y-81074821D01*
X156198822Y-81483387D01*
X156354844Y-81860989D01*
X156374000Y-81880178D01*
X156374000Y-82792921D01*
X156260613Y-82792822D01*
X155883011Y-82948844D01*
X155593860Y-83237492D01*
X155437179Y-83614821D01*
X155436822Y-84023387D01*
X155592844Y-84400989D01*
X155612000Y-84420178D01*
X155612000Y-85332921D01*
X155498613Y-85332822D01*
X155121011Y-85488844D01*
X154831860Y-85777492D01*
X154675179Y-86154821D01*
X154674822Y-86563387D01*
X154830844Y-86940989D01*
X154850000Y-86960178D01*
X154850000Y-87872921D01*
X154736613Y-87872822D01*
X154359011Y-88028844D01*
X154069860Y-88317492D01*
X153913179Y-88694821D01*
X153912822Y-89103387D01*
X153993070Y-89297602D01*
X153621179Y-89143179D01*
X153212613Y-89142822D01*
X152835011Y-89298844D01*
X152545860Y-89587492D01*
X152389179Y-89964821D01*
X152388822Y-90373387D01*
X152544844Y-90750989D01*
X152564000Y-90770178D01*
X152564000Y-93373090D01*
X150523090Y-95414000D01*
X150114000Y-95414000D01*
X149787954Y-95478855D01*
X149511545Y-95663545D01*
X148680000Y-96495090D01*
X148680000Y-86960616D01*
X148698140Y-86942508D01*
X148854821Y-86565179D01*
X148855178Y-86156613D01*
X148699156Y-85779011D01*
X148410508Y-85489860D01*
X148033179Y-85333179D01*
X147918000Y-85333078D01*
X147918000Y-84420616D01*
X147936140Y-84402508D01*
X148092821Y-84025179D01*
X148093178Y-83616613D01*
X147937156Y-83239011D01*
X147648508Y-82949860D01*
X147271179Y-82793179D01*
X146862613Y-82792822D01*
X146485011Y-82948844D01*
X146195860Y-83237492D01*
X146039179Y-83614821D01*
X146038822Y-84023387D01*
X146194844Y-84400989D01*
X146214000Y-84420178D01*
X146214000Y-95913090D01*
X145955545Y-96171545D01*
X145770855Y-96447954D01*
X145732861Y-96638961D01*
X145644890Y-96602524D01*
X145415000Y-96723845D01*
X145415000Y-97917000D01*
X145435000Y-97917000D01*
X145435000Y-98171000D01*
X145415000Y-98171000D01*
X145415000Y-98191000D01*
X145161000Y-98191000D01*
X145161000Y-98171000D01*
X142875000Y-98171000D01*
X142875000Y-98191000D01*
X142621000Y-98191000D01*
X142621000Y-98171000D01*
X140335000Y-98171000D01*
X140335000Y-98191000D01*
X140081000Y-98191000D01*
X140081000Y-98171000D01*
X137795000Y-98171000D01*
X137795000Y-98191000D01*
X137541000Y-98191000D01*
X137541000Y-98171000D01*
X135255000Y-98171000D01*
X135255000Y-98191000D01*
X135001000Y-98191000D01*
X135001000Y-98171000D01*
X132715000Y-98171000D01*
X132715000Y-98191000D01*
X132461000Y-98191000D01*
X132461000Y-98171000D01*
X130175000Y-98171000D01*
X130175000Y-98191000D01*
X129921000Y-98191000D01*
X129921000Y-98171000D01*
X127635000Y-98171000D01*
X127635000Y-98191000D01*
X127381000Y-98191000D01*
X127381000Y-98171000D01*
X125095000Y-98171000D01*
X125095000Y-98191000D01*
X124841000Y-98191000D01*
X124841000Y-98171000D01*
X123641750Y-98171000D01*
X123483000Y-98329750D01*
X123483000Y-99020309D01*
X123579673Y-99253698D01*
X123758301Y-99432327D01*
X123835356Y-99464244D01*
X123511042Y-99949613D01*
X123391000Y-100553105D01*
X122385000Y-100553105D01*
X122385000Y-97067691D01*
X123483000Y-97067691D01*
X123483000Y-97758250D01*
X123641750Y-97917000D01*
X124841000Y-97917000D01*
X124841000Y-96717750D01*
X125095000Y-96717750D01*
X125095000Y-97917000D01*
X127381000Y-97917000D01*
X127381000Y-96723845D01*
X127635000Y-96723845D01*
X127635000Y-97917000D01*
X129921000Y-97917000D01*
X129921000Y-96723845D01*
X130175000Y-96723845D01*
X130175000Y-97917000D01*
X132461000Y-97917000D01*
X132461000Y-96723845D01*
X132715000Y-96723845D01*
X132715000Y-97917000D01*
X135001000Y-97917000D01*
X135001000Y-96723845D01*
X135255000Y-96723845D01*
X135255000Y-97917000D01*
X137541000Y-97917000D01*
X137541000Y-96723845D01*
X137795000Y-96723845D01*
X137795000Y-97917000D01*
X140081000Y-97917000D01*
X140081000Y-96723845D01*
X140335000Y-96723845D01*
X140335000Y-97917000D01*
X142621000Y-97917000D01*
X142621000Y-96723845D01*
X142875000Y-96723845D01*
X142875000Y-97917000D01*
X145161000Y-97917000D01*
X145161000Y-96723845D01*
X144931110Y-96602524D01*
X144521076Y-96772355D01*
X144092817Y-97162642D01*
X144018000Y-97321954D01*
X143943183Y-97162642D01*
X143514924Y-96772355D01*
X143104890Y-96602524D01*
X142875000Y-96723845D01*
X142621000Y-96723845D01*
X142391110Y-96602524D01*
X141981076Y-96772355D01*
X141552817Y-97162642D01*
X141478000Y-97321954D01*
X141403183Y-97162642D01*
X140974924Y-96772355D01*
X140564890Y-96602524D01*
X140335000Y-96723845D01*
X140081000Y-96723845D01*
X139851110Y-96602524D01*
X139441076Y-96772355D01*
X139012817Y-97162642D01*
X138938000Y-97321954D01*
X138863183Y-97162642D01*
X138434924Y-96772355D01*
X138024890Y-96602524D01*
X137795000Y-96723845D01*
X137541000Y-96723845D01*
X137311110Y-96602524D01*
X136901076Y-96772355D01*
X136472817Y-97162642D01*
X136398000Y-97321954D01*
X136323183Y-97162642D01*
X135894924Y-96772355D01*
X135484890Y-96602524D01*
X135255000Y-96723845D01*
X135001000Y-96723845D01*
X134771110Y-96602524D01*
X134361076Y-96772355D01*
X133932817Y-97162642D01*
X133858000Y-97321954D01*
X133783183Y-97162642D01*
X133354924Y-96772355D01*
X132944890Y-96602524D01*
X132715000Y-96723845D01*
X132461000Y-96723845D01*
X132231110Y-96602524D01*
X131821076Y-96772355D01*
X131392817Y-97162642D01*
X131318000Y-97321954D01*
X131243183Y-97162642D01*
X130814924Y-96772355D01*
X130404890Y-96602524D01*
X130175000Y-96723845D01*
X129921000Y-96723845D01*
X129691110Y-96602524D01*
X129281076Y-96772355D01*
X128852817Y-97162642D01*
X128778000Y-97321954D01*
X128703183Y-97162642D01*
X128274924Y-96772355D01*
X127864890Y-96602524D01*
X127635000Y-96723845D01*
X127381000Y-96723845D01*
X127151110Y-96602524D01*
X126741076Y-96772355D01*
X126443136Y-97043878D01*
X126356327Y-96834302D01*
X126177699Y-96655673D01*
X125944310Y-96559000D01*
X125253750Y-96559000D01*
X125095000Y-96717750D01*
X124841000Y-96717750D01*
X124682250Y-96559000D01*
X123991690Y-96559000D01*
X123758301Y-96655673D01*
X123579673Y-96834302D01*
X123483000Y-97067691D01*
X122385000Y-97067691D01*
X122385000Y-96774240D01*
X123295620Y-95863620D01*
X123340503Y-95796448D01*
X123561600Y-95465553D01*
X123655000Y-94996000D01*
X123655000Y-92723325D01*
X123845726Y-92850764D01*
X124430084Y-92967000D01*
X124489916Y-92967000D01*
X125074274Y-92850764D01*
X125569668Y-92519752D01*
X125900680Y-92024358D01*
X125947487Y-91789039D01*
X138308096Y-91789039D01*
X138468959Y-92177423D01*
X138844866Y-92592389D01*
X139350959Y-92831914D01*
X139573000Y-92710629D01*
X139573000Y-91567000D01*
X139827000Y-91567000D01*
X139827000Y-92710629D01*
X140049041Y-92831914D01*
X140555134Y-92592389D01*
X140931041Y-92177423D01*
X141091904Y-91789039D01*
X140969915Y-91567000D01*
X139827000Y-91567000D01*
X139573000Y-91567000D01*
X138430085Y-91567000D01*
X138308096Y-91789039D01*
X125947487Y-91789039D01*
X126016916Y-91440000D01*
X125900680Y-90855642D01*
X125569668Y-90360248D01*
X125284942Y-90170000D01*
X125569668Y-89979752D01*
X125900680Y-89484358D01*
X126016916Y-88900000D01*
X125900680Y-88315642D01*
X125569668Y-87820248D01*
X125284942Y-87630000D01*
X125569668Y-87439752D01*
X125900680Y-86944358D01*
X126016916Y-86360000D01*
X125900680Y-85775642D01*
X125569668Y-85280248D01*
X125284942Y-85090000D01*
X125569668Y-84899752D01*
X125900680Y-84404358D01*
X126016916Y-83820000D01*
X125900680Y-83235642D01*
X125569668Y-82740248D01*
X125284942Y-82550000D01*
X125569668Y-82359752D01*
X125900680Y-81864358D01*
X126016916Y-81280000D01*
X125900680Y-80695642D01*
X125569668Y-80200248D01*
X125284942Y-80010000D01*
X125569668Y-79819752D01*
X125900680Y-79324358D01*
X126016916Y-78740000D01*
X125900680Y-78155642D01*
X125569668Y-77660248D01*
X125284942Y-77470000D01*
X125569668Y-77279752D01*
X125900680Y-76784358D01*
X126016916Y-76200000D01*
X125900680Y-75615642D01*
X125569668Y-75120248D01*
X125284942Y-74930000D01*
X125569668Y-74739752D01*
X125900680Y-74244358D01*
X126016916Y-73660000D01*
X125900680Y-73075642D01*
X125569668Y-72580248D01*
X125284942Y-72390000D01*
X125569668Y-72199752D01*
X125900680Y-71704358D01*
X126016916Y-71120000D01*
X125900680Y-70535642D01*
X125569668Y-70040248D01*
X125284942Y-69850000D01*
X125569668Y-69659752D01*
X125900680Y-69164358D01*
X126016916Y-68580000D01*
X125900680Y-67995642D01*
X125569668Y-67500248D01*
X125284942Y-67310000D01*
X125569668Y-67119752D01*
X125900680Y-66624358D01*
X126016916Y-66040000D01*
X125900680Y-65455642D01*
X125569668Y-64960248D01*
X125284942Y-64770000D01*
X125569668Y-64579752D01*
X125900680Y-64084358D01*
X126016916Y-63500000D01*
X125900680Y-62915642D01*
X125569668Y-62420248D01*
X125284942Y-62230000D01*
X125569668Y-62039752D01*
X125900680Y-61544358D01*
X126016916Y-60960000D01*
X138143084Y-60960000D01*
X138259320Y-61544358D01*
X138590332Y-62039752D01*
X138875058Y-62230000D01*
X138590332Y-62420248D01*
X138259320Y-62915642D01*
X138143084Y-63500000D01*
X138259320Y-64084358D01*
X138590332Y-64579752D01*
X138875058Y-64770000D01*
X138590332Y-64960248D01*
X138259320Y-65455642D01*
X138143084Y-66040000D01*
X138259320Y-66624358D01*
X138590332Y-67119752D01*
X138875058Y-67310000D01*
X138590332Y-67500248D01*
X138259320Y-67995642D01*
X138143084Y-68580000D01*
X138259320Y-69164358D01*
X138590332Y-69659752D01*
X138875058Y-69850000D01*
X138590332Y-70040248D01*
X138259320Y-70535642D01*
X138143084Y-71120000D01*
X138259320Y-71704358D01*
X138590332Y-72199752D01*
X138875058Y-72390000D01*
X138590332Y-72580248D01*
X138259320Y-73075642D01*
X138143084Y-73660000D01*
X138259320Y-74244358D01*
X138590332Y-74739752D01*
X138875058Y-74930000D01*
X138590332Y-75120248D01*
X138259320Y-75615642D01*
X138143084Y-76200000D01*
X138259320Y-76784358D01*
X138590332Y-77279752D01*
X138875058Y-77470000D01*
X138590332Y-77660248D01*
X138259320Y-78155642D01*
X138143084Y-78740000D01*
X138259320Y-79324358D01*
X138590332Y-79819752D01*
X138875058Y-80010000D01*
X138590332Y-80200248D01*
X138259320Y-80695642D01*
X138143084Y-81280000D01*
X138259320Y-81864358D01*
X138590332Y-82359752D01*
X138875058Y-82550000D01*
X138590332Y-82740248D01*
X138259320Y-83235642D01*
X138143084Y-83820000D01*
X138259320Y-84404358D01*
X138590332Y-84899752D01*
X138875058Y-85090000D01*
X138590332Y-85280248D01*
X138259320Y-85775642D01*
X138143084Y-86360000D01*
X138259320Y-86944358D01*
X138590332Y-87439752D01*
X138875058Y-87630000D01*
X138590332Y-87820248D01*
X138259320Y-88315642D01*
X138143084Y-88900000D01*
X138259320Y-89484358D01*
X138590332Y-89979752D01*
X138965575Y-90230482D01*
X138844866Y-90287611D01*
X138468959Y-90702577D01*
X138308096Y-91090961D01*
X138430085Y-91313000D01*
X139573000Y-91313000D01*
X139573000Y-91293000D01*
X139827000Y-91293000D01*
X139827000Y-91313000D01*
X140969915Y-91313000D01*
X141091904Y-91090961D01*
X140931041Y-90702577D01*
X140555134Y-90287611D01*
X140434425Y-90230482D01*
X140809668Y-89979752D01*
X141140680Y-89484358D01*
X141256916Y-88900000D01*
X141140680Y-88315642D01*
X140809668Y-87820248D01*
X140524942Y-87630000D01*
X140809668Y-87439752D01*
X141140680Y-86944358D01*
X141256916Y-86360000D01*
X141140680Y-85775642D01*
X140809668Y-85280248D01*
X140524942Y-85090000D01*
X140809668Y-84899752D01*
X141140680Y-84404358D01*
X141256916Y-83820000D01*
X141140680Y-83235642D01*
X140809668Y-82740248D01*
X140524942Y-82550000D01*
X140809668Y-82359752D01*
X141140680Y-81864358D01*
X141256916Y-81280000D01*
X141140680Y-80695642D01*
X140809668Y-80200248D01*
X140524942Y-80010000D01*
X140809668Y-79819752D01*
X141140680Y-79324358D01*
X141256916Y-78740000D01*
X141140680Y-78155642D01*
X140809668Y-77660248D01*
X140524942Y-77470000D01*
X140809668Y-77279752D01*
X141140680Y-76784358D01*
X141256916Y-76200000D01*
X141140680Y-75615642D01*
X140809668Y-75120248D01*
X140524942Y-74930000D01*
X140809668Y-74739752D01*
X141140680Y-74244358D01*
X141256916Y-73660000D01*
X141140680Y-73075642D01*
X140809668Y-72580248D01*
X140524942Y-72390000D01*
X140809668Y-72199752D01*
X141140680Y-71704358D01*
X141256916Y-71120000D01*
X141140680Y-70535642D01*
X140809668Y-70040248D01*
X140524942Y-69850000D01*
X140809668Y-69659752D01*
X141140680Y-69164358D01*
X141256916Y-68580000D01*
X141140680Y-67995642D01*
X140809668Y-67500248D01*
X140524942Y-67310000D01*
X140809668Y-67119752D01*
X141140680Y-66624358D01*
X141256916Y-66040000D01*
X141140680Y-65455642D01*
X140809668Y-64960248D01*
X140524942Y-64770000D01*
X140809668Y-64579752D01*
X141140680Y-64084358D01*
X141256916Y-63500000D01*
X141140680Y-62915642D01*
X140809668Y-62420248D01*
X140524942Y-62230000D01*
X140809668Y-62039752D01*
X141140680Y-61544358D01*
X141256916Y-60960000D01*
X141140680Y-60375642D01*
X140811722Y-59883322D01*
X141016846Y-59751328D01*
X141182843Y-59508385D01*
X141241242Y-59220000D01*
X141241242Y-58420000D01*
X148938084Y-58420000D01*
X149054320Y-59004358D01*
X149385332Y-59499752D01*
X149670058Y-59690000D01*
X149385332Y-59880248D01*
X149054320Y-60375642D01*
X148938084Y-60960000D01*
X149054320Y-61544358D01*
X149385332Y-62039752D01*
X149670058Y-62230000D01*
X149385332Y-62420248D01*
X149054320Y-62915642D01*
X148938084Y-63500000D01*
X149054320Y-64084358D01*
X149385332Y-64579752D01*
X149670058Y-64770000D01*
X149385332Y-64960248D01*
X149054320Y-65455642D01*
X148938084Y-66040000D01*
X149054320Y-66624358D01*
X149385332Y-67119752D01*
X149670058Y-67310000D01*
X149385332Y-67500248D01*
X149054320Y-67995642D01*
X148938084Y-68580000D01*
X149054320Y-69164358D01*
X149385332Y-69659752D01*
X149670058Y-69850000D01*
X149385332Y-70040248D01*
X149054320Y-70535642D01*
X148938084Y-71120000D01*
X149054320Y-71704358D01*
X149385332Y-72199752D01*
X149670058Y-72390000D01*
X149385332Y-72580248D01*
X149054320Y-73075642D01*
X148938084Y-73660000D01*
X149054320Y-74244358D01*
X149385332Y-74739752D01*
X149670058Y-74930000D01*
X149385332Y-75120248D01*
X149054320Y-75615642D01*
X148938084Y-76200000D01*
X149054320Y-76784358D01*
X149385332Y-77279752D01*
X149670058Y-77470000D01*
X149385332Y-77660248D01*
X149054320Y-78155642D01*
X148938084Y-78740000D01*
X149054320Y-79324358D01*
X149385332Y-79819752D01*
X149670058Y-80010000D01*
X149385332Y-80200248D01*
X149054320Y-80695642D01*
X148938084Y-81280000D01*
X149054320Y-81864358D01*
X149385332Y-82359752D01*
X149670058Y-82550000D01*
X149385332Y-82740248D01*
X149054320Y-83235642D01*
X148938084Y-83820000D01*
X149054320Y-84404358D01*
X149385332Y-84899752D01*
X149670058Y-85090000D01*
X149385332Y-85280248D01*
X149054320Y-85775642D01*
X148938084Y-86360000D01*
X149054320Y-86944358D01*
X149385332Y-87439752D01*
X149670058Y-87630000D01*
X149385332Y-87820248D01*
X149054320Y-88315642D01*
X148938084Y-88900000D01*
X149054320Y-89484358D01*
X149385332Y-89979752D01*
X149670058Y-90170000D01*
X149385332Y-90360248D01*
X149054320Y-90855642D01*
X148938084Y-91440000D01*
X149054320Y-92024358D01*
X149385332Y-92519752D01*
X149880726Y-92850764D01*
X150465084Y-92967000D01*
X150524916Y-92967000D01*
X151109274Y-92850764D01*
X151604668Y-92519752D01*
X151935680Y-92024358D01*
X152051916Y-91440000D01*
X151935680Y-90855642D01*
X151604668Y-90360248D01*
X151319942Y-90170000D01*
X151604668Y-89979752D01*
X151935680Y-89484358D01*
X152051916Y-88900000D01*
X151935680Y-88315642D01*
X151604668Y-87820248D01*
X151319942Y-87630000D01*
X151604668Y-87439752D01*
X151935680Y-86944358D01*
X152051916Y-86360000D01*
X151935680Y-85775642D01*
X151604668Y-85280248D01*
X151319942Y-85090000D01*
X151604668Y-84899752D01*
X151935680Y-84404358D01*
X152051916Y-83820000D01*
X151935680Y-83235642D01*
X151604668Y-82740248D01*
X151319942Y-82550000D01*
X151604668Y-82359752D01*
X151935680Y-81864358D01*
X152051916Y-81280000D01*
X151935680Y-80695642D01*
X151604668Y-80200248D01*
X151319942Y-80010000D01*
X151604668Y-79819752D01*
X151935680Y-79324358D01*
X152051916Y-78740000D01*
X151935680Y-78155642D01*
X151604668Y-77660248D01*
X151319942Y-77470000D01*
X151604668Y-77279752D01*
X151935680Y-76784358D01*
X152051916Y-76200000D01*
X151935680Y-75615642D01*
X151604668Y-75120248D01*
X151319942Y-74930000D01*
X151604668Y-74739752D01*
X151935680Y-74244358D01*
X152051916Y-73660000D01*
X151935680Y-73075642D01*
X151604668Y-72580248D01*
X151319942Y-72390000D01*
X151604668Y-72199752D01*
X151935680Y-71704358D01*
X152051916Y-71120000D01*
X151935680Y-70535642D01*
X151604668Y-70040248D01*
X151319942Y-69850000D01*
X151604668Y-69659752D01*
X151935680Y-69164358D01*
X152051916Y-68580000D01*
X151935680Y-67995642D01*
X151604668Y-67500248D01*
X151319942Y-67310000D01*
X151604668Y-67119752D01*
X151935680Y-66624358D01*
X152051916Y-66040000D01*
X151935680Y-65455642D01*
X151604668Y-64960248D01*
X151319942Y-64770000D01*
X151604668Y-64579752D01*
X151935680Y-64084358D01*
X152051916Y-63500000D01*
X151935680Y-62915642D01*
X151604668Y-62420248D01*
X151319942Y-62230000D01*
X151604668Y-62039752D01*
X151935680Y-61544358D01*
X152051916Y-60960000D01*
X151935680Y-60375642D01*
X151604668Y-59880248D01*
X151319942Y-59690000D01*
X151604668Y-59499752D01*
X151935680Y-59004358D01*
X152051916Y-58420000D01*
X151935680Y-57835642D01*
X151604668Y-57340248D01*
X151109274Y-57009236D01*
X150524916Y-56893000D01*
X150465084Y-56893000D01*
X149880726Y-57009236D01*
X149385332Y-57340248D01*
X149054320Y-57835642D01*
X148938084Y-58420000D01*
X141241242Y-58420000D01*
X141241242Y-57620000D01*
X141190549Y-57350590D01*
X141031328Y-57103154D01*
X140788385Y-56937157D01*
X140500000Y-56878758D01*
X138900000Y-56878758D01*
X138630590Y-56929451D01*
X138383154Y-57088672D01*
X138217157Y-57331615D01*
X138158758Y-57620000D01*
X138158758Y-59220000D01*
X138209451Y-59489410D01*
X138368672Y-59736846D01*
X138586638Y-59885777D01*
X138259320Y-60375642D01*
X138143084Y-60960000D01*
X126016916Y-60960000D01*
X125900680Y-60375642D01*
X125569668Y-59880248D01*
X125284942Y-59690000D01*
X125569668Y-59499752D01*
X125900680Y-59004358D01*
X126016916Y-58420000D01*
X125900680Y-57835642D01*
X125569668Y-57340248D01*
X125074274Y-57009236D01*
X124489916Y-56893000D01*
X124430084Y-56893000D01*
X123845726Y-57009236D01*
X123570704Y-57193000D01*
X123190000Y-57193000D01*
X122720448Y-57286399D01*
X122322380Y-57552380D01*
X121560380Y-58314380D01*
X121294400Y-58712447D01*
X121201000Y-59182000D01*
X121201000Y-72635968D01*
X120831011Y-72788844D01*
X120811822Y-72808000D01*
X120488616Y-72808000D01*
X120470508Y-72789860D01*
X120093179Y-72633179D01*
X119684613Y-72632822D01*
X119307011Y-72788844D01*
X119017860Y-73077492D01*
X118861179Y-73454821D01*
X118860822Y-73863387D01*
X119016844Y-74240989D01*
X119305492Y-74530140D01*
X119682821Y-74686821D01*
X120091387Y-74687178D01*
X120468989Y-74531156D01*
X120488178Y-74512000D01*
X120811384Y-74512000D01*
X120829492Y-74530140D01*
X121201000Y-74684404D01*
X121201000Y-77715968D01*
X120831011Y-77868844D01*
X120811822Y-77888000D01*
X119980616Y-77888000D01*
X119962508Y-77869860D01*
X119585179Y-77713179D01*
X119176613Y-77712822D01*
X118799011Y-77868844D01*
X118509860Y-78157492D01*
X118353179Y-78534821D01*
X118352822Y-78943387D01*
X118508844Y-79320989D01*
X118562603Y-79374841D01*
X118509860Y-79427492D01*
X118353179Y-79804821D01*
X118352822Y-80213387D01*
X118508844Y-80590989D01*
X118797492Y-80880140D01*
X119174821Y-81036821D01*
X119583387Y-81037178D01*
X119960989Y-80881156D01*
X119980178Y-80862000D01*
X120811384Y-80862000D01*
X120829492Y-80880140D01*
X121201000Y-81034404D01*
X121201000Y-94487760D01*
X120290380Y-95398380D01*
X120024400Y-95796447D01*
X119931000Y-96266000D01*
X119931000Y-96511968D01*
X119561011Y-96664844D01*
X119271860Y-96953492D01*
X119115179Y-97330821D01*
X119114822Y-97739387D01*
X119270844Y-98116989D01*
X119290000Y-98136178D01*
X119290000Y-110236000D01*
X119354855Y-110562046D01*
X119539545Y-110838455D01*
X120809545Y-112108455D01*
X121085954Y-112293145D01*
X121412000Y-112358000D01*
X127415825Y-112358000D01*
X127687492Y-112630140D01*
X128064821Y-112786821D01*
X128473387Y-112787178D01*
X128850989Y-112631156D01*
X128870178Y-112612000D01*
X133339143Y-112612000D01*
X133338822Y-112979387D01*
X133494844Y-113356989D01*
X133514000Y-113376178D01*
X133514000Y-117094000D01*
X133578855Y-117420046D01*
X133763545Y-117696455D01*
X135370844Y-119303754D01*
X135370822Y-119329387D01*
X135526844Y-119706989D01*
X135815492Y-119996140D01*
X136192821Y-120152821D01*
X136601387Y-120153178D01*
X136978989Y-119997156D01*
X137070000Y-119906303D01*
X137070000Y-138331090D01*
X135791090Y-139610000D01*
X130556000Y-139610000D01*
X130229953Y-139674855D01*
X129953545Y-139859545D01*
X129191545Y-140621545D01*
X129006855Y-140897954D01*
X128942000Y-141224000D01*
X128942000Y-141412596D01*
X128777154Y-141518672D01*
X128718168Y-141605000D01*
X128331560Y-141605000D01*
X128285328Y-141533154D01*
X128106000Y-141410624D01*
X128106000Y-127854616D01*
X128124140Y-127836508D01*
X128280821Y-127459179D01*
X128281178Y-127050613D01*
X128125156Y-126673011D01*
X127836508Y-126383860D01*
X127459179Y-126227179D01*
X127050613Y-126226822D01*
X126673011Y-126382844D01*
X126383860Y-126671492D01*
X126227179Y-127048821D01*
X126226822Y-127457387D01*
X126382844Y-127834989D01*
X126402000Y-127854178D01*
X126402000Y-141412596D01*
X126237154Y-141518672D01*
X126178168Y-141605000D01*
X125791560Y-141605000D01*
X125745328Y-141533154D01*
X125502385Y-141367157D01*
X125214000Y-141308758D01*
X124214000Y-141308758D01*
X123944590Y-141359451D01*
X123697154Y-141518672D01*
X123638168Y-141605000D01*
X123251560Y-141605000D01*
X123205328Y-141533154D01*
X122962385Y-141367157D01*
X122674000Y-141308758D01*
X121674000Y-141308758D01*
X121404590Y-141359451D01*
X121157154Y-141518672D01*
X121098168Y-141605000D01*
X120711560Y-141605000D01*
X120665328Y-141533154D01*
X120422385Y-141367157D01*
X120134000Y-141308758D01*
X119134000Y-141308758D01*
X118864590Y-141359451D01*
X118617154Y-141518672D01*
X118558168Y-141605000D01*
X118171560Y-141605000D01*
X118125328Y-141533154D01*
X117882385Y-141367157D01*
X117594000Y-141308758D01*
X116594000Y-141308758D01*
X116324590Y-141359451D01*
X116077154Y-141518672D01*
X116018168Y-141605000D01*
X115631560Y-141605000D01*
X115585328Y-141533154D01*
X115406000Y-141410624D01*
X115406000Y-141062616D01*
X115424140Y-141044508D01*
X115580821Y-140667179D01*
X115581178Y-140258613D01*
X115425156Y-139881011D01*
X115136508Y-139591860D01*
X114759179Y-139435179D01*
X114350613Y-139434822D01*
X113973011Y-139590844D01*
X113683860Y-139879492D01*
X113527179Y-140256821D01*
X113526822Y-140665387D01*
X113682844Y-141042989D01*
X113702000Y-141062178D01*
X113702000Y-141412596D01*
X113537154Y-141518672D01*
X113478168Y-141605000D01*
X112967026Y-141605000D01*
X112873698Y-141511673D01*
X112640309Y-141415000D01*
X112299750Y-141415000D01*
X112141000Y-141573750D01*
X112141000Y-141605000D01*
X111887000Y-141605000D01*
X111887000Y-141573750D01*
X111728250Y-141415000D01*
X111546000Y-141415000D01*
X111546000Y-139446000D01*
X111484951Y-139139088D01*
X111311100Y-138878900D01*
X111050912Y-138705049D01*
X110744000Y-138644000D01*
X98846000Y-138644000D01*
X98846000Y-136601387D01*
X118606822Y-136601387D01*
X118762844Y-136978989D01*
X118782000Y-136998178D01*
X118782000Y-139099384D01*
X118763860Y-139117492D01*
X118607179Y-139494821D01*
X118606822Y-139903387D01*
X118762844Y-140280989D01*
X119051492Y-140570140D01*
X119428821Y-140726821D01*
X119837387Y-140727178D01*
X120214989Y-140571156D01*
X120504140Y-140282508D01*
X120660821Y-139905179D01*
X120661178Y-139496613D01*
X120505156Y-139119011D01*
X120486000Y-139099822D01*
X120486000Y-136998616D01*
X120504140Y-136980508D01*
X120660821Y-136603179D01*
X120661178Y-136194613D01*
X120505156Y-135817011D01*
X120216508Y-135527860D01*
X119839179Y-135371179D01*
X119430613Y-135370822D01*
X119053011Y-135526844D01*
X118763860Y-135815492D01*
X118607179Y-136192821D01*
X118606822Y-136601387D01*
X98846000Y-136601387D01*
X98846000Y-92498256D01*
X101316349Y-92498256D01*
X101405821Y-92757332D01*
X101988368Y-92971325D01*
X102608461Y-92946097D01*
X103064179Y-92757332D01*
X103153651Y-92498256D01*
X102235000Y-91579605D01*
X101316349Y-92498256D01*
X98846000Y-92498256D01*
X98846000Y-87975000D01*
X100568758Y-87975000D01*
X100568758Y-89825000D01*
X100619451Y-90094410D01*
X100778672Y-90341846D01*
X101021615Y-90507843D01*
X101045829Y-90512746D01*
X100877668Y-90570821D01*
X100663675Y-91153368D01*
X100688903Y-91773461D01*
X100877668Y-92229179D01*
X101136744Y-92318651D01*
X102055395Y-91400000D01*
X102041253Y-91385858D01*
X102220858Y-91206253D01*
X102235000Y-91220395D01*
X102249143Y-91206253D01*
X102428748Y-91385858D01*
X102414605Y-91400000D01*
X103333256Y-92318651D01*
X103592332Y-92229179D01*
X103806325Y-91646632D01*
X103781097Y-91026539D01*
X103592332Y-90570821D01*
X103430414Y-90514903D01*
X103676846Y-90356328D01*
X103842843Y-90113385D01*
X103901242Y-89825000D01*
X103901242Y-89154000D01*
X110025000Y-89154000D01*
X110118400Y-89623553D01*
X110384380Y-90021620D01*
X110782447Y-90287600D01*
X111252000Y-90381000D01*
X116077760Y-90381000D01*
X116121000Y-90424240D01*
X116121000Y-95039000D01*
X114300000Y-95039000D01*
X113830447Y-95132400D01*
X113432380Y-95398380D01*
X112416380Y-96414380D01*
X112150400Y-96812447D01*
X112057000Y-97282000D01*
X112057000Y-105156000D01*
X112150400Y-105625553D01*
X112416380Y-106023620D01*
X112814447Y-106289600D01*
X113284000Y-106383000D01*
X113753553Y-106289600D01*
X114151620Y-106023620D01*
X114417600Y-105625553D01*
X114511000Y-105156000D01*
X114511000Y-97790240D01*
X114808240Y-97493000D01*
X117348000Y-97493000D01*
X117817553Y-97399600D01*
X118215620Y-97133620D01*
X118481600Y-96735553D01*
X118575000Y-96266000D01*
X118575000Y-89916000D01*
X118550579Y-89793228D01*
X118481601Y-89446448D01*
X118215620Y-89048380D01*
X117453620Y-88286380D01*
X117055553Y-88020400D01*
X116586000Y-87927000D01*
X111252000Y-87927000D01*
X110782447Y-88020400D01*
X110384380Y-88286380D01*
X110118400Y-88684447D01*
X110025000Y-89154000D01*
X103901242Y-89154000D01*
X103901242Y-87975000D01*
X103850549Y-87705590D01*
X103691328Y-87458154D01*
X103448385Y-87292157D01*
X103160000Y-87233758D01*
X101310000Y-87233758D01*
X101040590Y-87284451D01*
X100793154Y-87443672D01*
X100627157Y-87686615D01*
X100568758Y-87975000D01*
X98846000Y-87975000D01*
X98846000Y-82893256D01*
X101316349Y-82893256D01*
X101405821Y-83152332D01*
X101988368Y-83366325D01*
X102608461Y-83341097D01*
X103064179Y-83152332D01*
X103153651Y-82893256D01*
X102235000Y-81974605D01*
X101316349Y-82893256D01*
X98846000Y-82893256D01*
X98846000Y-81548368D01*
X100663675Y-81548368D01*
X100688903Y-82168461D01*
X100877668Y-82624179D01*
X101136744Y-82713651D01*
X102055395Y-81795000D01*
X102414605Y-81795000D01*
X103333256Y-82713651D01*
X103592332Y-82624179D01*
X103806325Y-82041632D01*
X103781097Y-81421539D01*
X103592332Y-80965821D01*
X103333256Y-80876349D01*
X102414605Y-81795000D01*
X102055395Y-81795000D01*
X101136744Y-80876349D01*
X100877668Y-80965821D01*
X100663675Y-81548368D01*
X98846000Y-81548368D01*
X98846000Y-73370000D01*
X100568758Y-73370000D01*
X100568758Y-75220000D01*
X100619451Y-75489410D01*
X100778672Y-75736846D01*
X100884348Y-75809052D01*
X100835319Y-75857995D01*
X100583287Y-76464955D01*
X100582713Y-77122162D01*
X100833686Y-77729561D01*
X101148718Y-78045143D01*
X100835319Y-78357995D01*
X100583287Y-78964955D01*
X100582713Y-79622162D01*
X100833686Y-80229561D01*
X101297995Y-80694681D01*
X101325854Y-80706249D01*
X102235000Y-81615395D01*
X103143181Y-80707214D01*
X103169561Y-80696314D01*
X103634681Y-80232005D01*
X103886713Y-79625045D01*
X103887287Y-78967838D01*
X103636314Y-78360439D01*
X103321282Y-78044857D01*
X103634681Y-77732005D01*
X103669978Y-77647000D01*
X109057325Y-77647000D01*
X109268821Y-77734821D01*
X109677387Y-77735178D01*
X110054989Y-77579156D01*
X110344140Y-77290508D01*
X110500821Y-76913179D01*
X110501178Y-76504613D01*
X110345156Y-76127011D01*
X110056508Y-75837860D01*
X109679179Y-75681179D01*
X109270613Y-75680822D01*
X108893011Y-75836844D01*
X108786670Y-75943000D01*
X103670428Y-75943000D01*
X103636314Y-75860439D01*
X103585847Y-75809884D01*
X103676846Y-75751328D01*
X103842843Y-75508385D01*
X103901242Y-75220000D01*
X103901242Y-75147000D01*
X109407655Y-75147000D01*
X109522821Y-75194821D01*
X109931387Y-75195178D01*
X110308989Y-75039156D01*
X110598140Y-74750508D01*
X110754821Y-74373179D01*
X110755178Y-73964613D01*
X110599156Y-73587011D01*
X110310508Y-73297860D01*
X109933179Y-73141179D01*
X109524613Y-73140822D01*
X109147011Y-73296844D01*
X109000600Y-73443000D01*
X103901242Y-73443000D01*
X103901242Y-73370000D01*
X103850549Y-73100590D01*
X103691328Y-72853154D01*
X103448385Y-72687157D01*
X103160000Y-72628758D01*
X101310000Y-72628758D01*
X101040590Y-72679451D01*
X100793154Y-72838672D01*
X100627157Y-73081615D01*
X100568758Y-73370000D01*
X98846000Y-73370000D01*
X98846000Y-51443970D01*
X101569635Y-51443970D01*
X101729418Y-51762739D01*
X102520187Y-52072723D01*
X103369387Y-52056497D01*
X104078582Y-51762739D01*
X104238365Y-51443970D01*
X114709635Y-51443970D01*
X114869418Y-51762739D01*
X115660187Y-52072723D01*
X116509387Y-52056497D01*
X117218582Y-51762739D01*
X117378365Y-51443970D01*
X116044000Y-50109605D01*
X114709635Y-51443970D01*
X104238365Y-51443970D01*
X102904000Y-50109605D01*
X101569635Y-51443970D01*
X98846000Y-51443970D01*
X98846000Y-49546187D01*
X100761277Y-49546187D01*
X100777503Y-50395387D01*
X101071261Y-51104582D01*
X101390030Y-51264365D01*
X102724395Y-49930000D01*
X103083605Y-49930000D01*
X104417970Y-51264365D01*
X104736739Y-51104582D01*
X105046723Y-50313813D01*
X105032056Y-49546187D01*
X113901277Y-49546187D01*
X113917503Y-50395387D01*
X114211261Y-51104582D01*
X114530030Y-51264365D01*
X115864395Y-49930000D01*
X116223605Y-49930000D01*
X117557970Y-51264365D01*
X117876739Y-51104582D01*
X118186723Y-50313813D01*
X118185406Y-50244838D01*
X122640597Y-50244838D01*
X122994115Y-51100418D01*
X123648139Y-51755585D01*
X124503100Y-52110596D01*
X125428838Y-52111403D01*
X126284418Y-51757885D01*
X126939585Y-51103861D01*
X127294596Y-50248900D01*
X127294599Y-50244838D01*
X162772597Y-50244838D01*
X163126115Y-51100418D01*
X163780139Y-51755585D01*
X164635100Y-52110596D01*
X165560838Y-52111403D01*
X166416418Y-51757885D01*
X167071585Y-51103861D01*
X167426596Y-50248900D01*
X167427403Y-49323162D01*
X167073885Y-48467582D01*
X166419861Y-47812415D01*
X165564900Y-47457404D01*
X164639162Y-47456597D01*
X163783582Y-47810115D01*
X163128415Y-48464139D01*
X162773404Y-49319100D01*
X162772597Y-50244838D01*
X127294599Y-50244838D01*
X127295403Y-49323162D01*
X126941885Y-48467582D01*
X126287861Y-47812415D01*
X125432900Y-47457404D01*
X124507162Y-47456597D01*
X123651582Y-47810115D01*
X122996415Y-48464139D01*
X122641404Y-49319100D01*
X122640597Y-50244838D01*
X118185406Y-50244838D01*
X118170497Y-49464613D01*
X117876739Y-48755418D01*
X117557970Y-48595635D01*
X116223605Y-49930000D01*
X115864395Y-49930000D01*
X114530030Y-48595635D01*
X114211261Y-48755418D01*
X113901277Y-49546187D01*
X105032056Y-49546187D01*
X105030497Y-49464613D01*
X104736739Y-48755418D01*
X104417970Y-48595635D01*
X103083605Y-49930000D01*
X102724395Y-49930000D01*
X101390030Y-48595635D01*
X101071261Y-48755418D01*
X100761277Y-49546187D01*
X98846000Y-49546187D01*
X98846000Y-48416030D01*
X101569635Y-48416030D01*
X102904000Y-49750395D01*
X104238365Y-48416030D01*
X114709635Y-48416030D01*
X116044000Y-49750395D01*
X117378365Y-48416030D01*
X117218582Y-48097261D01*
X116427813Y-47787277D01*
X115578613Y-47803503D01*
X114869418Y-48097261D01*
X114709635Y-48416030D01*
X104238365Y-48416030D01*
X104078582Y-48097261D01*
X103287813Y-47787277D01*
X102438613Y-47803503D01*
X101729418Y-48097261D01*
X101569635Y-48416030D01*
X98846000Y-48416030D01*
X98846000Y-46522000D01*
X178522000Y-46522000D01*
X178522000Y-138644000D01*
X178522000Y-138644000D01*
G37*
X178522000Y-138644000D02*
X166624000Y-138644000D01*
X166317088Y-138705049D01*
X166056900Y-138878900D01*
X165883049Y-139139088D01*
X165822000Y-139446000D01*
X165822000Y-139582091D01*
X165354000Y-139489000D01*
X164884447Y-139582400D01*
X164486380Y-139848380D01*
X164220400Y-140246447D01*
X164127000Y-140716000D01*
X164127000Y-141605000D01*
X163891560Y-141605000D01*
X163845328Y-141533154D01*
X163666000Y-141410624D01*
X163666000Y-140716000D01*
X163637189Y-140571156D01*
X163601145Y-140389953D01*
X163416455Y-140113545D01*
X159860455Y-136557545D01*
X159584046Y-136372855D01*
X159258000Y-136308000D01*
X157570000Y-136308000D01*
X157570000Y-134620000D01*
X157505145Y-134293954D01*
X157320455Y-134017545D01*
X156050455Y-132747545D01*
X155774046Y-132562855D01*
X155448000Y-132498000D01*
X150466910Y-132498000D01*
X148684455Y-130715545D01*
X148408046Y-130530855D01*
X148082000Y-130466000D01*
X143608910Y-130466000D01*
X143600000Y-130457090D01*
X143600000Y-126695387D01*
X149340822Y-126695387D01*
X149496844Y-127072989D01*
X149785492Y-127362140D01*
X150121037Y-127501471D01*
X150258844Y-127834989D01*
X150547492Y-128124140D01*
X150924821Y-128280821D01*
X151333387Y-128281178D01*
X151710989Y-128125156D01*
X151730178Y-128106000D01*
X155857090Y-128106000D01*
X155944844Y-128193754D01*
X155944822Y-128219387D01*
X156100844Y-128596989D01*
X156389492Y-128886140D01*
X156766821Y-129042821D01*
X157175387Y-129043178D01*
X157552989Y-128887156D01*
X157842140Y-128598508D01*
X157998821Y-128221179D01*
X157999178Y-127812613D01*
X157849562Y-127450516D01*
X158060989Y-127363156D01*
X158350140Y-127074508D01*
X158506821Y-126697179D01*
X158506882Y-126626818D01*
X158568989Y-126601156D01*
X158858140Y-126312508D01*
X159014821Y-125935179D01*
X159015178Y-125526613D01*
X158859156Y-125149011D01*
X158570508Y-124859860D01*
X158507118Y-124833538D01*
X158507178Y-124764613D01*
X158351156Y-124387011D01*
X158062508Y-124097860D01*
X157685179Y-123941179D01*
X157276613Y-123940822D01*
X156899011Y-124096844D01*
X156879822Y-124116000D01*
X155540616Y-124116000D01*
X155522508Y-124097860D01*
X155186963Y-123958529D01*
X155058402Y-123647387D01*
X159246822Y-123647387D01*
X159402844Y-124024989D01*
X159422000Y-124044178D01*
X159422000Y-127415384D01*
X159403860Y-127433492D01*
X159247179Y-127810821D01*
X159246822Y-128219387D01*
X159402844Y-128596989D01*
X159691492Y-128886140D01*
X160068821Y-129042821D01*
X160477387Y-129043178D01*
X160854989Y-128887156D01*
X161144140Y-128598508D01*
X161300821Y-128221179D01*
X161301178Y-127812613D01*
X161145156Y-127435011D01*
X161126000Y-127415822D01*
X161126000Y-124044616D01*
X161144140Y-124026508D01*
X161300821Y-123649179D01*
X161301178Y-123240613D01*
X161145156Y-122863011D01*
X160856508Y-122573860D01*
X160479179Y-122417179D01*
X160070613Y-122416822D01*
X159693011Y-122572844D01*
X159403860Y-122861492D01*
X159247179Y-123238821D01*
X159246822Y-123647387D01*
X155058402Y-123647387D01*
X155049156Y-123625011D01*
X155030000Y-123605822D01*
X155030000Y-119472616D01*
X155048140Y-119454508D01*
X155204821Y-119077179D01*
X155205178Y-118668613D01*
X155049156Y-118291011D01*
X154760508Y-118001860D01*
X154383179Y-117845179D01*
X154312818Y-117845118D01*
X154287156Y-117783011D01*
X153998508Y-117493860D01*
X153621179Y-117337179D01*
X153212613Y-117336822D01*
X152835011Y-117492844D01*
X152653938Y-117673602D01*
X152474508Y-117493860D01*
X152097179Y-117337179D01*
X151688613Y-117336822D01*
X151311011Y-117492844D01*
X151021860Y-117781492D01*
X150995538Y-117844882D01*
X150926613Y-117844822D01*
X150549011Y-118000844D01*
X150259860Y-118289492D01*
X150103179Y-118666821D01*
X150102822Y-119075387D01*
X150258844Y-119452989D01*
X150278000Y-119472178D01*
X150278000Y-123351384D01*
X150259860Y-123369492D01*
X150103179Y-123746821D01*
X150102822Y-124155387D01*
X150258844Y-124532989D01*
X150547492Y-124822140D01*
X150883037Y-124961471D01*
X151020844Y-125294989D01*
X151309492Y-125584140D01*
X151444018Y-125640000D01*
X150968616Y-125640000D01*
X150950508Y-125621860D01*
X150573179Y-125465179D01*
X150164613Y-125464822D01*
X149787011Y-125620844D01*
X149497860Y-125909492D01*
X149341179Y-126286821D01*
X149340822Y-126695387D01*
X143600000Y-126695387D01*
X143600000Y-124155387D01*
X146546822Y-124155387D01*
X146702844Y-124532989D01*
X146991492Y-124822140D01*
X147368821Y-124978821D01*
X147777387Y-124979178D01*
X148082285Y-124853197D01*
X148384821Y-124978821D01*
X148793387Y-124979178D01*
X149170989Y-124823156D01*
X149460140Y-124534508D01*
X149616821Y-124157179D01*
X149617178Y-123748613D01*
X149461156Y-123371011D01*
X149442000Y-123351822D01*
X149442000Y-117948616D01*
X149460140Y-117930508D01*
X149616821Y-117553179D01*
X149617178Y-117144613D01*
X149491197Y-116839715D01*
X149616821Y-116537179D01*
X149617178Y-116128613D01*
X149461156Y-115751011D01*
X149172508Y-115461860D01*
X148795179Y-115305179D01*
X148386613Y-115304822D01*
X148009011Y-115460844D01*
X147719860Y-115749492D01*
X147563179Y-116126821D01*
X147563155Y-116153935D01*
X146971545Y-116745545D01*
X146786855Y-117021954D01*
X146722000Y-117348000D01*
X146722000Y-123351384D01*
X146703860Y-123369492D01*
X146547179Y-123746821D01*
X146546822Y-124155387D01*
X143600000Y-124155387D01*
X143600000Y-115824000D01*
X143535145Y-115497954D01*
X143350455Y-115221545D01*
X142588455Y-114459545D01*
X142312046Y-114274855D01*
X141986000Y-114210000D01*
X139036910Y-114210000D01*
X135222455Y-110395545D01*
X134946046Y-110210855D01*
X134620000Y-110146000D01*
X128016000Y-110146000D01*
X127689953Y-110210855D01*
X127413545Y-110395545D01*
X127155090Y-110654000D01*
X121764910Y-110654000D01*
X120994000Y-109883090D01*
X120994000Y-108156838D01*
X122640597Y-108156838D01*
X122994115Y-109012418D01*
X123648139Y-109667585D01*
X124503100Y-110022596D01*
X125428838Y-110023403D01*
X126284418Y-109669885D01*
X126939585Y-109015861D01*
X127294596Y-108160900D01*
X127294599Y-108156838D01*
X162772597Y-108156838D01*
X163126115Y-109012418D01*
X163780139Y-109667585D01*
X164635100Y-110022596D01*
X165560838Y-110023403D01*
X166416418Y-109669885D01*
X167071585Y-109015861D01*
X167426596Y-108160900D01*
X167427403Y-107235162D01*
X167073885Y-106379582D01*
X166419861Y-105724415D01*
X165564900Y-105369404D01*
X164639162Y-105368597D01*
X163783582Y-105722115D01*
X163128415Y-106376139D01*
X162773404Y-107231100D01*
X162772597Y-108156838D01*
X127294599Y-108156838D01*
X127295403Y-107235162D01*
X126941885Y-106379582D01*
X126287861Y-105724415D01*
X125432900Y-105369404D01*
X124507162Y-105368597D01*
X123651582Y-105722115D01*
X122996415Y-106376139D01*
X122641404Y-107231100D01*
X122640597Y-108156838D01*
X120994000Y-108156838D01*
X120994000Y-102286378D01*
X121158000Y-102319000D01*
X121627553Y-102225600D01*
X122025620Y-101959620D01*
X122291600Y-101561553D01*
X122385000Y-101092000D01*
X122385000Y-100553105D01*
X123391000Y-100553105D01*
X123391000Y-100614895D01*
X123511042Y-101218387D01*
X123852893Y-101730002D01*
X124364508Y-102071853D01*
X124968000Y-102191895D01*
X125571492Y-102071853D01*
X126083107Y-101730002D01*
X126238000Y-101498189D01*
X126392893Y-101730002D01*
X126904508Y-102071853D01*
X127508000Y-102191895D01*
X128111492Y-102071853D01*
X128623107Y-101730002D01*
X128778000Y-101498189D01*
X128932893Y-101730002D01*
X129444508Y-102071853D01*
X130048000Y-102191895D01*
X130651492Y-102071853D01*
X131163107Y-101730002D01*
X131318000Y-101498189D01*
X131472893Y-101730002D01*
X131984508Y-102071853D01*
X132588000Y-102191895D01*
X133191492Y-102071853D01*
X133703107Y-101730002D01*
X133858000Y-101498189D01*
X134012893Y-101730002D01*
X134524508Y-102071853D01*
X135128000Y-102191895D01*
X135731492Y-102071853D01*
X136243107Y-101730002D01*
X136398000Y-101498189D01*
X136552893Y-101730002D01*
X137064508Y-102071853D01*
X137668000Y-102191895D01*
X138271492Y-102071853D01*
X138783107Y-101730002D01*
X138938000Y-101498189D01*
X139092893Y-101730002D01*
X139604508Y-102071853D01*
X140208000Y-102191895D01*
X140811492Y-102071853D01*
X141323107Y-101730002D01*
X141478000Y-101498189D01*
X141632893Y-101730002D01*
X142144508Y-102071853D01*
X142748000Y-102191895D01*
X143351492Y-102071853D01*
X143863107Y-101730002D01*
X144018000Y-101498189D01*
X144172893Y-101730002D01*
X144684508Y-102071853D01*
X145288000Y-102191895D01*
X145891492Y-102071853D01*
X146403107Y-101730002D01*
X146558000Y-101498189D01*
X146712893Y-101730002D01*
X147224508Y-102071853D01*
X147828000Y-102191895D01*
X148431492Y-102071853D01*
X148943107Y-101730002D01*
X149098000Y-101498189D01*
X149252893Y-101730002D01*
X149764508Y-102071853D01*
X150368000Y-102191895D01*
X150971492Y-102071853D01*
X151483107Y-101730002D01*
X151638000Y-101498189D01*
X151792893Y-101730002D01*
X152304508Y-102071853D01*
X152908000Y-102191895D01*
X153511492Y-102071853D01*
X154023107Y-101730002D01*
X154230991Y-101418882D01*
X154252817Y-101465358D01*
X154681076Y-101855645D01*
X155091110Y-102025476D01*
X155321000Y-101904155D01*
X155321000Y-100711000D01*
X155301000Y-100711000D01*
X155301000Y-100457000D01*
X155321000Y-100457000D01*
X155321000Y-100437000D01*
X155575000Y-100437000D01*
X155575000Y-100457000D01*
X155595000Y-100457000D01*
X155595000Y-100711000D01*
X155575000Y-100711000D01*
X155575000Y-101904155D01*
X155804890Y-102025476D01*
X156214924Y-101855645D01*
X156643183Y-101465358D01*
X156665009Y-101418882D01*
X156872893Y-101730002D01*
X157384508Y-102071853D01*
X157988000Y-102191895D01*
X158591492Y-102071853D01*
X159103107Y-101730002D01*
X159258000Y-101498189D01*
X159412893Y-101730002D01*
X159924508Y-102071853D01*
X160528000Y-102191895D01*
X161131492Y-102071853D01*
X161643107Y-101730002D01*
X161798000Y-101498189D01*
X161952893Y-101730002D01*
X162464508Y-102071853D01*
X163068000Y-102191895D01*
X163671492Y-102071853D01*
X164183107Y-101730002D01*
X164338000Y-101498189D01*
X164492893Y-101730002D01*
X165004508Y-102071853D01*
X165608000Y-102191895D01*
X166211492Y-102071853D01*
X166723107Y-101730002D01*
X167064958Y-101218387D01*
X167185000Y-100614895D01*
X167185000Y-100553105D01*
X167128392Y-100268518D01*
X167480455Y-99916455D01*
X167665145Y-99640046D01*
X167730000Y-99314000D01*
X167730000Y-97536000D01*
X167665145Y-97209954D01*
X167480455Y-96933545D01*
X164428000Y-93881090D01*
X164428000Y-91994029D01*
X164503959Y-92177423D01*
X164879866Y-92592389D01*
X165385959Y-92831914D01*
X165608000Y-92710629D01*
X165608000Y-91567000D01*
X165862000Y-91567000D01*
X165862000Y-92710629D01*
X166084041Y-92831914D01*
X166590134Y-92592389D01*
X166966041Y-92177423D01*
X167126904Y-91789039D01*
X167004915Y-91567000D01*
X165862000Y-91567000D01*
X165608000Y-91567000D01*
X165588000Y-91567000D01*
X165588000Y-91313000D01*
X165608000Y-91313000D01*
X165608000Y-91293000D01*
X165862000Y-91293000D01*
X165862000Y-91313000D01*
X167004915Y-91313000D01*
X167126904Y-91090961D01*
X166966041Y-90702577D01*
X166590134Y-90287611D01*
X166469425Y-90230482D01*
X166844668Y-89979752D01*
X167175680Y-89484358D01*
X167291916Y-88900000D01*
X167175680Y-88315642D01*
X166844668Y-87820248D01*
X166559942Y-87630000D01*
X166844668Y-87439752D01*
X167175680Y-86944358D01*
X167291916Y-86360000D01*
X167175680Y-85775642D01*
X166844668Y-85280248D01*
X166559942Y-85090000D01*
X166844668Y-84899752D01*
X167175680Y-84404358D01*
X167291916Y-83820000D01*
X167175680Y-83235642D01*
X166844668Y-82740248D01*
X166559942Y-82550000D01*
X166844668Y-82359752D01*
X167175680Y-81864358D01*
X167291916Y-81280000D01*
X167175680Y-80695642D01*
X166844668Y-80200248D01*
X166559942Y-80010000D01*
X166844668Y-79819752D01*
X167175680Y-79324358D01*
X167291916Y-78740000D01*
X167175680Y-78155642D01*
X166844668Y-77660248D01*
X166559942Y-77470000D01*
X166844668Y-77279752D01*
X167175680Y-76784358D01*
X167291916Y-76200000D01*
X167175680Y-75615642D01*
X166844668Y-75120248D01*
X166559942Y-74930000D01*
X166844668Y-74739752D01*
X167175680Y-74244358D01*
X167291916Y-73660000D01*
X167175680Y-73075642D01*
X166844668Y-72580248D01*
X166559942Y-72390000D01*
X166844668Y-72199752D01*
X167175680Y-71704358D01*
X167291916Y-71120000D01*
X167175680Y-70535642D01*
X166844668Y-70040248D01*
X166559942Y-69850000D01*
X166844668Y-69659752D01*
X167175680Y-69164358D01*
X167291916Y-68580000D01*
X167175680Y-67995642D01*
X166844668Y-67500248D01*
X166559942Y-67310000D01*
X166844668Y-67119752D01*
X167175680Y-66624358D01*
X167291916Y-66040000D01*
X167175680Y-65455642D01*
X166844668Y-64960248D01*
X166559942Y-64770000D01*
X166844668Y-64579752D01*
X167175680Y-64084358D01*
X167291916Y-63500000D01*
X167175680Y-62915642D01*
X166844668Y-62420248D01*
X166559942Y-62230000D01*
X166844668Y-62039752D01*
X167175680Y-61544358D01*
X167291916Y-60960000D01*
X167175680Y-60375642D01*
X166846722Y-59883322D01*
X167051846Y-59751328D01*
X167217843Y-59508385D01*
X167276242Y-59220000D01*
X167276242Y-57620000D01*
X167225549Y-57350590D01*
X167066328Y-57103154D01*
X166823385Y-56937157D01*
X166535000Y-56878758D01*
X164935000Y-56878758D01*
X164665590Y-56929451D01*
X164418154Y-57088672D01*
X164252157Y-57331615D01*
X164193758Y-57620000D01*
X164193758Y-59220000D01*
X164244451Y-59489410D01*
X164403672Y-59736846D01*
X164621638Y-59885777D01*
X164294320Y-60375642D01*
X164178084Y-60960000D01*
X164294320Y-61544358D01*
X164625332Y-62039752D01*
X164910058Y-62230000D01*
X164625332Y-62420248D01*
X164354253Y-62825946D01*
X164158508Y-62629860D01*
X163781179Y-62473179D01*
X163372613Y-62472822D01*
X162995011Y-62628844D01*
X162705860Y-62917492D01*
X162549179Y-63294821D01*
X162548822Y-63703387D01*
X162704844Y-64080989D01*
X162724000Y-64100178D01*
X162724000Y-65012921D01*
X162610613Y-65012822D01*
X162233011Y-65168844D01*
X161943860Y-65457492D01*
X161787179Y-65834821D01*
X161786822Y-66243387D01*
X161942844Y-66620989D01*
X161962000Y-66640178D01*
X161962000Y-67552921D01*
X161848613Y-67552822D01*
X161471011Y-67708844D01*
X161181860Y-67997492D01*
X161025179Y-68374821D01*
X161024822Y-68783387D01*
X161180844Y-69160989D01*
X161200000Y-69180178D01*
X161200000Y-70093143D01*
X160832613Y-70092822D01*
X160455011Y-70248844D01*
X160165860Y-70537492D01*
X160009179Y-70914821D01*
X160008822Y-71323387D01*
X160164844Y-71700989D01*
X160184000Y-71720178D01*
X160184000Y-72632921D01*
X160070613Y-72632822D01*
X159693011Y-72788844D01*
X159403860Y-73077492D01*
X159247179Y-73454821D01*
X159246822Y-73863387D01*
X159402844Y-74240989D01*
X159422000Y-74260178D01*
X159422000Y-75172921D01*
X159308613Y-75172822D01*
X158931011Y-75328844D01*
X158641860Y-75617492D01*
X158485179Y-75994821D01*
X158484822Y-76403387D01*
X158640844Y-76780989D01*
X158660000Y-76800178D01*
X158660000Y-77712921D01*
X158546613Y-77712822D01*
X158169011Y-77868844D01*
X157879860Y-78157492D01*
X157723179Y-78534821D01*
X157722822Y-78943387D01*
X157878844Y-79320989D01*
X157898000Y-79340178D01*
X157898000Y-80499508D01*
X157808508Y-80409860D01*
X157431179Y-80253179D01*
X157022613Y-80252822D01*
X156645011Y-80408844D01*
X156355860Y-80697492D01*
X156199179Y-81074821D01*
X156198822Y-81483387D01*
X156354844Y-81860989D01*
X156374000Y-81880178D01*
X156374000Y-82792921D01*
X156260613Y-82792822D01*
X155883011Y-82948844D01*
X155593860Y-83237492D01*
X155437179Y-83614821D01*
X155436822Y-84023387D01*
X155592844Y-84400989D01*
X155612000Y-84420178D01*
X155612000Y-85332921D01*
X155498613Y-85332822D01*
X155121011Y-85488844D01*
X154831860Y-85777492D01*
X154675179Y-86154821D01*
X154674822Y-86563387D01*
X154830844Y-86940989D01*
X154850000Y-86960178D01*
X154850000Y-87872921D01*
X154736613Y-87872822D01*
X154359011Y-88028844D01*
X154069860Y-88317492D01*
X153913179Y-88694821D01*
X153912822Y-89103387D01*
X153993070Y-89297602D01*
X153621179Y-89143179D01*
X153212613Y-89142822D01*
X152835011Y-89298844D01*
X152545860Y-89587492D01*
X152389179Y-89964821D01*
X152388822Y-90373387D01*
X152544844Y-90750989D01*
X152564000Y-90770178D01*
X152564000Y-93373090D01*
X150523090Y-95414000D01*
X150114000Y-95414000D01*
X149787954Y-95478855D01*
X149511545Y-95663545D01*
X148680000Y-96495090D01*
X148680000Y-86960616D01*
X148698140Y-86942508D01*
X148854821Y-86565179D01*
X148855178Y-86156613D01*
X148699156Y-85779011D01*
X148410508Y-85489860D01*
X148033179Y-85333179D01*
X147918000Y-85333078D01*
X147918000Y-84420616D01*
X147936140Y-84402508D01*
X148092821Y-84025179D01*
X148093178Y-83616613D01*
X147937156Y-83239011D01*
X147648508Y-82949860D01*
X147271179Y-82793179D01*
X146862613Y-82792822D01*
X146485011Y-82948844D01*
X146195860Y-83237492D01*
X146039179Y-83614821D01*
X146038822Y-84023387D01*
X146194844Y-84400989D01*
X146214000Y-84420178D01*
X146214000Y-95913090D01*
X145955545Y-96171545D01*
X145770855Y-96447954D01*
X145732861Y-96638961D01*
X145644890Y-96602524D01*
X145415000Y-96723845D01*
X145415000Y-97917000D01*
X145435000Y-97917000D01*
X145435000Y-98171000D01*
X145415000Y-98171000D01*
X145415000Y-98191000D01*
X145161000Y-98191000D01*
X145161000Y-98171000D01*
X142875000Y-98171000D01*
X142875000Y-98191000D01*
X142621000Y-98191000D01*
X142621000Y-98171000D01*
X140335000Y-98171000D01*
X140335000Y-98191000D01*
X140081000Y-98191000D01*
X140081000Y-98171000D01*
X137795000Y-98171000D01*
X137795000Y-98191000D01*
X137541000Y-98191000D01*
X137541000Y-98171000D01*
X135255000Y-98171000D01*
X135255000Y-98191000D01*
X135001000Y-98191000D01*
X135001000Y-98171000D01*
X132715000Y-98171000D01*
X132715000Y-98191000D01*
X132461000Y-98191000D01*
X132461000Y-98171000D01*
X130175000Y-98171000D01*
X130175000Y-98191000D01*
X129921000Y-98191000D01*
X129921000Y-98171000D01*
X127635000Y-98171000D01*
X127635000Y-98191000D01*
X127381000Y-98191000D01*
X127381000Y-98171000D01*
X125095000Y-98171000D01*
X125095000Y-98191000D01*
X124841000Y-98191000D01*
X124841000Y-98171000D01*
X123641750Y-98171000D01*
X123483000Y-98329750D01*
X123483000Y-99020309D01*
X123579673Y-99253698D01*
X123758301Y-99432327D01*
X123835356Y-99464244D01*
X123511042Y-99949613D01*
X123391000Y-100553105D01*
X122385000Y-100553105D01*
X122385000Y-97067691D01*
X123483000Y-97067691D01*
X123483000Y-97758250D01*
X123641750Y-97917000D01*
X124841000Y-97917000D01*
X124841000Y-96717750D01*
X125095000Y-96717750D01*
X125095000Y-97917000D01*
X127381000Y-97917000D01*
X127381000Y-96723845D01*
X127635000Y-96723845D01*
X127635000Y-97917000D01*
X129921000Y-97917000D01*
X129921000Y-96723845D01*
X130175000Y-96723845D01*
X130175000Y-97917000D01*
X132461000Y-97917000D01*
X132461000Y-96723845D01*
X132715000Y-96723845D01*
X132715000Y-97917000D01*
X135001000Y-97917000D01*
X135001000Y-96723845D01*
X135255000Y-96723845D01*
X135255000Y-97917000D01*
X137541000Y-97917000D01*
X137541000Y-96723845D01*
X137795000Y-96723845D01*
X137795000Y-97917000D01*
X140081000Y-97917000D01*
X140081000Y-96723845D01*
X140335000Y-96723845D01*
X140335000Y-97917000D01*
X142621000Y-97917000D01*
X142621000Y-96723845D01*
X142875000Y-96723845D01*
X142875000Y-97917000D01*
X145161000Y-97917000D01*
X145161000Y-96723845D01*
X144931110Y-96602524D01*
X144521076Y-96772355D01*
X144092817Y-97162642D01*
X144018000Y-97321954D01*
X143943183Y-97162642D01*
X143514924Y-96772355D01*
X143104890Y-96602524D01*
X142875000Y-96723845D01*
X142621000Y-96723845D01*
X142391110Y-96602524D01*
X141981076Y-96772355D01*
X141552817Y-97162642D01*
X141478000Y-97321954D01*
X141403183Y-97162642D01*
X140974924Y-96772355D01*
X140564890Y-96602524D01*
X140335000Y-96723845D01*
X140081000Y-96723845D01*
X139851110Y-96602524D01*
X139441076Y-96772355D01*
X139012817Y-97162642D01*
X138938000Y-97321954D01*
X138863183Y-97162642D01*
X138434924Y-96772355D01*
X138024890Y-96602524D01*
X137795000Y-96723845D01*
X137541000Y-96723845D01*
X137311110Y-96602524D01*
X136901076Y-96772355D01*
X136472817Y-97162642D01*
X136398000Y-97321954D01*
X136323183Y-97162642D01*
X135894924Y-96772355D01*
X135484890Y-96602524D01*
X135255000Y-96723845D01*
X135001000Y-96723845D01*
X134771110Y-96602524D01*
X134361076Y-96772355D01*
X133932817Y-97162642D01*
X133858000Y-97321954D01*
X133783183Y-97162642D01*
X133354924Y-96772355D01*
X132944890Y-96602524D01*
X132715000Y-96723845D01*
X132461000Y-96723845D01*
X132231110Y-96602524D01*
X131821076Y-96772355D01*
X131392817Y-97162642D01*
X131318000Y-97321954D01*
X131243183Y-97162642D01*
X130814924Y-96772355D01*
X130404890Y-96602524D01*
X130175000Y-96723845D01*
X129921000Y-96723845D01*
X129691110Y-96602524D01*
X129281076Y-96772355D01*
X128852817Y-97162642D01*
X128778000Y-97321954D01*
X128703183Y-97162642D01*
X128274924Y-96772355D01*
X127864890Y-96602524D01*
X127635000Y-96723845D01*
X127381000Y-96723845D01*
X127151110Y-96602524D01*
X126741076Y-96772355D01*
X126443136Y-97043878D01*
X126356327Y-96834302D01*
X126177699Y-96655673D01*
X125944310Y-96559000D01*
X125253750Y-96559000D01*
X125095000Y-96717750D01*
X124841000Y-96717750D01*
X124682250Y-96559000D01*
X123991690Y-96559000D01*
X123758301Y-96655673D01*
X123579673Y-96834302D01*
X123483000Y-97067691D01*
X122385000Y-97067691D01*
X122385000Y-96774240D01*
X123295620Y-95863620D01*
X123340503Y-95796448D01*
X123561600Y-95465553D01*
X123655000Y-94996000D01*
X123655000Y-92723325D01*
X123845726Y-92850764D01*
X124430084Y-92967000D01*
X124489916Y-92967000D01*
X125074274Y-92850764D01*
X125569668Y-92519752D01*
X125900680Y-92024358D01*
X125947487Y-91789039D01*
X138308096Y-91789039D01*
X138468959Y-92177423D01*
X138844866Y-92592389D01*
X139350959Y-92831914D01*
X139573000Y-92710629D01*
X139573000Y-91567000D01*
X139827000Y-91567000D01*
X139827000Y-92710629D01*
X140049041Y-92831914D01*
X140555134Y-92592389D01*
X140931041Y-92177423D01*
X141091904Y-91789039D01*
X140969915Y-91567000D01*
X139827000Y-91567000D01*
X139573000Y-91567000D01*
X138430085Y-91567000D01*
X138308096Y-91789039D01*
X125947487Y-91789039D01*
X126016916Y-91440000D01*
X125900680Y-90855642D01*
X125569668Y-90360248D01*
X125284942Y-90170000D01*
X125569668Y-89979752D01*
X125900680Y-89484358D01*
X126016916Y-88900000D01*
X125900680Y-88315642D01*
X125569668Y-87820248D01*
X125284942Y-87630000D01*
X125569668Y-87439752D01*
X125900680Y-86944358D01*
X126016916Y-86360000D01*
X125900680Y-85775642D01*
X125569668Y-85280248D01*
X125284942Y-85090000D01*
X125569668Y-84899752D01*
X125900680Y-84404358D01*
X126016916Y-83820000D01*
X125900680Y-83235642D01*
X125569668Y-82740248D01*
X125284942Y-82550000D01*
X125569668Y-82359752D01*
X125900680Y-81864358D01*
X126016916Y-81280000D01*
X125900680Y-80695642D01*
X125569668Y-80200248D01*
X125284942Y-80010000D01*
X125569668Y-79819752D01*
X125900680Y-79324358D01*
X126016916Y-78740000D01*
X125900680Y-78155642D01*
X125569668Y-77660248D01*
X125284942Y-77470000D01*
X125569668Y-77279752D01*
X125900680Y-76784358D01*
X126016916Y-76200000D01*
X125900680Y-75615642D01*
X125569668Y-75120248D01*
X125284942Y-74930000D01*
X125569668Y-74739752D01*
X125900680Y-74244358D01*
X126016916Y-73660000D01*
X125900680Y-73075642D01*
X125569668Y-72580248D01*
X125284942Y-72390000D01*
X125569668Y-72199752D01*
X125900680Y-71704358D01*
X126016916Y-71120000D01*
X125900680Y-70535642D01*
X125569668Y-70040248D01*
X125284942Y-69850000D01*
X125569668Y-69659752D01*
X125900680Y-69164358D01*
X126016916Y-68580000D01*
X125900680Y-67995642D01*
X125569668Y-67500248D01*
X125284942Y-67310000D01*
X125569668Y-67119752D01*
X125900680Y-66624358D01*
X126016916Y-66040000D01*
X125900680Y-65455642D01*
X125569668Y-64960248D01*
X125284942Y-64770000D01*
X125569668Y-64579752D01*
X125900680Y-64084358D01*
X126016916Y-63500000D01*
X125900680Y-62915642D01*
X125569668Y-62420248D01*
X125284942Y-62230000D01*
X125569668Y-62039752D01*
X125900680Y-61544358D01*
X126016916Y-60960000D01*
X138143084Y-60960000D01*
X138259320Y-61544358D01*
X138590332Y-62039752D01*
X138875058Y-62230000D01*
X138590332Y-62420248D01*
X138259320Y-62915642D01*
X138143084Y-63500000D01*
X138259320Y-64084358D01*
X138590332Y-64579752D01*
X138875058Y-64770000D01*
X138590332Y-64960248D01*
X138259320Y-65455642D01*
X138143084Y-66040000D01*
X138259320Y-66624358D01*
X138590332Y-67119752D01*
X138875058Y-67310000D01*
X138590332Y-67500248D01*
X138259320Y-67995642D01*
X138143084Y-68580000D01*
X138259320Y-69164358D01*
X138590332Y-69659752D01*
X138875058Y-69850000D01*
X138590332Y-70040248D01*
X138259320Y-70535642D01*
X138143084Y-71120000D01*
X138259320Y-71704358D01*
X138590332Y-72199752D01*
X138875058Y-72390000D01*
X138590332Y-72580248D01*
X138259320Y-73075642D01*
X138143084Y-73660000D01*
X138259320Y-74244358D01*
X138590332Y-74739752D01*
X138875058Y-74930000D01*
X138590332Y-75120248D01*
X138259320Y-75615642D01*
X138143084Y-76200000D01*
X138259320Y-76784358D01*
X138590332Y-77279752D01*
X138875058Y-77470000D01*
X138590332Y-77660248D01*
X138259320Y-78155642D01*
X138143084Y-78740000D01*
X138259320Y-79324358D01*
X138590332Y-79819752D01*
X138875058Y-80010000D01*
X138590332Y-80200248D01*
X138259320Y-80695642D01*
X138143084Y-81280000D01*
X138259320Y-81864358D01*
X138590332Y-82359752D01*
X138875058Y-82550000D01*
X138590332Y-82740248D01*
X138259320Y-83235642D01*
X138143084Y-83820000D01*
X138259320Y-84404358D01*
X138590332Y-84899752D01*
X138875058Y-85090000D01*
X138590332Y-85280248D01*
X138259320Y-85775642D01*
X138143084Y-86360000D01*
X138259320Y-86944358D01*
X138590332Y-87439752D01*
X138875058Y-87630000D01*
X138590332Y-87820248D01*
X138259320Y-88315642D01*
X138143084Y-88900000D01*
X138259320Y-89484358D01*
X138590332Y-89979752D01*
X138965575Y-90230482D01*
X138844866Y-90287611D01*
X138468959Y-90702577D01*
X138308096Y-91090961D01*
X138430085Y-91313000D01*
X139573000Y-91313000D01*
X139573000Y-91293000D01*
X139827000Y-91293000D01*
X139827000Y-91313000D01*
X140969915Y-91313000D01*
X141091904Y-91090961D01*
X140931041Y-90702577D01*
X140555134Y-90287611D01*
X140434425Y-90230482D01*
X140809668Y-89979752D01*
X141140680Y-89484358D01*
X141256916Y-88900000D01*
X141140680Y-88315642D01*
X140809668Y-87820248D01*
X140524942Y-87630000D01*
X140809668Y-87439752D01*
X141140680Y-86944358D01*
X141256916Y-86360000D01*
X141140680Y-85775642D01*
X140809668Y-85280248D01*
X140524942Y-85090000D01*
X140809668Y-84899752D01*
X141140680Y-84404358D01*
X141256916Y-83820000D01*
X141140680Y-83235642D01*
X140809668Y-82740248D01*
X140524942Y-82550000D01*
X140809668Y-82359752D01*
X141140680Y-81864358D01*
X141256916Y-81280000D01*
X141140680Y-80695642D01*
X140809668Y-80200248D01*
X140524942Y-80010000D01*
X140809668Y-79819752D01*
X141140680Y-79324358D01*
X141256916Y-78740000D01*
X141140680Y-78155642D01*
X140809668Y-77660248D01*
X140524942Y-77470000D01*
X140809668Y-77279752D01*
X141140680Y-76784358D01*
X141256916Y-76200000D01*
X141140680Y-75615642D01*
X140809668Y-75120248D01*
X140524942Y-74930000D01*
X140809668Y-74739752D01*
X141140680Y-74244358D01*
X141256916Y-73660000D01*
X141140680Y-73075642D01*
X140809668Y-72580248D01*
X140524942Y-72390000D01*
X140809668Y-72199752D01*
X141140680Y-71704358D01*
X141256916Y-71120000D01*
X141140680Y-70535642D01*
X140809668Y-70040248D01*
X140524942Y-69850000D01*
X140809668Y-69659752D01*
X141140680Y-69164358D01*
X141256916Y-68580000D01*
X141140680Y-67995642D01*
X140809668Y-67500248D01*
X140524942Y-67310000D01*
X140809668Y-67119752D01*
X141140680Y-66624358D01*
X141256916Y-66040000D01*
X141140680Y-65455642D01*
X140809668Y-64960248D01*
X140524942Y-64770000D01*
X140809668Y-64579752D01*
X141140680Y-64084358D01*
X141256916Y-63500000D01*
X141140680Y-62915642D01*
X140809668Y-62420248D01*
X140524942Y-62230000D01*
X140809668Y-62039752D01*
X141140680Y-61544358D01*
X141256916Y-60960000D01*
X141140680Y-60375642D01*
X140811722Y-59883322D01*
X141016846Y-59751328D01*
X141182843Y-59508385D01*
X141241242Y-59220000D01*
X141241242Y-58420000D01*
X148938084Y-58420000D01*
X149054320Y-59004358D01*
X149385332Y-59499752D01*
X149670058Y-59690000D01*
X149385332Y-59880248D01*
X149054320Y-60375642D01*
X148938084Y-60960000D01*
X149054320Y-61544358D01*
X149385332Y-62039752D01*
X149670058Y-62230000D01*
X149385332Y-62420248D01*
X149054320Y-62915642D01*
X148938084Y-63500000D01*
X149054320Y-64084358D01*
X149385332Y-64579752D01*
X149670058Y-64770000D01*
X149385332Y-64960248D01*
X149054320Y-65455642D01*
X148938084Y-66040000D01*
X149054320Y-66624358D01*
X149385332Y-67119752D01*
X149670058Y-67310000D01*
X149385332Y-67500248D01*
X149054320Y-67995642D01*
X148938084Y-68580000D01*
X149054320Y-69164358D01*
X149385332Y-69659752D01*
X149670058Y-69850000D01*
X149385332Y-70040248D01*
X149054320Y-70535642D01*
X148938084Y-71120000D01*
X149054320Y-71704358D01*
X149385332Y-72199752D01*
X149670058Y-72390000D01*
X149385332Y-72580248D01*
X149054320Y-73075642D01*
X148938084Y-73660000D01*
X149054320Y-74244358D01*
X149385332Y-74739752D01*
X149670058Y-74930000D01*
X149385332Y-75120248D01*
X149054320Y-75615642D01*
X148938084Y-76200000D01*
X149054320Y-76784358D01*
X149385332Y-77279752D01*
X149670058Y-77470000D01*
X149385332Y-77660248D01*
X149054320Y-78155642D01*
X148938084Y-78740000D01*
X149054320Y-79324358D01*
X149385332Y-79819752D01*
X149670058Y-80010000D01*
X149385332Y-80200248D01*
X149054320Y-80695642D01*
X148938084Y-81280000D01*
X149054320Y-81864358D01*
X149385332Y-82359752D01*
X149670058Y-82550000D01*
X149385332Y-82740248D01*
X149054320Y-83235642D01*
X148938084Y-83820000D01*
X149054320Y-84404358D01*
X149385332Y-84899752D01*
X149670058Y-85090000D01*
X149385332Y-85280248D01*
X149054320Y-85775642D01*
X148938084Y-86360000D01*
X149054320Y-86944358D01*
X149385332Y-87439752D01*
X149670058Y-87630000D01*
X149385332Y-87820248D01*
X149054320Y-88315642D01*
X148938084Y-88900000D01*
X149054320Y-89484358D01*
X149385332Y-89979752D01*
X149670058Y-90170000D01*
X149385332Y-90360248D01*
X149054320Y-90855642D01*
X148938084Y-91440000D01*
X149054320Y-92024358D01*
X149385332Y-92519752D01*
X149880726Y-92850764D01*
X150465084Y-92967000D01*
X150524916Y-92967000D01*
X151109274Y-92850764D01*
X151604668Y-92519752D01*
X151935680Y-92024358D01*
X152051916Y-91440000D01*
X151935680Y-90855642D01*
X151604668Y-90360248D01*
X151319942Y-90170000D01*
X151604668Y-89979752D01*
X151935680Y-89484358D01*
X152051916Y-88900000D01*
X151935680Y-88315642D01*
X151604668Y-87820248D01*
X151319942Y-87630000D01*
X151604668Y-87439752D01*
X151935680Y-86944358D01*
X152051916Y-86360000D01*
X151935680Y-85775642D01*
X151604668Y-85280248D01*
X151319942Y-85090000D01*
X151604668Y-84899752D01*
X151935680Y-84404358D01*
X152051916Y-83820000D01*
X151935680Y-83235642D01*
X151604668Y-82740248D01*
X151319942Y-82550000D01*
X151604668Y-82359752D01*
X151935680Y-81864358D01*
X152051916Y-81280000D01*
X151935680Y-80695642D01*
X151604668Y-80200248D01*
X151319942Y-80010000D01*
X151604668Y-79819752D01*
X151935680Y-79324358D01*
X152051916Y-78740000D01*
X151935680Y-78155642D01*
X151604668Y-77660248D01*
X151319942Y-77470000D01*
X151604668Y-77279752D01*
X151935680Y-76784358D01*
X152051916Y-76200000D01*
X151935680Y-75615642D01*
X151604668Y-75120248D01*
X151319942Y-74930000D01*
X151604668Y-74739752D01*
X151935680Y-74244358D01*
X152051916Y-73660000D01*
X151935680Y-73075642D01*
X151604668Y-72580248D01*
X151319942Y-72390000D01*
X151604668Y-72199752D01*
X151935680Y-71704358D01*
X152051916Y-71120000D01*
X151935680Y-70535642D01*
X151604668Y-70040248D01*
X151319942Y-69850000D01*
X151604668Y-69659752D01*
X151935680Y-69164358D01*
X152051916Y-68580000D01*
X151935680Y-67995642D01*
X151604668Y-67500248D01*
X151319942Y-67310000D01*
X151604668Y-67119752D01*
X151935680Y-66624358D01*
X152051916Y-66040000D01*
X151935680Y-65455642D01*
X151604668Y-64960248D01*
X151319942Y-64770000D01*
X151604668Y-64579752D01*
X151935680Y-64084358D01*
X152051916Y-63500000D01*
X151935680Y-62915642D01*
X151604668Y-62420248D01*
X151319942Y-62230000D01*
X151604668Y-62039752D01*
X151935680Y-61544358D01*
X152051916Y-60960000D01*
X151935680Y-60375642D01*
X151604668Y-59880248D01*
X151319942Y-59690000D01*
X151604668Y-59499752D01*
X151935680Y-59004358D01*
X152051916Y-58420000D01*
X151935680Y-57835642D01*
X151604668Y-57340248D01*
X151109274Y-57009236D01*
X150524916Y-56893000D01*
X150465084Y-56893000D01*
X149880726Y-57009236D01*
X149385332Y-57340248D01*
X149054320Y-57835642D01*
X148938084Y-58420000D01*
X141241242Y-58420000D01*
X141241242Y-57620000D01*
X141190549Y-57350590D01*
X141031328Y-57103154D01*
X140788385Y-56937157D01*
X140500000Y-56878758D01*
X138900000Y-56878758D01*
X138630590Y-56929451D01*
X138383154Y-57088672D01*
X138217157Y-57331615D01*
X138158758Y-57620000D01*
X138158758Y-59220000D01*
X138209451Y-59489410D01*
X138368672Y-59736846D01*
X138586638Y-59885777D01*
X138259320Y-60375642D01*
X138143084Y-60960000D01*
X126016916Y-60960000D01*
X125900680Y-60375642D01*
X125569668Y-59880248D01*
X125284942Y-59690000D01*
X125569668Y-59499752D01*
X125900680Y-59004358D01*
X126016916Y-58420000D01*
X125900680Y-57835642D01*
X125569668Y-57340248D01*
X125074274Y-57009236D01*
X124489916Y-56893000D01*
X124430084Y-56893000D01*
X123845726Y-57009236D01*
X123570704Y-57193000D01*
X123190000Y-57193000D01*
X122720448Y-57286399D01*
X122322380Y-57552380D01*
X121560380Y-58314380D01*
X121294400Y-58712447D01*
X121201000Y-59182000D01*
X121201000Y-72635968D01*
X120831011Y-72788844D01*
X120811822Y-72808000D01*
X120488616Y-72808000D01*
X120470508Y-72789860D01*
X120093179Y-72633179D01*
X119684613Y-72632822D01*
X119307011Y-72788844D01*
X119017860Y-73077492D01*
X118861179Y-73454821D01*
X118860822Y-73863387D01*
X119016844Y-74240989D01*
X119305492Y-74530140D01*
X119682821Y-74686821D01*
X120091387Y-74687178D01*
X120468989Y-74531156D01*
X120488178Y-74512000D01*
X120811384Y-74512000D01*
X120829492Y-74530140D01*
X121201000Y-74684404D01*
X121201000Y-77715968D01*
X120831011Y-77868844D01*
X120811822Y-77888000D01*
X119980616Y-77888000D01*
X119962508Y-77869860D01*
X119585179Y-77713179D01*
X119176613Y-77712822D01*
X118799011Y-77868844D01*
X118509860Y-78157492D01*
X118353179Y-78534821D01*
X118352822Y-78943387D01*
X118508844Y-79320989D01*
X118562603Y-79374841D01*
X118509860Y-79427492D01*
X118353179Y-79804821D01*
X118352822Y-80213387D01*
X118508844Y-80590989D01*
X118797492Y-80880140D01*
X119174821Y-81036821D01*
X119583387Y-81037178D01*
X119960989Y-80881156D01*
X119980178Y-80862000D01*
X120811384Y-80862000D01*
X120829492Y-80880140D01*
X121201000Y-81034404D01*
X121201000Y-94487760D01*
X120290380Y-95398380D01*
X120024400Y-95796447D01*
X119931000Y-96266000D01*
X119931000Y-96511968D01*
X119561011Y-96664844D01*
X119271860Y-96953492D01*
X119115179Y-97330821D01*
X119114822Y-97739387D01*
X119270844Y-98116989D01*
X119290000Y-98136178D01*
X119290000Y-110236000D01*
X119354855Y-110562046D01*
X119539545Y-110838455D01*
X120809545Y-112108455D01*
X121085954Y-112293145D01*
X121412000Y-112358000D01*
X127415825Y-112358000D01*
X127687492Y-112630140D01*
X128064821Y-112786821D01*
X128473387Y-112787178D01*
X128850989Y-112631156D01*
X128870178Y-112612000D01*
X133339143Y-112612000D01*
X133338822Y-112979387D01*
X133494844Y-113356989D01*
X133514000Y-113376178D01*
X133514000Y-117094000D01*
X133578855Y-117420046D01*
X133763545Y-117696455D01*
X135370844Y-119303754D01*
X135370822Y-119329387D01*
X135526844Y-119706989D01*
X135815492Y-119996140D01*
X136192821Y-120152821D01*
X136601387Y-120153178D01*
X136978989Y-119997156D01*
X137070000Y-119906303D01*
X137070000Y-138331090D01*
X135791090Y-139610000D01*
X130556000Y-139610000D01*
X130229953Y-139674855D01*
X129953545Y-139859545D01*
X129191545Y-140621545D01*
X129006855Y-140897954D01*
X128942000Y-141224000D01*
X128942000Y-141412596D01*
X128777154Y-141518672D01*
X128718168Y-141605000D01*
X128331560Y-141605000D01*
X128285328Y-141533154D01*
X128106000Y-141410624D01*
X128106000Y-127854616D01*
X128124140Y-127836508D01*
X128280821Y-127459179D01*
X128281178Y-127050613D01*
X128125156Y-126673011D01*
X127836508Y-126383860D01*
X127459179Y-126227179D01*
X127050613Y-126226822D01*
X126673011Y-126382844D01*
X126383860Y-126671492D01*
X126227179Y-127048821D01*
X126226822Y-127457387D01*
X126382844Y-127834989D01*
X126402000Y-127854178D01*
X126402000Y-141412596D01*
X126237154Y-141518672D01*
X126178168Y-141605000D01*
X125791560Y-141605000D01*
X125745328Y-141533154D01*
X125502385Y-141367157D01*
X125214000Y-141308758D01*
X124214000Y-141308758D01*
X123944590Y-141359451D01*
X123697154Y-141518672D01*
X123638168Y-141605000D01*
X123251560Y-141605000D01*
X123205328Y-141533154D01*
X122962385Y-141367157D01*
X122674000Y-141308758D01*
X121674000Y-141308758D01*
X121404590Y-141359451D01*
X121157154Y-141518672D01*
X121098168Y-141605000D01*
X120711560Y-141605000D01*
X120665328Y-141533154D01*
X120422385Y-141367157D01*
X120134000Y-141308758D01*
X119134000Y-141308758D01*
X118864590Y-141359451D01*
X118617154Y-141518672D01*
X118558168Y-141605000D01*
X118171560Y-141605000D01*
X118125328Y-141533154D01*
X117882385Y-141367157D01*
X117594000Y-141308758D01*
X116594000Y-141308758D01*
X116324590Y-141359451D01*
X116077154Y-141518672D01*
X116018168Y-141605000D01*
X115631560Y-141605000D01*
X115585328Y-141533154D01*
X115406000Y-141410624D01*
X115406000Y-141062616D01*
X115424140Y-141044508D01*
X115580821Y-140667179D01*
X115581178Y-140258613D01*
X115425156Y-139881011D01*
X115136508Y-139591860D01*
X114759179Y-139435179D01*
X114350613Y-139434822D01*
X113973011Y-139590844D01*
X113683860Y-139879492D01*
X113527179Y-140256821D01*
X113526822Y-140665387D01*
X113682844Y-141042989D01*
X113702000Y-141062178D01*
X113702000Y-141412596D01*
X113537154Y-141518672D01*
X113478168Y-141605000D01*
X112967026Y-141605000D01*
X112873698Y-141511673D01*
X112640309Y-141415000D01*
X112299750Y-141415000D01*
X112141000Y-141573750D01*
X112141000Y-141605000D01*
X111887000Y-141605000D01*
X111887000Y-141573750D01*
X111728250Y-141415000D01*
X111546000Y-141415000D01*
X111546000Y-139446000D01*
X111484951Y-139139088D01*
X111311100Y-138878900D01*
X111050912Y-138705049D01*
X110744000Y-138644000D01*
X98846000Y-138644000D01*
X98846000Y-136601387D01*
X118606822Y-136601387D01*
X118762844Y-136978989D01*
X118782000Y-136998178D01*
X118782000Y-139099384D01*
X118763860Y-139117492D01*
X118607179Y-139494821D01*
X118606822Y-139903387D01*
X118762844Y-140280989D01*
X119051492Y-140570140D01*
X119428821Y-140726821D01*
X119837387Y-140727178D01*
X120214989Y-140571156D01*
X120504140Y-140282508D01*
X120660821Y-139905179D01*
X120661178Y-139496613D01*
X120505156Y-139119011D01*
X120486000Y-139099822D01*
X120486000Y-136998616D01*
X120504140Y-136980508D01*
X120660821Y-136603179D01*
X120661178Y-136194613D01*
X120505156Y-135817011D01*
X120216508Y-135527860D01*
X119839179Y-135371179D01*
X119430613Y-135370822D01*
X119053011Y-135526844D01*
X118763860Y-135815492D01*
X118607179Y-136192821D01*
X118606822Y-136601387D01*
X98846000Y-136601387D01*
X98846000Y-92498256D01*
X101316349Y-92498256D01*
X101405821Y-92757332D01*
X101988368Y-92971325D01*
X102608461Y-92946097D01*
X103064179Y-92757332D01*
X103153651Y-92498256D01*
X102235000Y-91579605D01*
X101316349Y-92498256D01*
X98846000Y-92498256D01*
X98846000Y-87975000D01*
X100568758Y-87975000D01*
X100568758Y-89825000D01*
X100619451Y-90094410D01*
X100778672Y-90341846D01*
X101021615Y-90507843D01*
X101045829Y-90512746D01*
X100877668Y-90570821D01*
X100663675Y-91153368D01*
X100688903Y-91773461D01*
X100877668Y-92229179D01*
X101136744Y-92318651D01*
X102055395Y-91400000D01*
X102041253Y-91385858D01*
X102220858Y-91206253D01*
X102235000Y-91220395D01*
X102249143Y-91206253D01*
X102428748Y-91385858D01*
X102414605Y-91400000D01*
X103333256Y-92318651D01*
X103592332Y-92229179D01*
X103806325Y-91646632D01*
X103781097Y-91026539D01*
X103592332Y-90570821D01*
X103430414Y-90514903D01*
X103676846Y-90356328D01*
X103842843Y-90113385D01*
X103901242Y-89825000D01*
X103901242Y-89154000D01*
X110025000Y-89154000D01*
X110118400Y-89623553D01*
X110384380Y-90021620D01*
X110782447Y-90287600D01*
X111252000Y-90381000D01*
X116077760Y-90381000D01*
X116121000Y-90424240D01*
X116121000Y-95039000D01*
X114300000Y-95039000D01*
X113830447Y-95132400D01*
X113432380Y-95398380D01*
X112416380Y-96414380D01*
X112150400Y-96812447D01*
X112057000Y-97282000D01*
X112057000Y-105156000D01*
X112150400Y-105625553D01*
X112416380Y-106023620D01*
X112814447Y-106289600D01*
X113284000Y-106383000D01*
X113753553Y-106289600D01*
X114151620Y-106023620D01*
X114417600Y-105625553D01*
X114511000Y-105156000D01*
X114511000Y-97790240D01*
X114808240Y-97493000D01*
X117348000Y-97493000D01*
X117817553Y-97399600D01*
X118215620Y-97133620D01*
X118481600Y-96735553D01*
X118575000Y-96266000D01*
X118575000Y-89916000D01*
X118550579Y-89793228D01*
X118481601Y-89446448D01*
X118215620Y-89048380D01*
X117453620Y-88286380D01*
X117055553Y-88020400D01*
X116586000Y-87927000D01*
X111252000Y-87927000D01*
X110782447Y-88020400D01*
X110384380Y-88286380D01*
X110118400Y-88684447D01*
X110025000Y-89154000D01*
X103901242Y-89154000D01*
X103901242Y-87975000D01*
X103850549Y-87705590D01*
X103691328Y-87458154D01*
X103448385Y-87292157D01*
X103160000Y-87233758D01*
X101310000Y-87233758D01*
X101040590Y-87284451D01*
X100793154Y-87443672D01*
X100627157Y-87686615D01*
X100568758Y-87975000D01*
X98846000Y-87975000D01*
X98846000Y-82893256D01*
X101316349Y-82893256D01*
X101405821Y-83152332D01*
X101988368Y-83366325D01*
X102608461Y-83341097D01*
X103064179Y-83152332D01*
X103153651Y-82893256D01*
X102235000Y-81974605D01*
X101316349Y-82893256D01*
X98846000Y-82893256D01*
X98846000Y-81548368D01*
X100663675Y-81548368D01*
X100688903Y-82168461D01*
X100877668Y-82624179D01*
X101136744Y-82713651D01*
X102055395Y-81795000D01*
X102414605Y-81795000D01*
X103333256Y-82713651D01*
X103592332Y-82624179D01*
X103806325Y-82041632D01*
X103781097Y-81421539D01*
X103592332Y-80965821D01*
X103333256Y-80876349D01*
X102414605Y-81795000D01*
X102055395Y-81795000D01*
X101136744Y-80876349D01*
X100877668Y-80965821D01*
X100663675Y-81548368D01*
X98846000Y-81548368D01*
X98846000Y-73370000D01*
X100568758Y-73370000D01*
X100568758Y-75220000D01*
X100619451Y-75489410D01*
X100778672Y-75736846D01*
X100884348Y-75809052D01*
X100835319Y-75857995D01*
X100583287Y-76464955D01*
X100582713Y-77122162D01*
X100833686Y-77729561D01*
X101148718Y-78045143D01*
X100835319Y-78357995D01*
X100583287Y-78964955D01*
X100582713Y-79622162D01*
X100833686Y-80229561D01*
X101297995Y-80694681D01*
X101325854Y-80706249D01*
X102235000Y-81615395D01*
X103143181Y-80707214D01*
X103169561Y-80696314D01*
X103634681Y-80232005D01*
X103886713Y-79625045D01*
X103887287Y-78967838D01*
X103636314Y-78360439D01*
X103321282Y-78044857D01*
X103634681Y-77732005D01*
X103669978Y-77647000D01*
X109057325Y-77647000D01*
X109268821Y-77734821D01*
X109677387Y-77735178D01*
X110054989Y-77579156D01*
X110344140Y-77290508D01*
X110500821Y-76913179D01*
X110501178Y-76504613D01*
X110345156Y-76127011D01*
X110056508Y-75837860D01*
X109679179Y-75681179D01*
X109270613Y-75680822D01*
X108893011Y-75836844D01*
X108786670Y-75943000D01*
X103670428Y-75943000D01*
X103636314Y-75860439D01*
X103585847Y-75809884D01*
X103676846Y-75751328D01*
X103842843Y-75508385D01*
X103901242Y-75220000D01*
X103901242Y-75147000D01*
X109407655Y-75147000D01*
X109522821Y-75194821D01*
X109931387Y-75195178D01*
X110308989Y-75039156D01*
X110598140Y-74750508D01*
X110754821Y-74373179D01*
X110755178Y-73964613D01*
X110599156Y-73587011D01*
X110310508Y-73297860D01*
X109933179Y-73141179D01*
X109524613Y-73140822D01*
X109147011Y-73296844D01*
X109000600Y-73443000D01*
X103901242Y-73443000D01*
X103901242Y-73370000D01*
X103850549Y-73100590D01*
X103691328Y-72853154D01*
X103448385Y-72687157D01*
X103160000Y-72628758D01*
X101310000Y-72628758D01*
X101040590Y-72679451D01*
X100793154Y-72838672D01*
X100627157Y-73081615D01*
X100568758Y-73370000D01*
X98846000Y-73370000D01*
X98846000Y-51443970D01*
X101569635Y-51443970D01*
X101729418Y-51762739D01*
X102520187Y-52072723D01*
X103369387Y-52056497D01*
X104078582Y-51762739D01*
X104238365Y-51443970D01*
X114709635Y-51443970D01*
X114869418Y-51762739D01*
X115660187Y-52072723D01*
X116509387Y-52056497D01*
X117218582Y-51762739D01*
X117378365Y-51443970D01*
X116044000Y-50109605D01*
X114709635Y-51443970D01*
X104238365Y-51443970D01*
X102904000Y-50109605D01*
X101569635Y-51443970D01*
X98846000Y-51443970D01*
X98846000Y-49546187D01*
X100761277Y-49546187D01*
X100777503Y-50395387D01*
X101071261Y-51104582D01*
X101390030Y-51264365D01*
X102724395Y-49930000D01*
X103083605Y-49930000D01*
X104417970Y-51264365D01*
X104736739Y-51104582D01*
X105046723Y-50313813D01*
X105032056Y-49546187D01*
X113901277Y-49546187D01*
X113917503Y-50395387D01*
X114211261Y-51104582D01*
X114530030Y-51264365D01*
X115864395Y-49930000D01*
X116223605Y-49930000D01*
X117557970Y-51264365D01*
X117876739Y-51104582D01*
X118186723Y-50313813D01*
X118185406Y-50244838D01*
X122640597Y-50244838D01*
X122994115Y-51100418D01*
X123648139Y-51755585D01*
X124503100Y-52110596D01*
X125428838Y-52111403D01*
X126284418Y-51757885D01*
X126939585Y-51103861D01*
X127294596Y-50248900D01*
X127294599Y-50244838D01*
X162772597Y-50244838D01*
X163126115Y-51100418D01*
X163780139Y-51755585D01*
X164635100Y-52110596D01*
X165560838Y-52111403D01*
X166416418Y-51757885D01*
X167071585Y-51103861D01*
X167426596Y-50248900D01*
X167427403Y-49323162D01*
X167073885Y-48467582D01*
X166419861Y-47812415D01*
X165564900Y-47457404D01*
X164639162Y-47456597D01*
X163783582Y-47810115D01*
X163128415Y-48464139D01*
X162773404Y-49319100D01*
X162772597Y-50244838D01*
X127294599Y-50244838D01*
X127295403Y-49323162D01*
X126941885Y-48467582D01*
X126287861Y-47812415D01*
X125432900Y-47457404D01*
X124507162Y-47456597D01*
X123651582Y-47810115D01*
X122996415Y-48464139D01*
X122641404Y-49319100D01*
X122640597Y-50244838D01*
X118185406Y-50244838D01*
X118170497Y-49464613D01*
X117876739Y-48755418D01*
X117557970Y-48595635D01*
X116223605Y-49930000D01*
X115864395Y-49930000D01*
X114530030Y-48595635D01*
X114211261Y-48755418D01*
X113901277Y-49546187D01*
X105032056Y-49546187D01*
X105030497Y-49464613D01*
X104736739Y-48755418D01*
X104417970Y-48595635D01*
X103083605Y-49930000D01*
X102724395Y-49930000D01*
X101390030Y-48595635D01*
X101071261Y-48755418D01*
X100761277Y-49546187D01*
X98846000Y-49546187D01*
X98846000Y-48416030D01*
X101569635Y-48416030D01*
X102904000Y-49750395D01*
X104238365Y-48416030D01*
X114709635Y-48416030D01*
X116044000Y-49750395D01*
X117378365Y-48416030D01*
X117218582Y-48097261D01*
X116427813Y-47787277D01*
X115578613Y-47803503D01*
X114869418Y-48097261D01*
X114709635Y-48416030D01*
X104238365Y-48416030D01*
X104078582Y-48097261D01*
X103287813Y-47787277D01*
X102438613Y-47803503D01*
X101729418Y-48097261D01*
X101569635Y-48416030D01*
X98846000Y-48416030D01*
X98846000Y-46522000D01*
X178522000Y-46522000D01*
X178522000Y-138644000D01*
G36*
X141388000Y-116430910D02*
X141388000Y-131318000D01*
X141452855Y-131644046D01*
X141637545Y-131920455D01*
X142145545Y-132428455D01*
X142421953Y-132613145D01*
X142748000Y-132678000D01*
X147475090Y-132678000D01*
X148023264Y-133226174D01*
X147973860Y-133275492D01*
X147817179Y-133652821D01*
X147816822Y-134061387D01*
X147972844Y-134438989D01*
X148261492Y-134728140D01*
X148638821Y-134884821D01*
X148665935Y-134884845D01*
X148749545Y-134968455D01*
X149025953Y-135153145D01*
X149352000Y-135218000D01*
X154645088Y-135218000D01*
X154850000Y-135422912D01*
X154850000Y-137414000D01*
X154898329Y-137656963D01*
X154736613Y-137656822D01*
X154359011Y-137812844D01*
X154069860Y-138101492D01*
X153913179Y-138478821D01*
X153912822Y-138887387D01*
X154024185Y-139156905D01*
X153825090Y-139356000D01*
X152752910Y-139356000D01*
X152236000Y-138839090D01*
X152236000Y-136652000D01*
X152171145Y-136325954D01*
X152171145Y-136325953D01*
X151986455Y-136049545D01*
X151478455Y-135541545D01*
X151202046Y-135356855D01*
X150876000Y-135292000D01*
X150114000Y-135292000D01*
X149787954Y-135356855D01*
X149511545Y-135541545D01*
X148749545Y-136303545D01*
X148564855Y-136579954D01*
X148500000Y-136906000D01*
X148500000Y-138997744D01*
X148445156Y-138865011D01*
X148156508Y-138575860D01*
X147779179Y-138419179D01*
X147370613Y-138418822D01*
X146993011Y-138574844D01*
X146703860Y-138863492D01*
X146547179Y-139240821D01*
X146546822Y-139649387D01*
X146702844Y-140026989D01*
X146722000Y-140046178D01*
X146722000Y-141412596D01*
X146557154Y-141518672D01*
X146498168Y-141605000D01*
X146111560Y-141605000D01*
X146065328Y-141533154D01*
X145822385Y-141367157D01*
X145534000Y-141308758D01*
X144534000Y-141308758D01*
X144264590Y-141359451D01*
X144017154Y-141518672D01*
X143958168Y-141605000D01*
X143571560Y-141605000D01*
X143525328Y-141533154D01*
X143282385Y-141367157D01*
X142994000Y-141308758D01*
X141994000Y-141308758D01*
X141724590Y-141359451D01*
X141477154Y-141518672D01*
X141418168Y-141605000D01*
X141031560Y-141605000D01*
X140985328Y-141533154D01*
X140806000Y-141410624D01*
X140806000Y-118110000D01*
X140741145Y-117783954D01*
X140556455Y-117507545D01*
X140219156Y-117170246D01*
X140219178Y-117144613D01*
X140063156Y-116767011D01*
X139774508Y-116477860D01*
X139639982Y-116422000D01*
X141379090Y-116422000D01*
X141388000Y-116430910D01*
X141388000Y-116430910D01*
G37*
X141388000Y-116430910D02*
X141388000Y-131318000D01*
X141452855Y-131644046D01*
X141637545Y-131920455D01*
X142145545Y-132428455D01*
X142421953Y-132613145D01*
X142748000Y-132678000D01*
X147475090Y-132678000D01*
X148023264Y-133226174D01*
X147973860Y-133275492D01*
X147817179Y-133652821D01*
X147816822Y-134061387D01*
X147972844Y-134438989D01*
X148261492Y-134728140D01*
X148638821Y-134884821D01*
X148665935Y-134884845D01*
X148749545Y-134968455D01*
X149025953Y-135153145D01*
X149352000Y-135218000D01*
X154645088Y-135218000D01*
X154850000Y-135422912D01*
X154850000Y-137414000D01*
X154898329Y-137656963D01*
X154736613Y-137656822D01*
X154359011Y-137812844D01*
X154069860Y-138101492D01*
X153913179Y-138478821D01*
X153912822Y-138887387D01*
X154024185Y-139156905D01*
X153825090Y-139356000D01*
X152752910Y-139356000D01*
X152236000Y-138839090D01*
X152236000Y-136652000D01*
X152171145Y-136325954D01*
X152171145Y-136325953D01*
X151986455Y-136049545D01*
X151478455Y-135541545D01*
X151202046Y-135356855D01*
X150876000Y-135292000D01*
X150114000Y-135292000D01*
X149787954Y-135356855D01*
X149511545Y-135541545D01*
X148749545Y-136303545D01*
X148564855Y-136579954D01*
X148500000Y-136906000D01*
X148500000Y-138997744D01*
X148445156Y-138865011D01*
X148156508Y-138575860D01*
X147779179Y-138419179D01*
X147370613Y-138418822D01*
X146993011Y-138574844D01*
X146703860Y-138863492D01*
X146547179Y-139240821D01*
X146546822Y-139649387D01*
X146702844Y-140026989D01*
X146722000Y-140046178D01*
X146722000Y-141412596D01*
X146557154Y-141518672D01*
X146498168Y-141605000D01*
X146111560Y-141605000D01*
X146065328Y-141533154D01*
X145822385Y-141367157D01*
X145534000Y-141308758D01*
X144534000Y-141308758D01*
X144264590Y-141359451D01*
X144017154Y-141518672D01*
X143958168Y-141605000D01*
X143571560Y-141605000D01*
X143525328Y-141533154D01*
X143282385Y-141367157D01*
X142994000Y-141308758D01*
X141994000Y-141308758D01*
X141724590Y-141359451D01*
X141477154Y-141518672D01*
X141418168Y-141605000D01*
X141031560Y-141605000D01*
X140985328Y-141533154D01*
X140806000Y-141410624D01*
X140806000Y-118110000D01*
X140741145Y-117783954D01*
X140556455Y-117507545D01*
X140219156Y-117170246D01*
X140219178Y-117144613D01*
X140063156Y-116767011D01*
X139774508Y-116477860D01*
X139639982Y-116422000D01*
X141379090Y-116422000D01*
X141388000Y-116430910D01*
M02*
