G04 #@! TF.FileFunction,Copper,L1,Top,Signal*
%FSLAX46Y46*%
G04 Gerber Fmt 4.6, Leading zero omitted, Abs format (unit mm)*
G04 Created by KiCad (PCBNEW 4.0.7) date 05/19/18 23:16:30*
%MOMM*%
%LPD*%
G01*
G04 APERTURE LIST*
%ADD10C,0.100000*%
%ADD11R,1.250000X1.000000*%
%ADD12C,3.000000*%
%ADD13R,1.120000X2.880000*%
%ADD14R,1.850000X1.850000*%
%ADD15C,1.850000*%
%ADD16R,1.700000X1.700000*%
%ADD17O,1.700000X1.700000*%
%ADD18R,1.143000X0.508000*%
%ADD19R,1.600000X1.600000*%
%ADD20O,1.600000X1.600000*%
%ADD21R,1.000000X6.000000*%
%ADD22R,1.000000X8.000000*%
%ADD23R,1.000000X1.250000*%
%ADD24C,0.800000*%
%ADD25C,0.600000*%
%ADD26C,1.000000*%
%ADD27C,0.250000*%
%ADD28C,0.254000*%
G04 APERTURE END LIST*
D10*
D11*
X106045000Y-89170000D03*
X106045000Y-91170000D03*
D12*
X102904000Y-49930000D03*
D13*
X105974000Y-53570000D03*
X108474000Y-53570000D03*
X110474000Y-53570000D03*
X112974000Y-53570000D03*
D12*
X116044000Y-49930000D03*
D14*
X102235000Y-88900000D03*
D15*
X102235000Y-91400000D03*
D16*
X124968000Y-98044000D03*
D17*
X124968000Y-100584000D03*
X127508000Y-98044000D03*
X127508000Y-100584000D03*
X130048000Y-98044000D03*
X130048000Y-100584000D03*
X132588000Y-98044000D03*
X132588000Y-100584000D03*
X135128000Y-98044000D03*
X135128000Y-100584000D03*
X137668000Y-98044000D03*
X137668000Y-100584000D03*
X140208000Y-98044000D03*
X140208000Y-100584000D03*
X142748000Y-98044000D03*
X142748000Y-100584000D03*
X145288000Y-98044000D03*
X145288000Y-100584000D03*
X147828000Y-98044000D03*
X147828000Y-100584000D03*
X150368000Y-98044000D03*
X150368000Y-100584000D03*
X152908000Y-98044000D03*
X152908000Y-100584000D03*
X155448000Y-98044000D03*
X155448000Y-100584000D03*
X157988000Y-98044000D03*
X157988000Y-100584000D03*
X160528000Y-98044000D03*
X160528000Y-100584000D03*
X163068000Y-98044000D03*
X163068000Y-100584000D03*
X165608000Y-98044000D03*
X165608000Y-100584000D03*
D14*
X102235000Y-74295000D03*
D15*
X102235000Y-76795000D03*
X102235000Y-79295000D03*
X102235000Y-81795000D03*
D11*
X137160000Y-58150000D03*
X137160000Y-56150000D03*
X163195000Y-58150000D03*
X163195000Y-56150000D03*
D18*
X115443000Y-96139000D03*
X115443000Y-98679000D03*
X115443000Y-99949000D03*
X115443000Y-101219000D03*
X115443000Y-102489000D03*
X115443000Y-103759000D03*
X115443000Y-105029000D03*
X109093000Y-105029000D03*
X109093000Y-103759000D03*
X109093000Y-102489000D03*
X109093000Y-101219000D03*
X109093000Y-99949000D03*
X109093000Y-98679000D03*
X109093000Y-97409000D03*
X109093000Y-96139000D03*
X115443000Y-97409000D03*
D19*
X139700000Y-58420000D03*
D20*
X124460000Y-91440000D03*
X139700000Y-60960000D03*
X124460000Y-88900000D03*
X139700000Y-63500000D03*
X124460000Y-86360000D03*
X139700000Y-66040000D03*
X124460000Y-83820000D03*
X139700000Y-68580000D03*
X124460000Y-81280000D03*
X139700000Y-71120000D03*
X124460000Y-78740000D03*
X139700000Y-73660000D03*
X124460000Y-76200000D03*
X139700000Y-76200000D03*
X124460000Y-73660000D03*
X139700000Y-78740000D03*
X124460000Y-71120000D03*
X139700000Y-81280000D03*
X124460000Y-68580000D03*
X139700000Y-83820000D03*
X124460000Y-66040000D03*
X139700000Y-86360000D03*
X124460000Y-63500000D03*
X139700000Y-88900000D03*
X124460000Y-60960000D03*
X139700000Y-91440000D03*
X124460000Y-58420000D03*
D19*
X165735000Y-58420000D03*
D20*
X150495000Y-91440000D03*
X165735000Y-60960000D03*
X150495000Y-88900000D03*
X165735000Y-63500000D03*
X150495000Y-86360000D03*
X165735000Y-66040000D03*
X150495000Y-83820000D03*
X165735000Y-68580000D03*
X150495000Y-81280000D03*
X165735000Y-71120000D03*
X150495000Y-78740000D03*
X165735000Y-73660000D03*
X150495000Y-76200000D03*
X165735000Y-76200000D03*
X150495000Y-73660000D03*
X165735000Y-78740000D03*
X150495000Y-71120000D03*
X165735000Y-81280000D03*
X150495000Y-68580000D03*
X165735000Y-83820000D03*
X150495000Y-66040000D03*
X165735000Y-86360000D03*
X150495000Y-63500000D03*
X165735000Y-88900000D03*
X150495000Y-60960000D03*
X165735000Y-91440000D03*
X150495000Y-58420000D03*
D21*
X165354000Y-145034000D03*
D22*
X162814000Y-146050000D03*
X160274000Y-146050000D03*
X157734000Y-146050000D03*
X155194000Y-146050000D03*
X152654000Y-146050000D03*
X150114000Y-146050000D03*
X147574000Y-146050000D03*
X145034000Y-146050000D03*
X142494000Y-146050000D03*
X139954000Y-146050000D03*
X137414000Y-146050000D03*
X134874000Y-146050000D03*
X132334000Y-146050000D03*
X129794000Y-146050000D03*
X127254000Y-146050000D03*
X124714000Y-146050000D03*
X122174000Y-146050000D03*
X119634000Y-146050000D03*
X117094000Y-146050000D03*
X114554000Y-146050000D03*
X112014000Y-146050000D03*
D23*
X113268000Y-107188000D03*
X111268000Y-107188000D03*
D24*
X111252000Y-89154000D03*
X165354000Y-140716000D03*
X113284000Y-105156000D03*
X117348000Y-96266000D03*
X121158000Y-101092000D03*
X159004000Y-131572000D03*
X165862000Y-56134000D03*
X141224000Y-103378000D03*
X141224000Y-116395002D03*
X136652000Y-132588000D03*
X141224000Y-132842000D03*
X147574000Y-132842000D03*
X147828000Y-129286000D03*
X111252000Y-110490000D03*
X135128000Y-56134000D03*
X122682000Y-99822000D03*
X112014000Y-140462000D03*
X111252000Y-96012000D03*
X115316000Y-91186000D03*
X111252000Y-91186000D03*
X111252000Y-105156000D03*
D25*
X109474000Y-76708000D03*
X109728000Y-74168000D03*
X139192000Y-117348000D03*
X147066000Y-83820000D03*
X119634000Y-136398000D03*
X119634000Y-139700000D03*
X147828000Y-86360000D03*
X153416000Y-90170000D03*
X156972000Y-128016000D03*
X154178000Y-91440000D03*
X151130000Y-127254000D03*
X151130000Y-123952000D03*
X151130000Y-118872000D03*
X154940000Y-88900000D03*
X151892000Y-118364000D03*
X151892000Y-124714000D03*
X155702000Y-86360000D03*
X152654000Y-124206000D03*
X152654000Y-118872000D03*
X156464000Y-83820000D03*
X153416000Y-124714000D03*
X153416000Y-118364000D03*
X157226000Y-81280000D03*
X154178000Y-124206000D03*
X154178000Y-118872000D03*
X157988000Y-82550000D03*
X158750000Y-78740000D03*
X159512000Y-76200000D03*
X160274000Y-73660000D03*
X161036000Y-71120000D03*
X162052000Y-68580000D03*
X162814000Y-66040000D03*
X163576000Y-63500000D03*
X119888000Y-73660000D03*
X121412000Y-73660000D03*
X119380000Y-80010000D03*
X121412000Y-80010000D03*
X119380000Y-78740000D03*
X121412000Y-78740000D03*
X154940000Y-138684000D03*
X160274000Y-128016000D03*
X160274000Y-123444000D03*
X157480000Y-124968000D03*
X154940000Y-124968000D03*
X157988000Y-125730000D03*
X155956000Y-125730000D03*
X155194000Y-140970000D03*
X157480000Y-126492000D03*
X150368000Y-126492000D03*
X150368000Y-136906000D03*
X148590000Y-123952000D03*
X147574000Y-139446000D03*
X148590000Y-117348000D03*
X137414000Y-115824000D03*
X136652000Y-115062000D03*
X135890000Y-114300000D03*
X135128000Y-113538000D03*
X147574000Y-123952000D03*
X148590000Y-116332000D03*
X148844000Y-133858000D03*
X134366000Y-112776000D03*
X136398000Y-119126000D03*
X114554000Y-140462000D03*
X120142000Y-97536000D03*
X159766000Y-138938000D03*
X128270000Y-111760000D03*
X157734000Y-138938000D03*
X127254000Y-127254000D03*
D26*
X164592000Y-118618000D02*
X164592000Y-115824000D01*
X165100000Y-115316000D02*
X166370000Y-115316000D01*
X164592000Y-115824000D02*
X165100000Y-115316000D01*
X165354000Y-140716000D02*
X164592000Y-139954000D01*
X164592000Y-139954000D02*
X164592000Y-118618000D01*
X170180000Y-115316000D02*
X172720000Y-112776000D01*
X172720000Y-64008000D02*
X172720000Y-112776000D01*
X167132000Y-58420000D02*
X172720000Y-64008000D01*
X165735000Y-58420000D02*
X167132000Y-58420000D01*
X166370000Y-115316000D02*
X170180000Y-115316000D01*
X106045000Y-89170000D02*
X102505000Y-89170000D01*
X102505000Y-89170000D02*
X102235000Y-88900000D01*
X106045000Y-89170000D02*
X111236000Y-89170000D01*
X111236000Y-89170000D02*
X111252000Y-89154000D01*
X115443000Y-96139000D02*
X117221000Y-96139000D01*
X113268000Y-105172000D02*
X113268000Y-107188000D01*
X113284000Y-105156000D02*
X113268000Y-105172000D01*
X117221000Y-96139000D02*
X117348000Y-96266000D01*
X113268000Y-107188000D02*
X118110000Y-107188000D01*
X121158000Y-104140000D02*
X121158000Y-101092000D01*
X118110000Y-107188000D02*
X121158000Y-104140000D01*
X165735000Y-58420000D02*
X166370000Y-58420000D01*
X165354000Y-140716000D02*
X165354000Y-145034000D01*
X139700000Y-58420000D02*
X150495000Y-58420000D01*
X165735000Y-58420000D02*
X163465000Y-58420000D01*
X163465000Y-58420000D02*
X163195000Y-58150000D01*
X150495000Y-58420000D02*
X162925000Y-58420000D01*
X162925000Y-58420000D02*
X163195000Y-58150000D01*
X139700000Y-58420000D02*
X137430000Y-58420000D01*
X137430000Y-58420000D02*
X137160000Y-58150000D01*
X124460000Y-58420000D02*
X136890000Y-58420000D01*
X136890000Y-58420000D02*
X137160000Y-58150000D01*
D27*
X137525000Y-58690000D02*
X137525000Y-58420000D01*
D26*
X163195000Y-56150000D02*
X137160000Y-56150000D01*
X165862000Y-56134000D02*
X163211000Y-56134000D01*
X163211000Y-56134000D02*
X163195000Y-56150000D01*
X163195000Y-56150000D02*
X165846000Y-56150000D01*
X165846000Y-56150000D02*
X165862000Y-56134000D01*
X141224000Y-116395002D02*
X141224000Y-103378000D01*
X136652000Y-132588000D02*
X136906000Y-132842000D01*
X136906000Y-132842000D02*
X141224000Y-132842000D01*
X147574000Y-132842000D02*
X147828000Y-132588000D01*
X147828000Y-132588000D02*
X147828000Y-129286000D01*
X112014000Y-140462000D02*
X112014000Y-138430000D01*
X99568000Y-92376000D02*
X100544000Y-91400000D01*
X99568000Y-135128000D02*
X99568000Y-92376000D01*
X101346000Y-136906000D02*
X99568000Y-135128000D01*
X110490000Y-136906000D02*
X101346000Y-136906000D01*
X112014000Y-138430000D02*
X110490000Y-136906000D01*
X111268000Y-107188000D02*
X111268000Y-110474000D01*
X111268000Y-110474000D02*
X111252000Y-110490000D01*
X111252000Y-105156000D02*
X111252000Y-107172000D01*
X111252000Y-107172000D02*
X111268000Y-107188000D01*
X135128000Y-56134000D02*
X135128000Y-56150000D01*
X135128000Y-56150000D02*
X135128000Y-56134000D01*
X135128000Y-56134000D02*
X135128000Y-56150000D01*
X116044000Y-49930000D02*
X116044000Y-50004000D01*
X116044000Y-50004000D02*
X122190000Y-56150000D01*
X122190000Y-56150000D02*
X135128000Y-56150000D01*
X135128000Y-56150000D02*
X163195000Y-56150000D01*
X105974000Y-53570000D02*
X105974000Y-49930000D01*
X105918000Y-50292000D02*
X105918000Y-49930000D01*
X105918000Y-49986000D02*
X105918000Y-50292000D01*
X105974000Y-49930000D02*
X105918000Y-49986000D01*
X102235000Y-81795000D02*
X101607000Y-81795000D01*
X101607000Y-81795000D02*
X100076000Y-80264000D01*
X100076000Y-52758000D02*
X102904000Y-49930000D01*
X100076000Y-80264000D02*
X100076000Y-52758000D01*
X102904000Y-49930000D02*
X105918000Y-49930000D01*
X105918000Y-49930000D02*
X116044000Y-49930000D01*
X115443000Y-99949000D02*
X119507000Y-99949000D01*
X119634000Y-99822000D02*
X122682000Y-99822000D01*
X119507000Y-99949000D02*
X119634000Y-99822000D01*
X102235000Y-91400000D02*
X100544000Y-91400000D01*
X99822000Y-84208000D02*
X102235000Y-81795000D01*
X100544000Y-91400000D02*
X99822000Y-90678000D01*
X99822000Y-90678000D02*
X99822000Y-84208000D01*
X106045000Y-91170000D02*
X102465000Y-91170000D01*
X102465000Y-91170000D02*
X102235000Y-91400000D01*
X112014000Y-146050000D02*
X112014000Y-140462000D01*
X109093000Y-96139000D02*
X111125000Y-96139000D01*
X111125000Y-96139000D02*
X111252000Y-96012000D01*
X109093000Y-105029000D02*
X111125000Y-105029000D01*
X111125000Y-105029000D02*
X111252000Y-105156000D01*
X124968000Y-98044000D02*
X123698000Y-98044000D01*
X122682000Y-97028000D02*
X123698000Y-98044000D01*
X122682000Y-92202000D02*
X122682000Y-97028000D01*
X121666000Y-91186000D02*
X122682000Y-92202000D01*
X121666000Y-91186000D02*
X115316000Y-91186000D01*
X111252000Y-91186000D02*
X111236000Y-91170000D01*
X111236000Y-91170000D02*
X106045000Y-91170000D01*
X165735000Y-91440000D02*
X157226000Y-91440000D01*
X147828000Y-95504000D02*
X145288000Y-98044000D01*
X153162000Y-95504000D02*
X147828000Y-95504000D01*
X157226000Y-91440000D02*
X153162000Y-95504000D01*
D27*
X108474000Y-53570000D02*
X108474000Y-78470000D01*
X107649000Y-79295000D02*
X102235000Y-79295000D01*
X108474000Y-78470000D02*
X107649000Y-79295000D01*
X110474000Y-53570000D02*
X110474000Y-56404000D01*
X108966000Y-76200000D02*
X109474000Y-76708000D01*
X108966000Y-57912000D02*
X108966000Y-76200000D01*
X110474000Y-56404000D02*
X108966000Y-57912000D01*
X112974000Y-53570000D02*
X112974000Y-54920000D01*
X112974000Y-54920000D02*
X109474000Y-58420000D01*
X109474000Y-58420000D02*
X109474000Y-73914000D01*
X109474000Y-73914000D02*
X109728000Y-74168000D01*
X129032000Y-107188000D02*
X129032000Y-116586000D01*
X129794000Y-117348000D02*
X139192000Y-117348000D01*
X129032000Y-116586000D02*
X129794000Y-117348000D01*
X115443000Y-98679000D02*
X123063000Y-98679000D01*
X123063000Y-98679000D02*
X124968000Y-100584000D01*
X124968000Y-100584000D02*
X125476000Y-100584000D01*
X125476000Y-100584000D02*
X129032000Y-104140000D01*
X129032000Y-104140000D02*
X129032000Y-107188000D01*
X145288000Y-100584000D02*
X145288000Y-100838000D01*
X145288000Y-100838000D02*
X149352000Y-104902000D01*
X149352000Y-104902000D02*
X149352000Y-117602000D01*
X149352000Y-117602000D02*
X148844000Y-118110000D01*
X148844000Y-118110000D02*
X138430000Y-118110000D01*
X138430000Y-118110000D02*
X120142000Y-136398000D01*
X120142000Y-136398000D02*
X119634000Y-136398000D01*
X119634000Y-139700000D02*
X119634000Y-146050000D01*
X139700000Y-83820000D02*
X147066000Y-83820000D01*
X147066000Y-83820000D02*
X148590000Y-83820000D01*
X164465000Y-85090000D02*
X165735000Y-83820000D01*
X149860000Y-85090000D02*
X164465000Y-85090000D01*
X148590000Y-83820000D02*
X149860000Y-85090000D01*
X147828000Y-98044000D02*
X146558000Y-99314000D01*
X114554000Y-141732000D02*
X114554000Y-146050000D01*
X115316000Y-140970000D02*
X114554000Y-141732000D01*
X116332000Y-140970000D02*
X115316000Y-140970000D01*
X138684000Y-118618000D02*
X116332000Y-140970000D01*
X149352000Y-118618000D02*
X138684000Y-118618000D01*
X149860000Y-118110000D02*
X149352000Y-118618000D01*
X149860000Y-104648000D02*
X149860000Y-118110000D01*
X146558000Y-101346000D02*
X149860000Y-104648000D01*
X146558000Y-99314000D02*
X146558000Y-101346000D01*
X139700000Y-86360000D02*
X147828000Y-86360000D01*
X147828000Y-86360000D02*
X148590000Y-86360000D01*
X148590000Y-86360000D02*
X149860000Y-87630000D01*
X149860000Y-87630000D02*
X164465000Y-87630000D01*
X164465000Y-87630000D02*
X165735000Y-86360000D01*
X147828000Y-100584000D02*
X150368000Y-103124000D01*
X117094000Y-140970000D02*
X117094000Y-146050000D01*
X138938000Y-119126000D02*
X117094000Y-140970000D01*
X149606000Y-119126000D02*
X138938000Y-119126000D01*
X150368000Y-118364000D02*
X149606000Y-119126000D01*
X150368000Y-103124000D02*
X150368000Y-118364000D01*
X139700000Y-88900000D02*
X148590000Y-88900000D01*
X149860000Y-90170000D02*
X153416000Y-90170000D01*
X148590000Y-88900000D02*
X149860000Y-90170000D01*
X164465000Y-90170000D02*
X165735000Y-88900000D01*
X153416000Y-90170000D02*
X164465000Y-90170000D01*
X160274000Y-146050000D02*
X160274000Y-141478000D01*
X156972000Y-130302000D02*
X156972000Y-128016000D01*
X155702000Y-131572000D02*
X156972000Y-130302000D01*
X155702000Y-139446000D02*
X155702000Y-131572000D01*
X156972000Y-140716000D02*
X155702000Y-139446000D01*
X159512000Y-140716000D02*
X156972000Y-140716000D01*
X160274000Y-141478000D02*
X159512000Y-140716000D01*
X154178000Y-91440000D02*
X150495000Y-91440000D01*
X150368000Y-98044000D02*
X149098000Y-99314000D01*
X151130000Y-123952000D02*
X151130000Y-127254000D01*
X151130000Y-103124000D02*
X151130000Y-118872000D01*
X149098000Y-101092000D02*
X151130000Y-103124000D01*
X149098000Y-99314000D02*
X149098000Y-101092000D01*
X124460000Y-91440000D02*
X137160000Y-91440000D01*
X148590000Y-90170000D02*
X149860000Y-91440000D01*
X138430000Y-90170000D02*
X148590000Y-90170000D01*
X137160000Y-91440000D02*
X138430000Y-90170000D01*
X149860000Y-91440000D02*
X150495000Y-91440000D01*
X151892000Y-128778000D02*
X151130000Y-129540000D01*
X151130000Y-129540000D02*
X151130000Y-137160000D01*
X154940000Y-88900000D02*
X150495000Y-88900000D01*
X150368000Y-100584000D02*
X150368000Y-101346000D01*
X150368000Y-101346000D02*
X151892000Y-102870000D01*
X151892000Y-102870000D02*
X151892000Y-118364000D01*
X151892000Y-124714000D02*
X151892000Y-128778000D01*
X151130000Y-137160000D02*
X147574000Y-140716000D01*
X147574000Y-140716000D02*
X145796000Y-140716000D01*
X145796000Y-140716000D02*
X145034000Y-141478000D01*
X145034000Y-141478000D02*
X145034000Y-146050000D01*
X124460000Y-88900000D02*
X137160000Y-88900000D01*
X148590000Y-87630000D02*
X149860000Y-88900000D01*
X138430000Y-87630000D02*
X148590000Y-87630000D01*
X137160000Y-88900000D02*
X138430000Y-87630000D01*
X149860000Y-88900000D02*
X150495000Y-88900000D01*
X152654000Y-128778000D02*
X151638000Y-129794000D01*
X151638000Y-129794000D02*
X151638000Y-137668000D01*
X155702000Y-86360000D02*
X150495000Y-86360000D01*
X152908000Y-98044000D02*
X151638000Y-99314000D01*
X147574000Y-141732000D02*
X147574000Y-146050000D01*
X149860000Y-139446000D02*
X147574000Y-141732000D01*
X151638000Y-137668000D02*
X149860000Y-139446000D01*
X152654000Y-124206000D02*
X152654000Y-128778000D01*
X152654000Y-102870000D02*
X152654000Y-118872000D01*
X151638000Y-101854000D02*
X152654000Y-102870000D01*
X151638000Y-99314000D02*
X151638000Y-101854000D01*
X124460000Y-86360000D02*
X137160000Y-86360000D01*
X148590000Y-85090000D02*
X149860000Y-86360000D01*
X138430000Y-85090000D02*
X148590000Y-85090000D01*
X137160000Y-86360000D02*
X138430000Y-85090000D01*
X149860000Y-86360000D02*
X150495000Y-86360000D01*
X153416000Y-128778000D02*
X152146000Y-130048000D01*
X152146000Y-130048000D02*
X152146000Y-138176000D01*
X156464000Y-83820000D02*
X150495000Y-83820000D01*
X152908000Y-100584000D02*
X152908000Y-102108000D01*
X150114000Y-140208000D02*
X150114000Y-146050000D01*
X152146000Y-138176000D02*
X150114000Y-140208000D01*
X153416000Y-124714000D02*
X153416000Y-128778000D01*
X153416000Y-102616000D02*
X153416000Y-118364000D01*
X152908000Y-102108000D02*
X153416000Y-102616000D01*
X124460000Y-83820000D02*
X137160000Y-83820000D01*
X148590000Y-82550000D02*
X149860000Y-83820000D01*
X138430000Y-82550000D02*
X148590000Y-82550000D01*
X137160000Y-83820000D02*
X138430000Y-82550000D01*
X149860000Y-83820000D02*
X150495000Y-83820000D01*
X154178000Y-128778000D02*
X152654000Y-130302000D01*
X152654000Y-130302000D02*
X152654000Y-138684000D01*
X157226000Y-81280000D02*
X150495000Y-81280000D01*
X155448000Y-98044000D02*
X154178000Y-99314000D01*
X152654000Y-138684000D02*
X152654000Y-146050000D01*
X154178000Y-124206000D02*
X154178000Y-128778000D01*
X154178000Y-99314000D02*
X154178000Y-118872000D01*
X124460000Y-81280000D02*
X137160000Y-81280000D01*
X148590000Y-80010000D02*
X149860000Y-81280000D01*
X138430000Y-80010000D02*
X148590000Y-80010000D01*
X137160000Y-81280000D02*
X138430000Y-80010000D01*
X149860000Y-81280000D02*
X150495000Y-81280000D01*
X157988000Y-98044000D02*
X156718000Y-99314000D01*
X122174000Y-136652000D02*
X122174000Y-146050000D01*
X139192000Y-119634000D02*
X122174000Y-136652000D01*
X155956000Y-119634000D02*
X139192000Y-119634000D01*
X156464000Y-119126000D02*
X155956000Y-119634000D01*
X156464000Y-104140000D02*
X156464000Y-119126000D01*
X156718000Y-103886000D02*
X156464000Y-104140000D01*
X156718000Y-99314000D02*
X156718000Y-103886000D01*
X139700000Y-81280000D02*
X148590000Y-81280000D01*
X149860000Y-82550000D02*
X157988000Y-82550000D01*
X148590000Y-81280000D02*
X149860000Y-82550000D01*
X164465000Y-82550000D02*
X165735000Y-81280000D01*
X157988000Y-82550000D02*
X164465000Y-82550000D01*
X124714000Y-141478000D02*
X122624002Y-139388002D01*
X122624002Y-136963998D02*
X124714000Y-134874000D01*
X122624002Y-139388002D02*
X122624002Y-136963998D01*
X165735000Y-78740000D02*
X158750000Y-78740000D01*
X158750000Y-78740000D02*
X152908000Y-78740000D01*
X152908000Y-78740000D02*
X151638000Y-80010000D01*
X157988000Y-100584000D02*
X157988000Y-103378000D01*
X124714000Y-141478000D02*
X124714000Y-146050000D01*
X139446000Y-120142000D02*
X124714000Y-134874000D01*
X156464000Y-120142000D02*
X139446000Y-120142000D01*
X156972000Y-119634000D02*
X156464000Y-120142000D01*
X156972000Y-104394000D02*
X156972000Y-119634000D01*
X157988000Y-103378000D02*
X156972000Y-104394000D01*
X139700000Y-78740000D02*
X148590000Y-78740000D01*
X149860000Y-80010000D02*
X151638000Y-80010000D01*
X148590000Y-78740000D02*
X149860000Y-80010000D01*
X126746000Y-141478000D02*
X127254000Y-141986000D01*
X126746000Y-141478000D02*
X125476000Y-141478000D01*
X123190000Y-137160000D02*
X127254000Y-133096000D01*
X123190000Y-139192000D02*
X123190000Y-137160000D01*
X125476000Y-141478000D02*
X123190000Y-139192000D01*
X165735000Y-76200000D02*
X159512000Y-76200000D01*
X159512000Y-76200000D02*
X152908000Y-76200000D01*
X152908000Y-76200000D02*
X151638000Y-77470000D01*
X160528000Y-98044000D02*
X159258000Y-99314000D01*
X127254000Y-141986000D02*
X127254000Y-146050000D01*
X139700000Y-120650000D02*
X127254000Y-133096000D01*
X157029998Y-120650000D02*
X139700000Y-120650000D01*
X157480000Y-120199998D02*
X157029998Y-120650000D01*
X157480000Y-104648000D02*
X157480000Y-120199998D01*
X159258000Y-102870000D02*
X157480000Y-104648000D01*
X159258000Y-99314000D02*
X159258000Y-102870000D01*
X139700000Y-76200000D02*
X148590000Y-76200000D01*
X148590000Y-76200000D02*
X149860000Y-77470000D01*
X149860000Y-77470000D02*
X151638000Y-77470000D01*
X129794000Y-131318000D02*
X123698000Y-137414000D01*
X129032000Y-140970000D02*
X129794000Y-141732000D01*
X125730000Y-140970000D02*
X129032000Y-140970000D01*
X123698000Y-138938000D02*
X125730000Y-140970000D01*
X123698000Y-137414000D02*
X123698000Y-138938000D01*
X165735000Y-73660000D02*
X160274000Y-73660000D01*
X160274000Y-73660000D02*
X152908000Y-73660000D01*
X152908000Y-73660000D02*
X151638000Y-74930000D01*
X160528000Y-100584000D02*
X160528000Y-102362000D01*
X129794000Y-141732000D02*
X129794000Y-146050000D01*
X139954000Y-121158000D02*
X129794000Y-131318000D01*
X157480000Y-121158000D02*
X139954000Y-121158000D01*
X157988000Y-120650000D02*
X157480000Y-121158000D01*
X157988000Y-104902000D02*
X157988000Y-120650000D01*
X160528000Y-102362000D02*
X157988000Y-104902000D01*
X139700000Y-73660000D02*
X148590000Y-73660000D01*
X149860000Y-74930000D02*
X151638000Y-74930000D01*
X148590000Y-73660000D02*
X149860000Y-74930000D01*
X132334000Y-129540000D02*
X124206000Y-137668000D01*
X131572000Y-140462000D02*
X132334000Y-141224000D01*
X125984000Y-140462000D02*
X131572000Y-140462000D01*
X124206000Y-138684000D02*
X125984000Y-140462000D01*
X124206000Y-137668000D02*
X124206000Y-138684000D01*
X165735000Y-71120000D02*
X161036000Y-71120000D01*
X161036000Y-71120000D02*
X152908000Y-71120000D01*
X152908000Y-71120000D02*
X151638000Y-72390000D01*
X163068000Y-98044000D02*
X163068000Y-98298000D01*
X163068000Y-98298000D02*
X161860801Y-99505199D01*
X161860801Y-99505199D02*
X161860801Y-102045199D01*
X161860801Y-102045199D02*
X158496000Y-105410000D01*
X158496000Y-105410000D02*
X158496000Y-121158000D01*
X158496000Y-121158000D02*
X157988000Y-121666000D01*
X157988000Y-121666000D02*
X140208000Y-121666000D01*
X140208000Y-121666000D02*
X132334000Y-129540000D01*
X132334000Y-141224000D02*
X132334000Y-146050000D01*
X139700000Y-71120000D02*
X148590000Y-71120000D01*
X148590000Y-71120000D02*
X149860000Y-72390000D01*
X149860000Y-72390000D02*
X151638000Y-72390000D01*
X124968000Y-138684000D02*
X124968000Y-137668000D01*
X134874000Y-127762000D02*
X124968000Y-137668000D01*
X163068000Y-101600000D02*
X159004000Y-105664000D01*
X159004000Y-105664000D02*
X159004000Y-121723998D01*
X159004000Y-121723998D02*
X158553998Y-122174000D01*
X158553998Y-122174000D02*
X140462000Y-122174000D01*
X163068000Y-100584000D02*
X163068000Y-101600000D01*
X140462000Y-122174000D02*
X134874000Y-127762000D01*
X134112000Y-139954000D02*
X134874000Y-140716000D01*
X126238000Y-139954000D02*
X134112000Y-139954000D01*
X124968000Y-138684000D02*
X126238000Y-139954000D01*
X165735000Y-68580000D02*
X162052000Y-68580000D01*
X162052000Y-68580000D02*
X152908000Y-68580000D01*
X152908000Y-68580000D02*
X151638000Y-69850000D01*
X134874000Y-140716000D02*
X134874000Y-146050000D01*
X139700000Y-68580000D02*
X148590000Y-68580000D01*
X148590000Y-68580000D02*
X149860000Y-69850000D01*
X149860000Y-69850000D02*
X151638000Y-69850000D01*
X125730000Y-138741998D02*
X125730000Y-137668000D01*
X137414000Y-125984000D02*
X125730000Y-137668000D01*
X164338000Y-99314000D02*
X164338000Y-101092000D01*
X164338000Y-101092000D02*
X159512000Y-105918000D01*
X159512000Y-105918000D02*
X159512000Y-122231998D01*
X159512000Y-122231998D02*
X159061998Y-122682000D01*
X159061998Y-122682000D02*
X140716000Y-122682000D01*
X140716000Y-122682000D02*
X137414000Y-125984000D01*
X165608000Y-98044000D02*
X164338000Y-99314000D01*
X136144000Y-139446000D02*
X137414000Y-140716000D01*
X126434002Y-139446000D02*
X136144000Y-139446000D01*
X125730000Y-138741998D02*
X126434002Y-139446000D01*
X165735000Y-66040000D02*
X162814000Y-66040000D01*
X162814000Y-66040000D02*
X152908000Y-66040000D01*
X152908000Y-66040000D02*
X151638000Y-67310000D01*
X137414000Y-140716000D02*
X137414000Y-146050000D01*
X139700000Y-66040000D02*
X148590000Y-66040000D01*
X149860000Y-67310000D02*
X151638000Y-67310000D01*
X148590000Y-66040000D02*
X149860000Y-67310000D01*
X139954000Y-124206000D02*
X126492000Y-137668000D01*
X138938000Y-138938000D02*
X139954000Y-139954000D01*
X127000000Y-138938000D02*
X138938000Y-138938000D01*
X126492000Y-138430000D02*
X127000000Y-138938000D01*
X126492000Y-137668000D02*
X126492000Y-138430000D01*
X165735000Y-63500000D02*
X163576000Y-63500000D01*
X163576000Y-63500000D02*
X152908000Y-63500000D01*
X152908000Y-63500000D02*
X151638000Y-64770000D01*
X165608000Y-100584000D02*
X160020000Y-106172000D01*
X139954000Y-139954000D02*
X139954000Y-146050000D01*
X140970000Y-123190000D02*
X139954000Y-124206000D01*
X159385000Y-123190000D02*
X140970000Y-123190000D01*
X160020000Y-122555000D02*
X159385000Y-123190000D01*
X160020000Y-106172000D02*
X160020000Y-122555000D01*
X139700000Y-63500000D02*
X148590000Y-63500000D01*
X148590000Y-63500000D02*
X149860000Y-64770000D01*
X149860000Y-64770000D02*
X151638000Y-64770000D01*
X114427000Y-90932000D02*
X114427000Y-90805000D01*
X120650000Y-61976000D02*
X121666000Y-60960000D01*
X120650000Y-89408000D02*
X120650000Y-61976000D01*
X119888000Y-90170000D02*
X120650000Y-89408000D01*
X115062000Y-90170000D02*
X119888000Y-90170000D01*
X114427000Y-90805000D02*
X115062000Y-90170000D01*
X114427000Y-100711000D02*
X114427000Y-90932000D01*
X115443000Y-101219000D02*
X114935000Y-101219000D01*
X114935000Y-101219000D02*
X114427000Y-100711000D01*
X121666000Y-60960000D02*
X124460000Y-60960000D01*
X124460000Y-60960000D02*
X137160000Y-60960000D01*
X149225000Y-59690000D02*
X150495000Y-60960000D01*
X138430000Y-59690000D02*
X149225000Y-59690000D01*
X137160000Y-60960000D02*
X138430000Y-59690000D01*
X113919000Y-90678000D02*
X113919000Y-90551000D01*
X120142000Y-73914000D02*
X119888000Y-73660000D01*
X120142000Y-89154000D02*
X120142000Y-73914000D01*
X119634000Y-89662000D02*
X120142000Y-89154000D01*
X114808000Y-89662000D02*
X119634000Y-89662000D01*
X113919000Y-90551000D02*
X114808000Y-89662000D01*
X121412000Y-73660000D02*
X124460000Y-73660000D01*
X113919000Y-101219000D02*
X113919000Y-90678000D01*
X115443000Y-102489000D02*
X115189000Y-102489000D01*
X115189000Y-102489000D02*
X113919000Y-101219000D01*
X124460000Y-73660000D02*
X137160000Y-73660000D01*
X148590000Y-72390000D02*
X149860000Y-73660000D01*
X138430000Y-72390000D02*
X148590000Y-72390000D01*
X137160000Y-73660000D02*
X138430000Y-72390000D01*
X149860000Y-73660000D02*
X150495000Y-73660000D01*
X113284000Y-90678000D02*
X113284000Y-90424000D01*
X119634000Y-80264000D02*
X119380000Y-80010000D01*
X119634000Y-88646000D02*
X119634000Y-80264000D01*
X119126000Y-89154000D02*
X119634000Y-88646000D01*
X114554000Y-89154000D02*
X119126000Y-89154000D01*
X113284000Y-90424000D02*
X114554000Y-89154000D01*
X135890000Y-80010000D02*
X121412000Y-80010000D01*
X138430000Y-77470000D02*
X148844000Y-77470000D01*
X135890000Y-80010000D02*
X138430000Y-77470000D01*
X148844000Y-77470000D02*
X150114000Y-78740000D01*
X111125000Y-103759000D02*
X113284000Y-101600000D01*
X113284000Y-101600000D02*
X113284000Y-90678000D01*
X109093000Y-103759000D02*
X111125000Y-103759000D01*
X150114000Y-78740000D02*
X150495000Y-78740000D01*
X112776000Y-90424000D02*
X112776000Y-90170000D01*
X112776000Y-90170000D02*
X114300000Y-88646000D01*
X118618000Y-79502000D02*
X119380000Y-78740000D01*
X118618000Y-80264000D02*
X118618000Y-79502000D01*
X119126000Y-80772000D02*
X118618000Y-80264000D01*
X119126000Y-88195998D02*
X119126000Y-80772000D01*
X118675998Y-88646000D02*
X119126000Y-88195998D01*
X114300000Y-88646000D02*
X118675998Y-88646000D01*
X121412000Y-78740000D02*
X124460000Y-78740000D01*
X112776000Y-90424000D02*
X112776000Y-101346000D01*
X109093000Y-102489000D02*
X111633000Y-102489000D01*
X111633000Y-102489000D02*
X112776000Y-101346000D01*
X154940000Y-138684000D02*
X154940000Y-135382000D01*
X161036000Y-127254000D02*
X163264002Y-125025998D01*
X169672000Y-114046000D02*
X171450000Y-112268000D01*
X163576000Y-114046000D02*
X169672000Y-114046000D01*
X163264002Y-114357998D02*
X163576000Y-114046000D01*
X163264002Y-125025998D02*
X163264002Y-114357998D01*
X156210000Y-127762000D02*
X156718000Y-127254000D01*
X156718000Y-127254000D02*
X157988000Y-127254000D01*
X156972000Y-127254000D02*
X157988000Y-127254000D01*
X157988000Y-127254000D02*
X161036000Y-127254000D01*
X169106002Y-63950002D02*
X169106002Y-71824002D01*
X171450000Y-75692000D02*
X169106002Y-73348002D01*
X169106002Y-73348002D02*
X169106002Y-71824002D01*
X171450000Y-112268000D02*
X171450000Y-75692000D01*
X169106002Y-63950002D02*
X166116000Y-60960000D01*
X156210000Y-127762000D02*
X156210000Y-130048000D01*
X156210000Y-130048000D02*
X154940000Y-131318000D01*
X154940000Y-131318000D02*
X154940000Y-135382000D01*
X165735000Y-60960000D02*
X166116000Y-60960000D01*
X165735000Y-60960000D02*
X165862000Y-60960000D01*
X165735000Y-60960000D02*
X152908000Y-60960000D01*
X152908000Y-60960000D02*
X151638000Y-62230000D01*
X139700000Y-60960000D02*
X148590000Y-60960000D01*
X149860000Y-62230000D02*
X151638000Y-62230000D01*
X148590000Y-60960000D02*
X149860000Y-62230000D01*
X160274000Y-123444000D02*
X160782000Y-122936000D01*
X168402000Y-111506000D02*
X168910000Y-110998000D01*
X161544000Y-111506000D02*
X168402000Y-111506000D01*
X160782000Y-112268000D02*
X161544000Y-111506000D01*
X160782000Y-122936000D02*
X160782000Y-112268000D01*
X152908000Y-74930000D02*
X166878000Y-74930000D01*
X150495000Y-76200000D02*
X151638000Y-76200000D01*
X151638000Y-76200000D02*
X152908000Y-74930000D01*
X168910000Y-76962000D02*
X166878000Y-74930000D01*
X168910000Y-110998000D02*
X168910000Y-76962000D01*
X162814000Y-146050000D02*
X162814000Y-142748000D01*
X162814000Y-142748000D02*
X160020000Y-139954000D01*
X160020000Y-139954000D02*
X157480000Y-139954000D01*
X157480000Y-139954000D02*
X156210000Y-138684000D01*
X156210000Y-138684000D02*
X156210000Y-131826000D01*
X156210000Y-131826000D02*
X157734000Y-130302000D01*
X157734000Y-130302000D02*
X157734000Y-128524000D01*
X157734000Y-128524000D02*
X158242000Y-128016000D01*
X158242000Y-128016000D02*
X160274000Y-128016000D01*
X124460000Y-76200000D02*
X137795000Y-76200000D01*
X148590000Y-74930000D02*
X149860000Y-76200000D01*
X139065000Y-74930000D02*
X148590000Y-74930000D01*
X137795000Y-76200000D02*
X139065000Y-74930000D01*
X149860000Y-76200000D02*
X150495000Y-76200000D01*
X160782000Y-124206000D02*
X161290000Y-123698000D01*
X168530398Y-112014000D02*
X169418000Y-111126398D01*
X161798000Y-112014000D02*
X168530398Y-112014000D01*
X161290000Y-112522000D02*
X161798000Y-112014000D01*
X161290000Y-123698000D02*
X161290000Y-112522000D01*
X156718000Y-124714000D02*
X157226000Y-124206000D01*
X160782000Y-124206000D02*
X157226000Y-124206000D01*
X167132000Y-70358000D02*
X167132000Y-73914000D01*
X151638000Y-71120000D02*
X152908000Y-69850000D01*
X150495000Y-71120000D02*
X151638000Y-71120000D01*
X152908000Y-69850000D02*
X166624000Y-69850000D01*
X167132000Y-70358000D02*
X166624000Y-69850000D01*
X169418000Y-76708000D02*
X167132000Y-74422000D01*
X167132000Y-74422000D02*
X167132000Y-73914000D01*
X169418000Y-111126398D02*
X169418000Y-76708000D01*
X154178000Y-138430000D02*
X154178000Y-138938000D01*
X156718000Y-125984000D02*
X155702000Y-127000000D01*
X155702000Y-127000000D02*
X155702000Y-129540000D01*
X155702000Y-129540000D02*
X154178000Y-131064000D01*
X154178000Y-131064000D02*
X154178000Y-138430000D01*
X156718000Y-124714000D02*
X156718000Y-125984000D01*
X157734000Y-146050000D02*
X157734000Y-141986000D01*
X154178000Y-138938000D02*
X156718000Y-141478000D01*
X156718000Y-141478000D02*
X157226000Y-141478000D01*
X157226000Y-141478000D02*
X157734000Y-141986000D01*
X124460000Y-71120000D02*
X137160000Y-71120000D01*
X148590000Y-69850000D02*
X149860000Y-71120000D01*
X138430000Y-69850000D02*
X148590000Y-69850000D01*
X137160000Y-71120000D02*
X138430000Y-69850000D01*
X149860000Y-71120000D02*
X150495000Y-71120000D01*
X160782000Y-124968000D02*
X161798000Y-123952000D01*
X168910000Y-112522000D02*
X169926000Y-111506000D01*
X162248002Y-112522000D02*
X168910000Y-112522000D01*
X161798000Y-112972002D02*
X162248002Y-112522000D01*
X161798000Y-123952000D02*
X161798000Y-112972002D01*
X160782000Y-124968000D02*
X157480000Y-124968000D01*
X154940000Y-124968000D02*
X154686000Y-125222000D01*
X155144439Y-141936437D02*
X155194000Y-146050000D01*
X154686000Y-125222000D02*
X154686000Y-129032000D01*
X154686000Y-129032000D02*
X153162000Y-130556000D01*
X153162000Y-130556000D02*
X153162000Y-139954000D01*
X153162000Y-139954000D02*
X155144439Y-141936439D01*
X155144439Y-141936439D02*
X155144439Y-141936437D01*
X167640000Y-69342000D02*
X167640000Y-68834000D01*
X167640000Y-68834000D02*
X167132000Y-68326000D01*
X166116000Y-67310000D02*
X167132000Y-68326000D01*
X167132000Y-68326000D02*
X167640000Y-68834000D01*
X169926000Y-111506000D02*
X169926000Y-76454000D01*
X167640000Y-74168000D02*
X167640000Y-73463998D01*
X169926000Y-76454000D02*
X167640000Y-74168000D01*
X167640000Y-69342000D02*
X167640000Y-73463998D01*
X151638000Y-68580000D02*
X152908000Y-67310000D01*
X152908000Y-67310000D02*
X166116000Y-67310000D01*
X150495000Y-68580000D02*
X151638000Y-68580000D01*
X124460000Y-68580000D02*
X137160000Y-68580000D01*
X148590000Y-67310000D02*
X149860000Y-68580000D01*
X138430000Y-67310000D02*
X148590000Y-67310000D01*
X137160000Y-68580000D02*
X138430000Y-67310000D01*
X149860000Y-68580000D02*
X150495000Y-68580000D01*
X160782000Y-125730000D02*
X162248002Y-124263998D01*
X169164000Y-113030000D02*
X170434000Y-111760000D01*
X162756002Y-113030000D02*
X169164000Y-113030000D01*
X162248002Y-113538000D02*
X162756002Y-113030000D01*
X162248002Y-124263998D02*
X162248002Y-113538000D01*
X160782000Y-125730000D02*
X157988000Y-125730000D01*
X155956000Y-125730000D02*
X155194000Y-126492000D01*
X155194000Y-126492000D02*
X155194000Y-129286000D01*
X155194000Y-129286000D02*
X153612002Y-130867998D01*
X153612002Y-130867998D02*
X153612002Y-139642002D01*
X153612002Y-139642002D02*
X154940000Y-140970000D01*
X154940000Y-140970000D02*
X155194000Y-140970000D01*
X168090002Y-67056000D02*
X168090002Y-66490002D01*
X168090002Y-66490002D02*
X167640000Y-66040000D01*
X166370000Y-64770000D02*
X167640000Y-66040000D01*
X167640000Y-66040000D02*
X168090002Y-66490002D01*
X170434000Y-111760000D02*
X170434000Y-76257998D01*
X168090002Y-73914000D02*
X168090002Y-72955998D01*
X170434000Y-76257998D02*
X168090002Y-73914000D01*
X168090002Y-67056000D02*
X168090002Y-72955998D01*
X151892000Y-66040000D02*
X153162000Y-64770000D01*
X153162000Y-64770000D02*
X166370000Y-64770000D01*
X150495000Y-66040000D02*
X151892000Y-66040000D01*
X124460000Y-66040000D02*
X137160000Y-66040000D01*
X148590000Y-64770000D02*
X149860000Y-66040000D01*
X138430000Y-64770000D02*
X148590000Y-64770000D01*
X137160000Y-66040000D02*
X138430000Y-64770000D01*
X149860000Y-66040000D02*
X150495000Y-66040000D01*
X161036000Y-126492000D02*
X162814000Y-124714000D01*
X169292398Y-113538000D02*
X170942000Y-111888398D01*
X163322000Y-113538000D02*
X169292398Y-113538000D01*
X162814000Y-114046000D02*
X163322000Y-113538000D01*
X162814000Y-124714000D02*
X162814000Y-114046000D01*
X161036000Y-126492000D02*
X157480000Y-126492000D01*
X150368000Y-136906000D02*
X150368000Y-128778000D01*
X166624000Y-62230000D02*
X168656000Y-64262000D01*
X168656000Y-73660000D02*
X168656000Y-72390000D01*
X150368000Y-126492000D02*
X150368000Y-128778000D01*
X170942000Y-75946000D02*
X168656000Y-73660000D01*
X170942000Y-111888398D02*
X170942000Y-75946000D01*
X151638000Y-63500000D02*
X152908000Y-62230000D01*
X152908000Y-62230000D02*
X166624000Y-62230000D01*
X168656000Y-64262000D02*
X168656000Y-72390000D01*
X150495000Y-63500000D02*
X151638000Y-63500000D01*
X168656000Y-72390000D02*
X168656000Y-72390000D01*
X124460000Y-63500000D02*
X137160000Y-63500000D01*
X148590000Y-62230000D02*
X149860000Y-63500000D01*
X138430000Y-62230000D02*
X148590000Y-62230000D01*
X137160000Y-63500000D02*
X138430000Y-62230000D01*
X149860000Y-63500000D02*
X150495000Y-63500000D01*
X147574000Y-139446000D02*
X149606000Y-137414000D01*
X149606000Y-124968000D02*
X148590000Y-123952000D01*
X149606000Y-137414000D02*
X149606000Y-124968000D01*
X129540000Y-106680000D02*
X129540000Y-116078000D01*
X130048000Y-116586000D02*
X139446000Y-116586000D01*
X129540000Y-116078000D02*
X130048000Y-116586000D01*
X127508000Y-100584000D02*
X127508000Y-100838000D01*
X127508000Y-100838000D02*
X129540000Y-102870000D01*
X127508000Y-100584000D02*
X128016000Y-100584000D01*
X129540000Y-102870000D02*
X129540000Y-106680000D01*
X140208000Y-117348000D02*
X148590000Y-117348000D01*
X139446000Y-116586000D02*
X140208000Y-117348000D01*
X130048000Y-105918000D02*
X130048000Y-115570000D01*
X130048000Y-100584000D02*
X130048000Y-105918000D01*
X130048000Y-115570000D02*
X130302000Y-115824000D01*
X130302000Y-115824000D02*
X137414000Y-115824000D01*
X136652000Y-115062000D02*
X134874000Y-115062000D01*
X130498002Y-102927998D02*
X130498002Y-114496002D01*
X130498002Y-114496002D02*
X131064000Y-115062000D01*
X131064000Y-115062000D02*
X134874000Y-115062000D01*
X132588000Y-100838000D02*
X130498002Y-102927998D01*
X132588000Y-100584000D02*
X132588000Y-100838000D01*
X135890000Y-114300000D02*
X132334000Y-114300000D01*
X135128000Y-100584000D02*
X134620000Y-100584000D01*
X134620000Y-100584000D02*
X131064000Y-104140000D01*
X131064000Y-104140000D02*
X131064000Y-113792000D01*
X131064000Y-113792000D02*
X131572000Y-114300000D01*
X131572000Y-114300000D02*
X132334000Y-114300000D01*
X137668000Y-100584000D02*
X137414000Y-100584000D01*
X137414000Y-100584000D02*
X135890000Y-102108000D01*
X131826000Y-113538000D02*
X135128000Y-113538000D01*
X131572000Y-113284000D02*
X131826000Y-113538000D01*
X131572000Y-104394000D02*
X131572000Y-113284000D01*
X133858000Y-102108000D02*
X131572000Y-104394000D01*
X135890000Y-102108000D02*
X133858000Y-102108000D01*
X148844000Y-125222000D02*
X147574000Y-123952000D01*
X148844000Y-133858000D02*
X148844000Y-125222000D01*
X148590000Y-116332000D02*
X148590000Y-105410000D01*
X141732000Y-102108000D02*
X140208000Y-100584000D01*
X145288000Y-102108000D02*
X141732000Y-102108000D01*
X148590000Y-105410000D02*
X145288000Y-102108000D01*
X140208000Y-100584000D02*
X140208000Y-101092000D01*
X141478000Y-99314000D02*
X142748000Y-100584000D01*
X139446000Y-99314000D02*
X141478000Y-99314000D01*
X138938000Y-99822000D02*
X139446000Y-99314000D01*
X138938000Y-101600000D02*
X138938000Y-99822000D01*
X137922000Y-102616000D02*
X138938000Y-101600000D01*
X134112000Y-102616000D02*
X137922000Y-102616000D01*
X132334000Y-104394000D02*
X134112000Y-102616000D01*
X132334000Y-112522000D02*
X132334000Y-104394000D01*
X132588000Y-112776000D02*
X132334000Y-112522000D01*
X134366000Y-112776000D02*
X132588000Y-112776000D01*
X119888000Y-135636000D02*
X136398000Y-119126000D01*
X119380000Y-135636000D02*
X119888000Y-135636000D01*
X114554000Y-140462000D02*
X119380000Y-135636000D01*
X120015000Y-97409000D02*
X120142000Y-97536000D01*
X115443000Y-97409000D02*
X120015000Y-97409000D01*
X108331000Y-98679000D02*
X107696000Y-99314000D01*
X107696000Y-99314000D02*
X107696000Y-110744000D01*
X107696000Y-110744000D02*
X108712000Y-111760000D01*
X108712000Y-111760000D02*
X128270000Y-111760000D01*
X109093000Y-98679000D02*
X108331000Y-98679000D01*
X159766000Y-138938000D02*
X157734000Y-138938000D01*
X109093000Y-97409000D02*
X108077000Y-97409000D01*
X127633602Y-127254000D02*
X127254000Y-127254000D01*
X135382000Y-119505602D02*
X127633602Y-127254000D01*
X135382000Y-118618000D02*
X135382000Y-119505602D01*
X134874000Y-118110000D02*
X135382000Y-118618000D01*
X129540000Y-118110000D02*
X134874000Y-118110000D01*
X128270000Y-116840000D02*
X129540000Y-118110000D01*
X128270000Y-113284000D02*
X128270000Y-116840000D01*
X127508000Y-112522000D02*
X128270000Y-113284000D01*
X108712000Y-112522000D02*
X127508000Y-112522000D01*
X107188000Y-110998000D02*
X108712000Y-112522000D01*
X107188000Y-98298000D02*
X107188000Y-110998000D01*
X108077000Y-97409000D02*
X107188000Y-98298000D01*
D28*
G36*
X146546822Y-124155387D02*
X146702844Y-124532989D01*
X146991492Y-124822140D01*
X147368821Y-124978821D01*
X147395935Y-124978845D01*
X147992000Y-125574910D01*
X147992000Y-133257384D01*
X147973860Y-133275492D01*
X147817179Y-133652821D01*
X147816822Y-134061387D01*
X147972844Y-134438989D01*
X148261492Y-134728140D01*
X148638821Y-134884821D01*
X148754000Y-134884922D01*
X148754000Y-137061090D01*
X147396246Y-138418844D01*
X147370613Y-138418822D01*
X146993011Y-138574844D01*
X146703860Y-138863492D01*
X146547179Y-139240821D01*
X146546822Y-139649387D01*
X146635498Y-139864000D01*
X145796000Y-139864000D01*
X145469954Y-139928855D01*
X145193545Y-140113545D01*
X144431545Y-140875545D01*
X144246855Y-141151954D01*
X144196919Y-141402996D01*
X144017154Y-141518672D01*
X143958168Y-141605000D01*
X143571560Y-141605000D01*
X143525328Y-141533154D01*
X143282385Y-141367157D01*
X142994000Y-141308758D01*
X141994000Y-141308758D01*
X141724590Y-141359451D01*
X141477154Y-141518672D01*
X141418168Y-141605000D01*
X141031560Y-141605000D01*
X140985328Y-141533154D01*
X140806000Y-141410624D01*
X140806000Y-139954000D01*
X140741145Y-139627954D01*
X140556455Y-139351545D01*
X139540455Y-138335545D01*
X139264046Y-138150855D01*
X138938000Y-138086000D01*
X127352910Y-138086000D01*
X127344000Y-138077090D01*
X127344000Y-138020910D01*
X141322910Y-124042000D01*
X146546921Y-124042000D01*
X146546822Y-124155387D01*
X146546822Y-124155387D01*
G37*
X146546822Y-124155387D02*
X146702844Y-124532989D01*
X146991492Y-124822140D01*
X147368821Y-124978821D01*
X147395935Y-124978845D01*
X147992000Y-125574910D01*
X147992000Y-133257384D01*
X147973860Y-133275492D01*
X147817179Y-133652821D01*
X147816822Y-134061387D01*
X147972844Y-134438989D01*
X148261492Y-134728140D01*
X148638821Y-134884821D01*
X148754000Y-134884922D01*
X148754000Y-137061090D01*
X147396246Y-138418844D01*
X147370613Y-138418822D01*
X146993011Y-138574844D01*
X146703860Y-138863492D01*
X146547179Y-139240821D01*
X146546822Y-139649387D01*
X146635498Y-139864000D01*
X145796000Y-139864000D01*
X145469954Y-139928855D01*
X145193545Y-140113545D01*
X144431545Y-140875545D01*
X144246855Y-141151954D01*
X144196919Y-141402996D01*
X144017154Y-141518672D01*
X143958168Y-141605000D01*
X143571560Y-141605000D01*
X143525328Y-141533154D01*
X143282385Y-141367157D01*
X142994000Y-141308758D01*
X141994000Y-141308758D01*
X141724590Y-141359451D01*
X141477154Y-141518672D01*
X141418168Y-141605000D01*
X141031560Y-141605000D01*
X140985328Y-141533154D01*
X140806000Y-141410624D01*
X140806000Y-139954000D01*
X140741145Y-139627954D01*
X140556455Y-139351545D01*
X139540455Y-138335545D01*
X139264046Y-138150855D01*
X138938000Y-138086000D01*
X127352910Y-138086000D01*
X127344000Y-138077090D01*
X127344000Y-138020910D01*
X141322910Y-124042000D01*
X146546921Y-124042000D01*
X146546822Y-124155387D01*
G36*
X178522000Y-138644000D02*
X166624000Y-138644000D01*
X166317088Y-138705049D01*
X166056900Y-138878900D01*
X165883049Y-139139088D01*
X165822000Y-139446000D01*
X165822000Y-139448760D01*
X165819000Y-139445760D01*
X165819000Y-116543000D01*
X170180000Y-116543000D01*
X170649553Y-116449600D01*
X171047620Y-116183620D01*
X173587620Y-113643620D01*
X173679576Y-113505998D01*
X173853600Y-113245553D01*
X173947000Y-112776000D01*
X173947000Y-64008000D01*
X173853600Y-63538447D01*
X173587620Y-63140380D01*
X167999620Y-57552380D01*
X167742518Y-57380590D01*
X167601553Y-57286400D01*
X167132000Y-57193000D01*
X167124142Y-57193000D01*
X167066328Y-57103154D01*
X166823385Y-56937157D01*
X166535000Y-56878758D01*
X164935000Y-56878758D01*
X164665590Y-56929451D01*
X164418154Y-57088672D01*
X164368998Y-57160614D01*
X164351328Y-57133154D01*
X164282144Y-57085882D01*
X164358327Y-57009698D01*
X164455000Y-56776309D01*
X164455000Y-56435750D01*
X164296250Y-56277000D01*
X163322000Y-56277000D01*
X163322000Y-56297000D01*
X163068000Y-56297000D01*
X163068000Y-56277000D01*
X162093750Y-56277000D01*
X161935000Y-56435750D01*
X161935000Y-56776309D01*
X162031673Y-57009698D01*
X162106390Y-57084415D01*
X162053154Y-57118672D01*
X162002367Y-57193000D01*
X151384296Y-57193000D01*
X151109274Y-57009236D01*
X150524916Y-56893000D01*
X150465084Y-56893000D01*
X149880726Y-57009236D01*
X149605704Y-57193000D01*
X141089142Y-57193000D01*
X141031328Y-57103154D01*
X140788385Y-56937157D01*
X140500000Y-56878758D01*
X138900000Y-56878758D01*
X138630590Y-56929451D01*
X138383154Y-57088672D01*
X138333998Y-57160614D01*
X138316328Y-57133154D01*
X138247144Y-57085882D01*
X138323327Y-57009698D01*
X138420000Y-56776309D01*
X138420000Y-56435750D01*
X138261250Y-56277000D01*
X137287000Y-56277000D01*
X137287000Y-56297000D01*
X137033000Y-56297000D01*
X137033000Y-56277000D01*
X136058750Y-56277000D01*
X135900000Y-56435750D01*
X135900000Y-56776309D01*
X135996673Y-57009698D01*
X136071390Y-57084415D01*
X136018154Y-57118672D01*
X135967367Y-57193000D01*
X125349296Y-57193000D01*
X125074274Y-57009236D01*
X124489916Y-56893000D01*
X124430084Y-56893000D01*
X123845726Y-57009236D01*
X123350332Y-57340248D01*
X123019320Y-57835642D01*
X122903084Y-58420000D01*
X123019320Y-59004358D01*
X123350332Y-59499752D01*
X123635058Y-59690000D01*
X123350332Y-59880248D01*
X123198153Y-60108000D01*
X121666000Y-60108000D01*
X121339954Y-60172855D01*
X121063545Y-60357545D01*
X120047545Y-61373545D01*
X119862855Y-61649954D01*
X119798000Y-61976000D01*
X119798000Y-72632921D01*
X119684613Y-72632822D01*
X119307011Y-72788844D01*
X119017860Y-73077492D01*
X118861179Y-73454821D01*
X118860822Y-73863387D01*
X119016844Y-74240989D01*
X119290000Y-74514621D01*
X119290000Y-77712921D01*
X119176613Y-77712822D01*
X118799011Y-77868844D01*
X118509860Y-78157492D01*
X118353179Y-78534821D01*
X118353155Y-78561935D01*
X118015545Y-78899545D01*
X117830855Y-79175954D01*
X117766000Y-79502000D01*
X117766000Y-80264000D01*
X117830855Y-80590046D01*
X118015545Y-80866455D01*
X118274000Y-81124910D01*
X118274000Y-87794000D01*
X114300000Y-87794000D01*
X113973953Y-87858855D01*
X113697545Y-88043545D01*
X112452161Y-89288929D01*
X112479000Y-89154000D01*
X112385600Y-88684448D01*
X112119620Y-88286380D01*
X111721552Y-88020400D01*
X111252000Y-87927000D01*
X111171563Y-87943000D01*
X106740330Y-87943000D01*
X106670000Y-87928758D01*
X105420000Y-87928758D01*
X105344310Y-87943000D01*
X103895221Y-87943000D01*
X103850549Y-87705590D01*
X103691328Y-87458154D01*
X103448385Y-87292157D01*
X103160000Y-87233758D01*
X101310000Y-87233758D01*
X101040590Y-87284451D01*
X100793154Y-87443672D01*
X100627157Y-87686615D01*
X100568758Y-87975000D01*
X100568758Y-89825000D01*
X100619451Y-90094410D01*
X100778672Y-90341846D01*
X101021615Y-90507843D01*
X101045829Y-90512746D01*
X100877668Y-90570821D01*
X100663675Y-91153368D01*
X100688903Y-91773461D01*
X100877668Y-92229179D01*
X101136744Y-92318651D01*
X102055395Y-91400000D01*
X102041253Y-91385858D01*
X102220858Y-91206253D01*
X102235000Y-91220395D01*
X102249143Y-91206253D01*
X102428748Y-91385858D01*
X102414605Y-91400000D01*
X103333256Y-92318651D01*
X103592332Y-92229179D01*
X103806325Y-91646632D01*
X103798560Y-91455750D01*
X104785000Y-91455750D01*
X104785000Y-91796309D01*
X104881673Y-92029698D01*
X105060301Y-92208327D01*
X105293690Y-92305000D01*
X105759250Y-92305000D01*
X105918000Y-92146250D01*
X105918000Y-91297000D01*
X106172000Y-91297000D01*
X106172000Y-92146250D01*
X106330750Y-92305000D01*
X106796310Y-92305000D01*
X107029699Y-92208327D01*
X107208327Y-92029698D01*
X107305000Y-91796309D01*
X107305000Y-91455750D01*
X107146250Y-91297000D01*
X106172000Y-91297000D01*
X105918000Y-91297000D01*
X104943750Y-91297000D01*
X104785000Y-91455750D01*
X103798560Y-91455750D01*
X103781097Y-91026539D01*
X103592332Y-90570821D01*
X103430414Y-90514903D01*
X103613640Y-90397000D01*
X104845761Y-90397000D01*
X104785000Y-90543691D01*
X104785000Y-90884250D01*
X104943750Y-91043000D01*
X105918000Y-91043000D01*
X105918000Y-91023000D01*
X106172000Y-91023000D01*
X106172000Y-91043000D01*
X107146250Y-91043000D01*
X107305000Y-90884250D01*
X107305000Y-90543691D01*
X107244239Y-90397000D01*
X111236000Y-90397000D01*
X111705553Y-90303600D01*
X111926836Y-90155743D01*
X111924000Y-90170000D01*
X111924000Y-100993090D01*
X111280090Y-101637000D01*
X110372531Y-101637000D01*
X110405742Y-101473000D01*
X110405742Y-100965000D01*
X110355049Y-100695590D01*
X110283640Y-100584617D01*
X110347343Y-100491385D01*
X110405742Y-100203000D01*
X110405742Y-99695000D01*
X110355049Y-99425590D01*
X110283640Y-99314617D01*
X110347343Y-99221385D01*
X110405742Y-98933000D01*
X110405742Y-98425000D01*
X110355049Y-98155590D01*
X110283640Y-98044617D01*
X110347343Y-97951385D01*
X110405742Y-97663000D01*
X110405742Y-97155000D01*
X110355049Y-96885590D01*
X110228951Y-96689629D01*
X110299500Y-96519309D01*
X110299500Y-96424750D01*
X110140750Y-96266000D01*
X109220000Y-96266000D01*
X109220000Y-96286000D01*
X108966000Y-96286000D01*
X108966000Y-96266000D01*
X108045250Y-96266000D01*
X107886500Y-96424750D01*
X107886500Y-96519309D01*
X107915425Y-96589140D01*
X107750954Y-96621855D01*
X107474545Y-96806545D01*
X106585545Y-97695545D01*
X106400855Y-97971954D01*
X106336000Y-98298000D01*
X106336000Y-110998000D01*
X106400855Y-111324046D01*
X106585545Y-111600455D01*
X108109545Y-113124455D01*
X108385953Y-113309145D01*
X108712000Y-113374000D01*
X127155090Y-113374000D01*
X127418000Y-113636910D01*
X127418000Y-116840000D01*
X127482855Y-117166046D01*
X127667545Y-117442455D01*
X128937545Y-118712455D01*
X129213954Y-118897145D01*
X129540000Y-118962000D01*
X134521090Y-118962000D01*
X134530000Y-118970910D01*
X134530000Y-119152692D01*
X127455516Y-126227176D01*
X127050613Y-126226822D01*
X126673011Y-126382844D01*
X126383860Y-126671492D01*
X126227179Y-127048821D01*
X126226822Y-127457387D01*
X126382844Y-127834989D01*
X126433428Y-127885662D01*
X119535090Y-134784000D01*
X119380000Y-134784000D01*
X119053954Y-134848855D01*
X118777545Y-135033545D01*
X114376246Y-139434844D01*
X114350613Y-139434822D01*
X113973011Y-139590844D01*
X113683860Y-139879492D01*
X113527179Y-140256821D01*
X113526822Y-140665387D01*
X113682844Y-141042989D01*
X113878452Y-141238937D01*
X113799845Y-141356581D01*
X113784590Y-141359451D01*
X113537154Y-141518672D01*
X113478168Y-141605000D01*
X112967026Y-141605000D01*
X112873698Y-141511673D01*
X112640309Y-141415000D01*
X112299750Y-141415000D01*
X112141000Y-141573750D01*
X112141000Y-141605000D01*
X111887000Y-141605000D01*
X111887000Y-141573750D01*
X111728250Y-141415000D01*
X111546000Y-141415000D01*
X111546000Y-139446000D01*
X111484951Y-139139088D01*
X111311100Y-138878900D01*
X111050912Y-138705049D01*
X110744000Y-138644000D01*
X98846000Y-138644000D01*
X98846000Y-95758691D01*
X107886500Y-95758691D01*
X107886500Y-95853250D01*
X108045250Y-96012000D01*
X108966000Y-96012000D01*
X108966000Y-95408750D01*
X109220000Y-95408750D01*
X109220000Y-96012000D01*
X110140750Y-96012000D01*
X110299500Y-95853250D01*
X110299500Y-95758691D01*
X110202827Y-95525302D01*
X110024199Y-95346673D01*
X109790810Y-95250000D01*
X109378750Y-95250000D01*
X109220000Y-95408750D01*
X108966000Y-95408750D01*
X108807250Y-95250000D01*
X108395190Y-95250000D01*
X108161801Y-95346673D01*
X107983173Y-95525302D01*
X107886500Y-95758691D01*
X98846000Y-95758691D01*
X98846000Y-92498256D01*
X101316349Y-92498256D01*
X101405821Y-92757332D01*
X101988368Y-92971325D01*
X102608461Y-92946097D01*
X103064179Y-92757332D01*
X103153651Y-92498256D01*
X102235000Y-91579605D01*
X101316349Y-92498256D01*
X98846000Y-92498256D01*
X98846000Y-82893256D01*
X101316349Y-82893256D01*
X101405821Y-83152332D01*
X101988368Y-83366325D01*
X102608461Y-83341097D01*
X103064179Y-83152332D01*
X103153651Y-82893256D01*
X102235000Y-81974605D01*
X101316349Y-82893256D01*
X98846000Y-82893256D01*
X98846000Y-81548368D01*
X100663675Y-81548368D01*
X100688903Y-82168461D01*
X100877668Y-82624179D01*
X101136744Y-82713651D01*
X102055395Y-81795000D01*
X102414605Y-81795000D01*
X103333256Y-82713651D01*
X103592332Y-82624179D01*
X103806325Y-82041632D01*
X103781097Y-81421539D01*
X103592332Y-80965821D01*
X103333256Y-80876349D01*
X102414605Y-81795000D01*
X102055395Y-81795000D01*
X101136744Y-80876349D01*
X100877668Y-80965821D01*
X100663675Y-81548368D01*
X98846000Y-81548368D01*
X98846000Y-73370000D01*
X100568758Y-73370000D01*
X100568758Y-75220000D01*
X100619451Y-75489410D01*
X100778672Y-75736846D01*
X100884348Y-75809052D01*
X100835319Y-75857995D01*
X100583287Y-76464955D01*
X100582713Y-77122162D01*
X100833686Y-77729561D01*
X101148718Y-78045143D01*
X100835319Y-78357995D01*
X100583287Y-78964955D01*
X100582713Y-79622162D01*
X100833686Y-80229561D01*
X101297995Y-80694681D01*
X101325854Y-80706249D01*
X102235000Y-81615395D01*
X103143181Y-80707214D01*
X103169561Y-80696314D01*
X103634681Y-80232005D01*
X103669978Y-80147000D01*
X107649000Y-80147000D01*
X107975046Y-80082145D01*
X108251455Y-79897455D01*
X109076455Y-79072455D01*
X109261145Y-78796046D01*
X109326000Y-78470000D01*
X109326000Y-77734871D01*
X109677387Y-77735178D01*
X110054989Y-77579156D01*
X110344140Y-77290508D01*
X110500821Y-76913179D01*
X110501178Y-76504613D01*
X110345156Y-76127011D01*
X110056508Y-75837860D01*
X109818000Y-75738823D01*
X109818000Y-75195079D01*
X109931387Y-75195178D01*
X110308989Y-75039156D01*
X110598140Y-74750508D01*
X110754821Y-74373179D01*
X110755178Y-73964613D01*
X110599156Y-73587011D01*
X110326000Y-73313379D01*
X110326000Y-58772910D01*
X113347668Y-55751242D01*
X113534000Y-55751242D01*
X113803410Y-55700549D01*
X114050846Y-55541328D01*
X114062896Y-55523691D01*
X135900000Y-55523691D01*
X135900000Y-55864250D01*
X136058750Y-56023000D01*
X137033000Y-56023000D01*
X137033000Y-55173750D01*
X137287000Y-55173750D01*
X137287000Y-56023000D01*
X138261250Y-56023000D01*
X138420000Y-55864250D01*
X138420000Y-55523691D01*
X161935000Y-55523691D01*
X161935000Y-55864250D01*
X162093750Y-56023000D01*
X163068000Y-56023000D01*
X163068000Y-55173750D01*
X163322000Y-55173750D01*
X163322000Y-56023000D01*
X164296250Y-56023000D01*
X164455000Y-55864250D01*
X164455000Y-55523691D01*
X164358327Y-55290302D01*
X164179699Y-55111673D01*
X163946310Y-55015000D01*
X163480750Y-55015000D01*
X163322000Y-55173750D01*
X163068000Y-55173750D01*
X162909250Y-55015000D01*
X162443690Y-55015000D01*
X162210301Y-55111673D01*
X162031673Y-55290302D01*
X161935000Y-55523691D01*
X138420000Y-55523691D01*
X138323327Y-55290302D01*
X138144699Y-55111673D01*
X137911310Y-55015000D01*
X137445750Y-55015000D01*
X137287000Y-55173750D01*
X137033000Y-55173750D01*
X136874250Y-55015000D01*
X136408690Y-55015000D01*
X136175301Y-55111673D01*
X135996673Y-55290302D01*
X135900000Y-55523691D01*
X114062896Y-55523691D01*
X114216843Y-55298385D01*
X114275242Y-55010000D01*
X114275242Y-52130000D01*
X114224549Y-51860590D01*
X114065328Y-51613154D01*
X113822385Y-51447157D01*
X113806648Y-51443970D01*
X114709635Y-51443970D01*
X114869418Y-51762739D01*
X115660187Y-52072723D01*
X116509387Y-52056497D01*
X117218582Y-51762739D01*
X117378365Y-51443970D01*
X116044000Y-50109605D01*
X114709635Y-51443970D01*
X113806648Y-51443970D01*
X113534000Y-51388758D01*
X112414000Y-51388758D01*
X112144590Y-51439451D01*
X111897154Y-51598672D01*
X111731157Y-51841615D01*
X111725881Y-51867669D01*
X111724549Y-51860590D01*
X111565328Y-51613154D01*
X111322385Y-51447157D01*
X111034000Y-51388758D01*
X109914000Y-51388758D01*
X109644590Y-51439451D01*
X109472848Y-51549964D01*
X109322385Y-51447157D01*
X109034000Y-51388758D01*
X107914000Y-51388758D01*
X107644590Y-51439451D01*
X107397154Y-51598672D01*
X107231157Y-51841615D01*
X107172758Y-52130000D01*
X107172758Y-55010000D01*
X107223451Y-55279410D01*
X107382672Y-55526846D01*
X107622000Y-55690373D01*
X107622000Y-78117090D01*
X107296090Y-78443000D01*
X103670428Y-78443000D01*
X103636314Y-78360439D01*
X103321282Y-78044857D01*
X103634681Y-77732005D01*
X103886713Y-77125045D01*
X103887287Y-76467838D01*
X103636314Y-75860439D01*
X103585847Y-75809884D01*
X103676846Y-75751328D01*
X103842843Y-75508385D01*
X103901242Y-75220000D01*
X103901242Y-73370000D01*
X103850549Y-73100590D01*
X103691328Y-72853154D01*
X103448385Y-72687157D01*
X103160000Y-72628758D01*
X101310000Y-72628758D01*
X101040590Y-72679451D01*
X100793154Y-72838672D01*
X100627157Y-73081615D01*
X100568758Y-73370000D01*
X98846000Y-73370000D01*
X98846000Y-53855750D01*
X104779000Y-53855750D01*
X104779000Y-55136310D01*
X104875673Y-55369699D01*
X105054302Y-55548327D01*
X105287691Y-55645000D01*
X105688250Y-55645000D01*
X105847000Y-55486250D01*
X105847000Y-53697000D01*
X106101000Y-53697000D01*
X106101000Y-55486250D01*
X106259750Y-55645000D01*
X106660309Y-55645000D01*
X106893698Y-55548327D01*
X107072327Y-55369699D01*
X107169000Y-55136310D01*
X107169000Y-53855750D01*
X107010250Y-53697000D01*
X106101000Y-53697000D01*
X105847000Y-53697000D01*
X104937750Y-53697000D01*
X104779000Y-53855750D01*
X98846000Y-53855750D01*
X98846000Y-51443970D01*
X101569635Y-51443970D01*
X101729418Y-51762739D01*
X102520187Y-52072723D01*
X103369387Y-52056497D01*
X103496874Y-52003690D01*
X104779000Y-52003690D01*
X104779000Y-53284250D01*
X104937750Y-53443000D01*
X105847000Y-53443000D01*
X105847000Y-51653750D01*
X106101000Y-51653750D01*
X106101000Y-53443000D01*
X107010250Y-53443000D01*
X107169000Y-53284250D01*
X107169000Y-52003690D01*
X107072327Y-51770301D01*
X106893698Y-51591673D01*
X106660309Y-51495000D01*
X106259750Y-51495000D01*
X106101000Y-51653750D01*
X105847000Y-51653750D01*
X105688250Y-51495000D01*
X105287691Y-51495000D01*
X105054302Y-51591673D01*
X104875673Y-51770301D01*
X104779000Y-52003690D01*
X103496874Y-52003690D01*
X104078582Y-51762739D01*
X104238365Y-51443970D01*
X102904000Y-50109605D01*
X101569635Y-51443970D01*
X98846000Y-51443970D01*
X98846000Y-49546187D01*
X100761277Y-49546187D01*
X100777503Y-50395387D01*
X101071261Y-51104582D01*
X101390030Y-51264365D01*
X102724395Y-49930000D01*
X103083605Y-49930000D01*
X104417970Y-51264365D01*
X104736739Y-51104582D01*
X105046723Y-50313813D01*
X105032056Y-49546187D01*
X113901277Y-49546187D01*
X113917503Y-50395387D01*
X114211261Y-51104582D01*
X114530030Y-51264365D01*
X115864395Y-49930000D01*
X116223605Y-49930000D01*
X117557970Y-51264365D01*
X117876739Y-51104582D01*
X118186723Y-50313813D01*
X118185406Y-50244838D01*
X122640597Y-50244838D01*
X122994115Y-51100418D01*
X123648139Y-51755585D01*
X124503100Y-52110596D01*
X125428838Y-52111403D01*
X126284418Y-51757885D01*
X126939585Y-51103861D01*
X127294596Y-50248900D01*
X127294599Y-50244838D01*
X162772597Y-50244838D01*
X163126115Y-51100418D01*
X163780139Y-51755585D01*
X164635100Y-52110596D01*
X165560838Y-52111403D01*
X166416418Y-51757885D01*
X167071585Y-51103861D01*
X167426596Y-50248900D01*
X167427403Y-49323162D01*
X167073885Y-48467582D01*
X166419861Y-47812415D01*
X165564900Y-47457404D01*
X164639162Y-47456597D01*
X163783582Y-47810115D01*
X163128415Y-48464139D01*
X162773404Y-49319100D01*
X162772597Y-50244838D01*
X127294599Y-50244838D01*
X127295403Y-49323162D01*
X126941885Y-48467582D01*
X126287861Y-47812415D01*
X125432900Y-47457404D01*
X124507162Y-47456597D01*
X123651582Y-47810115D01*
X122996415Y-48464139D01*
X122641404Y-49319100D01*
X122640597Y-50244838D01*
X118185406Y-50244838D01*
X118170497Y-49464613D01*
X117876739Y-48755418D01*
X117557970Y-48595635D01*
X116223605Y-49930000D01*
X115864395Y-49930000D01*
X114530030Y-48595635D01*
X114211261Y-48755418D01*
X113901277Y-49546187D01*
X105032056Y-49546187D01*
X105030497Y-49464613D01*
X104736739Y-48755418D01*
X104417970Y-48595635D01*
X103083605Y-49930000D01*
X102724395Y-49930000D01*
X101390030Y-48595635D01*
X101071261Y-48755418D01*
X100761277Y-49546187D01*
X98846000Y-49546187D01*
X98846000Y-48416030D01*
X101569635Y-48416030D01*
X102904000Y-49750395D01*
X104238365Y-48416030D01*
X114709635Y-48416030D01*
X116044000Y-49750395D01*
X117378365Y-48416030D01*
X117218582Y-48097261D01*
X116427813Y-47787277D01*
X115578613Y-47803503D01*
X114869418Y-48097261D01*
X114709635Y-48416030D01*
X104238365Y-48416030D01*
X104078582Y-48097261D01*
X103287813Y-47787277D01*
X102438613Y-47803503D01*
X101729418Y-48097261D01*
X101569635Y-48416030D01*
X98846000Y-48416030D01*
X98846000Y-46522000D01*
X178522000Y-46522000D01*
X178522000Y-138644000D01*
X178522000Y-138644000D01*
G37*
X178522000Y-138644000D02*
X166624000Y-138644000D01*
X166317088Y-138705049D01*
X166056900Y-138878900D01*
X165883049Y-139139088D01*
X165822000Y-139446000D01*
X165822000Y-139448760D01*
X165819000Y-139445760D01*
X165819000Y-116543000D01*
X170180000Y-116543000D01*
X170649553Y-116449600D01*
X171047620Y-116183620D01*
X173587620Y-113643620D01*
X173679576Y-113505998D01*
X173853600Y-113245553D01*
X173947000Y-112776000D01*
X173947000Y-64008000D01*
X173853600Y-63538447D01*
X173587620Y-63140380D01*
X167999620Y-57552380D01*
X167742518Y-57380590D01*
X167601553Y-57286400D01*
X167132000Y-57193000D01*
X167124142Y-57193000D01*
X167066328Y-57103154D01*
X166823385Y-56937157D01*
X166535000Y-56878758D01*
X164935000Y-56878758D01*
X164665590Y-56929451D01*
X164418154Y-57088672D01*
X164368998Y-57160614D01*
X164351328Y-57133154D01*
X164282144Y-57085882D01*
X164358327Y-57009698D01*
X164455000Y-56776309D01*
X164455000Y-56435750D01*
X164296250Y-56277000D01*
X163322000Y-56277000D01*
X163322000Y-56297000D01*
X163068000Y-56297000D01*
X163068000Y-56277000D01*
X162093750Y-56277000D01*
X161935000Y-56435750D01*
X161935000Y-56776309D01*
X162031673Y-57009698D01*
X162106390Y-57084415D01*
X162053154Y-57118672D01*
X162002367Y-57193000D01*
X151384296Y-57193000D01*
X151109274Y-57009236D01*
X150524916Y-56893000D01*
X150465084Y-56893000D01*
X149880726Y-57009236D01*
X149605704Y-57193000D01*
X141089142Y-57193000D01*
X141031328Y-57103154D01*
X140788385Y-56937157D01*
X140500000Y-56878758D01*
X138900000Y-56878758D01*
X138630590Y-56929451D01*
X138383154Y-57088672D01*
X138333998Y-57160614D01*
X138316328Y-57133154D01*
X138247144Y-57085882D01*
X138323327Y-57009698D01*
X138420000Y-56776309D01*
X138420000Y-56435750D01*
X138261250Y-56277000D01*
X137287000Y-56277000D01*
X137287000Y-56297000D01*
X137033000Y-56297000D01*
X137033000Y-56277000D01*
X136058750Y-56277000D01*
X135900000Y-56435750D01*
X135900000Y-56776309D01*
X135996673Y-57009698D01*
X136071390Y-57084415D01*
X136018154Y-57118672D01*
X135967367Y-57193000D01*
X125349296Y-57193000D01*
X125074274Y-57009236D01*
X124489916Y-56893000D01*
X124430084Y-56893000D01*
X123845726Y-57009236D01*
X123350332Y-57340248D01*
X123019320Y-57835642D01*
X122903084Y-58420000D01*
X123019320Y-59004358D01*
X123350332Y-59499752D01*
X123635058Y-59690000D01*
X123350332Y-59880248D01*
X123198153Y-60108000D01*
X121666000Y-60108000D01*
X121339954Y-60172855D01*
X121063545Y-60357545D01*
X120047545Y-61373545D01*
X119862855Y-61649954D01*
X119798000Y-61976000D01*
X119798000Y-72632921D01*
X119684613Y-72632822D01*
X119307011Y-72788844D01*
X119017860Y-73077492D01*
X118861179Y-73454821D01*
X118860822Y-73863387D01*
X119016844Y-74240989D01*
X119290000Y-74514621D01*
X119290000Y-77712921D01*
X119176613Y-77712822D01*
X118799011Y-77868844D01*
X118509860Y-78157492D01*
X118353179Y-78534821D01*
X118353155Y-78561935D01*
X118015545Y-78899545D01*
X117830855Y-79175954D01*
X117766000Y-79502000D01*
X117766000Y-80264000D01*
X117830855Y-80590046D01*
X118015545Y-80866455D01*
X118274000Y-81124910D01*
X118274000Y-87794000D01*
X114300000Y-87794000D01*
X113973953Y-87858855D01*
X113697545Y-88043545D01*
X112452161Y-89288929D01*
X112479000Y-89154000D01*
X112385600Y-88684448D01*
X112119620Y-88286380D01*
X111721552Y-88020400D01*
X111252000Y-87927000D01*
X111171563Y-87943000D01*
X106740330Y-87943000D01*
X106670000Y-87928758D01*
X105420000Y-87928758D01*
X105344310Y-87943000D01*
X103895221Y-87943000D01*
X103850549Y-87705590D01*
X103691328Y-87458154D01*
X103448385Y-87292157D01*
X103160000Y-87233758D01*
X101310000Y-87233758D01*
X101040590Y-87284451D01*
X100793154Y-87443672D01*
X100627157Y-87686615D01*
X100568758Y-87975000D01*
X100568758Y-89825000D01*
X100619451Y-90094410D01*
X100778672Y-90341846D01*
X101021615Y-90507843D01*
X101045829Y-90512746D01*
X100877668Y-90570821D01*
X100663675Y-91153368D01*
X100688903Y-91773461D01*
X100877668Y-92229179D01*
X101136744Y-92318651D01*
X102055395Y-91400000D01*
X102041253Y-91385858D01*
X102220858Y-91206253D01*
X102235000Y-91220395D01*
X102249143Y-91206253D01*
X102428748Y-91385858D01*
X102414605Y-91400000D01*
X103333256Y-92318651D01*
X103592332Y-92229179D01*
X103806325Y-91646632D01*
X103798560Y-91455750D01*
X104785000Y-91455750D01*
X104785000Y-91796309D01*
X104881673Y-92029698D01*
X105060301Y-92208327D01*
X105293690Y-92305000D01*
X105759250Y-92305000D01*
X105918000Y-92146250D01*
X105918000Y-91297000D01*
X106172000Y-91297000D01*
X106172000Y-92146250D01*
X106330750Y-92305000D01*
X106796310Y-92305000D01*
X107029699Y-92208327D01*
X107208327Y-92029698D01*
X107305000Y-91796309D01*
X107305000Y-91455750D01*
X107146250Y-91297000D01*
X106172000Y-91297000D01*
X105918000Y-91297000D01*
X104943750Y-91297000D01*
X104785000Y-91455750D01*
X103798560Y-91455750D01*
X103781097Y-91026539D01*
X103592332Y-90570821D01*
X103430414Y-90514903D01*
X103613640Y-90397000D01*
X104845761Y-90397000D01*
X104785000Y-90543691D01*
X104785000Y-90884250D01*
X104943750Y-91043000D01*
X105918000Y-91043000D01*
X105918000Y-91023000D01*
X106172000Y-91023000D01*
X106172000Y-91043000D01*
X107146250Y-91043000D01*
X107305000Y-90884250D01*
X107305000Y-90543691D01*
X107244239Y-90397000D01*
X111236000Y-90397000D01*
X111705553Y-90303600D01*
X111926836Y-90155743D01*
X111924000Y-90170000D01*
X111924000Y-100993090D01*
X111280090Y-101637000D01*
X110372531Y-101637000D01*
X110405742Y-101473000D01*
X110405742Y-100965000D01*
X110355049Y-100695590D01*
X110283640Y-100584617D01*
X110347343Y-100491385D01*
X110405742Y-100203000D01*
X110405742Y-99695000D01*
X110355049Y-99425590D01*
X110283640Y-99314617D01*
X110347343Y-99221385D01*
X110405742Y-98933000D01*
X110405742Y-98425000D01*
X110355049Y-98155590D01*
X110283640Y-98044617D01*
X110347343Y-97951385D01*
X110405742Y-97663000D01*
X110405742Y-97155000D01*
X110355049Y-96885590D01*
X110228951Y-96689629D01*
X110299500Y-96519309D01*
X110299500Y-96424750D01*
X110140750Y-96266000D01*
X109220000Y-96266000D01*
X109220000Y-96286000D01*
X108966000Y-96286000D01*
X108966000Y-96266000D01*
X108045250Y-96266000D01*
X107886500Y-96424750D01*
X107886500Y-96519309D01*
X107915425Y-96589140D01*
X107750954Y-96621855D01*
X107474545Y-96806545D01*
X106585545Y-97695545D01*
X106400855Y-97971954D01*
X106336000Y-98298000D01*
X106336000Y-110998000D01*
X106400855Y-111324046D01*
X106585545Y-111600455D01*
X108109545Y-113124455D01*
X108385953Y-113309145D01*
X108712000Y-113374000D01*
X127155090Y-113374000D01*
X127418000Y-113636910D01*
X127418000Y-116840000D01*
X127482855Y-117166046D01*
X127667545Y-117442455D01*
X128937545Y-118712455D01*
X129213954Y-118897145D01*
X129540000Y-118962000D01*
X134521090Y-118962000D01*
X134530000Y-118970910D01*
X134530000Y-119152692D01*
X127455516Y-126227176D01*
X127050613Y-126226822D01*
X126673011Y-126382844D01*
X126383860Y-126671492D01*
X126227179Y-127048821D01*
X126226822Y-127457387D01*
X126382844Y-127834989D01*
X126433428Y-127885662D01*
X119535090Y-134784000D01*
X119380000Y-134784000D01*
X119053954Y-134848855D01*
X118777545Y-135033545D01*
X114376246Y-139434844D01*
X114350613Y-139434822D01*
X113973011Y-139590844D01*
X113683860Y-139879492D01*
X113527179Y-140256821D01*
X113526822Y-140665387D01*
X113682844Y-141042989D01*
X113878452Y-141238937D01*
X113799845Y-141356581D01*
X113784590Y-141359451D01*
X113537154Y-141518672D01*
X113478168Y-141605000D01*
X112967026Y-141605000D01*
X112873698Y-141511673D01*
X112640309Y-141415000D01*
X112299750Y-141415000D01*
X112141000Y-141573750D01*
X112141000Y-141605000D01*
X111887000Y-141605000D01*
X111887000Y-141573750D01*
X111728250Y-141415000D01*
X111546000Y-141415000D01*
X111546000Y-139446000D01*
X111484951Y-139139088D01*
X111311100Y-138878900D01*
X111050912Y-138705049D01*
X110744000Y-138644000D01*
X98846000Y-138644000D01*
X98846000Y-95758691D01*
X107886500Y-95758691D01*
X107886500Y-95853250D01*
X108045250Y-96012000D01*
X108966000Y-96012000D01*
X108966000Y-95408750D01*
X109220000Y-95408750D01*
X109220000Y-96012000D01*
X110140750Y-96012000D01*
X110299500Y-95853250D01*
X110299500Y-95758691D01*
X110202827Y-95525302D01*
X110024199Y-95346673D01*
X109790810Y-95250000D01*
X109378750Y-95250000D01*
X109220000Y-95408750D01*
X108966000Y-95408750D01*
X108807250Y-95250000D01*
X108395190Y-95250000D01*
X108161801Y-95346673D01*
X107983173Y-95525302D01*
X107886500Y-95758691D01*
X98846000Y-95758691D01*
X98846000Y-92498256D01*
X101316349Y-92498256D01*
X101405821Y-92757332D01*
X101988368Y-92971325D01*
X102608461Y-92946097D01*
X103064179Y-92757332D01*
X103153651Y-92498256D01*
X102235000Y-91579605D01*
X101316349Y-92498256D01*
X98846000Y-92498256D01*
X98846000Y-82893256D01*
X101316349Y-82893256D01*
X101405821Y-83152332D01*
X101988368Y-83366325D01*
X102608461Y-83341097D01*
X103064179Y-83152332D01*
X103153651Y-82893256D01*
X102235000Y-81974605D01*
X101316349Y-82893256D01*
X98846000Y-82893256D01*
X98846000Y-81548368D01*
X100663675Y-81548368D01*
X100688903Y-82168461D01*
X100877668Y-82624179D01*
X101136744Y-82713651D01*
X102055395Y-81795000D01*
X102414605Y-81795000D01*
X103333256Y-82713651D01*
X103592332Y-82624179D01*
X103806325Y-82041632D01*
X103781097Y-81421539D01*
X103592332Y-80965821D01*
X103333256Y-80876349D01*
X102414605Y-81795000D01*
X102055395Y-81795000D01*
X101136744Y-80876349D01*
X100877668Y-80965821D01*
X100663675Y-81548368D01*
X98846000Y-81548368D01*
X98846000Y-73370000D01*
X100568758Y-73370000D01*
X100568758Y-75220000D01*
X100619451Y-75489410D01*
X100778672Y-75736846D01*
X100884348Y-75809052D01*
X100835319Y-75857995D01*
X100583287Y-76464955D01*
X100582713Y-77122162D01*
X100833686Y-77729561D01*
X101148718Y-78045143D01*
X100835319Y-78357995D01*
X100583287Y-78964955D01*
X100582713Y-79622162D01*
X100833686Y-80229561D01*
X101297995Y-80694681D01*
X101325854Y-80706249D01*
X102235000Y-81615395D01*
X103143181Y-80707214D01*
X103169561Y-80696314D01*
X103634681Y-80232005D01*
X103669978Y-80147000D01*
X107649000Y-80147000D01*
X107975046Y-80082145D01*
X108251455Y-79897455D01*
X109076455Y-79072455D01*
X109261145Y-78796046D01*
X109326000Y-78470000D01*
X109326000Y-77734871D01*
X109677387Y-77735178D01*
X110054989Y-77579156D01*
X110344140Y-77290508D01*
X110500821Y-76913179D01*
X110501178Y-76504613D01*
X110345156Y-76127011D01*
X110056508Y-75837860D01*
X109818000Y-75738823D01*
X109818000Y-75195079D01*
X109931387Y-75195178D01*
X110308989Y-75039156D01*
X110598140Y-74750508D01*
X110754821Y-74373179D01*
X110755178Y-73964613D01*
X110599156Y-73587011D01*
X110326000Y-73313379D01*
X110326000Y-58772910D01*
X113347668Y-55751242D01*
X113534000Y-55751242D01*
X113803410Y-55700549D01*
X114050846Y-55541328D01*
X114062896Y-55523691D01*
X135900000Y-55523691D01*
X135900000Y-55864250D01*
X136058750Y-56023000D01*
X137033000Y-56023000D01*
X137033000Y-55173750D01*
X137287000Y-55173750D01*
X137287000Y-56023000D01*
X138261250Y-56023000D01*
X138420000Y-55864250D01*
X138420000Y-55523691D01*
X161935000Y-55523691D01*
X161935000Y-55864250D01*
X162093750Y-56023000D01*
X163068000Y-56023000D01*
X163068000Y-55173750D01*
X163322000Y-55173750D01*
X163322000Y-56023000D01*
X164296250Y-56023000D01*
X164455000Y-55864250D01*
X164455000Y-55523691D01*
X164358327Y-55290302D01*
X164179699Y-55111673D01*
X163946310Y-55015000D01*
X163480750Y-55015000D01*
X163322000Y-55173750D01*
X163068000Y-55173750D01*
X162909250Y-55015000D01*
X162443690Y-55015000D01*
X162210301Y-55111673D01*
X162031673Y-55290302D01*
X161935000Y-55523691D01*
X138420000Y-55523691D01*
X138323327Y-55290302D01*
X138144699Y-55111673D01*
X137911310Y-55015000D01*
X137445750Y-55015000D01*
X137287000Y-55173750D01*
X137033000Y-55173750D01*
X136874250Y-55015000D01*
X136408690Y-55015000D01*
X136175301Y-55111673D01*
X135996673Y-55290302D01*
X135900000Y-55523691D01*
X114062896Y-55523691D01*
X114216843Y-55298385D01*
X114275242Y-55010000D01*
X114275242Y-52130000D01*
X114224549Y-51860590D01*
X114065328Y-51613154D01*
X113822385Y-51447157D01*
X113806648Y-51443970D01*
X114709635Y-51443970D01*
X114869418Y-51762739D01*
X115660187Y-52072723D01*
X116509387Y-52056497D01*
X117218582Y-51762739D01*
X117378365Y-51443970D01*
X116044000Y-50109605D01*
X114709635Y-51443970D01*
X113806648Y-51443970D01*
X113534000Y-51388758D01*
X112414000Y-51388758D01*
X112144590Y-51439451D01*
X111897154Y-51598672D01*
X111731157Y-51841615D01*
X111725881Y-51867669D01*
X111724549Y-51860590D01*
X111565328Y-51613154D01*
X111322385Y-51447157D01*
X111034000Y-51388758D01*
X109914000Y-51388758D01*
X109644590Y-51439451D01*
X109472848Y-51549964D01*
X109322385Y-51447157D01*
X109034000Y-51388758D01*
X107914000Y-51388758D01*
X107644590Y-51439451D01*
X107397154Y-51598672D01*
X107231157Y-51841615D01*
X107172758Y-52130000D01*
X107172758Y-55010000D01*
X107223451Y-55279410D01*
X107382672Y-55526846D01*
X107622000Y-55690373D01*
X107622000Y-78117090D01*
X107296090Y-78443000D01*
X103670428Y-78443000D01*
X103636314Y-78360439D01*
X103321282Y-78044857D01*
X103634681Y-77732005D01*
X103886713Y-77125045D01*
X103887287Y-76467838D01*
X103636314Y-75860439D01*
X103585847Y-75809884D01*
X103676846Y-75751328D01*
X103842843Y-75508385D01*
X103901242Y-75220000D01*
X103901242Y-73370000D01*
X103850549Y-73100590D01*
X103691328Y-72853154D01*
X103448385Y-72687157D01*
X103160000Y-72628758D01*
X101310000Y-72628758D01*
X101040590Y-72679451D01*
X100793154Y-72838672D01*
X100627157Y-73081615D01*
X100568758Y-73370000D01*
X98846000Y-73370000D01*
X98846000Y-53855750D01*
X104779000Y-53855750D01*
X104779000Y-55136310D01*
X104875673Y-55369699D01*
X105054302Y-55548327D01*
X105287691Y-55645000D01*
X105688250Y-55645000D01*
X105847000Y-55486250D01*
X105847000Y-53697000D01*
X106101000Y-53697000D01*
X106101000Y-55486250D01*
X106259750Y-55645000D01*
X106660309Y-55645000D01*
X106893698Y-55548327D01*
X107072327Y-55369699D01*
X107169000Y-55136310D01*
X107169000Y-53855750D01*
X107010250Y-53697000D01*
X106101000Y-53697000D01*
X105847000Y-53697000D01*
X104937750Y-53697000D01*
X104779000Y-53855750D01*
X98846000Y-53855750D01*
X98846000Y-51443970D01*
X101569635Y-51443970D01*
X101729418Y-51762739D01*
X102520187Y-52072723D01*
X103369387Y-52056497D01*
X103496874Y-52003690D01*
X104779000Y-52003690D01*
X104779000Y-53284250D01*
X104937750Y-53443000D01*
X105847000Y-53443000D01*
X105847000Y-51653750D01*
X106101000Y-51653750D01*
X106101000Y-53443000D01*
X107010250Y-53443000D01*
X107169000Y-53284250D01*
X107169000Y-52003690D01*
X107072327Y-51770301D01*
X106893698Y-51591673D01*
X106660309Y-51495000D01*
X106259750Y-51495000D01*
X106101000Y-51653750D01*
X105847000Y-51653750D01*
X105688250Y-51495000D01*
X105287691Y-51495000D01*
X105054302Y-51591673D01*
X104875673Y-51770301D01*
X104779000Y-52003690D01*
X103496874Y-52003690D01*
X104078582Y-51762739D01*
X104238365Y-51443970D01*
X102904000Y-50109605D01*
X101569635Y-51443970D01*
X98846000Y-51443970D01*
X98846000Y-49546187D01*
X100761277Y-49546187D01*
X100777503Y-50395387D01*
X101071261Y-51104582D01*
X101390030Y-51264365D01*
X102724395Y-49930000D01*
X103083605Y-49930000D01*
X104417970Y-51264365D01*
X104736739Y-51104582D01*
X105046723Y-50313813D01*
X105032056Y-49546187D01*
X113901277Y-49546187D01*
X113917503Y-50395387D01*
X114211261Y-51104582D01*
X114530030Y-51264365D01*
X115864395Y-49930000D01*
X116223605Y-49930000D01*
X117557970Y-51264365D01*
X117876739Y-51104582D01*
X118186723Y-50313813D01*
X118185406Y-50244838D01*
X122640597Y-50244838D01*
X122994115Y-51100418D01*
X123648139Y-51755585D01*
X124503100Y-52110596D01*
X125428838Y-52111403D01*
X126284418Y-51757885D01*
X126939585Y-51103861D01*
X127294596Y-50248900D01*
X127294599Y-50244838D01*
X162772597Y-50244838D01*
X163126115Y-51100418D01*
X163780139Y-51755585D01*
X164635100Y-52110596D01*
X165560838Y-52111403D01*
X166416418Y-51757885D01*
X167071585Y-51103861D01*
X167426596Y-50248900D01*
X167427403Y-49323162D01*
X167073885Y-48467582D01*
X166419861Y-47812415D01*
X165564900Y-47457404D01*
X164639162Y-47456597D01*
X163783582Y-47810115D01*
X163128415Y-48464139D01*
X162773404Y-49319100D01*
X162772597Y-50244838D01*
X127294599Y-50244838D01*
X127295403Y-49323162D01*
X126941885Y-48467582D01*
X126287861Y-47812415D01*
X125432900Y-47457404D01*
X124507162Y-47456597D01*
X123651582Y-47810115D01*
X122996415Y-48464139D01*
X122641404Y-49319100D01*
X122640597Y-50244838D01*
X118185406Y-50244838D01*
X118170497Y-49464613D01*
X117876739Y-48755418D01*
X117557970Y-48595635D01*
X116223605Y-49930000D01*
X115864395Y-49930000D01*
X114530030Y-48595635D01*
X114211261Y-48755418D01*
X113901277Y-49546187D01*
X105032056Y-49546187D01*
X105030497Y-49464613D01*
X104736739Y-48755418D01*
X104417970Y-48595635D01*
X103083605Y-49930000D01*
X102724395Y-49930000D01*
X101390030Y-48595635D01*
X101071261Y-48755418D01*
X100761277Y-49546187D01*
X98846000Y-49546187D01*
X98846000Y-48416030D01*
X101569635Y-48416030D01*
X102904000Y-49750395D01*
X104238365Y-48416030D01*
X114709635Y-48416030D01*
X116044000Y-49750395D01*
X117378365Y-48416030D01*
X117218582Y-48097261D01*
X116427813Y-47787277D01*
X115578613Y-47803503D01*
X114869418Y-48097261D01*
X114709635Y-48416030D01*
X104238365Y-48416030D01*
X104078582Y-48097261D01*
X103287813Y-47787277D01*
X102438613Y-47803503D01*
X101729418Y-48097261D01*
X101569635Y-48416030D01*
X98846000Y-48416030D01*
X98846000Y-46522000D01*
X178522000Y-46522000D01*
X178522000Y-138644000D01*
G36*
X163365000Y-139954000D02*
X163458400Y-140423553D01*
X163701947Y-140788046D01*
X163724380Y-140821620D01*
X164127000Y-141224240D01*
X164127000Y-141605000D01*
X163891560Y-141605000D01*
X163845328Y-141533154D01*
X163602385Y-141367157D01*
X163314000Y-141308758D01*
X162579668Y-141308758D01*
X160681699Y-139410789D01*
X160792821Y-139143179D01*
X160793178Y-138734613D01*
X160637156Y-138357011D01*
X160348508Y-138067860D01*
X159971179Y-137911179D01*
X159562613Y-137910822D01*
X159185011Y-138066844D01*
X159165822Y-138086000D01*
X158334616Y-138086000D01*
X158316508Y-138067860D01*
X157939179Y-137911179D01*
X157530613Y-137910822D01*
X157153011Y-138066844D01*
X157062000Y-138157697D01*
X157062000Y-132178910D01*
X158336455Y-130904455D01*
X158521145Y-130628047D01*
X158586000Y-130302000D01*
X158586000Y-128876910D01*
X158594910Y-128868000D01*
X159673384Y-128868000D01*
X159691492Y-128886140D01*
X160068821Y-129042821D01*
X160477387Y-129043178D01*
X160854989Y-128887156D01*
X161144140Y-128598508D01*
X161300821Y-128221179D01*
X161300968Y-128053294D01*
X161362046Y-128041145D01*
X161638455Y-127856455D01*
X163365000Y-126129910D01*
X163365000Y-139954000D01*
X163365000Y-139954000D01*
G37*
X163365000Y-139954000D02*
X163458400Y-140423553D01*
X163701947Y-140788046D01*
X163724380Y-140821620D01*
X164127000Y-141224240D01*
X164127000Y-141605000D01*
X163891560Y-141605000D01*
X163845328Y-141533154D01*
X163602385Y-141367157D01*
X163314000Y-141308758D01*
X162579668Y-141308758D01*
X160681699Y-139410789D01*
X160792821Y-139143179D01*
X160793178Y-138734613D01*
X160637156Y-138357011D01*
X160348508Y-138067860D01*
X159971179Y-137911179D01*
X159562613Y-137910822D01*
X159185011Y-138066844D01*
X159165822Y-138086000D01*
X158334616Y-138086000D01*
X158316508Y-138067860D01*
X157939179Y-137911179D01*
X157530613Y-137910822D01*
X157153011Y-138066844D01*
X157062000Y-138157697D01*
X157062000Y-132178910D01*
X158336455Y-130904455D01*
X158521145Y-130628047D01*
X158586000Y-130302000D01*
X158586000Y-128876910D01*
X158594910Y-128868000D01*
X159673384Y-128868000D01*
X159691492Y-128886140D01*
X160068821Y-129042821D01*
X160477387Y-129043178D01*
X160854989Y-128887156D01*
X161144140Y-128598508D01*
X161300821Y-128221179D01*
X161300968Y-128053294D01*
X161362046Y-128041145D01*
X161638455Y-127856455D01*
X163365000Y-126129910D01*
X163365000Y-139954000D01*
G36*
X155575000Y-100457000D02*
X155595000Y-100457000D01*
X155595000Y-100711000D01*
X155575000Y-100711000D01*
X155575000Y-101904155D01*
X155804890Y-102025476D01*
X155866000Y-102000165D01*
X155866000Y-103533090D01*
X155861545Y-103537545D01*
X155676855Y-103813954D01*
X155612000Y-104140000D01*
X155612000Y-118773090D01*
X155603090Y-118782000D01*
X155205079Y-118782000D01*
X155205178Y-118668613D01*
X155049156Y-118291011D01*
X155030000Y-118271822D01*
X155030000Y-102000165D01*
X155091110Y-102025476D01*
X155321000Y-101904155D01*
X155321000Y-100711000D01*
X155301000Y-100711000D01*
X155301000Y-100457000D01*
X155321000Y-100457000D01*
X155321000Y-100437000D01*
X155575000Y-100437000D01*
X155575000Y-100457000D01*
X155575000Y-100457000D01*
G37*
X155575000Y-100457000D02*
X155595000Y-100457000D01*
X155595000Y-100711000D01*
X155575000Y-100711000D01*
X155575000Y-101904155D01*
X155804890Y-102025476D01*
X155866000Y-102000165D01*
X155866000Y-103533090D01*
X155861545Y-103537545D01*
X155676855Y-103813954D01*
X155612000Y-104140000D01*
X155612000Y-118773090D01*
X155603090Y-118782000D01*
X155205079Y-118782000D01*
X155205178Y-118668613D01*
X155049156Y-118291011D01*
X155030000Y-118271822D01*
X155030000Y-102000165D01*
X155091110Y-102025476D01*
X155321000Y-101904155D01*
X155321000Y-100711000D01*
X155301000Y-100711000D01*
X155301000Y-100457000D01*
X155321000Y-100457000D01*
X155321000Y-100437000D01*
X155575000Y-100437000D01*
X155575000Y-100457000D01*
G36*
X140208000Y-102191895D02*
X140544125Y-102125035D01*
X141129545Y-102710455D01*
X141405953Y-102895145D01*
X141732000Y-102960000D01*
X144935090Y-102960000D01*
X147738000Y-105762910D01*
X147738000Y-115731384D01*
X147719860Y-115749492D01*
X147563179Y-116126821D01*
X147562856Y-116496000D01*
X140560910Y-116496000D01*
X140048455Y-115983545D01*
X139772046Y-115798855D01*
X139446000Y-115734000D01*
X138441079Y-115734000D01*
X138441178Y-115620613D01*
X138285156Y-115243011D01*
X137996508Y-114953860D01*
X137660963Y-114814529D01*
X137523156Y-114481011D01*
X137234508Y-114191860D01*
X136898963Y-114052529D01*
X136761156Y-113719011D01*
X136472508Y-113429860D01*
X136136963Y-113290529D01*
X135999156Y-112957011D01*
X135710508Y-112667860D01*
X135374963Y-112528529D01*
X135237156Y-112195011D01*
X134948508Y-111905860D01*
X134571179Y-111749179D01*
X134162613Y-111748822D01*
X133785011Y-111904844D01*
X133765822Y-111924000D01*
X133186000Y-111924000D01*
X133186000Y-104746910D01*
X134464910Y-103468000D01*
X137922000Y-103468000D01*
X138248046Y-103403145D01*
X138524455Y-103218455D01*
X139540455Y-102202455D01*
X139624997Y-102075929D01*
X140208000Y-102191895D01*
X140208000Y-102191895D01*
G37*
X140208000Y-102191895D02*
X140544125Y-102125035D01*
X141129545Y-102710455D01*
X141405953Y-102895145D01*
X141732000Y-102960000D01*
X144935090Y-102960000D01*
X147738000Y-105762910D01*
X147738000Y-115731384D01*
X147719860Y-115749492D01*
X147563179Y-116126821D01*
X147562856Y-116496000D01*
X140560910Y-116496000D01*
X140048455Y-115983545D01*
X139772046Y-115798855D01*
X139446000Y-115734000D01*
X138441079Y-115734000D01*
X138441178Y-115620613D01*
X138285156Y-115243011D01*
X137996508Y-114953860D01*
X137660963Y-114814529D01*
X137523156Y-114481011D01*
X137234508Y-114191860D01*
X136898963Y-114052529D01*
X136761156Y-113719011D01*
X136472508Y-113429860D01*
X136136963Y-113290529D01*
X135999156Y-112957011D01*
X135710508Y-112667860D01*
X135374963Y-112528529D01*
X135237156Y-112195011D01*
X134948508Y-111905860D01*
X134571179Y-111749179D01*
X134162613Y-111748822D01*
X133785011Y-111904844D01*
X133765822Y-111924000D01*
X133186000Y-111924000D01*
X133186000Y-104746910D01*
X134464910Y-103468000D01*
X137922000Y-103468000D01*
X138248046Y-103403145D01*
X138524455Y-103218455D01*
X139540455Y-102202455D01*
X139624997Y-102075929D01*
X140208000Y-102191895D01*
G36*
X168058000Y-77314910D02*
X168058000Y-110645090D01*
X168049090Y-110654000D01*
X161544000Y-110654000D01*
X161217954Y-110718855D01*
X160941545Y-110903545D01*
X160872000Y-110973090D01*
X160872000Y-108156838D01*
X162772597Y-108156838D01*
X163126115Y-109012418D01*
X163780139Y-109667585D01*
X164635100Y-110022596D01*
X165560838Y-110023403D01*
X166416418Y-109669885D01*
X167071585Y-109015861D01*
X167426596Y-108160900D01*
X167427403Y-107235162D01*
X167073885Y-106379582D01*
X166419861Y-105724415D01*
X165564900Y-105369404D01*
X164639162Y-105368597D01*
X163783582Y-105722115D01*
X163128415Y-106376139D01*
X162773404Y-107231100D01*
X162772597Y-108156838D01*
X160872000Y-108156838D01*
X160872000Y-106524910D01*
X165271875Y-102125035D01*
X165608000Y-102191895D01*
X166211492Y-102071853D01*
X166723107Y-101730002D01*
X167064958Y-101218387D01*
X167185000Y-100614895D01*
X167185000Y-100553105D01*
X167064958Y-99949613D01*
X166723107Y-99437998D01*
X166537531Y-99314000D01*
X166723107Y-99190002D01*
X167064958Y-98678387D01*
X167185000Y-98074895D01*
X167185000Y-98013105D01*
X167064958Y-97409613D01*
X166723107Y-96897998D01*
X166211492Y-96556147D01*
X165608000Y-96436105D01*
X165004508Y-96556147D01*
X164492893Y-96897998D01*
X164338000Y-97129811D01*
X164183107Y-96897998D01*
X163671492Y-96556147D01*
X163068000Y-96436105D01*
X162464508Y-96556147D01*
X161952893Y-96897998D01*
X161798000Y-97129811D01*
X161643107Y-96897998D01*
X161131492Y-96556147D01*
X160528000Y-96436105D01*
X159924508Y-96556147D01*
X159412893Y-96897998D01*
X159258000Y-97129811D01*
X159103107Y-96897998D01*
X158591492Y-96556147D01*
X157988000Y-96436105D01*
X157384508Y-96556147D01*
X156872893Y-96897998D01*
X156718000Y-97129811D01*
X156563107Y-96897998D01*
X156051492Y-96556147D01*
X155448000Y-96436105D01*
X154844508Y-96556147D01*
X154332893Y-96897998D01*
X154178000Y-97129811D01*
X154023107Y-96897998D01*
X153511492Y-96556147D01*
X152908000Y-96436105D01*
X152304508Y-96556147D01*
X151792893Y-96897998D01*
X151638000Y-97129811D01*
X151483107Y-96897998D01*
X150971492Y-96556147D01*
X150368000Y-96436105D01*
X149764508Y-96556147D01*
X149252893Y-96897998D01*
X149098000Y-97129811D01*
X148943107Y-96897998D01*
X148431492Y-96556147D01*
X147828000Y-96436105D01*
X147224508Y-96556147D01*
X146712893Y-96897998D01*
X146505009Y-97209118D01*
X146483183Y-97162642D01*
X146054924Y-96772355D01*
X145644890Y-96602524D01*
X145415000Y-96723845D01*
X145415000Y-97917000D01*
X145435000Y-97917000D01*
X145435000Y-98171000D01*
X145415000Y-98171000D01*
X145415000Y-98191000D01*
X145161000Y-98191000D01*
X145161000Y-98171000D01*
X142875000Y-98171000D01*
X142875000Y-98191000D01*
X142621000Y-98191000D01*
X142621000Y-98171000D01*
X140335000Y-98171000D01*
X140335000Y-98191000D01*
X140081000Y-98191000D01*
X140081000Y-98171000D01*
X137795000Y-98171000D01*
X137795000Y-98191000D01*
X137541000Y-98191000D01*
X137541000Y-98171000D01*
X135255000Y-98171000D01*
X135255000Y-98191000D01*
X135001000Y-98191000D01*
X135001000Y-98171000D01*
X132715000Y-98171000D01*
X132715000Y-98191000D01*
X132461000Y-98191000D01*
X132461000Y-98171000D01*
X130175000Y-98171000D01*
X130175000Y-98191000D01*
X129921000Y-98191000D01*
X129921000Y-98171000D01*
X127635000Y-98171000D01*
X127635000Y-98191000D01*
X127381000Y-98191000D01*
X127381000Y-98171000D01*
X125095000Y-98171000D01*
X125095000Y-98191000D01*
X124841000Y-98191000D01*
X124841000Y-98171000D01*
X124821000Y-98171000D01*
X124821000Y-97917000D01*
X124841000Y-97917000D01*
X124841000Y-96717750D01*
X125095000Y-96717750D01*
X125095000Y-97917000D01*
X127381000Y-97917000D01*
X127381000Y-96723845D01*
X127635000Y-96723845D01*
X127635000Y-97917000D01*
X129921000Y-97917000D01*
X129921000Y-96723845D01*
X130175000Y-96723845D01*
X130175000Y-97917000D01*
X132461000Y-97917000D01*
X132461000Y-96723845D01*
X132715000Y-96723845D01*
X132715000Y-97917000D01*
X135001000Y-97917000D01*
X135001000Y-96723845D01*
X135255000Y-96723845D01*
X135255000Y-97917000D01*
X137541000Y-97917000D01*
X137541000Y-96723845D01*
X137795000Y-96723845D01*
X137795000Y-97917000D01*
X140081000Y-97917000D01*
X140081000Y-96723845D01*
X140335000Y-96723845D01*
X140335000Y-97917000D01*
X142621000Y-97917000D01*
X142621000Y-96723845D01*
X142875000Y-96723845D01*
X142875000Y-97917000D01*
X145161000Y-97917000D01*
X145161000Y-96723845D01*
X144931110Y-96602524D01*
X144521076Y-96772355D01*
X144092817Y-97162642D01*
X144018000Y-97321954D01*
X143943183Y-97162642D01*
X143514924Y-96772355D01*
X143104890Y-96602524D01*
X142875000Y-96723845D01*
X142621000Y-96723845D01*
X142391110Y-96602524D01*
X141981076Y-96772355D01*
X141552817Y-97162642D01*
X141478000Y-97321954D01*
X141403183Y-97162642D01*
X140974924Y-96772355D01*
X140564890Y-96602524D01*
X140335000Y-96723845D01*
X140081000Y-96723845D01*
X139851110Y-96602524D01*
X139441076Y-96772355D01*
X139012817Y-97162642D01*
X138938000Y-97321954D01*
X138863183Y-97162642D01*
X138434924Y-96772355D01*
X138024890Y-96602524D01*
X137795000Y-96723845D01*
X137541000Y-96723845D01*
X137311110Y-96602524D01*
X136901076Y-96772355D01*
X136472817Y-97162642D01*
X136398000Y-97321954D01*
X136323183Y-97162642D01*
X135894924Y-96772355D01*
X135484890Y-96602524D01*
X135255000Y-96723845D01*
X135001000Y-96723845D01*
X134771110Y-96602524D01*
X134361076Y-96772355D01*
X133932817Y-97162642D01*
X133858000Y-97321954D01*
X133783183Y-97162642D01*
X133354924Y-96772355D01*
X132944890Y-96602524D01*
X132715000Y-96723845D01*
X132461000Y-96723845D01*
X132231110Y-96602524D01*
X131821076Y-96772355D01*
X131392817Y-97162642D01*
X131318000Y-97321954D01*
X131243183Y-97162642D01*
X130814924Y-96772355D01*
X130404890Y-96602524D01*
X130175000Y-96723845D01*
X129921000Y-96723845D01*
X129691110Y-96602524D01*
X129281076Y-96772355D01*
X128852817Y-97162642D01*
X128778000Y-97321954D01*
X128703183Y-97162642D01*
X128274924Y-96772355D01*
X127864890Y-96602524D01*
X127635000Y-96723845D01*
X127381000Y-96723845D01*
X127151110Y-96602524D01*
X126741076Y-96772355D01*
X126443136Y-97043878D01*
X126356327Y-96834302D01*
X126177699Y-96655673D01*
X125944310Y-96559000D01*
X125253750Y-96559000D01*
X125095000Y-96717750D01*
X124841000Y-96717750D01*
X124682250Y-96559000D01*
X123991690Y-96559000D01*
X123758301Y-96655673D01*
X123579673Y-96834302D01*
X123483000Y-97067691D01*
X123483000Y-97758250D01*
X123641748Y-97916998D01*
X123483000Y-97916998D01*
X123483000Y-97954633D01*
X123389046Y-97891855D01*
X123063000Y-97827000D01*
X121133185Y-97827000D01*
X121168821Y-97741179D01*
X121169178Y-97332613D01*
X121013156Y-96955011D01*
X120724508Y-96665860D01*
X120347179Y-96509179D01*
X119938613Y-96508822D01*
X119822013Y-96557000D01*
X118517116Y-96557000D01*
X118575000Y-96266000D01*
X118481600Y-95796448D01*
X118215620Y-95398380D01*
X118088620Y-95271380D01*
X118056623Y-95250000D01*
X117690553Y-95005400D01*
X117221000Y-94912000D01*
X115443000Y-94912000D01*
X115279000Y-94944622D01*
X115279000Y-91157910D01*
X115414910Y-91022000D01*
X119888000Y-91022000D01*
X120214046Y-90957145D01*
X120490455Y-90772455D01*
X121252455Y-90010455D01*
X121437145Y-89734046D01*
X121502000Y-89408000D01*
X121502000Y-81037079D01*
X121615387Y-81037178D01*
X121992989Y-80881156D01*
X122012178Y-80862000D01*
X122986229Y-80862000D01*
X122903084Y-81280000D01*
X123019320Y-81864358D01*
X123350332Y-82359752D01*
X123635058Y-82550000D01*
X123350332Y-82740248D01*
X123019320Y-83235642D01*
X122903084Y-83820000D01*
X123019320Y-84404358D01*
X123350332Y-84899752D01*
X123635058Y-85090000D01*
X123350332Y-85280248D01*
X123019320Y-85775642D01*
X122903084Y-86360000D01*
X123019320Y-86944358D01*
X123350332Y-87439752D01*
X123635058Y-87630000D01*
X123350332Y-87820248D01*
X123019320Y-88315642D01*
X122903084Y-88900000D01*
X123019320Y-89484358D01*
X123350332Y-89979752D01*
X123635058Y-90170000D01*
X123350332Y-90360248D01*
X123019320Y-90855642D01*
X122903084Y-91440000D01*
X123019320Y-92024358D01*
X123350332Y-92519752D01*
X123845726Y-92850764D01*
X124430084Y-92967000D01*
X124489916Y-92967000D01*
X125074274Y-92850764D01*
X125569668Y-92519752D01*
X125721847Y-92292000D01*
X137160000Y-92292000D01*
X137486046Y-92227145D01*
X137762455Y-92042455D01*
X138265000Y-91539910D01*
X138265000Y-91567002D01*
X138430084Y-91567002D01*
X138308096Y-91789039D01*
X138468959Y-92177423D01*
X138844866Y-92592389D01*
X139350959Y-92831914D01*
X139573000Y-92710629D01*
X139573000Y-91567000D01*
X139827000Y-91567000D01*
X139827000Y-92710629D01*
X140049041Y-92831914D01*
X140555134Y-92592389D01*
X140931041Y-92177423D01*
X141091904Y-91789039D01*
X140969915Y-91567000D01*
X139827000Y-91567000D01*
X139573000Y-91567000D01*
X139553000Y-91567000D01*
X139553000Y-91313000D01*
X139573000Y-91313000D01*
X139573000Y-91293000D01*
X139827000Y-91293000D01*
X139827000Y-91313000D01*
X140969915Y-91313000D01*
X141091904Y-91090961D01*
X141063341Y-91022000D01*
X148237090Y-91022000D01*
X149008352Y-91793262D01*
X149054320Y-92024358D01*
X149385332Y-92519752D01*
X149880726Y-92850764D01*
X150465084Y-92967000D01*
X150524916Y-92967000D01*
X151109274Y-92850764D01*
X151604668Y-92519752D01*
X151756847Y-92292000D01*
X153577384Y-92292000D01*
X153595492Y-92310140D01*
X153972821Y-92466821D01*
X154381387Y-92467178D01*
X154758989Y-92311156D01*
X155048140Y-92022508D01*
X155145084Y-91789039D01*
X164343096Y-91789039D01*
X164503959Y-92177423D01*
X164879866Y-92592389D01*
X165385959Y-92831914D01*
X165608000Y-92710629D01*
X165608000Y-91567000D01*
X165862000Y-91567000D01*
X165862000Y-92710629D01*
X166084041Y-92831914D01*
X166590134Y-92592389D01*
X166966041Y-92177423D01*
X167126904Y-91789039D01*
X167004915Y-91567000D01*
X165862000Y-91567000D01*
X165608000Y-91567000D01*
X164465085Y-91567000D01*
X164343096Y-91789039D01*
X155145084Y-91789039D01*
X155204821Y-91645179D01*
X155205178Y-91236613D01*
X155116502Y-91022000D01*
X164371659Y-91022000D01*
X164343096Y-91090961D01*
X164465085Y-91313000D01*
X165608000Y-91313000D01*
X165608000Y-91293000D01*
X165862000Y-91293000D01*
X165862000Y-91313000D01*
X167004915Y-91313000D01*
X167126904Y-91090961D01*
X166966041Y-90702577D01*
X166590134Y-90287611D01*
X166469425Y-90230482D01*
X166844668Y-89979752D01*
X167175680Y-89484358D01*
X167291916Y-88900000D01*
X167175680Y-88315642D01*
X166844668Y-87820248D01*
X166559942Y-87630000D01*
X166844668Y-87439752D01*
X167175680Y-86944358D01*
X167291916Y-86360000D01*
X167175680Y-85775642D01*
X166844668Y-85280248D01*
X166559942Y-85090000D01*
X166844668Y-84899752D01*
X167175680Y-84404358D01*
X167291916Y-83820000D01*
X167175680Y-83235642D01*
X166844668Y-82740248D01*
X166559942Y-82550000D01*
X166844668Y-82359752D01*
X167175680Y-81864358D01*
X167291916Y-81280000D01*
X167175680Y-80695642D01*
X166844668Y-80200248D01*
X166559942Y-80010000D01*
X166844668Y-79819752D01*
X167175680Y-79324358D01*
X167291916Y-78740000D01*
X167175680Y-78155642D01*
X166844668Y-77660248D01*
X166559942Y-77470000D01*
X166844668Y-77279752D01*
X167175680Y-76784358D01*
X167234042Y-76490952D01*
X168058000Y-77314910D01*
X168058000Y-77314910D01*
G37*
X168058000Y-77314910D02*
X168058000Y-110645090D01*
X168049090Y-110654000D01*
X161544000Y-110654000D01*
X161217954Y-110718855D01*
X160941545Y-110903545D01*
X160872000Y-110973090D01*
X160872000Y-108156838D01*
X162772597Y-108156838D01*
X163126115Y-109012418D01*
X163780139Y-109667585D01*
X164635100Y-110022596D01*
X165560838Y-110023403D01*
X166416418Y-109669885D01*
X167071585Y-109015861D01*
X167426596Y-108160900D01*
X167427403Y-107235162D01*
X167073885Y-106379582D01*
X166419861Y-105724415D01*
X165564900Y-105369404D01*
X164639162Y-105368597D01*
X163783582Y-105722115D01*
X163128415Y-106376139D01*
X162773404Y-107231100D01*
X162772597Y-108156838D01*
X160872000Y-108156838D01*
X160872000Y-106524910D01*
X165271875Y-102125035D01*
X165608000Y-102191895D01*
X166211492Y-102071853D01*
X166723107Y-101730002D01*
X167064958Y-101218387D01*
X167185000Y-100614895D01*
X167185000Y-100553105D01*
X167064958Y-99949613D01*
X166723107Y-99437998D01*
X166537531Y-99314000D01*
X166723107Y-99190002D01*
X167064958Y-98678387D01*
X167185000Y-98074895D01*
X167185000Y-98013105D01*
X167064958Y-97409613D01*
X166723107Y-96897998D01*
X166211492Y-96556147D01*
X165608000Y-96436105D01*
X165004508Y-96556147D01*
X164492893Y-96897998D01*
X164338000Y-97129811D01*
X164183107Y-96897998D01*
X163671492Y-96556147D01*
X163068000Y-96436105D01*
X162464508Y-96556147D01*
X161952893Y-96897998D01*
X161798000Y-97129811D01*
X161643107Y-96897998D01*
X161131492Y-96556147D01*
X160528000Y-96436105D01*
X159924508Y-96556147D01*
X159412893Y-96897998D01*
X159258000Y-97129811D01*
X159103107Y-96897998D01*
X158591492Y-96556147D01*
X157988000Y-96436105D01*
X157384508Y-96556147D01*
X156872893Y-96897998D01*
X156718000Y-97129811D01*
X156563107Y-96897998D01*
X156051492Y-96556147D01*
X155448000Y-96436105D01*
X154844508Y-96556147D01*
X154332893Y-96897998D01*
X154178000Y-97129811D01*
X154023107Y-96897998D01*
X153511492Y-96556147D01*
X152908000Y-96436105D01*
X152304508Y-96556147D01*
X151792893Y-96897998D01*
X151638000Y-97129811D01*
X151483107Y-96897998D01*
X150971492Y-96556147D01*
X150368000Y-96436105D01*
X149764508Y-96556147D01*
X149252893Y-96897998D01*
X149098000Y-97129811D01*
X148943107Y-96897998D01*
X148431492Y-96556147D01*
X147828000Y-96436105D01*
X147224508Y-96556147D01*
X146712893Y-96897998D01*
X146505009Y-97209118D01*
X146483183Y-97162642D01*
X146054924Y-96772355D01*
X145644890Y-96602524D01*
X145415000Y-96723845D01*
X145415000Y-97917000D01*
X145435000Y-97917000D01*
X145435000Y-98171000D01*
X145415000Y-98171000D01*
X145415000Y-98191000D01*
X145161000Y-98191000D01*
X145161000Y-98171000D01*
X142875000Y-98171000D01*
X142875000Y-98191000D01*
X142621000Y-98191000D01*
X142621000Y-98171000D01*
X140335000Y-98171000D01*
X140335000Y-98191000D01*
X140081000Y-98191000D01*
X140081000Y-98171000D01*
X137795000Y-98171000D01*
X137795000Y-98191000D01*
X137541000Y-98191000D01*
X137541000Y-98171000D01*
X135255000Y-98171000D01*
X135255000Y-98191000D01*
X135001000Y-98191000D01*
X135001000Y-98171000D01*
X132715000Y-98171000D01*
X132715000Y-98191000D01*
X132461000Y-98191000D01*
X132461000Y-98171000D01*
X130175000Y-98171000D01*
X130175000Y-98191000D01*
X129921000Y-98191000D01*
X129921000Y-98171000D01*
X127635000Y-98171000D01*
X127635000Y-98191000D01*
X127381000Y-98191000D01*
X127381000Y-98171000D01*
X125095000Y-98171000D01*
X125095000Y-98191000D01*
X124841000Y-98191000D01*
X124841000Y-98171000D01*
X124821000Y-98171000D01*
X124821000Y-97917000D01*
X124841000Y-97917000D01*
X124841000Y-96717750D01*
X125095000Y-96717750D01*
X125095000Y-97917000D01*
X127381000Y-97917000D01*
X127381000Y-96723845D01*
X127635000Y-96723845D01*
X127635000Y-97917000D01*
X129921000Y-97917000D01*
X129921000Y-96723845D01*
X130175000Y-96723845D01*
X130175000Y-97917000D01*
X132461000Y-97917000D01*
X132461000Y-96723845D01*
X132715000Y-96723845D01*
X132715000Y-97917000D01*
X135001000Y-97917000D01*
X135001000Y-96723845D01*
X135255000Y-96723845D01*
X135255000Y-97917000D01*
X137541000Y-97917000D01*
X137541000Y-96723845D01*
X137795000Y-96723845D01*
X137795000Y-97917000D01*
X140081000Y-97917000D01*
X140081000Y-96723845D01*
X140335000Y-96723845D01*
X140335000Y-97917000D01*
X142621000Y-97917000D01*
X142621000Y-96723845D01*
X142875000Y-96723845D01*
X142875000Y-97917000D01*
X145161000Y-97917000D01*
X145161000Y-96723845D01*
X144931110Y-96602524D01*
X144521076Y-96772355D01*
X144092817Y-97162642D01*
X144018000Y-97321954D01*
X143943183Y-97162642D01*
X143514924Y-96772355D01*
X143104890Y-96602524D01*
X142875000Y-96723845D01*
X142621000Y-96723845D01*
X142391110Y-96602524D01*
X141981076Y-96772355D01*
X141552817Y-97162642D01*
X141478000Y-97321954D01*
X141403183Y-97162642D01*
X140974924Y-96772355D01*
X140564890Y-96602524D01*
X140335000Y-96723845D01*
X140081000Y-96723845D01*
X139851110Y-96602524D01*
X139441076Y-96772355D01*
X139012817Y-97162642D01*
X138938000Y-97321954D01*
X138863183Y-97162642D01*
X138434924Y-96772355D01*
X138024890Y-96602524D01*
X137795000Y-96723845D01*
X137541000Y-96723845D01*
X137311110Y-96602524D01*
X136901076Y-96772355D01*
X136472817Y-97162642D01*
X136398000Y-97321954D01*
X136323183Y-97162642D01*
X135894924Y-96772355D01*
X135484890Y-96602524D01*
X135255000Y-96723845D01*
X135001000Y-96723845D01*
X134771110Y-96602524D01*
X134361076Y-96772355D01*
X133932817Y-97162642D01*
X133858000Y-97321954D01*
X133783183Y-97162642D01*
X133354924Y-96772355D01*
X132944890Y-96602524D01*
X132715000Y-96723845D01*
X132461000Y-96723845D01*
X132231110Y-96602524D01*
X131821076Y-96772355D01*
X131392817Y-97162642D01*
X131318000Y-97321954D01*
X131243183Y-97162642D01*
X130814924Y-96772355D01*
X130404890Y-96602524D01*
X130175000Y-96723845D01*
X129921000Y-96723845D01*
X129691110Y-96602524D01*
X129281076Y-96772355D01*
X128852817Y-97162642D01*
X128778000Y-97321954D01*
X128703183Y-97162642D01*
X128274924Y-96772355D01*
X127864890Y-96602524D01*
X127635000Y-96723845D01*
X127381000Y-96723845D01*
X127151110Y-96602524D01*
X126741076Y-96772355D01*
X126443136Y-97043878D01*
X126356327Y-96834302D01*
X126177699Y-96655673D01*
X125944310Y-96559000D01*
X125253750Y-96559000D01*
X125095000Y-96717750D01*
X124841000Y-96717750D01*
X124682250Y-96559000D01*
X123991690Y-96559000D01*
X123758301Y-96655673D01*
X123579673Y-96834302D01*
X123483000Y-97067691D01*
X123483000Y-97758250D01*
X123641748Y-97916998D01*
X123483000Y-97916998D01*
X123483000Y-97954633D01*
X123389046Y-97891855D01*
X123063000Y-97827000D01*
X121133185Y-97827000D01*
X121168821Y-97741179D01*
X121169178Y-97332613D01*
X121013156Y-96955011D01*
X120724508Y-96665860D01*
X120347179Y-96509179D01*
X119938613Y-96508822D01*
X119822013Y-96557000D01*
X118517116Y-96557000D01*
X118575000Y-96266000D01*
X118481600Y-95796448D01*
X118215620Y-95398380D01*
X118088620Y-95271380D01*
X118056623Y-95250000D01*
X117690553Y-95005400D01*
X117221000Y-94912000D01*
X115443000Y-94912000D01*
X115279000Y-94944622D01*
X115279000Y-91157910D01*
X115414910Y-91022000D01*
X119888000Y-91022000D01*
X120214046Y-90957145D01*
X120490455Y-90772455D01*
X121252455Y-90010455D01*
X121437145Y-89734046D01*
X121502000Y-89408000D01*
X121502000Y-81037079D01*
X121615387Y-81037178D01*
X121992989Y-80881156D01*
X122012178Y-80862000D01*
X122986229Y-80862000D01*
X122903084Y-81280000D01*
X123019320Y-81864358D01*
X123350332Y-82359752D01*
X123635058Y-82550000D01*
X123350332Y-82740248D01*
X123019320Y-83235642D01*
X122903084Y-83820000D01*
X123019320Y-84404358D01*
X123350332Y-84899752D01*
X123635058Y-85090000D01*
X123350332Y-85280248D01*
X123019320Y-85775642D01*
X122903084Y-86360000D01*
X123019320Y-86944358D01*
X123350332Y-87439752D01*
X123635058Y-87630000D01*
X123350332Y-87820248D01*
X123019320Y-88315642D01*
X122903084Y-88900000D01*
X123019320Y-89484358D01*
X123350332Y-89979752D01*
X123635058Y-90170000D01*
X123350332Y-90360248D01*
X123019320Y-90855642D01*
X122903084Y-91440000D01*
X123019320Y-92024358D01*
X123350332Y-92519752D01*
X123845726Y-92850764D01*
X124430084Y-92967000D01*
X124489916Y-92967000D01*
X125074274Y-92850764D01*
X125569668Y-92519752D01*
X125721847Y-92292000D01*
X137160000Y-92292000D01*
X137486046Y-92227145D01*
X137762455Y-92042455D01*
X138265000Y-91539910D01*
X138265000Y-91567002D01*
X138430084Y-91567002D01*
X138308096Y-91789039D01*
X138468959Y-92177423D01*
X138844866Y-92592389D01*
X139350959Y-92831914D01*
X139573000Y-92710629D01*
X139573000Y-91567000D01*
X139827000Y-91567000D01*
X139827000Y-92710629D01*
X140049041Y-92831914D01*
X140555134Y-92592389D01*
X140931041Y-92177423D01*
X141091904Y-91789039D01*
X140969915Y-91567000D01*
X139827000Y-91567000D01*
X139573000Y-91567000D01*
X139553000Y-91567000D01*
X139553000Y-91313000D01*
X139573000Y-91313000D01*
X139573000Y-91293000D01*
X139827000Y-91293000D01*
X139827000Y-91313000D01*
X140969915Y-91313000D01*
X141091904Y-91090961D01*
X141063341Y-91022000D01*
X148237090Y-91022000D01*
X149008352Y-91793262D01*
X149054320Y-92024358D01*
X149385332Y-92519752D01*
X149880726Y-92850764D01*
X150465084Y-92967000D01*
X150524916Y-92967000D01*
X151109274Y-92850764D01*
X151604668Y-92519752D01*
X151756847Y-92292000D01*
X153577384Y-92292000D01*
X153595492Y-92310140D01*
X153972821Y-92466821D01*
X154381387Y-92467178D01*
X154758989Y-92311156D01*
X155048140Y-92022508D01*
X155145084Y-91789039D01*
X164343096Y-91789039D01*
X164503959Y-92177423D01*
X164879866Y-92592389D01*
X165385959Y-92831914D01*
X165608000Y-92710629D01*
X165608000Y-91567000D01*
X165862000Y-91567000D01*
X165862000Y-92710629D01*
X166084041Y-92831914D01*
X166590134Y-92592389D01*
X166966041Y-92177423D01*
X167126904Y-91789039D01*
X167004915Y-91567000D01*
X165862000Y-91567000D01*
X165608000Y-91567000D01*
X164465085Y-91567000D01*
X164343096Y-91789039D01*
X155145084Y-91789039D01*
X155204821Y-91645179D01*
X155205178Y-91236613D01*
X155116502Y-91022000D01*
X164371659Y-91022000D01*
X164343096Y-91090961D01*
X164465085Y-91313000D01*
X165608000Y-91313000D01*
X165608000Y-91293000D01*
X165862000Y-91293000D01*
X165862000Y-91313000D01*
X167004915Y-91313000D01*
X167126904Y-91090961D01*
X166966041Y-90702577D01*
X166590134Y-90287611D01*
X166469425Y-90230482D01*
X166844668Y-89979752D01*
X167175680Y-89484358D01*
X167291916Y-88900000D01*
X167175680Y-88315642D01*
X166844668Y-87820248D01*
X166559942Y-87630000D01*
X166844668Y-87439752D01*
X167175680Y-86944358D01*
X167291916Y-86360000D01*
X167175680Y-85775642D01*
X166844668Y-85280248D01*
X166559942Y-85090000D01*
X166844668Y-84899752D01*
X167175680Y-84404358D01*
X167291916Y-83820000D01*
X167175680Y-83235642D01*
X166844668Y-82740248D01*
X166559942Y-82550000D01*
X166844668Y-82359752D01*
X167175680Y-81864358D01*
X167291916Y-81280000D01*
X167175680Y-80695642D01*
X166844668Y-80200248D01*
X166559942Y-80010000D01*
X166844668Y-79819752D01*
X167175680Y-79324358D01*
X167291916Y-78740000D01*
X167175680Y-78155642D01*
X166844668Y-77660248D01*
X166559942Y-77470000D01*
X166844668Y-77279752D01*
X167175680Y-76784358D01*
X167234042Y-76490952D01*
X168058000Y-77314910D01*
G36*
X123447608Y-100268518D02*
X123391000Y-100553105D01*
X123391000Y-100614895D01*
X123511042Y-101218387D01*
X123852893Y-101730002D01*
X124364508Y-102071853D01*
X124968000Y-102191895D01*
X125571492Y-102071853D01*
X125683861Y-101996771D01*
X128180000Y-104492910D01*
X128180000Y-110732921D01*
X128066613Y-110732822D01*
X127689011Y-110888844D01*
X127669822Y-110908000D01*
X109064910Y-110908000D01*
X108548000Y-110391090D01*
X108548000Y-107473750D01*
X110133000Y-107473750D01*
X110133000Y-107939310D01*
X110229673Y-108172699D01*
X110408302Y-108351327D01*
X110641691Y-108448000D01*
X110982250Y-108448000D01*
X111141000Y-108289250D01*
X111141000Y-107315000D01*
X110291750Y-107315000D01*
X110133000Y-107473750D01*
X108548000Y-107473750D01*
X108548000Y-106436690D01*
X110133000Y-106436690D01*
X110133000Y-106902250D01*
X110291750Y-107061000D01*
X111141000Y-107061000D01*
X111141000Y-106086750D01*
X110982250Y-105928000D01*
X110641691Y-105928000D01*
X110408302Y-106024673D01*
X110229673Y-106203301D01*
X110133000Y-106436690D01*
X108548000Y-106436690D01*
X108548000Y-105918000D01*
X108807250Y-105918000D01*
X108966000Y-105759250D01*
X108966000Y-105156000D01*
X109220000Y-105156000D01*
X109220000Y-105759250D01*
X109378750Y-105918000D01*
X109790810Y-105918000D01*
X110024199Y-105821327D01*
X110202827Y-105642698D01*
X110299500Y-105409309D01*
X110299500Y-105314750D01*
X110140750Y-105156000D01*
X109220000Y-105156000D01*
X108966000Y-105156000D01*
X108946000Y-105156000D01*
X108946000Y-104902000D01*
X108966000Y-104902000D01*
X108966000Y-104882000D01*
X109220000Y-104882000D01*
X109220000Y-104902000D01*
X110140750Y-104902000D01*
X110299500Y-104743250D01*
X110299500Y-104648691D01*
X110283888Y-104611000D01*
X111125000Y-104611000D01*
X111451046Y-104546145D01*
X111727455Y-104361455D01*
X113792000Y-102296910D01*
X114130258Y-102635168D01*
X114130258Y-102743000D01*
X114180951Y-103012410D01*
X114252360Y-103123383D01*
X114188657Y-103216615D01*
X114130258Y-103505000D01*
X114130258Y-104013000D01*
X114180951Y-104282410D01*
X114252360Y-104393383D01*
X114236900Y-104416010D01*
X114151620Y-104288380D01*
X113753552Y-104022400D01*
X113284000Y-103929000D01*
X112814448Y-104022400D01*
X112416380Y-104288380D01*
X112400380Y-104304380D01*
X112134400Y-104702447D01*
X112041000Y-105172000D01*
X112041000Y-105988761D01*
X111894309Y-105928000D01*
X111553750Y-105928000D01*
X111395000Y-106086750D01*
X111395000Y-107061000D01*
X111415000Y-107061000D01*
X111415000Y-107315000D01*
X111395000Y-107315000D01*
X111395000Y-108289250D01*
X111553750Y-108448000D01*
X111894309Y-108448000D01*
X112127698Y-108351327D01*
X112202415Y-108276610D01*
X112236672Y-108329846D01*
X112479615Y-108495843D01*
X112768000Y-108554242D01*
X113768000Y-108554242D01*
X114037410Y-108503549D01*
X114175019Y-108415000D01*
X118110000Y-108415000D01*
X118579553Y-108321600D01*
X118826136Y-108156838D01*
X122640597Y-108156838D01*
X122994115Y-109012418D01*
X123648139Y-109667585D01*
X124503100Y-110022596D01*
X125428838Y-110023403D01*
X126284418Y-109669885D01*
X126939585Y-109015861D01*
X127294596Y-108160900D01*
X127295403Y-107235162D01*
X126941885Y-106379582D01*
X126287861Y-105724415D01*
X125432900Y-105369404D01*
X124507162Y-105368597D01*
X123651582Y-105722115D01*
X122996415Y-106376139D01*
X122641404Y-107231100D01*
X122640597Y-108156838D01*
X118826136Y-108156838D01*
X118977620Y-108055620D01*
X122025620Y-105007620D01*
X122159306Y-104807545D01*
X122291600Y-104609553D01*
X122385000Y-104140000D01*
X122385000Y-101092000D01*
X122291600Y-100622447D01*
X122025620Y-100224380D01*
X121627553Y-99958400D01*
X121158000Y-99865000D01*
X120688447Y-99958400D01*
X120290380Y-100224380D01*
X120024400Y-100622447D01*
X119931000Y-101092000D01*
X119931000Y-103631760D01*
X117601760Y-105961000D01*
X116303412Y-105961000D01*
X116531346Y-105814328D01*
X116697343Y-105571385D01*
X116755742Y-105283000D01*
X116755742Y-104775000D01*
X116705049Y-104505590D01*
X116633640Y-104394617D01*
X116697343Y-104301385D01*
X116755742Y-104013000D01*
X116755742Y-103505000D01*
X116705049Y-103235590D01*
X116633640Y-103124617D01*
X116697343Y-103031385D01*
X116755742Y-102743000D01*
X116755742Y-102235000D01*
X116705049Y-101965590D01*
X116633640Y-101854617D01*
X116697343Y-101761385D01*
X116755742Y-101473000D01*
X116755742Y-100965000D01*
X116705049Y-100695590D01*
X116578951Y-100499629D01*
X116649500Y-100329309D01*
X116649500Y-100234750D01*
X116490750Y-100076000D01*
X115570000Y-100076000D01*
X115570000Y-100096000D01*
X115316000Y-100096000D01*
X115316000Y-100076000D01*
X115296000Y-100076000D01*
X115296000Y-99822000D01*
X115316000Y-99822000D01*
X115316000Y-99802000D01*
X115570000Y-99802000D01*
X115570000Y-99822000D01*
X116490750Y-99822000D01*
X116649500Y-99663250D01*
X116649500Y-99568691D01*
X116633888Y-99531000D01*
X122710090Y-99531000D01*
X123447608Y-100268518D01*
X123447608Y-100268518D01*
G37*
X123447608Y-100268518D02*
X123391000Y-100553105D01*
X123391000Y-100614895D01*
X123511042Y-101218387D01*
X123852893Y-101730002D01*
X124364508Y-102071853D01*
X124968000Y-102191895D01*
X125571492Y-102071853D01*
X125683861Y-101996771D01*
X128180000Y-104492910D01*
X128180000Y-110732921D01*
X128066613Y-110732822D01*
X127689011Y-110888844D01*
X127669822Y-110908000D01*
X109064910Y-110908000D01*
X108548000Y-110391090D01*
X108548000Y-107473750D01*
X110133000Y-107473750D01*
X110133000Y-107939310D01*
X110229673Y-108172699D01*
X110408302Y-108351327D01*
X110641691Y-108448000D01*
X110982250Y-108448000D01*
X111141000Y-108289250D01*
X111141000Y-107315000D01*
X110291750Y-107315000D01*
X110133000Y-107473750D01*
X108548000Y-107473750D01*
X108548000Y-106436690D01*
X110133000Y-106436690D01*
X110133000Y-106902250D01*
X110291750Y-107061000D01*
X111141000Y-107061000D01*
X111141000Y-106086750D01*
X110982250Y-105928000D01*
X110641691Y-105928000D01*
X110408302Y-106024673D01*
X110229673Y-106203301D01*
X110133000Y-106436690D01*
X108548000Y-106436690D01*
X108548000Y-105918000D01*
X108807250Y-105918000D01*
X108966000Y-105759250D01*
X108966000Y-105156000D01*
X109220000Y-105156000D01*
X109220000Y-105759250D01*
X109378750Y-105918000D01*
X109790810Y-105918000D01*
X110024199Y-105821327D01*
X110202827Y-105642698D01*
X110299500Y-105409309D01*
X110299500Y-105314750D01*
X110140750Y-105156000D01*
X109220000Y-105156000D01*
X108966000Y-105156000D01*
X108946000Y-105156000D01*
X108946000Y-104902000D01*
X108966000Y-104902000D01*
X108966000Y-104882000D01*
X109220000Y-104882000D01*
X109220000Y-104902000D01*
X110140750Y-104902000D01*
X110299500Y-104743250D01*
X110299500Y-104648691D01*
X110283888Y-104611000D01*
X111125000Y-104611000D01*
X111451046Y-104546145D01*
X111727455Y-104361455D01*
X113792000Y-102296910D01*
X114130258Y-102635168D01*
X114130258Y-102743000D01*
X114180951Y-103012410D01*
X114252360Y-103123383D01*
X114188657Y-103216615D01*
X114130258Y-103505000D01*
X114130258Y-104013000D01*
X114180951Y-104282410D01*
X114252360Y-104393383D01*
X114236900Y-104416010D01*
X114151620Y-104288380D01*
X113753552Y-104022400D01*
X113284000Y-103929000D01*
X112814448Y-104022400D01*
X112416380Y-104288380D01*
X112400380Y-104304380D01*
X112134400Y-104702447D01*
X112041000Y-105172000D01*
X112041000Y-105988761D01*
X111894309Y-105928000D01*
X111553750Y-105928000D01*
X111395000Y-106086750D01*
X111395000Y-107061000D01*
X111415000Y-107061000D01*
X111415000Y-107315000D01*
X111395000Y-107315000D01*
X111395000Y-108289250D01*
X111553750Y-108448000D01*
X111894309Y-108448000D01*
X112127698Y-108351327D01*
X112202415Y-108276610D01*
X112236672Y-108329846D01*
X112479615Y-108495843D01*
X112768000Y-108554242D01*
X113768000Y-108554242D01*
X114037410Y-108503549D01*
X114175019Y-108415000D01*
X118110000Y-108415000D01*
X118579553Y-108321600D01*
X118826136Y-108156838D01*
X122640597Y-108156838D01*
X122994115Y-109012418D01*
X123648139Y-109667585D01*
X124503100Y-110022596D01*
X125428838Y-110023403D01*
X126284418Y-109669885D01*
X126939585Y-109015861D01*
X127294596Y-108160900D01*
X127295403Y-107235162D01*
X126941885Y-106379582D01*
X126287861Y-105724415D01*
X125432900Y-105369404D01*
X124507162Y-105368597D01*
X123651582Y-105722115D01*
X122996415Y-106376139D01*
X122641404Y-107231100D01*
X122640597Y-108156838D01*
X118826136Y-108156838D01*
X118977620Y-108055620D01*
X122025620Y-105007620D01*
X122159306Y-104807545D01*
X122291600Y-104609553D01*
X122385000Y-104140000D01*
X122385000Y-101092000D01*
X122291600Y-100622447D01*
X122025620Y-100224380D01*
X121627553Y-99958400D01*
X121158000Y-99865000D01*
X120688447Y-99958400D01*
X120290380Y-100224380D01*
X120024400Y-100622447D01*
X119931000Y-101092000D01*
X119931000Y-103631760D01*
X117601760Y-105961000D01*
X116303412Y-105961000D01*
X116531346Y-105814328D01*
X116697343Y-105571385D01*
X116755742Y-105283000D01*
X116755742Y-104775000D01*
X116705049Y-104505590D01*
X116633640Y-104394617D01*
X116697343Y-104301385D01*
X116755742Y-104013000D01*
X116755742Y-103505000D01*
X116705049Y-103235590D01*
X116633640Y-103124617D01*
X116697343Y-103031385D01*
X116755742Y-102743000D01*
X116755742Y-102235000D01*
X116705049Y-101965590D01*
X116633640Y-101854617D01*
X116697343Y-101761385D01*
X116755742Y-101473000D01*
X116755742Y-100965000D01*
X116705049Y-100695590D01*
X116578951Y-100499629D01*
X116649500Y-100329309D01*
X116649500Y-100234750D01*
X116490750Y-100076000D01*
X115570000Y-100076000D01*
X115570000Y-100096000D01*
X115316000Y-100096000D01*
X115316000Y-100076000D01*
X115296000Y-100076000D01*
X115296000Y-99822000D01*
X115316000Y-99822000D01*
X115316000Y-99802000D01*
X115570000Y-99802000D01*
X115570000Y-99822000D01*
X116490750Y-99822000D01*
X116649500Y-99663250D01*
X116649500Y-99568691D01*
X116633888Y-99531000D01*
X122710090Y-99531000D01*
X123447608Y-100268518D01*
M02*
