G04 #@! TF.FileFunction,Copper,L1,Top,Signal*
%FSLAX46Y46*%
G04 Gerber Fmt 4.6, Leading zero omitted, Abs format (unit mm)*
G04 Created by KiCad (PCBNEW 4.0.7) date 05/07/18 10:20:29*
%MOMM*%
%LPD*%
G01*
G04 APERTURE LIST*
%ADD10C,0.100000*%
%ADD11R,1.250000X1.000000*%
%ADD12C,3.000000*%
%ADD13R,1.120000X2.880000*%
%ADD14R,1.850000X1.850000*%
%ADD15C,1.850000*%
%ADD16R,1.700000X1.700000*%
%ADD17O,1.700000X1.700000*%
%ADD18R,1.000000X6.000000*%
%ADD19R,1.000000X8.000000*%
%ADD20C,0.800000*%
%ADD21C,0.600000*%
%ADD22C,1.000000*%
%ADD23C,0.250000*%
%ADD24C,0.254000*%
G04 APERTURE END LIST*
D10*
D11*
X113284000Y-95520000D03*
X113284000Y-97520000D03*
D12*
X103666000Y-55772000D03*
D13*
X106736000Y-59412000D03*
X109236000Y-59412000D03*
X111236000Y-59412000D03*
X113736000Y-59412000D03*
D12*
X116806000Y-55772000D03*
D14*
X108712000Y-95250000D03*
D15*
X108712000Y-97750000D03*
D16*
X124968000Y-101854000D03*
D17*
X124968000Y-104394000D03*
X127508000Y-101854000D03*
X127508000Y-104394000D03*
X130048000Y-101854000D03*
X130048000Y-104394000D03*
X132588000Y-101854000D03*
X132588000Y-104394000D03*
X135128000Y-101854000D03*
X135128000Y-104394000D03*
X137668000Y-101854000D03*
X137668000Y-104394000D03*
X140208000Y-101854000D03*
X140208000Y-104394000D03*
X142748000Y-101854000D03*
X142748000Y-104394000D03*
X145288000Y-101854000D03*
X145288000Y-104394000D03*
X147828000Y-101854000D03*
X147828000Y-104394000D03*
X150368000Y-101854000D03*
X150368000Y-104394000D03*
X152908000Y-101854000D03*
X152908000Y-104394000D03*
X155448000Y-101854000D03*
X155448000Y-104394000D03*
X157988000Y-101854000D03*
X157988000Y-104394000D03*
X160528000Y-101854000D03*
X160528000Y-104394000D03*
X163068000Y-101854000D03*
X163068000Y-104394000D03*
X165608000Y-101854000D03*
X165608000Y-104394000D03*
D14*
X108712000Y-79502000D03*
D15*
X108712000Y-82002000D03*
X108712000Y-84502000D03*
X108712000Y-87002000D03*
D18*
X165354000Y-145050000D03*
D19*
X162814000Y-146050000D03*
X160274000Y-146050000D03*
X157734000Y-146050000D03*
X155194000Y-146050000D03*
X152654000Y-146050000D03*
X150114000Y-146050000D03*
X147574000Y-146050000D03*
X145034000Y-146050000D03*
X142494000Y-146050000D03*
X139954000Y-146050000D03*
X137414000Y-146050000D03*
X134874000Y-146050000D03*
X132334000Y-146050000D03*
X129794000Y-146050000D03*
X127254000Y-146050000D03*
X124714000Y-146050000D03*
X122174000Y-146050000D03*
X119634000Y-146050000D03*
X117094000Y-146050000D03*
X114554000Y-146050000D03*
X112014000Y-146050000D03*
D20*
X165354000Y-135636000D03*
X166878000Y-128524000D03*
X163830000Y-128524000D03*
X144018000Y-128524000D03*
X140462000Y-128524000D03*
X131572000Y-128524000D03*
X128016000Y-128524000D03*
X112014000Y-135382000D03*
D21*
X114808000Y-83820000D03*
X109220000Y-63246000D03*
X111252000Y-63246000D03*
X115570000Y-81788000D03*
X113792000Y-63246000D03*
X116332000Y-79502000D03*
X134112000Y-107696000D03*
X141478000Y-119380000D03*
X135128000Y-106934000D03*
X142240000Y-120142000D03*
X140716000Y-118618000D03*
X131318000Y-110490000D03*
X136398000Y-109474000D03*
X129794000Y-109728000D03*
X129794000Y-106172000D03*
X143002000Y-120904000D03*
X133858000Y-111760000D03*
X132334000Y-110236000D03*
X133096000Y-110998000D03*
X149098000Y-109982000D03*
X153924000Y-109982000D03*
X153924000Y-106680000D03*
X149606000Y-106680000D03*
X134620000Y-112522000D03*
X135382000Y-113284000D03*
X136144000Y-114046000D03*
X136906000Y-114808000D03*
X137668000Y-115570000D03*
X138430000Y-116332000D03*
X139192000Y-117094000D03*
X139954000Y-117856000D03*
D22*
X170180000Y-100584000D02*
X167640000Y-98044000D01*
X117094000Y-98044000D02*
X114570000Y-95520000D01*
X167640000Y-98044000D02*
X117094000Y-98044000D01*
X165354000Y-121412000D02*
X165354000Y-119634000D01*
X114570000Y-95520000D02*
X113284000Y-95520000D01*
X170180000Y-114808000D02*
X170180000Y-100584000D01*
X165354000Y-119634000D02*
X170180000Y-114808000D01*
X113284000Y-95520000D02*
X113014000Y-95250000D01*
X113014000Y-95250000D02*
X108712000Y-95250000D01*
X165354000Y-145050000D02*
X165354000Y-121412000D01*
X165354000Y-145050000D02*
X165354000Y-135636000D01*
X165354000Y-135636000D02*
X165354000Y-121412000D01*
X108982000Y-95520000D02*
X108712000Y-95250000D01*
X106736000Y-59412000D02*
X106736000Y-65588000D01*
X109982000Y-68834000D02*
X103666000Y-62518000D01*
X103666000Y-62518000D02*
X103666000Y-55772000D01*
X106736000Y-62992000D02*
X106736000Y-65588000D01*
X106736000Y-62992000D02*
X106736000Y-63048000D01*
X106736000Y-65588000D02*
X106680000Y-65532000D01*
X106680000Y-65532000D02*
X106680000Y-65278000D01*
X106680000Y-65278000D02*
X106680000Y-65532000D01*
X103666000Y-62518000D02*
X105664000Y-64516000D01*
X106172000Y-65024000D02*
X105664000Y-64516000D01*
X106680000Y-65532000D02*
X106172000Y-65024000D01*
X105664000Y-64516000D02*
X103666000Y-62518000D01*
X109982000Y-68834000D02*
X106680000Y-65532000D01*
X109982000Y-73914000D02*
X109982000Y-68834000D01*
X103632000Y-80264000D02*
X103632000Y-88900000D01*
X103632000Y-80264000D02*
X109982000Y-73914000D01*
X106736000Y-59412000D02*
X106736000Y-64770000D01*
X115436000Y-93726000D02*
X118230000Y-96520000D01*
X168402000Y-96520000D02*
X171704000Y-99822000D01*
X118230000Y-96520000D02*
X168402000Y-96520000D01*
X116806000Y-55772000D02*
X103666000Y-55772000D01*
X108712000Y-97750000D02*
X104608000Y-97750000D01*
X105530000Y-87002000D02*
X108712000Y-87002000D01*
X103632000Y-88900000D02*
X105530000Y-87002000D01*
X103632000Y-96774000D02*
X103632000Y-88900000D01*
X104608000Y-97750000D02*
X103632000Y-96774000D01*
X112014000Y-128524000D02*
X128016000Y-128524000D01*
X171704000Y-115570000D02*
X171704000Y-99822000D01*
X166878000Y-120396000D02*
X171704000Y-115570000D01*
X166878000Y-128524000D02*
X166878000Y-120396000D01*
X144018000Y-128524000D02*
X163830000Y-128524000D01*
X131572000Y-128524000D02*
X140462000Y-128524000D01*
X115436000Y-93726000D02*
X108712000Y-87002000D01*
D23*
X155448000Y-104394000D02*
X154178000Y-103124000D01*
D22*
X145288000Y-100076000D02*
X145796000Y-99568000D01*
X145796000Y-99568000D02*
X153924000Y-99568000D01*
X145288000Y-100076000D02*
X145288000Y-101854000D01*
D23*
X154178000Y-99822000D02*
X153924000Y-99568000D01*
X154178000Y-103124000D02*
X154178000Y-99822000D01*
D22*
X124968000Y-101854000D02*
X127508000Y-101854000D01*
X127508000Y-101854000D02*
X130048000Y-101854000D01*
X130048000Y-101854000D02*
X132588000Y-101854000D01*
X132588000Y-101854000D02*
X135128000Y-101854000D01*
X135128000Y-101854000D02*
X137668000Y-101854000D01*
X137668000Y-101854000D02*
X140208000Y-101854000D01*
X140208000Y-101854000D02*
X142748000Y-101854000D01*
X142748000Y-101854000D02*
X145288000Y-101854000D01*
X113284000Y-97520000D02*
X113284000Y-101854000D01*
X108712000Y-97750000D02*
X113054000Y-97750000D01*
X113054000Y-97750000D02*
X113284000Y-97520000D01*
X112014000Y-146050000D02*
X112014000Y-135382000D01*
X112014000Y-135382000D02*
X112014000Y-128524000D01*
X112014000Y-128524000D02*
X112014000Y-103124000D01*
X112014000Y-103124000D02*
X113284000Y-101854000D01*
X113284000Y-101854000D02*
X124968000Y-101854000D01*
D23*
X109220000Y-59428000D02*
X109220000Y-63246000D01*
X108712000Y-84502000D02*
X114126000Y-84502000D01*
X114126000Y-84502000D02*
X114808000Y-83820000D01*
X109236000Y-59412000D02*
X109220000Y-59428000D01*
X111236000Y-59412000D02*
X111236000Y-63230000D01*
X111236000Y-63230000D02*
X111252000Y-63246000D01*
X111236000Y-59412000D02*
X111252000Y-59428000D01*
X108926000Y-81788000D02*
X115570000Y-81788000D01*
X108712000Y-82002000D02*
X108926000Y-81788000D01*
X113736000Y-59412000D02*
X113792000Y-59468000D01*
X113792000Y-59468000D02*
X113792000Y-63246000D01*
X108712000Y-79502000D02*
X116332000Y-79502000D01*
X141478000Y-121666000D02*
X141986000Y-122174000D01*
X141986000Y-138176000D02*
X141478000Y-138684000D01*
X141986000Y-122174000D02*
X141986000Y-138176000D01*
X141478000Y-119380000D02*
X141478000Y-121666000D01*
X141478000Y-138684000D02*
X139954000Y-140208000D01*
X139954000Y-146050000D02*
X139954000Y-140208000D01*
X124968000Y-107188000D02*
X124968000Y-104394000D01*
X125476000Y-107696000D02*
X124968000Y-107188000D01*
X134112000Y-107696000D02*
X125476000Y-107696000D01*
X142551998Y-137092396D02*
X142551998Y-138995998D01*
X146558000Y-139954000D02*
X147574000Y-140970000D01*
X143510000Y-139954000D02*
X146558000Y-139954000D01*
X142551998Y-138995998D02*
X143510000Y-139954000D01*
X142240000Y-121412000D02*
X142551998Y-121723998D01*
X142551998Y-121723998D02*
X142551998Y-137092396D01*
X142240000Y-120142000D02*
X142240000Y-121412000D01*
X147574000Y-146050000D02*
X147574000Y-140970000D01*
X127508000Y-106426000D02*
X127508000Y-104394000D01*
X135128000Y-106934000D02*
X128016000Y-106934000D01*
X128016000Y-106934000D02*
X127508000Y-106426000D01*
X141478000Y-136652000D02*
X141478000Y-137922000D01*
X139446000Y-139954000D02*
X138176000Y-139954000D01*
X141478000Y-137922000D02*
X139446000Y-139954000D01*
X140716000Y-121920000D02*
X141478000Y-122682000D01*
X141478000Y-122682000D02*
X141478000Y-136652000D01*
X140716000Y-118618000D02*
X140716000Y-121920000D01*
X137414000Y-146050000D02*
X137414000Y-140716000D01*
X138176000Y-139954000D02*
X137414000Y-140716000D01*
X130440004Y-136282004D02*
X130440004Y-137806004D01*
X132842000Y-140208000D02*
X134366000Y-140208000D01*
X130440004Y-137806004D02*
X132842000Y-140208000D01*
X130810000Y-110998000D02*
X130440004Y-111367996D01*
X130440004Y-111367996D02*
X130440004Y-136282004D01*
X131318000Y-110490000D02*
X130810000Y-110998000D01*
X134874000Y-146050000D02*
X134874000Y-140716000D01*
X134366000Y-140208000D02*
X134874000Y-140716000D01*
X130302000Y-110236000D02*
X129990002Y-110547998D01*
X129990002Y-138118002D02*
X131826000Y-139954000D01*
X129990002Y-110547998D02*
X129990002Y-138118002D01*
X132334000Y-141224000D02*
X132334000Y-140462000D01*
X132334000Y-140462000D02*
X131826000Y-139954000D01*
X132334000Y-146050000D02*
X132334000Y-141224000D01*
X131064000Y-109474000D02*
X136398000Y-109474000D01*
X130302000Y-110236000D02*
X131064000Y-109474000D01*
X129794000Y-109728000D02*
X129540000Y-109982000D01*
X129540000Y-140208000D02*
X129794000Y-140462000D01*
X129540000Y-109982000D02*
X129540000Y-140208000D01*
X135636000Y-106172000D02*
X135890000Y-106172000D01*
X129794000Y-106172000D02*
X135636000Y-106172000D01*
X135890000Y-106172000D02*
X137668000Y-104394000D01*
X129794000Y-146050000D02*
X129794000Y-140462000D01*
X143002000Y-136906000D02*
X143002000Y-138430000D01*
X147828000Y-140208000D02*
X149098000Y-140208000D01*
X147066000Y-139446000D02*
X147828000Y-140208000D01*
X144018000Y-139446000D02*
X147066000Y-139446000D01*
X143002000Y-138430000D02*
X144018000Y-139446000D01*
X159766000Y-140208000D02*
X160274000Y-140716000D01*
X149098000Y-140208000D02*
X159766000Y-140208000D01*
X143002000Y-120904000D02*
X143002000Y-136906000D01*
X160274000Y-146050000D02*
X160274000Y-140716000D01*
X129032000Y-109982000D02*
X129032000Y-138938000D01*
X128524000Y-139446000D02*
X115824000Y-139446000D01*
X129032000Y-138938000D02*
X128524000Y-139446000D01*
X129032000Y-109982000D02*
X129032000Y-109474000D01*
X129032000Y-109474000D02*
X129794000Y-108712000D01*
X114554000Y-146050000D02*
X114554000Y-140716000D01*
X114554000Y-140716000D02*
X115824000Y-139446000D01*
X142748000Y-107950000D02*
X142748000Y-104394000D01*
X141986000Y-108712000D02*
X142748000Y-107950000D01*
X129794000Y-108712000D02*
X141986000Y-108712000D01*
X141732000Y-111760000D02*
X147574000Y-105918000D01*
X147574000Y-105918000D02*
X147828000Y-105918000D01*
X148590000Y-105918000D02*
X149098000Y-105410000D01*
X147828000Y-105918000D02*
X148590000Y-105918000D01*
X147066000Y-103124000D02*
X145796000Y-104394000D01*
X149098000Y-105410000D02*
X149098000Y-103378000D01*
X149098000Y-103378000D02*
X148844000Y-103124000D01*
X148844000Y-103124000D02*
X147066000Y-103124000D01*
X145796000Y-104394000D02*
X145288000Y-104394000D01*
X133858000Y-111760000D02*
X141732000Y-111760000D01*
X141224000Y-110236000D02*
X144018000Y-107442000D01*
X132334000Y-110236000D02*
X141224000Y-110236000D01*
X144018000Y-105156000D02*
X144018000Y-103632000D01*
X144018000Y-103632000D02*
X144526000Y-103124000D01*
X144526000Y-103124000D02*
X146050000Y-103124000D01*
X144018000Y-105156000D02*
X144018000Y-107442000D01*
X146050000Y-103124000D02*
X147320000Y-101854000D01*
X147320000Y-101854000D02*
X147828000Y-101854000D01*
X146050000Y-103124000D02*
X146812000Y-102362000D01*
X146812000Y-102362000D02*
X147066000Y-102108000D01*
X141478000Y-110998000D02*
X147828000Y-104648000D01*
X147828000Y-104648000D02*
X147828000Y-104394000D01*
X133096000Y-110998000D02*
X141478000Y-110998000D01*
X153924000Y-109982000D02*
X149098000Y-109982000D01*
X149606000Y-106680000D02*
X153924000Y-106680000D01*
X156718000Y-103632000D02*
X156718000Y-103124000D01*
X156718000Y-103124000D02*
X157988000Y-101854000D01*
X157988000Y-102362000D02*
X157988000Y-101854000D01*
X150622000Y-112522000D02*
X156718000Y-112522000D01*
X157226000Y-105410000D02*
X156718000Y-104902000D01*
X157226000Y-112014000D02*
X157226000Y-105410000D01*
X156718000Y-112522000D02*
X157226000Y-112014000D01*
X134620000Y-112522000D02*
X150622000Y-112522000D01*
X156718000Y-104902000D02*
X156718000Y-103632000D01*
X150876000Y-113284000D02*
X157480000Y-113284000D01*
X157988000Y-112776000D02*
X157988000Y-106172000D01*
X157480000Y-113284000D02*
X157988000Y-112776000D01*
X157988000Y-106172000D02*
X157988000Y-104394000D01*
X135382000Y-113284000D02*
X150876000Y-113284000D01*
X151130000Y-114046000D02*
X158242000Y-114046000D01*
X158750000Y-113538000D02*
X158750000Y-106426000D01*
X158242000Y-114046000D02*
X158750000Y-113538000D01*
X159258000Y-103124000D02*
X160528000Y-101854000D01*
X136144000Y-114046000D02*
X151130000Y-114046000D01*
X158750000Y-106426000D02*
X159258000Y-105918000D01*
X159258000Y-105918000D02*
X159258000Y-103124000D01*
X151384000Y-114808000D02*
X158750000Y-114808000D01*
X159258000Y-114300000D02*
X159258000Y-106934000D01*
X158750000Y-114808000D02*
X159258000Y-114300000D01*
X160528000Y-105664000D02*
X160528000Y-104394000D01*
X159258000Y-106934000D02*
X160528000Y-105664000D01*
X136906000Y-114808000D02*
X151384000Y-114808000D01*
X151638000Y-115570000D02*
X159258000Y-115570000D01*
X159766000Y-115062000D02*
X159766000Y-107442000D01*
X159258000Y-115570000D02*
X159766000Y-115062000D01*
X161798000Y-103124000D02*
X163068000Y-101854000D01*
X161798000Y-105410000D02*
X161798000Y-103124000D01*
X159766000Y-107442000D02*
X161798000Y-105410000D01*
X137668000Y-115570000D02*
X151638000Y-115570000D01*
X159512000Y-116332000D02*
X159766000Y-116332000D01*
X160274000Y-115824000D02*
X160274000Y-107696000D01*
X159766000Y-116332000D02*
X160274000Y-115824000D01*
X151638000Y-116332000D02*
X159512000Y-116332000D01*
X163068000Y-106172000D02*
X163068000Y-104394000D01*
X162814000Y-106426000D02*
X163068000Y-106172000D01*
X161544000Y-106426000D02*
X162814000Y-106426000D01*
X160274000Y-107696000D02*
X161544000Y-106426000D01*
X138430000Y-116332000D02*
X151638000Y-116332000D01*
X151892000Y-117094000D02*
X160274000Y-117094000D01*
X160782000Y-116586000D02*
X160782000Y-108204000D01*
X160274000Y-117094000D02*
X160782000Y-116586000D01*
X164338000Y-103124000D02*
X165608000Y-101854000D01*
X164338000Y-106680000D02*
X164338000Y-103124000D01*
X164084000Y-106934000D02*
X164338000Y-106680000D01*
X162052000Y-106934000D02*
X164084000Y-106934000D01*
X160782000Y-108204000D02*
X162052000Y-106934000D01*
X139192000Y-117094000D02*
X151892000Y-117094000D01*
X152146000Y-117856000D02*
X160782000Y-117856000D01*
X161290000Y-117348000D02*
X161290000Y-108712000D01*
X160782000Y-117856000D02*
X161290000Y-117348000D01*
X162179000Y-107823000D02*
X164973000Y-107823000D01*
X165608000Y-107188000D02*
X165608000Y-105918000D01*
X164973000Y-107823000D02*
X165608000Y-107188000D01*
X165608000Y-105918000D02*
X165608000Y-104394000D01*
X161290000Y-108712000D02*
X162179000Y-107823000D01*
X139954000Y-117856000D02*
X152146000Y-117856000D01*
D24*
G36*
X132087037Y-111245471D02*
X132224844Y-111578989D01*
X132513492Y-111868140D01*
X132849037Y-112007471D01*
X132986844Y-112340989D01*
X133275492Y-112630140D01*
X133611037Y-112769471D01*
X133748844Y-113102989D01*
X134037492Y-113392140D01*
X134373037Y-113531471D01*
X134510844Y-113864989D01*
X134799492Y-114154140D01*
X135135037Y-114293471D01*
X135272844Y-114626989D01*
X135561492Y-114916140D01*
X135897037Y-115055471D01*
X136034844Y-115388989D01*
X136323492Y-115678140D01*
X136659037Y-115817471D01*
X136796844Y-116150989D01*
X137085492Y-116440140D01*
X137421037Y-116579471D01*
X137558844Y-116912989D01*
X137847492Y-117202140D01*
X138183037Y-117341471D01*
X138320844Y-117674989D01*
X138609492Y-117964140D01*
X138945037Y-118103471D01*
X139082844Y-118436989D01*
X139371492Y-118726140D01*
X139707037Y-118865471D01*
X139844844Y-119198989D01*
X139864000Y-119218178D01*
X139864000Y-121920000D01*
X139928855Y-122246046D01*
X140113545Y-122522455D01*
X140626000Y-123034910D01*
X140626000Y-137569090D01*
X139093090Y-139102000D01*
X138176000Y-139102000D01*
X137849954Y-139166855D01*
X137622252Y-139319000D01*
X133157910Y-139319000D01*
X131292004Y-137453094D01*
X131292004Y-111720906D01*
X131495754Y-111517156D01*
X131521387Y-111517178D01*
X131898989Y-111361156D01*
X132036074Y-111224309D01*
X132087037Y-111245471D01*
X132087037Y-111245471D01*
G37*
X132087037Y-111245471D02*
X132224844Y-111578989D01*
X132513492Y-111868140D01*
X132849037Y-112007471D01*
X132986844Y-112340989D01*
X133275492Y-112630140D01*
X133611037Y-112769471D01*
X133748844Y-113102989D01*
X134037492Y-113392140D01*
X134373037Y-113531471D01*
X134510844Y-113864989D01*
X134799492Y-114154140D01*
X135135037Y-114293471D01*
X135272844Y-114626989D01*
X135561492Y-114916140D01*
X135897037Y-115055471D01*
X136034844Y-115388989D01*
X136323492Y-115678140D01*
X136659037Y-115817471D01*
X136796844Y-116150989D01*
X137085492Y-116440140D01*
X137421037Y-116579471D01*
X137558844Y-116912989D01*
X137847492Y-117202140D01*
X138183037Y-117341471D01*
X138320844Y-117674989D01*
X138609492Y-117964140D01*
X138945037Y-118103471D01*
X139082844Y-118436989D01*
X139371492Y-118726140D01*
X139707037Y-118865471D01*
X139844844Y-119198989D01*
X139864000Y-119218178D01*
X139864000Y-121920000D01*
X139928855Y-122246046D01*
X140113545Y-122522455D01*
X140626000Y-123034910D01*
X140626000Y-137569090D01*
X139093090Y-139102000D01*
X138176000Y-139102000D01*
X137849954Y-139166855D01*
X137622252Y-139319000D01*
X133157910Y-139319000D01*
X131292004Y-137453094D01*
X131292004Y-111720906D01*
X131495754Y-111517156D01*
X131521387Y-111517178D01*
X131898989Y-111361156D01*
X132036074Y-111224309D01*
X132087037Y-111245471D01*
G36*
X122996415Y-52274139D02*
X122641404Y-53129100D01*
X122640597Y-54054838D01*
X122994115Y-54910418D01*
X123648139Y-55565585D01*
X124503100Y-55920596D01*
X125428838Y-55921403D01*
X126284418Y-55567885D01*
X126939585Y-54913861D01*
X127294596Y-54058900D01*
X127295403Y-53133162D01*
X126941885Y-52277582D01*
X126774595Y-52110000D01*
X163292841Y-52110000D01*
X163128415Y-52274139D01*
X162773404Y-53129100D01*
X162772597Y-54054838D01*
X163126115Y-54910418D01*
X163780139Y-55565585D01*
X164635100Y-55920596D01*
X165560838Y-55921403D01*
X166416418Y-55567885D01*
X167071585Y-54913861D01*
X167426596Y-54058900D01*
X167427403Y-53133162D01*
X167073885Y-52277582D01*
X166906595Y-52110000D01*
X178522000Y-52110000D01*
X178522000Y-138644000D01*
X166624000Y-138644000D01*
X166581000Y-138652553D01*
X166581000Y-126877074D01*
X170508441Y-126877074D01*
X170998687Y-128063561D01*
X171905664Y-128972123D01*
X173091294Y-129464439D01*
X174375074Y-129465559D01*
X175561561Y-128975313D01*
X176470123Y-128068336D01*
X176962439Y-126882706D01*
X176963559Y-125598926D01*
X176473313Y-124412439D01*
X175566336Y-123503877D01*
X174380706Y-123011561D01*
X173096926Y-123010441D01*
X171910439Y-123500687D01*
X171001877Y-124407664D01*
X170509561Y-125593294D01*
X170508441Y-126877074D01*
X166581000Y-126877074D01*
X166581000Y-120142240D01*
X171047620Y-115675620D01*
X171313601Y-115277552D01*
X171407000Y-114808000D01*
X171407000Y-100584000D01*
X171313600Y-100114447D01*
X171047620Y-99716380D01*
X168507620Y-97176380D01*
X168109553Y-96910400D01*
X167640000Y-96817000D01*
X117602240Y-96817000D01*
X115437620Y-94652380D01*
X115039553Y-94386400D01*
X114570000Y-94293000D01*
X113979330Y-94293000D01*
X113909000Y-94278758D01*
X113726539Y-94278758D01*
X113483553Y-94116400D01*
X113014000Y-94023000D01*
X110306578Y-94023000D01*
X110168328Y-93808154D01*
X109925385Y-93642157D01*
X109637000Y-93583758D01*
X107787000Y-93583758D01*
X107517590Y-93634451D01*
X107270154Y-93793672D01*
X107104157Y-94036615D01*
X107045758Y-94325000D01*
X107045758Y-96175000D01*
X107096451Y-96444410D01*
X107255672Y-96691846D01*
X107498615Y-96857843D01*
X107522829Y-96862746D01*
X107354668Y-96920821D01*
X107140675Y-97503368D01*
X107165903Y-98123461D01*
X107354668Y-98579179D01*
X107613744Y-98668651D01*
X108532395Y-97750000D01*
X108518253Y-97735858D01*
X108697858Y-97556253D01*
X108712000Y-97570395D01*
X108726143Y-97556253D01*
X108905748Y-97735858D01*
X108891605Y-97750000D01*
X109810256Y-98668651D01*
X110069332Y-98579179D01*
X110283325Y-97996632D01*
X110275560Y-97805750D01*
X112024000Y-97805750D01*
X112024000Y-98146309D01*
X112120673Y-98379698D01*
X112299301Y-98558327D01*
X112532690Y-98655000D01*
X112998250Y-98655000D01*
X113157000Y-98496250D01*
X113157000Y-97647000D01*
X113411000Y-97647000D01*
X113411000Y-98496250D01*
X113569750Y-98655000D01*
X114035310Y-98655000D01*
X114268699Y-98558327D01*
X114447327Y-98379698D01*
X114544000Y-98146309D01*
X114544000Y-97805750D01*
X114385250Y-97647000D01*
X113411000Y-97647000D01*
X113157000Y-97647000D01*
X112182750Y-97647000D01*
X112024000Y-97805750D01*
X110275560Y-97805750D01*
X110258097Y-97376539D01*
X110069332Y-96920821D01*
X109907414Y-96864903D01*
X110153846Y-96706328D01*
X110310540Y-96477000D01*
X112089162Y-96477000D01*
X112127672Y-96536846D01*
X112196856Y-96584118D01*
X112120673Y-96660302D01*
X112024000Y-96893691D01*
X112024000Y-97234250D01*
X112182750Y-97393000D01*
X113157000Y-97393000D01*
X113157000Y-97373000D01*
X113411000Y-97373000D01*
X113411000Y-97393000D01*
X114385250Y-97393000D01*
X114544000Y-97234250D01*
X114544000Y-97229240D01*
X116226380Y-98911620D01*
X116624447Y-99177600D01*
X117094000Y-99271000D01*
X167131760Y-99271000D01*
X168953000Y-101092240D01*
X168953000Y-114299760D01*
X164486380Y-118766380D01*
X164220400Y-119164447D01*
X164127000Y-119634000D01*
X164127000Y-139319000D01*
X148143910Y-139319000D01*
X147668455Y-138843545D01*
X147392046Y-138658855D01*
X147066000Y-138594000D01*
X144370910Y-138594000D01*
X143854000Y-138077090D01*
X143854000Y-121504616D01*
X143872140Y-121486508D01*
X144028821Y-121109179D01*
X144029178Y-120700613D01*
X143873156Y-120323011D01*
X143584508Y-120033860D01*
X143248963Y-119894529D01*
X143111156Y-119561011D01*
X142822508Y-119271860D01*
X142486963Y-119132529D01*
X142349156Y-118799011D01*
X142258303Y-118708000D01*
X160782000Y-118708000D01*
X161108046Y-118643145D01*
X161384455Y-118458455D01*
X161892455Y-117950455D01*
X162077145Y-117674047D01*
X162142000Y-117348000D01*
X162142000Y-111966838D01*
X162772597Y-111966838D01*
X163126115Y-112822418D01*
X163780139Y-113477585D01*
X164635100Y-113832596D01*
X165560838Y-113833403D01*
X166416418Y-113479885D01*
X167071585Y-112825861D01*
X167426596Y-111970900D01*
X167427403Y-111045162D01*
X167073885Y-110189582D01*
X166419861Y-109534415D01*
X165564900Y-109179404D01*
X164639162Y-109178597D01*
X163783582Y-109532115D01*
X163128415Y-110186139D01*
X162773404Y-111041100D01*
X162772597Y-111966838D01*
X162142000Y-111966838D01*
X162142000Y-109064910D01*
X162531910Y-108675000D01*
X164973000Y-108675000D01*
X165299046Y-108610145D01*
X165575455Y-108425455D01*
X166210455Y-107790455D01*
X166395145Y-107514046D01*
X166460000Y-107188000D01*
X166460000Y-105715805D01*
X166723107Y-105540002D01*
X167064958Y-105028387D01*
X167185000Y-104424895D01*
X167185000Y-104363105D01*
X167064958Y-103759613D01*
X166723107Y-103247998D01*
X166537531Y-103124000D01*
X166723107Y-103000002D01*
X167064958Y-102488387D01*
X167185000Y-101884895D01*
X167185000Y-101823105D01*
X167064958Y-101219613D01*
X166723107Y-100707998D01*
X166211492Y-100366147D01*
X165608000Y-100246105D01*
X165004508Y-100366147D01*
X164492893Y-100707998D01*
X164338000Y-100939811D01*
X164183107Y-100707998D01*
X163671492Y-100366147D01*
X163068000Y-100246105D01*
X162464508Y-100366147D01*
X161952893Y-100707998D01*
X161798000Y-100939811D01*
X161643107Y-100707998D01*
X161131492Y-100366147D01*
X160528000Y-100246105D01*
X159924508Y-100366147D01*
X159412893Y-100707998D01*
X159258000Y-100939811D01*
X159103107Y-100707998D01*
X158591492Y-100366147D01*
X157988000Y-100246105D01*
X157384508Y-100366147D01*
X156872893Y-100707998D01*
X156718000Y-100939811D01*
X156563107Y-100707998D01*
X156051492Y-100366147D01*
X155448000Y-100246105D01*
X154844508Y-100366147D01*
X154332893Y-100707998D01*
X154178000Y-100939811D01*
X154023107Y-100707998D01*
X153511492Y-100366147D01*
X152908000Y-100246105D01*
X152304508Y-100366147D01*
X151792893Y-100707998D01*
X151638000Y-100939811D01*
X151483107Y-100707998D01*
X150971492Y-100366147D01*
X150368000Y-100246105D01*
X149764508Y-100366147D01*
X149252893Y-100707998D01*
X149098000Y-100939811D01*
X148943107Y-100707998D01*
X148431492Y-100366147D01*
X147828000Y-100246105D01*
X147224508Y-100366147D01*
X146712893Y-100707998D01*
X146505009Y-101019118D01*
X146483183Y-100972642D01*
X146054924Y-100582355D01*
X145644890Y-100412524D01*
X145415000Y-100533845D01*
X145415000Y-101727000D01*
X145435000Y-101727000D01*
X145435000Y-101981000D01*
X145415000Y-101981000D01*
X145415000Y-102001000D01*
X145161000Y-102001000D01*
X145161000Y-101981000D01*
X142875000Y-101981000D01*
X142875000Y-102001000D01*
X142621000Y-102001000D01*
X142621000Y-101981000D01*
X140335000Y-101981000D01*
X140335000Y-102001000D01*
X140081000Y-102001000D01*
X140081000Y-101981000D01*
X137795000Y-101981000D01*
X137795000Y-102001000D01*
X137541000Y-102001000D01*
X137541000Y-101981000D01*
X135255000Y-101981000D01*
X135255000Y-102001000D01*
X135001000Y-102001000D01*
X135001000Y-101981000D01*
X132715000Y-101981000D01*
X132715000Y-102001000D01*
X132461000Y-102001000D01*
X132461000Y-101981000D01*
X130175000Y-101981000D01*
X130175000Y-102001000D01*
X129921000Y-102001000D01*
X129921000Y-101981000D01*
X127635000Y-101981000D01*
X127635000Y-102001000D01*
X127381000Y-102001000D01*
X127381000Y-101981000D01*
X125095000Y-101981000D01*
X125095000Y-102001000D01*
X124841000Y-102001000D01*
X124841000Y-101981000D01*
X123641750Y-101981000D01*
X123483000Y-102139750D01*
X123483000Y-102830309D01*
X123579673Y-103063698D01*
X123758301Y-103242327D01*
X123835356Y-103274244D01*
X123511042Y-103759613D01*
X123391000Y-104363105D01*
X123391000Y-104424895D01*
X123511042Y-105028387D01*
X123852893Y-105540002D01*
X124116000Y-105715805D01*
X124116000Y-107188000D01*
X124180855Y-107514046D01*
X124365545Y-107790455D01*
X124873545Y-108298455D01*
X125149953Y-108483145D01*
X125476000Y-108548000D01*
X128753090Y-108548000D01*
X128429545Y-108871545D01*
X128244855Y-109147954D01*
X128180000Y-109474000D01*
X128180000Y-138585090D01*
X128171090Y-138594000D01*
X115824000Y-138594000D01*
X115497954Y-138658855D01*
X115221545Y-138843545D01*
X114746090Y-139319000D01*
X111520738Y-139319000D01*
X111484951Y-139139088D01*
X111311100Y-138878900D01*
X111050912Y-138705049D01*
X110744000Y-138644000D01*
X98846000Y-138644000D01*
X98846000Y-126877074D01*
X100404441Y-126877074D01*
X100894687Y-128063561D01*
X101801664Y-128972123D01*
X102987294Y-129464439D01*
X104271074Y-129465559D01*
X105457561Y-128975313D01*
X106366123Y-128068336D01*
X106858439Y-126882706D01*
X106859559Y-125598926D01*
X106369313Y-124412439D01*
X105462336Y-123503877D01*
X104276706Y-123011561D01*
X102992926Y-123010441D01*
X101806439Y-123500687D01*
X100897877Y-124407664D01*
X100405561Y-125593294D01*
X100404441Y-126877074D01*
X98846000Y-126877074D01*
X98846000Y-111966838D01*
X122640597Y-111966838D01*
X122994115Y-112822418D01*
X123648139Y-113477585D01*
X124503100Y-113832596D01*
X125428838Y-113833403D01*
X126284418Y-113479885D01*
X126939585Y-112825861D01*
X127294596Y-111970900D01*
X127295403Y-111045162D01*
X126941885Y-110189582D01*
X126287861Y-109534415D01*
X125432900Y-109179404D01*
X124507162Y-109178597D01*
X123651582Y-109532115D01*
X122996415Y-110186139D01*
X122641404Y-111041100D01*
X122640597Y-111966838D01*
X98846000Y-111966838D01*
X98846000Y-100877691D01*
X123483000Y-100877691D01*
X123483000Y-101568250D01*
X123641750Y-101727000D01*
X124841000Y-101727000D01*
X124841000Y-100527750D01*
X125095000Y-100527750D01*
X125095000Y-101727000D01*
X127381000Y-101727000D01*
X127381000Y-100533845D01*
X127635000Y-100533845D01*
X127635000Y-101727000D01*
X129921000Y-101727000D01*
X129921000Y-100533845D01*
X130175000Y-100533845D01*
X130175000Y-101727000D01*
X132461000Y-101727000D01*
X132461000Y-100533845D01*
X132715000Y-100533845D01*
X132715000Y-101727000D01*
X135001000Y-101727000D01*
X135001000Y-100533845D01*
X135255000Y-100533845D01*
X135255000Y-101727000D01*
X137541000Y-101727000D01*
X137541000Y-100533845D01*
X137795000Y-100533845D01*
X137795000Y-101727000D01*
X140081000Y-101727000D01*
X140081000Y-100533845D01*
X140335000Y-100533845D01*
X140335000Y-101727000D01*
X142621000Y-101727000D01*
X142621000Y-100533845D01*
X142875000Y-100533845D01*
X142875000Y-101727000D01*
X145161000Y-101727000D01*
X145161000Y-100533845D01*
X144931110Y-100412524D01*
X144521076Y-100582355D01*
X144092817Y-100972642D01*
X144018000Y-101131954D01*
X143943183Y-100972642D01*
X143514924Y-100582355D01*
X143104890Y-100412524D01*
X142875000Y-100533845D01*
X142621000Y-100533845D01*
X142391110Y-100412524D01*
X141981076Y-100582355D01*
X141552817Y-100972642D01*
X141478000Y-101131954D01*
X141403183Y-100972642D01*
X140974924Y-100582355D01*
X140564890Y-100412524D01*
X140335000Y-100533845D01*
X140081000Y-100533845D01*
X139851110Y-100412524D01*
X139441076Y-100582355D01*
X139012817Y-100972642D01*
X138938000Y-101131954D01*
X138863183Y-100972642D01*
X138434924Y-100582355D01*
X138024890Y-100412524D01*
X137795000Y-100533845D01*
X137541000Y-100533845D01*
X137311110Y-100412524D01*
X136901076Y-100582355D01*
X136472817Y-100972642D01*
X136398000Y-101131954D01*
X136323183Y-100972642D01*
X135894924Y-100582355D01*
X135484890Y-100412524D01*
X135255000Y-100533845D01*
X135001000Y-100533845D01*
X134771110Y-100412524D01*
X134361076Y-100582355D01*
X133932817Y-100972642D01*
X133858000Y-101131954D01*
X133783183Y-100972642D01*
X133354924Y-100582355D01*
X132944890Y-100412524D01*
X132715000Y-100533845D01*
X132461000Y-100533845D01*
X132231110Y-100412524D01*
X131821076Y-100582355D01*
X131392817Y-100972642D01*
X131318000Y-101131954D01*
X131243183Y-100972642D01*
X130814924Y-100582355D01*
X130404890Y-100412524D01*
X130175000Y-100533845D01*
X129921000Y-100533845D01*
X129691110Y-100412524D01*
X129281076Y-100582355D01*
X128852817Y-100972642D01*
X128778000Y-101131954D01*
X128703183Y-100972642D01*
X128274924Y-100582355D01*
X127864890Y-100412524D01*
X127635000Y-100533845D01*
X127381000Y-100533845D01*
X127151110Y-100412524D01*
X126741076Y-100582355D01*
X126443136Y-100853878D01*
X126356327Y-100644302D01*
X126177699Y-100465673D01*
X125944310Y-100369000D01*
X125253750Y-100369000D01*
X125095000Y-100527750D01*
X124841000Y-100527750D01*
X124682250Y-100369000D01*
X123991690Y-100369000D01*
X123758301Y-100465673D01*
X123579673Y-100644302D01*
X123483000Y-100877691D01*
X98846000Y-100877691D01*
X98846000Y-98848256D01*
X107793349Y-98848256D01*
X107882821Y-99107332D01*
X108465368Y-99321325D01*
X109085461Y-99296097D01*
X109541179Y-99107332D01*
X109630651Y-98848256D01*
X108712000Y-97929605D01*
X107793349Y-98848256D01*
X98846000Y-98848256D01*
X98846000Y-88100256D01*
X107793349Y-88100256D01*
X107882821Y-88359332D01*
X108465368Y-88573325D01*
X109085461Y-88548097D01*
X109541179Y-88359332D01*
X109630651Y-88100256D01*
X108712000Y-87181605D01*
X107793349Y-88100256D01*
X98846000Y-88100256D01*
X98846000Y-86755368D01*
X107140675Y-86755368D01*
X107165903Y-87375461D01*
X107354668Y-87831179D01*
X107613744Y-87920651D01*
X108532395Y-87002000D01*
X108891605Y-87002000D01*
X109810256Y-87920651D01*
X110069332Y-87831179D01*
X110283325Y-87248632D01*
X110258097Y-86628539D01*
X110069332Y-86172821D01*
X109810256Y-86083349D01*
X108891605Y-87002000D01*
X108532395Y-87002000D01*
X107613744Y-86083349D01*
X107354668Y-86172821D01*
X107140675Y-86755368D01*
X98846000Y-86755368D01*
X98846000Y-78577000D01*
X107045758Y-78577000D01*
X107045758Y-80427000D01*
X107096451Y-80696410D01*
X107255672Y-80943846D01*
X107361348Y-81016052D01*
X107312319Y-81064995D01*
X107060287Y-81671955D01*
X107059713Y-82329162D01*
X107310686Y-82936561D01*
X107625718Y-83252143D01*
X107312319Y-83564995D01*
X107060287Y-84171955D01*
X107059713Y-84829162D01*
X107310686Y-85436561D01*
X107774995Y-85901681D01*
X107802854Y-85913249D01*
X108712000Y-86822395D01*
X109620181Y-85914214D01*
X109646561Y-85903314D01*
X110111681Y-85439005D01*
X110146978Y-85354000D01*
X114126000Y-85354000D01*
X114452046Y-85289145D01*
X114728455Y-85104455D01*
X114985754Y-84847156D01*
X115011387Y-84847178D01*
X115388989Y-84691156D01*
X115678140Y-84402508D01*
X115834821Y-84025179D01*
X115835178Y-83616613D01*
X115679156Y-83239011D01*
X115390508Y-82949860D01*
X115013179Y-82793179D01*
X114604613Y-82792822D01*
X114227011Y-82948844D01*
X113937860Y-83237492D01*
X113781179Y-83614821D01*
X113781155Y-83641935D01*
X113773090Y-83650000D01*
X110147428Y-83650000D01*
X110113314Y-83567439D01*
X109798282Y-83251857D01*
X110111681Y-82939005D01*
X110235839Y-82640000D01*
X114969384Y-82640000D01*
X114987492Y-82658140D01*
X115364821Y-82814821D01*
X115773387Y-82815178D01*
X116150989Y-82659156D01*
X116440140Y-82370508D01*
X116596821Y-81993179D01*
X116597178Y-81584613D01*
X116441156Y-81207011D01*
X116152508Y-80917860D01*
X115775179Y-80761179D01*
X115366613Y-80760822D01*
X114989011Y-80916844D01*
X114969822Y-80936000D01*
X110169102Y-80936000D01*
X110319843Y-80715385D01*
X110378242Y-80427000D01*
X110378242Y-80354000D01*
X115731384Y-80354000D01*
X115749492Y-80372140D01*
X116126821Y-80528821D01*
X116535387Y-80529178D01*
X116912989Y-80373156D01*
X117202140Y-80084508D01*
X117358821Y-79707179D01*
X117359178Y-79298613D01*
X117203156Y-78921011D01*
X116914508Y-78631860D01*
X116537179Y-78475179D01*
X116128613Y-78474822D01*
X115751011Y-78630844D01*
X115731822Y-78650000D01*
X110378242Y-78650000D01*
X110378242Y-78577000D01*
X110327549Y-78307590D01*
X110168328Y-78060154D01*
X109925385Y-77894157D01*
X109637000Y-77835758D01*
X107787000Y-77835758D01*
X107517590Y-77886451D01*
X107270154Y-78045672D01*
X107104157Y-78288615D01*
X107045758Y-78577000D01*
X98846000Y-78577000D01*
X98846000Y-72013074D01*
X100404441Y-72013074D01*
X100894687Y-73199561D01*
X101801664Y-74108123D01*
X102987294Y-74600439D01*
X104271074Y-74601559D01*
X105457561Y-74111313D01*
X106366123Y-73204336D01*
X106858439Y-72018706D01*
X106859559Y-70734926D01*
X106757976Y-70489074D01*
X170508441Y-70489074D01*
X170998687Y-71675561D01*
X171905664Y-72584123D01*
X173091294Y-73076439D01*
X174375074Y-73077559D01*
X175561561Y-72587313D01*
X176470123Y-71680336D01*
X176962439Y-70494706D01*
X176963559Y-69210926D01*
X176473313Y-68024439D01*
X175566336Y-67115877D01*
X174380706Y-66623561D01*
X173096926Y-66622441D01*
X171910439Y-67112687D01*
X171001877Y-68019664D01*
X170509561Y-69205294D01*
X170508441Y-70489074D01*
X106757976Y-70489074D01*
X106369313Y-69548439D01*
X105462336Y-68639877D01*
X104276706Y-68147561D01*
X102992926Y-68146441D01*
X101806439Y-68636687D01*
X100897877Y-69543664D01*
X100405561Y-70729294D01*
X100404441Y-72013074D01*
X98846000Y-72013074D01*
X98846000Y-59697750D01*
X105541000Y-59697750D01*
X105541000Y-60978310D01*
X105637673Y-61211699D01*
X105816302Y-61390327D01*
X106049691Y-61487000D01*
X106450250Y-61487000D01*
X106609000Y-61328250D01*
X106609000Y-59539000D01*
X106863000Y-59539000D01*
X106863000Y-61328250D01*
X107021750Y-61487000D01*
X107422309Y-61487000D01*
X107655698Y-61390327D01*
X107834327Y-61211699D01*
X107931000Y-60978310D01*
X107931000Y-59697750D01*
X107772250Y-59539000D01*
X106863000Y-59539000D01*
X106609000Y-59539000D01*
X105699750Y-59539000D01*
X105541000Y-59697750D01*
X98846000Y-59697750D01*
X98846000Y-57285970D01*
X102331635Y-57285970D01*
X102491418Y-57604739D01*
X103282187Y-57914723D01*
X104131387Y-57898497D01*
X104258874Y-57845690D01*
X105541000Y-57845690D01*
X105541000Y-59126250D01*
X105699750Y-59285000D01*
X106609000Y-59285000D01*
X106609000Y-57495750D01*
X106863000Y-57495750D01*
X106863000Y-59285000D01*
X107772250Y-59285000D01*
X107931000Y-59126250D01*
X107931000Y-57972000D01*
X107934758Y-57972000D01*
X107934758Y-60852000D01*
X107985451Y-61121410D01*
X108144672Y-61368846D01*
X108368000Y-61521441D01*
X108368000Y-62645384D01*
X108349860Y-62663492D01*
X108193179Y-63040821D01*
X108192822Y-63449387D01*
X108348844Y-63826989D01*
X108637492Y-64116140D01*
X109014821Y-64272821D01*
X109423387Y-64273178D01*
X109800989Y-64117156D01*
X110090140Y-63828508D01*
X110236165Y-63476840D01*
X110380844Y-63826989D01*
X110669492Y-64116140D01*
X111046821Y-64272821D01*
X111455387Y-64273178D01*
X111832989Y-64117156D01*
X112122140Y-63828508D01*
X112278821Y-63451179D01*
X112279178Y-63042613D01*
X112123156Y-62665011D01*
X112088000Y-62629794D01*
X112088000Y-61528013D01*
X112312846Y-61383328D01*
X112478843Y-61140385D01*
X112484119Y-61114331D01*
X112485451Y-61121410D01*
X112644672Y-61368846D01*
X112887615Y-61534843D01*
X112940000Y-61545451D01*
X112940000Y-62645384D01*
X112921860Y-62663492D01*
X112765179Y-63040821D01*
X112764822Y-63449387D01*
X112920844Y-63826989D01*
X113209492Y-64116140D01*
X113586821Y-64272821D01*
X113995387Y-64273178D01*
X114372989Y-64117156D01*
X114662140Y-63828508D01*
X114818821Y-63451179D01*
X114819178Y-63042613D01*
X114663156Y-62665011D01*
X114644000Y-62645822D01*
X114644000Y-61491978D01*
X114812846Y-61383328D01*
X114978843Y-61140385D01*
X115037242Y-60852000D01*
X115037242Y-57972000D01*
X114986549Y-57702590D01*
X114827328Y-57455154D01*
X114584385Y-57289157D01*
X114568648Y-57285970D01*
X115471635Y-57285970D01*
X115631418Y-57604739D01*
X116422187Y-57914723D01*
X117271387Y-57898497D01*
X117980582Y-57604739D01*
X118140365Y-57285970D01*
X116806000Y-55951605D01*
X115471635Y-57285970D01*
X114568648Y-57285970D01*
X114296000Y-57230758D01*
X113176000Y-57230758D01*
X112906590Y-57281451D01*
X112659154Y-57440672D01*
X112493157Y-57683615D01*
X112487881Y-57709669D01*
X112486549Y-57702590D01*
X112327328Y-57455154D01*
X112084385Y-57289157D01*
X111796000Y-57230758D01*
X110676000Y-57230758D01*
X110406590Y-57281451D01*
X110234848Y-57391964D01*
X110084385Y-57289157D01*
X109796000Y-57230758D01*
X108676000Y-57230758D01*
X108406590Y-57281451D01*
X108159154Y-57440672D01*
X107993157Y-57683615D01*
X107934758Y-57972000D01*
X107931000Y-57972000D01*
X107931000Y-57845690D01*
X107834327Y-57612301D01*
X107655698Y-57433673D01*
X107422309Y-57337000D01*
X107021750Y-57337000D01*
X106863000Y-57495750D01*
X106609000Y-57495750D01*
X106450250Y-57337000D01*
X106049691Y-57337000D01*
X105816302Y-57433673D01*
X105637673Y-57612301D01*
X105541000Y-57845690D01*
X104258874Y-57845690D01*
X104840582Y-57604739D01*
X105000365Y-57285970D01*
X103666000Y-55951605D01*
X102331635Y-57285970D01*
X98846000Y-57285970D01*
X98846000Y-55388187D01*
X101523277Y-55388187D01*
X101539503Y-56237387D01*
X101833261Y-56946582D01*
X102152030Y-57106365D01*
X103486395Y-55772000D01*
X103845605Y-55772000D01*
X105179970Y-57106365D01*
X105498739Y-56946582D01*
X105808723Y-56155813D01*
X105794056Y-55388187D01*
X114663277Y-55388187D01*
X114679503Y-56237387D01*
X114973261Y-56946582D01*
X115292030Y-57106365D01*
X116626395Y-55772000D01*
X116985605Y-55772000D01*
X118319970Y-57106365D01*
X118638739Y-56946582D01*
X118948723Y-56155813D01*
X118932497Y-55306613D01*
X118638739Y-54597418D01*
X118319970Y-54437635D01*
X116985605Y-55772000D01*
X116626395Y-55772000D01*
X115292030Y-54437635D01*
X114973261Y-54597418D01*
X114663277Y-55388187D01*
X105794056Y-55388187D01*
X105792497Y-55306613D01*
X105498739Y-54597418D01*
X105179970Y-54437635D01*
X103845605Y-55772000D01*
X103486395Y-55772000D01*
X102152030Y-54437635D01*
X101833261Y-54597418D01*
X101523277Y-55388187D01*
X98846000Y-55388187D01*
X98846000Y-54258030D01*
X102331635Y-54258030D01*
X103666000Y-55592395D01*
X105000365Y-54258030D01*
X115471635Y-54258030D01*
X116806000Y-55592395D01*
X118140365Y-54258030D01*
X117980582Y-53939261D01*
X117189813Y-53629277D01*
X116340613Y-53645503D01*
X115631418Y-53939261D01*
X115471635Y-54258030D01*
X105000365Y-54258030D01*
X104840582Y-53939261D01*
X104049813Y-53629277D01*
X103200613Y-53645503D01*
X102491418Y-53939261D01*
X102331635Y-54258030D01*
X98846000Y-54258030D01*
X98846000Y-52110000D01*
X123160841Y-52110000D01*
X122996415Y-52274139D01*
X122996415Y-52274139D01*
G37*
X122996415Y-52274139D02*
X122641404Y-53129100D01*
X122640597Y-54054838D01*
X122994115Y-54910418D01*
X123648139Y-55565585D01*
X124503100Y-55920596D01*
X125428838Y-55921403D01*
X126284418Y-55567885D01*
X126939585Y-54913861D01*
X127294596Y-54058900D01*
X127295403Y-53133162D01*
X126941885Y-52277582D01*
X126774595Y-52110000D01*
X163292841Y-52110000D01*
X163128415Y-52274139D01*
X162773404Y-53129100D01*
X162772597Y-54054838D01*
X163126115Y-54910418D01*
X163780139Y-55565585D01*
X164635100Y-55920596D01*
X165560838Y-55921403D01*
X166416418Y-55567885D01*
X167071585Y-54913861D01*
X167426596Y-54058900D01*
X167427403Y-53133162D01*
X167073885Y-52277582D01*
X166906595Y-52110000D01*
X178522000Y-52110000D01*
X178522000Y-138644000D01*
X166624000Y-138644000D01*
X166581000Y-138652553D01*
X166581000Y-126877074D01*
X170508441Y-126877074D01*
X170998687Y-128063561D01*
X171905664Y-128972123D01*
X173091294Y-129464439D01*
X174375074Y-129465559D01*
X175561561Y-128975313D01*
X176470123Y-128068336D01*
X176962439Y-126882706D01*
X176963559Y-125598926D01*
X176473313Y-124412439D01*
X175566336Y-123503877D01*
X174380706Y-123011561D01*
X173096926Y-123010441D01*
X171910439Y-123500687D01*
X171001877Y-124407664D01*
X170509561Y-125593294D01*
X170508441Y-126877074D01*
X166581000Y-126877074D01*
X166581000Y-120142240D01*
X171047620Y-115675620D01*
X171313601Y-115277552D01*
X171407000Y-114808000D01*
X171407000Y-100584000D01*
X171313600Y-100114447D01*
X171047620Y-99716380D01*
X168507620Y-97176380D01*
X168109553Y-96910400D01*
X167640000Y-96817000D01*
X117602240Y-96817000D01*
X115437620Y-94652380D01*
X115039553Y-94386400D01*
X114570000Y-94293000D01*
X113979330Y-94293000D01*
X113909000Y-94278758D01*
X113726539Y-94278758D01*
X113483553Y-94116400D01*
X113014000Y-94023000D01*
X110306578Y-94023000D01*
X110168328Y-93808154D01*
X109925385Y-93642157D01*
X109637000Y-93583758D01*
X107787000Y-93583758D01*
X107517590Y-93634451D01*
X107270154Y-93793672D01*
X107104157Y-94036615D01*
X107045758Y-94325000D01*
X107045758Y-96175000D01*
X107096451Y-96444410D01*
X107255672Y-96691846D01*
X107498615Y-96857843D01*
X107522829Y-96862746D01*
X107354668Y-96920821D01*
X107140675Y-97503368D01*
X107165903Y-98123461D01*
X107354668Y-98579179D01*
X107613744Y-98668651D01*
X108532395Y-97750000D01*
X108518253Y-97735858D01*
X108697858Y-97556253D01*
X108712000Y-97570395D01*
X108726143Y-97556253D01*
X108905748Y-97735858D01*
X108891605Y-97750000D01*
X109810256Y-98668651D01*
X110069332Y-98579179D01*
X110283325Y-97996632D01*
X110275560Y-97805750D01*
X112024000Y-97805750D01*
X112024000Y-98146309D01*
X112120673Y-98379698D01*
X112299301Y-98558327D01*
X112532690Y-98655000D01*
X112998250Y-98655000D01*
X113157000Y-98496250D01*
X113157000Y-97647000D01*
X113411000Y-97647000D01*
X113411000Y-98496250D01*
X113569750Y-98655000D01*
X114035310Y-98655000D01*
X114268699Y-98558327D01*
X114447327Y-98379698D01*
X114544000Y-98146309D01*
X114544000Y-97805750D01*
X114385250Y-97647000D01*
X113411000Y-97647000D01*
X113157000Y-97647000D01*
X112182750Y-97647000D01*
X112024000Y-97805750D01*
X110275560Y-97805750D01*
X110258097Y-97376539D01*
X110069332Y-96920821D01*
X109907414Y-96864903D01*
X110153846Y-96706328D01*
X110310540Y-96477000D01*
X112089162Y-96477000D01*
X112127672Y-96536846D01*
X112196856Y-96584118D01*
X112120673Y-96660302D01*
X112024000Y-96893691D01*
X112024000Y-97234250D01*
X112182750Y-97393000D01*
X113157000Y-97393000D01*
X113157000Y-97373000D01*
X113411000Y-97373000D01*
X113411000Y-97393000D01*
X114385250Y-97393000D01*
X114544000Y-97234250D01*
X114544000Y-97229240D01*
X116226380Y-98911620D01*
X116624447Y-99177600D01*
X117094000Y-99271000D01*
X167131760Y-99271000D01*
X168953000Y-101092240D01*
X168953000Y-114299760D01*
X164486380Y-118766380D01*
X164220400Y-119164447D01*
X164127000Y-119634000D01*
X164127000Y-139319000D01*
X148143910Y-139319000D01*
X147668455Y-138843545D01*
X147392046Y-138658855D01*
X147066000Y-138594000D01*
X144370910Y-138594000D01*
X143854000Y-138077090D01*
X143854000Y-121504616D01*
X143872140Y-121486508D01*
X144028821Y-121109179D01*
X144029178Y-120700613D01*
X143873156Y-120323011D01*
X143584508Y-120033860D01*
X143248963Y-119894529D01*
X143111156Y-119561011D01*
X142822508Y-119271860D01*
X142486963Y-119132529D01*
X142349156Y-118799011D01*
X142258303Y-118708000D01*
X160782000Y-118708000D01*
X161108046Y-118643145D01*
X161384455Y-118458455D01*
X161892455Y-117950455D01*
X162077145Y-117674047D01*
X162142000Y-117348000D01*
X162142000Y-111966838D01*
X162772597Y-111966838D01*
X163126115Y-112822418D01*
X163780139Y-113477585D01*
X164635100Y-113832596D01*
X165560838Y-113833403D01*
X166416418Y-113479885D01*
X167071585Y-112825861D01*
X167426596Y-111970900D01*
X167427403Y-111045162D01*
X167073885Y-110189582D01*
X166419861Y-109534415D01*
X165564900Y-109179404D01*
X164639162Y-109178597D01*
X163783582Y-109532115D01*
X163128415Y-110186139D01*
X162773404Y-111041100D01*
X162772597Y-111966838D01*
X162142000Y-111966838D01*
X162142000Y-109064910D01*
X162531910Y-108675000D01*
X164973000Y-108675000D01*
X165299046Y-108610145D01*
X165575455Y-108425455D01*
X166210455Y-107790455D01*
X166395145Y-107514046D01*
X166460000Y-107188000D01*
X166460000Y-105715805D01*
X166723107Y-105540002D01*
X167064958Y-105028387D01*
X167185000Y-104424895D01*
X167185000Y-104363105D01*
X167064958Y-103759613D01*
X166723107Y-103247998D01*
X166537531Y-103124000D01*
X166723107Y-103000002D01*
X167064958Y-102488387D01*
X167185000Y-101884895D01*
X167185000Y-101823105D01*
X167064958Y-101219613D01*
X166723107Y-100707998D01*
X166211492Y-100366147D01*
X165608000Y-100246105D01*
X165004508Y-100366147D01*
X164492893Y-100707998D01*
X164338000Y-100939811D01*
X164183107Y-100707998D01*
X163671492Y-100366147D01*
X163068000Y-100246105D01*
X162464508Y-100366147D01*
X161952893Y-100707998D01*
X161798000Y-100939811D01*
X161643107Y-100707998D01*
X161131492Y-100366147D01*
X160528000Y-100246105D01*
X159924508Y-100366147D01*
X159412893Y-100707998D01*
X159258000Y-100939811D01*
X159103107Y-100707998D01*
X158591492Y-100366147D01*
X157988000Y-100246105D01*
X157384508Y-100366147D01*
X156872893Y-100707998D01*
X156718000Y-100939811D01*
X156563107Y-100707998D01*
X156051492Y-100366147D01*
X155448000Y-100246105D01*
X154844508Y-100366147D01*
X154332893Y-100707998D01*
X154178000Y-100939811D01*
X154023107Y-100707998D01*
X153511492Y-100366147D01*
X152908000Y-100246105D01*
X152304508Y-100366147D01*
X151792893Y-100707998D01*
X151638000Y-100939811D01*
X151483107Y-100707998D01*
X150971492Y-100366147D01*
X150368000Y-100246105D01*
X149764508Y-100366147D01*
X149252893Y-100707998D01*
X149098000Y-100939811D01*
X148943107Y-100707998D01*
X148431492Y-100366147D01*
X147828000Y-100246105D01*
X147224508Y-100366147D01*
X146712893Y-100707998D01*
X146505009Y-101019118D01*
X146483183Y-100972642D01*
X146054924Y-100582355D01*
X145644890Y-100412524D01*
X145415000Y-100533845D01*
X145415000Y-101727000D01*
X145435000Y-101727000D01*
X145435000Y-101981000D01*
X145415000Y-101981000D01*
X145415000Y-102001000D01*
X145161000Y-102001000D01*
X145161000Y-101981000D01*
X142875000Y-101981000D01*
X142875000Y-102001000D01*
X142621000Y-102001000D01*
X142621000Y-101981000D01*
X140335000Y-101981000D01*
X140335000Y-102001000D01*
X140081000Y-102001000D01*
X140081000Y-101981000D01*
X137795000Y-101981000D01*
X137795000Y-102001000D01*
X137541000Y-102001000D01*
X137541000Y-101981000D01*
X135255000Y-101981000D01*
X135255000Y-102001000D01*
X135001000Y-102001000D01*
X135001000Y-101981000D01*
X132715000Y-101981000D01*
X132715000Y-102001000D01*
X132461000Y-102001000D01*
X132461000Y-101981000D01*
X130175000Y-101981000D01*
X130175000Y-102001000D01*
X129921000Y-102001000D01*
X129921000Y-101981000D01*
X127635000Y-101981000D01*
X127635000Y-102001000D01*
X127381000Y-102001000D01*
X127381000Y-101981000D01*
X125095000Y-101981000D01*
X125095000Y-102001000D01*
X124841000Y-102001000D01*
X124841000Y-101981000D01*
X123641750Y-101981000D01*
X123483000Y-102139750D01*
X123483000Y-102830309D01*
X123579673Y-103063698D01*
X123758301Y-103242327D01*
X123835356Y-103274244D01*
X123511042Y-103759613D01*
X123391000Y-104363105D01*
X123391000Y-104424895D01*
X123511042Y-105028387D01*
X123852893Y-105540002D01*
X124116000Y-105715805D01*
X124116000Y-107188000D01*
X124180855Y-107514046D01*
X124365545Y-107790455D01*
X124873545Y-108298455D01*
X125149953Y-108483145D01*
X125476000Y-108548000D01*
X128753090Y-108548000D01*
X128429545Y-108871545D01*
X128244855Y-109147954D01*
X128180000Y-109474000D01*
X128180000Y-138585090D01*
X128171090Y-138594000D01*
X115824000Y-138594000D01*
X115497954Y-138658855D01*
X115221545Y-138843545D01*
X114746090Y-139319000D01*
X111520738Y-139319000D01*
X111484951Y-139139088D01*
X111311100Y-138878900D01*
X111050912Y-138705049D01*
X110744000Y-138644000D01*
X98846000Y-138644000D01*
X98846000Y-126877074D01*
X100404441Y-126877074D01*
X100894687Y-128063561D01*
X101801664Y-128972123D01*
X102987294Y-129464439D01*
X104271074Y-129465559D01*
X105457561Y-128975313D01*
X106366123Y-128068336D01*
X106858439Y-126882706D01*
X106859559Y-125598926D01*
X106369313Y-124412439D01*
X105462336Y-123503877D01*
X104276706Y-123011561D01*
X102992926Y-123010441D01*
X101806439Y-123500687D01*
X100897877Y-124407664D01*
X100405561Y-125593294D01*
X100404441Y-126877074D01*
X98846000Y-126877074D01*
X98846000Y-111966838D01*
X122640597Y-111966838D01*
X122994115Y-112822418D01*
X123648139Y-113477585D01*
X124503100Y-113832596D01*
X125428838Y-113833403D01*
X126284418Y-113479885D01*
X126939585Y-112825861D01*
X127294596Y-111970900D01*
X127295403Y-111045162D01*
X126941885Y-110189582D01*
X126287861Y-109534415D01*
X125432900Y-109179404D01*
X124507162Y-109178597D01*
X123651582Y-109532115D01*
X122996415Y-110186139D01*
X122641404Y-111041100D01*
X122640597Y-111966838D01*
X98846000Y-111966838D01*
X98846000Y-100877691D01*
X123483000Y-100877691D01*
X123483000Y-101568250D01*
X123641750Y-101727000D01*
X124841000Y-101727000D01*
X124841000Y-100527750D01*
X125095000Y-100527750D01*
X125095000Y-101727000D01*
X127381000Y-101727000D01*
X127381000Y-100533845D01*
X127635000Y-100533845D01*
X127635000Y-101727000D01*
X129921000Y-101727000D01*
X129921000Y-100533845D01*
X130175000Y-100533845D01*
X130175000Y-101727000D01*
X132461000Y-101727000D01*
X132461000Y-100533845D01*
X132715000Y-100533845D01*
X132715000Y-101727000D01*
X135001000Y-101727000D01*
X135001000Y-100533845D01*
X135255000Y-100533845D01*
X135255000Y-101727000D01*
X137541000Y-101727000D01*
X137541000Y-100533845D01*
X137795000Y-100533845D01*
X137795000Y-101727000D01*
X140081000Y-101727000D01*
X140081000Y-100533845D01*
X140335000Y-100533845D01*
X140335000Y-101727000D01*
X142621000Y-101727000D01*
X142621000Y-100533845D01*
X142875000Y-100533845D01*
X142875000Y-101727000D01*
X145161000Y-101727000D01*
X145161000Y-100533845D01*
X144931110Y-100412524D01*
X144521076Y-100582355D01*
X144092817Y-100972642D01*
X144018000Y-101131954D01*
X143943183Y-100972642D01*
X143514924Y-100582355D01*
X143104890Y-100412524D01*
X142875000Y-100533845D01*
X142621000Y-100533845D01*
X142391110Y-100412524D01*
X141981076Y-100582355D01*
X141552817Y-100972642D01*
X141478000Y-101131954D01*
X141403183Y-100972642D01*
X140974924Y-100582355D01*
X140564890Y-100412524D01*
X140335000Y-100533845D01*
X140081000Y-100533845D01*
X139851110Y-100412524D01*
X139441076Y-100582355D01*
X139012817Y-100972642D01*
X138938000Y-101131954D01*
X138863183Y-100972642D01*
X138434924Y-100582355D01*
X138024890Y-100412524D01*
X137795000Y-100533845D01*
X137541000Y-100533845D01*
X137311110Y-100412524D01*
X136901076Y-100582355D01*
X136472817Y-100972642D01*
X136398000Y-101131954D01*
X136323183Y-100972642D01*
X135894924Y-100582355D01*
X135484890Y-100412524D01*
X135255000Y-100533845D01*
X135001000Y-100533845D01*
X134771110Y-100412524D01*
X134361076Y-100582355D01*
X133932817Y-100972642D01*
X133858000Y-101131954D01*
X133783183Y-100972642D01*
X133354924Y-100582355D01*
X132944890Y-100412524D01*
X132715000Y-100533845D01*
X132461000Y-100533845D01*
X132231110Y-100412524D01*
X131821076Y-100582355D01*
X131392817Y-100972642D01*
X131318000Y-101131954D01*
X131243183Y-100972642D01*
X130814924Y-100582355D01*
X130404890Y-100412524D01*
X130175000Y-100533845D01*
X129921000Y-100533845D01*
X129691110Y-100412524D01*
X129281076Y-100582355D01*
X128852817Y-100972642D01*
X128778000Y-101131954D01*
X128703183Y-100972642D01*
X128274924Y-100582355D01*
X127864890Y-100412524D01*
X127635000Y-100533845D01*
X127381000Y-100533845D01*
X127151110Y-100412524D01*
X126741076Y-100582355D01*
X126443136Y-100853878D01*
X126356327Y-100644302D01*
X126177699Y-100465673D01*
X125944310Y-100369000D01*
X125253750Y-100369000D01*
X125095000Y-100527750D01*
X124841000Y-100527750D01*
X124682250Y-100369000D01*
X123991690Y-100369000D01*
X123758301Y-100465673D01*
X123579673Y-100644302D01*
X123483000Y-100877691D01*
X98846000Y-100877691D01*
X98846000Y-98848256D01*
X107793349Y-98848256D01*
X107882821Y-99107332D01*
X108465368Y-99321325D01*
X109085461Y-99296097D01*
X109541179Y-99107332D01*
X109630651Y-98848256D01*
X108712000Y-97929605D01*
X107793349Y-98848256D01*
X98846000Y-98848256D01*
X98846000Y-88100256D01*
X107793349Y-88100256D01*
X107882821Y-88359332D01*
X108465368Y-88573325D01*
X109085461Y-88548097D01*
X109541179Y-88359332D01*
X109630651Y-88100256D01*
X108712000Y-87181605D01*
X107793349Y-88100256D01*
X98846000Y-88100256D01*
X98846000Y-86755368D01*
X107140675Y-86755368D01*
X107165903Y-87375461D01*
X107354668Y-87831179D01*
X107613744Y-87920651D01*
X108532395Y-87002000D01*
X108891605Y-87002000D01*
X109810256Y-87920651D01*
X110069332Y-87831179D01*
X110283325Y-87248632D01*
X110258097Y-86628539D01*
X110069332Y-86172821D01*
X109810256Y-86083349D01*
X108891605Y-87002000D01*
X108532395Y-87002000D01*
X107613744Y-86083349D01*
X107354668Y-86172821D01*
X107140675Y-86755368D01*
X98846000Y-86755368D01*
X98846000Y-78577000D01*
X107045758Y-78577000D01*
X107045758Y-80427000D01*
X107096451Y-80696410D01*
X107255672Y-80943846D01*
X107361348Y-81016052D01*
X107312319Y-81064995D01*
X107060287Y-81671955D01*
X107059713Y-82329162D01*
X107310686Y-82936561D01*
X107625718Y-83252143D01*
X107312319Y-83564995D01*
X107060287Y-84171955D01*
X107059713Y-84829162D01*
X107310686Y-85436561D01*
X107774995Y-85901681D01*
X107802854Y-85913249D01*
X108712000Y-86822395D01*
X109620181Y-85914214D01*
X109646561Y-85903314D01*
X110111681Y-85439005D01*
X110146978Y-85354000D01*
X114126000Y-85354000D01*
X114452046Y-85289145D01*
X114728455Y-85104455D01*
X114985754Y-84847156D01*
X115011387Y-84847178D01*
X115388989Y-84691156D01*
X115678140Y-84402508D01*
X115834821Y-84025179D01*
X115835178Y-83616613D01*
X115679156Y-83239011D01*
X115390508Y-82949860D01*
X115013179Y-82793179D01*
X114604613Y-82792822D01*
X114227011Y-82948844D01*
X113937860Y-83237492D01*
X113781179Y-83614821D01*
X113781155Y-83641935D01*
X113773090Y-83650000D01*
X110147428Y-83650000D01*
X110113314Y-83567439D01*
X109798282Y-83251857D01*
X110111681Y-82939005D01*
X110235839Y-82640000D01*
X114969384Y-82640000D01*
X114987492Y-82658140D01*
X115364821Y-82814821D01*
X115773387Y-82815178D01*
X116150989Y-82659156D01*
X116440140Y-82370508D01*
X116596821Y-81993179D01*
X116597178Y-81584613D01*
X116441156Y-81207011D01*
X116152508Y-80917860D01*
X115775179Y-80761179D01*
X115366613Y-80760822D01*
X114989011Y-80916844D01*
X114969822Y-80936000D01*
X110169102Y-80936000D01*
X110319843Y-80715385D01*
X110378242Y-80427000D01*
X110378242Y-80354000D01*
X115731384Y-80354000D01*
X115749492Y-80372140D01*
X116126821Y-80528821D01*
X116535387Y-80529178D01*
X116912989Y-80373156D01*
X117202140Y-80084508D01*
X117358821Y-79707179D01*
X117359178Y-79298613D01*
X117203156Y-78921011D01*
X116914508Y-78631860D01*
X116537179Y-78475179D01*
X116128613Y-78474822D01*
X115751011Y-78630844D01*
X115731822Y-78650000D01*
X110378242Y-78650000D01*
X110378242Y-78577000D01*
X110327549Y-78307590D01*
X110168328Y-78060154D01*
X109925385Y-77894157D01*
X109637000Y-77835758D01*
X107787000Y-77835758D01*
X107517590Y-77886451D01*
X107270154Y-78045672D01*
X107104157Y-78288615D01*
X107045758Y-78577000D01*
X98846000Y-78577000D01*
X98846000Y-72013074D01*
X100404441Y-72013074D01*
X100894687Y-73199561D01*
X101801664Y-74108123D01*
X102987294Y-74600439D01*
X104271074Y-74601559D01*
X105457561Y-74111313D01*
X106366123Y-73204336D01*
X106858439Y-72018706D01*
X106859559Y-70734926D01*
X106757976Y-70489074D01*
X170508441Y-70489074D01*
X170998687Y-71675561D01*
X171905664Y-72584123D01*
X173091294Y-73076439D01*
X174375074Y-73077559D01*
X175561561Y-72587313D01*
X176470123Y-71680336D01*
X176962439Y-70494706D01*
X176963559Y-69210926D01*
X176473313Y-68024439D01*
X175566336Y-67115877D01*
X174380706Y-66623561D01*
X173096926Y-66622441D01*
X171910439Y-67112687D01*
X171001877Y-68019664D01*
X170509561Y-69205294D01*
X170508441Y-70489074D01*
X106757976Y-70489074D01*
X106369313Y-69548439D01*
X105462336Y-68639877D01*
X104276706Y-68147561D01*
X102992926Y-68146441D01*
X101806439Y-68636687D01*
X100897877Y-69543664D01*
X100405561Y-70729294D01*
X100404441Y-72013074D01*
X98846000Y-72013074D01*
X98846000Y-59697750D01*
X105541000Y-59697750D01*
X105541000Y-60978310D01*
X105637673Y-61211699D01*
X105816302Y-61390327D01*
X106049691Y-61487000D01*
X106450250Y-61487000D01*
X106609000Y-61328250D01*
X106609000Y-59539000D01*
X106863000Y-59539000D01*
X106863000Y-61328250D01*
X107021750Y-61487000D01*
X107422309Y-61487000D01*
X107655698Y-61390327D01*
X107834327Y-61211699D01*
X107931000Y-60978310D01*
X107931000Y-59697750D01*
X107772250Y-59539000D01*
X106863000Y-59539000D01*
X106609000Y-59539000D01*
X105699750Y-59539000D01*
X105541000Y-59697750D01*
X98846000Y-59697750D01*
X98846000Y-57285970D01*
X102331635Y-57285970D01*
X102491418Y-57604739D01*
X103282187Y-57914723D01*
X104131387Y-57898497D01*
X104258874Y-57845690D01*
X105541000Y-57845690D01*
X105541000Y-59126250D01*
X105699750Y-59285000D01*
X106609000Y-59285000D01*
X106609000Y-57495750D01*
X106863000Y-57495750D01*
X106863000Y-59285000D01*
X107772250Y-59285000D01*
X107931000Y-59126250D01*
X107931000Y-57972000D01*
X107934758Y-57972000D01*
X107934758Y-60852000D01*
X107985451Y-61121410D01*
X108144672Y-61368846D01*
X108368000Y-61521441D01*
X108368000Y-62645384D01*
X108349860Y-62663492D01*
X108193179Y-63040821D01*
X108192822Y-63449387D01*
X108348844Y-63826989D01*
X108637492Y-64116140D01*
X109014821Y-64272821D01*
X109423387Y-64273178D01*
X109800989Y-64117156D01*
X110090140Y-63828508D01*
X110236165Y-63476840D01*
X110380844Y-63826989D01*
X110669492Y-64116140D01*
X111046821Y-64272821D01*
X111455387Y-64273178D01*
X111832989Y-64117156D01*
X112122140Y-63828508D01*
X112278821Y-63451179D01*
X112279178Y-63042613D01*
X112123156Y-62665011D01*
X112088000Y-62629794D01*
X112088000Y-61528013D01*
X112312846Y-61383328D01*
X112478843Y-61140385D01*
X112484119Y-61114331D01*
X112485451Y-61121410D01*
X112644672Y-61368846D01*
X112887615Y-61534843D01*
X112940000Y-61545451D01*
X112940000Y-62645384D01*
X112921860Y-62663492D01*
X112765179Y-63040821D01*
X112764822Y-63449387D01*
X112920844Y-63826989D01*
X113209492Y-64116140D01*
X113586821Y-64272821D01*
X113995387Y-64273178D01*
X114372989Y-64117156D01*
X114662140Y-63828508D01*
X114818821Y-63451179D01*
X114819178Y-63042613D01*
X114663156Y-62665011D01*
X114644000Y-62645822D01*
X114644000Y-61491978D01*
X114812846Y-61383328D01*
X114978843Y-61140385D01*
X115037242Y-60852000D01*
X115037242Y-57972000D01*
X114986549Y-57702590D01*
X114827328Y-57455154D01*
X114584385Y-57289157D01*
X114568648Y-57285970D01*
X115471635Y-57285970D01*
X115631418Y-57604739D01*
X116422187Y-57914723D01*
X117271387Y-57898497D01*
X117980582Y-57604739D01*
X118140365Y-57285970D01*
X116806000Y-55951605D01*
X115471635Y-57285970D01*
X114568648Y-57285970D01*
X114296000Y-57230758D01*
X113176000Y-57230758D01*
X112906590Y-57281451D01*
X112659154Y-57440672D01*
X112493157Y-57683615D01*
X112487881Y-57709669D01*
X112486549Y-57702590D01*
X112327328Y-57455154D01*
X112084385Y-57289157D01*
X111796000Y-57230758D01*
X110676000Y-57230758D01*
X110406590Y-57281451D01*
X110234848Y-57391964D01*
X110084385Y-57289157D01*
X109796000Y-57230758D01*
X108676000Y-57230758D01*
X108406590Y-57281451D01*
X108159154Y-57440672D01*
X107993157Y-57683615D01*
X107934758Y-57972000D01*
X107931000Y-57972000D01*
X107931000Y-57845690D01*
X107834327Y-57612301D01*
X107655698Y-57433673D01*
X107422309Y-57337000D01*
X107021750Y-57337000D01*
X106863000Y-57495750D01*
X106609000Y-57495750D01*
X106450250Y-57337000D01*
X106049691Y-57337000D01*
X105816302Y-57433673D01*
X105637673Y-57612301D01*
X105541000Y-57845690D01*
X104258874Y-57845690D01*
X104840582Y-57604739D01*
X105000365Y-57285970D01*
X103666000Y-55951605D01*
X102331635Y-57285970D01*
X98846000Y-57285970D01*
X98846000Y-55388187D01*
X101523277Y-55388187D01*
X101539503Y-56237387D01*
X101833261Y-56946582D01*
X102152030Y-57106365D01*
X103486395Y-55772000D01*
X103845605Y-55772000D01*
X105179970Y-57106365D01*
X105498739Y-56946582D01*
X105808723Y-56155813D01*
X105794056Y-55388187D01*
X114663277Y-55388187D01*
X114679503Y-56237387D01*
X114973261Y-56946582D01*
X115292030Y-57106365D01*
X116626395Y-55772000D01*
X116985605Y-55772000D01*
X118319970Y-57106365D01*
X118638739Y-56946582D01*
X118948723Y-56155813D01*
X118932497Y-55306613D01*
X118638739Y-54597418D01*
X118319970Y-54437635D01*
X116985605Y-55772000D01*
X116626395Y-55772000D01*
X115292030Y-54437635D01*
X114973261Y-54597418D01*
X114663277Y-55388187D01*
X105794056Y-55388187D01*
X105792497Y-55306613D01*
X105498739Y-54597418D01*
X105179970Y-54437635D01*
X103845605Y-55772000D01*
X103486395Y-55772000D01*
X102152030Y-54437635D01*
X101833261Y-54597418D01*
X101523277Y-55388187D01*
X98846000Y-55388187D01*
X98846000Y-54258030D01*
X102331635Y-54258030D01*
X103666000Y-55592395D01*
X105000365Y-54258030D01*
X115471635Y-54258030D01*
X116806000Y-55592395D01*
X118140365Y-54258030D01*
X117980582Y-53939261D01*
X117189813Y-53629277D01*
X116340613Y-53645503D01*
X115631418Y-53939261D01*
X115471635Y-54258030D01*
X105000365Y-54258030D01*
X104840582Y-53939261D01*
X104049813Y-53629277D01*
X103200613Y-53645503D01*
X102491418Y-53939261D01*
X102331635Y-54258030D01*
X98846000Y-54258030D01*
X98846000Y-52110000D01*
X123160841Y-52110000D01*
X122996415Y-52274139D01*
G36*
X155575000Y-104267000D02*
X155595000Y-104267000D01*
X155595000Y-104521000D01*
X155575000Y-104521000D01*
X155575000Y-105714155D01*
X155804890Y-105835476D01*
X156214924Y-105665645D01*
X156247263Y-105636173D01*
X156374000Y-105762910D01*
X156374000Y-111661090D01*
X156365090Y-111670000D01*
X143026910Y-111670000D01*
X144511523Y-110185387D01*
X148070822Y-110185387D01*
X148226844Y-110562989D01*
X148515492Y-110852140D01*
X148892821Y-111008821D01*
X149301387Y-111009178D01*
X149678989Y-110853156D01*
X149698178Y-110834000D01*
X153323384Y-110834000D01*
X153341492Y-110852140D01*
X153718821Y-111008821D01*
X154127387Y-111009178D01*
X154504989Y-110853156D01*
X154794140Y-110564508D01*
X154950821Y-110187179D01*
X154951178Y-109778613D01*
X154795156Y-109401011D01*
X154506508Y-109111860D01*
X154129179Y-108955179D01*
X153720613Y-108954822D01*
X153343011Y-109110844D01*
X153323822Y-109130000D01*
X149698616Y-109130000D01*
X149680508Y-109111860D01*
X149303179Y-108955179D01*
X148894613Y-108954822D01*
X148517011Y-109110844D01*
X148227860Y-109399492D01*
X148071179Y-109776821D01*
X148070822Y-110185387D01*
X144511523Y-110185387D01*
X147926910Y-106770000D01*
X148578921Y-106770000D01*
X148578822Y-106883387D01*
X148734844Y-107260989D01*
X149023492Y-107550140D01*
X149400821Y-107706821D01*
X149809387Y-107707178D01*
X150186989Y-107551156D01*
X150206178Y-107532000D01*
X153323384Y-107532000D01*
X153341492Y-107550140D01*
X153718821Y-107706821D01*
X154127387Y-107707178D01*
X154504989Y-107551156D01*
X154794140Y-107262508D01*
X154950821Y-106885179D01*
X154951178Y-106476613D01*
X154795156Y-106099011D01*
X154506508Y-105809860D01*
X154129179Y-105653179D01*
X153854086Y-105652939D01*
X154023107Y-105540002D01*
X154230991Y-105228882D01*
X154252817Y-105275358D01*
X154681076Y-105665645D01*
X155091110Y-105835476D01*
X155321000Y-105714155D01*
X155321000Y-104521000D01*
X155301000Y-104521000D01*
X155301000Y-104267000D01*
X155321000Y-104267000D01*
X155321000Y-104247000D01*
X155575000Y-104247000D01*
X155575000Y-104267000D01*
X155575000Y-104267000D01*
G37*
X155575000Y-104267000D02*
X155595000Y-104267000D01*
X155595000Y-104521000D01*
X155575000Y-104521000D01*
X155575000Y-105714155D01*
X155804890Y-105835476D01*
X156214924Y-105665645D01*
X156247263Y-105636173D01*
X156374000Y-105762910D01*
X156374000Y-111661090D01*
X156365090Y-111670000D01*
X143026910Y-111670000D01*
X144511523Y-110185387D01*
X148070822Y-110185387D01*
X148226844Y-110562989D01*
X148515492Y-110852140D01*
X148892821Y-111008821D01*
X149301387Y-111009178D01*
X149678989Y-110853156D01*
X149698178Y-110834000D01*
X153323384Y-110834000D01*
X153341492Y-110852140D01*
X153718821Y-111008821D01*
X154127387Y-111009178D01*
X154504989Y-110853156D01*
X154794140Y-110564508D01*
X154950821Y-110187179D01*
X154951178Y-109778613D01*
X154795156Y-109401011D01*
X154506508Y-109111860D01*
X154129179Y-108955179D01*
X153720613Y-108954822D01*
X153343011Y-109110844D01*
X153323822Y-109130000D01*
X149698616Y-109130000D01*
X149680508Y-109111860D01*
X149303179Y-108955179D01*
X148894613Y-108954822D01*
X148517011Y-109110844D01*
X148227860Y-109399492D01*
X148071179Y-109776821D01*
X148070822Y-110185387D01*
X144511523Y-110185387D01*
X147926910Y-106770000D01*
X148578921Y-106770000D01*
X148578822Y-106883387D01*
X148734844Y-107260989D01*
X149023492Y-107550140D01*
X149400821Y-107706821D01*
X149809387Y-107707178D01*
X150186989Y-107551156D01*
X150206178Y-107532000D01*
X153323384Y-107532000D01*
X153341492Y-107550140D01*
X153718821Y-107706821D01*
X154127387Y-107707178D01*
X154504989Y-107551156D01*
X154794140Y-107262508D01*
X154950821Y-106885179D01*
X154951178Y-106476613D01*
X154795156Y-106099011D01*
X154506508Y-105809860D01*
X154129179Y-105653179D01*
X153854086Y-105652939D01*
X154023107Y-105540002D01*
X154230991Y-105228882D01*
X154252817Y-105275358D01*
X154681076Y-105665645D01*
X155091110Y-105835476D01*
X155321000Y-105714155D01*
X155321000Y-104521000D01*
X155301000Y-104521000D01*
X155301000Y-104267000D01*
X155321000Y-104267000D01*
X155321000Y-104247000D01*
X155575000Y-104247000D01*
X155575000Y-104267000D01*
G36*
X154332893Y-103000002D02*
X154611247Y-103185993D01*
X154252817Y-103512642D01*
X154230991Y-103559118D01*
X154023107Y-103247998D01*
X153837531Y-103124000D01*
X154023107Y-103000002D01*
X154178000Y-102768189D01*
X154332893Y-103000002D01*
X154332893Y-103000002D01*
G37*
X154332893Y-103000002D02*
X154611247Y-103185993D01*
X154252817Y-103512642D01*
X154230991Y-103559118D01*
X154023107Y-103247998D01*
X153837531Y-103124000D01*
X154023107Y-103000002D01*
X154178000Y-102768189D01*
X154332893Y-103000002D01*
M02*
