M48
;DRILL file {KiCad 4.0.7} date 05/19/18 23:16:33
;FORMAT={-:-/ absolute / inch / decimal}
FMAT,2
INCH,TZ
T1C0.016
T2C0.024
T3C0.031
T4C0.035
T5C0.039
T6C0.091
%
G90
G05
M72
T1
X4.31Y-3.02
X4.32Y-2.92
X4.51Y-5.53
X4.7Y-3.1
X4.7Y-3.15
X4.71Y-5.37
X4.71Y-5.5
X4.72Y-2.9
X4.73Y-3.84
X4.78Y-2.9
X4.78Y-3.1
X4.78Y-3.15
X5.01Y-5.01
X5.05Y-4.4
X5.29Y-4.44
X5.32Y-4.47
X5.35Y-4.5
X5.37Y-4.69
X5.38Y-4.53
X5.41Y-4.56
X5.48Y-4.62
X5.79Y-3.3
X5.81Y-4.88
X5.81Y-5.49
X5.82Y-3.4
X5.85Y-4.58
X5.85Y-4.62
X5.85Y-4.88
X5.86Y-5.27
X5.92Y-4.98
X5.92Y-5.39
X5.95Y-4.68
X5.95Y-4.88
X5.95Y-5.01
X5.98Y-4.66
X5.98Y-4.91
X6.01Y-4.68
X6.01Y-4.89
X6.04Y-3.55
X6.04Y-4.66
X6.04Y-4.91
X6.07Y-3.6
X6.07Y-4.68
X6.07Y-4.89
X6.1Y-3.5
X6.1Y-4.92
X6.1Y-5.46
X6.11Y-5.55
X6.13Y-3.4
X6.14Y-4.95
X6.16Y-3.3
X6.18Y-5.04
X6.19Y-3.2
X6.2Y-4.92
X6.2Y-4.98
X6.21Y-5.47
X6.22Y-3.25
X6.22Y-4.95
X6.25Y-3.1
X6.28Y-3.
X6.29Y-5.47
X6.31Y-2.9
X6.31Y-4.86
X6.31Y-5.04
X6.34Y-2.8
X6.38Y-2.7
X6.41Y-2.6
X6.44Y-2.5
T2
X4.38Y-3.51
X4.38Y-3.59
X4.38Y-3.78
X4.38Y-4.14
X4.38Y-4.35
X4.41Y-5.53
X4.46Y-4.14
X4.54Y-3.59
X4.62Y-3.79
X4.77Y-3.98
X4.83Y-3.93
X5.32Y-2.21
X5.38Y-5.22
X5.56Y-4.07
X5.56Y-4.5825
X5.56Y-5.23
X5.81Y-5.23
X5.82Y-5.09
X6.26Y-5.18
X6.51Y-5.54
X6.53Y-2.21
T3
X4.9Y-2.3
X4.9Y-2.4
X4.9Y-2.5
X4.9Y-2.6
X4.9Y-2.7
X4.9Y-2.8
X4.9Y-2.9
X4.9Y-3.
X4.9Y-3.1
X4.9Y-3.2
X4.9Y-3.3
X4.9Y-3.4
X4.9Y-3.5
X4.9Y-3.6
X5.5Y-2.3
X5.5Y-2.4
X5.5Y-2.5
X5.5Y-2.6
X5.5Y-2.7
X5.5Y-2.8
X5.5Y-2.9
X5.5Y-3.
X5.5Y-3.1
X5.5Y-3.2
X5.5Y-3.3
X5.5Y-3.4
X5.5Y-3.5
X5.5Y-3.6
X5.925Y-2.3
X5.925Y-2.4
X5.925Y-2.5
X5.925Y-2.6
X5.925Y-2.7
X5.925Y-2.8
X5.925Y-2.9
X5.925Y-3.
X5.925Y-3.1
X5.925Y-3.2
X5.925Y-3.3
X5.925Y-3.4
X5.925Y-3.5
X5.925Y-3.6
X6.525Y-2.3
X6.525Y-2.4
X6.525Y-2.5
X6.525Y-2.6
X6.525Y-2.7
X6.525Y-2.8
X6.525Y-2.9
X6.525Y-3.
X6.525Y-3.1
X6.525Y-3.2
X6.525Y-3.3
X6.525Y-3.4
X6.525Y-3.5
X6.525Y-3.6
T4
X4.025Y-2.925
X4.025Y-3.0234
X4.025Y-3.1219
X4.025Y-3.2203
X4.025Y-3.5
X4.025Y-3.5984
T5
X4.92Y-3.86
X4.92Y-3.96
X5.02Y-3.86
X5.02Y-3.96
X5.12Y-3.86
X5.12Y-3.96
X5.22Y-3.86
X5.22Y-3.96
X5.32Y-3.86
X5.32Y-3.96
X5.42Y-3.86
X5.42Y-3.96
X5.52Y-3.86
X5.52Y-3.96
X5.62Y-3.86
X5.62Y-3.96
X5.72Y-3.86
X5.72Y-3.96
X5.82Y-3.86
X5.82Y-3.96
X5.92Y-3.86
X5.92Y-3.96
X6.02Y-3.86
X6.02Y-3.96
X6.12Y-3.86
X6.12Y-3.96
X6.22Y-3.86
X6.22Y-3.96
X6.32Y-3.86
X6.32Y-3.96
X6.42Y-3.86
X6.42Y-3.96
X6.52Y-3.86
X6.52Y-3.96
T6
X4.0513Y-1.9657
X4.5687Y-1.9657
T0
M30
