M48
;DRILL file {KiCad 4.0.7} date 05/07/18 10:20:11
;FORMAT={-:-/ absolute / inch / decimal}
FMAT,2
INCH,TZ
T1C0.016
T2C0.024
T3C0.035
T4C0.039
T5C0.091
%
G90
G05
M72
T1
X4.3Y-2.49
X4.38Y-2.49
X4.48Y-2.49
X4.52Y-3.3
X4.55Y-3.22
X4.58Y-3.13
X5.11Y-4.18
X5.11Y-4.32
X5.17Y-4.35
X5.21Y-4.34
X5.24Y-4.37
X5.27Y-4.4
X5.28Y-4.24
X5.3Y-4.43
X5.32Y-4.21
X5.33Y-4.46
X5.36Y-4.49
X5.37Y-4.31
X5.39Y-4.52
X5.42Y-4.55
X5.45Y-4.58
X5.48Y-4.61
X5.51Y-4.64
X5.54Y-4.67
X5.57Y-4.7
X5.6Y-4.73
X5.63Y-4.76
X5.87Y-4.33
X5.89Y-4.2
X6.06Y-4.2
X6.06Y-4.33
T2
X4.41Y-5.33
X5.04Y-5.06
X5.18Y-5.06
X5.53Y-5.06
X5.67Y-5.06
X6.45Y-5.06
X6.51Y-5.34
X6.57Y-5.06
T3
X4.28Y-3.13
X4.28Y-3.2284
X4.28Y-3.3269
X4.28Y-3.4253
X4.28Y-3.75
X4.28Y-3.8484
T4
X4.92Y-4.01
X4.92Y-4.11
X5.02Y-4.01
X5.02Y-4.11
X5.12Y-4.01
X5.12Y-4.11
X5.22Y-4.01
X5.22Y-4.11
X5.32Y-4.01
X5.32Y-4.11
X5.42Y-4.01
X5.42Y-4.11
X5.52Y-4.01
X5.52Y-4.11
X5.62Y-4.01
X5.62Y-4.11
X5.72Y-4.01
X5.72Y-4.11
X5.82Y-4.01
X5.82Y-4.11
X5.92Y-4.01
X5.92Y-4.11
X6.02Y-4.01
X6.02Y-4.11
X6.12Y-4.01
X6.12Y-4.11
X6.22Y-4.01
X6.22Y-4.11
X6.32Y-4.01
X6.32Y-4.11
X6.42Y-4.01
X6.42Y-4.11
X6.52Y-4.01
X6.52Y-4.11
T5
X4.0813Y-2.1957
X4.5987Y-2.1957
T0
M30
